<?xml version="1.0" encoding="utf-8"?>
<!-- Generator: Adobe Illustrator 27.1.1, SVG Export Plug-In . SVG Version: 6.00 Build 0)  -->










<svg version="1.1" id="Layer_1" xmlns="http://www.w3.org/2000/svg" xmlns:xlink="http://www.w3.org/1999/xlink" x="0px" y="0px" viewBox="0 0 433.9 498.1" style="enable-background:new 0 0 433.9 498.1;" xml:space="preserve">
<style type="text/css">
	.st0{fill:#873F7A;}
	.st1{fill:#682B5D;}
	.st2{fill:#7A336D;}
	.st3{fill:#964B84;}
	.st4{fill:#803472;}
	.st5{fill:#FFFFFF;}
	.st6{fill:#D6355A;}
	.st7{fill:#E43D5E;}
	.st8{fill:#EE426A;}
	.st9{fill:#F05C73;}
	.st10{fill:#F68D47;}
	.st11{fill:#F37341;}
	.st12{fill:#F79654;}
	.st13{fill:#EA8939;}
	.st14{fill:#D0E8F8;}
	.st15{fill:#7FB9E5;}
	.st16{fill:#F3829C;}
	.st17{fill:#92CDF0;}
	.st18{fill:#659DD4;}
	.st19{fill:#B2E2F9;}
	.st20{fill:#CBECFC;}
	.st21{fill:#458CCA;}
</style>
<switch>
	
	<g>
		<g>
			<g>
				<g>
					<g>
						<path class="st0" d="M137.4,334.8c0-4.5-2.7-9.6-6.1-11.6c-1.5-0.9-2.8-0.9-3.9-0.3l0,0l-90.2,51.5l8.4,16.7l89.4-51.3l0,0
							C136.5,339.1,137.4,337.4,137.4,334.8z"/>
						<path class="st1" d="M47.6,386.4c0,4.5-2.7,6.5-6.1,4.6c-3.3-1.9-6.1-7.1-6.1-11.6c0-4.5,2.7-6.5,6.1-4.6
							C44.9,376.8,47.6,381.9,47.6,386.4z"/>
					</g>
					<g>
						<path class="st0" d="M249.1,270.7c0-4.5-2.7-9.6-6.1-11.6c-1.5-0.9-2.8-0.9-3.9-0.3l0,0L149,310.3l8.4,16.7l89.4-51.3l0,0
							C248.2,275,249.1,273.2,249.1,270.7z"/>
						<path class="st1" d="M159.3,322.2c0,4.5-2.7,6.5-6.1,4.6c-3.3-1.9-6.1-7.1-6.1-11.6c0-4.5,2.7-6.5,6.1-4.6
							C156.6,312.6,159.3,317.7,159.3,322.2z"/>
					</g>
					<g>
						<g>
							<path class="st1" d="M433.9,369C433.9,369,433.9,369,433.9,369c0,0.2,0-10.2,0-10.2s-10.5-2.7-10.4-2.3c0,0.1,0.1,0.5,0.1,1
								L284,277c-9.5-5.5-23.9-6.1-32.1-1.3L51.6,391.3c-3.3-0.3-8.6-0.7-8.6-0.7v10.4l0,0c-0.1,3.7,2.6,7.6,7.8,10.6l142,82
								c9.5,5.5,23.9,6.1,32.1,1.3l203.3-117.4C432.3,375.3,434.1,372.2,433.9,369z"/>
							<path class="st2" d="M225,484.7c-8.2,4.7-22.6,4.1-32.1-1.3l-142-82c-9.5-5.5-10.5-13.8-2.3-18.5l203.3-117.4
								c8.2-4.7,22.6-4.1,32.1,1.3l142,82c9.5,5.5,10.5,13.8,2.3,18.5L225,484.7z"/>
							<path class="st3" d="M426.5,366.2L223.1,483.6c-7.3,4.2-20.1,3.7-28.5-1.2l-142-82c-8.4-4.9-9.3-12.3-2-16.5l203.3-117.4
								c7.3-4.2,20.1-3.7,28.5,1.2l142,82C432.8,354.6,433.7,362,426.5,366.2z"/>
						</g>
						<g>
							<path class="st4" d="M97.6,401.4l-6.2,3.6c-2,1.1-5.5,1-7.8-0.3l-7.2-4.2c-2.3-1.3-2.5-3.3-0.6-4.5l6.2-3.6
								c2-1.1,5.5-1,7.8,0.3l7.2,4.2C99.3,398.2,99.6,400.2,97.6,401.4z"/>
							<path class="st4" d="M115.3,391.1l-6.2,3.6c-2,1.1-5.5,1-7.8-0.3l-7.2-4.2c-2.3-1.3-2.5-3.3-0.6-4.5l6.2-3.6
								c2-1.1,5.5-1,7.8,0.3l7.2,4.2C117,388,117.3,390,115.3,391.1z"/>
							<path class="st4" d="M133,380.9l-6.2,3.6c-2,1.1-5.5,1-7.8-0.3l-7.2-4.2c-2.3-1.3-2.5-3.3-0.6-4.5l6.2-3.6
								c2-1.1,5.5-1,7.8,0.3l7.2,4.2C134.8,377.7,135,379.8,133,380.9z"/>
							<path class="st4" d="M150.8,370.7l-6.2,3.6c-2,1.1-5.5,1-7.8-0.3l-7.2-4.2c-2.3-1.3-2.5-3.4-0.6-4.5l6.2-3.6
								c2-1.1,5.5-1,7.8,0.3l7.2,4.2C152.5,367.5,152.7,369.5,150.8,370.7z"/>
						</g>
						<g>
							<path class="st4" d="M168.5,360.4l-6.2,3.6c-2,1.1-5.5,1-7.8-0.3l-7.2-4.2c-2.3-1.3-2.5-3.3-0.6-4.5l6.2-3.6
								c2-1.1,5.5-1,7.8,0.3l7.2,4.2C170.2,357.3,170.5,359.3,168.5,360.4z"/>
							<path class="st4" d="M186.2,350.2l-6.2,3.6c-2,1.1-5.5,1-7.8-0.3l-7.2-4.2c-2.3-1.3-2.5-3.3-0.6-4.5l6.2-3.6
								c2-1.1,5.5-1,7.8,0.3l7.2,4.2C187.9,347,188.2,349.1,186.2,350.2z"/>
							<path class="st4" d="M203.9,340l-6.2,3.6c-2,1.1-5.5,1-7.8-0.3l-7.2-4.2c-2.3-1.3-2.5-3.3-0.6-4.5l6.2-3.6
								c2-1.1,5.5-1,7.8,0.3l7.2,4.2C205.7,336.8,205.9,338.8,203.9,340z"/>
							<path class="st4" d="M221.6,329.8l-6.2,3.6c-2,1.1-5.5,1-7.8-0.3l-7.2-4.2c-2.3-1.3-2.5-3.3-0.6-4.5l6.2-3.6
								c2-1.1,5.5-1,7.8,0.3l7.2,4.2C223.4,326.6,223.6,328.6,221.6,329.8z"/>
						</g>
						<g>
							<g>
								<path class="st4" d="M117.1,412.7l-6.2,3.6c-2,1.1-5.5,1-7.8-0.3l-7.2-4.2c-2.3-1.3-2.5-3.3-0.6-4.5l6.2-3.6
									c2-1.1,5.5-1,7.8,0.3l7.2,4.2C118.9,409.5,119.1,411.5,117.1,412.7z"/>
								<path class="st4" d="M134.9,402.4l-6.2,3.6c-2,1.1-5.5,1-7.8-0.3l-7.2-4.2c-2.3-1.3-2.5-3.3-0.6-4.5l6.2-3.6
									c2-1.1,5.5-1,7.8,0.3l7.2,4.2C136.6,399.3,136.9,401.3,134.9,402.4z"/>
								<path class="st4" d="M152.6,392.2l-6.2,3.6c-2,1.1-5.5,1-7.8-0.3l-7.2-4.2c-2.3-1.3-2.5-3.3-0.6-4.5l6.2-3.6
									c2-1.1,5.5-1,7.8,0.3l7.2,4.2C154.3,389,154.6,391.1,152.6,392.2z"/>
								<path class="st4" d="M170.3,382l-6.2,3.6c-2,1.1-5.5,1-7.8-0.3l-7.2-4.2c-2.3-1.3-2.5-3.3-0.6-4.5l6.2-3.6
									c2-1.1,5.5-1,7.8,0.3l7.2,4.2C172,378.8,172.3,380.8,170.3,382z"/>
							</g>
							<g>
								<path class="st4" d="M188,371.7l-6.2,3.6c-2,1.1-5.5,1-7.8-0.3l-7.2-4.2c-2.3-1.3-2.5-3.3-0.6-4.5l6.2-3.6
									c2-1.1,5.5-1,7.8,0.3l7.2,4.2C189.8,368.6,190,370.6,188,371.7z"/>
								<path class="st4" d="M205.8,361.5l-6.2,3.6c-2,1.1-5.5,1-7.8-0.3l-7.2-4.2c-2.3-1.3-2.5-3.3-0.6-4.5l6.2-3.6
									c2-1.1,5.5-1,7.8,0.3l7.2,4.2C207.5,358.3,207.7,360.4,205.8,361.5z"/>
								<path class="st4" d="M223.5,351.3l-6.2,3.6c-2,1.1-5.5,1-7.8-0.3l-7.2-4.2c-2.3-1.3-2.5-3.3-0.6-4.5l6.2-3.6
									c2-1.1,5.5-1,7.8,0.3l7.2,4.2C225.2,348.1,225.5,350.1,223.5,351.3z"/>
								<path class="st4" d="M241.2,341l-6.2,3.6c-2,1.1-5.5,1-7.8-0.3l-7.2-4.2c-2.3-1.3-2.5-3.3-0.6-4.5l6.2-3.6
									c2-1.1,5.5-1,7.8,0.3l7.2,4.2C242.9,337.9,243.2,339.9,241.2,341z"/>
							</g>
							<g>
								<path class="st4" d="M258.9,330.8l-6.2,3.6c-2,1.1-5.5,1-7.8-0.3l-7.2-4.2c-2.3-1.3-2.5-3.3-0.6-4.5l6.2-3.6
									c2-1.1,5.5-1,7.8,0.3l7.2,4.2C260.7,327.6,260.9,329.7,258.9,330.8z"/>
								<path class="st4" d="M276.6,320.6l-6.2,3.6c-2,1.1-5.5,1-7.8-0.3l-7.2-4.2c-2.3-1.3-2.5-3.3-0.6-4.5l6.2-3.6
									c2-1.1,5.5-1,7.8,0.3l7.2,4.2C278.4,317.4,278.6,319.4,276.6,320.6z"/>
								<path class="st4" d="M294.4,310.3l-6.2,3.6c-2,1.1-5.5,1-7.8-0.3l-7.2-4.2c-2.3-1.3-2.5-3.3-0.6-4.5l6.2-3.6
									c2-1.1,5.5-1,7.8,0.3l7.2,4.2C296.1,307.2,296.4,309.2,294.4,310.3z"/>
								<path class="st4" d="M312.1,300.1l-6.2,3.6c-2,1.1-5.5,1-7.8-0.3l-7.2-4.2c-2.3-1.3-2.5-3.3-0.6-4.5l6.2-3.6
									c2-1.1,5.5-1,7.8,0.3l7.2,4.2C313.8,296.9,314.1,299,312.1,300.1z"/>
							</g>
						</g>
						<g>
							<g>
								<path class="st4" d="M136.7,424l-6.2,3.6c-2,1.1-5.5,1-7.8-0.3l-7.2-4.2c-2.3-1.3-2.5-3.3-0.6-4.5l6.2-3.6
									c2-1.1,5.5-1,7.8,0.3l7.2,4.2C138.4,420.8,138.7,422.8,136.7,424z"/>
								<path class="st4" d="M154.4,413.7l-6.2,3.6c-2,1.1-5.5,1-7.8-0.3l-7.2-4.2c-2.3-1.3-2.5-3.3-0.6-4.5l6.2-3.6
									c2-1.1,5.5-1,7.8,0.3l7.2,4.2C156.2,410.6,156.4,412.6,154.4,413.7z"/>
								<path class="st4" d="M172.1,403.5l-6.2,3.6c-2,1.1-5.5,1-7.8-0.3l-7.2-4.2c-2.3-1.3-2.5-3.3-0.6-4.5l6.2-3.6
									c2-1.1,5.5-1,7.8,0.3l7.2,4.2C173.9,400.3,174.1,402.3,172.1,403.5z"/>
								<path class="st4" d="M189.9,393.3l-6.2,3.6c-2,1.1-5.5,1-7.8-0.3l-7.2-4.2c-2.3-1.3-2.5-3.3-0.6-4.5l6.2-3.6
									c2-1.1,5.5-1,7.8,0.3l7.2,4.2C191.6,390.1,191.9,392.1,189.9,393.3z"/>
							</g>
							<g>
								<path class="st4" d="M207.6,383l-6.2,3.6c-2,1.1-5.5,1-7.8-0.3l-7.2-4.2c-2.3-1.3-2.5-3.3-0.6-4.5l6.2-3.6
									c2-1.1,5.5-1,7.8,0.3l7.2,4.2C209.3,379.9,209.6,381.9,207.6,383z"/>
								<path class="st4" d="M225.3,372.8l-6.2,3.6c-2,1.1-5.5,1-7.8-0.3l-7.2-4.2c-2.3-1.3-2.5-3.3-0.6-4.5l6.2-3.6
									c2-1.1,5.5-1,7.8,0.3l7.2,4.2C227,369.6,227.3,371.6,225.3,372.8z"/>
								<path class="st4" d="M243,362.6l-6.2,3.6c-2,1.1-5.5,1-7.8-0.3l-7.2-4.2c-2.3-1.3-2.5-3.3-0.6-4.5l6.2-3.6
									c2-1.1,5.5-1,7.8,0.3l7.2,4.2C244.8,359.4,245,361.4,243,362.6z"/>
								<path class="st4" d="M278.5,342.1l-24,13.8c-2,1.1-5.5,1-7.8-0.3l-7.2-4.2c-2.3-1.3-2.5-3.3-0.6-4.5l24-13.8
									c2-1.1,5.5-1,7.8,0.3l7.2,4.2C280.2,338.9,280.5,340.9,278.5,342.1z"/>
							</g>
							<g>
								<path class="st4" d="M296.2,331.9l-6.2,3.6c-2,1.1-5.5,1-7.8-0.3L275,331c-2.3-1.3-2.5-3.3-0.6-4.5l6.2-3.6
									c2-1.1,5.5-1,7.8,0.3l7.2,4.2C297.9,328.7,298.2,330.7,296.2,331.9z"/>
								<path class="st4" d="M313.9,321.6l-6.2,3.6c-2,1.1-5.5,1-7.8-0.3l-7.2-4.2c-2.3-1.3-2.5-3.3-0.6-4.5l6.2-3.6
									c2-1.1,5.5-1,7.8,0.3l7.2,4.2C315.7,318.5,315.9,320.5,313.9,321.6z"/>
								<path class="st4" d="M331.6,311.4l-6.2,3.6c-2,1.1-5.5,1-7.8-0.3l-7.2-4.2c-2.3-1.3-2.5-3.3-0.6-4.5l6.2-3.6
									c2-1.1,5.5-1,7.8,0.3l7.2,4.2C333.4,308.2,333.6,310.3,331.6,311.4z"/>
							</g>
						</g>
						<g>
							<g>
								<path class="st4" d="M156.2,435.2l-6.2,3.6c-2,1.1-5.5,1-7.8-0.3l-7.2-4.2c-2.3-1.3-2.5-3.3-0.6-4.5l6.2-3.6
									c2-1.1,5.5-1,7.8,0.3l7.2,4.2C158,432.1,158.2,434.1,156.2,435.2z"/>
								<path class="st4" d="M174,425l-6.2,3.6c-2,1.1-5.5,1-7.8-0.3l-7.2-4.2c-2.3-1.3-2.5-3.3-0.6-4.5l6.2-3.6
									c2-1.1,5.5-1,7.8,0.3l7.2,4.2C175.7,421.8,176,423.9,174,425z"/>
								<path class="st4" d="M191.7,414.8l-6.2,3.6c-2,1.1-5.5,1-7.8-0.3l-7.2-4.2c-2.3-1.3-2.5-3.3-0.6-4.5l6.2-3.6
									c2-1.1,5.5-1,7.8,0.3l7.2,4.2C193.4,411.6,193.7,413.6,191.7,414.8z"/>
								<path class="st4" d="M209.4,404.5l-6.2,3.6c-2,1.1-5.5,1-7.8-0.3l-7.2-4.2c-2.3-1.3-2.5-3.3-0.6-4.5l6.2-3.6
									c2-1.1,5.5-1,7.8,0.3l7.2,4.2C211.2,401.4,211.4,403.4,209.4,404.5z"/>
							</g>
							<g>
								<path class="st4" d="M227.1,394.3l-6.2,3.6c-2,1.1-5.5,1-7.8-0.3l-7.2-4.2c-2.3-1.3-2.5-3.3-0.6-4.5l6.2-3.6
									c2-1.1,5.5-1,7.8,0.3l7.2,4.2C228.9,391.1,229.1,393.2,227.1,394.3z"/>
								<path class="st4" d="M244.9,384.1l-6.2,3.6c-2,1.1-5.5,1-7.8-0.3l-7.2-4.2c-2.3-1.3-2.5-3.4-0.6-4.5l6.2-3.6
									c2-1.1,5.5-1,7.8,0.3l7.2,4.2C246.6,380.9,246.9,382.9,244.9,384.1z"/>
								<path class="st4" d="M262.6,373.9l-6.2,3.6c-2,1.1-5.5,1-7.8-0.3l-7.2-4.2c-2.3-1.3-2.5-3.3-0.6-4.5l6.2-3.6
									c2-1.1,5.5-1,7.8,0.3l7.2,4.2C264.3,370.7,264.6,372.7,262.6,373.9z"/>
								<path class="st4" d="M280.3,363.6l-6.2,3.6c-2,1.1-5.5,1-7.8-0.3l-7.2-4.2c-2.3-1.3-2.5-3.3-0.6-4.5l6.2-3.6
									c2-1.1,5.5-1,7.8,0.3l7.2,4.2C282,360.4,282.3,362.5,280.3,363.6z"/>
							</g>
							<g>
								<path class="st4" d="M298,353.4l-6.2,3.6c-2,1.1-5.5,1-7.8-0.3l-7.2-4.2c-2.3-1.3-2.5-3.3-0.6-4.5l6.2-3.6
									c2-1.1,5.5-1,7.8,0.3l7.2,4.2C299.8,350.2,300,352.2,298,353.4z"/>
								<path class="st4" d="M315.8,343.2l-6.2,3.6c-2,1.1-5.5,1-7.8-0.3l-7.2-4.2c-2.3-1.3-2.5-3.3-0.6-4.5l6.2-3.6
									c2-1.1,5.5-1,7.8,0.3l7.2,4.2C317.5,340,317.7,342,315.8,343.2z"/>
								<path class="st4" d="M333.5,332.9l-6.2,3.6c-2,1.1-5.5,1-7.8-0.3l-7.2-4.2c-2.3-1.3-2.5-3.3-0.6-4.5l6.2-3.6
									c2-1.1,5.5-1,7.8,0.3l7.2,4.2C335.2,329.7,335.5,331.8,333.5,332.9z"/>
								<path class="st4" d="M351.2,322.7l-6.2,3.6c-2,1.1-5.5,1-7.8-0.3l-7.2-4.2c-2.3-1.3-2.5-3.3-0.6-4.5l6.2-3.6
									c2-1.1,5.5-1,7.8,0.3l7.2,4.2C352.9,319.5,353.2,321.5,351.2,322.7z"/>
							</g>
						</g>
						<g>
							<g>
								<path class="st4" d="M175.8,446.5l-6.2,3.6c-2,1.1-5.5,1-7.8-0.3l-7.2-4.2c-2.3-1.3-2.5-3.3-0.6-4.5l6.2-3.6
									c2-1.1,5.5-1,7.8,0.3l7.2,4.2C177.5,443.4,177.8,445.4,175.8,446.5z"/>
								<path class="st4" d="M193.5,436.3l-6.2,3.6c-2,1.1-5.5,1-7.8-0.3l-7.2-4.2c-2.3-1.3-2.5-3.4-0.6-4.5l6.2-3.6
									c2-1.1,5.5-1,7.8,0.3l7.2,4.2C195.3,433.1,195.5,435.2,193.5,436.3z"/>
								<path class="st4" d="M211.2,426.1l-6.2,3.6c-2,1.1-5.5,1-7.8-0.3l-7.2-4.2c-2.3-1.3-2.5-3.3-0.6-4.5l6.2-3.6
									c2-1.1,5.5-1,7.8,0.3l7.2,4.2C213,422.9,213.2,424.9,211.2,426.1z"/>
								<path class="st4" d="M282.1,385.1l-59.4,34.3c-2,1.1-5.5,1-7.8-0.3l-7.2-4.2c-2.3-1.3-2.5-3.3-0.6-4.5l59.4-34.3
									c2-1.1,5.5-1,7.8,0.3l7.2,4.2C283.9,382,284.1,384,282.1,385.1z"/>
							</g>
							<g>
								<path class="st4" d="M299.9,374.9l-6.2,3.6c-2,1.1-5.5,1-7.8-0.3l-7.2-4.2c-2.3-1.3-2.5-3.3-0.6-4.5l6.2-3.6
									c2-1.1,5.5-1,7.8,0.3l7.2,4.2C301.6,371.7,301.9,373.8,299.9,374.9z"/>
							</g>
							<g>
								<path class="st4" d="M317.6,364.7l-6.2,3.6c-2,1.1-5.5,1-7.8-0.3l-7.2-4.2c-2.3-1.3-2.5-3.3-0.6-4.5l6.2-3.6
									c2-1.1,5.5-1,7.8,0.3l7.2,4.2C319.3,361.5,319.6,363.5,317.6,364.7z"/>
								<path class="st4" d="M335.3,354.4l-6.2,3.6c-2,1.1-5.5,1-7.8-0.3l-7.2-4.2c-2.3-1.3-2.5-3.3-0.6-4.5l6.2-3.6
									c2-1.1,5.5-1,7.8,0.3l7.2,4.2C337,351.3,337.3,353.3,335.3,354.4z"/>
								<path class="st4" d="M353,344.2l-6.2,3.6c-2,1.1-5.5,1-7.8-0.3l-7.2-4.2c-2.3-1.3-2.5-3.4-0.6-4.5l6.2-3.6
									c2-1.1,5.5-1,7.8,0.3l7.2,4.2C354.8,341,355,343.1,353,344.2z"/>
								<path class="st4" d="M370.8,334l-6.2,3.6c-2,1.1-5.5,1-7.8-0.3l-7.2-4.2c-2.3-1.3-2.5-3.3-0.6-4.5l6.2-3.6
									c2-1.1,5.5-1,7.8,0.3l7.2,4.2C372.5,330.8,372.7,332.8,370.8,334z"/>
							</g>
						</g>
						<g>
							<path class="st4" d="M239.4,319.5l-6.2,3.6c-2,1.1-5.5,1-7.8-0.3l-7.2-4.2c-2.3-1.3-2.5-3.3-0.6-4.5l6.2-3.6
								c2-1.1,5.5-1,7.8,0.3l7.2,4.2C241.1,316.3,241.4,318.4,239.4,319.5z"/>
							<path class="st4" d="M257.1,309.3l-6.2,3.6c-2,1.1-5.5,1-7.8-0.3l-7.2-4.2c-2.3-1.3-2.5-3.3-0.6-4.5l6.2-3.6
								c2-1.1,5.5-1,7.8,0.3l7.2,4.2C258.8,306.1,259.1,308.1,257.1,309.3z"/>
							<path class="st4" d="M274.8,299.1l-6.2,3.6c-2,1.1-5.5,1-7.8-0.3l-7.2-4.2c-2.3-1.3-2.5-3.3-0.6-4.5l6.2-3.6
								c2-1.1,5.5-1,7.8,0.3l7.2,4.2C276.6,295.9,276.8,297.9,274.8,299.1z"/>
							<path class="st4" d="M292.5,288.8l-6.2,3.6c-2,1.1-5.5,1-7.8-0.3l-7.2-4.2c-2.3-1.3-2.5-3.3-0.6-4.5l6.2-3.6
								c2-1.1,5.5-1,7.8,0.3l7.2,4.2C294.3,285.6,294.5,287.7,292.5,288.8z"/>
							<path class="st4" d="M274.1,276.8l-8.7,5c-1.3,0.8-3.6,0.7-5.1-0.2l-2.8-1.6c-1.5-0.9-1.7-2.2-0.4-3l8.7-5
								c1.3-0.8,3.6-0.7,5.1,0.2l2.8,1.6C275.3,274.7,275.4,276,274.1,276.8z"/>
							<path class="st4" d="M256.4,287l-8.7,5c-1.3,0.8-3.6,0.7-5.1-0.2l-2.8-1.6c-1.5-0.9-1.7-2.2-0.4-3l8.7-5
								c1.3-0.8,3.6-0.7,5.1,0.2l2.8,1.6C257.6,284.9,257.7,286.2,256.4,287z"/>
							<path class="st4" d="M238.7,297.2l-8.7,5c-1.3,0.8-3.6,0.7-5.1-0.2l-2.8-1.6c-1.5-0.9-1.7-2.2-0.4-3l8.7-5
								c1.3-0.8,3.6-0.7,5.1,0.2l2.8,1.6C239.8,295.1,240,296.5,238.7,297.2z"/>
							<path class="st4" d="M221,307.5l-8.7,5c-1.3,0.8-3.6,0.7-5.1-0.2l-2.8-1.6c-1.5-0.9-1.7-2.2-0.4-3l8.7-5
								c1.3-0.8,3.6-0.7,5.1,0.2l2.8,1.6C222.1,305.4,222.3,306.7,221,307.5z"/>
							<path class="st4" d="M203.2,317.7l-8.7,5c-1.3,0.8-3.6,0.7-5.1-0.2l-2.8-1.6c-1.5-0.9-1.7-2.2-0.4-3l8.7-5
								c1.3-0.8,3.6-0.7,5.1,0.2l2.8,1.6C204.4,315.6,204.6,316.9,203.2,317.7z"/>
							<path class="st4" d="M185.5,327.9l-8.7,5c-1.3,0.8-3.6,0.7-5.1-0.2l-2.8-1.6c-1.5-0.9-1.7-2.2-0.4-3l8.7-5
								c1.3-0.8,3.6-0.7,5.1,0.2l2.8,1.6C186.7,325.8,186.8,327.2,185.5,327.9z"/>
							<path class="st4" d="M167.8,338.2l-8.7,5c-1.3,0.8-3.6,0.7-5.1-0.2l-2.8-1.6c-1.5-0.9-1.7-2.2-0.4-3l8.7-5
								c1.3-0.8,3.6-0.7,5.1,0.2l2.8,1.6C168.9,336.1,169.1,337.4,167.8,338.2z"/>
							<path class="st4" d="M150.1,348.4l-8.7,5c-1.3,0.8-3.6,0.7-5.1-0.2l-2.8-1.6c-1.5-0.9-1.7-2.2-0.4-3l8.7-5
								c1.3-0.8,3.6-0.7,5.1,0.2l2.8,1.6C151.2,346.3,151.4,347.6,150.1,348.4z"/>
							<path class="st4" d="M132.3,358.6l-8.7,5c-1.3,0.8-3.6,0.7-5.1-0.2l-2.8-1.6c-1.5-0.9-1.7-2.2-0.4-3l8.7-5
								c1.3-0.8,3.6-0.7,5.1,0.2l2.8,1.6C133.5,356.5,133.7,357.9,132.3,358.6z"/>
							<path class="st4" d="M114.6,368.9l-8.7,5c-1.3,0.8-3.6,0.7-5.1-0.2l-2.8-1.6c-1.5-0.9-1.7-2.2-0.4-3l8.7-5
								c1.3-0.8,3.6-0.7,5.1,0.2l2.8,1.6C115.8,366.8,115.9,368.1,114.6,368.9z"/>
							<path class="st4" d="M96.9,379.1l-8.7,5c-1.3,0.8-3.6,0.7-5.1-0.2l-2.8-1.6c-1.5-0.9-1.7-2.2-0.4-3l8.7-5
								c1.3-0.8,3.6-0.7,5.1,0.2l2.8,1.6C98,377,98.2,378.3,96.9,379.1z"/>
							<path class="st4" d="M79.2,389.3l-8.7,5c-1.3,0.8-3.6,0.7-5.1-0.2l-2.8-1.6c-1.5-0.9-1.7-2.2-0.4-3l8.7-5
								c1.3-0.8,3.6-0.7,5.1,0.2l2.8,1.6C80.3,387.2,80.5,388.6,79.2,389.3z"/>
						</g>
						<path class="st4" d="M341.1,406.2l-55,31.7c-3.2,1.9-8.9,1.6-12.6-0.5l-28.1-16.2c-3.7-2.1-4.1-5.4-0.9-7.3l55-31.7
							c3.2-1.9,8.9-1.6,12.6,0.5l28.1,16.2C343.9,401.1,344.3,404.4,341.1,406.2z"/>
						<path class="st5" d="M71.5,419.8l-15.6-9c-0.8-0.5-1.5-1.7-1.5-2.8l0,0c0-1.1,0.7-1.6,1.5-1.1l15.6,9c0.8,0.5,1.5,1.7,1.5,2.8
							l0,0C72.9,419.7,72.3,420.2,71.5,419.8z"/>
						<path class="st5" d="M94.5,433.3l-15.6-9c-0.8-0.5-1.5-1.7-1.5-2.8l0,0c0-1.1,0.7-1.6,1.5-1.1l15.6,9c0.8,0.5,1.5,1.7,1.5,2.8
							l0,0C95.9,433.3,95.3,433.8,94.5,433.3z"/>
						<path class="st5" d="M164.2,473.6l-15.6-9c-0.8-0.5-1.5-1.7-1.5-2.8l0,0c0-1.1,0.7-1.6,1.5-1.1l15.6,9
							c0.8,0.5,1.5,1.7,1.5,2.8l0,0C165.7,473.5,165,474,164.2,473.6z"/>
					</g>
					<path class="st1" d="M258.6,58.5l-7.2-4.1l0,0c-1.3-0.9-3.2-1-5.2,0.2L32.6,177.9c-4.1,2.4-7.5,8.8-7.5,14.3v179.4
						c0,2.9,1,4.9,2.4,5.9l0,0l7.7,4.4l3.9-8.5L246.3,254c4.1-2.4,7.5-8.8,7.5-14.3V63.8c1.5,1,2.6,1.7,2.7,1.7
						C256.7,65.5,258.6,58.5,258.6,58.5z"/>
					<path class="st2" d="M40.4,381.8L254,258.4c4.1-2.4,7.5-8.8,7.5-14.3V64.7c0-5.5-3.4-8-7.5-5.7L40.4,182.4
						c-4.1,2.4-7.5,8.8-7.5,14.3v179.4C32.9,381.6,36.3,384.2,40.4,381.8z"/>
					<path class="st3" d="M42.1,378.1l210.2-121.3c4.1-2.3,7.4-8.7,7.4-14.1V67.4c0-5.4-3.3-7.9-7.4-5.6L42.1,183.2
						c-4.1,2.3-7.4,8.7-7.4,14.1v175.3C34.7,377.9,38,380.4,42.1,378.1z"/>
					<polygon class="st1" points="252.9,77.1 41.5,199.1 41.5,362.9 252.9,240.8 					"/>
					<path class="st5" d="M144.2,131.7c0,1.9,1.2,2.8,2.6,2c1.5-0.8,2.6-3.1,2.6-5c0-1.9-1.2-2.8-2.6-2
						C145.4,127.5,144.2,129.8,144.2,131.7z"/>
					<path class="st5" d="M157,123.9c0,1.6,1,2.3,2.1,1.6c1.2-0.7,2.1-2.5,2.1-4.1c0-1.6-1-2.3-2.1-1.6
						C157.9,120.5,157,122.3,157,123.9z"/>
				</g>
				<g>
					<path class="st5" d="M32.5,206.2c0-0.4,0.7-0.5,0.7,0c0.4,7.9,0,15.7,0.1,23.6c0.1,7.8,0,15.8-0.4,23.6c0,0.5-0.8,0.8-0.8-0.2
						C32.1,238.8,30.9,221.3,32.5,206.2z"/>
					<path class="st5" d="M47.6,179.3c5.7-4.2,31.3-19,40.9-24.1c1.5-0.8,2.2-0.4,0.7,0.7c-7.3,5.7-34.5,21.7-41,24.4
						C47.7,180.6,46.7,180,47.6,179.3z"/>
					<path class="st5" d="M99.3,149.6c5.7-4.2,31.3-19,40.9-24.1c1.5-0.8,2.2-0.4,0.7,0.7c-7.3,5.7-34.5,21.7-41,24.4
						C99.4,150.8,98.4,150.3,99.3,149.6z"/>
					<path class="st5" d="M254.8,467.7c-13.4,6.5-27.2,17.9-43.1,19.6c-9.3,1-16.8-3.8-24.7-8c-6.8-3.6-13.3-7.7-20.1-11.2
						c-0.2-0.1-0.3,0.2-0.2,0.3c7.5,5.5,15.5,10.2,23.6,14.7c6.8,3.8,14,6.9,21.9,6.2c13.6-1.2,31.4-12,42.8-21.2
						C255.4,467.9,255.1,467.6,254.8,467.7z"/>
				</g>
			</g>
			<g>
				<polygon class="st6" points="355.5,315.7 355.5,330.7 348.8,324.2 				"/>
				<g>
					<g>
						<path class="st7" d="M338.8,334.4c-28-11.3-67.4-7.5-88,8.6c-20.6,16.1-14.6,38.3,13.4,49.6c28,11.3,67.4,7.5,88-8.6
							C372.8,367.9,366.8,345.7,338.8,334.4z M322.9,372.2c-8.5,6.7-24.8,8.2-36.4,3.6c-11.6-4.7-14-13.9-5.5-20.5
							c8.5-6.7,24.8-8.2,36.4-3.6C329,356.3,331.4,365.5,322.9,372.2z"/>
					</g>
					<g>
						<polygon class="st7" points="250.5,333.6 246.3,336.9 239.1,342.5 234.8,345.8 243.9,353.9 251.6,347.9 259.4,341.9 
							267.1,335.9 						"/>
						<polygon class="st7" points="368.2,381.2 364,384.5 356.8,390.1 352.5,393.4 335.9,391.1 343.7,385.1 351.4,379.1 
							359.1,373.1 						"/>
					</g>
					<g>
						<polygon class="st7" points="355.5,334 349.7,331.7 340,327.7 334.2,325.4 319.7,330.7 330.1,334.9 340.6,339.2 351.1,343.4 
													"/>
						<polygon class="st7" points="268.8,401.6 263.1,399.3 253.3,395.4 247.5,393 251.9,383.6 262.4,387.8 272.9,392.1 
							283.3,396.3 						"/>
					</g>
					<g>
						<polygon class="st7" points="303.6,321.5 296.5,322.2 284.5,323.3 277.5,324 273.6,333.5 286.5,332.3 299.4,331 312.2,329.8 
													"/>
						<polygon class="st7" points="325.6,403 318.5,403.7 306.5,404.8 299.4,405.5 290.8,397.3 303.6,396 316.5,394.7 329.4,393.5 
													"/>
					</g>
					<g>
						<polygon class="st7" points="375.7,363.8 375.7,345.5 355.1,347.1 357,354.3 359,361.6 360.9,368.8 						"/>
						<polygon class="st7" points="231.2,378 230.2,374 228.3,367.2 227.3,363.2 230.2,355.7 242.1,358.2 244,365.4 246,372.7 
							247.9,379.9 						"/>
					</g>
				</g>
				<polygon class="st8" points="234.8,327.6 234.8,345 241.9,343.5 245.4,332.3 				"/>
				<polygon class="st6" points="363.8,349.6 363.8,367.9 375.7,363.8 375.7,345.5 				"/>
				<g>
					<g>
						<path class="st9" d="M338.8,316.1c-28-11.3-67.4-7.5-88,8.6c-20.6,16.1-14.6,38.3,13.4,49.6c28,11.3,67.4,7.5,88-8.6
							C372.8,349.7,366.8,327.4,338.8,316.1z M322.9,353.9c-8.5,6.7-24.8,8.2-36.4,3.6c-11.6-4.7-14-13.9-5.5-20.5
							c8.5-6.7,24.8-8.2,36.4-3.6C329,338.1,331.4,347.2,322.9,353.9z"/>
					</g>
					<g>
						<polygon class="st9" points="250.5,315.3 246.3,318.6 239.1,324.2 234.8,327.6 243.9,335.7 251.6,329.6 259.4,323.6 
							267.1,317.6 						"/>
						<polygon class="st9" points="368.2,362.9 364,366.2 356.8,371.9 352.5,375.2 335.9,372.9 343.7,366.9 351.4,360.8 
							359.1,354.8 						"/>
					</g>
					<g>
						<polygon class="st9" points="355.5,315.7 349.7,313.4 340,309.4 334.2,307.1 319.7,312.4 330.1,316.7 340.6,320.9 
							351.1,325.1 						"/>
						<polygon class="st9" points="268.8,383.4 263.1,381 253.3,377.1 247.5,374.8 251.9,365.3 262.4,369.6 272.9,373.8 283.3,378 
													"/>
					</g>
					<g>
						<polygon class="st9" points="303.6,303.2 296.5,303.9 284.5,305.1 277.5,305.8 273.6,315.3 286.5,314 299.4,312.7 
							312.2,311.5 						"/>
						<polygon class="st9" points="325.6,384.7 318.5,385.4 306.5,386.6 299.4,387.3 290.8,379 303.6,377.7 316.5,376.5 
							329.4,375.2 						"/>
					</g>
					<g>
						<polygon class="st9" points="375.7,345.5 374.7,341.5 372.8,334.8 371.8,330.8 355.1,328.8 357,336.1 359,343.3 360.9,350.6 
													"/>
						<polygon class="st9" points="231.2,359.7 230.2,355.7 228.3,348.9 227.3,345 242.1,339.9 244,347.2 246,354.4 247.9,361.7 
													"/>
					</g>
				</g>
				<polygon class="st8" points="299.4,387.3 299.4,405.5 325.6,403 325.6,384.7 				"/>
				<polygon class="st8" points="352.5,375.2 352.5,393.4 368.2,381.2 368.2,362.9 				"/>
				<polygon class="st8" points="268.8,383.4 268.8,401.6 247.5,393 247.5,374.8 				"/>
				<polygon class="st8" points="231.2,359.7 231.2,378 227.3,363.2 227.3,345 				"/>
				<polygon class="st6" points="280.5,397.4 280.5,379.1 268.8,383.4 268.8,401.6 				"/>
				<polygon class="st6" points="244.7,361.3 244.7,379.5 231.2,378 231.2,359.7 				"/>
				<polygon class="st6" points="292.5,380.6 292.5,398.9 299.4,405.5 299.4,387.3 				"/>
				<polygon class="st6" points="325.6,384.7 328.6,377.1 328.6,395.3 325.6,403 				"/>
				<polygon class="st6" points="339.2,373.3 339.2,391.6 352.5,393.4 352.5,375.2 				"/>
			</g>
			<g>
				<polygon class="st10" points="214.3,348.3 214.3,361 208.7,355.5 				"/>
				<g>
					<g>
						<path class="st11" d="M200.2,364c-23.7-9.6-57-6.3-74.4,7.3c-17.4,13.6-12.4,32.4,11.3,42c23.7,9.6,57,6.3,74.4-7.3
							C229,392.4,223.9,373.6,200.2,364z M186.8,396c-7.2,5.6-21,7-30.8,3c-9.8-4-11.9-11.7-4.7-17.3c7.2-5.6,21-7,30.8-3
							C191.9,382.6,194,390.4,186.8,396z"/>
					</g>
					<g>
						<polygon class="st11" points="125.5,363.4 122,366.2 115.9,370.9 112.3,373.7 120,380.6 126.5,375.5 133,370.4 139.6,365.3 
													"/>
						<polygon class="st11" points="225.1,403.6 221.5,406.4 215.4,411.2 211.8,414 197.8,412.1 204.3,407 210.8,401.9 217.4,396.8 
													"/>
					</g>
					<g>
						<polygon class="st11" points="214.3,363.7 209.5,361.8 201.2,358.4 196.3,356.4 184,361 192.9,364.5 201.8,368.1 210.6,371.7 
													"/>
						<polygon class="st11" points="141,420.9 136.2,419 127.9,415.6 123,413.7 126.7,405.7 135.6,409.3 144.5,412.8 153.3,416.4 
													"/>
					</g>
					<g>
						<polygon class="st11" points="170.5,353.1 164.5,353.7 154.3,354.7 148.3,355.3 145.1,363.4 156,362.3 166.9,361.2 
							177.7,360.2 						"/>
						<polygon class="st11" points="189,422.1 183,422.7 172.9,423.7 166.9,424.2 159.6,417.2 170.5,416.2 181.4,415.1 192.3,414 
													"/>
					</g>
					<g>
						<polygon class="st11" points="231.5,388.9 231.5,373.5 214,374.8 215.6,380.9 217.3,387.1 218.9,393.2 						"/>
						<polygon class="st11" points="109.3,400.9 108.4,397.5 106.8,391.8 105.9,388.4 108.4,382.1 118.4,384.2 120.1,390.3 
							121.7,396.4 123.4,402.6 						"/>
					</g>
				</g>
				<polygon class="st10" points="112.3,358.3 112.3,373 118.2,371.8 121.2,362.3 				"/>
				<polygon class="st10" points="221.4,376.9 221.4,392.4 231.5,388.9 231.5,373.5 				"/>
				<g>
					<g>
						<path class="st12" d="M200.2,348.6c-23.7-9.6-57-6.3-74.4,7.3c-17.4,13.6-12.4,32.4,11.3,42c23.7,9.6,57,6.3,74.4-7.3
							C229,377,223.9,358.2,200.2,348.6z M186.8,380.6c-7.2,5.6-21,7-30.8,3c-9.8-4-11.9-11.7-4.7-17.3c7.2-5.6,21-7,30.8-3
							C191.9,367.2,194,374.9,186.8,380.6z"/>
					</g>
					<g>
						<polygon class="st12" points="125.5,347.9 122,350.7 115.9,355.5 112.3,358.3 120,365.2 126.5,360.1 133,355 139.6,349.9 
													"/>
						<polygon class="st12" points="225.1,388.2 221.5,391 215.4,395.8 211.8,398.6 197.8,396.6 204.3,391.5 210.8,386.4 
							217.4,381.3 						"/>
					</g>
					<g>
						<polygon class="st12" points="214.3,348.3 209.5,346.3 201.2,343 196.3,341 184,345.5 192.9,349.1 201.8,352.7 210.6,356.3 
													"/>
						<polygon class="st12" points="141,405.5 136.2,403.5 127.9,400.2 123,398.2 126.7,390.2 135.6,393.8 144.5,397.4 153.3,401 
													"/>
					</g>
					<g>
						<polygon class="st12" points="170.5,337.7 164.5,338.3 154.3,339.3 148.3,339.9 145.1,347.9 156,346.8 166.9,345.8 
							177.7,344.7 						"/>
						<polygon class="st12" points="189,406.6 183,407.2 172.9,408.2 166.9,408.8 159.6,401.8 170.5,400.7 181.4,399.7 192.3,398.6 
													"/>
					</g>
					<g>
						<polygon class="st12" points="231.5,373.5 230.5,370.1 229,364.4 228.1,361 214,359.4 215.6,365.5 217.3,371.6 218.9,377.8 
													"/>
						<polygon class="st12" points="109.3,385.5 108.4,382.1 106.8,376.4 105.9,373 118.4,368.7 120.1,374.9 121.7,381 123.4,387.1 
													"/>
					</g>
				</g>
				<polygon class="st13" points="166.9,408.8 166.9,424.2 189,422.1 189,406.6 				"/>
				<polygon class="st13" points="211.8,398.6 211.8,414 225.1,403.6 225.1,388.2 				"/>
				<polygon class="st13" points="141,405.5 141,420.9 123,413.7 123,398.2 				"/>
				<polygon class="st13" points="109.3,385.5 109.3,400.9 105.9,388.4 105.9,373 				"/>
				<polygon class="st10" points="150.9,417.3 150.9,401.9 141,405.5 141,420.9 				"/>
				<polygon class="st10" points="120.6,386.8 120.6,402.3 109.3,400.9 109.3,385.5 				"/>
				<polygon class="st10" points="161,403.2 161,418.6 166.9,424.2 166.9,408.8 				"/>
				<polygon class="st10" points="189,406.6 191.6,400.2 191.6,415.6 189,422.1 				"/>
				<polygon class="st10" points="200.5,397 200.5,412.4 211.8,414 211.8,398.6 				"/>
			</g>
			<g>
				<g>
					<path class="st14" d="M169.5,88.6L99.6,129c-5.8,3.3-10.5-0.2-10.5-8V61.7c0-7.7,4.7-16.8,10.5-20.1l69.9-40.3
						c5.8-3.3,10.5,0.2,10.5,8v59.2C180.1,76.2,175.3,85.3,169.5,88.6z"/>
				</g>
				<g>
					<polygon class="st15" points="95.8,104.8 95.8,86.2 99.9,68.2 102.5,74.6 110.7,48.7 123,64.8 132.9,44.1 145.3,64.1 150.3,52 
						163.7,78.4 					"/>
				</g>
				<g>
					<path class="st9" d="M100.2,119.5l68-39.1l3-3.1L161,59l-8.4,19.9l-13-16.4c0,0-11,18.6-10.8,19c0.2,0.4-13.5-17.8-13.5-17.8
						L107.9,88l-6.3-8.3L95.8,98v19.3L100.2,119.5z"/>
				</g>
				<g>
					<path class="st5" d="M168.1,81.7L101,120.4c-3.4,2-6.2-0.1-6.2-4.7V60.3c0-4.5,2.8-9.8,6.2-11.8l67.1-38.7
						c3.4-2,6.2,0.1,6.2,4.7v55.4C174.3,74.4,171.5,79.7,168.1,81.7z M101,51.2c-2.3,1.3-4.2,4.9-4.2,8v55.4c0,3.1,1.9,4.5,4.2,3.2
						l67.1-38.7c2.3-1.3,4.2-4.9,4.2-8V15.6c0-3.1-1.9-4.5-4.2-3.2L101,51.2z"/>
				</g>
			</g>
			<g>
				<g>
					<path class="st9" d="M0,157v142.8c0,9.6,5.9,14.1,13.1,9.9l48.2-27.8c7.2-4.2,13.1-15.5,13.1-25.1V114L0,157z"/>
					<path class="st12" d="M74.6,119v-14.4c0-9.6-5.9-14.1-13.1-9.9l-48.2,27.8C6,126.7,0.1,138,0.1,147.6V162L74.6,119z"/>
					<path class="st16" d="M43,157.8l-30.7,17.7c-1.5,0.9-2.8-0.1-2.8-2.1l0,0c0-2,1.3-4.5,2.8-5.3L43,150.4
						c1.5-0.9,2.8,0.1,2.8,2.1l0,0C45.7,154.6,44.5,157,43,157.8z"/>
					<path class="st5" d="M65.5,154.5l-17.7,10.2c-1.5,0.9-2.8,3.3-2.8,5.3c0,2,1.3,3,2.8,2.1l17.7-10.2c1.5-0.9,2.8-3.3,2.8-5.3
						C68.3,154.5,67.1,153.6,65.5,154.5z"/>
					<path class="st5" d="M39,169.8L21.3,180c-1.5,0.9-2.8,3.3-2.8,5.3c0,2,1.3,3,2.8,2.1L39,177.2c1.5-0.9,2.8-3.3,2.8-5.3
						C41.8,169.9,40.5,168.9,39,169.8z"/>
					<path class="st5" d="M43,226.2l-30.7,17.7c-1.5,0.9-2.8-0.1-2.8-2.1v0c0-2,1.3-4.5,2.8-5.3L43,218.8c1.5-0.9,2.8,0.1,2.8,2.1
						l0,0C45.7,222.9,44.5,225.3,43,226.2z"/>
					<path class="st16" d="M65.5,222.9l-17.7,10.2c-1.5,0.9-2.8,3.3-2.8,5.3c0,2,1.3,3,2.8,2.1l17.7-10.2c1.5-0.9,2.8-3.3,2.8-5.3
						C68.3,222.9,67.1,222,65.5,222.9z"/>
					<path class="st16" d="M39,238.2l-17.7,10.2c-1.5,0.9-2.8,3.3-2.8,5.3c0,2,1.3,3,2.8,2.1L39,245.6c1.5-0.9,2.8-3.3,2.8-5.3
						C41.8,238.2,40.5,237.3,39,238.2z"/>
					<path class="st16" d="M56.9,176.5l-44.6,25.8c-1.5,0.9-2.8,3.3-2.8,5.3c0,2,1.3,3,2.8,2.1l44.6-25.8c1.5-0.9,2.8-3.3,2.8-5.3
						C59.7,176.5,58.5,175.6,56.9,176.5z"/>
					<path class="st16" d="M65.5,188.6l-17.7,10.2c-1.5,0.9-2.8,3.3-2.8,5.3c0,2,1.3,3,2.8,2.1l17.7-10.2c1.5-0.9,2.8-3.3,2.8-5.3
						C68.3,188.7,67.1,187.7,65.5,188.6z"/>
					<path class="st16" d="M39,203.9l-17.7,10.2c-1.5,0.9-2.8,3.3-2.8,5.3c0,2,1.3,3,2.8,2.1L39,211.4c1.5-0.9,2.8-3.3,2.8-5.3
						C41.8,204,40.5,203.1,39,203.9z"/>
					<path class="st16" d="M39,272.4l-17.7,10.2c-1.5,0.9-2.8,3.3-2.8,5.3c0,2,1.3,3,2.8,2.1L39,279.9c1.5-0.9,2.8-3.3,2.8-5.3
						C41.8,272.5,40.5,271.5,39,272.4z"/>
				</g>
				<path class="st16" d="M67.6,107.7c0,2.9-1.8,6.3-3.9,7.5c-2.2,1.3-3.9-0.1-3.9-3c0-2.9,1.8-6.3,3.9-7.5
					C65.8,103.5,67.6,104.8,67.6,107.7z"/>
				<path class="st5" d="M54.2,115.4c0,2.9-1.8,6.3-3.9,7.5c-2.2,1.3-3.9-0.1-3.9-3c0-2.9,1.8-6.3,3.9-7.5
					C52.4,111.2,54.2,112.6,54.2,115.4z"/>
			</g>
			<g>
				<g>
					<path class="st9" d="M300.4,123.5c11.6-10.3,18.7-29.3,16-42.4c-2.7-13.1-14.3-15.4-25.8-5.1c-11.6,10.3-18.7,29.3-16,42.4
						C277.3,131.5,288.9,133.8,300.4,123.5z M286.7,107.6c-1.1-5.4,1.8-13.3,6.6-17.5c4.8-4.2,9.6-3.3,10.7,2.1
						c1.1,5.4-1.8,13.3-6.6,17.5C292.6,114,287.8,113,286.7,107.6z"/>
				</g>
				<g>
					<polygon class="st9" points="320.9,83.1 320.3,80.4 319.4,75.8 318.8,73.1 313,75.5 314,80.4 315,85.3 316,90.2 					"/>
					<polygon class="st9" points="272.3,126.3 271.7,123.6 270.8,119.1 270.2,116.4 275,109.3 276,114.2 277.1,119.1 278.1,124 
											"/>
				</g>
				<g>
					<polygon class="st9" points="296.8,131.2 299.2,129.1 303.2,125.5 305.6,123.4 306.5,115.5 302.1,119.4 297.8,123.2 
						293.5,127.1 					"/>
					<polygon class="st9" points="285.4,76.1 287.8,74 291.9,70.4 294.2,68.2 297.6,72.4 293.3,76.3 288.9,80.1 284.6,84 					"/>
				</g>
				<g>
					<polygon class="st9" points="314.4,110.2 315.6,106.8 317.8,101.1 319.1,97.7 315.6,93.7 313.3,99.9 310.9,106.1 308.6,112.3 
											"/>
					<polygon class="st9" points="272,101.8 273.2,98.4 275.4,92.6 276.7,89.2 282.5,87.2 280.1,93.3 277.8,99.5 275.5,105.7 					
						"/>
				</g>
				<g>
					<polygon class="st9" points="278.5,133.8 280.6,134.2 284.1,134.9 286.2,135.3 290.9,128.1 287.1,127.3 283.4,126.6 
						279.6,125.8 					"/>
					<polygon class="st9" points="304.9,64.2 306.9,64.6 310.4,65.3 312.5,65.7 311.5,73.7 307.7,72.9 303.9,72.2 300.2,71.4 					
						"/>
				</g>
			</g>
			<g>
				<g>
					<g>
						<path class="st17" d="M296.9,294.9c3.6-2.6,3.8-0.3,4.3-0.5c5.8-2.4,19.8-11,22.3-16.6c3.5-7.7,3.1-14.5,2-21.8
							c-3.4-9.2-9.4-16-15.8-18.2c1.9-6.5,4.8-22-13-29.8c3.5-10-3.5-29.5-17.8-33.1c-1.1-12.7-8.5-19.8-21.5-19.9
							c-5.4-8.2-14.1-10.4-22.6-5.5c-3.5-3.9-13.4-9.7-23.6-7.9c-13.5-4.8-24.5-2.2-35.4,6.1c-11.7,8.8-9.2,23.1-8,36.8
							c1.3,15.6,7,30.7,15,43.9c17.1,28.1,44.6,47,72.3,62.9c11.1,6.4,21.2,13.5,32.6,19.2C288.6,304.6,292.2,298.4,296.9,294.9z"/>
						<path class="st15" d="M322.4,302c8.2-3.3,8.8-16.6,5.7-22.5c1-8.6-0.1-16.7-2.6-23.5c1.1,7.4,1.5,14.2-2,21.8
							c-2.5,5.6-16.5,14.2-22.3,16.6c-0.5,0.2-0.7-2.1-4.3,0.5c-4.7,3.4-8.3,9.6-9.2,15.5c2.7,1.3,5.4,2.6,8.2,3.8
							C306.2,318.3,320.2,314.1,322.4,302z"/>
					</g>
					<path class="st15" d="M179.8,152.8c0,0,9.8-9.1,19.5-9.6c9.6-0.5,11.3,0.3,11.1,4.8c-0.2,4.5,3.3,6.4,4.7,3
						c1.4-3.4,0.6-7.8,6.3-6.2c5.7,1.6,14.3,5.2,13,8.1c-1.3,2.9-4.5,0.6-8,2.4c-3.2,1.6-6.4,5.2,0.7,11.8c2.8,2.6,9.6,4.1,12.3,5.9
						c4.3,2.8,7.3,5.3,11.3,6.9c6.7,2.6,11,2.1,10-0.8c-1-2.9-6-5.6-7.4-8.7c-1.4-3,1.8-7.2,3.5-8.9c2.8-2.6,4.8-4.3,9-1.1
						c4.2,3.1,9.7,8.7,8.1,12.8c-2.8,7.1,2.2,6.2,6.7,7.1c5.7,1.1,8.4,2.9,9.6,11.1c1.3,8.2,1.4,14.9-2.8,17.4
						c-4.1,2.5-10.3-2.6-11.8-4.5c-1.6-1.9,0.6,6.9-1,9c-1.6,2.1-3.4,6.7-0.3,5.8c3.1-0.8,6.7-1.9,8.8,0c3.2,2.9,2.3,7.3,5.7,9.7
						c3.4,2.4,8.1,0,8.1-6.9c0-3-2.1-7.6,2.8-6.7c5,0.9,9.9,8,8.8,12c-1.2,4-4.1,6.3-6.1,8.9c-2.1,2.6-1,7.9,1.3,9.8
						c2.3,1.9,3.9,6.4,3.6,13.5c-0.3,7.1,4.7,4,5.7,0.9c1-3.1,1.4-8.7,4-8.6c2.6,0,7.4,2.3,7.4,2.3s-1.6-5.3-6-9.7
						c-5.2-5.3-9-6.4-9-6.4s2.9-9.4,0-17.3c-2.9-8-13-12.5-13-12.5s5.2-7.9-2-20.9c-7.2-13-15.8-12.2-15.8-12.2s1.8-10.1-6.7-17.1
						c-8.6-7.1-14.6-3.4-14.6-3.4s-2-4.4-9.8-6.9c-7.8-2.5-13,2-13,2s-2.2-4.3-11.2-7.5c-6.3-2.3-12.4-0.4-12.4-0.4
						s-14.7-7-30.2,1.7c-10.6,6-12.6,13.7-12.6,13.7L179.8,152.8z"/>
					<g>
						<path class="st15" d="M121.6,198.5c0.5,0.5,0.6,1.6,0,2c-5.1,4.1-8.8,9.4-9.4,16c-0.3,4.1,0.6,7.2,2.3,10.1
							c-0.1,0.1-0.1,0.1-0.2,0.2c-1.3,2.2-1,5-0.3,7.4c0.7,2.5,2.3,5.2,4.3,7.4c-0.3,0.9-0.5,1.8-0.6,2.8c-0.5,4.3,0.2,8.6,2.4,12.3
							c2.8,4.8,6.8,7.1,11.3,8.5c-0.9,3.5,0,7.7,2.1,10.2c1.9,2.2,5.3,4,8.4,3.9c1.2,2.3,2.7,4.4,4.4,6.4c4,4.6,8.1,6.7,13.6,7.3
							c1.4,3.4,4.6,6.6,7.4,7.9c3.6,1.7,7.5,1.7,11,0.4c3.3,5.5,8.5,9.2,14.2,12c7.6,3.8,13.5,4,20.2-0.1c2,2.1,5.2,3,8,3.2
							c4.4,0.3,9.7-0.7,13.5-3.4c3.1,4,8.8,6,13.9,5.4c2.6-0.3,5.1-1.2,7.3-2.5c1.2,3.1,5.9,5.7,8.7,6.4c4.7,1.1,10.3-0.3,14-3.7
							c3.3,3.2,9.5,3.1,13.7,1.9c2.3-0.6,4.6-1.6,6.8-2.9c0.5-2.8,0.6-5.7,0-8.3c6.6-4.8,9-14.9,6.5-22.9c-1.4-4.4-4.2-8.2-7.8-11
							c-0.9-20.6-11.2-43.8-31.5-46.4c-1.2-10.7-3.8-22.1-10.5-29.5c-5.1-5.6-17.4-12.3-25.6-12.3c-1.1-6.6-6.3-13.3-16.1-16.2
							c-1.7-8.9-18-20.6-34.5-13.5c-6.4-3.3-15.3-3.3-20.3,0c-6.1-1.8-14.1-1.1-18.2,3c-5.8,5.8-8.3,12.1-9.5,20.6
							c-4.5,1.2-9.2,4.7-12,7.5c-0.7,0.7-1.5,1.6-2.3,2.6C117.6,193.9,119.1,196.4,121.6,198.5z"/>
						<path class="st15" d="M111,205.8c-10.4,5.4-15.5,19.8-10.5,31.9c-6.1,10.4-3,23.6,4.5,32.5c-3.2,8.1,2.6,22.6,9.4,24.4
							c-1.3,9.3,10.2,15.4,17.4,14.5c1.5,7,9.6,12.2,20,11.7c7.2,12.6,25.6,10.2,30.7,9.3c4.8,5.6,13.1,8.6,19.6,9.9
							c18.8,3.7,32.6-9.3,32.7-9.4c7.2,8.9,23.2,9.3,28,0.5c8.7,7.7,24.2,4.6,31.5-3.7c2.2-2.5,3.8-6.1,4.5-9.8
							c-2.2,1.3-4.5,2.2-6.8,2.9c-4.2,1.2-10.4,1.3-13.7-1.9c-3.7,3.3-9.3,4.7-14,3.7c-2.9-0.7-7.5-3.3-8.7-6.4
							c-2.2,1.3-4.7,2.2-7.3,2.5c-5.2,0.6-10.9-1.5-13.9-5.4c-3.8,2.7-9,3.8-13.5,3.4c-2.8-0.2-6-1.1-8-3.2
							c-6.8,4.1-12.6,3.9-20.2,0.1c-5.7-2.8-10.9-6.5-14.2-12c-3.5,1.2-7.4,1.3-11-0.4c-2.8-1.3-5.9-4.4-7.4-7.9
							c-5.5-0.5-9.7-2.7-13.6-7.3c-1.7-2-3.3-4.1-4.4-6.4c-3.1,0.1-6.5-1.7-8.4-3.9c-2.2-2.6-3.1-6.7-2.1-10.2
							c-4.5-1.4-8.5-3.7-11.3-8.5c-2.2-3.7-2.9-8.1-2.4-12.3c0.1-1,0.4-1.9,0.6-2.8c-2-2.2-3.5-4.9-4.3-7.4c-0.7-2.4-1-5.1,0.3-7.4
							c0.1-0.1,0.1-0.2,0.2-0.2c-1.7-2.9-2.6-6-2.3-10.1c0.5-6.6,4.3-11.9,9.4-16c0.6-0.5,0.5-1.5,0-2c-2.5-2.1-4-4.6-4.6-7.2
							C113.7,195.3,110.4,201,111,205.8z"/>
						<path class="st18" d="M111,205.8c-10.4,5.4-15.5,19.8-10.5,31.9c-6.1,10.4-3,23.6,4.5,32.5c-3.2,8.1,2.6,22.6,9.4,24.4
							c-1.3,9.3,10.2,15.4,17.4,14.5c1.5,7,9.6,12.2,20,11.7c7.2,12.6,25.6,10.2,30.7,9.3c4.8,5.6,13.1,8.6,19.6,9.9
							c18.8,3.7,32.6-9.3,32.7-9.4c7.2,8.9,23.2,9.3,28,0.5c8.7,7.7,24.2,4.6,31.5-3.7c2.2-2.5,3.8-6.1,4.5-9.8
							c-2.2,1.3-4.5,2.2-6.8,2.9c-4.2,1.2-10.4,1.3-13.7-1.9c-3.7,3.3-9.3,4.7-14,3.7c-2.9-0.7-7.5-3.3-8.7-6.4
							c-2.2,1.3-4.7,2.2-7.3,2.5c-5.2,0.6-10.9-1.5-13.9-5.4c-3.8,2.7-9,3.8-13.5,3.4c-2.8-0.2-6-1.1-8-3.2
							c-6.8,4.1-12.6,3.9-20.2,0.1c-5.7-2.8-10.9-6.5-14.2-12c-3.5,1.2-7.4,1.3-11-0.4c-2.8-1.3-5.9-4.4-7.4-7.9
							c-5.5-0.5-9.7-2.7-13.6-7.3c-1.7-2-3.3-4.1-4.4-6.4c-3.1,0.1-6.5-1.7-8.4-3.9c-2.2-2.6-3.1-6.7-2.1-10.2
							c-4.5-1.4-8.5-3.7-11.3-8.5c-2.2-3.7-2.9-8.1-2.4-12.3c0.1-1,0.4-1.9,0.6-2.8c-2-2.2-3.5-4.9-4.3-7.4c-0.7-2.4-1-5.1,0.3-7.4
							c0.1-0.1,0.1-0.2,0.2-0.2c-1.7-2.9-2.6-6-2.3-10.1c0.5-6.6,4.3-11.9,9.4-16c0.6-0.5,0.5-1.5,0-2c-2.5-2.1-4-4.6-4.6-7.2
							C113.7,195.3,110.4,201,111,205.8z"/>
					</g>
					<path class="st17" d="M190.8,179.9c-1.9-0.6-3.4,0.3-4.8,1.4c-0.7,0.6-3.9,6.1-7.1,7.2c-3.7,1.3-8.9,0.4-10.9,1.7
						c-1.3,0.8-3.9,4-4.8,4.7c-3.5,2.9-5.4,3-9.7,3.7c-1.7,0.3-3.4,0.6-5,1.4c-7,3.5-11.4,10-9.3,13.1c3.8,5.6,7.4,2.1,8.8-2.3
						c2.3-7.3,7.4-4.3,8.9-4c4.8,0.7,7.8,6.5,16.4,2.1c6.7-3.5,2.8-10.1,8.5-13.8c4.5-2.9,2.6-5.5,7.7-8.8
						C193.4,183.9,194.3,181,190.8,179.9z"/>
					<path class="st17" d="M214.6,191.3c-2.8-2.9-21.1,9.4-23.2,12c-1.7,2.2-2.5,4.7-2.6,7.3c-1,2.6-4.5,1.4-7.8,2.7
						c-2.2,0.9-7.5,4.3-10.2,9.4c-1.4,2.7-1.6,6.5,5.8,6.7c2.6,0.1,9.2-0.4,8,5.1c-0.1,0.4-5.8,4.5-6.2,7.3
						c-0.6,5.3,6.1,13.9,7.9,14.7c4.7,2.1,7.7,4.3,11.6,2.5c11.1-5.1,0.7-12.9,0-20.2c-0.7-7.1,3.8-12.2,2-15.7
						c-3.1-6.1-0.8-9.9,0.6-12.6C202.1,207.6,218,194.9,214.6,191.3z"/>
					<path class="st19" d="M198.9,247.6c-1.8-2.1-4-3.8-6.1-5.7c-2-1.8-5.5-6-8.3-3.1c-2.3,2.4-0.2,7,1.3,9.2c0.7,1,5.6,5.5,7.5,6.1
						c2.5,0.8,6.4,0.7,7.1-2.4C200.7,250.1,199.9,248.8,198.9,247.6z"/>
					<path class="st17" d="M136.4,224.8c-1.4-3.3-3.9-4.1-6.2-6.8c-2.8-3.3-3.1-4.9-5.9-3.3c-1.7,1-3.1,2.2-5.2,8.7
						c-1.5,4.8-1.3,8,0.9,14.4c1.8,5.3,4.5,5,6.9,4c3.1-1.3-0.9-4,4-9.6C132.4,230.4,137.5,227.5,136.4,224.8z"/>
					<path class="st17" d="M197,277.3c-1.6-2.2-3.1-4.4-4.5-6.8c-1.8-3-4.4-6.7-8.5-5.8c-2.8,0.6-4.3,2.5-4.8,4.8
						c-0.3,1.4-0.6,6.2,3.9,12.2c3,3.9,14.2,8.8,15.8,0.9C199.3,280.6,198.2,278.9,197,277.3z"/>
					<path class="st17" d="M244.4,243.5c-2.8-4.8-6.2-9.8-11.7-11.6c-1.4-0.5-6.4-4-11.3-6c-6.3-2.7-7.3-1.5-10.3,3.1
						c-2.2,3.4-0.1,6.3,4.9,8c3.2,1.1,12.5-0.9,17.3,1.4c7.1,3.4,2,11.8,2.6,15.2c0.3,1.8,1.5,3.3,2.9,4.3c3.1,2.4,8.4,3.4,10.9-0.4
						C252.5,252.9,246.5,247.1,244.4,243.5z"/>
					<path class="st17" d="M275.2,293.3c-1.7,1.1-3.4,2.2-5,3.3c-3.7,2.5-7.1,7.2-2.6,10.9c4,3.3,10.2,1.8,13.6-1.5
						c2.9-2.8,3.8-6.9,2.7-10.5C283.5,294.3,280.6,289.7,275.2,293.3z"/>
					<path class="st17" d="M279.5,241.7c-0.7-2-2-3.4-3.6-4.2c-1.3-0.7-8.2-4.8-11.3-2.8c-6,3.7-3.7,5.6-2.8,6
						c1.6,0.7,5.1,1,6.4,2.2c2.7,2.3,3.3,5.5,1.6,8.3c-2.4,4-8.2,12.8-5.8,17.7c1.4,2.9,7,5.1,12.9,0c3.3-2.9,7.1-3.4,8.4-0.1
						c2.3,5.7-1.8,7.3,0,11.6c1.6,3.8,10,4.8,9.4,9.9c-1,7.6,1.8,13,6.3,8.9c0.5-0.4,3.2-7.6,0.1-12.6c-1.4-2.2-2.5-4.7-4.3-6.3
						c-2.7-2.6-2.7-4.7-2.7-7c0-6.9,0-10.5-2.5-12.7c-2.3-2-6.7-1.4-10-2c-4.8-1-4.6-3.9-3.7-6.5c0.6-1.6,1.2-3.2,1.5-4.9
						C280,245.4,280.2,243.5,279.5,241.7z"/>
					<path class="st17" d="M253.4,205.1c-1.7-0.6-3-0.1-4.7,0.5c-2.4,0.9-7.8,1.3-8.9,0.9c-1.5-0.5-6.2-2.9-11-2.3
						c-7.8,1-13.4,6.7-14.2,9.5c-0.6,2.2,3.5,3.6,10.1-0.4c3.1-1.9,8.6-0.8,11.8,3.8c1.9,2.6-1,4,6.9,8.6c5,2.9,8.8,5.8,11.7,4.8
						c5.2-1.7,2.9-3.7,0.4-6.7c-4.1-4.9,1.1-9.9,1.4-11.8C257.3,209.2,256.3,206.1,253.4,205.1z"/>
					<path class="st17" d="M204.1,163.8c-0.7-0.9-5.2-3.3-6.7-3.9c-2.9-1.1-6.5-1.4-8.7-0.6c-1.5,0.5-2.5,1.6-2.1,3.2
						c0.3,1.1,1.3,2.1,2,3c0.9,1.2,1.8,2.7,3.1,3.7c1.6,1.2,3.6,1.3,5.6,1c2-0.3,4.9-0.7,6.5-2.2
						C204.8,166.9,205.1,165.1,204.1,163.8z"/>
					<path class="st17" d="M248.4,295.9c-3.9-4.9,0.6-8.4,2-12c1.8-4.6,2.9-10.4-1.8-15.1c-3.1-3.2-13.3-1.4-20.3,7.1
						c-2.6,3.2-5.9,7.6-9.8,5.6c-3.9-2-5.3-7.2-4-11.1c1.4-3.9,0.4-8.1-2.3-8.3c-4.8-0.4-8.9,3.5-8.8,8.3c0,2.3,6.8,5.5,6.7,8.8
						c-0.2,3.4-2.8,8.2-0.9,13.3c1.8,5.1,6,6.8,9.1,3.4c3.1-3.4,3.1-10,5.7-12.4c2.6-2.4,10.7-5.3,11.6-1.4
						c1.3,5.5-3.3,16.2,1.4,20.4c2.8,2.5,6.3,6.9,10.9,3.7C251.6,303.4,251.7,300.1,248.4,295.9z"/>
					<path class="st19" d="M188.7,215.2c-5.7,2.2-5.8-0.7-9.7,2.7c-3.9,3.4-4.3,6.7,2.3,7.8c4.5,0.7,5.1,5.8,9.4,6.5
						c2.3,0.4,5.3-4.7,4.8-8.5c-0.9-7,1.8-14,4.9-17.8c3.1-3.8,5.9-8.3,1.7-7.7c-1.6,0.2-9,6.6-9.7,8.7
						C191.5,210.1,191,214.3,188.7,215.2z"/>
					<path class="st19" d="M174.7,192.3c-4.5,0.6-5.7,1.6-9.9,4.7c-4.2,3.1-8.8,3.2-10.5,3.4c-1.7,0.2-5.4,0.3-9.5,3.9
						c-4.1,3.6-2.3,4.6,0,4.6c2.3,0,5.1-6.3,9.5-5.3c4.5,0.9,13.1,4,18.1,2.5c5-1.5,2.1-7.1,4.5-9.9
						C179.3,193.3,178.8,191.7,174.7,192.3z"/>
					<path class="st19" d="M248.9,208.7c-5.4,1.4-6.9,0.9-9.4,0c-2.5-0.9-8-4.3-11.4-2.8c-3.4,1.4-1.8,3.5,3.4,4.5
						c5.2,1,10,6.4,12,9.7c2,3.3,10.8,9.7,9.9,4.6c-0.9-5.2-3.5-7.9-1.4-10.9C254.1,210.7,252.8,207.7,248.9,208.7z"/>
					<path class="st19" d="M241.1,269.7c-4.3,1-7.5,2.1-7.8,4.8c-0.3,3.2,4.8,0,6.6,4.7c0.7,1.8-1.3,6.6-1.7,13.3
						c-0.4,6.7,4.8,8.3,6.9,7.3c2.1-0.9-2.6-5.6,0-12.1c2.6-6.5,4.9-11.7,3.1-15.4C246.3,268.8,244.7,268.8,241.1,269.7z"/>
					<path class="st19" d="M271.5,238.9c-2.3,0.3,1.5,5.1,1.8,8.7c0.3,3.6-4.8,11.8-5,15.7c-0.2,3.9,4.7,4.4,7.8,2.2
						c3.1-2.2,6.2-3.3,9.2,0c3,3.3,6.1,4.9,6.9,0.9c0.8-4-3.9-5.6-6.9-5.8c-3-0.1-8.3,0.9-9.7-0.4c-3.1-2.6,0.8-8,1.6-13.2
						C278,241.8,275.4,238.5,271.5,238.9z"/>
					<path class="st19" d="M212.5,282c-2.7,2.4-3.2,5.6,0.3,10.5c3.4,4.9,5.7-3.1,6-5.6C219,284.4,214.8,280.1,212.5,282z"/>
					<path class="st19" d="M185.4,268.2c-3.6,2.6-4.9,6.8,0,11.2c4.9,4.4,9.2,5.5,9.2,2.4C194.6,279.3,187.8,266.4,185.4,268.2z"/>
					<path class="st19" d="M218.8,226.6c-4.3-0.4-6,1.6-7,3.9c-1,2.4,4.7,2.1,8.3,0.9C223.7,230.3,224.5,227.1,218.8,226.6z"/>
					<path class="st19" d="M241,244.5c-3.4,2.7-2.9,10.6-1.2,11.2c2.9,0.9,6.4,2.9,6.7-1.2C246.8,250.3,243.2,242.7,241,244.5z"/>
					<path class="st17" d="M163.7,246.2c-3.2,0.1-7.1,0.4-8.3-1.7c-1.4-2.6,0.8-5.3,1.6-8.1c0.8-2.8,0.4-13.2-4.2-15.6
						c-3.1-1.6-8.8,4.1-10.2,6.9c-1.7,3.3-3.8,7.7,3.3,12.1c2.1,1.3,6.9,6.3-1.1,9c-3.7,1.2-11.2,0.7-15.1,2.6
						c-3.9,1.9,0.9,7.2,4.4,10.3c3,2.7,8.2,8.4,12.8-0.4c2.1-4,5.3-9.6,8.5-8.5c4.9,1.7,0.3,17,1.2,22.7c0.2,1.3,2.8,2.8,4.5,0.6
						c1.2-1.6,1.3-6.4,2.4-9c0.6-1.5,4.1-9.6,4.7-15.3C168.5,248.4,169.3,246.1,163.7,246.2z"/>
					<path class="st19" d="M148.6,224.7c-4.3,1.4-6.3,8.6-2.3,11.7c3.3,2.5,6.2,3.2,7.1-1.1C154.2,230.9,153.8,222.9,148.6,224.7z"/>
					<path class="st19" d="M141.4,252.7c-4.3,0.5-7.8,0-8.8,2.7c-0.8,2.1,2.7,4.7,4.6,5.8c1.6,0.9,4,2.6,7-2.2
						C147.1,254.3,147.6,251.9,141.4,252.7z"/>
					<path class="st19" d="M161.5,248.7c-3.7,0-3.3,1.7-2.1,4.6c1.2,2.9,0.2,5.4-0.5,11.4c-0.7,6,2.2,7.3,2.8,2.3
						c0.9-6.4,3.4-10.7,3.1-14.4C164.5,248.8,164.4,248.7,161.5,248.7z"/>
					<path class="st19" d="M124.9,219c-1.5,0.5-3.6,5.5-3.8,9.2c-0.2,3.7,0.8,10.7,4,9.6c3.2-1.1,2.6-6.1,4.9-8.9
						c3-3.6-0.5-4.3-1.8-6.3C127.1,220.9,127.1,218.3,124.9,219z"/>
					<path class="st17" d="M164.8,168c-3-2.8-4.4-4.4-11.2-5.1c-6.8-0.7-11,4.3-14.4,8.6c-3.4,4.2-3.3,9.9-7,11.9
						c-3.7,2-5.3,4.4-7,7.5c-1.7,3.1,2.3,5.1,5.9,1.4c3.6-3.7,4-11.2,8.1-10.2c4.1,0.9,5.8,5.7,11.9,5.1c6.1-0.6,6.8-3.9,4-7.8
						c-2.8-3.9-1.7-8.1,3.3-6.2C163.5,175,168.9,171.9,164.8,168z"/>
					<path class="st19" d="M151.2,166.4c-6,0.3-7.6,3.5-10.5,7.2c-1.4,1.9-2.5,5.5-0.7,6.1c1.8,0.6,5.9,3.4,8-1.3
						c1.5-3.3,5.7-7.9,7.6-9C157.5,168.4,155.7,166.2,151.2,166.4z"/>
					<path class="st20" d="M172.6,195.6c-2,0.7-4.6,5-2.3,6.6c0.3,0.2,0.8,0.2,1,0c1-0.7,0.8-1.5,1-2.6c0.2-1.1,0.9-2,1.2-3
						C173.8,196,173.2,195.4,172.6,195.6z"/>
					<path class="st20" d="M165.3,201.3c-0.5,0-0.9,0.2-1.4,0.1c-0.6-0.1-1.2-0.4-1.8-0.6c-0.9-0.2-2,0-2.2,1c0,0.2,0,0.4,0.2,0.5
						c0.6,0.4,1.2,0.5,1.8,0.9c0.6,0.4,1.1,0.7,1.8,0.8c1.2,0.2,2.8-0.3,2.7-1.8C166.4,201.8,165.9,201.3,165.3,201.3z"/>
					<path class="st20" d="M184.2,218c-2.4-0.3-4.5,3.1-2.3,4.7c0.5,0.4,1.2,0,1.4-0.6c0.2-0.7,0.3-1.4,0.7-2
						c0.4-0.5,0.7-0.7,0.9-1.3C185.1,218.4,184.7,218,184.2,218z"/>
					<path class="st20" d="M198.7,202.8c-2.6,0.3-4.4,4.2-3.3,6.4c0.2,0.5,0.8,0.3,1,0c0.7-0.9,1-1.9,1.4-2.9
						c0.4-0.9,1.2-1.7,1.4-2.7C199.4,203.2,199.1,202.7,198.7,202.8z"/>
					<path class="st20" d="M237.2,210.5c-1-1.6-3.9-2.7-5.7-2.4c-0.2,0-0.3,0.3-0.2,0.5c0.6,0.8,1.2,1.2,2,1.7
						c0.9,0.6,1.8,1.4,2.8,1.5C236.9,212,237.6,211.3,237.2,210.5z"/>
					<path class="st20" d="M250.1,219.3c-0.4-0.8-0.6-1.5-0.8-2.4c-0.1-0.6-0.2-2.6-1.3-2.2c-1.3,0.4-1.1,2.4-0.9,3.5
						c0.3,1.5,0.8,3.2,2.3,3.7c0.6,0.2,1.2-0.3,1.2-0.9C250.6,220.4,250.4,219.9,250.1,219.3z"/>
					<path class="st20" d="M243.9,249c-0.4-0.6-1.3-1.6-2.1-1c-0.8,0.6,0,1.8,0.2,2.5c0.3,0.9,0.3,1.6,0.8,2.4
						c0.4,0.5,1.2,0.6,1.5,0C245.2,251.6,244.7,250.2,243.9,249z"/>
					<path class="st20" d="M147.9,169.4c-2.1,0-5.2,2.6-4.4,4.9c0.2,0.6,1,0.9,1.5,0.4c0.7-0.6,0.8-1.6,1.3-2.3
						c0.5-0.8,1.3-1.3,2-1.9C148.7,170.1,148.4,169.4,147.9,169.4z"/>
					<path class="st20" d="M220.3,229c-0.9-0.8-1.9-0.6-3-0.5c-1.1,0.1-2.2,0.1-3.2,0.6c-0.4,0.2-0.4,0.8,0,0.9
						c1,0.5,2.1,0.5,3.2,0.6c1.1,0.1,2.1,0.2,3-0.5C220.6,229.8,220.6,229.3,220.3,229z"/>
					<path class="st20" d="M199.1,249.7c-1.1-0.2-2.1,0.4-3.2,0.3c-1-0.1-2-0.5-3-0.6c-0.3,0-0.7,0.3-0.6,0.6
						c0.3,3.2,6.7,4.1,7.6,0.9C200,250.4,199.6,249.8,199.1,249.7z"/>
					<path class="st20" d="M187.4,240.7c-0.5-0.5-1.4-0.2-1.4,0.6c0,1.4,0.9,3.6,1.9,4.6c0.6,0.6,1.8,0.2,1.8-0.7
						C189.5,243.7,188.6,241.7,187.4,240.7z"/>
					<path class="st20" d="M149.9,232.9c-1.4-0.4-1.5-2-2.2-3.1c-0.3-0.5-1-0.4-1.2,0.2c-0.8,2.2,0.4,4.9,2.8,5.4
						C150.8,235.7,151.5,233.3,149.9,232.9z"/>
					<path class="st20" d="M126,223.6c0.1-0.5-0.3-1-0.8-0.8c-1.3,0.5-2,1.9-2.4,3.2c-0.3,1.1-0.5,3.3,0.7,4
						c1.3,0.7,1.5-0.8,1.5-1.7c0-0.8,0-1.5,0.1-2.3C125.3,225.1,125.8,224.4,126,223.6z"/>
					<path class="st20" d="M139.4,258.4c-0.5-0.8-1.3-1.1-2-1.7c-0.6-0.5-1.1-1.3-1.8-1.6c-0.3-0.2-0.7,0-0.9,0.3
						c-0.5,1.8,1.9,4.6,3.7,4.5C139.3,260,139.9,259.1,139.4,258.4z"/>
					<path class="st20" d="M190.3,277.2c-0.6-1.1-1.6-1.9-2.2-2.9c-0.6-0.9-0.9-2.3-1.7-3c-0.4-0.3-0.9-0.3-1.1,0.1
						c-0.8,1.3,0,3.2,0.8,4.3c0.8,1.3,2,2.5,3.6,2.6C190.2,278.5,190.6,277.7,190.3,277.2z"/>
					<path class="st20" d="M242.9,272c-0.6,0-0.9,0.6-0.6,1.1c0.5,1,1.3,1.6,1.7,2.7c0.3,1,0.4,2.1,0.6,3.1c0.1,0.6,0.9,0.7,1.3,0.3
						C248.1,277.2,246.1,271.9,242.9,272z"/>
					<path class="st20" d="M242.4,292.7c-0.1-1.1,0.3-2.4,0-3.5c-0.1-0.4-0.6-0.6-1-0.4c-2,1.3-2.4,6.5,0.1,7.5
						c0.3,0.1,0.7-0.1,0.8-0.3C242.9,294.9,242.4,293.8,242.4,292.7z"/>
					<path class="st20" d="M213.6,283.8c-0.5,0-1,0.6-0.8,1c0.3,0.8,0.9,1.4,1.3,2.2c0.4,0.8,0.5,1.6,1.1,2.3
						c0.4,0.5,1.3,0.3,1.6-0.2C217.9,287.1,215.8,283.9,213.6,283.8z"/>
					<path class="st20" d="M274.1,241.6c-0.4-0.1-0.7,0.2-0.7,0.5c-0.1,0.9,0.5,1.8,0.6,2.7c0.1,0.9-0.1,1.8,0.3,2.7
						c0.2,0.6,0.9,0.9,1.4,0.4C277.1,246.4,276.3,242.2,274.1,241.6z"/>
					<path class="st20" d="M274.1,263.2c-0.1-0.2-0.3-0.4-0.5-0.6c-0.3-0.9-1.1-1.5-0.8-2.6c0.2-0.6-0.6-1.3-1.1-0.9
						c-1.2,0.9-1.6,2.3-0.9,3.7c0.6,1.3,2,1.9,3.1,1.2C274.1,263.9,274.3,263.5,274.1,263.2z"/>
					<path class="st20" d="M194.9,161.3c-0.6,0-1,0.7-0.7,1.2c0.5,1,1.4,1.7,2,2.6c0.6,0.8,1,1.9,2.1,2.1c0.5,0.1,0.9-0.1,1.1-0.5
						C200.8,164.5,197,161.2,194.9,161.3z"/>
					<path class="st19" d="M257.5,169.1c0.7,1.7,3.3,4.4,6.6,8.2c1.8,2.1,5.4,1.8,6.4-3.1c1-4.9-1.5-9.8-6.4-10.2
						C259.1,163.6,255.6,164.6,257.5,169.1z"/>
					<path class="st19" d="M222.9,148.1c-3.2,0.1-2.9,0-5.8,5.5c-2.8,5.5-2.3,6.6,1.6,4.2c3.9-2.4,4.2-5.3,9.3-5.8
						C230.7,151.7,225.4,148,222.9,148.1z"/>
					<path class="st19" d="M264,183.4c-3.2-0.2-11.5-1.1-15.3-2.9c-3.8-1.7-8.5-5.6-11.5-3.7c-3,1.9,0.6,3.6,3.9,4.3
						c3.3,0.7,13.3,3.9,15.8,5.9c3.8,3,10.1,2.9,12.4,2.9c2.3,0.1,6.7-4,4-6.5C270.7,180.8,268.4,183.6,264,183.4z"/>
					<path class="st19" d="M284.6,184.4c-2.5-0.5-4.7,8.6-4,14.1c0.7,5.4,5.7,7,7.1,0C289.1,191.5,288.9,185.2,284.6,184.4z"/>
					<path class="st19" d="M279.1,220.5c-3.4,0.9-5.3,3-2.5,6.1c2.8,3.1,5.4,2,6.3,1.1C285.8,224.9,281.3,219.8,279.1,220.5z"/>
					<path class="st19" d="M220.5,162.9c-2.1-3.4-6.8,2.3-3.2,3.5c3.6,1.2,11.7,8.9,12.1,5.8C229.8,169.4,222.9,166.7,220.5,162.9z"/>
					<path class="st19" d="M302.6,219c-2.7,0.1-3.4,2.8-2.6,6.4c0.8,3.7,4.1,2.4,6.2-0.2C308.2,222.7,304.1,219,302.6,219z"/>
					<path class="st19" d="M319.8,256c-2.6,0.3-3.9,7.2-7.3,10.3c-3.4,3.1,0.5,8.6,3.6,9.5c3.1,0.9,5.7-4.2,6.2-10.2
						C322.9,259.5,323.4,255.6,319.8,256z"/>
					<path class="st20" d="M278.5,221.8c-0.1,0-0.2,0.1-0.1,0.2c0.1,0.7,0.6,1.2,1,1.8c0.4,0.7,0.5,1,1.2,1.5c0.2,0.1,0.5,0,0.6-0.1
						C282,223.8,280.2,221.3,278.5,221.8z"/>
					<path class="st20" d="M271.4,184.2c-0.1-0.2-0.4-0.4-0.6-0.2c-0.6,0.4-1.1,1-1.8,1.4c-0.7,0.4-1.4,0.6-1.9,1.3
						c-0.4,0.6,0.2,1.3,0.8,1.3C269.4,188.2,272.1,186,271.4,184.2z"/>
					<path class="st20" d="M285.6,186.6c-0.1-0.2-0.2-0.3-0.4-0.3c-1.9-0.2-3,3.2-2.7,4.6c0.1,0.7,1.1,0.7,1.5,0.2
						c0.6-0.8,0.8-1.8,1.2-2.7C285.4,187.8,285.8,187.3,285.6,186.6z"/>
					<path class="st20" d="M302.8,222.8c0-0.6,0.1-0.9-0.1-1.4c-0.1-0.2-0.4-0.3-0.6-0.3c-1.6,0.3-2,3.9-0.2,4.2
						c0.6,0.1,0.9-0.3,1.1-0.9C303,223.8,302.8,223.3,302.8,222.8z"/>
					<path class="st20" d="M321.1,259.3c-0.4-0.6-1.3-0.5-1.5,0.2c-0.2,0.8-0.2,1.5-0.5,2.3c-0.2,0.8-0.5,1.4-0.5,2.2
						c0,0.7,0.8,1.2,1.4,0.8C321.7,263.8,322,261,321.1,259.3z"/>
					<path class="st20" d="M261,169c-0.2-0.8,0-1.5,0.2-2.3c0.2-0.9-0.8-1.4-1.5-0.9c-1.4,1.2-1.7,5.6,1,5.4c0.3,0,0.6-0.2,0.7-0.5
						C261.5,170.1,261.2,169.7,261,169z"/>
					<path class="st20" d="M222.2,149.7c-1.6-0.3-3.8,1-3.7,2.8c0,0.6,0.7,1.1,1.3,0.7c0.5-0.4,0.8-0.9,1.2-1.3
						c0.4-0.5,1-0.9,1.5-1.3C222.7,150.3,222.6,149.8,222.2,149.7z"/>
					<path class="st15" d="M213.8,320.6c-3.9-0.4-11,1.3-17.8,0c-6.7-1.3-7,6.1,0,10.6c7,4.5,19.1,1.8,22.4-2.2
						C221.7,324.9,222.2,321.5,213.8,320.6z"/>
					<path class="st15" d="M238.5,320.6c-4,1.9-0.2,5.1,5,8.3c5.2,3.3,13.7,1.8,13.4-2.2c-0.3-3.9-4.7-3.6-8.2-4.1
						C245.3,322.1,241.8,319.1,238.5,320.6z"/>
					<path class="st15" d="M163.2,319.3c-1.7,2.4,3.1,5.3,8.9,6.2c5.8,0.8,4.8-2.4,4.2-5C175.2,316.7,165.8,315.4,163.2,319.3z"/>
					<path class="st15" d="M112.1,277.7c-2.7,3.5,0.2,7.7,3.3,8.6c3.1,0.9,9-1.8,5.7-4.3C117.8,279.6,114.6,274.5,112.1,277.7z"/>
				</g>
				<g>
					<path class="st5" d="M145,196.6l-1.8-2.2c4.9-4.1,11.7-6.4,18.3-8.5c2.7-0.9,5.5-1.8,8.1-2.9c3.6-1.5,5.7-3.2,6.3-5.2
						c0.6-2.2-0.5-4.9-3.3-8.4c-5.5-7-16.7-12.1-16.8-12.2l1.2-2.6c0.5,0.2,12,5.5,17.9,13c3.4,4.3,4.6,7.9,3.8,11
						c-0.8,3-3.4,5.3-8,7.1c-2.6,1.1-5.5,2-8.2,2.9C156.1,190.7,149.5,192.9,145,196.6z"/>
				</g>
				<g>
					<path class="st5" d="M160.2,290.5c-5.5,0-11.3-2-15.6-5.9c-2-1.8-3.9-3.6-5.7-5.3c-7.7-7.3-13.3-12.5-18.3-11.6
						c-10.8,2.1-14.9,3.8-14.9,3.8l-1.8,0.8l-0.2-2c0-0.4-1-10,2.2-17.6c3.2-7.6,6.2-10.4,6.4-10.5l1.9,2.1l-1-1.1l1,1.1
						c0,0-2.7,2.5-5.6,9.5c-2.1,5.1-2.2,11.3-2.1,14.3c2.2-0.7,6.5-2,13.6-3.3c6.5-1.3,12.5,4.4,20.9,12.3c1.8,1.7,3.7,3.5,5.7,5.3
						c7,6.3,18.6,7,23.9,1.4l2.1,2C169.6,289,165,290.5,160.2,290.5z"/>
				</g>
				<g>
					<path class="st5" d="M120.3,267.7c-0.8,0-1.4-0.6-1.4-1.4c0-0.6-0.3-14,12.5-25.8c6.4-5.9,7-12.5,7.2-15.4
						c0.4-4-2.8-7.1-5.3-9.5c-0.5-0.4-0.9-0.9-1.3-1.3c-1.1-1.1-2.1-2-3.1-2.9c-3-2.6-5.7-4.9-7.7-11.8c-2.5-8.5,0.6-14.7,0.7-14.9
						c0.4-0.7,1.2-1,1.9-0.6c0.7,0.4,1,1.2,0.6,1.9c0,0.1-2.7,5.4-0.5,12.8c1.8,6.1,3.9,8,6.8,10.5c1,0.9,2.1,1.8,3.3,3.1
						c0.4,0.4,0.8,0.8,1.2,1.2c2.8,2.7,6.6,6.5,6.2,11.8c-0.3,2.9-1,10.6-8.2,17.2c-11.8,10.9-11.6,23.4-11.6,23.6
						C121.7,267,121.1,267.7,120.3,267.7C120.3,267.7,120.3,267.7,120.3,267.7z"/>
				</g>
				<g>
					<path class="st5" d="M139.9,224.6c-0.4,0-0.7-0.1-1-0.4c-0.6-0.6-0.5-1.5,0-2c4.3-4.2,11-8.9,23.5-7.5c8,0.9,13.4-4.5,18.2-9.3
						l0.2-0.2c4.8-4.8,14.1-15.1,14.2-15.2c0.5-0.6,1.4-0.6,2-0.1c0.6,0.5,0.6,1.4,0.1,2c-0.1,0.1-9.4,10.4-14.3,15.3l-0.2,0.2
						c-5,5-11.2,11.2-20.5,10.1c-11.3-1.2-17,2.7-21.2,6.7C140.6,224.5,140.3,224.6,139.9,224.6z"/>
				</g>
				<g>
					<path class="st5" d="M184.7,176.9c-0.7,0-1.2-0.4-1.4-1.1c-2.8-11.8-12.2-15.6-12.3-15.6c-0.7-0.3-1.1-1.1-0.8-1.9
						c0.3-0.7,1.1-1.1,1.9-0.8c0.4,0.2,10.9,4.5,14,17.7c0.2,0.8-0.3,1.5-1.1,1.7C184.9,176.9,184.8,176.9,184.7,176.9z"/>
				</g>
				<g>
					<path class="st5" d="M174.7,256.5C174.7,256.5,174.7,256.5,174.7,256.5c-0.8,0-1.5-0.7-1.4-1.5c0,0,0-4.5-1.6-10.2
						c-0.9-3.2-2.7-5.1-4.9-7.5c-1.5-1.7-3.2-3.6-4.9-6.2c-4.1-6.5-3.1-14.9-3.1-15.3c0.1-0.8,0.8-1.4,1.6-1.2
						c0.8,0.1,1.3,0.8,1.2,1.6c0,0.1-0.9,7.8,2.6,13.4c1.5,2.4,3.1,4.1,4.6,5.8c2.2,2.5,4.4,4.8,5.5,8.6c1.8,6.1,1.7,10.8,1.7,11
						C176.1,255.9,175.5,256.5,174.7,256.5z"/>
				</g>
				<g>
					<path class="st5" d="M113.9,217.4l-2.9-0.3c0.1-0.6,1.4-14.1,11.5-17.7l1,2.7C115.1,205.1,113.9,217.2,113.9,217.4z"/>
				</g>
				<g>
					<path class="st5" d="M162.8,284.2c0,0-0.1,0-0.1,0c-0.3,0-8.5-0.8-14.7-5.9c-5.9-4.9-12.4-10.2-12.4-10.2
						c-0.6-0.5-0.7-1.4-0.2-2c0.5-0.6,1.4-0.7,2-0.2c0,0,6.4,5.2,12.4,10.2c5.5,4.6,13,5.3,13.1,5.3c0.8,0.1,1.4,0.8,1.3,1.6
						C164.2,283.6,163.6,284.2,162.8,284.2z"/>
				</g>
				<g>
					<path class="st5" d="M222.9,195.5c-0.5,0-1-0.3-1.2-0.8c-1.6-4.7-5.7-7.6-11.6-8c-4.9-0.4-8.6-2.5-9.8-5.5
						c-0.8-2.1-0.3-4.4,1.5-6.3c4.2-4.6,10.4-6.7,10.7-6.8c0.2,0.4,0.7,1.6,0.9,2.3c-0.1,0-6,2-9.8,6.1c-1.2,1.3-1.5,2.5-1,3.7
						c0.8,2.1,3.9,3.6,7.7,3.9c9.3,0.7,12.6,6.4,13.8,9.7c0.2,0.7-0.1,1.4-0.8,1.6C223.2,195.5,223.1,195.5,222.9,195.5z"/>
				</g>
				<g>
					<path class="st5" d="M156.3,326.9c-0.2,0-0.4,0-0.5-0.1c-0.7-0.3-1.1-1.1-0.8-1.9c2.6-6.6,1.6-7.3-11.6-14.8
						c-1.4-0.8-3-1.7-4.7-2.7c-9.3-5.3-9.9-16-9.9-16.4c0-0.8,0.6-1.5,1.4-1.5c0.8-0.1,1.5,0.6,1.5,1.4c0,0.1,0.5,9.6,8.5,14.1
						c1.7,1,3.3,1.8,4.7,2.7c13,7.3,16.5,9.2,12.9,18.3C157.5,326.5,156.9,326.9,156.3,326.9z"/>
				</g>
				<g>
					<path class="st5" d="M162.8,313.4c-0.4,0-0.8-0.2-1.1-0.5c-1.9-2.2-6.3-5.3-11.6-8.4c-6-3.4-11.6-9.2-11.8-9.4
						c-0.5-0.6-0.5-1.5,0-2c0.6-0.5,1.5-0.5,2,0c0.1,0.1,5.5,5.7,11.2,8.9c5.7,3.2,10.2,6.5,12.3,9c0.5,0.6,0.5,1.5-0.1,2
						C163.5,313.3,163.2,313.4,162.8,313.4z"/>
				</g>
				<g>
					<path class="st5" d="M182.5,331.6c-0.1,0-0.1,0-0.2,0c-0.8-0.1-1.3-0.8-1.3-1.6c0-0.1,0.9-7.7-3.2-13.5
						c-4.8-6.8-2-18.8-1.9-19.3c0.2-0.8,0.9-1.3,1.7-1.1c0.8,0.2,1.3,1,1.1,1.7c0,0.1-2.6,11.3,1.4,17c4.7,6.7,3.8,15.1,3.7,15.5
						C183.8,331.1,183.2,331.6,182.5,331.6z"/>
				</g>
				<g>
					<g>
						<path class="st5" d="M253.9,236c-4.7,0-9.9-3.5-15.8-7.4c-1.5-1-3-2-4.5-3c-7.9-5-24.3-5.4-24.4-5.5c-0.7,0-1.2-0.6-1.2-1.3
							c0-0.7,0.5-1.2,1.3-1.2c0.7,0,17.3,0.4,25.7,5.8c1.6,1,3.1,2,4.6,3c6.1,4.1,11.4,7.6,15.5,6.9c3.3-0.6,7.8-3.7,10.6-6
							c0.8,0.6,1.1,1.1,1.7,1.9c-3.1,2.5-8,5.9-11.9,6.6C254.9,235.9,254.4,236,253.9,236z"/>
					</g>
				</g>
				<g>
					<path class="st5" d="M257.4,261.2c0,0-0.1,0-0.1,0c-0.8-0.1-1.4-0.7-1.3-1.5c0-0.1,0.4-5.9,0-12.6c-0.4-5.6-2.9-11.6-2.9-11.7
						c-0.3-0.7,0-1.6,0.8-1.9c0.7-0.3,1.6,0,1.9,0.8c0.1,0.3,2.8,6.5,3.2,12.6c0.5,7,0.1,12.8,0,13
						C258.8,260.6,258.2,261.2,257.4,261.2z"/>
				</g>
				<g>
					<path class="st5" d="M229.8,263.8c-0.5,0-0.9-0.2-1.2-0.7c0-0.1-4.2-6.7-10.1-11.4c-6.2-5-14.2-11.6-14.2-11.6l1.8-2.2
						c0,0,8.1,6.7,14.2,11.6c6.3,5,10.6,11.8,10.8,12.1c0.4,0.7,0.2,1.6-0.5,2C230.3,263.7,230,263.8,229.8,263.8z"/>
				</g>
				<g>
					<path class="st5" d="M119.2,239.1c1.5,2.6-0.1,6.3-3.4,8.1c-3.3,1.9-7.2,1.2-8.7-1.4c-1.5-2.6,0.1-6.3,3.4-8.1
						C113.9,235.8,117.8,236.4,119.2,239.1z"/>
					<path class="st15" d="M116.5,240.6c0.8,1.4,0,3.4-1.9,4.4c-1.8,1-4,0.7-4.8-0.8c-0.8-1.4,0-3.4,1.9-4.4
						C113.6,238.8,115.7,239.1,116.5,240.6z"/>
					<path class="st18" d="M116.5,240.6c0.8,1.4,0,3.4-1.9,4.4c-1.8,1-4,0.7-4.8-0.8c-0.8-1.4,0-3.4,1.9-4.4
						C113.6,238.8,115.7,239.1,116.5,240.6z"/>
				</g>
				<g>
					<path class="st5" d="M130.8,280.8c3,0.3,5.1,3.6,4.7,7.4c-0.4,3.8-3.1,6.6-6.1,6.3c-3-0.3-5.1-3.6-4.7-7.4
						C125.1,283.4,127.8,280.5,130.8,280.8z"/>
					<path class="st15" d="M130.5,283.9c1.6,0.2,2.8,2,2.6,4.1c-0.2,2.1-1.7,3.6-3.3,3.5c-1.6-0.2-2.8-2-2.6-4.1
						C127.4,285.3,128.9,283.8,130.5,283.9z"/>
					<path class="st18" d="M130.5,283.9c1.6,0.2,2.8,2,2.6,4.1c-0.2,2.1-1.7,3.6-3.3,3.5c-1.6-0.2-2.8-2-2.6-4.1
						C127.4,285.3,128.9,283.8,130.5,283.9z"/>
				</g>
				<g>
					<path class="st5" d="M176.3,277.1c2.7,1.4,3.6,5,2,8.1c-1.6,3.1-5,4.5-7.7,3.2c-2.7-1.4-3.6-5-2-8.1
						C170.1,277.2,173.6,275.7,176.3,277.1z"/>
					<path class="st15" d="M175,279.6c1.5,0.7,2,2.7,1.1,4.4c-0.9,1.7-2.8,2.5-4.2,1.7c-1.5-0.7-2-2.7-1.1-4.4
						C171.6,279.7,173.5,278.9,175,279.6z"/>
				</g>
				<g>
					<path class="st5" d="M201.6,189c1.5,2.6-0.1,6.3-3.4,8.1c-3.3,1.9-7.2,1.2-8.7-1.4c-1.5-2.6,0.1-6.3,3.4-8.1
						C196.3,185.7,200.1,186.4,201.6,189z"/>
					<path class="st15" d="M198.9,190.5c0.8,1.4,0,3.4-1.9,4.4c-1.8,1-4,0.7-4.8-0.8c-0.8-1.4,0-3.4,1.9-4.4
						C195.9,188.7,198.1,189.1,198.9,190.5z"/>
				</g>
				<g>
					<path class="st5" d="M229.5,192.6c1.6,2.8,0.4,6.4-2.5,8c-3,1.6-6.6,0.7-8.2-2.1c-1.6-2.8-0.4-6.4,2.5-8
						C224.3,188.8,228,189.8,229.5,192.6z"/>
					<path class="st15" d="M227.1,193.9c0.9,1.5,0.2,3.5-1.4,4.4c-1.6,0.9-3.6,0.4-4.5-1.2c-0.9-1.5-0.2-3.5,1.4-4.4
						C224.3,191.9,226.3,192.4,227.1,193.9z"/>
				</g>
				<g>
					<path class="st5" d="M174.4,250c3-0.1,5.6,2.9,5.7,6.7c0.2,3.8-2.2,7-5.2,7.1c-3,0.1-5.6-2.9-5.7-6.7
						C169.1,253.3,171.4,250.1,174.4,250z"/>
					<path class="st15" d="M174.6,253.1c1.6-0.1,3,1.6,3.1,3.7c0.1,2.1-1.2,3.8-2.8,3.9c-1.6,0.1-3-1.6-3.1-3.7
						C171.7,254.9,172.9,253.2,174.6,253.1z"/>
				</g>
				<g>
					<path class="st5" d="M146.2,197.5c0,3-3.1,5.4-6.9,5.4c-3.8,0-6.9-2.4-6.9-5.4c0-3,3.1-5.4,6.9-5.4
						C143.1,192.1,146.2,194.5,146.2,197.5z"/>
					<path class="st15" d="M143.1,197.5c0,1.6-1.7,3-3.8,3c-2.1,0-3.8-1.3-3.8-3c0-1.6,1.7-3,3.8-3
						C141.4,194.5,143.1,195.8,143.1,197.5z"/>
				</g>
				<g>
					<path class="st5" d="M213.8,218.4c0,3-2.7,5.4-6.1,5.4c-3.4,0-6.1-2.4-6.1-5.4c0-3,2.7-5.4,6.1-5.4
						C211.1,213,213.8,215.4,213.8,218.4z"/>
					<path class="st15" d="M211.1,218.4c0,1.6-1.5,3-3.3,3s-3.3-1.3-3.3-3c0-1.6,1.5-3,3.3-3S211.1,216.7,211.1,218.4z"/>
				</g>
				<g>
					<path class="st5" d="M207.4,233.2c2.8,1.1,4,4.6,2.8,7.7c-1.2,3.1-4.5,4.8-7.3,3.7c-2.8-1.1-4-4.6-2.8-7.7
						C201.3,233.8,204.6,232.1,207.4,233.2z"/>
					<path class="st15" d="M206.3,235.8c1.5,0.6,2.2,2.5,1.5,4.2c-0.7,1.7-2.5,2.6-4,2c-1.5-0.6-2.2-2.5-1.5-4.2
						C203,236.1,204.8,235.2,206.3,235.8z"/>
				</g>
				<g>
					<path class="st5" d="M259.2,259.4c2.6,1.6,3.2,5.2,1.4,8.1c-1.8,2.9-5.3,3.9-7.8,2.3c-2.6-1.6-3.2-5.2-1.4-8.1
						C253.2,258.9,256.7,257.8,259.2,259.4z"/>
					<path class="st15" d="M257.8,261.8c1.4,0.9,1.7,2.8,0.8,4.4c-1,1.6-2.9,2.1-4.3,1.3c-1.4-0.9-1.7-2.8-0.8-4.4
						C254.5,261.5,256.4,260.9,257.8,261.8z"/>
				</g>
				<g>
					<path class="st5" d="M294.7,300.9c2.6,1.6,3.2,5.2,1.4,8.1c-1.8,2.9-5.3,3.9-7.8,2.3c-2.6-1.6-3.2-5.2-1.4-8.1
						C288.7,300.3,292.2,299.3,294.7,300.9z"/>
					<path class="st15" d="M293.3,303.2c1.4,0.9,1.7,2.8,0.8,4.4c-1,1.6-2.9,2.1-4.3,1.3c-1.4-0.9-1.7-2.8-0.8-4.4
						C289.9,302.9,291.9,302.4,293.3,303.2z"/>
				</g>
				<g>
					<path class="st5" d="M282.3,278.6c2.6,1.6,3.2,5.2,1.4,8.1c-1.8,2.9-5.3,3.9-7.8,2.3c-2.6-1.6-3.2-5.2-1.4-8.1
						C276.3,278,279.8,277,282.3,278.6z"/>
					<path class="st15" d="M280.9,280.9c1.4,0.9,1.7,2.8,0.8,4.4c-1,1.6-2.9,2.1-4.3,1.3c-1.4-0.9-1.7-2.8-0.8-4.4
						C277.6,280.6,279.5,280,280.9,280.9z"/>
				</g>
				<g>
					<path class="st5" d="M234.4,258.5c2.6,1.6,3.2,5.2,1.4,8.1c-1.8,2.9-5.3,3.9-7.8,2.3c-2.6-1.6-3.2-5.2-1.4-8.1
						C228.3,258,231.9,256.9,234.4,258.5z"/>
					<path class="st15" d="M233,260.9c1.4,0.9,1.7,2.8,0.8,4.4c-1,1.6-2.9,2.1-4.3,1.3c-1.4-0.9-1.7-2.8-0.8-4.4
						C229.6,260.6,231.6,260,233,260.9z"/>
				</g>
				<g>
					<path class="st5" d="M263.8,278.6c2.6,1.6,3.2,5.2,1.4,8.1c-1.8,2.9-5.3,3.9-7.8,2.3c-2.6-1.6-3.2-5.2-1.4-8.1
						C257.7,278,261.2,277,263.8,278.6z"/>
					<path class="st15" d="M262.3,280.9c1.4,0.9,1.7,2.8,0.8,4.4c-1,1.6-2.9,2.1-4.3,1.3c-1.4-0.9-1.7-2.8-0.8-4.4
						C259,280.6,260.9,280,262.3,280.9z"/>
				</g>
				<g>
					<path class="st5" d="M110.4,215.1c3-0.1,5.5,3,5.6,6.8c0.1,3.8-2.3,7-5.3,7c-3,0.1-5.5-3-5.6-6.8
						C105,218.4,107.4,215.2,110.4,215.1z"/>
					<path class="st15" d="M110.5,218.3c1.6,0,3,1.6,3.1,3.7c0,2.1-1.2,3.8-2.9,3.9c-1.6,0-3-1.6-3.1-3.7
						C107.5,220,108.8,218.3,110.5,218.3z"/>
					<path class="st18" d="M110.5,218.3c1.6,0,3,1.6,3.1,3.7c0,2.1-1.2,3.8-2.9,3.9c-1.6,0-3-1.6-3.1-3.7
						C107.5,220,108.8,218.3,110.5,218.3z"/>
				</g>
				<g>
					<path class="st5" d="M178.2,293.9c3,0.4,5,3.5,4.6,7c-0.4,3.5-3.2,6-6.2,5.6c-3-0.4-5-3.5-4.6-7
						C172.4,296,175.2,293.5,178.2,293.9z"/>
					<path class="st15" d="M177.8,296.7c1.6,0.2,2.8,1.9,2.5,3.8c-0.2,1.9-1.8,3.3-3.4,3.1c-1.6-0.2-2.8-1.9-2.5-3.8
						C174.7,297.9,176.2,296.5,177.8,296.7z"/>
				</g>
				<g>
					<path class="st5" d="M193.8,288.9c3,0.4,5,3.5,4.6,7c-0.4,3.5-3.2,6-6.2,5.6c-3-0.4-5-3.5-4.6-7
						C188.1,291,190.8,288.5,193.8,288.9z"/>
					<path class="st15" d="M193.4,291.7c1.6,0.2,2.8,1.9,2.5,3.8c-0.2,1.9-1.8,3.3-3.4,3.1c-1.6-0.2-2.8-1.9-2.5-3.8
						C190.3,292.9,191.8,291.5,193.4,291.7z"/>
				</g>
				<g>
					<path class="st5" d="M234.8,332.1c-0.8,0-1.4-0.6-1.4-1.4c0-0.1-0.2-6.6-3.4-13.2c-3.1-6.2-7.5-7.8-20-9.9
						c-7.1-1.2-14.5-8-14.9-8.3c-0.6-0.5-0.6-1.4-0.1-2c0.5-0.6,1.5-0.6,2-0.1c0.1,0.1,7.2,6.5,13.4,7.6
						c12.4,2.1,18.2,3.8,22.1,11.5c3.6,7.2,3.7,14.1,3.7,14.4C236.2,331.5,235.6,332.1,234.8,332.1
						C234.8,332.1,234.8,332.1,234.8,332.1z"/>
				</g>
				<g>
					<path class="st5" d="M238.7,318.1c-0.7,0-1.3-0.5-1.4-1.2c0-0.1-0.9-5.3-3.7-9.8c-2.9-4.5-7-7.4-10.3-9.5
						c-0.7-0.4-0.9-1.3-0.5-2c0.4-0.7,1.3-0.9,2-0.5c3.5,2.2,8,5.4,11.2,10.4c3.2,5,4.1,10.7,4.2,10.9c0.1,0.8-0.4,1.5-1.2,1.6
						C238.9,318.1,238.8,318.1,238.7,318.1z"/>
				</g>
				<g>
					<path class="st5" d="M262.8,332.6c-0.7,0-1.3-0.5-1.4-1.2c0-0.1-1.9-10.4-2.1-22.1c-0.1-11.7-0.2-20.6-0.2-20.6
						c0-0.8,0.6-1.4,1.4-1.5c0.8,0,1.4,0.6,1.5,1.4c0,0,0.1,8.9,0.2,20.6c0.1,11.4,2,21.5,2,21.6c0.1,0.8-0.4,1.5-1.2,1.7
						C263,332.6,262.9,332.6,262.8,332.6z"/>
				</g>
				<g>
					<path class="st5" d="M261.5,320.4c-0.8,0-1.5-0.6-1.5-1.4c0-0.8,0.5-1.4,1.3-1.4c0,0,0.2,0,0.2,0c2.7,0,9.1,0,14.4-2.2
						c5-2,11.9-6.5,12-6.5c0.7-0.4,1.6-0.2,2,0.4c0.4,0.7,0.2,1.6-0.4,2c-0.3,0.2-7.2,4.7-12.5,6.8
						C271.1,320.3,264.4,320.3,261.5,320.4C261.5,320.4,261.5,320.4,261.5,320.4z"/>
				</g>
				<g>
					<path class="st5" d="M255.2,321.1c-0.6,0-1.2-0.4-1.4-1.1c-0.1-0.2-1.6-6.1-1.7-12.1c-0.1-7.3-0.2-11.6-0.2-11.6
						c0-0.8,0.6-1.5,1.4-1.5c0.9,0,1.5,0.6,1.5,1.4c0,0,0.1,4.3,0.2,11.6c0.1,5.6,1.6,11.3,1.6,11.3c0.2,0.8-0.2,1.6-1,1.8
						C255.4,321,255.3,321.1,255.2,321.1z"/>
				</g>
				<g>
					<path class="st5" d="M260.6,296.6c-0.6,0-1.1-0.3-1.3-0.9c-0.3-0.7,0-1.6,0.8-1.9c0.1,0,9.7-4.1,14.3-8c0.6-0.5,1.5-0.4,2,0.2
						c0.5,0.6,0.4,1.5-0.2,2c-5,4.2-14.7,8.3-15.1,8.5C261,296.5,260.8,296.6,260.6,296.6z"/>
				</g>
				<g>
					<path class="st5" d="M202.2,149.5c-0.6,0-1.1-0.3-1.3-0.9c-2.5-6.1-3.8-9.2-3.8-9.2c-0.3-0.7,0.1-1.6,0.8-1.9
						c0.7-0.3,1.6,0.1,1.9,0.8c0,0,1.2,3.1,3.8,9.1c0.3,0.7,0,1.6-0.8,1.9C202.6,149.5,202.4,149.5,202.2,149.5z"/>
				</g>
				<g>
					<path class="st5" d="M208.3,147c0,3-2.7,5.4-6.1,5.4c-3.4,0-6.1-2.4-6.1-5.4c0-3,2.7-5.4,6.1-5.4
						C205.6,141.6,208.3,144,208.3,147z"/>
					<path class="st15" d="M205.5,147c0,1.6-1.5,3-3.3,3c-1.8,0-3.3-1.3-3.3-3c0-1.6,1.5-3,3.3-3C204,144,205.5,145.4,205.5,147z"/>
				</g>
				<g>
					<path class="st5" d="M237.3,162.8c-4.4,0-9.5-1.5-10.3-1.7c-0.8-0.2-1.2-1-0.9-1.8c0.2-0.8,1-1.2,1.8-1
						c2.6,0.8,9.9,2.5,12.8,1.1c2.6-1.3,6.1-7.9,7.6-11.8c0.3-0.7,1.1-1.1,1.9-0.8c0.7,0.3,1.1,1.1,0.8,1.9
						c-0.5,1.1-4.5,11.1-9,13.3C240.7,162.6,239.1,162.8,237.3,162.8z"/>
				</g>
				<g>
					<path class="st5" d="M251.2,175.2c-0.4,0-0.7-0.1-1-0.4c-0.2-0.2-4.1-4.2-3.5-9.2c0.5-4.6,3.7-11.1,3.9-11.4
						c0.4-0.7,1.2-1,1.9-0.6c0.7,0.4,1,1.2,0.6,1.9c0,0.1-3.1,6.4-3.6,10.5c-0.4,3.7,2.7,6.9,2.7,6.9c0.6,0.6,0.5,1.5,0,2
						C251.9,175,251.6,175.2,251.2,175.2z"/>
				</g>
				<g>
					<path class="st5" d="M232.8,156.4c1.6,2.8,0.4,6.4-2.5,8c-3,1.6-6.6,0.7-8.2-2.1c-1.6-2.8-0.4-6.4,2.5-8
						C227.6,152.7,231.3,153.6,232.8,156.4z"/>
					<path class="st15" d="M230.4,157.8c0.9,1.5,0.2,3.5-1.4,4.4c-1.6,0.9-3.6,0.4-4.5-1.2c-0.9-1.5-0.2-3.5,1.4-4.4
						C227.5,155.7,229.5,156.2,230.4,157.8z"/>
				</g>
				<g>
					<path class="st5" d="M287.3,215.1c-4,0-8.3-2.6-11.1-7.1c-3.1-5-7.5-11.6-7.5-11.6l2.4-1.6c0,0,4.3,6.7,7.5,11.7
						c2.5,4,7.2,7.1,11.2,5.2c5.8-2.7,7.7-5.3,7.7-5.3c0.5-0.6,1.4-0.8,2-0.3c0.6,0.5,0.8,1.4,0.3,2c-0.1,0.1-2.3,3.1-8.8,6.2
						C289.9,214.8,288.6,215.1,287.3,215.1z"/>
				</g>
				<g>
					<path class="st5" d="M275.3,193.8c1.6,2.8,0.4,6.4-2.5,8c-3,1.6-6.6,0.7-8.2-2.1c-1.6-2.8-0.4-6.4,2.5-8
						C270.1,190,273.8,191,275.3,193.8z"/>
					<path class="st15" d="M272.9,195.1c0.9,1.5,0.2,3.5-1.4,4.4c-1.6,0.9-3.6,0.4-4.5-1.2c-0.9-1.5-0.2-3.5,1.4-4.4
						C270.1,193.1,272.1,193.6,272.9,195.1z"/>
				</g>
				<g>
					<path class="st5" d="M297.6,236.2c0,0-4.4-6.1-7.4-10c-4.5-5.9-3.9-12.4-3.9-12.7c0.1-0.8,0.8-1.4,1.6-1.3
						c0.8,0.1,1.4,0.8,1.3,1.6c0,0.1-0.5,5.6,3.3,10.6c3,3.9,7.5,10.1,7.5,10.1L297.6,236.2z"/>
				</g>
				<g>
					<path class="st5" d="M307.4,261.2c-0.1,0-0.3,0-0.4-0.1c-0.8-0.2-1.2-1-0.9-1.8c0-0.1,1.8-5.9,2.6-9.4c1.2-5.7,1.2-12,1.2-12.1
						c0-0.8,0.6-1.4,1.4-1.4l0,0c0.8,0,1.4,0.6,1.4,1.4c0,0.3,0,6.6-1.2,12.7c-0.8,3.7-2.6,9.5-2.6,9.7
						C308.6,260.8,308,261.2,307.4,261.2z"/>
				</g>
				<g>
					<path class="st5" d="M323.7,304.4c-0.7,0-1.3-0.5-1.4-1.3c0-0.1-0.8-7-2.6-13.2c-1.1-4-4.5-7.4-4.5-7.4c-0.6-0.6-0.6-1.5,0-2
						c0.6-0.6,1.5-0.6,2,0c0.2,0.2,3.9,4,5.2,8.7c1.8,6.5,2.6,13.3,2.7,13.6c0.1,0.8-0.5,1.5-1.3,1.6
						C323.8,304.4,323.8,304.4,323.7,304.4z"/>
				</g>
				<g>
					<path class="st5" d="M302.9,230.8c2.6,1.6,3.2,5.2,1.4,8.1c-1.8,2.9-5.3,3.9-7.8,2.3c-2.6-1.6-3.2-5.2-1.4-8.1
						C296.9,230.3,300.4,229.2,302.9,230.8z"/>
					<path class="st15" d="M301.5,233.1c1.4,0.9,1.7,2.8,0.8,4.4c-1,1.6-2.9,2.1-4.3,1.3c-1.4-0.9-1.7-2.8-0.8-4.4
						C298.1,232.8,300.1,232.3,301.5,233.1z"/>
				</g>
				<g>
					<path class="st5" d="M310.6,253.7c2.6,1.6,3.2,5.2,1.4,8.1c-1.8,2.9-5.3,3.9-7.8,2.3c-2.6-1.6-3.2-5.2-1.4-8.1
						C304.5,253.2,308.1,252.1,310.6,253.7z"/>
					<path class="st15" d="M309.2,256.1c1.4,0.9,1.7,2.8,0.8,4.4c-1,1.6-2.9,2.1-4.3,1.3c-1.4-0.9-1.7-2.8-0.8-4.4
						C305.8,255.8,307.8,255.2,309.2,256.1z"/>
				</g>
				<g>
					<g>
						<path class="st5" d="M316.2,277.3c3-0.3,5.7,2.1,6.1,5.5c0.4,3.4-1.8,6.3-4.7,6.7c-3,0.3-5.7-2.1-6.1-5.5
							C311.1,280.6,313.2,277.7,316.2,277.3z"/>
					</g>
					<path class="st15" d="M316.5,280.1c1.6-0.2,3.1,1.2,3.3,3c0.2,1.8-1,3.5-2.6,3.7c-1.6,0.2-3.1-1.2-3.3-3
						C313.7,281.9,314.8,280.3,316.5,280.1z"/>
				</g>
				<g>
					<path class="st21" d="M208,341.8c-0.3,0-0.7,0-1,0c-13.8-0.4-22.5-8.1-24.7-10.3c-2.2,0.9-9.4,3.1-20.4-1.2
						c-6-2.3-9.5-6.7-10.6-8.2c-1.8,0.1-6.8,0.2-12.2-2.6c-5.2-2.8-7.3-7.2-8-9c-2.2,0.2-8.1,0.2-13.4-5c-3.5-3.6-4.2-8.4-4.3-10
						c-1.5-1-6.2-4.4-8.4-10.2c-2.5-6.6-1.5-12.7-1.1-14.5c-1.4-1.7-6.3-7.9-7-15.9c-0.9-10.5,1.6-15.7,2.5-17.1
						c-0.5-2.1-2.2-11.3,0.2-19c3.5-11.3,11.7-14.8,12.1-15c0.5-0.2,1.1,0,1.3,0.5c0.2,0.5,0,1.1-0.5,1.3c-0.1,0-7.7,3.4-10.9,13.7
						c-2.5,8-0.1,18.2-0.1,18.3l0.1,0.5l-0.3,0.4c0,0-3.4,4.6-2.4,16.1c0.7,8.4,6.8,15,6.8,15.1l0.4,0.4l-0.2,0.6
						c0,0.1-1.8,6.7,0.9,13.8c2.3,6.2,8,9.4,8,9.4l0.5,0.3l0,0.6c0,0.1,0.1,5.5,3.7,9.2c5.7,5.7,12.1,4.4,12.4,4.3l1-0.2l0.2,1
						c0,0.1,1.5,5.5,7.3,8.6c6,3.2,11.5,2.4,11.5,2.4l0.7-0.1l0.4,0.6c0,0.1,3.4,5.4,10,8c12.2,4.7,19.3,1,19.4,1l0.7-0.4l0.5,0.6
						c0.1,0.1,9.1,9.8,23.8,10.2c0.3,0,0.6,0,0.9,0c14.4,0,26-9.7,26.1-9.8l0.9-0.8l0.6,1c0.1,0.2,3.6,5.8,13.2,6.3
						c8.3,0.4,13.1-5.9,13.2-5.9l0.5-0.7l0.8,0.5c0.1,0.1,9,5.2,15.6,4c20.4-3.9,20.1-24.7,20-24.9l0-0.5l0.3-0.3
						c0.1-0.1,6.6-6.5,6.4-16.1c-0.2-9.5-8.9-16.2-9-16.3l-0.5-0.4l0.1-0.6c0-0.1,2.3-13.6-8.6-31.4c-6.4-10.4-22.3-15.5-22.4-15.6
						l-0.7-0.2l0-0.8c0-0.2,0.3-15.7-11.5-28.5c-9.4-10.3-23.3-10.5-23.4-10.5l-0.7,0l-0.2-0.7c0-0.1-2-5.6-5.4-10
						c-3.3-4.2-10.1-6.2-10.2-6.2l-0.4-0.1l-0.2-0.4c0-0.1-4.3-8.8-14.5-13.1c-5-2.1-11.2-1.8-18.5,0.7l-0.5,0.2l-0.4-0.3
						c-5.1-3.9-12.4-2.7-12.5-2.7c-0.6,0.1-1.1-0.3-1.2-0.8c-0.1-0.6,0.3-1.1,0.8-1.2c0.3-0.1,7.9-1.3,13.7,2.7
						c7.6-2.5,14.1-2.7,19.4-0.5c9.8,4,14.4,11.8,15.4,13.7c1.7,0.5,7.6,2.6,10.8,6.8c2.9,3.8,4.8,8.2,5.5,9.9
						c3.1,0.2,15.4,1.5,24.2,11.2c10.9,12,11.9,25.8,12,29.2c3.3,1.1,16.8,6.3,22.8,16.2c10.2,16.5,9.3,29.3,9,32.2
						c2,1.6,9.1,8.2,9.3,17.5c0.2,9.4-5.3,15.8-6.7,17.3c-0.1,3.2-1.3,22.6-21.7,26.5c-6.3,1.2-13.8-2.5-16.3-3.8
						c-1.6,1.8-6.6,6.5-14.3,6.1c-8.4-0.5-12.6-4.5-14.1-6.4C231.5,334.5,221,341.7,208,341.8z"/>
				</g>
				<g>
					<path class="st5" d="M220.5,263.1c-0.4,0-0.8-0.2-1.1-0.5c-4.2-4.6-11.1-10.3-11.2-10.3c-0.6-0.5-0.7-1.4-0.2-2
						c0.5-0.6,1.4-0.7,2-0.2c0.3,0.2,7.2,5.8,11.5,10.6c0.5,0.6,0.5,1.5-0.1,2C221.2,263,220.9,263.1,220.5,263.1z"/>
				</g>
			</g>
		</g>
	</g>
</switch>

</svg>
