<?xml version="1.0" encoding="utf-8"?>
<!-- Generator: Adobe Illustrator 27.1.1, SVG Export Plug-In . SVG Version: 6.00 Build 0)  -->










<svg version="1.1" id="Layer_1" xmlns="http://www.w3.org/2000/svg" xmlns:xlink="http://www.w3.org/1999/xlink" x="0px" y="0px" viewBox="0 0 495.7 433.4" style="enable-background:new 0 0 495.7 433.4;" xml:space="preserve">
<style type="text/css">
	.st0{fill:#FBB78E;}
	.st1{fill:#57CBF5;}
	.st2{fill:#3C3C3C;}
	.st3{fill:#434143;}
	.st4{fill:#984326;}
	.st5{fill:#545454;}
	.st6{fill:#B57D4F;}
	.st7{fill:#DEA07E;}
	.st8{fill:#FFCD65;}
	.st9{fill:#EF4747;}
	.st10{fill:#212121;}
	.st11{fill:#EF382F;}
	.st12{fill:#F4B189;}
	.st13{fill:#754C29;}
	.st14{fill:#FBAD3A;}
	.st15{fill:#FDBC61;}
	.st16{fill:#00B3D0;}
	.st17{fill:#00AEC3;}
	.st18{fill:#FEDEC8;}
	.st19{fill:#6C6C6C;}
	.st20{fill:#D24C43;}
	.st21{fill:#0072BB;}
	.st22{fill:#7BC142;}
	.st23{fill:#83C341;}
	.st24{fill:#71BF44;}
	.st25{fill:#EF4748;}
	.st26{fill:#F15C5E;}
	.st27{fill:#8B5E3C;}
	.st28{fill:#00ADE5;}
	.st29{fill:#343434;}
	.st30{fill:#00B4EF;}
	.st31{fill:#86499C;}
	.st32{fill:#752F92;}
	.st33{fill:#8E53A1;}
	.st34{fill:#F9AC87;}
</style>
<switch>
	
	<g>
		<g>
			<path class="st0" d="M333.5,56c0.3,2.8-0.2,5.7-1.7,8.5c-0.2,0.3-6.6,9.5-12,16.4c-0.9,1.2-2.6,1.4-3.7,0.5
				c-1-0.8-1.3-2.2-0.7-3.3c9.2-17.2,10.7-17.1,10.3-20.6c-1.6-4.5-3.5-10-4.7-14.8c-0.5-2.1,0.7-4.1,2.8-4.7
				c1.9-0.5,3.8,0.5,4.5,2.3C330.2,45.2,333.4,55.1,333.5,56z"/>
			<path id="XMLID_6104_" class="st1" d="M334.6,61.2c-0.8,2.8-7.5,12-14.1,18.9c-0.3-3.3-2.8-3.6-4.8-2.7
				c3.3-7.8,6.5-13.9,8.2-19.1c0,0-7.7-21.5-0.6-26.6c2.9-2.1,5.5,4.2,6.5,8.9C330.3,42.5,336,56.4,334.6,61.2z"/>
			<path class="st2" d="M324.6,105.8c-3.3,7.3,24.5,13.6,30.4,7.4l-2.7-10.9l-21.4-5.5L324.6,105.8z"/>
			<path id="XMLID_6103_" class="st3" d="M364,148.3c-0.2,1.4-2.2,2.6-2.2,2.6c-3.3,5.3-7.7,8.3-8.8,8.9c-0.3,0.1-0.5,0.3-0.8,0.3
				c-2,0.5-2.9,0-3.1-1c0.4,0.6,1.3,0.9,2.9,0.4c0.3-0.1,0.5-0.2,0.8-0.3c1.1-0.6,5.5-3.6,8.8-8.9c0,0,1.9-1.1,2.2-2.6
				C364,148.1,364,148.3,364,148.3z"/>
			<path id="XMLID_6102_" class="st4" d="M363.8,147.7c-0.2,1.4-2.2,2.6-2.2,2.6c-3.3,5.3-7.7,8.3-8.8,8.9c-0.2,0.1-0.5,0.3-0.8,0.3
				c-1.6,0.4-2.5,0.2-2.9-0.4c-1.5-2.3,5.4-11.9,5.4-11.9l6-3.7C363.4,145.2,363.8,147.7,363.8,147.7z"/>
			<path class="st0" d="M367.4,88.1l-17,28.9l10.4,27.6c0.7,1.8-0.2,3.8-2,4.4c-1.7,0.6-3.5-0.1-4.3-1.7L340,118.6
				c-0.7-1.4-0.6-2.9,0-4.2c0.3-0.7,16.1-31.7,16.4-32.4c1.6-3.1,5.3-4.3,8.4-2.8C367.8,80.8,369.3,84.6,367.4,88.1z"/>
			<path id="XMLID_6098_" class="st0" d="M352,155.4c1.7,0.3,6.2-3.1,8-5.5c1.8-2.4,1.8-5.9,0.1-6.2c-1.7-0.3-4.9,1-5.7,4.6
				C353.8,151.4,350.3,155.1,352,155.4z"/>
			<g id="XMLID_6091_">
				<path id="XMLID_6097_" class="st3" d="M347.6,147.1c-0.2,1.4-2.2,2.6-2.2,2.6c-3.3,5.3-7.7,8.3-8.8,8.9
					c-0.3,0.1-0.5,0.3-0.8,0.3c-2,0.5-2.9,0-3.1-1c0.4,0.6,1.3,0.9,2.9,0.4c0.3-0.1,0.5-0.2,0.8-0.3c1.1-0.6,5.5-3.6,8.8-8.9
					c0,0,1.9-1.1,2.2-2.6C347.6,146.9,347.6,147.1,347.6,147.1z"/>
				<path id="XMLID_6096_" class="st4" d="M347.4,146.5c-0.2,1.4-2.2,2.6-2.2,2.6c-3.3,5.3-7.7,8.3-8.8,8.9
					c-0.2,0.1-0.5,0.3-0.8,0.3c-1.6,0.4-2.5,0.2-2.9-0.4c-1.5-2.3,5.4-11.9,5.4-11.9l6-3.6C346.7,143.6,347.4,146.5,347.4,146.5z"/>
				<path class="st0" d="M350.8,87.2l-17.7,26l11.3,30.2c0.7,1.8-0.2,3.8-2,4.4c-1.7,0.6-3.5-0.1-4.3-1.7l-15.9-31.5
					c-0.8-1.5-0.7-3.3,0.2-4.7c0.4-0.6,17.4-28.8,17.8-29.5c1.8-3,5.7-3.9,8.6-2.1C351.9,80.2,352.9,84.2,350.8,87.2z"/>
				<path id="XMLID_6092_" class="st0" d="M335.6,154.2c1.7,0.3,6.2-3.1,8-5.5c1.8-2.4,1.9-5.7,0.2-6c-1.7-0.3-5,0.9-5.7,4.4
					C337.4,150.2,333.9,153.9,335.6,154.2z"/>
			</g>
			<path class="st5" d="M338.6,75.4l-14,30.4c3.2-2.4,29.5,1.1,30.4,7.4c8.9-9.5,17.7-28.6,11.3-38.6L338.6,75.4z"/>
			<path id="XMLID_6090_" class="st6" d="M336.9,27.4c0,0-0.1,1.9,4.1,2.3c4.2,0.4,7.7-0.1,11,5.8c2.6,4.7,3,20.6,14.1,38.3
				c5.4,8.5-27.2,7.2-27.6,1.7c-0.7-11.3-8.7-15.4-14-24.9c-2.6-4.7-4.9-13.1-1.4-19c0,0,3.5-1.6,6.3-1.5L336.9,27.4z"/>
			<path id="XMLID_6089_" class="st7" d="M335.6,23.9c0.3,1.9,1,3.7,2,5.3c0,0-4.1,9.6-4.2,9.6c-5.4,1.3-7.5-5-7.5-5
				c-0.2-1.8-0.8-3.9-2-6.3L335.6,23.9z"/>
			<path id="XMLID_6088_" class="st1" d="M338.8,29.2l-2-1.3c0,0-0.8,4.2-3.7,7.3c-1.9,1.9-4.9,1.6-6.6-0.8
				c-0.5-0.7-0.7-1.7-0.9-2.7c0,0-0.4,1.7-0.3,4.2c0.4,9.7,10.9,7.4,12.9,0C338.8,33.7,338.9,31.7,338.8,29.2z"/>
			<path id="XMLID_6087_" class="st0" d="M335.5,14.5c0,0,4.7,10.7-3.9,16.3c-2.4,1.6-5.7,1.1-7.8-1.2c-1.8-1.9-3.9-5.1-5.7-10.2
				c0,0-1.8-8.9,6.5-10.3C332.9,7.6,335.5,14.5,335.5,14.5z"/>
			<path id="XMLID_6085_" class="st8" d="M318.1,19.3c0,0,7.7,1.4,10.4-1.1c0,0,5.1,4.9,5.4,11.5c0,0,7-1.7,6.7-7.8
				c-0.3-6.1-8.6-21.6-18.3-16C312.6,11.5,318.1,19.3,318.1,19.3z"/>
			<path class="st0" d="M353.1,37.9c2,5.1,4.8,15.1,4.9,15.9c0.3,3-0.3,5.9-1.8,8.8c-0.2,0.4-9,12.9-15.1,21c-1,1.3-2.9,1.6-4.2,0.6
				c-1.2-0.9-1.5-2.6-0.8-3.9c4.3-7.9,7.9-14.1,12.6-21.9c0.4-0.9,0.6-2,0.5-3c-1.4-4.3-3.4-10.6-4.3-15c-0.5-2.4,1-4.7,3.4-5.2
				C350.2,34.7,352.3,35.9,353.1,37.9z"/>
			<path id="XMLID_6082_" class="st1" d="M359.1,59.3c-0.8,2.8-10.9,16.8-17.6,23.7c-1-3.5-3.2-3.4-5.7-2.5
				c4-10.3,10.8-19,12.5-24.2c0,0-9-20.6-1.2-24.1c3.2-1.5,6.1,1.7,7,6.4C354.8,40.7,360.5,54.6,359.1,59.3z"/>
		</g>
		<path class="st0" d="M144.1,85.3c-1.4,0.6-3,0-3.7-1.3c-8.1-13.6-9.6-16.5-9.5-19l1.5-23c0.2-3.1,2.8-5.4,5.9-5.2
			c3.2,0.2,5.6,3.1,5.1,6.3l-3.4,22.4c1.1,4.3,5.6,15.2,5.7,15.8C146.4,82.9,145.7,84.7,144.1,85.3z"/>
		<g>
			<g id="XMLID_1441_">
				<path id="XMLID_1488_" class="st0" d="M149.8,83.4l-4.4-3c-2.6-0.7-4.2,0.4-5,3.1c1.8,4.4,2.4,5,4.8,7.4c0,0,1-1.4,2-1.1
					c0,0,1.1-1.6,2.3-1.2c0,0,0.7-1.4,1.7-1.1l0.2-1.6L149.8,83.4z"/>
				<g id="XMLID_1486_">
					<path id="XMLID_1487_" class="st0" d="M151.9,90.5c-0.5,0-0.8-0.4-0.8-0.9l0-1l-1-1.9c-0.2-0.4-0.1-0.9,0.4-1.1
						c0.4-0.2,0.9-0.1,1.1,0.4c1.5,2.8,1.2,1.9,1.2,3.7C152.7,90.2,152.3,90.5,151.9,90.5z"/>
				</g>
				<g id="XMLID_1484_">
					<path id="XMLID_1485_" class="st0" d="M148.1,93.3c-0.6-0.1-0.9-0.7-0.8-1.3l0.3-1.2l-1.5-2.7c-0.3-0.5-0.1-1.2,0.4-1.4
						c0.5-0.3,1.2-0.1,1.4,0.4c1.9,3.3,2,3.3,1.8,3.8l-0.4,1.6C149.3,93.1,148.7,93.4,148.1,93.3z"/>
				</g>
				<g id="XMLID_1482_">
					<path id="XMLID_1483_" class="st0" d="M150.4,92.4c-0.6-0.1-1-0.6-1-1.2l0.1-1.5l-1.5-2.8c-0.3-0.5-0.1-1.2,0.4-1.4
						c0.5-0.3,1.2-0.1,1.4,0.4c2.1,3.9,1.8,2.8,1.6,5.4C151.5,92,150.9,92.4,150.4,92.4z"/>
				</g>
				<g id="XMLID_1442_">
					<path id="XMLID_1478_" class="st0" d="M145.9,94c-0.6-0.1-0.9-0.7-0.8-1.3l0.3-1.5l-1.3-2.5c-0.3-0.5-0.1-1.2,0.5-1.4
						c0.5-0.3,1.2-0.1,1.4,0.5c1.5,2.9,1.7,3,1.5,3.6l-0.4,1.9C147.1,93.8,146.5,94.1,145.9,94z"/>
				</g>
			</g>
			<path id="XMLID_1253_" class="st0" d="M140.4,86.4c0.1,1.2,0.6,2.2,0.9,4.7c0.1,0.8,1.9,1.4,2-1c0-0.5-0.2-0.8-0.1-1.5
				c0.1-0.4,0-0.9,0.3-0.9C142.6,86.8,141.5,86.4,140.4,86.4z"/>
			<polygon class="st0" points="140.4,86.4 140.9,84.1 143.4,87.8 141.2,87.1 			"/>
		</g>
		<path class="st9" d="M133.4,30.1c0,0,1.4,19.4,3.7,21h0l-1,3.4c3,1.9,6.7-0.8,6.7-0.8l1.4-3.8C145.6,39.6,140.9,34.4,133.4,30.1z"/>
		<path class="st10" d="M125.6,155.2c0,0,17.2,9.5,7.7,12.6c-9.5,3.1-15.8-13.6-15.8-13.6L125.6,155.2z"/>
		<path class="st2" d="M125,80.4c0,0,10.6,35.3,8.5,43.6c-2,8.3-5.2,34.1-5.2,34.1s-9.2,5.7-11-3.3c-1.8-9,2.1-31.9,2.1-31.9
			s-22.9-39.3-14-50.1L125,80.4z"/>
		<path class="st10" d="M73.3,156.5c0,0,7.7,18-1.7,14.7c-9.4-3.4-4.1-20.4-4.1-20.4L73.3,156.5z"/>
		<path class="st5" d="M111.4,90.8c0,0-9.9,35.4-15.7,41.7c-5.8,6.3-21.1,27.2-21.1,27.2s-10.8,0.5-8-8.3
			c2.8-8.8,17.3-26.9,17.3-26.9S85,83.8,96,74L111.4,90.8z"/>
		<path class="st11" d="M91.6,77.7c-5.3,9,27.8,21.7,34.2,7.8c0,0,3.1-19.4,12.5-31.4c4.9-6.2,5.9-11.5,4-16.9
			c-2.1-6.1-7.1-10.7-13.5-11.3c-5.2-0.5-14.1,2.9-19,7.2C105.4,37.1,105.7,54,91.6,77.7z"/>
		<path id="XMLID_1524_" class="st12" d="M125,20.1c-0.2,1.6-1.5,4.1-2.3,5.6c-0.7,1.2,4.9,7.9,6.3,7.8c5-0.3,5.5-4.3,5.5-4.3
			c0.1-1.6,0.7-4,1.6-6L125,20.1z"/>
		<path id="XMLID_1523_" class="st0" d="M123.6,9c0,0-4.5,11.3,5.7,17.1c2.9,1.6,6.5,1.1,8.8-1.3c1.9-2,4-5.3,5.6-10.8
			c0,0,1.4-9.3-8.2-10.8C126,1.7,123.6,9,123.6,9z"/>
		<path class="st13" d="M143.8,15.2c0,0-5.3-3.4-12.4-1.9c-0.6,0.1-2.2,1.9-2.5,1.5c-5.6-5.7-5,5.7-5,5.7s-2.2-0.3-1.6-8.8
			c0.6-8.5,10-15.8,18.7-9C148.3,8.5,143.8,15.2,143.8,15.2z"/>
		<path class="st0" d="M122.4,93.4c-1.3,0.8-3.1,0.4-4-0.8c-9.9-13.4-13.5-18.3-14.1-21.1c-0.2-1.4,0.1,0.4,0-27.5
			c0-3.3,2.6-5.9,5.9-5.9c3.6,0,6.3,3.1,5.9,6.6c-2,17.5-1.9,18.2-2.7,25.7c1.7,4.6,8.7,16.5,10.1,19
			C124.4,90.7,123.9,92.6,122.4,93.4z"/>
		<path class="st9" d="M117.2,52.7c-4.1,2.2-9.3,1-14.1-0.8c0,0-0.4-17.4,8.4-18.4C120.5,32.5,120.7,41,117.2,52.7z"/>
		<g>
			<path id="XMLID_1520_" class="st0" d="M126.6,89.5c1.2,0.4,2.1,1.2,4.6,2.1c0.8,0.3,1,2.3-1.5,1.8c-0.5-0.1-0.8-0.5-1.5-0.5
				c-0.4,0-0.9-0.2-0.9,0.1C126.5,91.9,126.4,90.6,126.6,89.5z"/>
			<g id="XMLID_1489_">
				<path id="XMLID_1499_" class="st0" d="M122.9,88.4c-2.8-0.6-4.4,0.7-5,3.5c2.1,4.5,2.8,5.1,5.4,7.5c0,0,1-1.6,2-1.2
					c0,0,1.1-1.7,2.3-1.4c0,0,0.7-1.6,1.7-1.2l-0.1-3.1C127.2,90.9,128.4,91.8,122.9,88.4z"/>
				<g id="XMLID_1496_">
					<path id="XMLID_1497_" class="st0" d="M124.2,102.6c-0.5,0-0.9-0.4-0.9-0.9l0-1l-1-2.1c-0.2-0.4,0-1,0.4-1.2
						c0.4-0.2,1,0,1.2,0.4c1.4,3,1.2,2.1,1.1,3.9C125.1,102.2,124.7,102.6,124.2,102.6z"/>
				</g>
				<g id="XMLID_1494_">
					<path id="XMLID_1495_" class="st0" d="M126,102.1c-0.6-0.1-1-0.7-0.9-1.3l0.2-1.2l-1.7-2.7c-0.3-0.5-0.2-1.2,0.3-1.5
						c0.5-0.3,1.2-0.2,1.5,0.3l2,3.1c0.3,0.5,0.1,1-0.2,2.5C127.2,101.8,126.6,102.2,126,102.1z"/>
				</g>
				<g id="XMLID_1492_">
					<path id="XMLID_1493_" class="st0" d="M128.3,100.7c-0.6,0-1.1-0.5-1.1-1.2l0.1-1.5l-1.7-2.8c-0.3-0.5-0.1-1.2,0.4-1.5
						c0.5-0.3,1.2-0.1,1.5,0.4c1.9,3.1,2,3.2,2,3.7l-0.1,1.9C129.5,100.2,128.9,100.7,128.3,100.7z"/>
				</g>
				<g id="XMLID_1490_">
					<path id="XMLID_1491_" class="st0" d="M129.7,99.3c-0.6-0.1-1-0.7-0.9-1.3l0.3-1.6l-1.5-2.6c-0.3-0.5-0.1-1.2,0.4-1.5
						c0.5-0.3,1.2-0.1,1.5,0.4c1.8,3.1,1.9,3.1,1.8,3.7l-0.3,2C130.9,99,130.3,99.4,129.7,99.3z"/>
				</g>
			</g>
			<polygon class="st0" points="126.6,89.5 124.5,89.5 126.6,93 127.1,90.6 			"/>
		</g>
		<g>
			<g>
				<polygon class="st14" points="221.4,130.7 221.4,182.1 99.5,183.3 99.5,131.9 134.2,131.5 211.9,130.8 				"/>
				<path class="st14" d="M99.5,178.9v4.5C99.5,181.8,99.5,180.3,99.5,178.9z"/>
			</g>
			<g>
				<path class="st15" d="M221.4,130.7l-9.5,0.1l-77.8,0.8l-34.7,0.3c-2-36.9,45.2-68.7,108.6-73.1L221.4,130.7z"/>
			</g>
		</g>
		<g>
			<path class="st16" d="M327.6,263.7c-16.6,9.2-36.7,15.3-57.8,18.1c-25.1,3.4-52.4,2.2-77.9-4.2l48.2-64.4L327.6,263.7z"/>
			<path class="st17" d="M327.6,263.7v51.4c-37,20.6-90.8,25.3-135.7,13.9v-51.5c25.5,6.5,52.8,7.6,77.9,4.2
				C290.9,279,310.9,272.9,327.6,263.7z"/>
		</g>
		<path class="st18" d="M259.6,249.3c0,0-0.2,6.6-2.3,9.6l21.6,0.3c0,0-5-4.6-4.1-10.4L259.6,249.3z"/>
		<g>
			<path id="XMLID_1531_" class="st18" d="M294.8,281.4c-0.9-1.2-1.3-2.7-3.3-5.4c-0.7-0.9,0.6-3.1,2.8-0.8c0.4,0.4,0.5,1,1.2,1.5
				c0.5,0.3,0.8,0.9,1,0.6C296.5,279,295.8,280.4,294.8,281.4z"/>
			<path id="XMLID_1530_" class="st18" d="M304,287.8c1.5-1,0.1-1.9,1.9-6.1c0.8-1.8,0.3-9.1-0.8-10.4c-0.2-0.8-0.7-1.3-1.5-1.3
				c-0.4-0.6-1.9-1-2.3-0.7c-0.5-0.4-1.7-0.3-1.8,0.2c-1.3-1.3-2.8,0.9-2.6,2.9c-0.2,3.3-0.1,4.5-0.4,4.9c0,1.7-0.7,3.1-1.7,4.1
				c0.3,0.4,0.7,0.9,1.2,1.3c0.8,0.7,1.9,3.1,1.5,4.3C297.5,287,299.8,290.1,304,287.8z"/>
		</g>
		<g>
			<path id="XMLID_1529_" class="st18" d="M230,282.5c0.9-1.2,1.3-2.7,3.3-5.4c0.7-0.9-0.6-3.1-2.8-0.8c-0.4,0.4-0.5,1-1.2,1.5
				c-0.5,0.3-0.8,0.8-0.9,0.6C228.4,280.1,229,281.5,230,282.5z"/>
			<path id="XMLID_14_" class="st18" d="M220.8,288.8c-1.5-1-0.1-2-1.8-6.1c-0.8-1.8-0.2-9.1,0.9-10.3c0.2-0.8,0.7-1.3,1.5-1.3
				c0.4-0.6,1.9-1,2.3-0.7c0.5-0.4,1.7-0.3,1.8,0.3c1.3-1.3,2.8,0.9,2.6,2.9c0.1,3.3,0,4.5,0.3,4.9c-0.1,1.7,0.7,3.1,1.6,4.1
				c-0.3,0.4-0.7,0.8-1.2,1.3c-0.9,0.7-1.9,3-1.6,4.2C227.2,288,224.9,291.1,220.8,288.8z"/>
		</g>
		<path class="st19" d="M282.3,430.3c0,0,2.7,0.3,2.2-2.2c-0.4-2.5-2.6-1.8-2.4-6l4.1-2.7l5.2,3.4l2.9,6.9l0.5,2.9
			c0,0,1.1,1.2-4.2,0.8C285.3,432.8,282.2,432,282.3,430.3z"/>
		<path class="st10" d="M249.5,378.9c0,0-6.9,2.9-2.6,9.5c3.3,5.1,8.5,8.5,8.5,8.5s7.5,0.9,8.7-3.6c1.2-4.4,0.5-8.6,0.5-8.6
			L249.5,378.9z"/>
		<path class="st10" d="M284.9,411.7l-2.8,10.3c0,0,7.3-0.9,9.1,2.3c1.7,3.2,3.5,8.8,3.5,8.8s1.9-1.3,1.5-8.5
			c-0.3-7.1-1.9-6.9-2.2-10.9C293.8,409.7,286.5,408.4,284.9,411.7z"/>
		<path class="st20" d="M279.6,238.2c0,0-0.1-11.2-12.7-12c-12.6-0.7-11.9,12.2-11.9,12.2s0.5,8.8,2.4,11.3
			c1.9,2.4,12.1,5.9,19.5-0.4C277,249.3,280.9,242.8,279.6,238.2z"/>
		<path class="st5" d="M288.9,310.9c-2.8-5.1-21.6-2.3-21.6-2.3s-16.6-1.7-18.8,3.9c-1.5,3.7-0.4,2.5-3.4,30
			c-1.3,11.5,2.9,26.3,4.9,39c0,0,5.2,12.1,14.7,3.4c0,0,1.5-23.1-0.1-29.1c0,0,2.3-12.8,3-25.9c0.1-1.6,0.1-3.3,0.2-5
			c0.2,1.7,0.4,3.3,0.6,5c1.8,13,8.9,29,8.9,29c-1.1,6.2,6.3,53.4,6.3,53.4c10.3,7,13.7,0.6,13.7,0.6
			C299.4,372.8,291.6,316,288.9,310.9z"/>
		<path class="st21" d="M245.8,328.4c0,0,2.7-30.2-3.6-46c-0.2-0.6-0.2-1.1-0.3-1.3c-1-2.4-4.8,11.8-14.2,16.5c0,0-9.2,1.4-8.6-9.2
			c0,0,15.7-27.2,25.7-31.9c9.9-4.7,14-3.6,14-3.6s10,3.8,17,0.2c0,0,8,0.3,10.9,1.1c2.9,0.8,8.7,7.3,10.5,13.3c1.7,6,8,16.3,8,16.3
			s2.3,9-5.9,9c-5.7,0-10-9.3-10-9.3s0.1,10.2,4.5,47.5C293.6,330.9,261.9,352.2,245.8,328.4z"/>
		<path class="st10" d="M338.7,122.9c0,0-17.2,9.5-7.7,12.6c9.5,3.1,15.8-13.6,15.8-13.6L338.7,122.9z"/>
		<g>
			<polygon class="st22" points="372,105.4 372,156.8 258.5,188.3 258.5,136.8 311.1,122.2 			"/>
			<path class="st23" d="M372,105.4l-60.9,16.9l-52.6,14.6l-3.9-20.8l-9.4-51C299.2,61.2,349.8,78.1,372,105.4z"/>
			<polygon class="st24" points="258.5,136.8 258.5,188.3 245.2,116.4 245.2,65 254.6,116 			"/>
		</g>
		<g>
			<g>
				<path class="st25" d="M144.9,258.8v51.5c-43.8-11.1-72.4-35.9-73.7-63.1v-51.4c1,19.7,16.2,38.1,41.2,51
					C122,251.6,132.9,255.7,144.9,258.8z"/>
				<polygon class="st11" points="193.2,194.4 193.2,245.9 144.9,310.2 144.9,258.8 154.3,246.3 				"/>
			</g>
			<g>
				<path class="st26" d="M193.2,194.4l-38.9,51.8l-9.4,12.5c-12.1-3.1-23-7.2-32.5-12.1c-25-12.9-40.2-31.3-41.2-51L193.2,194.4z"/>
			</g>
		</g>
		<g>
			<path class="st10" d="M104.3,331.6c-0.4,3.2-16.7,11.3-21.7,8.8l0,0c-0.6-0.4-0.9-1.1-0.8-1.6c-0.2-2.7,0-4.4,0.1-5.4
				c0.1-0.5,0.4-1,0.8-1.3c0.9-0.7,3.6-3.2,4.6-4c0.5-0.4-0.4,3.1,9.2,1.5C103,327.3,104.6,328.6,104.3,331.6z"/>
		</g>
		<g>
			<path id="XMLID_1552_" class="st27" d="M95.5,234c1.2,0.1,2.3-0.2,4.8-0.1c0.9,0.1,1.7-1.7-0.6-2.1c-0.5-0.1-0.9,0.1-1.5-0.1
				c-0.4-0.2-0.9-0.2-0.8-0.4C96.3,232,95.7,233,95.5,234z"/>
			<path id="XMLID_1551_" class="st27" d="M87.6,230.8c0-1.4,1.2-0.9,3.1-3.7c0.8-1.2,5.7-3.9,6.9-3.7c0.6-0.2,1.1-0.1,1.5,0.4
				c0.5,0,1.4,0.8,1.4,1.2c0.4,0.2,0.9,0.9,0.6,1.2c1.4,0.3,0.6,2.2-0.8,2.8l-1.1,0.8c-0.3,0.2-1.7,1.1-1.9,1.5
				c-1.1,0.7-1.7,1.7-1.9,2.7c-0.4,0-3.5,1-5.2,0.8C90.3,234.8,87.9,234.3,87.6,230.8z"/>
		</g>
		<g>
			<path id="XMLID_1550_" class="st27" d="M112.2,246.4c0.5-1.2,1.4-2.1,2.5-4.7c0.4-0.9,2.5-0.8,1.8,1.7c-0.1,0.5-0.5,0.8-0.6,1.5
				c0,0.5-0.3,0.9,0,0.9C114.6,246.6,113.3,246.7,112.2,246.4z"/>
			<path id="XMLID_1549_" class="st27" d="M109.5,254.8c1.4,0.6,3.9,1.5,7.3-0.3c1.5-0.8,6.6-3.7,7.1-5.1c0.5-0.5,0.6-1,0.3-1.7
				c0.2-0.5-0.1-1.8-0.5-2c0.1-0.5-0.5-1.3-0.9-1.2c0.4-1.5-1.8-1.7-3.2-0.6c-2.4,1.3-3.3,1.9-3.7,1.9c-1.2,0.8-2.5,0.8-3.6,0.5
				c-0.2,0.4-0.3,0.9-0.4,1.4c-0.1,0.9-1.4,2.7-2.4,3C109.4,250.8,106.1,252.8,109.5,254.8z"/>
		</g>
		<path class="st27" d="M71.1,215.3c0,0,0.4-4.6,2.3-6c2.8-2.1,4-15.2-4.2-17.8s-14.9,4-15.5,6.9c-0.6,2.9,0.7,7.5,2.5,9
			c1.8,1.5,1.8,6,1.6,6.3C61.8,216,66.2,216.8,71.1,215.3z"/>
		<path class="st27" d="M97.6,239.8L97.6,239.8l16,9.6c1.7,1,2.2,3.1,1.2,4.8c-0.9,1.5-2.8,2.1-4.4,1.4c-19.3-8.7-17.5-7.8-18.3-8.4
			l-9.2-6c-2.4-1.6-3.1-4.8-1.5-7.3c1.6-2.4,4.8-3.1,7.3-1.5C89.1,232.7,88.7,232.4,97.6,239.8z"/>
		<path class="st27" d="M71.7,222.9L71.7,222.9l17.8,5.5c1.8,0.6,2.9,2.5,2.3,4.4c-0.5,1.7-2.3,2.7-4,2.4
			c-21.5-4.1-18.7-3.5-19.7-3.8l-10.3-3.7c-2.7-1-4.1-4-3.2-6.7c1-2.7,4-4.1,6.7-3.2C61.8,218,61.4,217.8,71.7,222.9z"/>
		<g>
			<path class="st10" d="M24.7,348c-0.7,3.2-19.3,10.1-24,7.2l0,0c-0.6-0.4-0.8-1.2-0.6-1.7c0-2.7,0.3-4.4,0.6-5.3
				c0.1-0.5,0.5-0.9,0.9-1.2c0.9-0.6,3.9-2.9,4.9-3.6c0.5-0.3-0.6,3,9,2.2C22,343.9,25.3,344.9,24.7,348z"/>
		</g>
		<path class="st2" d="M55.6,292.4c0,0-25.7,30.7-27.4,35.8c-1.7,5.1-11,17.9-11,17.9s-6.5,7.3-17.2,2.7c0,0,19.3-34.4,23.1-41.2
			c3.6-6.4,9.5-33.4,9.5-33.4l18-3.1L55.6,292.4z"/>
		<path class="st5" d="M55.6,292.4c11.9,5.1,18.9,11.4,18.9,11.4l7.1,31.5c12.1,1.3,11.7-4.7,11.7-4.7s-3.9-29.3-5.4-37.2
			c-1.5-8-22.2-26.9-22.2-26.9l-15.1,4.8c0,0-5.3,6.8-2.8,13.6C50.3,291.7,55.6,292.4,55.6,292.4z"/>
		<path class="st28" d="M71.1,215.3c0,0,0.9,0.1,1.6,1.9c0,0,7.1,2.3,9.7,6.3c2.6,4.1-1.6,27.8-7.1,34.4c-5.6,6.6-4.7,13.2-4.7,13.2
			s-17.8,14.5-38.1,3.1c0,0,7.7-24.9,10.3-29.6c2.5-4.7,5.6-26.4,13.2-27.9c0,0,0.9-0.6,1.7-3.1C57.8,213.6,61.8,216,71.1,215.3z"/>
		<path id="XMLID_1548_" class="st29" d="M72.7,202.2c0,1.3-0.1,1.8-0.4,2.5l-1,0.5c0.2-1.1,0.6-2.4-0.5-1.8c-3.1,1.5-3.5,8-3.5,8
			C53.6,216,53.4,205,53.4,205c-0.5-1.7-2-13.4,6.2-16.7c13.4-4.6,18.3,5.1,16.3,7.2C72,199.9,72.7,202.2,72.7,202.2z"/>
		<path class="st30" d="M111.8,247.8l-21.1-15c0,0-5.2-7.8-8.2-9.3c-3-1.5-9,3.1-8.2,7.9c0.2,0.9,0.8,2.2,1.7,3.6
			c2.7,4.2,6.5,7.7,10.9,10.2c6.6,3.8,17.7,9.8,23,10.8C109.8,255.9,116.5,252,111.8,247.8z"/>
		<g>
			<g>
				<polygon class="st31" points="388.2,235.4 388.2,286.8 300.7,236.3 300.7,184.9 361,219.7 				"/>
				<path class="st32" d="M426.1,183.9v51.5c0,18.7-12.7,37.4-37.9,51.4v-51.4C408,224.4,426.1,206.6,426.1,183.9z"/>
				<path class="st33" d="M426.1,183.9c0,22.7-18.1,40.4-37.9,51.5L361,219.7l-60.2-34.8l113.5-31.5
					C422.2,163.1,426.1,173.5,426.1,183.9z"/>
			</g>
			<g>
				<path class="st0" d="M444.7,204.2l-17.7,3.4c-1.8,0.3-3.5-0.8-3.8-2.6c-0.3-1.6,0.7-3.2,2.2-3.7l16.6-5.2l0,0l9.2-4.5
					c2.4-1.2,5.3-0.2,6.5,2.2c1.2,2.4,0.2,5.3-2.2,6.5C455,200.6,444.9,204.2,444.7,204.2z"/>
				<g>
					<path id="XMLID_1561_" class="st0" d="M419.8,206.4c-1.1,0.1-2.1-0.2-4.5-0.1c-0.8,0-1.6-1.6,0.6-2c0.4-0.1,0.8,0.1,1.4-0.1
						c0.4-0.1,0.8-0.2,0.7-0.4C419.1,204.5,419.6,205.5,419.8,206.4z"/>
					<path id="XMLID_1560_" class="st0" d="M427.2,203.4c0-1.3-1.1-0.8-2.9-3.5c-0.8-1.2-5.3-3.6-6.5-3.5c-0.6-0.2-1-0.1-1.4,0.4
						c-0.5,0-1.3,0.7-1.3,1.1c-0.4,0.1-0.8,0.9-0.5,1.1c-1.3,0.2-0.6,2,0.7,2.7l1,0.7c0.3,0.2,1.6,1,1.8,1.4c1,0.6,1.6,1.6,1.8,2.6
						c0.4,0,3.3,0.9,4.8,0.8C424.7,207.2,426.9,206.7,427.2,203.4z"/>
				</g>
				<path class="st11" d="M425.4,201.2c0,0-2.7,2-0.7,6.3l14.9-0.3v-11.2L425.4,201.2z"/>
				<g>
					<path class="st10" d="M472.6,322c0.7,3.2,17.6,9.8,22.3,6.9l0,0c0.6-0.4,0.8-1.2,0.6-1.7c0-2.7-0.6-6.3-0.9-7.2
						c-0.1-0.5-0.5-0.9-0.9-1.2c-0.9-0.6-3.6-1.1-4.6-1.7c-0.5-0.3,0.6,3-9,2.2C473.6,317.6,472.1,318.9,472.6,322z"/>
				</g>
				<g>
					<path class="st10" d="M445.7,296.6c0.7,3.2,17.6,11.3,22.3,8.4l0,0c0.6-0.4,0.8-1.2,0.6-1.7c0-2.7-0.6-6.3-0.9-7.2
						c-0.1-0.5-0.5-0.9-0.9-1.2c-0.9-0.6-3.6-1.1-4.6-1.7c-0.5-0.3,0.6,1.5-9,0.7C446.7,292.2,445.2,293.6,445.7,296.6z"/>
				</g>
				<path class="st2" d="M478.7,232c0,0-1.2,22.1-8.3,29.4c-7.1,7.2-1,39.5-1,39.5s-10.8,3.8-13.5-2.8c-2.7-6.6-5.5-28.7-5.1-33.9
					c0.4-5.2,5.8-16.3,12.4-26C469.9,228.5,478.7,232,478.7,232z"/>
				<g id="XMLID_1526_">
					<path id="XMLID_1534_" class="st34" d="M432.4,176.8c5-3.1,9.5-6,13.8,0.9c2.8,4.6,3.6,9.7,2.3,13.5c-0.3,0.8,1.3,2.6,1.3,2.6
						c1.3,2.3-6.4,8.8-9.2,6.2l-1.2-2.2c-4.2-0.3-8.3-4.2-11.3-9C423.9,181.9,427.5,179.9,432.4,176.8z"/>
					<path id="XMLID_1533_" class="st29" d="M430.7,187.8c0.4,1.1,0.7,1.5,1.2,2.1l1,0.1c-0.5-1-1.4-1.9-0.2-1.8
						c3.2,0.3,4.4,4.3,4.4,4.3c15.3,2.7,11.6-8.7,11.6-8.7c-0.1-1.7-1.3-4.5-2.6-7.1c-1.6-3.3-4.9-5.5-8.5-5.8
						c-13.4,0.4-14.5,10.7-12,11.9C430.6,185.4,430.7,187.8,430.7,187.8z"/>
				</g>
				<g>
					<path id="XMLID_1559_" class="st0" d="M404.3,218c-0.5-1.1-1.3-2-2.3-4.4c-0.3-0.8-2.3-0.8-1.6,1.6c0.1,0.5,0.5,0.7,0.6,1.4
						c0,0.4,0.3,0.9,0,0.9C402,218.1,403.2,218.2,404.3,218z"/>
					<path id="XMLID_1558_" class="st0" d="M406.8,225.8c-1.3,0.6-3.6,1.4-6.8-0.3c-1.4-0.7-6.2-3.5-6.6-4.7c-0.5-0.5-0.6-1-0.3-1.6
						c-0.2-0.5,0.1-1.7,0.4-1.8c-0.1-0.5,0.4-1.2,0.9-1.1c-0.4-1.4,1.7-1.5,3-0.6c2.3,1.2,3.1,1.8,3.4,1.7c1.1,0.7,2.3,0.8,3.4,0.5
						c0.2,0.4,0.3,0.8,0.4,1.3c0.1,0.8,1.3,2.5,2.2,2.7C406.9,222.1,410,223.9,406.8,225.8z"/>
				</g>
				<path class="st0" d="M422.5,219.1c-7.3,3.1-10.3,4.4-16.7,7c-1.4,0.6-3.1-0.1-3.7-1.5c-0.5-1.3,0-2.7,1.1-3.4
					c5.8-3.7,7.9-5,14.7-9.3l0,0c4.2-2.5,5.2-3.4,7.8-6.6c2.1-1.7,5.2-1.3,6.9,0.8c1.7,2.1,1.3,5.2-0.8,6.9
					C430.9,213.7,422.7,219,422.5,219.1z"/>
				<path class="st5" d="M481.7,240.3c0,0,0,9.3-3,14.6c-3,5.4,0.4,15.1,1.5,19.6c1.5,6.1,14.5,44.7,14.5,44.7s-6.2,8.3-15.7,1.3
					c0,0-18-41.5-18.5-56.7c0,0-2.6-3.5-6.7-12l8.9-14.5L481.7,240.3z"/>
				<path class="st11" d="M438.1,194.4c4.9-4.8,10.7-7.6,17.1-5.2c3.8,1.4,7.6,4.2,10.5,9.4c8,14.6,16,41.6,16,41.6
					s-4.9,8.5-27.9,11.5c0,0-9.4-21.9-19-42c0,0-4.8-8.7-2.6-11.4C433.2,197.3,436.1,196.4,438.1,194.4z"/>
				<path class="st9" d="M438.7,199.5c-1.6-1.9-5-2.3-7.4-0.5c-2.4,1.8-9.1,9.4-9.1,9.4l-17.4,11.2c0,0-4,2.3-1.6,6.4
					c0.5,0.8,1.5,1.1,2.3,0.8c4.2-1.6,21.3-7.6,25.7-11.6c0,0,6.9-4.2,8.4-7.2C441.1,205,440.3,201.4,438.7,199.5z"/>
			</g>
		</g>
	</g>
</switch>

</svg>
