<?xml version="1.0" encoding="utf-8"?>
<!-- Generator: Adobe Illustrator 27.1.1, SVG Export Plug-In . SVG Version: 6.00 Build 0)  -->










<svg version="1.1" id="Layer_1" xmlns="http://www.w3.org/2000/svg" xmlns:xlink="http://www.w3.org/1999/xlink" x="0px" y="0px" viewBox="0 0 499.1 367.6" style="enable-background:new 0 0 499.1 367.6;" xml:space="preserve">
<style type="text/css">
	.st0{fill:#D24C43;}
	.st1{fill:#BB433B;}
	.st2{fill:#F5F6F6;}
	.st3{fill:#E9E8E8;}
	.st4{fill:#CFD0D0;}
	.st5{fill:url(#SVGID_1_);}
	.st6{fill:#F1F1F1;}
	.st7{fill:#FEDEC8;}
	.st8{fill:#353F48;}
	.st9{fill:url(#SVGID_00000124136245013284452120000003430665403536709763_);}
	.st10{fill:#8B5E3C;}
	.st11{fill:#272626;}
	.st12{fill:url(#SVGID_00000154417566123202531250000010545727621642057142_);}
	.st13{fill:#4E5AA2;}
	.st14{fill:#F0AE89;}
	.st15{fill:#5E4938;}
	.st16{fill:url(#SVGID_00000144324323651613546880000012459018320212570019_);}
	.st17{fill:#F4ED57;}
	.st18{fill:url(#SVGID_00000122703373251505625870000003739549950897080968_);}
	.st19{fill:#373737;}
	.st20{fill:url(#SVGID_00000035502889965226573250000016413122076786759081_);}
	.st21{enable-background:new    ;}
	.st22{fill:#C4BA32;}
	.st23{fill:#A8A035;}
	.st24{fill:#C6BC33;}
	.st25{fill:#FCEF4C;}
	.st26{fill:#C4BB32;}
	.st27{fill:#979034;}
	.st28{fill:#A49D35;}
	.st29{fill:#BBB432;}
	.st30{fill:#ADA534;}
</style>
<switch>
	
	<g>
		<g>
			<g>
				<path class="st0" d="M164.1,65.7v59.5c0,35.9,25.3,79.6,56.3,97.6l13.8,8c15.5,9,29.6,9.8,39.8,3.9c2.9-1.7,5.4-3.8,7.6-6.5
					c5.6-6.9,8.9-17,8.9-29.9v-59.5l-13.7-7.9l-17.1-9.9v59.5c0,3-0.4,5.6-1.1,7.9c-3.2,10.3-13,13.5-24.5,6.8l-13.8-8
					c-14.1-8.2-25.6-28-25.6-44.3V83.5l-13.7-7.9L164.1,65.7z"/>
				<path class="st1" d="M274,234.7l17.1-9.9c10.2-5.9,16.5-18.5,16.5-36.4v-59.5l-17.1,9.9v59.5c0,12.9-3.3,23-8.9,29.9
					C279.4,230.9,276.9,233,274,234.7z"/>
				<path class="st1" d="M194.8,83.5V143c0,16.3,11.5,36.2,25.6,44.3l13.8,8c11.5,6.7,21.3,3.5,24.5-6.8c-2.4-0.5-4.8-1.5-7.4-3
					l-13.8-8c-14.1-8.2-25.6-28-25.6-44.3V73.6L194.8,83.5z"/>
			</g>
			<polygon class="st2" points="259.8,121 290.5,138.7 290.5,108.8 259.8,91.1 			"/>
			<polygon class="st2" points="164.1,65.7 194.8,83.5 194.8,53.6 164.1,35.8 			"/>
			<polygon class="st3" points="181.1,26 164.1,35.8 194.8,53.6 211.8,43.7 			"/>
			<polygon class="st3" points="276.9,81.2 259.8,91.1 290.5,108.8 307.6,99 			"/>
			<polygon class="st4" points="211.8,73.6 194.8,83.5 194.8,53.6 211.8,43.7 			"/>
			<polygon class="st4" points="290.5,138.7 307.6,128.9 307.6,99 290.5,108.8 			"/>
		</g>
		<g id="XMLID_104_">
			<linearGradient id="SVGID_1_" gradientUnits="userSpaceOnUse" x1="433.061" y1="165.3394" x2="499.0509" y2="165.3394">
				<stop offset="0" style="stop-color:#FFFFFF"/>
				<stop offset="1" style="stop-color:#B8B8B8"/>
			</linearGradient>
			<path class="st5" d="M499.1,184.7c0,11.1-3.9,18.9-10.2,22.5l-6.6,3.8c1.1-0.6,2.2-1.4,3.1-2.3c4.5-4.2,7.1-11.1,7.1-20.2
				c0-22.2-15.6-49.2-34.8-60.3c-7.9-4.6-15.2-5.7-21.1-4c-1.3,0.4-2.4,0.9-3.5,1.5l6.6-3.8c6.3-3.7,15-3.1,24.6,2.4
				C483.4,135.5,499.1,162.5,499.1,184.7z"/>
			<path class="st6" d="M492.5,188.5c0,9.1-2.7,16-7.1,20.2c-0.9,0.9-2,1.7-3.1,2.3c-6.3,3.7-15,3.1-24.6-2.4
				c-19.2-11.1-34.8-38.1-34.8-60.3c0-11.1,3.9-18.9,10.2-22.5c1.1-0.6,2.3-1.2,3.5-1.5c5.8-1.8,13.1-0.6,21.1,4
				C476.9,139.3,492.5,166.3,492.5,188.5z"/>
		</g>
		<path class="st0" d="M468.8,164.2l-0.1-6.5c-0.5-7.4-3-14.4-11-19.1c-8-4.6-10.5-0.4-11,6.4l-0.1,6.4c-0.2,2.8-1,7.6-4.6,6.9
			c0,0,7.7,7.7,10.9,5.5l9.8,5.6c3.1,5.9,10.9,7.1,10.9,7.1C469.8,173,469,167.2,468.8,164.2z"/>
		<g>
			<path class="st7" d="M457.7,170.3c-1-0.6-3-2.9-5.1-6.6c-4-7.2-4.7-12-4.4-17.3c0.6-7.3,3.4,0.3,9.4,3.8c6,3.5,9.1-0.8,9.7,7.2
				c0.2,4.8,0.2,9.3-4.4,12.2C460.7,170.9,458.7,170.9,457.7,170.3z"/>
		</g>
		<g>
			<path class="st8" d="M462,177.3l-2.1,2.5l-2.3,2.7l-2.3-5.4l-2.1-4.8c-8.4-3.3-14.6-1-14.6,6l37.8,21.8
				C476.6,193.2,470.3,183.7,462,177.3z"/>
		</g>
		<g>
			<path class="st7" d="M450.2,149.7c0.8,2.1,0.8,3.9-0.1,4c-0.9,0.1-2.3-1.6-3.1-3.7c-0.8-2.1-0.8-3.9,0.1-4
				C448,145.9,449.4,147.6,450.2,149.7z"/>
			<path class="st7" d="M465.1,158.3c-0.8,1.2-0.8,3,0.1,4.1c0.9,1.1,2.3,1,3.1-0.2c0.8-1.2,0.8-3-0.1-4.1
				C467.3,157,465.9,157.1,465.1,158.3z"/>
		</g>
		<g id="XMLID_105_">
			
				<linearGradient id="SVGID_00000142855910765073395640000008831604022224507838_" gradientUnits="userSpaceOnUse" x1="116.6598" y1="319.5667" x2="182.6498" y2="319.5667">
				<stop offset="0" style="stop-color:#FFFFFF"/>
				<stop offset="1" style="stop-color:#B8B8B8"/>
			</linearGradient>
			<path style="fill:url(#SVGID_00000142855910765073395640000008831604022224507838_);" d="M182.6,338.9c0,11.1-3.9,18.9-10.2,22.5
				l-6.6,3.8c1.1-0.6,2.2-1.4,3.1-2.3c4.5-4.2,7.1-11.1,7.1-20.2c0-22.2-15.6-49.2-34.8-60.3c-7.9-4.6-15.2-5.7-21.1-4
				c-1.3,0.4-2.4,0.9-3.5,1.5l6.6-3.8c6.3-3.7,15-3.1,24.6,2.4C167,289.8,182.6,316.7,182.6,338.9z"/>
			<path class="st6" d="M176.1,342.7c0,9.1-2.7,16-7.1,20.2c-0.9,0.9-2,1.7-3.1,2.3c-6.3,3.7-15,3.1-24.6-2.4
				c-19.2-11.1-34.8-38.1-34.8-60.3c0-11.1,3.9-18.9,10.2-22.5c1.1-0.6,2.3-1.2,3.5-1.5c5.8-1.8,13.1-0.6,21.1,4
				C160.5,293.5,176.1,320.5,176.1,342.7z"/>
		</g>
		<g>
			<path class="st8" d="M146.4,331.4l-2.4,2.9l-2.7,3.2l-2.7-6.3l-2.4-5.7c-9.9-3.9-17.3-1.2-17.3,7.1l44.8,25.8
				C163.6,350.2,156.3,339,146.4,331.4z"/>
		</g>
		<path class="st10" d="M152.2,317.1c0,8.8-4.9,13.2-10.9,9.7c-6-3.5-10.9-13.5-10.9-22.3c0-8.8,4.9-13.2,10.9-9.7
			C147.3,298.3,152.2,308.3,152.2,317.1z"/>
		<path class="st11" d="M130.4,304.5c0,0-0.7-10,0.4-13c1.2-3.4,3.6-4,4.5-4.7c0,0,0.2,2.4,8.3,6.9c10,5.6,8.6,17.6,8.6,23.4
			c0,0-1-7.8-2.8-9.4c-1.7-1.6-10.9-1.3-15.5-10.2C131.8,297.8,130.9,300.7,130.4,304.5z"/>
		<g>
			<path class="st10" d="M132.4,304.6c0.8,2.1,0.8,3.9-0.1,4c-0.9,0.1-2.3-1.6-3.1-3.7c-0.8-2.1-0.8-3.9,0.1-4
				C130.2,300.9,131.5,302.5,132.4,304.6z"/>
			<path class="st10" d="M150.2,314.9c-0.8,1.2-0.8,3,0.1,4.1c0.9,1.1,2.3,1,3.1-0.2c0.8-1.2,0.8-3-0.1-4.1
				C152.4,313.7,151,313.8,150.2,314.9z"/>
		</g>
		<path class="st11" d="M130.5,307.4c0,0,1.7,7.1,4.1,9.8c1.1,1.2,4.1-1.7,6.6-0.2c2.6,1.5,5,7.1,6.5,7.5c2.3,0.6,4.2-4.7,4.2-4.7
			s-0.5,5.2-2.3,7.4c-1.3,1.6-4.5,2.3-8.1,0.3c-3.6-2.1-7.4-6.2-8.9-10.4C131.5,313.8,130.5,307.4,130.5,307.4z"/>
		<path class="st10" d="M141.3,321c0,0-3.2-1.9-2.9-2.9c0.3-0.9,2.2-0.5,2.9-0.1c1.2,0.7,2.8,2.6,2.9,3.5
			C144.3,322.5,142.6,321.8,141.3,321z"/>
		<g>
			<g id="XMLID_102_">
				
					<linearGradient id="SVGID_00000086651781659162142090000014561837347754171270_" gradientUnits="userSpaceOnUse" x1="65.8419" y1="65.016" x2="131.8319" y2="65.016">
					<stop offset="0" style="stop-color:#FFFFFF"/>
					<stop offset="1" style="stop-color:#B8B8B8"/>
				</linearGradient>
				<path style="fill:url(#SVGID_00000086651781659162142090000014561837347754171270_);" d="M131.8,84.4c0,11.1-3.9,18.9-10.2,22.5
					l-6.6,3.8c1.1-0.6,2.2-1.4,3.1-2.3c4.5-4.2,7.1-11.1,7.1-20.2c0-22.2-15.6-49.2-34.8-60.3c-7.9-4.6-15.2-5.7-21.1-4
					c-1.3,0.4-2.4,0.9-3.5,1.5l6.6-3.8c6.3-3.7,15-3.1,24.6,2.4C116.2,35.2,131.8,62.2,131.8,84.4z"/>
				<path class="st6" d="M125.3,88.2c0,9.1-2.7,16-7.1,20.2c-0.9,0.9-2,1.7-3.1,2.3c-6.3,3.7-15,3.1-24.6-2.4
					C71.2,97.2,55.6,70.2,55.6,48c0-11.1,3.9-18.9,10.2-22.5c1.1-0.6,2.3-1.2,3.5-1.5c5.8-1.8,13.1-0.6,21.1,4
					C109.7,39,125.3,66,125.3,88.2z"/>
			</g>
			<g>
				<g>
					<path class="st13" d="M95.6,76.9l-2.4,2.9L90.4,83l-2.7-6.3L85.3,71c-9.9-3.9-17.3-1.2-17.3,7.1l44.8,25.8
						C112.8,95.6,105.5,84.4,95.6,76.9z"/>
				</g>
				<path class="st14" d="M101.3,62.6c0,8.8-4.9,13.2-10.9,9.7c-6-3.5-10.9-13.5-10.9-22.3c0-8.8,4.9-13.2,10.9-9.7
					C96.5,43.7,101.3,53.7,101.3,62.6z"/>
				<path class="st15" d="M79.5,50c0,0-0.7-10,0.4-13c1.2-3.4,3.6-4,4.5-4.7c0,0,0.2,2.4,8.3,6.9c10,5.6,8.6,17.6,8.6,23.4
					c0,0-1-7.8-2.8-9.4s-10.9-1.3-15.5-10.2C80.9,43.3,80.1,46.2,79.5,50z"/>
				<g>
					<path class="st14" d="M81.5,50.1c0.8,2.1,0.8,3.9-0.1,4c-0.9,0.1-2.3-1.6-3.1-3.7c-0.8-2.1-0.8-3.9,0.1-4
						C79.3,46.3,80.7,48,81.5,50.1z"/>
					<path class="st14" d="M99.3,60.4c-0.8,1.2-0.8,3,0.1,4.1c0.9,1.1,2.3,1,3.1-0.2c0.8-1.2,0.8-3-0.1-4.1
						C101.6,59.1,100.2,59.2,99.3,60.4z"/>
				</g>
				<g>
					<path class="st14" d="M90.4,66.5c0,0-3.2-1.9-2.9-2.9c0.3-0.9,2.2-0.5,2.9-0.1c1.2,0.7,2.8,2.6,2.9,3.5
						C93.5,68,91.8,67.3,90.4,66.5z"/>
				</g>
			</g>
		</g>
		<g>
			<g id="XMLID_107_">
				
					<linearGradient id="SVGID_00000047052300859625325620000009811734440712137877_" gradientUnits="userSpaceOnUse" x1="10.2068" y1="198.2487" x2="76.1967" y2="198.2487">
					<stop offset="0" style="stop-color:#FFFFFF"/>
					<stop offset="1" style="stop-color:#B8B8B8"/>
				</linearGradient>
				<path style="fill:url(#SVGID_00000047052300859625325620000009811734440712137877_);" d="M76.2,217.6c0,11.1-3.9,18.9-10.2,22.5
					l-6.6,3.8c1.1-0.6,2.2-1.4,3.1-2.3c4.5-4.2,7.1-11.1,7.1-20.2c0-22.2-15.6-49.2-34.8-60.3c-7.9-4.6-15.2-5.7-21.1-4
					c-1.3,0.4-2.4,0.9-3.5,1.5l6.6-3.8c6.3-3.7,15-3.1,24.6,2.4C60.6,168.4,76.2,195.4,76.2,217.6z"/>
				<path class="st6" d="M69.6,221.4c0,9.1-2.7,16-7.1,20.2c-0.9,0.9-2,1.7-3.1,2.3c-6.3,3.7-15,3.1-24.6-2.4
					C15.6,230.4,0,203.4,0,181.2c0-11.1,3.9-18.9,10.2-22.5c1.1-0.6,2.3-1.2,3.5-1.5c5.8-1.8,13.1-0.6,21.1,4
					C54,172.2,69.6,199.2,69.6,221.4z"/>
			</g>
			<g>
				<path class="st17" d="M27.2,169.7c0,0-9.4,1.4-3,17.4c2.5,6.2,6.1,10.8,6.1,10.8l9.3,5.3c0,0,5.5-0.4,7.2-8.4
					c1.9-9.1-1.6-12-5.7-18.2C33.5,165.5,27.2,169.7,27.2,169.7z"/>
				<g>
					<g>
						<path class="st14" d="M34.8,203.8c-1-0.6-3-2.9-5.1-6.6c-4-7.2-4.7-12-4.4-17.3c0.6-7.3,3.4,0.3,9.4,3.8
							c6,3.5,9.1-0.8,9.7,7.2c0.2,4.8,0.2,9.3-4.4,12.2C37.8,204.5,35.9,204.4,34.8,203.8z"/>
					</g>
					<g>
						<path class="st8" d="M39.1,210.9l-2.1,2.5l-2.3,2.7l-2.3-5.4l-2.1-4.8c-8.4-3.3-14.6-1-14.6,6l37.8,21.8
							C53.7,226.7,47.5,217.2,39.1,210.9z"/>
					</g>
				</g>
				<g>
					<path class="st14" d="M27.4,183.2c0.8,2.1,0.8,3.9-0.1,4s-2.3-1.6-3.1-3.7c-0.8-2.1-0.8-3.9,0.1-4
						C25.2,179.4,26.6,181.1,27.4,183.2z"/>
					<path class="st14" d="M42.3,191.8c-0.8,1.2-0.8,3,0.1,4.1c0.9,1.1,2.3,1,3.1-0.2c0.8-1.2,0.8-3-0.1-4.1
						C44.5,190.5,43.1,190.6,42.3,191.8z"/>
				</g>
				<path class="st17" d="M25.9,175.8c0,0,3.1,5.9,7.9,9.6c0,0-0.8-1.2-0.8-2.9c0,0,6.1,5.8,10.6,3.7l-3-3.9l-9.4-7.2L25.9,175.8z"/>
			</g>
		</g>
		<g>
			<g id="XMLID_106_">
				
					<linearGradient id="SVGID_00000129889026334265526040000001200032783988763282_" gradientUnits="userSpaceOnUse" x1="309.2659" y1="297.2939" x2="375.2558" y2="297.2939">
					<stop offset="0" style="stop-color:#FFFFFF"/>
					<stop offset="1" style="stop-color:#B8B8B8"/>
				</linearGradient>
				<path style="fill:url(#SVGID_00000129889026334265526040000001200032783988763282_);" d="M375.3,316.7
					c0,11.1-3.9,18.9-10.2,22.5l-6.6,3.8c1.1-0.6,2.2-1.4,3.1-2.3c4.5-4.2,7.1-11.1,7.1-20.2c0-22.2-15.6-49.2-34.8-60.3
					c-7.9-4.6-15.2-5.7-21.1-4c-1.3,0.4-2.4,0.9-3.5,1.5l6.6-3.8c6.3-3.7,15-3.1,24.6,2.4C359.7,267.5,375.3,294.4,375.3,316.7z"/>
				<path class="st6" d="M368.7,320.5c0,9.1-2.7,16-7.1,20.2c-0.9,0.9-2,1.7-3.1,2.3c-6.3,3.7-15,3.1-24.6-2.4
					c-19.2-11.1-34.8-38.1-34.8-60.3c0-11.1,3.9-18.9,10.2-22.5c1.1-0.6,2.3-1.2,3.5-1.5c5.8-1.8,13.1-0.6,21.1,4
					C353.1,271.3,368.7,298.3,368.7,320.5z"/>
			</g>
			<g>
				<path class="st19" d="M326.3,268.7c0,0-6.2,0.9-3.3,15.8c1.2,6.1,6.4,12.4,6.4,12.4l9.3,5.3c0,0,7.1-1.2,6.9-9.8
					c-0.1-6.8-1.3-10.7-5.5-16.8C332.6,264.6,326.3,268.7,326.3,268.7z"/>
				<g>
					<g>
						<path class="st14" d="M333.9,302.9c-1-0.6-3-2.9-5.1-6.6c-4-7.2-4.7-12-4.4-17.3c0.6-7.3,3.4,0.3,9.4,3.8
							c6,3.5,9.1-0.8,9.7,7.2c0.2,4.8,0.2,9.3-4.4,12.2C336.9,303.5,334.9,303.5,333.9,302.9z"/>
					</g>
					<g>
						<path class="st0" d="M338.2,309.9l-2.1,2.5l-2.3,2.7l-2.3-5.4l-2.1-4.8c-8.4-3.3-14.6-1-14.6,6l37.8,21.8
							C352.8,325.7,346.5,316.3,338.2,309.9z"/>
					</g>
				</g>
				<g>
					<path class="st14" d="M326.4,282.2c0.8,2.1,0.8,3.9-0.1,4c-0.9,0.1-2.3-1.6-3.1-3.7c-0.8-2.1-0.8-3.9,0.1-4
						C324.2,278.5,325.6,280.1,326.4,282.2z"/>
					<path class="st14" d="M341.3,290.8c-0.8,1.2-0.8,3,0.1,4.1c0.9,1.1,2.3,1,3.1-0.2c0.8-1.2,0.8-3-0.1-4.1
						C343.5,289.6,342.1,289.7,341.3,290.8z"/>
				</g>
				<path class="st19" d="M324.5,275c0,0,2.3,5.3,8.6,9.5c0,0-2.4-2.6-2.5-4.3c0,0,7.7,7.1,12.3,5l-3-3.9l-9.4-7.2L324.5,275z"/>
				<path class="st19" d="M333.7,281.6c0,0,1.9,3,5.1,5.3c0,0-1.3-1.6-1.7-4.1L333.7,281.6z"/>
			</g>
		</g>
		<g>
			<g id="XMLID_103_">
				
					<linearGradient id="SVGID_00000136413431708055120750000015564766855002838416_" gradientUnits="userSpaceOnUse" x1="309.2659" y1="45.68" x2="375.2558" y2="45.68">
					<stop offset="0" style="stop-color:#FFFFFF"/>
					<stop offset="1" style="stop-color:#B8B8B8"/>
				</linearGradient>
				<path style="fill:url(#SVGID_00000136413431708055120750000015564766855002838416_);" d="M375.3,65c0,11.1-3.9,18.9-10.2,22.5
					l-6.6,3.8c1.1-0.6,2.2-1.4,3.1-2.3c4.5-4.2,7.1-11.1,7.1-20.2c0-22.2-15.6-49.2-34.8-60.3c-7.9-4.6-15.2-5.7-21.1-4
					c-1.3,0.4-2.4,0.9-3.5,1.5l6.6-3.8c6.3-3.7,15-3.1,24.6,2.4C359.7,15.9,375.3,42.8,375.3,65z"/>
				<path class="st6" d="M368.7,68.9c0,9.1-2.7,16-7.1,20.2c-0.9,0.9-2,1.7-3.1,2.3c-6.3,3.7-15,3.1-24.6-2.4
					c-19.2-11.1-34.8-38.1-34.8-60.3c0-11.1,3.9-18.9,10.2-22.5c1.1-0.6,2.3-1.2,3.5-1.5c5.8-1.8,13.1-0.6,21.1,4
					C353.1,19.6,368.7,46.6,368.7,68.9z"/>
			</g>
			<g>
				<g>
					<path class="st8" d="M339,55.9l-2.4,2.9l-2.7,3.2l-2.7-6.3l-2.4-5.7c-9.9-3.9-17.3-1.2-17.3,7.1L356.3,83
						C356.3,74.7,348.9,63.5,339,55.9z"/>
				</g>
				<path class="st14" d="M344.8,41.7c0,8.8-4.9,13.2-10.9,9.7c-6-3.5-10.9-13.5-10.9-22.3c0-8.8,4.9-13.2,10.9-9.7
					C339.9,22.8,344.8,32.8,344.8,41.7z"/>
				<g>
					<path class="st14" d="M325.1,29.2c0.8,2.1,0.8,3.9-0.1,4c-0.9,0.1-2.3-1.6-3.1-3.7c-0.8-2.1-0.8-3.9,0.1-4
						C322.9,25.4,324.2,27.1,325.1,29.2z"/>
					<path class="st14" d="M342.9,39.5c-0.8,1.2-0.8,3,0.1,4.1c0.9,1.1,2.3,1,3.1-0.2c0.8-1.2,0.8-3-0.1-4.1
						C345.1,38.3,343.7,38.3,342.9,39.5z"/>
				</g>
				<path class="st11" d="M344.3,39.9c0,0,1.5-10.8-1.8-14.3c-3.2-3.5-3.9-3.3-6.4-6.7c-2.5-3.5-8.8-5.8-10.3-3.4
					c-1.5,2.4-1,2.1-1.6,2.3c-0.7,0.2-1.2,0.6-1.2,4c0.1,4.7,0.4,5.1,0.5,5.7c0,0,0.3-6.5,2.4-6.6c2.1-0.1,7,7.3,12.3,7.3
					C342.5,28.2,343.7,33.5,344.3,39.9z"/>
			</g>
		</g>
		<g id="XMLID_183_">
			<g class="st21">
				<g>
					<polygon class="st22" points="177.3,211.6 177.3,219.6 160,232.6 160,224.5 					"/>
				</g>
				<g>
					<polygon class="st23" points="160.9,228 160.9,236 146.7,234.4 146.8,226.3 					"/>
				</g>
				<g>
					<polygon class="st24" points="175.8,225.7 175.7,233.8 147.1,248.8 147.1,240.7 					"/>
				</g>
				<g>
					<polygon class="st25" points="177.3,211.6 160,224.5 175.8,225.7 147.1,240.7 160.9,228 146.8,226.3 					"/>
				</g>
			</g>
		</g>
		<g id="XMLID_175_">
			<g class="st21">
				<g>
					<polygon class="st24" points="363.8,128 363.8,136 341.4,146.1 341.4,138 					"/>
				</g>
				<g>
					<polygon class="st23" points="340.8,141.5 340.8,149.5 327.8,145.9 327.8,137.8 					"/>
				</g>
				<g>
					<polygon class="st26" points="356.2,141.4 356.2,149.5 321.9,159.8 322,151.8 					"/>
				</g>
				<g>
					<polygon class="st25" points="356.2,141.4 322,151.8 340.8,141.5 327.8,137.8 363.8,128 341.4,138 					"/>
				</g>
			</g>
		</g>
		<g id="XMLID_170_">
			<g class="st21">
				<g>
					<polygon class="st24" points="255.1,279.4 255.1,287.4 243.1,292.1 243.1,284 					"/>
				</g>
				<g>
					<polygon class="st23" points="260.9,294.1 260.9,302.1 255.1,287.4 255.1,279.4 					"/>
				</g>
				<g>
					<polygon class="st27" points="262.8,271.7 262.8,279.8 260.9,302.1 260.9,294.1 					"/>
				</g>
				<g>
					<polygon class="st25" points="246.6,261 250.2,277.3 262.8,271.7 260.9,294.1 255.1,279.4 243.1,284 					"/>
				</g>
			</g>
		</g>
		<g id="XMLID_169_">
			<g class="st21">
				<g>
					<polygon class="st24" points="238.5,78.2 238.4,86.3 226.5,90.9 226.5,82.9 					"/>
				</g>
				<g>
					<polygon class="st23" points="244.3,92.9 244.3,101 238.4,86.3 238.5,78.2 					"/>
				</g>
				<g>
					<polygon class="st27" points="246.1,70.5 246.1,78.6 244.3,101 244.3,92.9 					"/>
				</g>
				<g>
					<polygon class="st25" points="230,59.9 233.6,76.2 246.1,70.5 244.3,92.9 238.5,78.2 226.5,82.9 					"/>
				</g>
			</g>
		</g>
		<g id="XMLID_174_">
			<g class="st21">
				<g>
					<polygon class="st23" points="410.6,229.2 410.5,237.3 388.5,229.3 388.5,221.2 					"/>
				</g>
				<g>
					<polygon class="st28" points="388.5,221.2 388.5,229.3 385.7,237.5 385.7,229.4 					"/>
				</g>
				<g>
					<polygon class="st24" points="385.7,229.4 385.7,237.5 360.1,219.7 360.1,211.7 					"/>
				</g>
				<g>
					<polygon class="st25" points="384.6,212.6 410.6,229.2 388.5,221.2 385.7,229.4 360.1,211.7 382.6,221.7 					"/>
				</g>
			</g>
		</g>
		<g id="XMLID_177_">
			<g class="st21">
				<g>
					<polygon class="st29" points="157,148.8 157,156.9 131.6,160.2 131.6,152.2 					"/>
				</g>
				<g>
					<polygon class="st23" points="128.1,154.9 128.1,163 118.4,155.7 118.4,147.7 					"/>
				</g>
				<g>
					<polygon class="st30" points="139.7,159.1 139.7,167.2 100,165.1 100,157 					"/>
				</g>
				<g>
					<polygon class="st25" points="139.7,159.1 100,157 128.1,154.9 118.4,147.7 157,148.8 131.6,152.2 					"/>
				</g>
			</g>
		</g>
	</g>
</switch>

</svg>
