<?xml version="1.0" encoding="utf-8"?>
<!-- Generator: Adobe Illustrator 27.1.1, SVG Export Plug-In . SVG Version: 6.00 Build 0)  -->










<svg version="1.1" id="Layer_1" xmlns="http://www.w3.org/2000/svg" xmlns:xlink="http://www.w3.org/1999/xlink" x="0px" y="0px" viewBox="0 0 409.6 499.8" style="enable-background:new 0 0 409.6 499.8;" xml:space="preserve">
<style type="text/css">
	.st0{fill:#DFDFDE;}
	.st1{fill:url(#SVGID_1_);}
	.st2{fill:#A5A5A5;}
	.st3{fill:url(#SVGID_00000034780436775654501600000008112287415572914075_);}
	.st4{fill:url(#SVGID_00000115484784701537900760000003034718103851155619_);}
	.st5{fill:#B1B1B1;}
	.st6{fill:#9B9A9A;}
	.st7{fill:url(#SVGID_00000004505382552829105340000013116096252843677107_);}
	.st8{fill:url(#SVGID_00000132791191365389594380000011835591114493522067_);}
	.st9{fill:#7BBC43;}
	.st10{fill:#984C9D;}
	.st11{fill:#B98E5C;}
	.st12{fill:#FED298;}
	.st13{fill:#E8B87F;}
	.st14{fill:#8B5E3C;}
	.st15{fill:#212121;}
	.st16{fill:#3C3C3C;}
	.st17{fill:#EF4747;}
	.st18{fill:#545454;}
	.st19{fill:#EF382F;}
	.st20{fill:#FBB78E;}
	.st21{fill:#F4B189;}
	.st22{fill:#474748;}
	.st23{fill:url(#SVGID_00000139978956674270153340000009114920592421634992_);}
	.st24{fill:#396E8F;}
	.st25{fill:#2F5D7A;}
	.st26{fill:#ECB68F;}
	.st27{fill:#010101;}
	.st28{fill:#04243A;}
	.st29{fill:#042B46;}
	.st30{fill:#483522;}
	.st31{fill:#0D3557;}
	.st32{fill:#B29471;}
	.st33{fill:#745947;}
	.st34{fill:#FBEFBA;}
	.st35{fill:#94775B;}
	.st36{fill:#57CBF5;}
	.st37{fill:#434143;}
	.st38{fill:#984326;}
	.st39{fill:#B57D4F;}
	.st40{fill:#DEA07E;}
	.st41{fill:#FFCD65;}
	.st42{fill:#F9AC87;}
	.st43{fill:#61401F;}
</style>
<switch>
	
	<g>
		<g>
			<g>
				<path class="st0" d="M129.5,28.1l2.5,6.2c0.6,1.5-0.1,2.6-1.3,1.9l-20.6-11.9l26.3-15.2l3.1,1.8c-3.9,2.2-2,1.2-8.5,4.9
					C128.1,17.4,127.1,22.2,129.5,28.1z"/>
				<linearGradient id="SVGID_1_" gradientUnits="userSpaceOnUse" x1="146.7603" y1="6.6502" x2="172.5542" y2="51.3264">
					<stop offset="0" style="stop-color:#DFDFDE"/>
					<stop offset="0.1312" style="stop-color:#D6D6D5"/>
					<stop offset="0.3493" style="stop-color:#C0BFBF"/>
					<stop offset="0.5676" style="stop-color:#A5A5A5"/>
					<stop offset="1" style="stop-color:#DFDFDE"/>
				</linearGradient>
				<path class="st1" d="M191,40.7l-26.3,15.2l-7.9-4.6v0L144.1,44c-1.2-0.7-1.9-2.6-1.3-3.4c2.7-3.6,2.9-3.7,3.3-4.8
					c2.4-6.2-3.3-17.1-9.7-19.8c-2.2-1-4.1-1-5.5-0.1c7.4-4.2,2.4-1.4,26.3-15.2c1.5-0.9,3.7-0.9,6.1,0.4C170.7,5,175.4,17,171.6,22
					l-2.5,3.3c-0.6,0.8,0.1,2.7,1.3,3.4L191,40.7z"/>
			</g>
			<g>
				<path class="st2" d="M335.1,258l-4.1-5.3c-1-1.3-2.3-1.2-2.3,0.2l0,23.8l26.3-15.2l0-3.5c-3.9,2.2-2,1.2-8.5,4.9
					C343.6,264.6,339,263,335.1,258z"/>
				
					<linearGradient id="SVGID_00000062904578526285819000000010560156697652305558_" gradientUnits="userSpaceOnUse" x1="336.5122" y1="209.1015" x2="362.306" y2="253.7776">
					<stop offset="0" style="stop-color:#A5A5A5"/>
					<stop offset="0.2162" style="stop-color:#B4B3B3"/>
					<stop offset="0.6465" style="stop-color:#DCDBDB"/>
					<stop offset="0.6757" style="stop-color:#DFDFDE"/>
					<stop offset="0.748" style="stop-color:#DADAD9"/>
					<stop offset="0.8357" style="stop-color:#CDCCCC"/>
					<stop offset="0.931" style="stop-color:#B8B7B7"/>
					<stop offset="1" style="stop-color:#A5A5A5"/>
				</linearGradient>
				<path style="fill:url(#SVGID_00000062904578526285819000000010560156697652305558_);" d="M355,198.4l-26.3,15.2l0,9.2l0,0
					l0,14.7c0,1.4,1.3,3,2.3,2.8l4.1-0.5c6.1-0.8,14.3,9.2,14,17.6c-0.1,2.2-0.8,4.4-2.7,5.5c7-4,2.9-1.7,26.3-15.2
					c1.5-0.9,2.6-2.7,2.7-5.5c0.3-8.4-7.8-18.4-14-17.7l-4.1,0.5c-1,0.1-2.3-1.5-2.3-2.8L355,198.4z"/>
			</g>
			
				<linearGradient id="SVGID_00000156586633935230721520000011202435823468917899_" gradientUnits="userSpaceOnUse" x1="46.5157" y1="127.632" x2="55.6139" y2="143.3906">
				<stop offset="0" style="stop-color:#DFDFDE"/>
				<stop offset="0.2479" style="stop-color:#C6C5C5"/>
				<stop offset="0.5118" style="stop-color:#B4B3B3"/>
				<stop offset="0.7665" style="stop-color:#A9A8A8"/>
				<stop offset="1" style="stop-color:#A5A5A5"/>
			</linearGradient>
			<path style="fill:url(#SVGID_00000156586633935230721520000011202435823468917899_);" d="M55.4,122.5v20.3c0,1.4-1.3,1.5-2.3,0.2
				l-4.1-5.3c-3.9-5-8.5-6.5-11.3-4.9L55.4,122.5z"/>
			<polygon class="st5" points="383.3,434.5 383.3,371.4 409.6,356.2 409.6,419.3 			"/>
			<polygon class="st5" points="383.3,308.3 409.6,293.1 409.6,356.2 383.3,371.4 			"/>
			<polygon class="st0" points="164.7,55.9 191,40.7 245.7,72.2 219.4,87.4 			"/>
			<polygon class="st0" points="300.3,103.8 274,119 219.4,87.4 245.7,72.2 			"/>
			<polygon class="st0" points="328.7,213.6 355,198.4 300.3,166.9 274,182.1 			"/>
			<g>
				<path class="st5" d="M300.3,103.8c0,25.4,0.2,24.4-0.4,24.8c-17.3,10-11.4,6.6-26.3,15.2c0.6-0.4,0.4,0.6,0.4-24.8L300.3,103.8z
					"/>
				<path class="st6" d="M298,140.2l-26.3,15.2l-4.1,0.5c-6.2,0.8-14.3-9.3-14-17.6c0.3-7.8,8-8.3,14-0.6l4.1,5.3
					c0.6,0.8,1.4,1.1,1.9,0.8l12.1-7c2.5,2.6,5.5,4.3,8.2,4L298,140.2z"/>
				<path class="st5" d="M300.3,143.1v23.8L274,182.1v-23.8c0-1.4-1.3-3-2.3-2.8l26.3-15.2C299,140.1,300.3,141.7,300.3,143.1z"/>
			</g>
			<g>
				
					<linearGradient id="SVGID_00000023267319141254035940000003676859793258246590_" gradientUnits="userSpaceOnUse" x1="95.0574" y1="63.8" x2="129.6933" y2="83.797">
					<stop offset="0" style="stop-color:#DFDFDE"/>
					<stop offset="1" style="stop-color:#A5A5A5"/>
				</linearGradient>
				<path style="fill:url(#SVGID_00000023267319141254035940000003676859793258246590_);" d="M136.4,72.2l-26.3,15.2l-3-1.8h0
					C88.1,74.7,89,75,88.4,75.4c14.9-8.6,9-5.2,26.3-15.2C115.3,59.8,114.3,59.5,136.4,72.2z"/>
				<path class="st6" d="M101.1,59.3c-1.6,2.1-1.7,5.5-0.7,9.1l-12.1,7c-0.5,0.3-0.6,1.1-0.2,2l2.5,6.2c4,10.1-1.6,16.3-8.9,11
					c-6.6-4.6-10.4-15.4-6.9-20.1l2.5-3.3L103.7,56L101.1,59.3z"/>
				<path class="st0" d="M103.7,56L77.3,71.2c0.6-0.8-0.1-2.7-1.3-3.4L55.4,55.9l26.3-15.2l20.6,11.9
					C103.5,53.3,104.3,55.2,103.7,56z"/>
			</g>
			<g>
				<path class="st0" d="M409.6,293.1l-26.3,15.2l-3-1.8h0c-18.9-10.9-18-10.6-18.6-10.3c14.9-8.6,9-5.2,26.3-15.2
					C388.6,280.7,387.6,280.4,409.6,293.1z"/>
				<path class="st6" d="M374.4,280.2c-1.6,2.1-1.7,5.5-0.7,9.1l-12.1,7c-0.5,0.3-0.6,1.1-0.2,2l2.5,6.2c4,10.1-1.6,16.3-8.9,11
					c-6.6-4.6-10.4-15.4-6.9-20.1l2.5-3.3l26.3-15.2L374.4,280.2z"/>
				
					<linearGradient id="SVGID_00000032627965606062729530000009265220083952641206_" gradientUnits="userSpaceOnUse" x1="347.1398" y1="266.0691" x2="359.26" y2="287.0619">
					<stop offset="0" style="stop-color:#A5A5A5"/>
					<stop offset="1" style="stop-color:#DFDFDE"/>
				</linearGradient>
				<path style="fill:url(#SVGID_00000032627965606062729530000009265220083952641206_);" d="M376.9,276.9l-26.3,15.2
					c0.6-0.8-0.1-2.7-1.3-3.4l-20.6-11.9l26.3-15.2l20.6,11.9C376.8,274.1,377.5,276,376.9,276.9z"/>
			</g>
			<path class="st6" d="M75.9,225.9c-0.3,7.8-8,8.3-14,0.6l-4.1-5.3c-0.6-0.8-1.4-1.1-1.9-0.8l14.2-8.2
				C73.4,215.7,76,221.1,75.9,225.9z"/>
			<path class="st6" d="M130.5,68.1c-0.3,7.8-8,8.3-14,0.6l-4.1-5.3c-0.6-0.8-1.4-1.1-1.9-0.8l14.2-8.2
				C128.1,58,130.7,63.3,130.5,68.1z"/>
			<g>
				<path class="st9" d="M246.3,205.6c-6.9-3.7-11.2,2.8-7.5,11.8l2.5,6.2c0.6,1.5-0.1,2.6-1.3,1.9l-20.6-11.9v-23.8
					c0-1.4-1.3-3-2.3-2.8l-4.1,0.5c-6,0.7-13.7-8.6-14-16.8c-0.3-8.7,7.8-9.4,14-1.5l4.1,5.3c1,1.3,2.3,1.2,2.3-0.2v-23.8l20.6,11.9
					c1.2,0.7,1.9,2.6,1.3,3.4l-2.5,3.3c-3.6,4.8,0.6,16.2,7.5,20.5c7.4,4.6,12.1-2,8.3-11.4l-2.5-6.2c-0.6-1.5,0.1-2.6,1.3-1.9
					l20.6,11.9v23.8c0,1.4,1.3,3,2.3,2.8l4.1-0.5c6.2-0.7,14.3,9.3,14,17.6c-0.3,7.8-8,8.3-14,0.6l-4.1-5.3c-1-1.3-2.3-1.2-2.3,0.2
					v23.8l-20.6-11.9c-1.2-0.7-1.9-2.6-1.3-3.4l2.5-3.3C258.4,221.5,253.7,209.5,246.3,205.6z"/>
				<path class="st10" d="M383.3,371.4l-20.6-11.9c-1.2-0.7-1.9-2.6-1.3-3.4l2.5-3.3c3.6-4.8-0.6-16.2-7.5-20.5
					c-7.4-4.6-12.1,2-8.3,11.4l2.5,6.2c0.6,1.5-0.1,2.6-1.3,1.9l-20.6-11.9V316c0-1.4-1.3-3-2.3-2.8l-4.1,0.5
					c-6.2,0.7-14.3-9.3-14-17.6c0.3-7.8,8-8.3,14-0.6l4.1,5.3c1,1.3,2.3,1.2,2.3-0.2v-23.8l20.6,11.9c1.2,0.7,1.9,2.6,1.3,3.4
					l-2.5,3.3c-3.8,5,0.9,17,8.3,20.9c6.9,3.7,11.2-2.8,7.5-11.8l-2.5-6.2c-0.6-1.5,0.1-2.6,1.3-1.9l20.6,11.9V371.4z"/>
				<path class="st9" d="M328.7,402.9v-23.8c0-1.4,1.3-1.5,2.3-0.2l4.1,5.3c6,7.7,13.7,7.2,14-0.6c0.3-8.4-7.8-18.4-14-17.6
					l-4.1,0.5c-1,0.1-2.3-1.5-2.3-2.8v-23.8l20.6,11.9c1.2,0.7,1.9-0.4,1.3-1.9l-2.5-6.2c-3.8-9.4,0.9-16,8.3-11.4
					c6.9,4.3,11.2,15.6,7.5,20.5l-2.5,3.3c-0.6,0.8,0.1,2.7,1.3,3.4l20.6,11.9v63.1L328.7,402.9z"/>
				<path class="st10" d="M130.5,67.2c-0.3-8.2-8-17.5-14-16.8l-4.1,0.5c-1,0.1-2.3-1.5-2.3-2.8V24.3l20.6,11.9
					c1.2,0.7,1.9-0.4,1.3-1.9l-2.5-6.2c-3.6-9,0.6-15.5,7.5-11.8c7.4,3.9,12.1,15.9,8.3,20.9l-2.5,3.3c-0.6,0.8,0.1,2.7,1.3,3.4
					l20.6,11.9v23.8c0,1.4-1.3,1.5-2.3,0.2l-4.1-5.3c-6-7.7-13.7-7.2-14,0.6c-0.3,8.4,7.8,18.4,14,17.6l4.1-0.5
					c1-0.1,2.3,1.5,2.3,2.8V119l-20.6-11.9c-1.2-0.7-1.9,0.4-1.3,1.9l2.5,6.2c3.8,9.4-0.9,16-8.3,11.4c-6.9-4.3-11.2-15.6-7.5-20.5
					l2.5-3.3c0.6-0.8-0.1-2.7-1.3-3.4l-20.6-11.9V63.6c0-1.4,1.3-1.5,2.3-0.2l4.1,5.3C122.7,76.7,130.8,75.9,130.5,67.2z"/>
				<path class="st10" d="M239.8,256.5c-0.3-8.2-8-17.5-14-16.8l-4.1,0.5c-1,0.1-2.3-1.5-2.3-2.8v-23.8l20.6,11.9
					c1.2,0.7,1.9-0.4,1.3-1.9l-2.5-6.2c-3.6-9,0.6-15.5,7.5-11.8c7.4,3.9,12.1,15.9,8.3,20.9l-2.5,3.3c-0.6,0.8,0.1,2.7,1.3,3.4
					l20.6,11.9V269c0,1.4-1.3,1.5-2.3,0.2l-4.1-5.3c-6-7.7-13.7-7.2-14,0.6c-0.3,8.4,7.8,18.4,14,17.6l4.1-0.5
					c1-0.1,2.3,1.5,2.3,2.8v23.8l-20.6-11.9c-1.2-0.7-1.9,0.4-1.3,1.9l2.5,6.2c3.8,9.4-0.9,16-8.3,11.4c-6.9-4.3-11.2-15.6-7.5-20.5
					l2.5-3.3c0.6-0.8-0.1-2.7-1.3-3.4l-20.6-11.9v-23.8c0-1.4,1.3-1.5,2.3-0.2l4.1,5.3C232,266,240.1,265.3,239.8,256.5z"/>
				<path class="st9" d="M191.6,237.1c-6.9-3.7-11.2,2.8-7.5,11.8l2.5,6.2c0.6,1.5-0.1,2.6-1.3,1.9l-20.6-11.9v-23.8
					c0-1.4-1.3-3-2.3-2.8l-4.1,0.5c-6,0.7-13.7-8.6-14-16.8c-0.3-8.7,7.8-9.4,14-1.5l4.1,5.3c1,1.3,2.3,1.2,2.3-0.2v-23.8l20.6,11.9
					c1.2,0.7,1.9,2.6,1.3,3.4l-2.5,3.3c-3.6,4.8,0.6,16.2,7.5,20.5c7.4,4.6,12.1-2,8.3-11.4l-2.5-6.2c-0.6-1.5,0.1-2.6,1.3-1.9
					l20.6,11.9v23.8c0,1.4,1.3,3,2.3,2.8l4.1-0.5c6.2-0.7,14.3,9.3,14,17.6c-0.3,7.8-8,8.3-14,0.6l-4.1-5.3c-1-1.3-2.3-1.2-2.3,0.2
					v23.8l-20.6-11.9c-1.2-0.7-1.9-2.6-1.3-3.4l2.5-3.3C203.7,253,199,241,191.6,237.1z"/>
				<path class="st10" d="M198.9,169.8c-0.3,8.4,7.8,18.4,14,17.6l4.1-0.5c1-0.1,2.3,1.5,2.3,2.8v23.8l-20.6-11.9
					c-1.2-0.7-1.9,0.4-1.3,1.9l2.5,6.2c3.6,9-0.6,15.5-7.5,11.8c-7.4-3.9-12.1-15.9-8.3-20.9l2.5-3.3c0.6-0.8-0.1-2.7-1.3-3.4
					l-20.6-11.9v-23.8c0-1.4-1.3-3-2.3-2.8l-4.1,0.5c-6.2,0.7-14.3-9.3-14-17.6c0.3-7.8,8-8.3,14-0.6l4.1,5.3c1,1.3,2.3,1.2,2.3-0.2
					V119l20.6,11.9c1.2,0.7,1.9,2.6,1.3,3.4l-2.5,3.3c-3.6,4.8,0.6,16.2,7.5,20.5c7.4,4.6,12.1-2,8.3-11.4l-2.5-6.2
					c-0.6-1.5,0.1-2.6,1.3-1.9l20.6,11.9v23.8c0,1.4-1.3,1.5-2.3,0.2l-4.1-5.3C206.9,161.5,199.2,162,198.9,169.8z"/>
				<path class="st9" d="M144.3,75.2c0.3-7.8,8-8.3,14-0.6l4.1,5.3c1,1.3,2.3,1.2,2.3-0.2V55.9l54.7,31.6v23.8c0,1.4,1.3,3,2.3,2.8
					l4.1-0.5c6-0.7,13.7,8.6,14,16.8c0.3,8.7-7.8,9.4-14,1.5l-4.1-5.3c-1-1.3-2.3-1.2-2.3,0.2v23.8l-20.6-11.9
					c-1.2-0.7-1.9,0.4-1.3,1.9l2.5,6.2c3.6,9-0.6,15.5-7.5,11.8c-7.4-3.9-12.1-15.9-8.3-20.9l2.5-3.3c0.6-0.8-0.1-2.7-1.3-3.4
					L164.7,119V95.2c0-1.4-1.3-3-2.3-2.8l-4.1,0.5C152,93.6,144,83.5,144.3,75.2z"/>
				<path class="st9" d="M35,138.3c0.3-7.8,8-8.3,14-0.6l4.1,5.3c1,1.3,2.3,1.2,2.3-0.2V119L76,130.9c1.2,0.7,1.9,2.6,1.3,3.4
					l-2.5,3.3c-3.6,4.8,0.6,16.2,7.5,20.5c7.4,4.6,12.1-2,8.3-11.4l-2.5-6.2c-0.6-1.5,0.1-2.6,1.3-1.9l20.6,11.9v23.8
					c0,1.4,1.3,3,2.3,2.9l4.1-0.5c6-0.7,13.7,8.6,14,16.8c0.3,8.7-7.8,9.4-14,1.5l-4.1-5.3c-1-1.3-2.3-1.2-2.3,0.2v23.8l-20.6-11.9
					c-1.2-0.7-1.9,0.4-1.3,1.9l2.5,6.2c3.6,9-0.6,15.5-7.5,11.8c-7.4-3.9-12.1-15.9-8.3-20.9l2.5-3.3c0.6-0.8-0.1-2.7-1.3-3.4
					l-20.6-11.9v-23.8c0-1.4-1.3-3-2.3-2.8l-4.1,0.5C42.7,156.7,34.7,146.6,35,138.3z"/>
				<path class="st9" d="M308.2,296c-0.3,8.4,7.8,18.4,14,17.6l4.1-0.5c1-0.1,2.3,1.5,2.3,2.8v23.8L308,327.9
					c-1.2-0.7-1.9,0.4-1.3,1.9l2.5,6.2c3.8,9.4-0.9,16-8.3,11.4c-6.9-4.3-11.2-15.7-7.5-20.5l2.5-3.3c0.6-0.8-0.1-2.7-1.3-3.4
					L274,308.3v-23.8c0-1.4-1.3-3-2.3-2.9l-4.1,0.5c-6,0.7-13.7-8.6-14-16.8c-0.3-8.7,7.8-9.4,14-1.5l4.1,5.3c1,1.3,2.3,1.2,2.3-0.2
					v-23.8l20.6,11.9c1.2,0.7,1.9-0.4,1.3-1.9l-2.5-6.2c-3.6-9,0.6-15.5,7.5-11.8c7.4,3.9,12.1,15.9,8.3,20.9l-2.5,3.3
					c-0.6,0.8,0.1,2.7,1.3,3.4l20.6,11.9v23.8c0,1.4-1.3,1.5-2.3,0.2l-4.1-5.3C316.2,287.7,308.5,288.2,308.2,296z"/>
				<path class="st10" d="M164.7,308.3v-23.8c0-1.4,1.3-1.5,2.3-0.2l4.1,5.3c6,7.7,13.7,7.2,14-0.6c0.3-8.4-7.8-18.4-14-17.6
					l-4.1,0.5c-1,0.1-2.3-1.5-2.3-2.8v-23.8l20.6,11.9c1.2,0.7,1.9-0.4,1.3-1.9l-2.5-6.2c-3.8-9.4,0.9-16,8.3-11.4
					c6.9,4.3,11.2,15.6,7.5,20.5l-2.5,3.3c-0.6,0.8,0.1,2.7,1.3,3.4l20.6,11.9v23.8c0,1.4-1.3,1.5-2.3,0.2l-4.1-5.3
					c-6.2-7.9-14.3-7.2-14,1.5c0.3,8.2,8,17.5,14,16.8l4.1-0.5c1-0.1,2.3,1.5,2.3,2.8v23.8L164.7,308.3z"/>
				<path class="st10" d="M349.1,383.6c-0.3,7.8-8,8.3-14,0.6L331,379c-1-1.3-2.3-1.2-2.3,0.2v23.8L274,371.4v-23.8
					c0-1.4,1.3-1.5,2.3-0.2l4.1,5.3c6,7.7,13.7,7.2,14-0.6c0.3-8.4-7.8-18.4-14-17.6l-4.1,0.5c-1,0.1-2.3-1.5-2.3-2.8v-23.8
					l20.6,11.9c1.2,0.7,1.9,2.6,1.3,3.4l-2.5,3.3c-3.6,4.8,0.6,16.2,7.5,20.5c7.4,4.6,12.1-2,8.3-11.4l-2.5-6.2
					c-0.6-1.5,0.1-2.6,1.3-1.9l20.6,11.9v23.8c0,1.4,1.3,3,2.3,2.8l4.1-0.5C341.4,365.2,349.4,375.3,349.1,383.6z"/>
				<path class="st10" d="M144.3,201.4c-0.3,8.4,7.8,18.4,14,17.6l4.1-0.5c1-0.1,2.3,1.5,2.3,2.8v23.8l-20.6-11.9
					c-1.2-0.7-1.9,0.4-1.3,1.9l2.5,6.2c3.8,9.4-0.9,16-8.3,11.4c-6.9-4.3-11.2-15.6-7.5-20.5l2.5-3.3c0.6-0.8-0.1-2.7-1.3-3.4
					l-20.6-11.9v-23.8c0-1.4,1.3-1.5,2.3-0.2l4.1,5.3c6,7.7,13.7,7.2,14-0.6c0.3-8.4-7.8-18.4-14-17.6l-4.1,0.5
					c-1,0.1-2.3-1.5-2.3-2.8v-23.8l20.6,11.9c1.2,0.7,1.9,2.6,1.3,3.4l-2.5,3.3c-3.6,4.8,0.6,16.2,7.5,20.5c7.4,4.6,12.1-2,8.3-11.4
					l-2.5-6.2c-0.6-1.5,0.1-2.6,1.3-1.9l20.6,11.9v23.8c0,1.4-1.3,1.5-2.3,0.2l-4.1-5.3C152.2,193.1,144.5,193.5,144.3,201.4z"/>
				<path class="st10" d="M82.3,158.1c-6.9-4.3-11.2-15.6-7.5-20.5l2.5-3.3c0.6-0.8-0.1-2.7-1.3-3.4L55.4,119V55.9L76,67.8
					c1.2,0.7,1.9,2.6,1.3,3.4l-2.5,3.3c-3.6,4.8,0.6,16.2,7.5,20.5c7.4,4.6,12.1-2,8.3-11.4l-2.5-6.2c-0.6-1.5,0.1-2.6,1.3-1.9
					l20.6,11.9v23.8c0,1.4-1.3,1.5-2.3,0.2l-4.1-5.3c-6-7.7-13.7-7.2-14,0.6c-0.3,8.4,7.8,18.4,14,17.6l4.1-0.5
					c1-0.1,2.3,1.5,2.3,2.8v23.8l-20.6-11.9c-1.2-0.7-1.9,0.4-1.3,1.9l2.5,6.2C94.4,156.1,89.7,162.7,82.3,158.1z"/>
				<path class="st10" d="M274,119v23.8c0,1.4-1.3,1.5-2.3,0.2l-4.1-5.3c-6-7.7-13.7-7.2-14,0.6c-0.3,8.4,7.8,18.4,14,17.6l4.1-0.5
					c1-0.1,2.3,1.5,2.3,2.8v23.8l-20.6-11.9c-1.2-0.7-1.9,0.4-1.3,1.9l2.5,6.2c3.8,9.4-0.9,16-8.3,11.4c-6.9-4.3-11.2-15.6-7.5-20.5
					l2.5-3.3c0.6-0.8-0.1-2.7-1.3-3.4l-20.6-11.9v-23.8c0-1.4,1.3-1.5,2.3-0.2l4.1,5.3c6,7.7,13.7,7.2,14-0.6
					c0.3-8.4-7.8-18.4-14-17.6l-4.1,0.5c-1,0.1-2.3-1.5-2.3-2.8V87.4L274,119z"/>
				<path class="st10" d="M349.1,256.5c-0.3-8.1-8-17.5-14-16.8l-4.1,0.5c-1,0.1-2.3-1.5-2.3-2.8v-23.8L274,182.1v23.8
					c0,1.4,1.3,3,2.3,2.8l4.1-0.5c6-0.7,13.7,8.6,14,16.8c0.3,8.7-7.8,9.4-14,1.5l-4.1-5.3c-1-1.3-2.3-1.2-2.3,0.2v23.8l20.6,11.9
					c1.2,0.7,1.9-0.4,1.3-1.9l-2.5-6.2c-3.6-9.1,0.6-15.5,7.5-11.8c7.4,3.9,12.1,15.9,8.3,20.9l-2.5,3.3c-0.6,0.8,0.1,2.7,1.3,3.4
					l20.6,11.9v-23.8c0-1.4,1.3-1.5,2.3-0.2l4.1,5.3C341.4,266,349.4,265.3,349.1,256.5z"/>
				<path class="st9" d="M144.3,138.3c-0.3,8.4,7.8,18.4,14,17.6l4.1-0.5c1-0.1,2.3,1.5,2.3,2.8v23.8l-20.6-11.9
					c-1.2-0.7-1.9,0.4-1.3,1.9l2.5,6.2c3.8,9.4-0.9,16-8.3,11.4c-6.9-4.3-11.2-15.6-7.5-20.5l2.5-3.3c0.6-0.8-0.1-2.7-1.3-3.4
					l-20.6-11.9v-23.8c0-1.4-1.3-3-2.3-2.8l-4.1,0.5c-6.2,0.7-14.3-9.3-14-17.6c0.3-7.8,8-8.3,14-0.6l4.1,5.3c1,1.3,2.3,1.2,2.3-0.2
					V87.4l20.6,11.9c1.2,0.7,1.9,2.6,1.3,3.4l-2.5,3.3c-3.6,4.8,0.6,16.2,7.5,20.5c7.4,4.6,12.1-2,8.3-11.4l-2.5-6.2
					c-0.6-1.5,0.1-2.6,1.3-1.9l20.6,11.9v23.8c0,1.4-1.3,1.5-2.3,0.2l-4.1-5.3C152.2,130,144.5,130.4,144.3,138.3z"/>
				<path class="st9" d="M185.2,289c-0.3,7.8-8,8.3-14,0.6l-4.1-5.3c-1-1.3-2.3-1.2-2.3,0.2v23.8l-54.6-31.6v-23.8
					c0-1.4,1.3-1.5,2.3-0.2l4.1,5.3c6,7.7,13.7,7.2,14-0.6c0.3-8.4-7.8-18.4-14-17.7l-4.1,0.5c-1,0.1-2.3-1.5-2.3-2.8v-23.8
					l20.6,11.9c1.2,0.7,1.9,2.6,1.3,3.4l-2.5,3.3c-3.6,4.8,0.6,16.2,7.5,20.5c7.4,4.6,12.1-2,8.3-11.4l-2.5-6.2
					c-0.6-1.5,0.1-2.6,1.3-1.9l20.6,11.9V269c0,1.4,1.3,3,2.3,2.8l4.1-0.5C177.4,270.6,185.5,280.6,185.2,289z"/>
				<path class="st10" d="M130.5,257.4c-0.3,7.8-8,8.3-14,0.6l-4.1-5.3c-1-1.3-2.3-1.2-2.3,0.2v23.8l-54.7-31.6v-23.8
					c0-1.4,1.3-1.5,2.3-0.2l4.1,5.3c6,7.7,13.7,7.2,14-0.6c0.3-8.4-7.8-18.4-14-17.6l-4.1,0.5c-1,0.1-2.3-1.5-2.3-2.8v-23.8L76,194
					c1.2,0.7,1.9,2.6,1.3,3.4l-2.5,3.3c-3.6,4.8,0.6,16.2,7.5,20.5c7.4,4.6,12.1-2,8.3-11.4l-2.5-6.2c-0.6-1.5,0.1-2.6,1.3-1.9
					l20.6,11.9v23.8c0,1.4,1.3,3,2.3,2.8l4.1-0.5C122.7,239,130.8,249.1,130.5,257.4z"/>
				<path class="st9" d="M219.4,339.8V316c0-1.4-1.3-3-2.3-2.8l-4.1,0.5c-6,0.7-13.7-8.6-14-16.8c-0.3-8.7,7.8-9.4,14-1.5l4.1,5.3
					c1,1.3,2.3,1.2,2.3-0.2v-23.8l20.6,11.9c1.2,0.7,1.9,2.6,1.3,3.4l-2.5,3.3c-3.6,4.8,0.6,16.2,7.5,20.5c7.4,4.6,12.1-2,8.3-11.4
					l-2.5-6.2c-0.6-1.5,0.1-2.6,1.3-1.9l20.6,11.9v23.8c0,1.4,1.3,3,2.3,2.8l4.1-0.5c6.2-0.7,14.3,9.3,14,17.6
					c-0.3,7.8-8,8.3-14,0.6l-4.1-5.3c-1-1.3-2.3-1.2-2.3,0.2v23.8L219.4,339.8z"/>
			</g>
		</g>
		<g>
			<g>
				<polygon class="st11" points="281.3,199.2 284.9,197.3 265.9,421.9 262.4,423.8 				"/>
			</g>
			<g>
				<g>
					<polygon class="st12" points="298.1,428.1 294.5,430 263.4,411.5 267,409.6 					"/>
					<polygon class="st13" points="294.5,430 294.2,433.8 263.1,415.3 263.4,411.5 					"/>
				</g>
				<g>
					<polygon class="st12" points="300.2,402.6 296.7,404.5 265.6,386 269.1,384.1 					"/>
					<polygon class="st13" points="296.7,404.5 296.4,408.3 265.3,389.8 265.6,386 					"/>
				</g>
				<g>
					<polygon class="st12" points="302.4,377.1 298.8,379 267.7,360.6 271.3,358.7 					"/>
					<polygon class="st13" points="298.8,379 298.5,382.8 267.4,364.4 267.7,360.6 					"/>
				</g>
				<g>
					<polygon class="st12" points="304.5,351.7 301,353.6 269.9,335.1 273.4,333.2 					"/>
					<polygon class="st13" points="301,353.6 300.7,357.4 269.6,338.9 269.9,335.1 					"/>
				</g>
				<g>
					<polygon class="st12" points="306.7,326.2 303.1,328.1 272,309.6 275.6,307.7 					"/>
					<polygon class="st13" points="303.1,328.1 302.8,331.9 271.7,313.4 272,309.6 					"/>
				</g>
				<g>
					<polygon class="st12" points="308.8,300.7 305.3,302.6 274.2,284.2 277.7,282.3 					"/>
					<polygon class="st13" points="305.3,302.6 305,306.4 273.9,288 274.2,284.2 					"/>
				</g>
				<g>
					<polygon class="st12" points="311,275.3 307.4,277.2 276.3,258.7 279.8,256.8 					"/>
					<polygon class="st13" points="307.4,277.2 307.1,281 276,262.5 276.3,258.7 					"/>
				</g>
				<g>
					<polygon class="st12" points="313.1,249.8 309.6,251.7 278.5,233.2 282,231.3 					"/>
					<polygon class="st13" points="309.6,251.7 309.2,255.5 278.1,237 278.5,233.2 					"/>
				</g>
				<g>
					<polygon class="st12" points="315.2,224.3 311.7,226.2 280.6,207.8 284.1,205.9 					"/>
					<polygon class="st13" points="311.7,226.2 311.4,230 280.3,211.6 280.6,207.8 					"/>
				</g>
			</g>
			<g>
				<polygon class="st13" points="278.1,197.3 281.3,199.2 262.4,423.8 259.2,421.9 				"/>
			</g>
			<g>
				<polygon class="st12" points="281.3,199.2 278.1,197.3 281.6,195.4 284.9,197.3 				"/>
			</g>
			<g>
				<polygon class="st13" points="312.4,217.7 315.6,219.6 296.7,444.2 293.5,442.3 				"/>
			</g>
			<g>
				<polygon class="st11" points="315.6,219.6 319.2,217.7 300.2,442.3 296.7,444.2 				"/>
			</g>
			<g>
				<polygon class="st12" points="315.6,219.6 312.4,217.7 316,215.8 319.2,217.7 				"/>
			</g>
		</g>
		<g>
			<polygon class="st11" points="162.1,63.9 165.7,62 135.5,349.2 131.9,351.1 			"/>
			<g>
				<g>
					<polygon class="st12" points="167.8,355.4 164.2,357.3 133.2,338.9 136.8,337 					"/>
					<polygon class="st13" points="164.2,357.3 163.8,361 132.8,342.6 133.2,338.9 					"/>
				</g>
				<g>
					<polygon class="st12" points="170.3,331.1 166.7,333 135.8,314.6 139.3,312.7 					"/>
					<polygon class="st13" points="166.7,333 166.3,336.8 135.4,318.4 135.8,314.6 					"/>
				</g>
				<g>
					<polygon class="st12" points="172.9,306.9 169.3,308.8 138.3,290.4 141.9,288.5 					"/>
					<polygon class="st13" points="169.3,308.8 168.9,312.6 137.9,294.2 138.3,290.4 					"/>
				</g>
				<g>
					<polygon class="st12" points="175.4,282.7 171.8,284.6 140.9,266.2 144.4,264.3 					"/>
					<polygon class="st13" points="171.8,284.6 171.4,288.3 140.5,269.9 140.9,266.2 					"/>
				</g>
				<g>
					<polygon class="st12" points="178,258.5 174.4,260.3 143.4,241.9 147,240.1 					"/>
					<polygon class="st13" points="174.4,260.3 174,264.1 143,245.7 143.4,241.9 					"/>
				</g>
				<g>
					<polygon class="st12" points="180.5,234.2 176.9,236.1 146,217.7 149.5,215.8 					"/>
					<polygon class="st13" points="176.9,236.1 176.5,239.9 145.6,221.5 146,217.7 					"/>
				</g>
				<g>
					<polygon class="st12" points="183.1,210 179.5,211.9 148.5,193.5 152.1,191.6 					"/>
					<polygon class="st13" points="179.5,211.9 179.1,215.7 148.1,197.3 148.5,193.5 					"/>
				</g>
				<g>
					<polygon class="st12" points="185.6,185.8 182,187.7 151.1,169.2 154.6,167.4 					"/>
					<polygon class="st13" points="182,187.7 181.6,191.4 150.7,173 151.1,169.2 					"/>
				</g>
				<g>
					<polygon class="st12" points="188.2,161.5 184.6,163.4 153.6,145 157.2,143.1 					"/>
					<polygon class="st13" points="184.6,163.4 184.2,167.2 153.2,148.8 153.6,145 					"/>
				</g>
				<g>
					<polygon class="st12" points="190.7,137.3 187.1,139.2 156.2,120.8 159.7,118.9 					"/>
					<polygon class="st13" points="187.1,139.2 186.7,143 155.8,124.6 156.2,120.8 					"/>
				</g>
				<g>
					<polygon class="st12" points="193.3,113.1 189.7,115 158.7,96.6 162.3,94.7 					"/>
					<polygon class="st13" points="189.7,115 189.3,118.7 158.3,100.3 158.7,96.6 					"/>
				</g>
				<g>
					<polygon class="st12" points="195.8,88.9 192.2,90.7 161.3,72.3 164.8,70.5 					"/>
					<polygon class="st13" points="192.2,90.7 191.8,94.5 160.9,76.1 161.3,72.3 					"/>
				</g>
			</g>
			<polygon class="st13" points="158.9,62 162.1,63.9 131.9,351.1 128.8,349.2 			"/>
			<polygon class="st12" points="162.1,63.9 158.9,62 162.5,60.1 165.7,62 			"/>
			<polygon class="st13" points="193.1,82.3 196.3,84.2 166.1,371.4 162.9,369.5 			"/>
			<polygon class="st11" points="196.3,84.2 199.9,82.3 169.7,369.5 166.1,371.4 			"/>
			<polygon class="st12" points="196.3,84.2 193.1,82.3 196.7,80.4 199.9,82.3 			"/>
		</g>
		<g>
			<path id="XMLID_1456_" class="st14" d="M218.8,9.6c0.6-0.7,1-1.6,2.3-3.1c0.4-0.5-0.2-1.9-1.7-0.6c-0.3,0.3-0.4,0.6-0.8,0.9
				c-0.3,0.2-0.5,0.5-0.6,0.3C217.9,8.1,218.2,9,218.8,9.6z"/>
			<path id="XMLID_1455_" class="st14" d="M212.8,13c-0.8-0.7,0-1.2-0.8-3.8c-0.4-1.2,0.4-5.5,1.1-6.2c0.2-0.5,0.5-0.7,1-0.7
				c0.3-0.3,1.2-0.5,1.4-0.3c0.3-0.2,1-0.1,1.1,0.2c0.9-0.7,1.7,0.7,1.4,1.9L218,5.2c0,0.3-0.2,1.6,0,1.9c-0.1,1,0.2,1.9,0.8,2.6
				c-0.2,0.2-0.5,0.5-0.8,0.7c-0.6,0.4-1.3,1.7-1.2,2.5C216.8,12.8,215.2,14.6,212.8,13z"/>
		</g>
		<g>
			<path id="XMLID_1458_" class="st14" d="M270.1,28.4c0.1-0.9,0.4-1.8,0.5-3.8c0-0.7,1.5-1.2,1.6,0.7c0,0.4-0.2,0.7,0,1.2
				c0.1,0.3,0.1,0.7,0.2,0.7C271.8,27.9,270.9,28.3,270.1,28.4z"/>
			<path id="XMLID_1457_" class="st14" d="M271.9,35c1.1,0.1,0.8-0.9,3.3-2.1c1.1-0.6,3.6-4.2,3.6-5.2c0.2-0.5,0.2-0.9-0.2-1.2
				c0-0.4-0.5-1.2-0.8-1.2c-0.1-0.4-0.6-0.8-0.9-0.6c-0.1-1.1-1.7-0.7-2.3,0.3l-0.7,0.8c-0.2,0.2-1,1.3-1.4,1.4
				c-0.6,0.8-1.5,1.2-2.4,1.3c0,0.3,0,0.7,0.1,1.1c0.1,0.7-0.3,2.2-0.9,2.6C269.2,32.1,269.1,34.4,271.9,35z"/>
		</g>
		<g id="XMLID_1453_">
			<path id="XMLID_1454_" class="st15" d="M208.3,116.1l0,4.4l-2.4,1.2l-1.7-0.3l-3.2,2c-8.1,2-10.4-0.4-6.3-2.8
				c2-1.2,4.8-2.8,5.8-4.5H208.3z"/>
		</g>
		<g id="XMLID_1451_">
			<path id="XMLID_1452_" class="st15" d="M222.1,123.4l0,4.2l-2.4,1.4l-1.7-0.3l-3.2,2c-8.1,2-10.4-0.4-6.3-2.8
				c1.9-1.1,4.1-2.5,5.2-4.3L222.1,123.4z"/>
		</g>
		<path class="st14" d="M225,39.9c-1.9,1.6-4.8,1.3-6.1-0.9c-6.4-10.6-6.3-10-6.3-10.9l-0.2-15c0-1.2,1-2.2,2.2-2.2
			c1.1,0,2.1,0.8,2.2,1.9l1.7,13.8l6.8,7.7C226.8,35.8,226.6,38.4,225,39.9z"/>
		<path class="st16" d="M225.7,72.3c0,0-19.5,10.2-21.4,15.4c-1.9,5.2-3.7,28.4-3.7,28.4c2,1.4,3.6,1.7,7.8,0l5.4-21.8
			c0,0,26-11.4,25.1-20.3L225.7,72.3z"/>
		<path class="st17" d="M218.7,38.6c0.6-3.3,4-6.8,5.6-5.8c2.7,1.6,6,1,7.8,2.1c1.6,0.9,2,3.1,0.1,9
			C230.1,50.1,223.1,47.1,218.7,38.6z"/>
		<path class="st18" d="M235.9,75.4c0,0-18.3,12.7-19.7,18c-1.5,5.3-2.3,30.1-2.3,30.1c2.4,1.4,4.7,1.5,8.3-0.2l4.1-25.7
			c0,0,24.7-11.4,22.8-21L235.9,75.4z"/>
		<path class="st19" d="M249,76.6c0.1,1.4-15.8,5.9-23.3-4.3c0,0,4-11.2,0.6-21.7c-1.8-5.4-1.3-9.6,1.3-12.9c3.1-4,7.7-5.2,12.2-4
			c3.7,1,8.2,3.6,11.2,6.9C253.8,43.9,247.7,56.7,249,76.6z"/>
		<path id="XMLID_1448_" class="st14" d="M243.8,30.8c-0.3,1.2,0,3.2,0.2,4.4c0.2,1-5.3,4.2-6.3,3.7c-3.3-1.5-2.7-4.3-2.7-4.3
			c0.4-1.1,0.5-2.9,0.4-4.5L243.8,30.8z"/>
		<path id="XMLID_1447_" class="st14" d="M247.5,23.6c0,0,0.3,8.8-8.2,10.2c-2.4,0.4-4.7-0.9-5.7-3.1c-0.8-1.8-1.4-4.6-1.1-8.8
			c0,0,1.4-6.7,8.2-5.3S247.5,23.6,247.5,23.6z"/>
		<path d="M232.2,22.8c0,0,4.4-1,8.9,1.8c0.4,0.2,1,1.8,1.3,1.7c5.2-2.5,2,5.1,2,5.1s1.6,0.1,3.1-5.9c1.5-6.2-2.6-12.9-10.2-10.5
			C230.8,17.1,232.2,22.8,232.2,22.8z"/>
		<path class="st14" d="M272.9,34.5l-9.3,15.2c-0.5,0.8-1.3,1.2-2.1,1.3c-0.9,0.1-7.5,0.4-8.4,0.5c-2.2,0.1-4.1-1.6-4.3-3.8
			c-0.2-2.6,2.2-4.7,4.8-4.2l6.2,1.2l9.5-12.7c0.7-1,2.1-1.2,3.1-0.4C273.2,32.2,273.5,33.5,272.9,34.5z"/>
		<path class="st17" d="M254.8,51.9c2.1-2.6,2.8-8,1.1-8.6c-3-1-4.9-2.8-4.9-2.8s-3.3,1-3.3,6.1c0,3.1,1.3,6.2,2.8,6.4
			C251.8,53.2,252.3,52.5,254.8,51.9z"/>
		<g>
			<path class="st15" d="M65.1,451.1c0,0-3.7,4.1-8.3,4.7c0,0-3.4,1.3,0,2.1c3.4,0.8,7.5,0.4,10.1-1h2v1h4.3v-4.4L65.1,451.1z"/>
			<path class="st15" d="M86.4,461.2c0,0-2.2,10.7,1.9,11.4c4.1,0.7,5.2-4.7,3-11.4H86.4z"/>
			<path class="st16" d="M62.8,394.1c0,0-3.1,23,0,36.9c3.1,13.8,1.2,20,1.2,20s5,5.8,9.3,3.8c0,0,2.3-27.4-1-38.3l-0.7-22.3H62.8z"/>
			<path class="st18" d="M67.5,394.8c-0.1-0.5,1.9,30.4,12.3,43.1c0,0,3.6,19.9,6.5,24.7c0,0,4.8,1.9,6.8,0c0,0-0.4-24.3-3.8-31.3
				c0,0-1.5-14.5-1.3-21.3c0.2-6.8-0.3-14.9-2.4-16.2C83.5,392.5,67.5,394.8,67.5,394.8z"/>
			<path class="st20" d="M68.1,364.5c-0.3,19.8-0.2,18.4-0.7,19.6c-1.2,2.4-5.9,5.2-8.7,6.8c-1.1,0.7-2.6,0.3-3.2-0.8
				c-0.6-0.9-0.4-2.1,0.4-2.9c0.5-0.5,3.8-3.7,4.8-5.3l-1.1-17.2c-0.2-2.4,1.6-4.4,4-4.5c2.4-0.2,4.4,1.6,4.5,4
				C68.1,364.3,68.1,364.4,68.1,364.5z"/>
			<path class="st17" d="M72,353.5c-6.5,1.2-11.3,3.7-13,11.4v3.1c0,0,2,3,4.6,2.4l0.2-2.7l0,0C65.9,367.2,72,353.5,72,353.5z"/>
			<path class="st19" d="M87.4,398.8c0.1,1.5-23.6,7.1-24.5-4.7c0,0,3.4-11.6-0.2-22.8c-1.9-5.8-1.3-9.9,1.6-13.3
				c3.1-3.8,8-5.9,12.8-4.6c3.9,1,9.5,5.8,11.9,10.2C91,367.7,86,377.6,87.4,398.8z"/>
			<g>
				<path id="XMLID_1426_" class="st21" d="M81.3,350.2c-0.3,1.2,0,3.4,0.2,4.7c0.2,1.1-5.6,4.4-6.7,4c-3.5-1.6-2.9-4.5-2.9-4.5
					c0.4-1.2,0.6-3,0.4-4.8L81.3,350.2z"/>
				<path id="XMLID_1425_" class="st20" d="M85.2,342.6c0,0,0.3,9.3-8.7,10.8c-2.5,0.4-5-0.9-6-3.3c-0.8-2-1.5-4.9-1.2-9.3
					c0,0,1.5-7.1,8.8-5.7C85.4,336.6,85.2,342.6,85.2,342.6z"/>
				<path class="st22" d="M69,341.7c0,0,4.7-1.1,9.5,1.9c0.4,0.2,1.1,1.9,1.4,1.8c5.5-2.6,2.1,5.5,2.1,5.5s1.5,0,3.3-6.3
					c1.8-6.3-2.8-13.7-10.9-11.1C67.5,335.6,69,341.7,69,341.7z"/>
			</g>
			<path class="st20" d="M89.3,367.8c-1.4,22.2-1.2,20.9-2,22.3c-1.6,2.6-8.9,6.7-12.2,8.6c-1.1,0.6-2.6,0.3-3.2-0.9
				c-0.6-1.1-0.3-2.4,0.6-3c2-1.6,6.8-5.7,8.4-7.7c0-0.5-0.1-14-0.1-19.6c0-2.4,1.9-4.3,4.2-4.3C87.3,363.3,89.4,365.2,89.3,367.8z"/>
			<path class="st17" d="M79.3,375.7c2.7,2.3,6.9,2.3,10.8,1.7c0,0,3.1-13-3.4-15.2C80.1,359.9,78.6,366.3,79.3,375.7z"/>
		</g>
		<g>
			<path id="XMLID_1464_" class="st20" d="M53.3,387.6c-1,0-1.8,0.4-3.9,0.5c-0.7,0-1.3,1.5,0.7,1.7c0.4,0,0.7-0.2,1.2,0
				c0.3,0.1,0.7,0.1,0.7,0.3C52.8,389.4,53.2,388.5,53.3,387.6z"/>
			<path id="XMLID_1463_" class="st20" d="M60.1,389.7c0.1,1.1-0.9,0.6-2.3,3.1c-0.6,1.1-4.1,3.3-5.1,3.2c-0.5,0.2-1.1,0.1-1.4-0.3
				c-0.4,0-0.8-0.2-1.1-0.5c-0.4-0.1-0.7-0.3-0.9-0.7c-1.2-0.1-1.6-1.6-0.5-2.3l1.1-0.7c0.3-0.2,2-1.2,2-1.6
				c0.8-0.6,1.2-1.5,1.3-2.4c0.3,0,0.7,0,1.1,0.1c0.7,0.1,1.7-0.3,2.2-1C56.6,386.7,59.5,386.8,60.1,389.7z"/>
		</g>
		<g>
			<path id="XMLID_5_" class="st20" d="M74.6,401.3c-0.2,0.9-0.7,1.7-1.1,3.8c-0.1,0.7-1.7,1-1.5-1c0-0.4,0.3-0.7,0.2-1.2
				c0-0.3,0.1-0.7-0.1-0.7C72.8,401.5,73.7,401.3,74.6,401.3z"/>
			<path id="XMLID_2_" class="st20" d="M73.6,394.3c-1.1-0.3-0.8,0.8-3.5,1.7c-1.2,0.4-3.9,3.5-4,4.6c-0.3,0.4-0.9,1.4-0.4,1.7
				c-0.1,0.4,0.2,1.2,0.7,1.2c0,0.6,1,0.7,1.3,0.5c-0.1,1.2,1,1.5,1.9,0.5l0.5-0.5c0.3-0.2,1.5-1.7,1.9-1.8c0.8-0.7,1.7-1,2.6-0.9
				c0.1-0.3,0.1-0.7,0.1-1.1c0-0.7,0.6-1.6,1.3-2C76,398.3,76.4,395.3,73.6,394.3z"/>
		</g>
		<g>
			<g>
				<g>
					<path class="st5" d="M77,390.1l-4.8-0.7c-1.2-0.2-1.6-1-0.7-1.5l15-8.7l0,22.1l-2.2,1.3c0-3.2,0-1.7,0-7.2
						C84.2,393,81.5,390.7,77,390.1z"/>
					
						<linearGradient id="SVGID_00000049911508453972245260000010604631550565707966_" gradientUnits="userSpaceOnUse" x1="46.703" y1="408.7221" x2="84.1868" y2="408.7221">
						<stop offset="0" style="stop-color:#CFCFCE"/>
						<stop offset="0.1651" style="stop-color:#BAB9B9"/>
						<stop offset="0.3344" style="stop-color:#ABAAAA"/>
						<stop offset="0.4541" style="stop-color:#A5A5A5"/>
						<stop offset="0.5953" style="stop-color:#C4C3C3"/>
						<stop offset="0.6757" style="stop-color:#D1D1D1"/>
						<stop offset="0.807" style="stop-color:#CFCFCE"/>
						<stop offset="0.8779" style="stop-color:#C8C8C7"/>
						<stop offset="0.9344" style="stop-color:#BCBCBB"/>
						<stop offset="0.983" style="stop-color:#ACACAC"/>
						<stop offset="1" style="stop-color:#A5A5A5"/>
					</linearGradient>
					<path style="fill:url(#SVGID_00000049911508453972245260000010604631550565707966_);" d="M46.7,424.2l0-22.1l5.8-3.3l0,0
						l9.2-5.3c0.9-0.5,2.3-0.3,2.6,0.4c1.3,3,1.3,3.2,1.8,3.8c3,3.7,12,4.2,16,1.1c1.4-1,2.1-2.2,2.1-3.4c0,6.2,0,2,0,22.1
						c0,1.3-0.8,2.6-2.5,3.7c-5.2,3.2-14.4,1.8-16.2-2.4l-1.2-2.8c-0.3-0.7-1.8-0.9-2.6-0.4L46.7,424.2z"/>
				</g>
				<path class="st6" d="M51.4,376.2c-4.8-3-2.3-8,4.7-9l4.8-0.7c0.8-0.1,1.2-0.5,1.2-0.9l0,11.9C58.7,378.3,54.4,378,51.4,376.2z"/>
				<path class="st10" d="M52,376.5c5.2,2.8,13.9,1.3,15.6-2.7l1.2-2.8c0.3-0.7,1.8-0.9,2.6-0.4l15,8.7l-15,8.7
					c-0.9,0.5-0.5,1.3,0.7,1.5l4.8,0.7c7,1,9.5,6,4.7,9c-5.2,3.2-14.4,1.8-16.2-2.4l-1.2-2.8c-0.3-0.7-1.8-0.9-2.6-0.4l-15,8.7
					l-15-8.7c-0.9-0.5-0.5-1.4,0.7-1.5l4.8-0.7c7-1,9.5-6,4.7-9c-5.2-3.2-14.4-1.8-16.2,2.4l-1.2,2.8c-0.3,0.7-1.8,0.9-2.6,0.4
					l-15-8.7l15-8.7c0.9-0.5,0.5-1.4-0.7-1.5l-4.8-0.7c-7.3-1-9.7-6.4-4.1-9.3c5.2-2.8,13.9-1.3,15.6,2.7l1.2,2.8
					c0.3,0.7,1.8,0.9,2.6,0.4l15-8.7l15,8.7c0.9,0.5,0.5,1.3-0.7,1.5l-4.8,0.7C48.9,368.2,46.4,373.5,52,376.5z"/>
			</g>
			<g>
				<path class="st0" d="M46.7,424.2l0-22.1l-2.2-1.3l0,0c-13.7-7.9-13.2-7.5-13.2-8c0,12.5,0,7.5,0,22.1
					C31.3,415.5,30.7,415,46.7,424.2z"/>
				<path class="st6" d="M25.8,406.7c0.8-1.8,2.9-3.1,5.5-3.7l0-10.2c0-0.4,0.4-0.8,1.2-0.9l4.8-0.7c7.8-1.1,9.6-6.9,3.7-9.6
					c-5.3-2.5-13.5-1-15.1,3l-1.2,2.8l0,22.1L25.8,406.7z"/>
				<path class="st0" d="M24.6,409.5l0-22.1c-0.3,0.7-1.8,0.9-2.6,0.4l-15-8.6l0,22.1l15,8.6C22.8,410.4,24.3,410.2,24.6,409.5z"/>
			</g>
			<path class="st5" d="M9.2,377.9l12.8-7.4c0.9-0.5,0.5-1.4-0.7-1.5l-4.8-0.7c-4.5-0.6-7.2-3-7.2-5.3L9.2,377.9z"/>
		</g>
		<g>
			<path class="st15" d="M24.3,490.1c-0.5,2.4-13.4,7.5-17.1,5.3l0,0c-0.4-0.3-0.6-0.9-0.5-1.3c0-2.1,0.3-3.4,0.5-4.1
				c0.1-0.4,0.3-0.7,0.7-0.9c0.7-0.5,2.9-2.2,3.7-2.8c0.4-0.3-0.5,2.3,6.9,1.7C23.5,486.8,24.7,487.8,24.3,490.1z"/>
		</g>
		<g>
			<path class="st15" d="M35.3,494c-0.5,2.4-13.4,7.5-17.1,5.3l0,0c-0.4-0.3-0.6-0.9-0.5-1.3c0-2.1,0.3-3.4,0.5-4.1
				c0.1-0.4,0.3-0.7,0.7-0.9c0.7-0.5,2.9-2.2,3.7-2.8c0.4-0.3-0.5,2.3,6.9,1.7C34.5,490.7,35.7,491.7,35.3,494z"/>
		</g>
		<path class="st20" d="M0.9,407.9c0,0-2.6,4,2.3,5.6c4.9,1.5,5.3,1.5,5.3,1.5l-1.9-5.3L0.9,407.9z"/>
		<path class="st24" d="M5.2,394.1c0,0-3.3,5.9-5.2,13.9c0,0,2.4,3.1,5.2,3.3V394.1z"/>
		<path class="st16" d="M6.9,423.9c0,0-1.8,6.1-1.2,16.7c0.6,10.6,1.5,42.8,1.2,49.6c0,0,3.9,3.8,9.4-1.1c0,0,3.2-22.5,1.4-33.1
			c-1.8-10.6,0.5-30.5,0.5-30.5L6.9,423.9z"/>
		<path class="st18" d="M13.1,427.4c0,0,0,10.6,1.2,20.6c1.7,13.8,3.4,45.8,3.4,45.8s5.1,3.6,10.5-2c0,0-0.1-29.6,1-36.6
			c1.2-7,1.4-19-1-24.6L13.1,427.4z"/>
		<path class="st25" d="M12,386.8c0,0-11.2,5.3-8.2,19.5c2.9,14.3,1.4,28.5,1.4,28.5s11.6,9,24.8,2.5c0,0-1.2-21.9,0-31
			c1.2-9.1-7.4-14.1-7.4-14.1s-1.8-1.9-2.3-4C20.3,388.2,11.7,388.9,12,386.8z"/>
		<path class="st20" d="M39.6,420.2c-2.6,2.3-10.9,3.4-14.7,1.8c-3.9-1.7-3.8-11.4-3.8-11.4l7.8,0.7c0,0,0.1,3.3,1.9,4.7
			c0.6,0.5,1.6,0.7,2.8,0.7L39.6,420.2z"/>
		<path class="st24" d="M19.9,416.3c0,0-5.1-17.2,2.3-18c7.3-0.8,7,5.1,7,5.1s0.6,6.5,1.9,10.3C31.1,413.7,22.8,413,19.9,416.3z"/>
		<g>
			<path class="st26" d="M45.4,280.6c0,0-1.3,2.5-2.1,3.6c0,0,0.2-4.8,0.6-5.7L45.4,280.6z"/>
			<path class="st27" d="M30.2,320.7c0,0,0.3,1,0.3,2.2c0,1.2,0.1,2.4,0.1,2.4c0,0.3,0.7,0.3,0.7,0c0,0-0.3-2.6,0.4-2.9
				c0.7-0.3,1.8-0.9,2.7-0.5c0.9,0.4,3,0.4,3.4-0.5c0.3-0.9,0.8-4.6,0.9-5c0.1-0.4-1.5,0.7-2.3,0.9
				C35.6,317.5,30.2,320.7,30.2,320.7z"/>
			<path class="st27" d="M25.3,318.8c0,0,0.3,1,0.4,2.2c0.1,1.2,0.2,2.4,0.2,2.4c0,0.3,0.7,0.3,0.7-0.1c0,0-0.5-2.6,0.2-2.9
				c0.7-0.4,1.7-1,2.7-0.7c0.9,0.3,3.1,0.2,3.4-0.7c0.3-0.9,0.4-4.6,0.6-5c0.1-0.4-1.5,0.8-2.2,1C30.4,315.2,25.3,318.8,25.3,318.8z
				"/>
			<path class="st28" d="M21.2,269.9c0,0-1.7,4.9-1.1,8.3c0.6,3.4,2.3,8.9,2.4,11.1c0.1,2.3-1.1,11.1-0.6,14
				c0.5,3,1.4,13.6,2.2,15.2c0,0,2,1.4,4.7,0.2s1.9-3.6,1.9-3.6s-2.3-7.5-2.2-9.2c0.2-1.7,2.7-14.9,2.6-19.5
				c-0.1-4.7,0.5-12.6,0.5-12.6l-4-9.2L21.2,269.9z"/>
			<path class="st29" d="M25.3,271.8c0,0-0.9,7.8,3.2,11.8c4.1,4,5.8,12.3,5.6,14.5c-0.2,2.2-1.1,8.8-1.5,11.3
				c-0.4,2.5-2.9,11.6-2.9,11.6s2.4,1.7,4.5,0.2s2.4-3.7,2.4-3.7s1.4-6.2,2.2-7.4c0.9-1.3,3-12.5,3.1-14.6
				c0.1-2.1,2.5-15.8,1.9-19.8l-16.7-12.9L25.3,271.8z"/>
			<path class="st26" d="M36.9,237.4c0,0-0.2-2.7-0.1-3.2c0.1-0.5,2-0.5,2.8-1.7c0.7-1.1,0.9-2.4,1.3-2.9c0.4-0.5,0.7-3,0.4-3.6
				c-0.3-0.6,0.5-2.9,0-3.7c-0.5-0.8-1.1-5.1-4.7-4.9c-3.6,0.2-8.3,0.2-9.2,3.8c-0.9,3.7,1.2,7.3,1.5,9.4c0.3,2.1,0.1,3.3,0.1,3.3
				L36.9,237.4z"/>
			<path class="st30" d="M33.5,233.6c0,0-3.5,0.5-4.4-1.1c-1-1.6-0.5-3.1-2.2-4.7c-1.7-1.6-2-7.4-0.6-8.6c1.4-1.2,4.8-4.2,9.8-3.1
				c5,1.1,5.3,5.4,5,6.8c-0.3,1.4-0.7,4.6-1.1,5c-0.4,0.4-0.6-1.5-1.3-0.6c-0.6,0.9-1.3,2.6-2.8,3.1
				C34.4,230.7,33.5,233.6,33.5,233.6z"/>
			<path class="st26" d="M20.4,263.9c0,0,0.9,0.6,1.9,0.8c1,0.2,1.5-1.8,1.5-1.8l-2.3-1.1L20.4,263.9z"/>
			<path class="st29" d="M17.7,237.8c0,0-2.6,4.7-4.6,6C11,245,6.5,250,7,252c0.5,1.9,4.6,4.6,6.5,6.9c1.9,2.3,6.5,5.6,6.5,5.6
				s3-1.2,3.4-2.5c0,0-8.1-8.3-8.6-9.5c-0.5-1.2,5.3-4,5.3-4L17.7,237.8z"/>
			<path class="st31" d="M19.1,235.9l7.8-0.6l9.5,2.3l10.3,6.8c0,0-4.9,10.5-5.2,16.5c-0.3,6,1.1,15.9,1.1,15.9s-14.6,1.7-16-0.4
				l0.2-7.6l-1.6,6.9c0,0-4.8-2.1-5.6-7.5c0,0,3.6-4.5,3.2-8.5C22.4,255.8,13.4,240,19.1,235.9z"/>
			<path class="st29" d="M40.4,257.9c-0.1-1.3,0-2.6,0.3-3.9c0.7-2.6,2.1-7,3.8-8.7c2.6-2.5,2.2-0.8,2.5,2.1
				c0.2,2.9,1.1,18.2,0.7,21.1c-0.4,2.9-1.3,11.7-2.5,13.4c0,0-1.8-1.6-2.6-5.1C42,274,40.8,262.4,40.4,257.9z"/>
			<path class="st29" d="M29,234.1l5.3,1c0,0,3.4,1.5,4.6,4.1c0,0-1.8,0.4-4.3-0.1c-2.5-0.4-8.6-2.6-9.4-3.6L29,234.1z"/>
			<path class="st30" d="M25.1,226.5c0,0-3.8,4.3-2.4,11.2c1.4,6.9,1,15,1.1,17.1c0.2,2.1,0.6,3.8,0.8,4.7c0.3,0.9,0.4-4,1.9-6.9
				c1.5-2.9,0.9-8.2,1.2-10.2c0.3-2-0.2-13,0.7-13.9L25.1,226.5z"/>
			<path class="st32" d="M24.8,227c-0.6-0.1-0.3-1.9,1.1-1.6c1.4,0.4,2.4,1.6,2.8,2.3c0.4,0.7,0.4,2.3-0.6,1.7
				C27.1,228.9,27.2,227.3,24.8,227z"/>
		</g>
		<g>
			<path class="st33" d="M185.8,334.4c0,0-2.6,1.7-3.3,4.2c-0.7,2.5-2.1,13.5-1.7,17.4c0.4,3.9,1.7,4.8,3.8,4.8
				c2.1,0,3.3,1.4,3.3,1.4l2.5-7.3l-4.1-9.8L185.8,334.4z"/>
			<path class="st33" d="M204.4,416c0,0,0.9-0.3,1.5-0.1c0.6,0.2,0.8,1.6,0.7,2.9c-0.1,1.4-0.9,2.9-1.3,3.2l-0.3-1.4l-0.9-2.8
				L204.4,416z"/>
			<path class="st26" d="M190.5,386.3c0,0,0.5,3.6,0.5,4.2c-0.1,0.6-1.3,5.3-1.1,7.5c0.2,2.2,0.6,7.5,0.5,8.5
				c-0.1,1-0.6,3.5-0.6,3.5l3.3-0.1c0,0,0.8-4.6,1.5-6.4c0.8-1.8,2.2-4,2.3-7.3c0.1-3.3,1.5-6.8,2-7.4l-1.5-2.6L190.5,386.3z"/>
			<path class="st26" d="M199.4,396.1c-0.2,0.1-0.3,0.3-0.2,0.5c0.2,0.7,0.6,2.5,0.7,3.4c0.1,1.1-1.1,5.8-0.9,7.6
				c0.2,1.8,1.6,7.1,1.6,9.7c0,0.2,0.1,0.3,0.2,0.4l3.8,2.5c0.3,0.2,0.7,0,0.7-0.3c0.1-0.5,0.1-1.2,0.1-1.3c-0.2-0.2-0.4,0.2-0.5-1
				c-0.1-1.2-0.1-3.4,1-5.5c1.1-1.9,0.7-8.7,0.6-9.5c0-0.1,0-0.1,0-0.2c0.2-0.6,1.6-5,2.1-7.3c0.1-0.3-0.2-0.6-0.5-0.6l-6,0.1
				c-0.1,0-0.2,0-0.2,0.1L199.4,396.1z"/>
			<path class="st33" d="M190.3,407.9c0,0-0.7,1.9-0.1,1.7c1-0.4,2.9-1.9,3.9-0.9c0.9,0.9,0.7,2.9,0.4,3.3c-0.4,0.4-0.9,0.6-1,1.2
				c-0.1,0.5,0,2.7,0,2.7c0,0.3-0.9,0.3-1,0l-0.1-2.9c0,0-0.6,0-1.5,0.1c-1,0.2-2.8-0.9-2.5-2.3
				C188.8,409.4,189.1,408.6,190.3,407.9z"/>
			<path class="st33" d="M201.3,417.2c0,0-1-0.6-1.3-0.3c-0.4,0.3-2.3,2.3-0.3,4.1l0.3,3.1c0,0.4,0.9,0.3,0.9,0c0,0-0.2-2.1,0.1-2.6
				c0.3-0.4,1.3-0.8,1.9-0.2c0.6,0.7,2.1,1,2.6,0.6l0.1-1.1l-0.5-0.7c0,0-0.4,0.2-1.5-1.5C202.9,418,201.3,417.2,201.3,417.2z"/>
			<path class="st33" d="M186.4,376.3c0,0,0.8,4.4,1.4,5.4c0.6,1,2.3,5,2.7,5.8c0.4,0.8,3.5,3.1,3.8,4c0.3,0.8,0.5,3.1,0.5,3.1
				s2.9-5.4,3.3-5.9l0.9,7.7c0,0,4.9,1.8,8.3,0.1c3.4-1.7,2.1-8,4.7-10.7L186.4,376.3z"/>
			<path class="st26" d="M206,337.8c0,0-0.8-3.4-0.1-4.9c0,0,2.9-0.6,3.4-2.8c0.6-2.2,1.2-3.9,0.8-5.1c-0.4-1.2,0.7-4.2-0.2-6.1
				c-0.9-1.9-3.4-5-7.4-4.5c-4,0.6-6.2,2-7,3.8c-0.8,1.7-2.7,5.5-0.1,10.4c2.6,4.9-1.1,6.3-1.1,6.3S202.9,339.6,206,337.8z"/>
			<path class="st34" d="M200.2,334.5c0,0-3.7,0.2-4.1-1.5c-0.4-1.7-0.4-2.1-1.1-2.8c-0.7-0.7-0.7-4-1.2-4.9s-1-3.7-0.2-5.6
				c0.7-1.9,2.5-6.3,8.2-6.4c5.7-0.2,9,3.1,8.2,7.4c-0.9,4.4-0.7,4.2-0.7,4.5c0,0.3-1,0.3-1.4-0.2c-0.5-0.5-2.3-0.3-3.3,1.7
				C203.6,328.8,201.6,334.2,200.2,334.5z"/>
			<path class="st34" d="M195.5,318.8c0,0,0.9-0.1,1.9,1.1c1,1.2,2.1,2.5,1.9,3.5c-0.1,1-0.9,2.4-2.1,2.6c-1.1,0.2-3.7,0.3-4.4-1.1
				S191,319.1,195.5,318.8z"/>
			<path class="st35" d="M194.4,334.3c0,0-3,0.7-5.4,0.1c-2.5-0.5-3.5-0.3-4.6,1.9c0,0-3.8,5.7-1.2,12.2c2.5,6.5,4.5,8.7,4.1,12.8
				c-0.3,4-2.8,12.8-1.2,15.9c1.6,3.1,6.1,5.6,7.7,5.8c1.6,0.2,10.1,0.7,11.6,2.2c1.6,1.4,9.5,2.3,10-0.2c0,0-4.9-19.3-4.7-21.2
				c0.2-2,1.7-6.7,1.7-6.7l2.2-13.8c0,0-0.3-0.9-3-2.4c-2.8-1.5-11.6-2.5-11.6-2.5L194.4,334.3z"/>
			<path class="st33" d="M214.2,342.9c0,0-2.6-0.2-3.9,2.7c-1.3,2.8-4,7.2-0.1,12.2c3.9,4.9,4.5,7.8,4.5,7.8s-3.6-1.1-3.9-1.6
				l0.1,1.1c0.1,2.2,1.2,5.1,1.6,7.9c0,0,4.1,0.1,7-1.1c2.8-1.2,3.1-1.5,3.6-2.4c0.5-1,1.2-3.4,0.8-4.7c-0.4-1.3-2.4-3.8-2.7-5.1
				c-0.3-1.4-4.2-10-5-12.9C215.3,343.7,214.9,342.9,214.2,342.9z"/>
			<path class="st33" d="M191.9,334.6c0,0,2.3-0.2,3.2-0.9c0.3-0.2,0.7-0.2,1,0.1c1.1,1.1,3.9,3.5,7.3,3.2c4.4-0.4,3.2,0.2,4.6,1.4
				c1.4,1.2,3.6,2.5,3.6,2.5s-2.7-0.9-5.3-0.7C203.6,340.2,196.5,338.9,191.9,334.6z"/>
		</g>
		<g>
			<path id="XMLID_6104_" class="st36" d="M312.5,170.1c-0.8,2.1-6.7,8.5-12.4,13.3c0-2.6-1.8-3-3.4-2.5c3.2-5.7,6.1-10.1,7.9-13.9
				c0,0-4.1-17.1,1.7-20.4c2.4-1.4,3.9,3.6,4.2,7.3C310.7,155.5,313.9,166.6,312.5,170.1z"/>
			<path class="st16" d="M288,197.8c-4.4,4.3,13.8,16.6,19.7,13.8l1.1-8.6l-13.8-9.9L288,197.8z"/>
			<path id="XMLID_6103_" class="st37" d="M304.3,239.3c-0.6,1-2.3,1.2-2.3,1.2c-3.8,2.9-7.8,3.8-8.8,3.9c-0.2,0-0.4,0-0.7,0
				c-1.6-0.2-2.1-0.8-1.9-1.6c0.1,0.6,0.7,1,1.9,1.1c0.2,0,0.4,0,0.7,0c1-0.1,5-1,8.8-3.9c0,0,1.7-0.3,2.3-1.2
				C304.3,239.2,304.3,239.3,304.3,239.3z"/>
			<path id="XMLID_6102_" class="st38" d="M304.3,238.8c-0.6,1-2.3,1.2-2.3,1.2c-3.8,2.9-7.8,3.8-8.8,3.9c-0.2,0-0.4,0-0.7,0
				c-1.3-0.1-1.8-0.5-1.9-1.1c-0.4-2,7.2-7,7.2-7l5.3-0.9C304.7,236.9,304.3,238.8,304.3,238.8z"/>
			<path class="st20" d="M323.6,197.1l-20.3,16l-0.3,22.7c0,1.5-1.2,2.6-2.7,2.6c-1.4,0-2.5-1.1-2.6-2.4l-2.4-24.7
				c-0.1-1.2,0.4-2.3,1.2-3c0.4-0.4,20.4-18.2,20.9-18.6c2-1.8,5-1.6,6.8,0.4C326,192,326,195.1,323.6,197.1z"/>
			<path id="XMLID_6098_" class="st20" d="M293.7,241c1.1,0.7,5.3-0.5,7.2-1.7c2-1.2,3-3.7,1.8-4.4c-1.1-0.7-3.8-0.6-5.3,1.7
				C296.1,238.6,292.6,240.3,293.7,241z"/>
			<g id="XMLID_6091_">
				<path id="XMLID_6097_" class="st37" d="M292.9,233.8c-0.6,1-2.3,1.2-2.3,1.2c-3.8,2.9-7.8,3.8-8.8,3.9c-0.2,0-0.4,0-0.7,0
					c-1.6-0.2-2.1-0.8-1.9-1.6c0.1,0.6,0.7,1,1.9,1.1c0.2,0,0.4,0,0.7,0c1-0.1,5-1,8.8-3.9c0,0,1.7-0.3,2.3-1.2
					C292.9,233.7,292.9,233.8,292.9,233.8z"/>
				<path id="XMLID_6096_" class="st38" d="M292.9,233.4c-0.6,1-2.3,1.2-2.3,1.2c-3.8,2.9-7.8,3.8-8.8,3.9c-0.2,0-0.4,0-0.7,0
					c-1.3-0.1-1.8-0.5-1.9-1.1c-0.4-2,7.2-7,7.2-7l5.3-0.9C293.2,231.1,292.9,233.4,292.9,233.4z"/>
				<path class="st20" d="M312,191.9L292,205.5l-0.3,24.8c0,1.5-1.2,2.6-2.7,2.6c-1.4,0-2.5-1.1-2.6-2.4l-2.6-27
					c-0.1-1.3,0.5-2.5,1.4-3.3c0.4-0.3,20.6-15.8,21-16.1c2.1-1.6,5.1-1.2,6.8,0.9C314.7,187.1,314.3,190.2,312,191.9z"/>
				<path id="XMLID_6092_" class="st20" d="M282.3,235.6c1.1,0.7,5.3-0.5,7.2-1.7c2-1.2,3-3.6,1.9-4.3c-1.1-0.7-3.8-0.8-5.4,1.6
					C284.7,233.2,281.2,234.9,282.3,235.6z"/>
			</g>
			<path class="st18" d="M306.5,179.9L288,197.8c3-0.8,20.8,9,19.7,13.8c9-4.3,20.7-15.5,18.9-24.5L306.5,179.9z"/>
			<path id="XMLID_6090_" class="st39" d="M318.8,145c0,0-0.6,1.3,2.3,2.8c2.9,1.5,5.5,2.1,6.3,7.3c0.6,4.1-3.6,15.6-0.6,31.4
				c1.5,7.6-21.5-2.5-20.2-6.5c2.6-8.3-1.9-13.5-3-21.7c-0.5-4.1,0.2-10.8,4.3-14c0,0,3-0.2,5,0.7L318.8,145z"/>
			<path id="XMLID_6089_" class="st40" d="M318.8,142.2c-0.3,1.5-0.3,2.9,0,4.4c0,0-5.6,5.7-5.7,5.7c-4.2-0.6-3.9-5.7-3.9-5.7
				c0.4-1.4,0.5-3,0.3-5.1L318.8,142.2z"/>
			<path id="XMLID_6088_" class="st36" d="M319.6,146.8l-1-1.5c0,0-1.7,2.8-4.7,4.2c-1.9,0.8-4-0.3-4.5-2.4c-0.2-0.6,0-1.4,0.1-2.2
				c0,0-0.8,1.1-1.4,3c-2.4,7,5.7,8.4,9.3,3.6C318.4,150.1,319,148.7,319.6,146.8z"/>
			<path id="XMLID_6087_" class="st20" d="M321.4,135.5c0,0,0.4,9-7.4,10.5c-2.2,0.4-4.4-0.8-5.3-3.1c-0.8-1.9-1.4-4.7-1.2-8.9
				c0,0,1.2-6.9,7.5-5.6C321.5,129.7,321.4,135.5,321.4,135.5z"/>
			<path id="XMLID_6085_" class="st41" d="M307.6,134c0,0,5.1,3.2,7.8,2.1c0,0,2.3,5,0.7,9.8c0,0,5.5,0.8,7-3.7
				c1.5-4.5-0.1-17.9-8.6-16.6C305.9,126.8,307.6,134,307.6,134z"/>
			<path id="XMLID_6082_" class="st36" d="M329.4,175.3c-1,2.1-10.4,11.4-16.3,15.8c-0.3-2.8-2-3-4-2.6c4.3-7.3,10.6-13.1,12.6-16.8
				c0,0-4.3-16.8,2.1-18.5c2.6-0.7,4.4,2.1,4.5,5.8C328.5,160.6,331,171.9,329.4,175.3z"/>
			<g>
				<path id="XMLID_5878_" class="st20" d="M300.4,186c0.1,0.9-0.1,1.7,0,3.6c0.1,0.6-1.2,1.3-1.6-0.4c-0.1-0.3,0.1-0.6-0.1-1.1
					c-0.1-0.3-0.1-0.7-0.3-0.6C298.9,186.7,299.6,186.2,300.4,186z"/>
				<path id="XMLID_5877_" class="st20" d="M297.9,180.2c-1,0-0.6,0.9-2.7,2.4c-0.9,0.7-2.8,4.3-2.7,5.2c-0.1,0.5-0.1,0.8,0.3,1.1
					c0,0.4,0.7,0.8,1,0.8c0.1,0.3,0.7,0.7,0.9,0.4c0.2,1,1.6,0.4,2.1-0.6l0.5-0.6c0.2-0.3,0.8-1.3,1.1-1.4c0.5-0.8,1.2-1.3,2-1.5
					c0-0.3-0.1-0.6-0.2-1c-0.2-0.6,0-2,0.5-2.5C300.7,182.5,300.5,180.4,297.9,180.2z"/>
			</g>
			<g id="XMLID_5867_">
				<path id="XMLID_5876_" class="st20" d="M306.8,189.9l3.3-2.2c2-0.5,3.1,0.4,3.7,2.3c-1.4,3.3-1.8,3.7-3.6,5.5
					c0,0-0.7-1.1-1.5-0.8c0,0-0.8-1.2-1.7-0.9c0,0-0.5-1.1-1.3-0.8l0-2.2L306.8,189.9z"/>
				<g id="XMLID_5874_">
					<path id="XMLID_5875_" class="st20" d="M309.4,197.8c0.1,0,0.1,0,0.2,0c0.3,0,0.6-0.3,0.6-0.7l-0.1-0.7l0.6-1.5
						c0.1-0.3,0-0.7-0.3-0.8c-0.3-0.1-0.7,0-0.8,0.3l-0.7,1.6c0,0.1-0.1,0.2,0,0.3l0.1,0.9C308.9,197.5,309.1,197.7,309.4,197.8z"/>
				</g>
				<g id="XMLID_5872_">
					<path id="XMLID_5873_" class="st20" d="M307.9,197.5c0.1,0,0.3,0,0.4,0c0.4-0.1,0.7-0.5,0.6-1l-0.2-0.9l1.2-2
						c0.2-0.4,0.1-0.9-0.3-1.1c-0.4-0.2-0.9-0.1-1.1,0.3l-1.3,2.2c-0.1,0.2-0.1,0.4-0.1,0.6l0.3,1.2
						C307.4,197.2,307.6,197.4,307.9,197.5z"/>
				</g>
				<g id="XMLID_5870_">
					<path id="XMLID_5871_" class="st20" d="M306.3,196.5c0.1,0,0.2,0,0.3,0c0.4,0,0.8-0.4,0.7-0.9l-0.1-1.1l1.1-2.1
						c0.2-0.4,0.1-0.9-0.3-1.1c-0.4-0.2-0.9-0.1-1.1,0.3l-1.2,2.3c-0.1,0.1-0.1,0.3-0.1,0.4l0.1,1.3
						C305.8,196.2,306,196.5,306.3,196.5z"/>
				</g>
				<g id="XMLID_5868_">
					<path id="XMLID_5869_" class="st20" d="M305.2,195.6c0.1,0,0.2,0,0.4,0c0.4-0.1,0.7-0.5,0.6-0.9l-0.2-1.1l1-1.9
						c0.2-0.4,0-0.9-0.3-1.1c-0.4-0.2-0.9,0-1.1,0.3l-1.1,2.1c-0.1,0.2-0.1,0.3-0.1,0.5l0.3,1.4
						C304.7,195.3,304.9,195.6,305.2,195.6z"/>
				</g>
			</g>
		</g>
		<g id="XMLID_00000165923643914388858130000006910956874052735381_">
			<path id="XMLID_00000003096567073714377650000016135322280162007680_" class="st42" d="M17.1,361.6c-5.2-0.3-10,2.3-10.4,10.2
				c-0.3,5.2,1.4,9.8,4,12.5c0.5,0.5,0.8,1.3,0.8,2.1l0,1.2c0,2.5,7.3,3.5,8.4,0.1c-0.2-2-0.1-3.9,1-5.5c3.1-2.2,3.1-3.7,4-9.2
				C26.2,365,22.3,361.9,17.1,361.6z"/>
			<path id="XMLID_00000023283132832351172620000015536082062764343973_" class="st43" d="M25.3,371.2c-2.5,1.6-4.1,13.6-4.1,13.6
				c-9.7,5.4-15.7-3.2-15.7-3.2c-0.6-1.5-1.8-15,5.1-19.5c7.9-5.3,13.4,0.9,14.6,4.5C25.2,366.6,26.2,370.6,25.3,371.2z"/>
		</g>
	</g>
</switch>

</svg>
