<?xml version="1.0" encoding="utf-8"?>
<!-- Generator: Adobe Illustrator 27.1.1, SVG Export Plug-In . SVG Version: 6.00 Build 0)  -->










<svg version="1.1" id="Layer_1" xmlns="http://www.w3.org/2000/svg" xmlns:xlink="http://www.w3.org/1999/xlink" x="0px" y="0px" viewBox="0 0 499.3 511.2" style="enable-background:new 0 0 499.3 511.2;" xml:space="preserve">
<style type="text/css">
	.st0{fill:#A3ADAE;}
	.st1{fill:#D3DDDF;}
	.st2{fill:#2A3C47;}
	.st3{fill:#A1A8A3;}
	.st4{fill:#C3CCC4;}
	.st5{fill:#1D2A34;}
	.st6{fill:#29343A;}
	.st7{fill:#7B8292;}
	.st8{fill:#949DAE;}
	.st9{fill:#A7495E;}
	.st10{fill:#CA5971;}
	.st11{fill:#3F72B8;}
	.st12{fill:#4E7DBF;}
	.st13{fill:#F5F6F6;}
	.st14{fill:#272626;}
	.st15{fill:#373737;}
	.st16{fill:#BBB8B1;}
	.st17{fill:#E6E3D9;}
	.st18{fill:#CFD0D0;}
	.st19{fill:#6EA8DB;}
	.st20{fill:#D14C43;}
	.st21{fill:#B5B6B6;}
	.st22{fill:#F6F2E9;}
	.st23{fill:#9C9C9D;}
	.st24{fill:url(#SVGID_1_);}
	.st25{fill:url(#SVGID_00000004539506621992462880000008161643832527125146_);}
	.st26{fill:#F7CC4A;}
	.st27{fill:#FCDD5B;}
	.st28{fill:#B38E62;}
	.st29{fill:#E49835;}
	.st30{fill:#E9E8E8;}
	.st31{fill:#374D5D;}
	.st32{fill:#C9C9C9;}
	.st33{enable-background:new    ;}
	.st34{fill:#CCCCCC;}
	.st35{fill:url(#SVGID_00000035505845850827009500000002385828854632555156_);}
	.st36{fill:url(#SVGID_00000010275576069013427710000008412644990033521291_);}
	.st37{fill:url(#SVGID_00000068669481705353849520000017480205061548304024_);}
	.st38{fill:url(#SVGID_00000091002257175905485700000001259974792288656283_);}
	.st39{fill:url(#SVGID_00000117665015666340844770000017553413363092578196_);}
	.st40{fill:#E1E2E1;}
	.st41{fill:url(#SVGID_00000042005912698927896790000011239599525934258107_);}
	.st42{fill:#D7D6D6;}
	.st43{fill:#D2D3D4;}
	.st44{fill:#A8AAAD;}
	.st45{fill:#BDBEC0;}
	.st46{fill:#80B9E4;}
	.st47{fill:#669ED0;}
	.st48{fill:#373636;}
	.st49{fill:#4F4F4F;}
	.st50{fill:url(#SVGID_00000073695274095584232320000013296800821647219349_);}
	.st51{fill:#333333;}
	.st52{fill:#4E4E4E;}
	.st53{fill:#606060;}
	.st54{opacity:0.1;fill:#FFFFFF;}
	.st55{fill:#4E4E50;}
	.st56{fill:#49494B;}
	.st57{fill:#626264;}
	.st58{fill:#8DC641;}
	.st59{fill:#5A5A5C;}
	.st60{fill:#FFFFFF;}
	.st61{fill:#858585;}
	.st62{fill:url(#SVGID_00000036214987099406613760000006373960280389574531_);}
	.st63{fill:url(#SVGID_00000099660742173744015600000010408869903086483124_);}
	.st64{opacity:0.2;fill:#B5B6B6;}
	.st65{fill:url(#SVGID_00000009557521049398116690000006285547234019305880_);}
	.st66{fill:#247EBC;}
	.st67{fill:#3D93CD;}
	.st68{fill:#59A8DD;}
	.st69{fill:#77BCE8;}
	.st70{fill:#96CFF1;}
</style>
<switch>
	
	<g>
		<g>
			<g>
				<path class="st0" d="M381.2,465.4v4.2c0,0.3-0.2,0.5-0.6,0.7l-24.5,14.2l-45.7,26.4c-0.7,0.4-1.7,0.4-2.3,0.1L266,486.5
					c-0.3-0.2-0.4-0.4-0.4-0.6v-4.2c0,0.2,0.1,0.4,0.4,0.6l2.6,1.5l39.7,22.9c0.6,0.3,1.6,0.3,2.3-0.1l45.7-26.4l22.1-12.7l2.4-1.4
					C381.1,465.9,381.2,465.6,381.2,465.4z"/>
			</g>
			<g>
				<path class="st1" d="M381.2,465.4c0,0.3-0.2,0.5-0.6,0.7l-2.4,1.4l-67.7,39.1c-0.7,0.4-1.7,0.4-2.3,0.1l-39.7-22.9l-2.6-1.5
					c-0.3-0.2-0.4-0.4-0.4-0.6c0-0.3,0.2-0.5,0.6-0.7l70.2-40.5c0.7-0.4,1.7-0.4,2.3-0.1l42.3,24.4
					C381.1,464.9,381.2,465.1,381.2,465.4z"/>
			</g>
			<g>
				<path class="st2" d="M356.2,480.3l-44.4-25.6l24.5-14.2c0.7-0.4,1.7-0.4,2.3-0.1l42.3,24.4c0.3,0.2,0.4,0.4,0.4,0.6
					c0,0.3-0.2,0.5-0.6,0.7L356.2,480.3z"/>
			</g>
			<g>
				<polygon class="st3" points="368.6,469.2 368,469.6 355.8,476.6 318.9,455.3 318.3,454.9 331.1,447.5 				"/>
			</g>
			<g>
				<polygon class="st4" points="368,469.6 355.8,476.6 318.9,455.3 331.1,448.2 				"/>
			</g>
			<g>
				<polygon class="st5" points="277.7,485.6 272.1,482.3 272.1,481.5 277.7,479.1 283.3,481.5 283.3,482.3 				"/>
			</g>
			<g>
				<polygon class="st5" points="285.7,490.2 280.1,487 280.1,486.1 285.7,483.7 291.3,486.1 291.3,487 				"/>
			</g>
			<g>
				<polygon class="st5" points="293.7,494.8 288.1,491.6 288.1,490.7 293.7,488.3 299.3,490.7 299.3,491.6 				"/>
			</g>
			<g>
				<polygon class="st5" points="301.7,499.4 296.1,496.2 296.1,495.3 301.7,493 307.3,495.3 307.3,496.2 				"/>
			</g>
			<g>
				<polygon class="st5" points="285.1,481.3 279.5,478.1 279.5,477.2 285.1,474.8 290.7,477.2 290.7,478.1 				"/>
			</g>
			<g>
				<polygon class="st5" points="293.1,485.9 287.5,482.7 287.5,481.8 293.1,479.5 298.7,481.8 298.7,482.7 				"/>
			</g>
			<g>
				<polygon class="st5" points="301.1,490.5 295.5,487.3 295.5,486.4 301.1,484.1 306.7,486.4 306.7,487.3 				"/>
			</g>
			<g>
				<polygon class="st5" points="309.1,495.2 303.5,491.9 303.5,491 309.1,488.7 314.7,491 314.7,491.9 				"/>
			</g>
			<g>
				<polygon class="st5" points="292.5,477.1 286.9,473.8 286.9,472.9 292.5,470.6 298.1,472.9 298.1,473.8 				"/>
			</g>
			<g>
				<polygon class="st5" points="300.5,481.7 294.9,478.4 294.9,477.5 300.5,475.2 306.1,477.5 306.1,478.4 				"/>
			</g>
			<g>
				<polygon class="st5" points="308.5,486.3 302.9,483 302.9,482.2 308.5,479.8 314.1,482.2 314.1,483 				"/>
			</g>
			<g>
				<polygon class="st5" points="316.5,490.9 310.9,487.7 310.9,486.8 316.5,484.4 322.1,486.8 322.1,487.7 				"/>
			</g>
			<g>
				<polygon class="st5" points="299.9,472.8 294.3,469.5 294.3,468.7 299.9,466.3 305.5,468.7 305.5,469.5 				"/>
			</g>
			<g>
				<polygon class="st5" points="307.9,477.4 302.3,474.2 302.3,473.3 307.9,470.9 313.5,473.3 313.5,474.2 				"/>
			</g>
			<g>
				<polygon class="st5" points="315.9,482 310.3,478.8 310.3,477.9 315.9,475.5 321.5,477.9 321.5,478.8 				"/>
			</g>
			<g>
				<polygon class="st5" points="323.9,486.6 318.3,483.4 318.3,482.5 323.9,480.2 329.5,482.5 329.5,483.4 				"/>
			</g>
			<g>
				<polygon class="st5" points="315.3,473.1 309.7,469.9 309.7,469 315.3,466.7 320.9,469 320.9,469.9 				"/>
			</g>
			<g>
				<polygon class="st5" points="323.3,477.8 317.7,474.5 317.7,473.6 323.3,471.3 328.9,473.6 328.9,474.5 				"/>
			</g>
			<g>
				<polygon class="st5" points="331.3,482.4 325.7,479.1 325.7,478.2 331.3,475.9 336.9,478.2 336.9,479.1 				"/>
			</g>
			<g>
				<polygon class="st6" points="277.7,484.7 272.1,481.5 277.7,478.2 283.3,481.5 				"/>
			</g>
			<g>
				<polygon class="st6" points="285.7,489.3 280.1,486.1 285.7,482.8 291.3,486.1 				"/>
			</g>
			<g>
				<polygon class="st6" points="293.7,493.9 288.1,490.7 293.7,487.4 299.3,490.7 				"/>
			</g>
			<g>
				<polygon class="st6" points="301.7,498.5 296.1,495.3 301.7,492.1 307.3,495.3 				"/>
			</g>
			<g>
				<polygon class="st6" points="285.1,480.4 279.5,477.2 285.1,474 290.7,477.2 				"/>
			</g>
			<g>
				<polygon class="st6" points="293.1,485 287.5,481.8 293.1,478.6 298.7,481.8 				"/>
			</g>
			<g>
				<polygon class="st6" points="301.1,489.7 295.5,486.4 301.1,483.2 306.7,486.4 				"/>
			</g>
			<g>
				<polygon class="st6" points="309.1,494.3 303.5,491 309.1,487.8 314.7,491 				"/>
			</g>
			<g>
				<polygon class="st7" points="309.7,504 304.1,500.8 304.1,499.9 317.1,493.3 322.7,495.6 322.7,496.5 				"/>
			</g>
			<g>
				<polygon class="st7" points="324.5,495.5 318.9,492.3 318.9,491.4 324.5,489 330.1,491.4 330.1,492.3 				"/>
			</g>
			<g>
				<polygon class="st7" points="331.9,491.2 326.3,488 326.3,487.1 331.9,484.8 337.5,487.1 337.5,488 				"/>
			</g>
			<g>
				<polygon class="st7" points="339.3,487 333.6,483.7 333.6,482.9 339.3,480.5 344.9,482.9 344.9,483.7 				"/>
			</g>
			<g>
				<polygon class="st8" points="309.7,503.2 304.1,499.9 317.1,492.4 322.7,495.6 				"/>
			</g>
			<g>
				<polygon class="st6" points="292.5,476.2 286.9,472.9 292.5,469.7 298.1,472.9 				"/>
			</g>
			<g>
				<polygon class="st6" points="300.5,480.8 294.9,477.5 300.5,474.3 306.1,477.5 				"/>
			</g>
			<g>
				<polygon class="st6" points="308.5,485.4 302.9,482.2 308.5,478.9 314.1,482.2 				"/>
			</g>
			<g>
				<polygon class="st6" points="316.5,490 310.9,486.8 316.5,483.5 322.1,486.8 				"/>
			</g>
			<g>
				<polygon class="st8" points="324.5,494.6 318.9,491.4 324.5,488.1 330.1,491.4 				"/>
			</g>
			<g>
				<polygon class="st6" points="299.9,471.9 294.3,468.7 299.9,465.4 305.5,468.7 				"/>
			</g>
			<g>
				<polygon class="st6" points="307.9,476.5 302.3,473.3 307.9,470 313.5,473.3 				"/>
			</g>
			<g>
				<polygon class="st6" points="315.9,481.1 310.3,477.9 315.9,474.7 321.5,477.9 				"/>
			</g>
			<g>
				<polygon class="st6" points="323.9,485.7 318.3,482.5 323.9,479.3 329.5,482.5 				"/>
			</g>
			<g>
				<polygon class="st8" points="331.9,490.4 326.3,487.1 331.9,483.9 337.5,487.1 				"/>
			</g>
			<g>
				<polygon class="st9" points="307.3,468.5 301.7,465.3 301.7,464.4 307.3,462 312.9,464.4 312.9,465.3 				"/>
			</g>
			<g>
				<polygon class="st10" points="307.3,467.6 301.7,464.4 307.3,461.2 312.9,464.4 				"/>
			</g>
			<g>
				<polygon class="st11" points="314.7,464.3 309.1,461 309.1,460.1 312.8,458.9 318.4,461.2 318.4,462.1 				"/>
			</g>
			<g>
				<polygon class="st11" points="322.7,468.9 317.1,465.6 317.1,464.7 320.8,463.5 326.4,465.8 326.4,466.7 				"/>
			</g>
			<g>
				<polygon class="st11" points="330.7,473.5 325,470.2 325,469.4 328.8,468.1 334.4,470.4 334.4,471.3 				"/>
			</g>
			<g>
				<polygon class="st11" points="338.6,478.1 333,474.9 333,474 336.8,472.7 342.4,475 342.4,475.9 				"/>
			</g>
			<g>
				<polygon class="st11" points="346.6,482.7 341,479.5 341,478.6 344.8,477.3 350.4,479.7 350.4,480.6 				"/>
			</g>
			<g>
				<polygon class="st12" points="314.7,463.4 309.1,460.1 312.8,458 318.4,461.2 				"/>
			</g>
			<g>
				<polygon class="st12" points="322.7,468 317.1,464.7 320.8,462.6 326.4,465.8 				"/>
			</g>
			<g>
				<polygon class="st12" points="330.7,472.6 325,469.4 328.8,467.2 334.4,470.4 				"/>
			</g>
			<g>
				<polygon class="st12" points="338.6,477.2 333,474 336.8,471.8 342.4,475 				"/>
			</g>
			<g>
				<polygon class="st12" points="346.6,481.8 341,478.6 344.8,476.4 350.4,479.7 				"/>
			</g>
			<g>
				<polygon class="st6" points="315.3,472.2 309.7,469 315.3,465.8 320.9,469 				"/>
			</g>
			<g>
				<polygon class="st6" points="323.3,476.9 317.7,473.6 323.3,470.4 328.9,473.6 				"/>
			</g>
			<g>
				<polygon class="st6" points="331.3,481.5 325.7,478.2 331.3,475 336.9,478.2 				"/>
			</g>
			<g>
				<polygon class="st8" points="339.3,486.1 333.6,482.9 339.3,479.6 344.9,482.9 				"/>
			</g>
			<g>
				<path class="st13" d="M306.9,464c-0.6,0.3-1.3,0.3-1.8,0c-0.5-0.3-0.4-0.7,0.1-1c0.6-0.3,1.3-0.3,1.8-0.1
					C307.5,463.3,307.4,463.7,306.9,464z M305.5,463.3c-0.4,0.2-0.5,0.5-0.2,0.7c0.3,0.2,0.8,0.1,1.2-0.1c0.3-0.2,0.5-0.5,0.2-0.7
					C306.4,463,305.9,463,305.5,463.3z"/>
				<path class="st13" d="M308.1,463.7l1,0.6l-0.3,0.2l-0.7-0.4l-0.5,0.3l0.7,0.4l-0.3,0.2l-0.7-0.4l-0.8,0.4l-0.3-0.2L308.1,463.7z
					"/>
				<path class="st13" d="M309.4,464.5l1,0.6l-0.3,0.2l-0.7-0.4l-0.5,0.3l0.7,0.4l-0.3,0.2l-0.7-0.4l-0.8,0.4l-0.3-0.2L309.4,464.5z
					"/>
			</g>
			<g>
				<path class="st13" d="M301.6,495.2c-0.9,0.5-1.8,0.6-2.4,0.2c-0.6-0.4-0.4-0.9,0.4-1.4c0.8-0.5,1.8-0.6,2.4-0.2
					C302.7,494.2,302.4,494.7,301.6,495.2z M300.1,494.4c-0.7,0.4-0.8,0.7-0.5,0.8c0.3,0.2,0.8,0.1,1.5-0.3c0.6-0.4,0.8-0.7,0.5-0.8
					C301.4,493.9,300.8,494,300.1,494.4z"/>
				<path class="st13" d="M303.8,496.5c-0.9,0.5-1.8,0.6-2.4,0.2c-0.6-0.4-0.4-0.9,0.4-1.4c0.8-0.5,1.8-0.6,2.4-0.2
					C304.9,495.5,304.6,496,303.8,496.5z M302.4,495.7c-0.7,0.4-0.8,0.7-0.5,0.8c0.3,0.2,0.8,0.1,1.5-0.3c0.6-0.4,0.8-0.7,0.5-0.8
					C303.6,495.2,303.1,495.3,302.4,495.7z"/>
			</g>
			<g>
				<path class="st13" d="M315.7,468.5c-0.5,0.3-1,0.3-1.3,0.1c-0.3-0.2-0.3-0.5,0.1-0.7c0.4-0.2,1-0.3,1.3-0.1
					C316.1,468,316.1,468.3,315.7,468.5z M314.8,468.1c-0.3,0.1-0.4,0.3-0.2,0.4c0.2,0.1,0.4,0,0.7-0.1c0.3-0.1,0.4-0.3,0.2-0.4
					C315.4,467.9,315.1,467.9,314.8,468.1z M313.4,469.2l3.7-0.6l0.2,0.1l-3.7,0.6L313.4,469.2z M316.3,470c-0.5,0.3-1,0.3-1.3,0.1
					c-0.3-0.2-0.3-0.5,0.1-0.7c0.4-0.2,1-0.3,1.3-0.1C316.8,469.5,316.7,469.8,316.3,470z M315.4,469.5c-0.3,0.1-0.4,0.3-0.2,0.4
					c0.2,0.1,0.4,0,0.7-0.1c0.3-0.1,0.4-0.3,0.2-0.4C316,469.3,315.7,469.4,315.4,469.5z"/>
			</g>
			<g>
				<path class="st13" d="M298.6,468.2l-0.7,0.2l-0.3-0.2l2.4-0.7l0.4,0.2l-1.2,1.4l-0.4-0.2l0.3-0.4L298.6,468.2z M299.3,468.4
					l0.3-0.3c0.1-0.1,0.2-0.2,0.2-0.2l0,0c-0.1,0-0.3,0.1-0.4,0.1l-0.6,0.2L299.3,468.4z"/>
				<path class="st13" d="M300.7,470c-0.1,0-0.3-0.1-0.5-0.2c-0.6-0.3-0.6-0.7,0-1.1c0.6-0.3,1.4-0.3,1.9,0c0.2,0.1,0.3,0.2,0.4,0.3
					l-0.3,0.1c0-0.1-0.1-0.2-0.3-0.2c-0.4-0.2-0.9-0.2-1.3,0c-0.4,0.2-0.4,0.5,0,0.7c0.1,0.1,0.3,0.1,0.4,0.2L300.7,470z"/>
			</g>
			<g>
				<path class="st13" d="M292.6,472.8c-0.6,0.3-1.3,0.3-1.8,0c-0.5-0.3-0.4-0.7,0.1-1c0.6-0.3,1.3-0.3,1.8-0.1
					C293.2,472.1,293.1,472.5,292.6,472.8z M291.2,472.1c-0.4,0.2-0.5,0.5-0.2,0.7c0.3,0.2,0.8,0.1,1.2-0.1c0.3-0.2,0.5-0.5,0.2-0.7
					C292.1,471.8,291.6,471.8,291.2,472.1z"/>
				<path class="st13" d="M291.9,473.5l1.8-1l0.4,0.2l-0.3,0.7c-0.1,0.2-0.2,0.4-0.3,0.5l0,0c0.2-0.2,0.4-0.3,0.7-0.4l0.6-0.4
					l0.3,0.2l-1.8,1l-0.3-0.2l0.3-0.7c0.1-0.2,0.2-0.4,0.3-0.5l0,0c-0.2,0.1-0.5,0.3-0.8,0.5l-0.6,0.4L291.9,473.5z"/>
			</g>
			<g>
				<path class="st13" d="M285.1,478.1c-0.1,0-0.4-0.1-0.6-0.3c-0.7-0.4-0.7-0.9,0-1.2c0.7-0.4,1.6-0.4,2.2,0
					c0.3,0.1,0.4,0.3,0.4,0.3l-0.4,0.1c-0.1-0.1-0.2-0.2-0.3-0.3c-0.4-0.2-1-0.3-1.5,0c-0.5,0.3-0.5,0.6,0,0.9
					c0.2,0.1,0.3,0.2,0.5,0.2L285.1,478.1z"/>
			</g>
			<g>
				<g>
					<path class="st13" d="M278.1,480l-0.7,0.4l0.6,0.4l-0.2,0.1l-0.6-0.4l-0.7,0.4l-0.2-0.1l0.7-0.4l-0.6-0.4l0.2-0.1l0.6,0.4
						l0.7-0.4L278.1,480z"/>
				</g>
				<g>
					<path class="st13" d="M275.7,482l3.5-1l0.3,0.2l-3.5,1L275.7,482z"/>
				</g>
				<g>
					<path class="st13" d="M278.8,483.1l-0.3,0.2l-1.3-0.8l0.3-0.2L278.8,483.1z"/>
				</g>
			</g>
			<g>
				<path class="st13" d="M286.7,486.6c-0.9,0.5-1.8,0.6-2.4,0.2c-0.6-0.4-0.4-0.9,0.4-1.4c0.8-0.5,1.8-0.6,2.4-0.2
					C287.8,485.6,287.5,486.1,286.7,486.6z M285.3,485.8c-0.7,0.4-0.8,0.7-0.5,0.8c0.3,0.2,0.8,0.1,1.5-0.3c0.6-0.4,0.8-0.7,0.5-0.8
					C286.5,485.3,286,485.4,285.3,485.8z"/>
			</g>
			<g>
				<path class="st13" d="M293.9,481.2L293.9,481.2l-0.8-0.1l0.3-0.3l1,0.2l0.4,0.2l-2.7,1.6l-0.5-0.3L293.9,481.2z"/>
			</g>
			<g>
				<path class="st13" d="M299.4,478.4l0.7-0.4l-1.2-0.7l0.3-0.2l2.8-0.3l0.6,0.3l-1.6,0.9l0.3,0.2l-0.4,0.2l-0.4-0.2l-0.7,0.4
					L299.4,478.4z M300.4,477.8l0.7-0.4c0.2-0.1,0.3-0.2,0.5-0.3l0,0c-0.3,0.1-0.5,0.1-0.7,0.1l-1.2,0.1l0,0L300.4,477.8z"/>
			</g>
			<g>
				<path class="st13" d="M310.2,473l-0.3,0.2l-3.5,0.7l-0.5-0.3l3.4-0.7l0,0l-1.3-0.7l0.4-0.2L310.2,473z"/>
			</g>
			<g>
				<path class="st13" d="M293.3,490.5c0.2-0.1,0.5-0.1,0.7,0c0.2,0.1,0.2,0.3,0,0.4c-0.2,0.1-0.5,0.1-0.7,0
					C293.1,490.8,293.1,490.6,293.3,490.5z"/>
			</g>
			<g>
				<path class="st13" d="M298.8,486.6l0.3-0.2l0.6,0c1.2,0,1.9,0,2.2-0.2c0.2-0.1,0.3-0.3,0-0.5c-0.2-0.1-0.6-0.2-0.8-0.2l0.2-0.3
					c0.4,0,0.8,0.1,1.1,0.3c0.6,0.3,0.5,0.7,0.1,1c-0.5,0.3-1.2,0.3-2.1,0.3l-0.4,0l0,0l1.1,0.6l-0.4,0.2L298.8,486.6z"/>
			</g>
			<g>
				<path class="st13" d="M310.2,482.1l-1-0.6l-0.6,0.3c0.1,0,0.1,0.1,0.2,0.1c0.2,0.1,0.4,0.3,0.5,0.5c0.1,0.2,0,0.4-0.3,0.6
					c-0.5,0.3-1.4,0.3-2-0.1c-0.3-0.2-0.5-0.4-0.6-0.5l0.5-0.2c0.1,0.1,0.2,0.3,0.5,0.4c0.3,0.2,0.8,0.2,1.1,0.1
					c0.3-0.2,0.3-0.4-0.3-0.7c-0.1-0.1-0.3-0.1-0.4-0.2l1.5-0.7l1.4,0.8L310.2,482.1z"/>
			</g>
			<g>
				<path class="st13" d="M314.3,477.7c0.3-0.2,0.8-0.2,1.2-0.1l0,0c-0.1-0.2-0.1-0.4,0.2-0.6c0.4-0.3,1.1-0.2,1.6,0.1
					c0.6,0.3,0.5,0.7,0.2,0.9c-0.2,0.1-0.6,0.2-1,0.1l0,0c0.2,0.2,0.2,0.5-0.2,0.7c-0.5,0.3-1.2,0.2-1.8-0.1
					C313.9,478.3,313.9,477.9,314.3,477.7z M315.7,478.5c0.3-0.2,0.2-0.4,0-0.6c-0.3-0.1-0.7-0.1-0.9,0c-0.2,0.1-0.3,0.3,0,0.5
					C315.1,478.6,315.5,478.6,315.7,478.5z M316.2,477.3c-0.2,0.1-0.2,0.3,0,0.5c0.2,0.1,0.5,0.1,0.7,0c0.2-0.1,0.3-0.3,0-0.4
					C316.7,477.1,316.4,477.1,316.2,477.3z"/>
			</g>
			<g>
				<path class="st13" d="M330.2,477.4l0.4-0.2l2.5,1.4l-0.4,0.2L330.2,477.4z M329.2,478l0.4-0.2l2.5,1.4l-0.4,0.2L329.2,478z"/>
			</g>
			<g>
				<path class="st13" d="M307.5,491c0,0.1,0.2,0.3,0.4,0.5c0.4,0.2,0.8,0.2,1,0.1c0.3-0.2,0.2-0.4-0.2-0.6l-0.2-0.1l0.4-0.2
					l0.2,0.1c0.2,0.1,0.6,0.2,0.9,0.1c0.2-0.1,0.2-0.3-0.1-0.4c-0.2-0.1-0.5-0.2-0.7-0.2l0.3-0.3c0.3,0,0.7,0.1,1,0.3
					c0.6,0.3,0.5,0.7,0.2,0.9c-0.3,0.2-0.7,0.2-1.1,0.1l0,0c0.3,0.2,0.3,0.5-0.1,0.7c-0.5,0.3-1.2,0.3-1.9-0.1
					c-0.3-0.2-0.5-0.4-0.6-0.5L307.5,491z"/>
			</g>
			<g>
				<path class="st13" d="M318.2,486.6c-0.1,0-0.2-0.1-0.3-0.1c-0.6-0.3-1.3-0.2-1.7-0.1l0,0c0.3,0,0.6,0,0.9,0.2
					c0.5,0.3,0.5,0.7-0.1,1c-0.5,0.3-1.3,0.3-1.9,0c-0.7-0.4-0.5-0.9,0.1-1.3c0.5-0.3,1.1-0.4,1.7-0.4c0.5,0,0.9,0.1,1.4,0.3
					c0.1,0.1,0.2,0.1,0.3,0.1L318.2,486.6z M316.5,487.3c0.3-0.2,0.4-0.4,0.1-0.6c-0.2-0.1-0.5-0.1-0.7-0.1c-0.1,0-0.1,0-0.2,0.1
					c-0.3,0.2-0.5,0.5-0.1,0.7C315.8,487.5,316.2,487.5,316.5,487.3z"/>
			</g>
			<g>
				<path class="st13" d="M322.2,482.6c0.1,0.1,0.2,0.1,0.3,0.2c0.2,0.1,0.5,0.2,0.8,0.2c0.3,0,0.6,0,0.9-0.1l0,0
					c-0.3,0-0.6-0.1-0.8-0.2c-0.5-0.3-0.5-0.7,0-1c0.5-0.3,1.4-0.3,1.9,0c0.6,0.4,0.5,0.8-0.2,1.2c-0.6,0.3-1.2,0.5-1.7,0.5
					c-0.5,0-0.9-0.1-1.3-0.3c-0.1-0.1-0.2-0.1-0.3-0.2L322.2,482.6z M323.9,482c-0.3,0.2-0.3,0.4,0,0.5c0.2,0.1,0.5,0.2,0.7,0.1
					c0.1,0,0.1,0,0.2-0.1c0.4-0.2,0.5-0.5,0.2-0.7C324.6,481.7,324.2,481.8,323.9,482z"/>
			</g>
			<g>
				<path class="st13" d="M314.7,497.2l-1.1,0.6l1,0.6l-0.4,0.2l-1-0.6l-1.1,0.6l-0.4-0.2l1.1-0.6l-1-0.6l0.4-0.2l1,0.6l1.1-0.6
					L314.7,497.2z"/>
			</g>
			<g>
				<path class="st13" d="M325.9,491.9l-0.4,0.2l-2.3-1.4l0.4-0.2L325.9,491.9z"/>
			</g>
			<g>
				<g>
					<path class="st13" d="M332.2,488.1h-0.6v-1.9h0.6L332.2,488.1z"/>
				</g>
				<g>
					<path class="st13" d="M333.5,487v0.3l-3.3,0V487H333.5z"/>
				</g>
			</g>
			<g>
				<g>
					<path class="st13" d="M340.6,483.4l-0.4,0.2l-2.3-1.4l0.4-0.2L340.6,483.4z"/>
				</g>
				<g>
					<g>
						<path class="st13" d="M340.3,482.5c-0.1,0.1-0.4,0.1-0.5,0c-0.1-0.1-0.1-0.2,0-0.3c0.1-0.1,0.4-0.1,0.5,0
							C340.5,482.3,340.5,482.4,340.3,482.5z"/>
					</g>
					<g>
						<path class="st13" d="M338.7,483.5c0.1-0.1,0.1-0.2,0-0.3c-0.1-0.1-0.4-0.1-0.5,0c-0.1,0.1-0.1,0.2,0,0.3
							C338.3,483.6,338.5,483.6,338.7,483.5z"/>
					</g>
				</g>
			</g>
			<g>
				<g>
					<polygon class="st14" points="351.3,455 334.7,445.4 338.7,443.1 355.3,452.7 					"/>
				</g>
			</g>
			<g>
				<path class="st13" d="M312.8,460.3c0.2-0.1,0.4-0.3,0.6-0.4l0,0c-0.2,0.1-0.5,0.2-0.8,0.2l-0.9,0.3l-0.2-0.1l0.4-0.5
					c0.1-0.1,0.3-0.3,0.4-0.4l0,0c-0.2,0.1-0.5,0.2-0.7,0.4l-0.7,0.3l-0.3-0.2l1.6-0.8l0.4,0.2l-0.4,0.5c-0.1,0.1-0.3,0.3-0.4,0.4
					l0,0c0.2-0.1,0.4-0.2,0.7-0.2l0.8-0.2l0.4,0.2l-1.4,0.9l-0.3-0.2L312.8,460.3z"/>
				<path class="st13" d="M313.9,461.6c-0.1,0-0.3-0.1-0.5-0.2c-0.5-0.3-0.5-0.6,0-0.9c0.5-0.3,1.2-0.3,1.6,0
					c0.2,0.1,0.3,0.2,0.3,0.3l-0.3,0.1c0-0.1-0.1-0.1-0.2-0.2c-0.3-0.2-0.7-0.2-1.1,0c-0.3,0.2-0.4,0.4,0,0.6
					c0.1,0.1,0.3,0.1,0.4,0.1L313.9,461.6z"/>
				<path class="st13" d="M315.6,460.9c0.1,0,0.3,0.1,0.5,0.2c0.2,0.1,0.3,0.2,0.4,0.3c0,0.1,0,0.2-0.2,0.3
					c-0.2,0.1-0.5,0.1-0.7,0.1l0,0c0.1,0.1,0,0.2-0.1,0.3c-0.1,0.1-0.3,0.3-0.3,0.3l-0.3-0.2c0,0,0.1-0.1,0.3-0.3
					c0.2-0.1,0.1-0.2,0-0.3l-0.1-0.1l-0.6,0.4l-0.3-0.2L315.6,460.9z M315.2,461.4l0.2,0.1c0.2,0.1,0.4,0.1,0.6,0
					c0.2-0.1,0.1-0.2-0.1-0.3c-0.1-0.1-0.2-0.1-0.2-0.1L315.2,461.4z"/>
			</g>
			<g>
				<path class="st13" d="M321.4,465.3c0.2-0.1,0.4-0.3,0.6-0.4l0,0c-0.2,0.1-0.5,0.2-0.8,0.2l-0.9,0.3l-0.2-0.1l0.4-0.5
					c0.1-0.1,0.3-0.3,0.4-0.4l0,0c-0.2,0.1-0.5,0.2-0.7,0.4l-0.6,0.3l-0.3-0.2l1.6-0.8l0.4,0.2l-0.4,0.5c-0.1,0.1-0.3,0.3-0.4,0.4
					l0,0c0.2-0.1,0.4-0.2,0.7-0.2l0.8-0.2l0.4,0.2l-1.4,0.9l-0.3-0.2L321.4,465.3z"/>
				<path class="st13" d="M323.2,465.6l-0.5,0.3l0.5,0.3l-0.2,0.1l-0.5-0.3l-0.5,0.3l-0.2-0.1l0.5-0.3l-0.5-0.3l0.2-0.1l0.5,0.3
					l0.5-0.3L323.2,465.6z"/>
			</g>
			<g>
				<path class="st13" d="M329.7,470.1c0.2-0.1,0.4-0.3,0.6-0.4l0,0c-0.2,0.1-0.5,0.2-0.8,0.2l-0.9,0.3l-0.2-0.1l0.5-0.5
					c0.1-0.1,0.3-0.3,0.4-0.4l0,0c-0.2,0.1-0.5,0.2-0.7,0.4l-0.7,0.3l-0.3-0.2l1.6-0.8l0.4,0.2l-0.4,0.5c-0.1,0.1-0.3,0.3-0.4,0.4
					l0,0c0.2-0.1,0.4-0.2,0.7-0.2l0.8-0.2l0.4,0.2l-1.4,0.9l-0.3-0.2L329.7,470.1z"/>
				<path class="st13" d="M330.9,470.7l-0.2,0.1l-0.6-0.3l0.2-0.1L330.9,470.7z"/>
			</g>
			<g>
				<path class="st13" d="M336.1,473l-0.4-0.3l0.2-0.1l1.2,0.7l-0.2,0.1l-0.4-0.3l-1.3,0.7l-0.3-0.2L336.1,473z"/>
				<path class="st13" d="M336.3,474.1l-0.6,0.2l-0.3-0.2l2-0.6l0.4,0.2l-1,1.2l-0.3-0.2l0.3-0.3L336.3,474.1z M336.9,474.2l0.3-0.3
					c0.1-0.1,0.1-0.1,0.2-0.2l0,0c-0.1,0-0.2,0.1-0.4,0.1l-0.5,0.1L336.9,474.2z"/>
				<path class="st13" d="M337.8,475.5l0.1-0.3c0.1-0.1,0.1-0.2,0.1-0.3l0,0c-0.1,0-0.2,0.1-0.4,0.1l-0.5,0.1l-0.3-0.2l1.2-0.2
					l0.3-0.7l0.3,0.2l-0.1,0.3c0,0.1-0.1,0.1-0.1,0.2l0,0c0.1,0,0.2-0.1,0.4-0.1l0.5-0.1l0.3,0.2l-1.2,0.2l-0.3,0.7L337.8,475.5z"/>
				<path class="st13" d="M340.1,475.4l-0.5,0.3l0.5,0.3l-0.2,0.1l-0.5-0.3l-0.5,0.3l-0.2-0.1l0.5-0.3l-0.5-0.3l0.2-0.1l0.5,0.3
					l0.5-0.3L340.1,475.4z"/>
			</g>
			<g>
				<path class="st13" d="M344.5,477.8l-0.4-0.3l0.2-0.1l1.2,0.7l-0.2,0.1l-0.4-0.3l-1.3,0.7l-0.3-0.2L344.5,477.8z"/>
				<path class="st13" d="M344.6,478.9l-0.6,0.2l-0.3-0.2l2-0.6l0.4,0.2l-1,1.2l-0.3-0.2l0.3-0.3L344.6,478.9z M345.3,479l0.3-0.3
					c0.1-0.1,0.1-0.1,0.2-0.2l0,0c-0.1,0-0.2,0.1-0.4,0.1l-0.5,0.1L345.3,479z"/>
				<path class="st13" d="M346.1,480.3l0.1-0.3c0.1-0.1,0.1-0.2,0.1-0.3l0,0c-0.1,0-0.2,0.1-0.4,0.1l-0.5,0.1l-0.3-0.2l1.2-0.2
					l0.3-0.7l0.3,0.2l-0.1,0.3c0,0.1-0.1,0.1-0.1,0.2l0,0c0.1,0,0.2-0.1,0.4-0.1l0.5-0.1l0.3,0.2l-1.2,0.2l-0.3,0.7L346.1,480.3z"/>
				<path class="st13" d="M347.8,480.4l-0.2,0.1l-0.6-0.3l0.2-0.1L347.8,480.4z"/>
			</g>
			<g>
				<g>
					<polygon class="st15" points="334.8,445.5 334.6,445.4 338.7,443 338.8,443.1 					"/>
				</g>
				<g>
					<polygon class="st15" points="338.9,447.9 338.8,447.8 342.8,445.4 343,445.5 					"/>
				</g>
				<g>
					<polygon class="st15" points="343.1,450.2 342.9,450.2 347,447.8 347.1,447.9 					"/>
				</g>
				<g>
					<polygon class="st15" points="347.2,452.6 347.1,452.6 351.1,450.2 351.3,450.3 					"/>
				</g>
				<g>
					<polygon class="st15" points="351.4,455 351.2,454.9 355.3,452.6 355.4,452.7 					"/>
				</g>
			</g>
			<g>
				<polygon class="st13" points="321.4,474.1 321.4,473 322,473 322,473.5 324,472.7 325.7,473.7 325.3,473.9 324,473.1 				"/>
			</g>
			<path class="st5" d="M381.2,465.4v4.2c0,0.3-0.2,0.5-0.6,0.7l-24.5,14.2v-4.2l22.1-12.7l2.4-1.4
				C381.1,465.9,381.2,465.6,381.2,465.4z"/>
		</g>
		<g>
			<g>
				<polygon class="st16" points="136.2,489.9 51.6,441.1 51.6,439.8 161,377.9 245.6,425.5 245.6,426.7 				"/>
			</g>
			<g>
				<g>
					<polygon class="st17" points="245.6,425.5 234.9,431.6 136.2,488.7 61.1,445.3 51.6,439.8 161,376.7 					"/>
				</g>
				<g>
					<polygon class="st18" points="138.5,481.7 123.2,472.9 124.5,472.2 139.7,481 					"/>
				</g>
				<g>
					<polygon class="st18" points="94,456.1 63.6,438.5 64.8,437.8 95.3,455.4 					"/>
				</g>
				<g>
					<polygon class="st18" points="206.3,442.6 131.4,399.3 132.6,398.6 207.5,441.9 					"/>
				</g>
				<g>
					<polygon class="st18" points="198.8,446.9 123.9,403.7 125.1,403 200,446.2 					"/>
				</g>
				<g>
					<polygon class="st18" points="191.2,451.3 116.3,408 117.6,407.3 192.5,450.6 					"/>
				</g>
				<g>
					<polygon class="st18" points="183.7,455.6 108.8,412.4 110,411.7 184.9,454.9 					"/>
				</g>
				<g>
					<polygon class="st18" points="176.2,460 101.3,416.7 102.5,416 177.4,459.3 					"/>
				</g>
				<g>
					<polygon class="st18" points="168.6,464.3 93.7,421.1 95,420.4 169.8,463.6 					"/>
				</g>
				<g>
					<polygon class="st18" points="161.1,468.7 86.2,425.4 87.4,424.7 162.3,468 					"/>
				</g>
				<g>
					<polygon class="st18" points="114.1,450.3 78.7,429.8 79.9,429.1 115.4,449.6 					"/>
				</g>
				<g>
					<g>
						<path class="st19" d="M192.8,413.2c4.9-0.4,9.7,0,13.9,1l-9.9,13.3L192.8,413.2z"/>
					</g>
					<g>
						<path class="st20" d="M208,412.4c8.7,2.2,14.6,6.5,16.5,11.5l-27.8,3.6L208,412.4z"/>
					</g>
					<g>
						<path class="st21" d="M217.9,424.8c1.7,4.4-0.8,8.7-5.8,11.6l-15.4-8.9L217.9,424.8z"/>
					</g>
					<g>
						<path class="st2" d="M181.3,418.6c3.4-1.9,7.6-3.1,12-3.5l3.4,12.4L181.3,418.6z"/>
					</g>
				</g>
			</g>
		</g>
		<g>
			<g>
				<polygon class="st16" points="135,503.9 50.4,455.1 50.4,453.8 159.8,391.9 244.4,439.5 244.4,440.8 				"/>
			</g>
			<g>
				<g>
					<polygon class="st22" points="135,502.7 50.4,453.8 159.8,390.7 244.4,439.5 					"/>
				</g>
				<g>
					<g>
						<polygon class="st23" points="232,441.1 201.6,423.5 202.8,422.8 233.3,440.4 						"/>
					</g>
					<g>
						<polygon class="st23" points="226.4,444.3 196,426.7 197.2,426 227.7,443.6 						"/>
					</g>
					<g>
						<polygon class="st23" points="220.8,447.5 190.4,430 191.6,429.3 222.1,446.8 						"/>
					</g>
					<g>
						<polygon class="st23" points="215.2,450.8 184.8,433.2 186,432.5 216.5,450.1 						"/>
					</g>
				</g>
				<g>
					<g>
						<polygon class="st23" points="140.7,434.4 117.2,420.9 118.5,420.2 141.9,433.7 						"/>
					</g>
					<g>
						<polygon class="st23" points="135.1,437.6 111.6,424.1 112.9,423.4 136.3,436.9 						"/>
					</g>
				</g>
				<g>
					<polygon class="st23" points="137.3,495.7 122.1,486.9 123.3,486.2 138.6,495 					"/>
				</g>
				<g>
					<polygon class="st23" points="92.9,470.1 62.5,452.5 63.7,451.8 94.1,469.4 					"/>
				</g>
				<g>
					<polygon class="st23" points="205.2,456.6 130.3,413.4 131.5,412.6 206.4,455.9 					"/>
				</g>
				<g>
					<polygon class="st23" points="197.6,460.9 122.7,417.7 124,417 198.8,460.2 					"/>
				</g>
				<g>
					<g>
						<path class="st20" d="M178.6,405.8c6.4,3.7,6.4,9.7,0,13.4c-6.4,3.7-16.7,3.7-23.1,0c-6.4-3.7-6.4-9.7,0-13.4
							C161.8,402.2,172.2,402.2,178.6,405.8z M161.2,409.2c-3.2,1.8-3.2,4.8,0,6.7c3.2,1.8,8.4,1.8,11.6,0c3.2-1.8,3.2-4.8,0-6.7
							C169.6,407.3,164.4,407.3,161.2,409.2z"/>
					</g>
					<g>
						<path class="st2" d="M178.6,405.8c6.4,3.7,6.4,9.7,0,13.4c-6.4,3.7-16.7,3.7-23.1,0l5.8-3.3c3.2,1.8,8.4,1.8,11.6,0
							c3.2-1.8,3.2-4.8,0-6.7L178.6,405.8z"/>
					</g>
					<g>
						<path class="st21" d="M178.6,405.8c6.4,3.7,6.4,9.7,0,13.4c-3.8,2.2-9.1,3.1-14.1,2.6l1.3-4.7c2.5,0.2,5.1-0.2,7.1-1.3
							c3.2-1.8,3.2-4.8,0-6.7L178.6,405.8z"/>
					</g>
					<g>
						<path class="st19" d="M178.6,405.8c5.1,3,6.1,7.4,3,11l-7.3-2.1c1.6-1.8,1.1-4-1.5-5.5L178.6,405.8z"/>
					</g>
				</g>
				<g>
					<g>
						<polygon class="st19" points="113.8,465.2 109.2,462.5 128.9,451.2 133.5,453.9 						"/>
					</g>
					<g>
						<polygon class="st19" points="101.6,458.1 96.9,455.4 112,446.7 116.6,449.4 						"/>
					</g>
					<g>
						<polygon class="st21" points="95.4,454.6 90.7,451.9 101.1,445.9 105.8,448.6 						"/>
					</g>
					<g>
						<polygon class="st19" points="89.3,451 84.6,448.3 92.3,443.9 96.9,446.6 						"/>
					</g>
					<g>
						<polygon class="st19" points="138.4,479.4 133.7,476.7 163.4,459.6 168.1,462.3 						"/>
					</g>
					<g>
						<polygon class="st21" points="120,468.8 115.3,466.1 138.1,452.9 142.8,455.6 						"/>
					</g>
					<g>
						<polygon class="st19" points="126.1,472.3 121.4,469.6 148.9,453.8 153.6,456.5 						"/>
					</g>
					<g>
						<polygon class="st21" points="107.7,461.7 103,459 128.2,444.4 132.9,447.1 						"/>
					</g>
					<g>
						<polygon class="st21" points="132.2,475.9 127.6,473.2 160,454.5 164.6,457.2 						"/>
					</g>
					<g>
						<polygon class="st21" points="144.5,483 139.8,480.3 174.6,460.2 179.2,462.9 						"/>
					</g>
				</g>
			</g>
		</g>
		<g>
			<g>
				
					<linearGradient id="SVGID_1_" gradientUnits="userSpaceOnUse" x1="152.3522" y1="465.2432" x2="150.2109" y2="467.8355" gradientTransform="matrix(-1 0 0 1 387.9244 -11.0919)">
					<stop offset="0" style="stop-color:#F0C698"/>
					<stop offset="1" style="stop-color:#B38E62"/>
				</linearGradient>
				<polygon class="st24" points="231.8,455.3 241.6,452.4 234.2,461.5 				"/>
				
					<linearGradient id="SVGID_00000182520798737125837760000010138368632326807968_" gradientUnits="userSpaceOnUse" x1="147.5041" y1="463.9373" x2="147.1153" y2="464.5374" gradientTransform="matrix(-1 0 0 1 387.9244 -11.0919)">
					<stop offset="0" style="stop-color:#373737"/>
					<stop offset="1" style="stop-color:#272626"/>
				</linearGradient>
				<path style="fill:url(#SVGID_00000182520798737125837760000010138368632326807968_);" d="M241.6,452.4l-1.4,1.7
					c0.1-0.5-0.3-1.1-1-1L241.6,452.4z"/>
				<polygon class="st26" points="151,504.8 152.2,507.9 235.4,459.8 234.2,456.7 				"/>
				<polygon class="st27" points="148.6,503.4 151,504.8 234.2,456.7 231.8,455.3 				"/>
			</g>
			<polygon class="st28" points="151,509.6 152.2,507.9 151,504.8 148.6,503.4 147.4,505.1 148.6,508.2 			"/>
			<polygon class="st29" points="235.4,459.8 234.2,461.5 151,509.6 152.2,507.9 			"/>
		</g>
		<path class="st15" d="M149.4,506.2c0,0.3,0.2,0.6,0.4,0.7c0.2,0.1,0.4,0,0.4-0.2c0-0.3-0.2-0.6-0.4-0.7
			C149.6,505.9,149.4,506,149.4,506.2z"/>
		<g>
			<polygon class="st18" points="211.1,494.5 202.7,499.4 202.7,501.9 219,492.5 219,489.9 			"/>
			<g>
				<polygon class="st30" points="211.1,494.5 202.7,499.4 193.7,494.2 202.2,489.3 204.4,490.6 				"/>
				<polygon class="st31" points="219,489.9 211.1,494.5 204.4,490.6 202.2,489.3 210.1,484.8 				"/>
			</g>
			<polygon class="st2" points="219,489.9 219,492.5 211.1,497.1 211.1,494.5 			"/>
			<polygon class="st32" points="202.7,501.9 193.7,496.8 193.7,494.2 202.7,499.4 			"/>
		</g>
		<g>
			<g class="st33">
				<path class="st34" d="M473.4,190.1L445,174.6c0,0,0.1,0,0.1,0.1l28.4,15.5C473.5,190.1,473.4,190.1,473.4,190.1L473.4,190.1z"/>
				
					<linearGradient id="SVGID_00000067236619288137707620000015183187617395489191_" gradientUnits="userSpaceOnUse" x1="472.1005" y1="190.4597" x2="472.1005" y2="71.6353">
					<stop offset="0" style="stop-color:#D2D2D2"/>
					<stop offset="0.3877" style="stop-color:#DCDCDB"/>
					<stop offset="1" style="stop-color:#F5F6F6"/>
				</linearGradient>
				<path style="fill:url(#SVGID_00000067236619288137707620000015183187617395489191_);" d="M499.1,87.1
					c-6,4.6-10.4,13.9-10.4,20.8l-0.1,63.4c0,5.8-3.8,13.2-8.3,16.5c-1.3,1-4.2,3.5-6.8,2.3c0,0-28.2-15.3-28.4-15.5
					c1.7,0.8,3.7,0,5.2-1.1c0.4-0.3,1.8-1.3,2.5-1.9c4.1-3.7,7.3-10.5,7.3-15.8l0.1-63.4c0-7.2,4.7-16.4,10.4-20.8L499.1,87.1z"/>
			</g>
			<g class="st33">
				<path class="st34" d="M443.5,213.5l-28.4-15.5c0,0,0.1,0,0.1,0L443.5,213.5C443.5,213.5,443.5,213.5,443.5,213.5L443.5,213.5z"/>
			</g>
			<g>
				<g>
					<g>
						<polygon class="st21" points="475.4,108.5 462.9,101.4 462.9,100.8 475.4,108 						"/>
					</g>
					<g>
						<polygon class="st21" points="475.4,111.2 462.9,104 462.9,103.4 475.4,110.6 						"/>
					</g>
					<g>
						<polygon class="st21" points="475.4,113.8 462.9,106.6 462.9,106.1 475.4,113.3 						"/>
					</g>
					<g>
						<polygon class="st21" points="475.4,116.5 462.9,109.3 462.9,108.7 475.4,115.9 						"/>
					</g>
				</g>
				<g>
					<g>
						<polygon class="st21" points="485.6,114.5 479.4,110.9 479.4,110.3 485.6,113.9 						"/>
					</g>
					<g>
						<polygon class="st21" points="485.6,117.1 479.4,113.5 479.4,112.9 485.6,116.5 						"/>
					</g>
					<g>
						<polygon class="st21" points="485.6,119.8 479.4,116.2 479.4,115.6 485.6,119.2 						"/>
					</g>
					<g>
						<polygon class="st21" points="485.6,122.4 479.4,118.8 479.4,118.2 485.6,121.8 						"/>
					</g>
				</g>
				<g>
					<g>
						<polygon class="st21" points="475.4,119.1 462.9,111.9 462.9,111.4 475.4,118.5 						"/>
					</g>
					<g>
						<polygon class="st21" points="475.4,121.8 462.9,114.6 462.9,114 475.4,121.2 						"/>
					</g>
					<g>
						<polygon class="st21" points="475.4,124.4 462.9,117.2 462.9,116.6 475.4,123.8 						"/>
					</g>
					<g>
						<polygon class="st21" points="475.4,127.1 462.9,119.9 462.9,119.3 475.4,126.5 						"/>
					</g>
				</g>
				<g>
					<g>
						<polygon class="st21" points="485.6,125 479.4,121.5 479.4,120.9 485.6,124.5 						"/>
					</g>
					<g>
						<polygon class="st21" points="485.6,127.7 479.4,124.1 479.4,123.5 485.6,127.1 						"/>
					</g>
					<g>
						<polygon class="st21" points="485.6,130.3 479.4,126.7 479.4,126.2 485.6,129.8 						"/>
					</g>
					<g>
						<polygon class="st21" points="485.6,133 479.4,129.4 479.4,128.8 485.6,132.4 						"/>
					</g>
				</g>
				<g>
					<g>
						<polygon class="st21" points="475.4,129.7 462.9,122.5 462.9,121.9 475.4,129.1 						"/>
					</g>
					<g>
						<polygon class="st21" points="475.4,132.3 462.9,125.2 462.9,124.6 475.4,131.8 						"/>
					</g>
					<g>
						<polygon class="st21" points="475.4,135 462.9,127.8 462.9,127.2 475.4,134.4 						"/>
					</g>
					<g>
						<polygon class="st21" points="475.4,137.6 462.9,130.5 462.9,129.9 475.4,137.1 						"/>
					</g>
				</g>
				<g>
					<g>
						<polygon class="st21" points="485.6,135.6 479.4,132 479.4,131.5 485.6,135 						"/>
					</g>
					<g>
						<polygon class="st21" points="485.6,138.3 479.4,134.7 479.4,134.1 485.6,137.7 						"/>
					</g>
					<g>
						<polygon class="st21" points="485.6,140.9 479.4,137.3 479.4,136.7 485.6,140.3 						"/>
					</g>
					<g>
						<polygon class="st21" points="485.6,143.6 479.4,140 479.4,139.4 485.6,143 						"/>
					</g>
				</g>
				<g>
					<g>
						<polygon class="st21" points="475.4,119.1 462.9,111.9 462.9,111.4 475.4,118.5 						"/>
					</g>
					<g>
						<polygon class="st21" points="475.4,121.8 462.9,114.6 462.9,114 475.4,121.2 						"/>
					</g>
					<g>
						<polygon class="st21" points="475.4,124.4 462.9,117.2 462.9,116.6 475.4,123.8 						"/>
					</g>
					<g>
						<polygon class="st21" points="475.4,127.1 462.9,119.9 462.9,119.3 475.4,126.5 						"/>
					</g>
				</g>
				<g>
					<g>
						<polygon class="st21" points="485.6,125 479.4,121.5 479.4,120.9 485.6,124.5 						"/>
					</g>
					<g>
						<polygon class="st21" points="485.6,127.7 479.4,124.1 479.4,123.5 485.6,127.1 						"/>
					</g>
					<g>
						<polygon class="st21" points="485.6,130.3 479.4,126.7 479.4,126.2 485.6,129.8 						"/>
					</g>
					<g>
						<polygon class="st21" points="485.6,133 479.4,129.4 479.4,128.8 485.6,132.4 						"/>
					</g>
				</g>
				<g>
					<g>
						<polygon class="st21" points="475.4,129.7 462.9,122.5 462.9,121.9 475.4,129.1 						"/>
					</g>
					<g>
						<polygon class="st21" points="475.4,132.3 462.9,125.2 462.9,124.6 475.4,131.8 						"/>
					</g>
					<g>
						<polygon class="st21" points="475.4,135 462.9,127.8 462.9,127.2 475.4,134.4 						"/>
					</g>
					<g>
						<polygon class="st21" points="475.4,137.6 462.9,130.5 462.9,129.9 475.4,137.1 						"/>
					</g>
				</g>
				<g>
					<g>
						<polygon class="st21" points="485.6,135.6 479.4,132 479.4,131.5 485.6,135 						"/>
					</g>
					<g>
						<polygon class="st21" points="485.6,138.3 479.4,134.7 479.4,134.1 485.6,137.7 						"/>
					</g>
					<g>
						<polygon class="st21" points="485.6,140.9 479.4,137.3 479.4,136.7 485.6,140.3 						"/>
					</g>
					<g>
						<polygon class="st21" points="485.6,143.6 479.4,140 479.4,139.4 485.6,143 						"/>
					</g>
				</g>
				<g>
					<g>
						<polygon class="st21" points="475.4,140.3 462.9,133.1 462.9,132.5 475.4,139.7 						"/>
					</g>
					<g>
						<polygon class="st21" points="475.4,142.9 462.9,135.7 462.9,135.2 475.4,142.4 						"/>
					</g>
					<g>
						<polygon class="st21" points="475.4,145.6 462.9,138.4 462.9,137.8 475.4,145 						"/>
					</g>
					<g>
						<polygon class="st21" points="475.4,148.2 462.9,141 462.9,140.5 475.4,147.6 						"/>
					</g>
				</g>
				<g>
					<g>
						<polygon class="st21" points="485.6,146.2 479.4,142.6 479.4,142 485.6,145.6 						"/>
					</g>
					<g>
						<polygon class="st21" points="485.6,148.9 479.4,145.3 479.4,144.7 485.6,148.3 						"/>
					</g>
					<g>
						<polygon class="st21" points="485.6,151.5 479.4,147.9 479.4,147.3 485.6,150.9 						"/>
					</g>
					<g>
						<polygon class="st21" points="485.6,154.1 479.4,150.6 479.4,150 485.6,153.6 						"/>
					</g>
				</g>
			</g>
			<path class="st34" d="M421,231.1l-28.4-15.5c0,0,0,0,0.1,0L421,231.1C421,231.2,421,231.2,421,231.1L421,231.1z"/>
			
				<linearGradient id="SVGID_00000070093346786664689070000015365509211006846881_" gradientUnits="userSpaceOnUse" x1="456.8347" y1="190.4214" x2="456.8347" y2="118.2922">
				<stop offset="0" style="stop-color:#CFD0D0"/>
				<stop offset="0.6607" style="stop-color:#C6C6C6"/>
				<stop offset="1" style="stop-color:#C0BFBF"/>
			</linearGradient>
			<path style="fill:url(#SVGID_00000070093346786664689070000015365509211006846881_);" d="M470.8,184.9l0.1-46.3
				c0-2.4-0.7-4.1-2-4.8l-28.4-15.5c1.3,0.7,2,2.4,2,4.8l-0.1,46.3c0,2.8,0.8,4.7,2.4,5.6l28.4,15.5
				C471.7,189.6,470.8,187.6,470.8,184.9z"/>
			
				<linearGradient id="SVGID_00000045592897540904566420000016278945456183158958_" gradientUnits="userSpaceOnUse" x1="442.0404" y1="213.8312" x2="442.0404" y2="117.532">
				<stop offset="0" style="stop-color:#D2D2D2"/>
				<stop offset="0.3877" style="stop-color:#DCDCDB"/>
				<stop offset="1" style="stop-color:#F5F6F6"/>
			</linearGradient>
			<path style="fill:url(#SVGID_00000045592897540904566420000016278945456183158958_);" d="M468.9,133.3c-5-2.3-13.7,8.6-13.7,17.3
				l-0.1,48.3c0,7.8-7.7,16.6-11.5,14.7c0,0,0,0,0,0l-28.4-15.4c0,0,0,0,0,0c3.7,1.9,11.5-6.7,11.5-14.7l0.1-48.3
				c0-8.9,8.8-19.6,13.7-17.2c0,0,0,0,0,0L468.9,133.3z"/>
			
				<linearGradient id="SVGID_00000172420490675351315340000014122425014119346581_" gradientUnits="userSpaceOnUse" x1="427.3988" y1="213.8765" x2="427.3988" y2="178.5568">
				<stop offset="0" style="stop-color:#CFD0D0"/>
				<stop offset="0.6607" style="stop-color:#C6C6C6"/>
				<stop offset="1" style="stop-color:#C0BFBF"/>
			</linearGradient>
			<path style="fill:url(#SVGID_00000172420490675351315340000014122425014119346581_);" d="M441.3,209.4l0-12
				c0-1.7-0.5-2.9-1.4-3.4l-28.4-15.5c0.9,0.5,1.4,1.7,1.4,3.4l0,12c0,2.2,0.7,3.8,1.9,4.5l28.4,15.5
				C442,213.2,441.3,211.6,441.3,209.4z"/>
			<g class="st33">
				
					<linearGradient id="SVGID_00000176040729048225928550000006087533534103518854_" gradientUnits="userSpaceOnUse" x1="416.3589" y1="231.3897" x2="416.3589" y2="177.8912">
					<stop offset="0" style="stop-color:#D2D2D2"/>
					<stop offset="0.3877" style="stop-color:#DCDCDB"/>
					<stop offset="1" style="stop-color:#F5F6F6"/>
				</linearGradient>
				<path style="fill:url(#SVGID_00000176040729048225928550000006087533534103518854_);" d="M411.6,178.1c-3.6-1.8-9.6,6-9.6,12.1
					l0,13.6c0,6.3-6.2,13.5-9.4,11.9c0,0,28.4,15.4,28.4,15.5c3.1,1.5,9.3-5.6,9.3-11.9l0-13.6c0-6.1,6-13.9,9.6-12.1
					C439.8,193.5,411.6,178.1,411.6,178.1z"/>
				<path class="st34" d="M440.1,193.6l-28.4-15.5c0,0,0.1,0,0.1,0L440.1,193.6C440.1,193.6,440.1,193.6,440.1,193.6L440.1,193.6z"/>
			</g>
			<g>
				<polygon class="st40" points="419.2,221 390.8,205.6 391.2,205.5 419.6,221 				"/>
			</g>
			
				<linearGradient id="SVGID_00000121994938653608490340000017141489027250841002_" gradientUnits="userSpaceOnUse" x1="405.8061" y1="231.5035" x2="405.8061" y2="205.5792">
				<stop offset="0" style="stop-color:#D2D2D2"/>
				<stop offset="0.3877" style="stop-color:#DCDCDB"/>
				<stop offset="1" style="stop-color:#F5F6F6"/>
			</linearGradient>
			<path style="fill:url(#SVGID_00000121994938653608490340000017141489027250841002_);" d="M419.2,227.8l0-6.8l-28.4-15.5l0,6.8
				c0,1.8,0.6,3.1,1.6,3.7l28.4,15.5C419.8,230.9,419.2,229.6,419.2,227.8z"/>
			<g>
				<path class="st42" d="M499.1,87.1l0.2,0.3c-5.6,4.3-10.2,13.4-10.2,20.4l-0.1,63.4c0,5.8-3.8,13.4-8.4,16.9l-1.1,0.8
					c-1.3,1-2.6,1.6-3.8,1.8c-0.8,0.1-1.6,0-2.3-0.3c-1.6-0.8-2.5-2.8-2.5-5.6l0.1-46.3c0-2.5-0.8-4.2-2.1-4.9
					c-0.6-0.3-1.2-0.4-1.9-0.3c-1,0.1-2.2,0.7-3.3,1.6l-0.3,0.2c-4.2,3.2-7.6,10-7.6,15.3l-0.1,48.3c0,4.7-3.1,10.8-6.8,13.7
					l-0.3,0.2c-1.1,0.8-2.1,1.3-3.1,1.5c-0.7,0.1-1.3,0-1.8-0.3c-1.3-0.6-2.1-2.3-2.1-4.6l0-12c0-1.7-0.5-3-1.5-3.4
					c-0.4-0.2-0.8-0.2-1.3-0.2c-0.7,0.1-1.5,0.5-2.3,1.1c-3,2.3-5.4,7.1-5.4,10.8l0,13.6c0,3.8-2.5,8.8-5.6,11.1l-0.3,0.2
					c-0.9,0.7-1.7,1.1-2.5,1.2c-0.5,0.1-1.1,0-1.5-0.2c-1.1-0.5-1.7-1.9-1.7-3.7l0-6.8l0.4-0.1l0,6.8c0,1.7,0.5,3,1.5,3.4
					c0.4,0.2,0.8,0.2,1.3,0.2c0.7-0.1,1.5-0.5,2.3-1.1l0.3-0.2c3-2.3,5.4-7.1,5.4-10.8l0-13.6c0-3.8,2.5-8.8,5.6-11.1
					c0.9-0.7,1.7-1.1,2.5-1.2c0.5-0.1,1.1,0,1.5,0.2c1.1,0.5,1.7,1.9,1.7,3.7l0,12c0,2.2,0.7,3.7,1.9,4.3c0.5,0.2,1.1,0.3,1.7,0.2
					c0.9-0.1,1.9-0.6,2.9-1.4l0.3-0.2c3.7-2.8,6.6-8.8,6.7-13.3l0.1-48.3c0-5.3,3.5-12.4,7.8-15.6l0.3-0.2c1.2-0.9,2.4-1.5,3.5-1.7
					c0.8-0.1,1.5,0,2.1,0.3c1.5,0.7,2.3,2.6,2.3,5.2l-0.1,46.3c0,2.7,0.8,4.6,2.3,5.3c0.6,0.3,1.3,0.4,2.1,0.3
					c1.1-0.2,2.3-0.7,3.6-1.7l1.1-0.8c4.5-3.5,8.3-10.9,8.3-16.5l0.1-63.4C488.7,100.8,493.4,91.4,499.1,87.1z"/>
			</g>
			<g>
				<g>
					<polygon class="st21" points="441.6,145.4 429.1,138.2 429.1,137.6 441.6,144.8 					"/>
				</g>
				<g>
					<polygon class="st21" points="441.6,148 429.1,140.9 429.1,140.3 441.6,147.5 					"/>
				</g>
				<g>
					<polygon class="st21" points="441.6,150.7 429.1,143.5 429.1,142.9 441.6,150.1 					"/>
				</g>
				<g>
					<polygon class="st21" points="441.6,153.3 429.1,146.2 429.1,145.6 441.6,152.8 					"/>
				</g>
			</g>
			<g>
				<g>
					<polygon class="st21" points="451.8,151.3 445.6,147.7 445.6,147.2 451.8,150.7 					"/>
				</g>
				<g>
					<polygon class="st21" points="451.8,154 445.6,150.4 445.6,149.8 451.8,153.4 					"/>
				</g>
				<g>
					<polygon class="st21" points="451.8,156.6 445.6,153 445.6,152.4 451.8,156 					"/>
				</g>
				<g>
					<polygon class="st21" points="451.8,159.3 445.6,155.7 445.6,155.1 451.8,158.7 					"/>
				</g>
			</g>
			<g>
				<g>
					<polygon class="st21" points="441.6,156 429.1,148.8 429.1,148.2 441.6,155.4 					"/>
				</g>
				<g>
					<polygon class="st21" points="441.6,158.6 429.1,151.4 429.1,150.9 441.6,158.1 					"/>
				</g>
				<g>
					<polygon class="st21" points="441.6,161.3 429.1,154.1 429.1,153.5 441.6,160.7 					"/>
				</g>
				<g>
					<polygon class="st21" points="441.6,163.9 429.1,156.7 429.1,156.2 441.6,163.3 					"/>
				</g>
			</g>
			<g>
				<g>
					<polygon class="st21" points="451.8,161.9 445.6,158.3 445.6,157.7 451.8,161.3 					"/>
				</g>
				<g>
					<polygon class="st21" points="451.8,164.6 445.6,161 445.6,160.4 451.8,164 					"/>
				</g>
				<g>
					<polygon class="st21" points="451.8,167.2 445.6,163.6 445.6,163 451.8,166.6 					"/>
				</g>
				<g>
					<polygon class="st21" points="451.8,169.8 445.6,166.3 445.6,165.7 451.8,169.3 					"/>
				</g>
			</g>
			<g>
				<g>
					<polygon class="st21" points="441.6,166.6 429.1,159.4 429.1,158.8 441.6,166 					"/>
				</g>
				<g>
					<polygon class="st21" points="441.6,169.2 429.1,162 429.1,161.5 441.6,168.6 					"/>
				</g>
				<g>
					<polygon class="st21" points="441.6,171.9 429.1,164.7 429.1,164.1 441.6,171.3 					"/>
				</g>
				<g>
					<polygon class="st21" points="441.6,174.5 429.1,167.3 429.1,166.7 441.6,173.9 					"/>
				</g>
			</g>
			<g>
				<g>
					<polygon class="st21" points="451.8,172.5 445.6,168.9 445.6,168.3 451.8,171.9 					"/>
				</g>
				<g>
					<polygon class="st21" points="451.8,175.1 445.6,171.5 445.6,171 451.8,174.6 					"/>
				</g>
				<g>
					<polygon class="st21" points="451.8,177.8 445.6,174.2 445.6,173.6 451.8,177.2 					"/>
				</g>
				<g>
					<polygon class="st21" points="451.8,180.4 445.6,176.8 445.6,176.3 451.8,179.9 					"/>
				</g>
			</g>
			<g>
				<g>
					<polygon class="st21" points="441.6,156 429.1,148.8 429.1,148.2 441.6,155.4 					"/>
				</g>
				<g>
					<polygon class="st21" points="441.6,158.6 429.1,151.4 429.1,150.9 441.6,158.1 					"/>
				</g>
				<g>
					<polygon class="st21" points="441.6,161.3 429.1,154.1 429.1,153.5 441.6,160.7 					"/>
				</g>
				<g>
					<polygon class="st21" points="441.6,163.9 429.1,156.7 429.1,156.2 441.6,163.3 					"/>
				</g>
			</g>
			<g>
				<g>
					<polygon class="st21" points="451.8,161.9 445.6,158.3 445.6,157.7 451.8,161.3 					"/>
				</g>
				<g>
					<polygon class="st21" points="451.8,164.6 445.6,161 445.6,160.4 451.8,164 					"/>
				</g>
				<g>
					<polygon class="st21" points="451.8,167.2 445.6,163.6 445.6,163 451.8,166.6 					"/>
				</g>
				<g>
					<polygon class="st21" points="451.8,169.8 445.6,166.3 445.6,165.7 451.8,169.3 					"/>
				</g>
			</g>
			<g>
				<g>
					<polygon class="st21" points="441.6,166.6 429.1,159.4 429.1,158.8 441.6,166 					"/>
				</g>
				<g>
					<polygon class="st21" points="441.6,169.2 429.1,162 429.1,161.5 441.6,168.6 					"/>
				</g>
				<g>
					<polygon class="st21" points="441.6,171.9 429.1,164.7 429.1,164.1 441.6,171.3 					"/>
				</g>
				<g>
					<polygon class="st21" points="441.6,174.5 429.1,167.3 429.1,166.7 441.6,173.9 					"/>
				</g>
			</g>
			<g>
				<g>
					<polygon class="st21" points="451.8,172.5 445.6,168.9 445.6,168.3 451.8,171.9 					"/>
				</g>
				<g>
					<polygon class="st21" points="451.8,175.1 445.6,171.5 445.6,171 451.8,174.6 					"/>
				</g>
				<g>
					<polygon class="st21" points="451.8,177.8 445.6,174.2 445.6,173.6 451.8,177.2 					"/>
				</g>
				<g>
					<polygon class="st21" points="451.8,180.4 445.6,176.8 445.6,176.3 451.8,179.9 					"/>
				</g>
			</g>
			<g>
				<g>
					<polygon class="st21" points="416.2,201.6 403.8,194.4 403.8,193.8 416.2,201 					"/>
				</g>
				<g>
					<polygon class="st21" points="416.2,204.2 403.8,197.1 403.8,196.5 416.2,203.7 					"/>
				</g>
				<g>
					<polygon class="st21" points="416.2,206.9 403.8,199.7 403.8,199.1 416.2,206.3 					"/>
				</g>
				<g>
					<polygon class="st21" points="416.2,209.5 403.8,202.4 403.8,201.8 416.2,209 					"/>
				</g>
			</g>
			<g>
				<g>
					<polygon class="st21" points="426.5,207.5 420.3,203.9 420.3,203.4 426.5,206.9 					"/>
				</g>
				<g>
					<polygon class="st21" points="426.5,210.2 420.3,206.6 420.3,206 426.5,209.6 					"/>
				</g>
				<g>
					<polygon class="st21" points="426.5,212.8 420.3,209.2 420.3,208.6 426.5,212.2 					"/>
				</g>
				<g>
					<polygon class="st21" points="426.5,215.5 420.3,211.9 420.3,211.3 426.5,214.9 					"/>
				</g>
			</g>
		</g>
		<g>
			<g>
				<g id="XMLID_2024_">
					<polygon id="XMLID_2027_" class="st43" points="151.7,218.8 138.7,226.4 138.7,89.7 151.7,82.2 					"/>
					<polygon id="XMLID_2026_" class="st44" points="138.7,226.4 125.6,218.8 125.6,82.2 138.7,89.7 					"/>
					<polygon id="XMLID_2025_" class="st45" points="138.7,89.7 125.6,82.2 138.7,74.6 151.7,82.2 					"/>
				</g>
				<g id="XMLID_2028_">
					<polygon id="XMLID_2031_" class="st46" points="135.7,228.1 122.6,235.6 122.6,140 135.7,132.4 					"/>
					<polygon id="XMLID_2030_" class="st47" points="122.6,235.6 109.5,228.1 109.5,132.4 122.6,140 					"/>
					<polygon id="XMLID_2029_" class="st19" points="122.6,140 109.5,132.4 122.6,124.9 135.7,132.4 					"/>
				</g>
				<g id="XMLID_2032_">
					<polygon id="XMLID_2035_" class="st44" points="106.5,244.9 93.4,237.4 93.4,120.6 106.5,128.2 					"/>
					<polygon id="XMLID_2034_" class="st45" points="106.5,128.2 93.4,120.6 106.5,113 119.6,120.6 					"/>
					<polygon id="XMLID_2033_" class="st43" points="119.6,237.4 106.5,244.9 106.5,128.2 119.6,120.6 					"/>
				</g>
				<g id="XMLID_2036_">
					<polygon id="XMLID_2039_" class="st46" points="103.6,246.6 90.5,254.2 90.5,145 103.6,137.5 					"/>
					<polygon id="XMLID_2038_" class="st47" points="90.5,254.2 77.4,246.6 77.4,137.5 90.5,145 					"/>
					<polygon id="XMLID_2037_" class="st19" points="90.5,145 77.4,137.5 90.5,129.9 103.6,137.5 					"/>
				</g>
				<g id="XMLID_2040_">
					<polygon id="XMLID_2332_" class="st43" points="87.5,255.9 74.4,263.5 74.4,182 87.5,174.4 					"/>
					<polygon id="XMLID_2331_" class="st44" points="74.4,263.5 61.3,255.9 61.3,174.4 74.4,182 					"/>
					<polygon id="XMLID_2301_" class="st45" points="74.4,182 61.3,174.4 74.4,166.9 87.5,174.4 					"/>
				</g>
				<g id="XMLID_2333_">
					<polygon id="XMLID_2336_" class="st46" points="71.4,265.2 58.3,272.7 58.3,243.9 71.4,236.4 					"/>
					<polygon id="XMLID_2335_" class="st47" points="58.3,272.7 45.3,265.2 45.3,236.4 58.3,243.9 					"/>
					<polygon id="XMLID_2334_" class="st19" points="58.3,243.9 45.3,236.4 58.3,228.8 71.4,236.4 					"/>
				</g>
				<g id="XMLID_2337_">
					<polygon id="XMLID_2340_" class="st44" points="42.3,282 29.2,274.5 29.2,220.5 42.3,228 					"/>
					<polygon id="XMLID_2339_" class="st45" points="42.3,228 29.2,220.5 42.3,212.9 55.4,220.5 					"/>
					<polygon id="XMLID_2338_" class="st43" points="55.4,274.5 42.3,282 42.3,228 55.4,220.5 					"/>
				</g>
				<g id="XMLID_2341_">
					<polygon id="XMLID_2344_" class="st46" points="39.3,283.7 26.2,291.3 26.2,252.6 39.3,245.1 					"/>
					<polygon id="XMLID_2343_" class="st47" points="26.2,291.3 13.1,283.7 13.1,245.1 26.2,252.6 					"/>
					<polygon id="XMLID_2342_" class="st19" points="26.2,252.6 13.1,245.1 26.2,237.5 39.3,245.1 					"/>
				</g>
			</g>
			<polygon id="XMLID_2018_" class="st20" points="165.7,80.2 142.6,102.4 149.3,105.4 102.5,194.1 70.5,195.9 28.3,282 33.9,283.8 
				72.7,204.9 104.4,203.1 154.7,107.8 160.9,110.6 			"/>
		</g>
		<g>
			<path id="XMLID_1108_" class="st48" d="M197,117.1v116.5c0,3.4,2.1,7.4,4.7,8.9l169.2,97.7c1.2,0.7,2.2,0.7,3.1,0.2
				c0.5-0.3,0.9-0.8,1.2-1.4c0.3-0.6,0.4-1.4,0.4-2.4V220.2c0-3.4-2.1-7.4-4.7-8.9l-169.2-97.7c-0.5-0.3-0.9-0.4-1.3-0.5
				c-0.6-0.1-1.2,0-1.7,0.3C197.6,113.9,197,115.2,197,117.1z"/>
			<path id="XMLID_1107_" class="st49" d="M198.6,113.3c0.5-0.3,1.1-0.4,1.7-0.3c0.4,0.1,0.9,0.2,1.3,0.5l169.2,97.7
				c2.6,1.5,4.7,5.5,4.7,8.9v116.5c0,0.9-0.1,1.7-0.4,2.4c-0.3,0.7-0.7,1.1-1.2,1.4l2.9-1.7c1-0.6,1.6-1.9,1.6-3.8V218.5
				c0-3.4-2.1-7.4-4.7-8.9l-169.2-97.7c-1.2-0.7-2.2-0.7-3.1-0.2L198.6,113.3z"/>
			<path id="XMLID_1106_" class="st49" d="M284.4,165.8c0,1.2,0.8,2.6,1.8,3.1c1,0.6,1.8,0.1,1.8-1c0-1.2-0.8-2.6-1.8-3.1
				C285.3,164.2,284.4,164.7,284.4,165.8z"/>
			
				<linearGradient id="SVGID_00000054953084085309841210000011811604818161554870_" gradientUnits="userSpaceOnUse" x1="368.0575" y1="219.7862" x2="203.2276" y2="237.4818">
				<stop offset="0" style="stop-color:#7EAFDE"/>
				<stop offset="0.4146" style="stop-color:#76A7D9"/>
				<stop offset="1" style="stop-color:#6396CF"/>
			</linearGradient>
			<polygon style="fill:url(#SVGID_00000054953084085309841210000011811604818161554870_);" points="369.4,219.4 369.4,333.7 
				306,297.1 288.7,287.1 215.9,245.1 203.1,237.7 203.1,123.4 276.4,165.8 284.9,170.7 304.3,181.9 321.6,191.8 			"/>
			<g>
				<path id="XMLID_1105_" class="st48" d="M94,301v6.5c0,1.1,0.7,2.2,2.2,3.1l163.7,94.5c2.9,1.7,7.7,1.7,10.6,0l95.4-55.1
					c1.5-0.8,2.2-2,2.2-3.1v-6.5c0,1.1-0.7,2.2-2.2,3.1l-0.3,0.2l-95.1,54.9c-2.9,1.7-7.7,1.7-10.6,0L96.5,304.3l-0.3-0.2
					C94.7,303.2,94,302.1,94,301z"/>
				<path class="st49" d="M368.1,340.5c0,1.1-0.7,2.2-2.2,3l-0.3,0.2l-95.1,54.9c-2.9,1.7-7.7,1.7-10.6,0L96.5,304.3l-0.3-0.2
					c-1.5-0.8-2.2-1.9-2.2-3.1s0.7-2.2,2.2-3.1l95.4-55.1c2.9-1.7,7.7-1.7,10.6,0l18.1,10.5l0.8,0.5l8.2,4.7l0.7,0.4l105.1,60.7h0
					l0.6,0.3l8.3,4.8l0.7,0.4l21.2,12.3C367.3,338.3,368.1,339.4,368.1,340.5z"/>
				<path id="XMLID_1104_" class="st51" d="M224.7,343.1c-0.1,0.1-0.2,0.1-0.3,0.2l-20.2,11.7c-0.8,0.5-2.1,0.5-2.9,0l-34.8-20.1
					c-0.1-0.1-0.2-0.1-0.3-0.2c-0.5-0.5-0.4-1.1,0.3-1.5l20.2-11.6c0.8-0.5,2.1-0.5,2.9,0l34.9,20.1
					C225.1,342,225.2,342.6,224.7,343.1z"/>
				<path id="XMLID_1103_" class="st52" d="M224.7,343.1c-0.1,0.1-0.2,0.1-0.3,0.2l-20.2,11.7c-0.8,0.5-2.1,0.5-2.9,0l-34.8-20.1
					c-0.1-0.1-0.2-0.1-0.3-0.2c0.1-0.1,0.2-0.2,0.3-0.2l20.2-11.6c0.8-0.5,2.1-0.5,2.9,0l34.9,20.1
					C224.5,342.9,224.6,343,224.7,343.1z"/>
				<path id="XMLID_1102_" class="st51" d="M300.7,372.9l52.8-30.5c1.1-0.7,1-1.8-0.3-2.5l-155.3-89.7c-1.3-0.8-3.3-0.8-4.4-0.2
					l-52.8,30.5c-1.1,0.7-1,1.8,0.3,2.5l155.3,89.7C297.6,373.5,299.6,373.6,300.7,372.9z"/>
				<g id="XMLID_1002_">
					<g id="XMLID_1079_">
						<g id="XMLID_1100_">
							<polygon id="XMLID_1101_" class="st49" points="342.3,343.5 333.9,338.6 338.9,335.7 347.3,340.6 							"/>
						</g>
						<g id="XMLID_1098_">
							<polygon id="XMLID_1099_" class="st49" points="328.1,335.3 319.7,330.4 324.7,327.5 333.1,332.3 							"/>
						</g>
						<g id="XMLID_1096_">
							<polygon id="XMLID_1097_" class="st49" points="313.8,327 305.4,322.2 310.5,319.3 318.9,324.1 							"/>
						</g>
						<g id="XMLID_1094_">
							<polygon id="XMLID_1095_" class="st49" points="299.6,318.8 291.2,314 296.3,311.1 304.7,315.9 							"/>
						</g>
						<g id="XMLID_1092_">
							<polygon id="XMLID_1093_" class="st49" points="285.4,310.6 277,305.8 282,302.9 290.4,307.7 							"/>
						</g>
						<g id="XMLID_1090_">
							<polygon id="XMLID_1091_" class="st49" points="271.2,302.4 262.8,297.6 267.8,294.7 276.2,299.5 							"/>
						</g>
						<g id="XMLID_1088_">
							<polygon id="XMLID_1089_" class="st49" points="257,294.2 248.6,289.4 253.6,286.4 262,291.3 							"/>
						</g>
						<g id="XMLID_1086_">
							<polygon id="XMLID_1087_" class="st49" points="242.7,286 234.3,281.1 239.4,278.2 247.8,283.1 							"/>
						</g>
						<g id="XMLID_1084_">
							<polygon id="XMLID_1085_" class="st49" points="228.5,277.8 220.1,272.9 225.2,270 233.6,274.9 							"/>
						</g>
						<g id="XMLID_1082_">
							<polygon id="XMLID_1083_" class="st49" points="214.3,269.6 205.9,264.7 210.9,261.8 219.3,266.7 							"/>
						</g>
						<g id="XMLID_1080_">
							<polygon id="XMLID_1081_" class="st49" points="200.1,261.4 191.7,256.5 196.7,253.6 205.1,258.5 							"/>
						</g>
					</g>
					<g id="XMLID_1058_">
						<g id="XMLID_1077_">
							<polygon id="XMLID_1078_" class="st49" points="331.3,349.8 308.7,336.7 315.2,333 337.8,346 							"/>
						</g>
						<g id="XMLID_1075_">
							<polygon id="XMLID_1076_" class="st49" points="302.9,333.4 294.5,328.5 301,324.8 309.4,329.6 							"/>
						</g>
						<g id="XMLID_1073_">
							<polygon id="XMLID_1074_" class="st49" points="288.7,325.2 280.3,320.3 286.8,316.6 295.2,321.4 							"/>
						</g>
						<g id="XMLID_1071_">
							<polygon id="XMLID_1072_" class="st49" points="274.4,317 266,312.1 272.6,308.3 281,313.2 							"/>
						</g>
						<g id="XMLID_1069_">
							<polygon id="XMLID_1070_" class="st49" points="260.2,308.7 251.8,303.9 258.3,300.1 266.7,305 							"/>
						</g>
						<g id="XMLID_1067_">
							<polygon id="XMLID_1068_" class="st49" points="246,300.5 237.6,295.7 244.1,291.9 252.5,296.8 							"/>
						</g>
						<g id="XMLID_1065_">
							<polygon id="XMLID_1066_" class="st49" points="231.8,292.3 223.4,287.5 229.9,283.7 238.3,288.6 							"/>
						</g>
						<g id="XMLID_1063_">
							<polygon id="XMLID_1064_" class="st49" points="217.6,284.1 209.2,279.3 215.7,275.5 224.1,280.3 							"/>
						</g>
						<g id="XMLID_1061_">
							<polygon id="XMLID_1062_" class="st49" points="203.3,275.9 194.9,271.1 201.5,267.3 209.9,272.1 							"/>
						</g>
						<g id="XMLID_1059_">
							<polygon id="XMLID_1060_" class="st49" points="189.1,267.7 180.7,262.8 187.2,259.1 195.6,263.9 							"/>
						</g>
					</g>
					<g id="XMLID_1043_">
						<g id="XMLID_1056_">
							<polygon id="XMLID_1057_" class="st49" points="268.9,353 260.5,348.1 267.1,344.4 275.4,349.2 							"/>
						</g>
						<g id="XMLID_1054_">
							<polygon id="XMLID_1055_" class="st49" points="283.2,361.2 274.8,356.3 281.3,352.6 289.7,357.4 							"/>
						</g>
						<g id="XMLID_1052_">
							<polygon id="XMLID_1053_" class="st49" points="297.4,369.4 289,364.5 295.5,360.8 303.9,365.6 							"/>
						</g>
						<g id="XMLID_1050_">
							<polygon id="XMLID_1051_" class="st49" points="254.7,344.8 189.4,307.1 195.9,303.3 261.2,341 							"/>
						</g>
						<g id="XMLID_1048_">
							<polygon id="XMLID_1049_" class="st49" points="183.6,303.7 175.2,298.9 181.7,295.1 190.1,299.9 							"/>
						</g>
						<g id="XMLID_1046_">
							<polygon id="XMLID_1047_" class="st49" points="169.4,295.5 161,290.7 167.5,286.9 175.9,291.7 							"/>
						</g>
						<g id="XMLID_1044_">
							<polygon id="XMLID_1045_" class="st49" points="155.2,287.3 146.8,282.4 153.3,278.7 161.7,283.5 							"/>
						</g>
					</g>
					<g id="XMLID_1022_">
						<g id="XMLID_1041_">
							<polygon id="XMLID_1042_" class="st49" points="320.7,356 306.4,347.7 313,344 327.2,352.2 							"/>
						</g>
						<g id="XMLID_1039_">
							<polygon id="XMLID_1040_" class="st49" points="299.9,344 291.5,339.1 298,335.4 306.4,340.2 							"/>
						</g>
						<g id="XMLID_1037_">
							<polygon id="XMLID_1038_" class="st49" points="285.8,335.7 277.5,330.8 284,327.1 292.4,331.9 							"/>
						</g>
						<g id="XMLID_1035_">
							<polygon id="XMLID_1036_" class="st49" points="271.6,327.5 263.2,322.6 269.7,318.9 278.1,323.7 							"/>
						</g>
						<g id="XMLID_1033_">
							<polygon id="XMLID_1034_" class="st49" points="257.4,319.3 249,314.4 255.5,310.7 263.9,315.5 							"/>
						</g>
						<g id="XMLID_1031_">
							<polygon id="XMLID_1032_" class="st49" points="243.2,311 234.8,306.2 241.3,302.4 249.7,307.3 							"/>
						</g>
						<g id="XMLID_1029_">
							<polygon id="XMLID_1030_" class="st49" points="229,302.8 220.6,298 227.1,294.2 235.5,299.1 							"/>
						</g>
						<g id="XMLID_1027_">
							<polygon id="XMLID_1028_" class="st49" points="214.7,294.6 206.3,289.8 212.9,286 221.3,290.9 							"/>
						</g>
						<g id="XMLID_1025_">
							<polygon id="XMLID_1026_" class="st49" points="200.5,286.4 192.1,281.6 198.6,277.8 207,282.7 							"/>
						</g>
						<g id="XMLID_1023_">
							<polygon id="XMLID_1024_" class="st49" points="184.3,277.2 170.1,269 176.6,265.2 190.8,273.4 							"/>
						</g>
					</g>
					<g id="XMLID_1003_">
						<g id="XMLID_1020_">
							<polygon id="XMLID_1021_" class="st49" points="309.3,362.5 290.8,351.9 297.4,348.1 315.8,358.8 							"/>
						</g>
						<g id="XMLID_1018_">
							<polygon id="XMLID_1019_" class="st49" points="280.8,346.1 272.4,341.3 278.9,337.5 287.3,342.4 							"/>
						</g>
						<g id="XMLID_1016_">
							<polygon id="XMLID_1017_" class="st49" points="266.7,337.8 258.3,333 264.9,329.2 273.3,334.1 							"/>
						</g>
						<g id="XMLID_1014_">
							<polygon id="XMLID_1015_" class="st49" points="252.5,329.6 244.1,324.8 250.6,321 259,325.8 							"/>
						</g>
						<g id="XMLID_1012_">
							<polygon id="XMLID_1013_" class="st49" points="238.3,321.4 229.9,316.6 236.4,312.8 244.8,317.6 							"/>
						</g>
						<g id="XMLID_1010_">
							<polygon id="XMLID_1011_" class="st49" points="224.1,313.2 215.7,308.3 222.2,304.6 230.6,309.4 							"/>
						</g>
						<g id="XMLID_1008_">
							<polygon id="XMLID_1009_" class="st49" points="209.9,305 201.5,300.1 208,296.4 216.4,301.2 							"/>
						</g>
						<g id="XMLID_1006_">
							<polygon id="XMLID_1007_" class="st49" points="195.6,296.8 187.2,291.9 193.8,288.2 202.1,293 							"/>
						</g>
						<g id="XMLID_1004_">
							<polygon id="XMLID_1005_" class="st49" points="177.1,286.2 158.6,275.6 165.2,271.8 183.6,282.5 							"/>
						</g>
					</g>
				</g>
				<g id="XMLID_78_">
					<g id="XMLID_979_">
						<g id="XMLID_1000_">
							<polygon id="XMLID_1001_" class="st53" points="342.3,342.5 333.9,337.6 338.9,334.7 347.3,339.6 							"/>
						</g>
						<g id="XMLID_998_">
							<polygon id="XMLID_999_" class="st53" points="328.1,334.3 319.7,329.4 324.7,326.5 333.1,331.4 							"/>
						</g>
						<g id="XMLID_996_">
							<polygon id="XMLID_997_" class="st53" points="313.8,326.1 305.4,321.2 310.5,318.3 318.9,323.2 							"/>
						</g>
						<g id="XMLID_994_">
							<polygon id="XMLID_995_" class="st53" points="299.6,317.9 291.2,313 296.3,310.1 304.7,315 							"/>
						</g>
						<g id="XMLID_992_">
							<polygon id="XMLID_993_" class="st53" points="285.4,309.7 277,304.8 282,301.9 290.4,306.7 							"/>
						</g>
						<g id="XMLID_990_">
							<polygon id="XMLID_991_" class="st53" points="271.2,301.4 262.8,296.6 267.8,293.7 276.2,298.5 							"/>
						</g>
						<g id="XMLID_988_">
							<polygon id="XMLID_989_" class="st53" points="257,293.2 248.6,288.4 253.6,285.5 262,290.3 							"/>
						</g>
						<g id="XMLID_986_">
							<polygon id="XMLID_987_" class="st53" points="242.7,285 234.3,280.2 239.4,277.3 247.8,282.1 							"/>
						</g>
						<g id="XMLID_984_">
							<polygon id="XMLID_985_" class="st53" points="228.5,276.8 220.1,272 225.2,269.1 233.6,273.9 							"/>
						</g>
						<g id="XMLID_982_">
							<polygon id="XMLID_983_" class="st53" points="214.3,268.6 205.9,263.8 210.9,260.8 219.3,265.7 							"/>
						</g>
						<g id="XMLID_980_">
							<polygon id="XMLID_981_" class="st53" points="200.1,260.4 191.7,255.5 196.7,252.6 205.1,257.5 							"/>
						</g>
					</g>
					<g id="XMLID_958_">
						<g id="XMLID_977_">
							<polygon id="XMLID_978_" class="st53" points="331.3,348.8 308.7,335.8 315.2,332 337.8,345.1 							"/>
						</g>
						<g id="XMLID_975_">
							<polygon id="XMLID_976_" class="st53" points="302.9,332.4 294.5,327.6 301,323.8 309.4,328.6 							"/>
						</g>
						<g id="XMLID_973_">
							<polygon id="XMLID_974_" class="st53" points="288.7,324.2 280.3,319.3 286.8,315.6 295.2,320.4 							"/>
						</g>
						<g id="XMLID_971_">
							<polygon id="XMLID_972_" class="st53" points="274.4,316 266,311.1 272.6,307.4 281,312.2 							"/>
						</g>
						<g id="XMLID_969_">
							<polygon id="XMLID_970_" class="st53" points="260.2,307.8 251.8,302.9 258.3,299.2 266.7,304 							"/>
						</g>
						<g id="XMLID_967_">
							<polygon id="XMLID_968_" class="st53" points="246,299.6 237.6,294.7 244.1,290.9 252.5,295.8 							"/>
						</g>
						<g id="XMLID_965_">
							<polygon id="XMLID_966_" class="st53" points="231.8,291.3 223.4,286.5 229.9,282.7 238.3,287.6 							"/>
						</g>
						<g id="XMLID_963_">
							<polygon id="XMLID_964_" class="st53" points="217.6,283.1 209.2,278.3 215.7,274.5 224.1,279.4 							"/>
						</g>
						<g id="XMLID_961_">
							<polygon id="XMLID_962_" class="st53" points="203.3,274.9 194.9,270.1 201.5,266.3 209.9,271.2 							"/>
						</g>
						<g id="XMLID_959_">
							<polygon id="XMLID_960_" class="st53" points="189.1,266.7 180.7,261.9 187.2,258.1 195.6,263 							"/>
						</g>
					</g>
					<g id="XMLID_943_">
						<g id="XMLID_956_">
							<polygon id="XMLID_957_" class="st53" points="268.9,352 260.5,347.2 267.1,343.4 275.4,348.2 							"/>
						</g>
						<g id="XMLID_954_">
							<polygon id="XMLID_955_" class="st53" points="283.2,360.2 274.8,355.4 281.3,351.6 289.7,356.4 							"/>
						</g>
						<g id="XMLID_952_">
							<polygon id="XMLID_953_" class="st53" points="297.4,368.4 289,363.6 295.5,359.8 303.9,364.7 							"/>
						</g>
						<g id="XMLID_950_">
							<polygon id="XMLID_951_" class="st53" points="254.7,343.8 189.4,306.1 195.9,302.3 261.2,340 							"/>
						</g>
						<g id="XMLID_948_">
							<polygon id="XMLID_949_" class="st53" points="183.6,302.7 175.2,297.9 181.7,294.1 190.1,299 							"/>
						</g>
						<g id="XMLID_946_">
							<polygon id="XMLID_947_" class="st53" points="169.4,294.5 161,289.7 167.5,285.9 175.9,290.8 							"/>
						</g>
						<g id="XMLID_944_">
							<polygon id="XMLID_945_" class="st53" points="155.2,286.3 146.8,281.5 153.3,277.7 161.7,282.6 							"/>
						</g>
					</g>
					<g id="XMLID_922_">
						<g id="XMLID_941_">
							<polygon id="XMLID_942_" class="st53" points="320.7,355 306.4,346.8 313,343 327.2,351.2 							"/>
						</g>
						<g id="XMLID_939_">
							<polygon id="XMLID_940_" class="st53" points="299.9,343 291.5,338.2 298,334.4 306.4,339.2 							"/>
						</g>
						<g id="XMLID_937_">
							<polygon id="XMLID_938_" class="st53" points="285.8,334.7 277.5,329.9 284,326.1 292.4,330.9 							"/>
						</g>
						<g id="XMLID_935_">
							<polygon id="XMLID_936_" class="st53" points="271.6,326.5 263.2,321.7 269.7,317.9 278.1,322.7 							"/>
						</g>
						<g id="XMLID_933_">
							<polygon id="XMLID_934_" class="st53" points="257.4,318.3 249,313.4 255.5,309.7 263.9,314.5 							"/>
						</g>
						<g id="XMLID_931_">
							<polygon id="XMLID_932_" class="st53" points="243.2,310.1 234.8,305.2 241.3,301.5 249.7,306.3 							"/>
						</g>
						<g id="XMLID_929_">
							<polygon id="XMLID_930_" class="st53" points="229,301.9 220.6,297 227.1,293.3 235.5,298.1 							"/>
						</g>
						<g id="XMLID_927_">
							<polygon id="XMLID_928_" class="st53" points="214.7,293.7 206.3,288.8 212.9,285 221.3,289.9 							"/>
						</g>
						<g id="XMLID_925_">
							<polygon id="XMLID_926_" class="st53" points="200.5,285.4 192.1,280.6 198.6,276.8 207,281.7 							"/>
						</g>
						<g id="XMLID_923_">
							<polygon id="XMLID_924_" class="st53" points="184.3,276.2 170.1,268 176.6,264.3 190.8,272.5 							"/>
						</g>
					</g>
					<g id="XMLID_903_">
						<g id="XMLID_920_">
							<polygon id="XMLID_921_" class="st53" points="309.3,361.6 290.8,350.9 297.4,347.2 315.8,357.8 							"/>
						</g>
						<g id="XMLID_918_">
							<polygon id="XMLID_919_" class="st53" points="280.8,345.1 272.4,340.3 278.9,336.5 287.3,341.4 							"/>
						</g>
						<g id="XMLID_916_">
							<polygon id="XMLID_917_" class="st53" points="266.7,336.8 258.3,332 264.9,328.2 273.3,333.1 							"/>
						</g>
						<g id="XMLID_914_">
							<polygon id="XMLID_915_" class="st53" points="252.5,328.6 244.1,323.8 250.6,320 259,324.9 							"/>
						</g>
						<g id="XMLID_912_">
							<polygon id="XMLID_913_" class="st53" points="238.3,320.4 229.9,315.6 236.4,311.8 244.8,316.7 							"/>
						</g>
						<g id="XMLID_910_">
							<polygon id="XMLID_911_" class="st53" points="224.1,312.2 215.7,307.4 222.2,303.6 230.6,308.5 							"/>
						</g>
						<g id="XMLID_908_">
							<polygon id="XMLID_909_" class="st53" points="209.9,304 201.5,299.2 208,295.4 216.4,300.2 							"/>
						</g>
						<g id="XMLID_906_">
							<polygon id="XMLID_907_" class="st53" points="195.6,295.8 187.2,290.9 193.8,287.2 202.1,292 							"/>
						</g>
						<g id="XMLID_904_">
							<polygon id="XMLID_905_" class="st53" points="177.1,285.2 158.6,274.6 165.2,270.8 183.6,281.5 							"/>
						</g>
					</g>
				</g>
				<polygon class="st49" points="229.3,258.5 223.3,262 214.3,256.8 220.3,253.4 221.1,253.8 				"/>
				<polygon class="st49" points="344.7,325.1 338.6,328.7 329.6,323.5 335.7,320 344,324.7 				"/>
			</g>
			<polygon class="st54" points="321.6,191.8 215.9,245.1 203.1,237.7 203.1,232.8 304.3,181.9 			"/>
			<polygon class="st54" points="369.4,246.5 369.4,265.2 306,297.1 288.7,287.1 			"/>
			<polygon class="st54" points="284.9,170.7 203.1,211.8 203.1,202.6 276.4,165.8 			"/>
		</g>
		<g>
			<g>
				<polygon class="st55" points="451.9,271.6 451.9,372.6 389.8,408.5 389.8,307.5 				"/>
				<path class="st13" d="M471.3,286.9c-13.1,7.6-50.3,29-56.2,32.4c-0.4-0.3-1.2-0.7-2.2-1.2c-0.3-0.2-0.7-0.4-1.1-0.6
					c-0.4-0.2-0.7-0.4-1.1-0.7c-0.3-0.2-0.7-0.4-1.1-0.6c-1.6-0.9-3.3-1.9-5.1-3c-0.4-0.2-0.7-0.4-1.1-0.6c-1.8-1-3.5-2-5.1-3
					c-0.4-0.2-0.7-0.4-1.1-0.6c-1-0.6-1.9-1.1-2.6-1.5l56.2-32.4c0.9,0.5,1.8,1,2.6,1.5c0.4,0.2,0.7,0.4,1.1,0.6
					c1.9,1.1,3.6,2.1,5.1,3c0.4,0.2,0.7,0.4,1.1,0.6c2.1,1.2,3.8,2.2,5.1,3c0.4,0.2,0.7,0.4,1.1,0.6c0.4,0.2,0.8,0.5,1.1,0.7
					c0.4,0.2,0.8,0.4,1.1,0.6C470,286.2,470.7,286.6,471.3,286.9z"/>
				<path class="st30" d="M454.5,277.2l-56.2,32.4c-0.4-0.2-0.7-0.4-1.1-0.6l56.2-32.4C453.8,276.8,454.1,277,454.5,277.2z"/>
				<path class="st30" d="M460.7,280.8l-56.2,32.4c-0.4-0.2-0.7-0.4-1.1-0.6l56.2-32.4C460,280.4,460.4,280.6,460.7,280.8z"/>
				<path class="st30" d="M467,284.4l-56.2,32.4c-0.3-0.2-0.7-0.4-1.1-0.6l56.2-32.4C466.2,284,466.6,284.2,467,284.4z"/>
				<path class="st30" d="M469.2,285.7L413,318.1c-0.3-0.2-0.7-0.4-1.1-0.6l56.2-32.4C468.5,285.3,468.8,285.5,469.2,285.7z"/>
				<polygon class="st55" points="387.4,306.2 415.3,322.3 415.3,423.2 387.4,407.2 				"/>
				<polygon class="st56" points="477.5,286.4 477.5,387.4 415.3,423.2 415.3,322.3 				"/>
				<path class="st23" d="M408.9,395.5c0,4.8-3.4,6.8-7.5,4.4c-4.2-2.4-7.5-8.3-7.5-13.1c0-4.8,3.4-6.8,7.5-4.4
					C405.5,384.9,408.9,390.7,408.9,395.5z"/>
				<path class="st15" d="M408.3,395.2c0,4.4-3.1,6.2-6.9,4c-3.8-2.2-6.9-7.6-6.9-12c0-4.4,3.1-6.2,6.9-4
					C405.2,385.4,408.3,390.7,408.3,395.2z"/>
				<g>
					<path class="st57" d="M477.5,286.4l-3.5,2l-58.7,33.9l-23.2-13.4l-4.7-2.7l62.2-35.9l2.3,1.3l-59.7,34.5
						c0.5,0.3,1.3,0.8,2.4,1.4c5.7,3.3,18,10.4,20.6,11.9c5.9-3.4,43.1-24.9,56.2-32.4c1.5-0.9,2.7-1.6,3.5-2L477.5,286.4z"/>
				</g>
				<g>
					<g>
						<polygon class="st13" points="410.5,377.3 392.2,366.8 392.2,319.8 410.5,330.4 						"/>
						<polygon class="st58" points="410.5,335.9 392.2,325.3 392.2,319.8 410.5,330.4 						"/>
						<polygon class="st58" points="410.5,377.3 392.2,366.8 392.2,363 410.5,373.5 						"/>
					</g>
				</g>
			</g>
			<g>
				<polygon class="st55" points="466.2,291.9 466.2,392.8 404.1,428.7 404.1,327.7 				"/>
				<path class="st13" d="M485.6,307.1c-13.1,7.6-50.3,29-56.2,32.4c-0.4-0.3-1.2-0.7-2.2-1.2c-0.3-0.2-0.7-0.4-1.1-0.6
					c-0.4-0.2-0.7-0.4-1.1-0.7c-0.3-0.2-0.7-0.4-1.1-0.6c-1.6-0.9-3.3-1.9-5.1-3c-0.4-0.2-0.7-0.4-1.1-0.6c-1.8-1-3.5-2-5.1-3
					c-0.4-0.2-0.7-0.4-1.1-0.6c-1-0.6-1.9-1.1-2.6-1.5l56.2-32.4c0.9,0.5,1.8,1,2.6,1.5c0.4,0.2,0.7,0.4,1.1,0.6
					c1.9,1.1,3.6,2.1,5.1,3c0.4,0.2,0.7,0.4,1.1,0.6c2.1,1.2,3.8,2.2,5.1,3c0.4,0.2,0.7,0.4,1.1,0.6c0.4,0.2,0.8,0.5,1.1,0.7
					c0.4,0.2,0.8,0.4,1.1,0.6C484.3,306.4,485,306.8,485.6,307.1z"/>
				<path class="st30" d="M468.8,297.4l-56.2,32.4c-0.4-0.2-0.7-0.4-1.1-0.6l56.2-32.4C468.1,297,468.4,297.2,468.8,297.4z"/>
				<path class="st30" d="M475,301l-56.2,32.4c-0.4-0.2-0.7-0.4-1.1-0.6l56.2-32.4C474.3,300.6,474.7,300.8,475,301z"/>
				<path class="st30" d="M481.3,304.6L425.1,337c-0.3-0.2-0.7-0.4-1.1-0.6l56.2-32.4C480.5,304.2,480.9,304.4,481.3,304.6z"/>
				<path class="st30" d="M483.5,305.9l-56.2,32.4c-0.3-0.2-0.7-0.4-1.1-0.6l56.2-32.4C482.8,305.5,483.1,305.7,483.5,305.9z"/>
				<polygon class="st55" points="401.7,326.4 429.6,342.5 429.6,443.5 401.7,427.4 				"/>
				<polygon class="st59" points="491.8,306.6 491.8,407.6 429.6,443.5 429.6,342.5 				"/>
				<path class="st23" d="M423.2,415.7c0,4.8-3.4,6.8-7.5,4.4c-4.2-2.4-7.5-8.3-7.5-13.1c0-4.8,3.4-6.8,7.5-4.4
					C419.8,405.1,423.2,410.9,423.2,415.7z"/>
				<path class="st15" d="M422.6,415.4c0,4.4-3.1,6.2-6.9,4c-3.8-2.2-6.9-7.6-6.9-12c0-4.4,3.1-6.2,6.9-4
					C419.5,405.6,422.6,411,422.6,415.4z"/>
				<g>
					<path class="st57" d="M491.8,306.6l-3.5,2l-58.7,33.9l-23.2-13.4l-4.7-2.7l62.2-35.9l2.3,1.3l-59.7,34.5
						c0.5,0.3,1.3,0.8,2.4,1.4c5.7,3.3,18,10.4,20.6,11.9c5.9-3.4,43.1-24.9,56.2-32.4c1.5-0.9,2.7-1.6,3.5-2L491.8,306.6z"/>
				</g>
				<g>
					<g>
						<polygon class="st13" points="424.8,397.5 406.5,387 406.5,340 424.8,350.6 						"/>
						<polygon class="st20" points="424.8,356.1 406.5,345.5 406.5,340 424.8,350.6 						"/>
						<polygon class="st20" points="424.8,397.5 406.5,387 406.5,383.2 424.8,393.7 						"/>
					</g>
				</g>
			</g>
		</g>
		<g>
			<g>
				<polygon class="st60" points="357.7,274.6 342.1,246.7 310.1,258.1 278.6,226.9 259.7,236.3 235.4,199 214,193.2 214.4,191.8 
					236.3,197.8 260.2,234.5 278.8,225.1 310.5,256.5 342.7,244.9 358.9,274 				"/>
				<path class="st60" d="M217.1,194.2c0,1.8-1.3,2.6-2.9,1.6s-2.9-3.1-2.9-4.9s1.3-2.6,2.9-1.6
					C215.8,190.1,217.1,192.4,217.1,194.2z"/>
				<path class="st60" d="M238.7,200.1c0,1.8-1.3,2.6-2.9,1.6c-1.6-0.9-2.9-3.1-2.9-4.9c0-1.8,1.3-2.6,2.9-1.6
					C237.4,196,238.7,198.3,238.7,200.1z"/>
				<path class="st60" d="M262.3,236.2c0,1.8-1.3,2.6-2.9,1.6c-1.6-0.9-2.9-3.1-2.9-4.9c0-1.8,1.3-2.6,2.9-1.6
					C261,232.1,262.3,234.3,262.3,236.2z"/>
				<path class="st60" d="M312.6,258.6c0,1.8-1.3,2.6-2.9,1.6c-1.6-0.9-2.9-3.1-2.9-4.9c0-1.8,1.3-2.6,2.9-1.6
					C311.3,254.6,312.6,256.8,312.6,258.6z"/>
				<path class="st60" d="M345.2,247.8c0,1.8-1.3,2.6-2.9,1.6c-1.6-0.9-2.9-3.1-2.9-4.9c0-1.8,1.3-2.6,2.9-1.6
					S345.2,246,345.2,247.8z"/>
				<path class="st60" d="M361.1,275.1c0,1.8-1.3,2.6-2.9,1.6c-1.6-0.9-2.9-3.1-2.9-4.9c0-1.8,1.3-2.6,2.9-1.6
					C359.9,271,361.1,273.2,361.1,275.1z"/>
				<path class="st60" d="M281.4,228c0,1.8-1.3,2.6-2.9,1.6c-1.6-0.9-2.9-3.1-2.9-4.9c0-1.8,1.3-2.6,2.9-1.6
					C280.1,224,281.4,226.2,281.4,228z"/>
			</g>
		</g>
		<g>
			<g>
				<path class="st61" d="M78.7,362c0.4-0.2,0.8-0.5,1.2-0.7c2.6-1.7,4.5-3.7,5.6-5.8c0.8-1.5,1.1-3,1.1-4.5c0-4-2.6-7.9-7.9-11
					c-10.5-6.1-27.5-6.1-38,0c-5.2,3-7.9,7-7.9,11c0,1.5,0.4,3,1.1,4.5c1.1,2.1,2.9,4.1,5.6,5.8c0.4,0.2,0.8,0.5,1.2,0.7
					C51.2,368.1,68.2,368.1,78.7,362z M38,350.8c0.1-3.1,2.2-6.2,6.3-8.6c8.5-4.9,22.2-4.9,30.7,0c4.1,2.4,6.2,5.5,6.3,8.6
					c0,0.3,0,0.7,0,1c-0.1,0.7-0.2,1.3-0.5,2c-0.9,2.2-2.8,4.3-5.8,6.1c-8.5,4.9-22.2,4.9-30.7,0c-3-1.7-4.9-3.8-5.8-6.1
					c-0.3-0.7-0.4-1.3-0.5-2C38,351.5,38,351.2,38,350.8z"/>
				
					<linearGradient id="SVGID_00000072278050983606962050000008581053093675754662_" gradientUnits="userSpaceOnUse" x1="131.3663" y1="-1290.0358" x2="159.7259" y2="-1290.0358" gradientTransform="matrix(-0.5 0.866 -0.866 -0.5 -984.137 -421.0395)">
					<stop offset="0" style="stop-color:#373737"/>
					<stop offset="1" style="stop-color:#727272"/>
				</linearGradient>
				<path style="fill:url(#SVGID_00000072278050983606962050000008581053093675754662_);" d="M38.6,353.9c-0.4-1-0.6-2-0.5-3
					c0.1-3.1,2.2-6.2,6.3-8.6c8.5-4.9,22.2-4.9,30.7,0c4.1,2.4,6.2,5.5,6.3,8.6c0,1-0.1,2-0.5,3c-0.9-2.2-2.8-4.3-5.8-6.1
					c-8.5-4.9-22.2-4.9-30.7,0C41.4,349.5,39.4,351.6,38.6,353.9z"/>
				
					<linearGradient id="SVGID_00000164494242736402044650000016466880728161992578_" gradientUnits="userSpaceOnUse" x1="2580.1396" y1="458.4876" x2="2633.8508" y2="458.4876" gradientTransform="matrix(1 0 0 1 -2547.28 -96.3369)">
					<stop offset="0" style="stop-color:#373737"/>
					<stop offset="1" style="stop-color:#727272"/>
				</linearGradient>
				<path style="fill:url(#SVGID_00000164494242736402044650000016466880728161992578_);" d="M86.6,351.1v6.7c0,4-2.6,7.9-7.9,11
					c-10.5,6.1-27.5,6.1-38,0c-5.2-3-7.9-7-7.9-11v-6.7c0,1.5,0.4,3,1.1,4.5c1.2,2.4,3.5,4.6,6.7,6.5c10.5,6.1,27.5,6.1,38,0
					c3.3-1.9,5.5-4.1,6.7-6.5C86.2,354.1,86.6,352.6,86.6,351.1z"/>
				<path class="st64" d="M44.4,359.9c-3-1.7-4.9-3.8-5.8-6.1c-0.3-0.7-0.4-1.3-0.5-2c0.3-2.9,2.4-5.8,6.3-8.1
					c8.5-4.9,22.2-4.9,30.7,0c3.9,2.2,6,5.1,6.3,8.1c-0.1,0.7-0.2,1.3-0.5,2c-0.9,2.2-2.8,4.3-5.8,6.1
					C66.6,364.8,52.8,364.8,44.4,359.9z"/>
			</g>
			<g>
				<path class="st49" d="M5.8,390.4c0.6-0.4,1-1.1,1-2.2c0-2.2-1.5-4.8-3.4-5.8c-0.9-0.5-1.8-0.6-2.4-0.2c-0.6,0.4-1,1.1-1,2.2
					c0,2.2,1.5,4.8,3.4,5.8C4.3,390.7,5.2,390.7,5.8,390.4z"/>
				
					<linearGradient id="SVGID_00000093866742517287787190000004784065333031861436_" gradientUnits="userSpaceOnUse" x1="1248.8964" y1="1532.2538" x2="1258.4437" y2="1532.2538" gradientTransform="matrix(0.5 0.866 0.866 -0.5 -1931.286 55.6714)">
					<stop offset="0" style="stop-color:#727272"/>
					<stop offset="1" style="stop-color:#373737"/>
				</linearGradient>
				<path style="fill:url(#SVGID_00000093866742517287787190000004784065333031861436_);" d="M5.8,390.4l35.8-20.7
					c0.6-0.4,1-1.1,1-2.2c0-2.2-1.5-4.8-3.4-5.8c-0.9-0.5-1.8-0.6-2.4-0.2L1,382.1c0.6-0.4,1.5-0.3,2.4,0.2c1.9,1.1,3.4,3.7,3.4,5.8
					C6.8,389.3,6.4,390,5.8,390.4z"/>
			</g>
		</g>
		<g>
			<polygon class="st66" points="320.9,151.6 258.3,115.5 320.9,79.3 383.4,115.5 			"/>
			<polygon class="st67" points="320.9,131.7 258.3,95.6 320.9,59.5 383.4,95.6 			"/>
			<polygon class="st68" points="320.9,111.9 258.3,75.8 320.9,39.7 383.4,75.8 			"/>
			<polygon class="st69" points="320.9,92.1 258.3,56 320.9,19.8 383.4,56 			"/>
			<polygon class="st70" points="320.9,72.2 258.3,36.1 320.9,0 383.4,36.1 			"/>
		</g>
	</g>
</switch>

</svg>
