<?xml version="1.0" encoding="utf-8"?>
<!-- Generator: Adobe Illustrator 27.1.1, SVG Export Plug-In . SVG Version: 6.00 Build 0)  -->










<svg version="1.1" id="Layer_1" xmlns="http://www.w3.org/2000/svg" xmlns:xlink="http://www.w3.org/1999/xlink" x="0px" y="0px" viewBox="0 0 600 450" style="enable-background:new 0 0 600 450;" xml:space="preserve">
<style type="text/css">
	.st0{fill:#EEDFCF;}
	.st1{fill:#F3F2F2;}
	.st2{fill:#282752;}
	.st3{fill:#BF343B;}
	.st4{opacity:0.2;fill:#F3F2F2;}
	.st5{fill:#EA6C78;}
	.st6{opacity:0.4;fill:#FFFFFF;}
	.st7{fill:#FFB2A3;}
	.st8{fill:#182B3B;}
	.st9{fill:#34559C;}
	.st10{fill:#E3CCB3;}
	.st11{fill:#FFFFFF;}
</style>
<switch>
	
	<g>
		<g>
			<g>
				<polygon class="st0" points="575.1,239.5 216.4,446.6 0,321.6 358.6,114.6 				"/>
				<polygon class="st1" points="600,237.7 241.4,444.7 24.9,319.8 383.6,112.7 				"/>
				<path class="st2" d="M217.5,318.3L141,362.5l-25.2-14.6l76.5-44.2L217.5,318.3z M141,361.1l74.1-42.8l-22.8-13.1l-74.1,42.8
					L141,361.1z"/>
				<path class="st2" d="M265.4,290.6L216.3,319l-25.2-14.6l49.1-28.4L265.4,290.6z M216.3,317.6l46.7-26.9l-22.8-13.1l-46.7,26.9
					L216.3,317.6z"/>
				<path class="st2" d="M313.3,263l-49.1,28.4L239,276.8l49.1-28.4L313.3,263z M264.2,289.9l46.7-26.9l-22.8-13.1l-46.7,26.9
					L264.2,289.9z"/>
				<path class="st2" d="M361.2,235.3l-49.1,28.4l-25.2-14.6l49.1-28.4L361.2,235.3z M312.1,262.3l46.7-26.9L336,222.2l-46.7,26.9
					L312.1,262.3z"/>
				<path class="st2" d="M409.1,207.7L360,236.1l-25.2-14.6l49.1-28.4L409.1,207.7z M360,234.6l46.7-26.9l-22.8-13.1l-46.7,26.9
					L360,234.6z"/>
				<path class="st2" d="M457,180l-49.1,28.4l-25.2-14.6l49.1-28.4L457,180z M407.9,207l46.7-26.9l-22.8-13.1l-46.7,26.9L407.9,207z
					"/>
				<path class="st2" d="M408.4,152l-101.6,58.7l-18.2-10.5l101.6-58.7L408.4,152z M306.8,209.2l99.1-57.2l-15.7-9.1l-99.1,57.2
					L306.8,209.2z"/>
				<path class="st2" d="M234.2,327.9l-76.5,44.2l-17.8-10.3l76.5-44.2L234.2,327.9z M157.6,370.7l74.1-42.8l-15.4-8.9l-74.1,42.8
					L157.6,370.7z"/>
				<path class="st2" d="M282,300.2l-49.1,28.4l-17.8-10.3l49.1-28.4L282,300.2z M232.9,327.2l46.7-26.9l-15.4-8.9l-46.7,26.9
					L232.9,327.2z"/>
				<path class="st2" d="M329.9,272.6l-49.1,28.4L263,290.6l49.1-28.4L329.9,272.6z M280.8,299.5l46.7-26.9l-15.4-8.9l-46.7,26.9
					L280.8,299.5z"/>
				<path class="st2" d="M377.8,244.9l-49.1,28.4L310.9,263l49.1-28.4L377.8,244.9z M328.7,271.9l46.7-26.9l-15.4-8.9L313.3,263
					L328.7,271.9z"/>
				<path class="st2" d="M425.7,217.3l-49.1,28.4l-17.8-10.3l49.1-28.4L425.7,217.3z M376.6,244.2l46.7-26.9l-15.4-8.9l-46.7,26.9
					L376.6,244.2z"/>
				<path class="st2" d="M473.6,189.6L424.5,218l-17.8-10.3l49.1-28.4L473.6,189.6z M424.5,216.6l46.7-26.9l-15.4-8.9l-46.7,26.9
					L424.5,216.6z"/>
				<path class="st2" d="M250.8,337.5l-76.5,44.2l-17.8-10.3l76.5-44.2L250.8,337.5z M174.2,380.2l74.1-42.8l-15.4-8.9l-74.1,42.8
					L174.2,380.2z"/>
				<path class="st2" d="M298.7,309.8l-49.1,28.4l-17.8-10.3l49.1-28.4L298.7,309.8z M249.5,336.8l46.7-26.9l-15.4-8.9l-46.7,26.9
					L249.5,336.8z"/>
				<path class="st2" d="M346.5,282.2l-49.1,28.4l-17.8-10.3l49.1-28.4L346.5,282.2z M297.4,309.1l46.7-26.9l-15.4-8.9L282,300.2
					L297.4,309.1z"/>
				<path class="st2" d="M394.4,254.5l-49.1,28.4l-17.8-10.3l49.1-28.4L394.4,254.5z M345.3,281.5l46.7-26.9l-15.4-8.9l-46.7,26.9
					L345.3,281.5z"/>
				<path class="st2" d="M442.3,226.9l-49.1,28.4l-17.8-10.3l49.1-28.4L442.3,226.9z M393.2,253.8l46.7-26.9l-15.4-8.9l-46.7,26.9
					L393.2,253.8z"/>
				<path class="st2" d="M490.2,199.2l-49.1,28.4l-17.8-10.3l49.1-28.4L490.2,199.2z M441.1,226.2l46.7-26.9l-15.4-8.9l-46.7,26.9
					L441.1,226.2z"/>
				<path class="st2" d="M267.4,347.1l-76.5,44.2L173,381l76.5-44.2L267.4,347.1z M190.8,389.8l74.1-42.8l-15.4-8.9L175.5,381
					L190.8,389.8z"/>
				<path class="st2" d="M315.3,319.4l-49.1,28.4l-17.8-10.3l49.1-28.4L315.3,319.4z M266.1,346.4l46.7-26.9l-15.4-8.9l-46.7,26.9
					L266.1,346.4z"/>
				<path class="st2" d="M363.2,291.8L314,320.1l-17.8-10.3l49.1-28.4L363.2,291.8z M314,318.7l46.7-26.9l-15.4-8.9l-46.7,26.9
					L314,318.7z"/>
				<path class="st2" d="M411,264.1l-49.1,28.4l-17.8-10.3l49.1-28.4L411,264.1z M361.9,291l46.7-26.9l-15.4-8.9l-46.7,26.9
					L361.9,291z"/>
				<path class="st2" d="M458.9,236.5l-49.1,28.4L392,254.5l49.1-28.4L458.9,236.5z M409.8,263.4l46.7-26.9l-15.4-8.9l-46.7,26.9
					L409.8,263.4z"/>
				<path class="st2" d="M506.8,208.8l-49.1,28.4l-17.8-10.3l49.1-28.4L506.8,208.8z M457.7,235.8l46.7-26.9l-15.4-8.9l-46.7,26.9
					L457.7,235.8z"/>
				<path class="st2" d="M284,356.7l-76.5,44.2l-17.8-10.3l76.5-44.2L284,356.7z M207.4,399.4l74.1-42.8l-15.4-8.9l-74.1,42.8
					L207.4,399.4z"/>
				<path class="st2" d="M331.9,329l-49.1,28.4l-17.8-10.3l49.1-28.4L331.9,329z M282.8,355.9l46.7-26.9l-15.4-8.9l-46.7,26.9
					L282.8,355.9z"/>
				<path class="st2" d="M379.8,301.4l-49.1,28.4l-17.8-10.3l49.1-28.4L379.8,301.4z M330.6,328.3l46.7-26.9l-15.4-8.9l-46.7,26.9
					L330.6,328.3z"/>
				<path class="st2" d="M427.7,273.7l-49.1,28.4l-17.8-10.3l49.1-28.4L427.7,273.7z M378.5,300.6l46.7-26.9l-15.4-8.9l-46.7,26.9
					L378.5,300.6z"/>
				<path class="st2" d="M475.5,246.1l-49.1,28.4l-17.8-10.3l49.1-28.4L475.5,246.1z M426.4,273l46.7-26.9l-15.4-8.9L411,264.1
					L426.4,273z"/>
				<path class="st2" d="M523.4,218.4l-49.1,28.4l-17.8-10.3l49.1-28.4L523.4,218.4z M474.3,245.3l46.7-26.9l-15.4-8.9l-46.7,26.9
					L474.3,245.3z"/>
				<path class="st2" d="M300.6,366.2l-76.5,44.2l-17.8-10.3l76.5-44.2L300.6,366.2z M224.1,409l74.1-42.8l-15.4-8.9l-74.1,42.8
					L224.1,409z"/>
				<path class="st2" d="M348.5,338.6L299.4,367l-17.8-10.3l49.1-28.4L348.5,338.6z M299.4,365.5l46.7-26.9l-15.4-8.9L284,356.7
					L299.4,365.5z"/>
				<path class="st2" d="M396.4,310.9l-49.1,28.4L329.4,329l49.1-28.4L396.4,310.9z M347.3,337.9l46.7-26.9l-15.4-8.9L331.9,329
					L347.3,337.9z"/>
				<path class="st2" d="M444.3,283.3l-49.1,28.4l-17.8-10.3l49.1-28.4L444.3,283.3z M395.1,310.2l46.7-26.9l-15.4-8.9l-46.7,26.9
					L395.1,310.2z"/>
				<path class="st2" d="M492.2,255.6L443,284l-17.8-10.3l49.1-28.4L492.2,255.6z M443,282.6l46.7-26.9l-15.4-8.9l-46.7,26.9
					L443,282.6z"/>
				<path class="st2" d="M540,228l-49.1,28.4l-17.8-10.3l49.1-28.4L540,228z M490.9,254.9l46.7-26.9l-15.4-8.9l-46.7,26.9
					L490.9,254.9z"/>
				<path class="st2" d="M317.2,375.8L240.7,420l-17.8-10.3l76.5-44.2L317.2,375.8z M240.7,418.6l74.1-42.8l-15.4-8.9l-74.1,42.8
					L240.7,418.6z"/>
				<path class="st2" d="M365.1,348.2L316,376.5l-17.8-10.3l49.1-28.4L365.1,348.2z M316,375.1l46.7-26.9l-15.4-8.9l-46.7,26.9
					L316,375.1z"/>
				<path class="st2" d="M413,320.5l-49.1,28.4L346,338.6l49.1-28.4L413,320.5z M363.9,347.5l46.7-26.9l-15.4-8.9l-46.7,26.9
					L363.9,347.5z"/>
				<path class="st2" d="M460.9,292.9l-49.1,28.4l-17.8-10.3l49.1-28.4L460.9,292.9z M411.8,319.8l46.7-26.9L443,284l-46.7,26.9
					L411.8,319.8z"/>
				<path class="st2" d="M508.8,265.2l-49.1,28.4l-17.8-10.3l49.1-28.4L508.8,265.2z M459.6,292.2l46.7-26.9l-15.4-8.9l-46.7,26.9
					L459.6,292.2z"/>
				<path class="st2" d="M556.7,237.6l-49.1,28.4l-17.8-10.3l49.1-28.4L556.7,237.6z M507.5,264.5l46.7-26.9l-15.4-8.9l-46.7,26.9
					L507.5,264.5z"/>
				<polygon class="st2" points="230.3,266.4 103.1,339.9 99.8,338 227,264.5 				"/>
				<polygon class="st2" points="418.2,158 342.8,201.5 339.6,199.6 414.9,156.1 				"/>
				<polygon class="st2" points="131.9,303 85.5,329.8 82.3,327.9 128.7,301.1 				"/>
				<polygon class="st2" points="184.7,319.5 138.3,346.3 135,344.4 181.4,317.6 				"/>
				<polygon class="st2" points="209.4,333.8 163,360.6 159.7,358.7 206.1,331.9 				"/>
				<polygon class="st2" points="209.5,352.9 179.6,370.1 176.3,368.2 206.2,351 				"/>
				<polygon class="st2" points="219.4,366.3 196.2,379.7 192.9,377.8 216.1,364.4 				"/>
				<polygon class="st2" points="259.3,362.5 212.8,389.3 209.6,387.4 256,360.6 				"/>
				<polygon class="st2" points="275.9,372.1 229.5,398.9 226.2,397 272.6,370.2 				"/>
				<polygon class="st2" points="280.4,388.7 246.1,408.5 242.8,406.6 277.1,386.8 				"/>
				<polygon class="st2" points="175,334.6 146.5,351 143.2,349.1 171.7,332.7 				"/>
				<polygon class="st2" points="237.3,289.1 211,304.3 207.7,302.4 234,287.2 				"/>
				<polygon class="st2" points="235.3,299.7 219.2,309.1 215.9,307.2 232.1,297.8 				"/>
				<polygon class="st2" points="258.3,305.5 242.1,314.9 238.8,313 255,303.6 				"/>
				<polygon class="st2" points="274.9,315.1 258.7,324.5 255.4,322.6 271.6,313.2 				"/>
				<polygon class="st2" points="291.5,324.7 275.3,334.1 272,332.2 288.2,322.8 				"/>
				<polygon class="st2" points="308.1,334.3 291.9,343.7 288.7,341.8 304.8,332.4 				"/>
				<polygon class="st2" points="324.7,343.9 308.6,353.2 305.3,351.3 321.4,342 				"/>
				<polygon class="st2" points="306.3,277.8 290.2,287.1 286.9,285.2 303.1,275.9 				"/>
				<polygon class="st2" points="323,287.4 306.8,296.7 303.5,294.8 319.7,285.5 				"/>
				<polygon class="st2" points="356.2,306.6 340,315.9 336.7,314 352.9,304.7 				"/>
				<polygon class="st2" points="372.8,316.2 356.6,325.5 353.3,323.6 369.5,314.3 				"/>
				<polygon class="st2" points="389.4,325.8 373.2,335.1 369.9,333.2 386.1,323.9 				"/>
				<polygon class="st2" points="354.4,250.1 338.2,259.4 334.9,257.5 351.1,248.2 				"/>
				<polygon class="st2" points="371,259.6 354.8,269 351.5,267.1 367.7,257.7 				"/>
				<polygon class="st2" points="387.6,269.2 371.4,278.6 368.1,276.7 384.3,267.3 				"/>
				<polygon class="st2" points="404.2,278.8 388.1,288.2 384.8,286.3 400.9,276.9 				"/>
				<polygon class="st2" points="420.8,288.4 404.7,297.8 401.4,295.9 417.5,286.5 				"/>
				<polygon class="st2" points="437.4,298 421.3,307.3 418,305.4 434.2,296.1 				"/>
				<polygon class="st2" points="402.4,222.3 386.3,231.7 383,229.8 399.2,220.4 				"/>
				<polygon class="st2" points="435.7,241.5 419.5,250.8 416.2,248.9 432.4,239.6 				"/>
				<polygon class="st2" points="452.3,251.1 436.1,260.4 432.8,258.5 449,249.2 				"/>
				<polygon class="st2" points="485.5,270.3 469.3,279.6 466,277.7 482.2,268.4 				"/>
				<polygon class="st2" points="450.5,194.6 434.3,203.9 431,202 447.2,192.7 				"/>
				<polygon class="st2" points="467.1,204.2 450.9,213.5 447.6,211.6 463.8,202.3 				"/>
				<polygon class="st2" points="483.7,213.8 467.5,223.1 464.2,221.2 480.4,211.9 				"/>
				<polygon class="st2" points="500.3,223.3 484.2,232.7 480.9,230.8 497,221.4 				"/>
				<polygon class="st2" points="516.9,232.9 500.8,242.3 497.5,240.4 513.6,231 				"/>
				<polygon class="st2" points="533.5,242.5 517.4,251.9 514.1,250 530.3,240.6 				"/>
				<polygon class="st2" points="286.7,260.6 260.3,275.8 257.1,273.9 283.4,258.7 				"/>
				<polygon class="st2" points="284.7,271.2 268.5,280.6 265.3,278.7 281.4,269.3 				"/>
				<polygon class="st2" points="339.4,235.9 313.1,251.1 309.8,249.2 336.1,234 				"/>
				<polygon class="st2" points="371.9,211.4 355.9,220.7 352.6,218.8 368.6,209.5 				"/>
				<polygon class="st2" points="392.2,209.2 364.1,225.4 360.8,223.5 388.9,207.3 				"/>
				<polygon class="st2" points="430,177.9 403.7,193.1 400.4,191.2 426.7,176 				"/>
				<polygon class="st2" points="438.2,182.6 411.9,197.8 408.6,195.9 434.9,180.7 				"/>
				<polygon class="st2" points="391.1,153.3 344.7,180.1 341.4,178.2 387.8,151.4 				"/>
				<polygon class="st2" points="335.7,185.3 308,201.3 304.7,199.4 332.4,183.4 				"/>
				<polygon class="st2" points="152.9,281.7 77.6,325.2 72.7,322.3 148,278.8 				"/>
			</g>
			<g>
				<path class="st3" d="M283.4,105.2c0-0.1-3.9,23.4-3.9,23.4c-2.1,12.5,4.1,26.6,18.9,39.3c29.4,25.2,81.9,35.4,117.3,22.7
					c17.6-6.3,27.6-17.1,29.6-29.5c0,0,3.5-22,3.3-21.2c3.3-13.1-2.6-28.1-18.3-41.7C400.9,73,348.3,62.8,313,75.6
					C295.4,81.9,285.3,92.8,283.4,105.2z M414.6,126.1c7.4,6.3,12,13.1,14.2,19.7c-4.1,5.3-10.5,9.7-19.1,12.9
					c-28.8,10.4-71.6,2.1-95.6-18.5c-7.4-6.3-12.1-13.1-14.3-19.7c4.1-5.3,10.5-9.7,19.1-12.9C347.8,97.2,390.6,105.5,414.6,126.1z"/>
				<g>
					<path class="st4" d="M321,90.7c28.7-10.2,74.3,0.6,101.7,24.1c4.5,3.8,8.1,7.7,11.1,11.7c6.6,8.8,9.5,17.6,8.6,25.5
						c-5,6.1-12.7,11.3-22.9,15c-24.5,8.8-57.2,6.6-84.8-3.9c-5.8-3.3-11.2-7.1-16-11.2c-13.7-11.8-20.3-24.5-19.9-35.6
						C299.2,105.3,306.7,95.8,321,90.7z"/>
					<path class="st5" d="M302.3,144.4c9,7.7,20.2,14.1,32.4,18.8c27.6,10.6,60.3,12.7,84.8,3.9c10.2-3.7,17.9-8.9,22.9-15
						c12.4-15.1,8.7-35.8-12.2-53.8C400.9,73,348.3,62.8,313,75.6C277.6,88.3,272.9,119.1,302.3,144.4z M418.5,102.5
						c9,7.7,14,16,15.4,24c2.2,13.3-6.1,25.6-24.2,32.1c-28.8,10.4-71.6,2.1-95.6-18.5c-8.9-7.7-13.9-15.9-15.3-23.8
						c-2.4-13.4,5.9-25.8,24.1-32.3C351.7,73.6,394.5,81.9,418.5,102.5z"/>
				</g>
				<path class="st6" d="M332.9,105.8c5.4-1.9,11.7-2.8,18.4-2.7L344.5,91c-8,0.1-15.5,1.3-22,3.6c-12.2,4.4-19.2,12.2-19.6,21.9
					c0,0.1,0,0.3,0,0.5l15.4,4.5C318.9,114.6,324,109,332.9,105.8z"/>
			</g>
			<polygon class="st7" points="453.2,172 469.8,165.6 477.3,156.7 486.9,167 477,177 471.5,186.6 448,176.3 			"/>
			<path class="st2" d="M507.8,437.7c0,0-1,8.1,15.7,10.2c16.7,2.1,25.2,0,25.2,0s12.8,4.1,19.9,0.9c7.1-3.2,5.3-5.4,5.3-5.4
				c-0.5-8.6-2.9-17-7.4-25.4l-19.4-7.1l-2.8,13.1l-14.5,5.2C529.9,429.3,510,430.5,507.8,437.7z"/>
			<path class="st2" d="M533,341v36.5c-1.1,0-2-0.1-2.9-0.2c-9.6-1.1-10.4-5.9-17-7.3c-7.2-1.5-6.2,0.2-23.5-2.1
				c-17.3-2.3-20.5-12.2-13-16.3c7.5-4.1,22.9-3,22.9-3l8.2-2.2l5.7-1.5l4.4-9.9c0,0,5.3,2.2,5.3,2.2L533,341z"/>
			<path class="st8" d="M548.2,247.4l-1.1,23.2l4.2,82.4c-11.4,0.6-15,0.9-18.4,0.6c-3.7-0.3-7.2-1.3-10.6-2.8
				c-0.9-0.4-1.8-0.9-2.7-1.4c-2.2-1.3-4.3-2.8-6.3-4.6c-7.8-27.7-7.3-56.7-13.7-97.2c-0.5-3.3-0.2-6.7,1-9.8l4.5-12l15.8-42.3
				l20.7,7.1l17.6,6.1l7.3,2.5L548.2,247.4z"/>
			<path class="st9" d="M521.4,211.6c0,0-18.5,59.6-8.5,106.7c0,0,18,68.6,25.2,97.6c1.9,7.7,8.8,13.2,16.8,13.2
				c3.1,0,6.3-0.1,9.4-0.7c6-1,10.2-6.5,10-12.5c-0.6-18.7-3.5-64.4-18.2-101l14.9-72.3c11.9-11.7,18-27.6,9-54.1L521.4,211.6z"/>
			<path class="st0" d="M469,165.4c3.7,4.3,8,7.5,13.6,7.7c0,0,23.3-24.8,44.2-50.8l20.3-57.9l-39.6,6.9l-8.6,35.7L469,165.4z"/>
			<path class="st0" d="M580,188.5c-2.5,21.6-19,21.6-32.9,23.9c-13.3,3.3-28.3,8.5-44.7-2c-0.8-0.5-0.1-1.8-0.1-2.7v-60.3
				c-0.8-4.4-1.5-8.7-2-13.1c-1.7-13.9-1.9-27.9-0.6-41.9c1-9.9,4.4-19.3,9.8-27.4c3.3-4.9,7.3-9.4,11.9-13.2c2.2-1.9,4.6-3.5,7.1-5
				c0.1-0.1,0.3-0.2,0.4-0.3c5.6-2.3,10.7-2.9,15.4-2.2c22.4,3.7,33.5,38.2,30.2,54.2C571.4,113.7,572.3,149.7,580,188.5z"/>
			<path class="st10" d="M547.2,246.5l-0.6,1.2l-19.7,36.5l-3.7,52.9l-0.9,13c-0.2-0.1-1.1-0.3-2.5-0.6c-2.8-0.7-7.4-1.8-12-3.1
				l5.7-1.5c-7.8-27.7-7.3-56.7-13.7-97.2c-0.5-3.3-0.2-6.7,1-9.8l4.5-12c-1.9-6.3-2.8-12.8-2.8-18.1l14.5-13.4v-78.7l24.7,75
				l-0.2,4.9l0.9,7.8L547.2,246.5z"/>
			<path class="st5" d="M422.3,188l121.1,91.2c20.6,12.5,39-25,21.4-36.5l-124.1-79.1C434.8,158.4,412.4,174.8,422.3,188z"/>
			<path class="st7" d="M533.9,225.8c-0.5,0.3-2.6,16.4-2.6,16.4l-4.7,12.7l-2,13.4c0,0,2.6,8.1,7.9,8.6c2.4,1.1,4.7,3.4,6.4,1.8
				l1.9,2c2,1.8,7.5,3.1,6,1.1l-2.9-3.2l5.2-13.5c0.2-2.5-0.2-5-1-7.4l-1.9-5.7l-0.6-7.7l-3.7-15.3L533.9,225.8z"/>
			<path class="st0" d="M515.8,120.8l14.8,51.4c1.8,21.2-0.4,46.2,0.8,70.1l16.6,2.6c7.7-19,11.5-45.8,14.8-73.8l-14-62.3
				C538,74.1,506,96.7,515.8,120.8z"/>
			<path class="st7" d="M446.2,173.8l4.1-2.6c3.2-0.2,5.8-1.1,9.8-1.8l1.1,3.1l1.9,0.7l1.2,4.7l-8-2.3c-4.1,0.1-4.4-0.7-7.1,0.7
				C445.2,178.3,441.7,174.3,446.2,173.8z"/>
			<path class="st11" d="M515,86.8l-2.3-11.2l-4.6-0.4c0.7-1.7,0.8-8.6,1.5-10.2c3.3-4.9,7.3-9.4,11.9-13.2c2.2-1.9,4.6-3.5,7.1-5
				c0.1-0.1,0.3-0.2,0.4-0.3c5.6-2.3,10.7-2.9,15.4-2.2c0.2,0.1,0.4,0.3,0.7,0.5C549.6,50,546.6,71.2,515,86.8z"/>
			<g>
				<path class="st7" d="M512.7,71.1L505,49.7l28-12.7l6.4,12.7c2.1,7.6-21.1,28.1-26.6,26C512.3,75.5,512.9,71.5,512.7,71.1z"/>
				<path class="st7" d="M514,62.1L500.9,64c-2.9,0.4-5.9-0.6-7.9-2.7c-5.4-5.6-13.3-19.1-16.3-30.1c-4.6-16.8,11.4-28,23.1-29.3
					c11.7-1.3,24.7,2.9,30.9,16.4c6.1,13.6,0.4,28.7,0.4,28.7L514,62.1z"/>
				<path class="st2" d="M478.4,36.6c0,0,4.8,4,12.6,5.3c1.5,0.2,2.8,1.2,3.7,2.4l3.2,4.5l6.8,2.5l2,2.6c1.9,2.5,5.1,3.6,8.1,2.7
					c4.6-1.3,11.6-4.9,19.4-14.4c0,0,6.1-22.2-10.4-35.4c-16.5-13.1-34.5-4.1-40,0.3C478.4,11.5,466.3,26.8,478.4,36.6z"/>
				<path class="st7" d="M501.9,42.8c0.6,0.5,1.1,1.2,1.5,1.9c1.2,2.1,2.1,4.4,2.5,6.8c0.2,0.9,0.3,1.9,0,2.8c-0.3,0.9-1,1.7-2,1.9
					c-1.3,0.2-2.4-0.9-3.1-1.9c-1.5-2-3.9-5-4-7.6C496.6,43.9,499.1,40.5,501.9,42.8z"/>
			</g>
			<path class="st5" d="M512.7,75.6l-1.8-0.4l-0.6,7c-5.4,20.9-5.7,43.8-4.6,53.7l5.1,20.7l1.2-13.8c-3.4-21.9-2-38.4,0.4-58.9
				l1.7-2.2L512.7,75.6z"/>
		</g>
	</g>
</switch>

</svg>
