<?xml version="1.0" encoding="utf-8"?>
<!-- Generator: Adobe Illustrator 27.1.1, SVG Export Plug-In . SVG Version: 6.00 Build 0)  -->










<svg version="1.1" id="Layer_1" xmlns="http://www.w3.org/2000/svg" xmlns:xlink="http://www.w3.org/1999/xlink" x="0px" y="0px" viewBox="0 0 600 358.2" style="enable-background:new 0 0 600 358.2;" xml:space="preserve">
<style type="text/css">
	.st0{opacity:0.3;}
	.st1{fill:#FFFEF2;}
	.st2{fill:#8CCCCB;}
	.st3{fill:#D8D1C7;}
	.st4{opacity:0.5;}
	.st5{fill:#6CB5C4;}
	.st6{opacity:0.7;}
	.st7{fill:#E0DEDC;}
	.st8{fill:#FFC654;}
	.st9{fill:#836E69;}
	.st10{fill:#403531;}
	.st11{fill:#685750;}
	.st12{fill:#D1D1D1;}
	.st13{fill:#ADADAD;}
	.st14{fill:#E6E1DD;}
	.st15{fill:#785B56;}
	.st16{fill:#389998;}
	.st17{fill:#3E6669;}
	.st18{fill:#808080;}
	.st19{fill:#F4EFE9;}
	.st20{fill:#FBE979;}
	.st21{fill:#E3BD5E;}
	.st22{fill:#CC934C;}
	.st23{fill:#EFC58B;}
	.st24{fill:#C79D5C;}
	.st25{fill:#F7E6BB;}
	.st26{fill:#A4837E;}
	.st27{fill:#7D5551;}
	.st28{fill:#573B38;}
	.st29{fill:#A39C95;}
	.st30{fill:#A6495D;}
	.st31{fill:#FCA48F;}
	.st32{fill:#D57A70;}
	.st33{fill:#C26A5E;}
	.st34{fill:#FA5C52;}
	.st35{fill:#C84030;}
	.st36{fill:#991F16;}
	.st37{fill:#F7EDD4;}
	.st38{fill:#C7AE87;}
	.st39{fill:#EFCFA3;}
</style>
<switch>
	
	<g>
		<polygon class="st0" points="332,277.7 126.5,159 394.5,4.3 600,123 		"/>
		<polygon class="st1" points="332,274.2 126.5,155.6 394.5,0.9 600,119.5 		"/>
		<g>
			<polygon class="st2" points="198.3,150.4 182.5,141.3 198.3,132.2 214.1,141.3 			"/>
			<g>
				<polygon class="st3" points="337.4,217.4 330,221.7 358.3,238 365.7,233.7 				"/>
				<polygon class="st3" points="322.8,209 223.3,151.5 215.9,155.8 315.4,213.3 				"/>
			</g>
			<g>
				<polygon class="st3" points="215.9,168.6 175.6,145.4 168.1,149.7 208.4,172.9 				"/>
				<polygon class="st3" points="230.5,177.1 223,181.4 339.8,248.7 347.2,244.5 				"/>
			</g>
		</g>
		<g>
			<polygon class="st2" points="249.6,120.8 233.8,111.7 249.6,102.6 265.4,111.7 			"/>
			<polygon class="st3" points="409.7,208.4 267.2,126.2 274.6,121.9 417.1,204.1 			"/>
			<polygon class="st3" points="288.3,159.7 219.5,120 226.9,115.7 295.7,155.5 			"/>
			<polygon class="st3" points="391.1,219.1 300.6,166.9 308.1,162.6 398.5,214.8 			"/>
		</g>
		<g>
			<polygon class="st2" points="395.6,18.3 379.8,27.4 395.6,36.5 411.4,27.4 			"/>
			<polygon class="st3" points="469.8,74.6 413.2,41.9 420.6,37.6 477.2,70.3 			"/>
			<polygon class="st3" points="555.6,124.1 484.4,83 491.8,78.7 563.1,119.8 			"/>
			<polygon class="st3" points="487.4,106.2 365.4,35.7 372.9,31.4 494.8,101.9 			"/>
		</g>
		<g>
			<g class="st4">
				<path class="st5" d="M331.2,75.4l-40.4,23.3l85.8,49.6L417,125L331.2,75.4z M376.6,143.3l-77.1-44.5l31.7-18.3l77.1,44.5
					L376.6,143.3z"/>
				<polygon class="st5" points="394.3,123 337.4,90.1 316.3,102.3 373.2,135.2 				"/>
			</g>
			<g class="st6">
				<path class="st5" d="M369.9,77.4l-40.4,23.3l85.8,49.6l40.4-23.3L369.9,77.4z M415.3,145.3l-77.2-44.5l31.8-18.3l77.1,44.5
					L415.3,145.3z"/>
				<polygon class="st5" points="433.1,125 376.1,92.1 355,104.3 412,137.2 				"/>
			</g>
			<path class="st7" d="M348.8,49.6l-83.6,48.3l162.3,93.8l83.7-48.3L348.8,49.6z M275.5,97.9l73.2-42.3l152,87.8l-73.3,42.3
				L275.5,97.9z"/>
		</g>
		<g>
			<polygon class="st0" points="283.7,358.2 76.5,238.6 343.7,84.3 550.8,203.9 			"/>
			<polygon class="st1" points="283.7,355.5 76.5,235.9 343.7,81.7 550.8,201.3 			"/>
			<g>
				<polygon class="st2" points="244.7,177.5 228.9,168.4 244.7,159.3 260.4,168.4 				"/>
				<g>
					<polygon class="st3" points="383.8,244.5 376.4,248.8 404.7,265.1 412.1,260.8 					"/>
					<polygon class="st3" points="369.2,236.1 269.7,178.6 262.3,182.9 361.8,240.3 					"/>
				</g>
				<g>
					<polygon class="st3" points="262.2,195.7 221.9,172.5 214.5,176.7 254.8,200 					"/>
					<polygon class="st3" points="276.8,204.2 269.4,208.5 386.2,275.8 393.6,271.6 					"/>
				</g>
			</g>
			<g>
				<polygon class="st8" points="352,115.6 336.3,106.4 352,97.3 367.8,106.4 				"/>
				<g>
					<polygon class="st3" points="491.2,182.5 483.8,186.8 512.1,203.1 519.5,198.8 					"/>
					<polygon class="st3" points="476.6,174.1 377.1,116.6 369.7,120.9 469.2,178.4 					"/>
				</g>
				<g>
					<polygon class="st3" points="369.6,133.7 329.3,110.5 321.9,114.8 362.2,138 					"/>
					<polygon class="st3" points="384.2,142.2 376.8,146.5 493.5,213.9 500.9,209.6 					"/>
				</g>
			</g>
			<g>
				<polygon class="st2" points="192.1,207.9 176.3,198.8 192.1,189.7 207.9,198.8 				"/>
				<polygon class="st3" points="352.2,295.5 209.8,213.2 217.2,208.9 359.6,291.2 				"/>
				<polygon class="st3" points="230.8,246.8 162,207.1 169.4,202.8 238.2,242.5 				"/>
				<polygon class="st3" points="333.6,306.2 243.1,253.9 250.6,249.6 341,301.9 				"/>
			</g>
			<g>
				<polygon class="st2" points="140.4,219.5 124.7,228.6 140.4,237.7 156.2,228.6 				"/>
				<polygon class="st3" points="214.7,275.8 158.1,243.1 165.5,238.8 222.1,271.5 				"/>
				<polygon class="st3" points="300.5,325.3 229.3,284.2 236.7,279.9 307.9,321 				"/>
				<polygon class="st3" points="232.3,307.4 110.3,236.9 117.7,232.6 239.7,303.1 				"/>
			</g>
			<g>
				<polygon class="st2" points="295.1,130.2 279.4,139.3 295.1,148.4 310.9,139.3 				"/>
				<polygon class="st3" points="369.4,186.4 312.8,153.8 320.2,149.5 376.8,182.2 				"/>
				<polygon class="st3" points="455.2,236 384,194.9 391.4,190.6 462.6,231.7 				"/>
				<polygon class="st3" points="387,218 265,147.6 272.4,143.3 394.4,213.7 				"/>
			</g>
			<polygon class="st8" points="496.1,232.9 289,113.3 290.4,112.5 497.5,232.1 			"/>
		</g>
		<g>
			<g>
				<polygon class="st9" points="194.9,185.7 193.4,185.5 195.8,197.6 				"/>
				<polygon class="st10" points="196.7,185.3 195.3,185.7 195.8,197.6 				"/>
				<polygon class="st11" points="195.8,185.9 195.5,185.5 194.4,186 195.8,197.6 				"/>
				<polygon class="st12" points="201.6,166.2 192.8,163 186.3,167.1 189.6,174.5 194.3,187.3 196.2,187.2 198.1,173.9 				"/>
				<polygon class="st13" points="201.6,166.2 197.3,169 196.2,187.2 197.5,186.3 				"/>
				<polygon class="st14" points="191,169.4 186.3,167.1 192.9,186.6 194.3,187.3 				"/>
			</g>
			<g>
				<polygon class="st15" points="192.8,90.5 186.1,90.9 181.3,88.4 181.1,84.6 185.6,81.6 192.2,81.2 197.1,83.7 197.3,87.5 				
					"/>
				<polygon class="st2" points="186.1,90.9 181.3,88.4 186,167.7 190.8,170.1 191,131.4 				"/>
				<polygon class="st16" points="192.8,90.5 186.1,90.9 190.8,170.1 197.5,169.7 197.5,130 				"/>
				<polygon class="st17" points="197.3,87.5 192.8,90.5 197.5,169.7 202,166.7 				"/>
				<polygon class="st0" points="197.2,86.5 192.7,89.5 186.1,89.9 181.2,87.5 181.6,93.6 186.5,96.1 193.1,95.7 197.6,92.7 				"/>
			</g>
			<g>
				<polygon class="st12" points="189.5,27.3 181.9,27.7 176.4,25 176.1,20.6 181.3,17.2 188.9,16.7 194.4,19.5 194.7,23.9 				"/>
				<polygon class="st2" points="181.9,27.7 176.4,25 180.3,91.3 185.9,94.1 182.4,28.3 				"/>
				<polygon class="st16" points="189.5,27.3 181.9,27.7 185.9,94.1 193.4,93.6 190.1,27.7 				"/>
				<polygon class="st17" points="194.7,23.9 189.5,27.3 193.4,93.6 198.6,90.2 				"/>
			</g>
			<g>
				<polygon class="st12" points="176.4,25 176.1,20.6 180.6,1.5 183.6,1.3 184.1,22.3 				"/>
				<polygon class="st18" points="194.7,23.9 194.4,19.5 187.7,1.1 184.7,1.3 186.7,22.1 				"/>
				<polygon class="st14" points="183.7,3 180.7,3.2 176.4,25 181.9,27.7 184,17.6 				"/>
				<polygon class="st12" points="185.1,1.6 182.9,4.3 181.9,27.7 189.5,27.3 189.5,16.3 				"/>
				<polygon class="st13" points="187.8,2.8 185.1,1.6 185.8,4.1 189.5,27.3 194.7,23.9 				"/>
				<polygon class="st19" points="185.8,4.1 182.9,4.3 180.7,3.2 180.6,1.5 182.6,0.2 185.5,0 187.7,1.1 187.8,2.8 				"/>
			</g>
			<g>
				<polygon class="st20" points="183.2,50 177.7,47.2 177.8,48.7 183.3,51.5 183.7,50.5 				"/>
				<polygon class="st21" points="190.8,49.5 183.2,50 183.3,51.5 190.9,51.1 191.4,49.9 				"/>
				<polygon class="st22" points="196,46.1 190.8,49.5 190.9,51.1 196.1,47.6 				"/>
			</g>
			<g>
				<polygon class="st12" points="183.6,107.8 179.2,105.6 175,34.1 179.8,35.6 				"/>
				<polygon class="st19" points="181.2,35.5 179.3,36.2 175,34.1 177.6,32.3 182,34.5 181.3,35.5 				"/>
				<polygon class="st13" points="183.6,107.8 179.3,36.2 182,34.5 182,35.3 180.1,36.6 184.3,107.3 				"/>
			</g>
		</g>
		<g>
			<polygon class="st9" points="6.4,212.9 7.6,211.5 0,209.5 			"/>
			<polygon class="st10" points="5.6,215 6.2,213.3 0,209.5 			"/>
			<polygon class="st11" points="5.6,213.6 6.3,213.6 6.4,212.2 0,209.5 			"/>
			<polygon class="st23" points="18.6,228 25.3,223 25.4,216.2 18.3,215 6.4,212.2 5.6,213.6 14.5,221.7 			"/>
			<polygon class="st24" points="18.6,228 18.6,223.4 5.6,213.6 5.6,215 			"/>
			<polygon class="st25" points="21.4,218.5 25.4,216.2 7.6,211.5 6.4,212.2 			"/>
		</g>
		<g>
			<polygon class="st15" points="102.6,271.9 105.4,267 109.4,264.7 112.3,266.3 112.3,270.9 109.4,275.8 105.4,278.2 102.6,276.5 
							"/>
			<polygon class="st26" points="105.4,267 109.4,264.7 25.4,216.2 21.4,218.5 104.9,267 			"/>
			<polygon class="st27" points="102.6,271.9 105.4,267 21.4,218.5 18.6,223.4 102.1,272.1 			"/>
			<polygon class="st28" points="102.6,276.5 102.6,271.9 18.6,223.4 18.6,228 			"/>
		</g>
		<g>
			<polygon class="st3" points="119.4,281.6 122.2,276.7 126.2,274.4 129,276 129,280.6 126.2,285.5 122.2,287.8 119.4,286.2 			"/>
			<polygon class="st14" points="122.2,276.7 126.2,274.4 109.4,264.7 105.4,267 121.7,276.7 			"/>
			<polygon class="st12" points="119.4,281.6 122.2,276.7 105.4,267 102.6,271.9 118.9,281.8 			"/>
			<polygon class="st29" points="119.4,286.2 119.4,281.6 102.6,271.9 102.6,276.5 			"/>
		</g>
		<g>
			<polygon class="st30" points="127.9,286.2 130.5,281.7 134.2,279.6 136.8,281.1 136.8,285.3 134.2,289.9 130.5,292 127.9,290.5 
							"/>
			<polygon class="st31" points="130.5,281.7 134.2,279.6 126.4,275.1 122.8,277.3 130,281.8 			"/>
			<polygon class="st32" points="127.9,286.2 130.5,281.7 122.8,277.3 120.1,281.8 127.4,286.4 			"/>
			<polygon class="st33" points="127.9,290.5 127.9,286.2 120.1,281.8 120.1,286 			"/>
		</g>
		<g>
			<polygon class="st20" points="91,258.7 95,256.3 88.8,252.8 84.8,255.1 90.5,258.7 			"/>
			<polygon class="st21" points="88.2,263.6 91,258.7 84.8,255.1 82,260 87.7,263.8 			"/>
			<polygon class="st22" points="88.2,268.2 88.2,263.6 82,260 82,264.6 			"/>
		</g>
		<g>
			<polygon class="st9" points="29.9,255.5 30.9,254.4 19.5,249.8 			"/>
			<polygon class="st10" points="29.2,257.3 29.8,255.9 19.5,249.8 			"/>
			<polygon class="st11" points="29.2,256.2 29.8,256.2 29.9,255 19.5,249.8 			"/>
			<polygon class="st12" points="42.6,272 50.1,266.3 50.3,258.7 42.3,257.3 28.9,254.2 28,255.9 38,264.8 			"/>
			<polygon class="st13" points="42.6,272 42.6,266.8 28,255.9 28,257.4 			"/>
			<polygon class="st14" points="45.8,261.3 50.3,258.7 30.3,253.4 28.9,254.2 			"/>
		</g>
		<g>
			<polygon class="st15" points="110.8,306.4 114.2,300.6 118.9,297.9 122.2,299.8 122.2,305.3 118.9,311 114.2,313.7 110.9,311.9 
							"/>
			<polygon class="st34" points="114.2,300.6 118.9,297.9 50,258.1 45.2,260.8 77.6,282.3 			"/>
			<polygon class="st35" points="110.8,306.4 114.2,300.6 45.2,260.8 41.9,266.6 75.2,288.5 			"/>
			<polygon class="st36" points="110.9,311.9 110.8,306.4 41.9,266.6 41.9,272 			"/>
			<polygon class="st0" points="111.7,312.3 111.7,306.9 115.1,301.1 119.7,298.4 114.4,295.3 109.7,298 106.3,303.8 106.3,309.2 
							"/>
		</g>
		<g>
			<polygon class="st12" points="165.6,338.6 169.4,332 174.8,328.9 178.6,331.1 178.6,337.3 174.8,343.9 169.4,347 165.6,344.8 			
				"/>
			<polygon class="st34" points="169.4,332 174.8,328.9 117.1,295.5 111.7,298.6 168.7,332.1 			"/>
			<polygon class="st35" points="165.6,338.6 169.4,332 111.7,298.6 107.9,305.2 164.9,338.9 			"/>
			<polygon class="st36" points="165.6,344.8 165.6,338.6 107.9,305.2 107.9,311.4 			"/>
		</g>
		<g>
			<polygon class="st12" points="174.8,328.9 178.6,331.1 192.1,345.4 190.6,348 172.7,336.8 			"/>
			<polygon class="st18" points="165.6,344.8 169.4,347 188.5,351.5 190,349 171.4,339.1 			"/>
			<polygon class="st14" points="189.1,347.1 190.6,344.5 174.8,328.9 169.4,332 176.8,339.3 			"/>
			<polygon class="st12" points="189.5,349.1 188.5,345.7 169.4,332 165.6,338.6 174.8,344.6 			"/>
			<polygon class="st13" points="187,350.7 189.5,349.1 187.1,348.3 165.6,338.6 165.6,344.8 			"/>
			<polygon class="st19" points="187.1,348.3 188.5,345.7 190.6,344.5 192.1,345.4 192.1,347.8 190.6,350.3 188.5,351.5 187,350.7 
							"/>
		</g>
		<g>
			<polygon class="st20" points="150,320.8 155.4,317.7 154.1,316.9 148.7,320 149.3,320.9 			"/>
			<polygon class="st21" points="146.2,327.4 150,320.8 148.7,320 144.9,326.6 145.5,327.7 			"/>
			<polygon class="st22" points="146.2,333.6 146.2,327.4 144.9,326.6 144.9,332.8 			"/>
		</g>
		<g>
			<polygon class="st12" points="101.5,289.1 105.7,286.7 167.9,322.7 163.9,325.8 			"/>
			<polygon class="st19" points="163.3,327.1 163.7,325.1 167.9,322.7 167.9,325.9 163.7,328.3 163.2,327.1 			"/>
			<polygon class="st13" points="101.5,289.1 163.7,325.1 163.7,328.3 162.9,327.9 162.9,325.5 101.5,290 			"/>
		</g>
		<g>
			<polygon class="st0" points="210.9,299.7 185.1,284.8 170.9,284.8 160.8,290.6 160.8,298.8 186.6,313.7 200.9,313.7 210.9,307.9 
							"/>
			<polygon class="st37" points="185.1,275.2 171,275.2 161,281 161,289.1 			"/>
			<polygon class="st38" points="210.7,307.3 200.8,313 199.1,302.7 206.7,299.4 210.7,298.1 			"/>
			<polygon class="st35" points="186.6,313 161,298.2 161,289.1 180.2,297.2 186.6,303.9 			"/>
			<polygon class="st39" points="200.8,313 186.6,313 186.6,303.9 195.5,301 200.8,303.9 			"/>
			<polygon class="st37" points="186.6,303.9 200.8,303.9 210.7,298.1 210.7,290 			"/>
			<polygon class="st34" points="186.6,303.9 161,289.1 185.1,275.2 210.7,290 			"/>
			<polygon class="st9" points="180,294.4 169.7,288.4 168.5,288.4 167.6,288.9 167.6,289.6 177.9,295.6 179.1,295.6 180,295.1 			
				"/>
		</g>
	</g>
</switch>

</svg>
