<?xml version="1.0" encoding="utf-8"?>
<!-- Generator: Adobe Illustrator 27.1.1, SVG Export Plug-In . SVG Version: 6.00 Build 0)  -->










<svg version="1.1" id="Layer_1" xmlns="http://www.w3.org/2000/svg" xmlns:xlink="http://www.w3.org/1999/xlink" x="0px" y="0px" viewBox="0 0 600 568.3" style="enable-background:new 0 0 600 568.3;" xml:space="preserve">
<style type="text/css">
	.st0{fill:#141C26;}
	.st1{fill:#4D4D4D;}
	.st2{fill:#8196B3;}
	.st3{fill:#282752;}
	.st4{fill:#34559C;}
	.st5{fill:#EEDFCF;}
	.st6{fill:#F5C075;}
	.st7{fill:#F2F2F2;}
	.st8{fill:#BF343B;}
	.st9{fill:#FFFFFF;}
	.st10{fill:#1A1A1A;}
	.st11{fill:#F29B79;}
	.st12{fill:#333333;}
	.st13{fill:#F3F2F2;}
	.st14{fill:#FFB2A3;}
	.st15{opacity:0.5;fill:#152D59;}
	.st16{fill:#E3CCB3;}
</style>
<switch>
	
	<g>
		<g>
			<g>
				<path class="st0" d="M24.1,260c0,3.6,2.5,8,5.6,9.8c1.6,0.9,3,1,4,0.4l152-87.7c1-0.6,1.7-1.9,1.7-3.6c0-3.6-2.5-8-5.6-9.8
					c-1.6-0.9-3-1-4-0.4l-152,87.7C24.8,257,24.1,258.2,24.1,260z"/>
				<g>
					<path class="st0" d="M192.3,278.6c-5-2.9-13.1-2.9-18.1,0c-2.5,1.4-3.8,3.3-3.8,5.2v234.2c0,1.9,1.3,3.8,3.8,5.2
						c5,2.9,13.1,2.9,18.1,0c2.5-1.4,3.8-3.3,3.8-5.2V283.9C196.1,282,194.8,280.1,192.3,278.6z"/>
					<path class="st1" d="M472,116.1c-5-2.9-13.1-2.9-18.1,0c-2.5,1.4-3.8,3.3-3.8,5.2v234.2c0,1.9,1.3,3.8,3.8,5.2
						c5,2.9,13.1,2.9,18.1,0c2.5-1.4,3.8-3.3,3.8-5.2V121.4C475.8,119.5,474.5,117.6,472,116.1z"/>
					<path class="st0" d="M32.2,185.9c-5-2.9-13.1-2.9-18.1,0c-2.5,1.4-3.8,3.3-3.8,5.2v234.2c0,1.9,1.3,3.8,3.8,5.2
						c5,2.9,13.1,2.9,18.1,0c2.5-1.4,3.8-3.3,3.8-5.2V191.1C36,189.2,34.8,187.3,32.2,185.9z"/>
					<path class="st1" d="M310,23.4c-5-2.9-13.1-2.9-18.1,0c-2.5,1.4-3.8,3.3-3.8,5.2v234.2c0,1.9,1.3,3.8,3.8,5.2
						c5,2.9,13.1,2.9,18.1,0c2.5-1.4,3.8-3.3,3.8-5.2V28.6C313.8,26.7,312.5,24.8,310,23.4z"/>
					<polygon class="st0" points="484.7,134.4 183.5,308.3 0,202.3 0,187 301.2,28.5 484.7,119.1 					"/>
					<polygon class="st2" points="484.7,119.1 183.5,293 0,187 301.2,13.2 					"/>
				</g>
				<path class="st0" d="M187.3,344.7c0,3.6-2.5,8-5.6,9.8c-1.6,0.9-3,1-4,0.4l-152-87.7c-1-0.6-1.7-1.9-1.7-3.6
					c0-3.6,2.5-8,5.6-9.8c1.6-0.9,3-1,4-0.4l152,87.7C186.7,341.7,187.3,342.9,187.3,344.7z"/>
			</g>
			<g>
				<polygon class="st3" points="364,141.5 238.2,214.2 158.6,168.3 158.6,163.8 284.5,95.6 364,137.1 				"/>
				<g>
					<polygon class="st4" points="364,137.1 238.2,209.8 158.6,163.8 284.5,91.2 					"/>
					<g>
						<polygon class="st5" points="179.6,159.7 187.4,155.3 193.3,158.7 185.5,163.1 						"/>
						<polygon class="st5" points="188.6,154.5 196.4,150.1 202.2,153.5 194.5,157.9 						"/>
						<polygon class="st5" points="197.6,149.3 205.3,144.9 211.2,148.3 203.5,152.7 						"/>
						<polygon class="st5" points="206.6,144.1 214.3,139.7 220.2,143.1 212.5,147.6 						"/>
						<polygon class="st5" points="215.6,139 223.3,134.5 229.2,137.9 221.5,142.4 						"/>
						<polygon class="st5" points="224.6,133.8 232.3,129.3 238.2,132.7 230.5,137.2 						"/>
						<polygon class="st5" points="233.6,128.6 241.3,124.1 247.2,127.5 239.5,132 						"/>
						<polygon class="st5" points="242.6,123.4 250.3,118.9 256.2,122.3 248.5,126.8 						"/>
						<polygon class="st5" points="251.6,118.2 259.3,113.7 265.2,117.1 257.5,121.6 						"/>
						<polygon class="st5" points="260.6,113 268.3,108.5 274.2,111.9 266.4,116.4 						"/>
						<polygon class="st5" points="269.5,107.8 277.3,103.3 283.2,106.8 275.4,111.2 						"/>
						<polygon class="st5" points="190.2,165.8 197.9,161.4 203.8,164.8 196.1,169.2 						"/>
						<polygon class="st5" points="199.2,160.6 206.9,156.2 212.8,159.6 205.1,164 						"/>
						<polygon class="st5" points="208.2,155.4 215.9,151 221.8,154.4 214.1,158.8 						"/>
						<polygon class="st5" points="217.2,150.3 224.9,145.8 230.8,149.2 223.1,153.7 						"/>
						<polygon class="st5" points="226.2,145.1 233.9,140.6 239.8,144 232.1,148.5 						"/>
						<polygon class="st5" points="235.2,139.9 242.9,135.4 248.8,138.8 241.1,143.3 						"/>
						<polygon class="st5" points="244.2,134.7 251.9,130.2 257.8,133.6 250,138.1 						"/>
						<polygon class="st5" points="253.1,129.5 260.9,125 266.8,128.4 259,132.9 						"/>
						<polygon class="st5" points="262.1,124.3 269.9,119.8 275.8,123.2 268,127.7 						"/>
						<polygon class="st5" points="271.1,119.1 278.9,114.6 284.7,118 277,122.5 						"/>
						<polygon class="st5" points="280.1,113.9 287.8,109.5 293.7,112.9 286,117.3 						"/>
						<polygon class="st5" points="197,169.7 204.7,165.3 210.6,168.7 202.9,173.1 						"/>
						<polygon class="st5" points="206,164.5 213.7,160.1 219.6,163.5 211.9,167.9 						"/>
						<polygon class="st5" points="214.9,159.3 222.7,154.9 228.6,158.3 220.8,162.8 						"/>
						<polygon class="st5" points="223.9,154.2 231.7,149.7 237.6,153.1 229.8,157.6 						"/>
						<polygon class="st5" points="232.9,149 240.7,144.5 246.6,147.9 238.8,152.4 						"/>
						<polygon class="st5" points="241.9,143.8 249.6,139.3 255.5,142.7 247.8,147.2 						"/>
						<polygon class="st5" points="250.9,138.6 258.6,134.1 264.5,137.5 256.8,142 						"/>
						<polygon class="st5" points="259.9,133.4 267.6,128.9 273.5,132.3 265.8,136.8 						"/>
						<polygon class="st5" points="268.9,128.2 276.6,123.7 282.5,127.1 274.8,131.6 						"/>
						<polygon class="st5" points="277.9,123 285.6,118.5 291.5,122 283.8,126.4 						"/>
						<polygon class="st5" points="203.7,173.6 211.5,169.2 217.3,172.6 209.6,177 						"/>
						<polygon class="st5" points="212.7,168.4 220.4,164 226.3,167.4 218.6,171.8 						"/>
						<polygon class="st5" points="221.7,163.2 229.4,158.8 235.3,162.2 227.6,166.7 						"/>
						<polygon class="st5" points="230.7,158.1 238.4,153.6 244.3,157 236.6,161.5 						"/>
						<polygon class="st5" points="239.7,152.9 247.4,148.4 253.3,151.8 245.6,156.3 						"/>
						<polygon class="st5" points="248.7,147.7 256.4,143.2 262.3,146.6 254.6,151.1 						"/>
						<polygon class="st5" points="257.7,142.5 265.4,138 271.3,141.4 263.6,145.9 						"/>
						<polygon class="st5" points="266.7,137.3 274.4,132.8 280.3,136.2 272.6,140.7 						"/>
						<polygon class="st5" points="275.7,132.1 283.4,127.6 289.3,131 281.5,135.5 						"/>
						<polygon class="st5" points="286.9,117.8 293.6,121.7 284.6,126.9 290.5,130.3 299.5,125.1 301.8,123.8 307.3,120.7 
							302.2,117.8 301.4,117.3 294.6,113.4 						"/>
						<polygon class="st5" points="221.8,171 219.5,172.3 210.5,177.5 216.4,180.9 225.4,175.7 227.7,174.4 233.1,171.3 
							227.2,167.9 						"/>
						<polygon class="st5" points="228.5,167.2 236.2,162.7 242.1,166.1 234.4,170.6 						"/>
						<polygon class="st5" points="237.5,162 245.2,157.5 251.1,160.9 243.4,165.4 						"/>
						<polygon class="st5" points="246.4,156.8 254.2,152.3 260.1,155.7 252.3,160.2 						"/>
						<polygon class="st5" points="255.4,151.6 263.2,147.1 269.1,150.5 261.3,155 						"/>
						<polygon class="st5" points="264.4,146.4 272.2,141.9 278.1,145.3 270.3,149.8 						"/>
						<polygon class="st5" points="273.4,141.2 281.1,136.7 287,140.1 279.3,144.6 						"/>
						<polygon class="st5" points="282.4,136 290.1,131.5 296,134.9 288.3,139.4 						"/>
						<polygon class="st5" points="299.1,126.4 297.8,127.1 291.4,130.8 297.3,134.2 303.7,130.5 305,129.8 314,124.6 308.1,121.2 
													"/>
						<polygon class="st5" points="217.2,181.4 225,177 230.9,180.4 223.1,184.8 						"/>
						<polygon class="st5" points="226.2,176.2 234,171.8 239.9,175.2 232.1,179.7 						"/>
						<polygon class="st5" points="235.2,171.1 243,166.6 248.9,170 241.1,174.5 						"/>
						<polygon class="st5" points="284,142.9 280.2,145.1 278.9,145.8 271.2,150.3 269.9,151 262.2,155.5 260.9,156.2 253.2,160.7 
							244.2,165.9 250.1,169.3 259.1,164.1 266.8,159.6 268.1,158.9 275.8,154.4 277.1,153.7 284.8,149.2 286.1,148.5 289.9,146.3 
							293.8,144 287.9,140.6 						"/>
						<polygon class="st5" points="289.2,139.9 296.9,135.4 302.8,138.9 295.1,143.3 						"/>
						<polygon class="st5" points="298.2,134.7 305.9,130.3 311.8,133.7 304.1,138.1 						"/>
						<polygon class="st5" points="307.2,129.5 314.9,125.1 320.8,128.5 313.1,132.9 						"/>
					</g>
					<polygon class="st3" points="304.2,161 279.4,175.3 263.8,166.3 288.6,152 					"/>
				</g>
				<polygon class="st3" points="281,90 158.6,163.8 155.1,162.7 131,72.7 256.9,0 260.4,1.1 				"/>
				<polygon class="st4" points="284.5,91.2 158.6,163.8 134.5,73.8 260.4,1.1 				"/>
				<polygon class="st6" points="138.9,75.6 258,6.9 280.1,89.3 161,158.1 				"/>
				<g>
					<polygon class="st7" points="271.6,90.1 169.1,149.1 149.3,76.1 251.9,17.1 					"/>
					<path class="st3" d="M185.9,92.1L164,104.7l-2.3-8.5l21.9-12.6L185.9,92.1z M164.3,104.1l21.2-12.2l-2.1-7.7l-21.2,12.2
						L164.3,104.1z"/>
					<path class="st3" d="M199.6,84.3l-14,8.1l-2.3-8.5l14-8.1L199.6,84.3z M185.8,91.7l13.3-7.7l-2.1-7.7L183.7,84L185.8,91.7z"/>
					<path class="st3" d="M213.3,76.4l-14,8.1l-2.3-8.5l14-8.1L213.3,76.4z M199.5,83.8l13.3-7.7l-2.1-7.7l-13.3,7.7L199.5,83.8z"/>
					<path class="st3" d="M227,68.5l-14,8.1l-2.3-8.5l14-8.1L227,68.5z M213.2,76l13.3-7.7l-2.1-7.7l-13.3,7.7L213.2,76z"/>
					<path class="st3" d="M240.7,60.6l-14,8.1l-2.3-8.5l14-8.1L240.7,60.6z M226.9,68.1l13.3-7.7l-2.1-7.7l-13.3,7.7L226.9,68.1z"/>
					<path class="st3" d="M254.4,52.7l-14,8.1l-2.3-8.5l14-8.1L254.4,52.7z M240.6,60.2l13.3-7.7l-2.1-7.7l-13.3,7.7L240.6,60.2z"/>
					<path class="st3" d="M249.9,36.3l-29,16.7l-1.7-6.1l29-16.7L249.9,36.3z M221.1,52.4l28.3-16.3l-1.4-5.3l-28.3,16.3L221.1,52.4
						z"/>
					<path class="st3" d="M187.4,97.7l-21.9,12.6l-1.6-6l21.9-12.6L187.4,97.7z M165.8,109.7L187,97.5l-1.4-5.2l-21.2,12.2
						L165.8,109.7z"/>
					<path class="st3" d="M201.1,89.9l-14,8.1l-1.6-6l14-8.1L201.1,89.9z M187.3,97.3l13.3-7.7l-1.4-5.2l-13.3,7.7L187.3,97.3z"/>
					<path class="st3" d="M214.8,82l-14,8.1l-1.6-6l14-8.1L214.8,82z M201,89.4l13.3-7.7l-1.4-5.2l-13.3,7.7L201,89.4z"/>
					<path class="st3" d="M228.5,74.1l-14,8.1l-1.6-6l14-8.1L228.5,74.1z M214.7,81.6l13.3-7.7l-1.4-5.2l-13.3,7.7L214.7,81.6z"/>
					<path class="st3" d="M242.2,66.2l-14,8.1l-1.6-6l14-8.1L242.2,66.2z M228.4,73.7l13.3-7.7l-1.4-5.2L227,68.5L228.4,73.7z"/>
					<path class="st3" d="M255.9,58.3l-14,8.1l-1.6-6l14-8.1L255.9,58.3z M242.1,65.8l13.3-7.7L254,53l-13.3,7.7L242.1,65.8z"/>
					<path class="st3" d="M188.9,103.3l-21.9,12.6l-1.6-6l21.9-12.6L188.9,103.3z M167.3,115.3l21.2-12.2l-1.4-5.2l-21.2,12.2
						L167.3,115.3z"/>
					<path class="st3" d="M202.6,95.5l-14,8.1l-1.6-6l14-8.1L202.6,95.5z M188.8,102.9l13.3-7.7l-1.4-5.2l-13.3,7.7L188.8,102.9z"/>
					<path class="st3" d="M216.3,87.6l-14,8.1l-1.6-6l14-8.1L216.3,87.6z M202.5,95l13.3-7.7l-1.4-5.2l-13.3,7.7L202.5,95z"/>
					<path class="st3" d="M230,79.7l-14,8.1l-1.6-6l14-8.1L230,79.7z M216.2,87.2l13.3-7.7l-1.4-5.2L214.8,82L216.2,87.2z"/>
					<path class="st3" d="M243.7,71.8l-14,8.1l-1.6-6l14-8.1L243.7,71.8z M229.9,79.3l13.3-7.7l-1.4-5.2l-13.3,7.7L229.9,79.3z"/>
					<path class="st3" d="M257.4,64l-14,8.1l-1.6-6l14-8.1L257.4,64z M243.6,71.4l13.3-7.7l-1.4-5.2l-13.3,7.7L243.6,71.4z"/>
					<path class="st3" d="M190.5,108.9l-21.9,12.6l-1.6-6l21.9-12.6L190.5,108.9z M168.8,120.9l21.2-12.2l-1.4-5.2l-21.2,12.2
						L168.8,120.9z"/>
					<path class="st3" d="M204.2,101.1l-14,8.1l-1.6-6l14-8.1L204.2,101.1z M190.4,108.5l13.3-7.7l-1.4-5.2l-13.3,7.7L190.4,108.5z"/>
					<path class="st3" d="M217.8,93.2l-14,8.1l-1.6-6l14-8.1L217.8,93.2z M204,100.6l13.3-7.7l-1.4-5.2l-13.3,7.7L204,100.6z"/>
					<path class="st3" d="M231.5,85.3l-14,8.1l-1.6-6l14-8.1L231.5,85.3z M217.7,92.8l13.3-7.7l-1.4-5.2l-13.3,7.7L217.7,92.8z"/>
					<path class="st3" d="M245.2,77.4l-14,8.1l-1.6-6l14-8.1L245.2,77.4z M231.4,84.9l13.3-7.7l-1.4-5.2L230,79.7L231.4,84.9z"/>
					<path class="st3" d="M258.9,69.6l-14,8.1l-1.6-6l14-8.1L258.9,69.6z M245.1,77l13.3-7.7l-1.4-5.2l-13.3,7.7L245.1,77z"/>
					<path class="st3" d="M192,114.5l-21.9,12.6l-1.6-6l21.9-12.6L192,114.5z M170.3,126.5l21.2-12.2l-1.4-5.2l-21.2,12.2
						L170.3,126.5z"/>
					<path class="st3" d="M205.7,106.7l-14,8.1l-1.6-6l14-8.1L205.7,106.7z M191.9,114.1l13.3-7.7l-1.4-5.2l-13.3,7.7L191.9,114.1z"/>
					<path class="st3" d="M219.4,98.8l-14,8.1l-1.6-6l14-8.1L219.4,98.8z M205.6,106.2l13.3-7.7l-1.4-5.2l-13.3,7.7L205.6,106.2z"/>
					<path class="st3" d="M233.1,90.9L219,99l-1.6-6l14-8.1L233.1,90.9z M219.2,98.4l13.3-7.7l-1.4-5.2l-13.3,7.7L219.2,98.4z"/>
					<path class="st3" d="M246.7,83l-14,8.1l-1.6-6l14-8.1L246.7,83z M232.9,90.5l13.3-7.7l-1.4-5.2l-13.3,7.7L232.9,90.5z"/>
					<path class="st3" d="M260.4,75.2l-14,8.1l-1.6-6l14-8.1L260.4,75.2z M246.6,82.6l13.3-7.7l-1.4-5.2l-13.3,7.7L246.6,82.6z"/>
					<path class="st3" d="M193.5,120.1l-21.9,12.6l-1.6-6l21.9-12.6L193.5,120.1z M171.9,132.1l21.2-12.2l-1.4-5.2l-21.2,12.2
						L171.9,132.1z"/>
					<path class="st3" d="M207.2,112.3l-14,8.1l-1.6-6l14-8.1L207.2,112.3z M193.4,119.7l13.3-7.7l-1.4-5.2l-13.3,7.7L193.4,119.7z"/>
					<path class="st3" d="M220.9,104.4l-14,8.1l-1.6-6l14-8.1L220.9,104.4z M207.1,111.8l13.3-7.7L219,99l-13.3,7.7L207.1,111.8z"/>
					<path class="st3" d="M234.6,96.5l-14,8.1l-1.6-6l14-8.1L234.6,96.5z M220.8,104l13.3-7.7l-1.4-5.2l-13.3,7.7L220.8,104z"/>
					<path class="st3" d="M248.3,88.6l-14,8.1l-1.6-6l14-8.1L248.3,88.6z M234.5,96.1l13.3-7.7l-1.4-5.2l-13.3,7.7L234.5,96.1z"/>
					<path class="st3" d="M262,80.8l-14,8.1l-1.6-6l14-8.1L262,80.8z M248.1,88.2l13.3-7.7l-1.4-5.2L246.7,83L248.1,88.2z"/>
					<path class="st3" d="M195,125.7l-21.9,12.6l-1.6-6l21.9-12.6L195,125.7z M173.4,137.7l21.2-12.2l-1.4-5.2L172,132.5
						L173.4,137.7z"/>
					<path class="st3" d="M208.7,117.9l-14,8.1l-1.6-6l14-8.1L208.7,117.9z M194.9,125.3l13.3-7.7l-1.4-5.2l-13.3,7.7L194.9,125.3z"/>
					<path class="st3" d="M222.4,110l-14,8.1l-1.6-6l14-8.1L222.4,110z M208.6,117.4l13.3-7.7l-1.4-5.2l-13.3,7.7L208.6,117.4z"/>
					<path class="st3" d="M236.1,102.1l-14,8.1l-1.6-6l14-8.1L236.1,102.1z M222.3,109.6l13.3-7.7l-1.4-5.2l-13.3,7.7L222.3,109.6z"/>
					<path class="st3" d="M249.8,94.2l-14,8.1l-1.6-6l14-8.1L249.8,94.2z M236,101.7l13.3-7.7l-1.4-5.2l-13.3,7.7L236,101.7z"/>
					<path class="st3" d="M263.5,86.4l-14,8.1l-1.6-6l14-8.1L263.5,86.4z M249.7,93.8l13.3-7.7l-1.4-5.2l-13.3,7.7L249.7,93.8z"/>
					<polygon class="st3" points="197.1,70.7 160.7,91.6 160.4,90.5 196.8,69.6 					"/>
					<polygon class="st3" points="250.8,39.8 229.2,52.2 228.9,51.1 250.5,38.7 					"/>
					<polygon class="st3" points="172.4,78.1 159.1,85.7 158.8,84.6 172.1,77 					"/>
					<polygon class="st3" points="179.5,89.8 166.3,97.5 166,96.3 179.2,88.7 					"/>
					<polygon class="st3" points="181.8,98.1 168.5,105.8 168.2,104.7 181.5,97 					"/>
					<polygon class="st3" points="178.6,106.5 170,111.4 169.7,110.3 178.3,105.4 					"/>
					<polygon class="st3" points="178.2,113.2 171.5,117 171.2,115.9 177.9,112.1 					"/>
					<polygon class="st3" points="186.3,115 173.1,122.6 172.8,121.5 186,113.8 					"/>
					<polygon class="st3" points="187.8,120.6 174.6,128.2 174.3,127.1 187.5,119.4 					"/>
					<polygon class="st3" points="185.9,128.1 176.1,133.8 175.8,132.7 185.6,127 					"/>
					<polygon class="st3" points="175.2,95.5 167,100.2 166.7,99.1 174.9,94.4 					"/>
					<polygon class="st3" points="194.6,81.2 187,85.5 186.7,84.4 194.3,80.1 					"/>
					<polygon class="st3" points="192.4,85.6 187.8,88.3 187.5,87.2 192.1,84.5 					"/>
					<polygon class="st3" points="195.7,90.1 191.1,92.8 190.8,91.7 195.4,89 					"/>
					<polygon class="st3" points="197.3,95.7 192.6,98.4 192.3,97.3 197,94.6 					"/>
					<polygon class="st3" points="198.8,101.3 194.2,104 193.9,102.9 198.5,100.2 					"/>
					<polygon class="st3" points="200.3,106.9 195.7,109.6 195.4,108.5 200,105.8 					"/>
					<polygon class="st3" points="201.8,112.5 197.2,115.2 196.9,114.1 201.5,111.4 					"/>
					<polygon class="st3" points="209.5,82.2 204.9,84.9 204.6,83.8 209.2,81.1 					"/>
					<polygon class="st3" points="211,87.8 206.4,90.5 206.1,89.4 210.7,86.7 					"/>
					<polygon class="st3" points="214,99 209.4,101.7 209.1,100.6 213.7,97.9 					"/>
					<polygon class="st3" points="215.5,104.6 210.9,107.3 210.6,106.2 215.2,103.5 					"/>
					<polygon class="st3" points="217.1,110.2 212.4,112.9 212.1,111.8 216.8,109.1 					"/>
					<polygon class="st3" points="223.2,74.3 218.6,77 218.3,75.9 222.9,73.2 					"/>
					<polygon class="st3" points="224.7,79.9 220.1,82.6 219.8,81.5 224.4,78.8 					"/>
					<polygon class="st3" points="226.3,85.5 221.6,88.2 221.3,87.1 226,84.4 					"/>
					<polygon class="st3" points="227.8,91.1 223.1,93.8 222.8,92.7 227.5,90 					"/>
					<polygon class="st3" points="229.3,96.7 224.7,99.4 224.4,98.3 229,95.6 					"/>
					<polygon class="st3" points="230.8,102.3 226.2,105 225.9,103.9 230.5,101.2 					"/>
					<polygon class="st3" points="237,66.4 232.3,69.1 232,68 236.7,65.3 					"/>
					<polygon class="st3" points="240,77.6 235.4,80.3 235.1,79.2 239.7,76.5 					"/>
					<polygon class="st3" points="241.5,83.2 236.9,85.9 236.6,84.8 241.2,82.1 					"/>
					<polygon class="st3" points="244.5,94.4 239.9,97.1 239.6,96 244.2,93.3 					"/>
					<polygon class="st3" points="250.7,58.5 246.1,61.2 245.8,60 250.4,57.4 					"/>
					<polygon class="st3" points="252.2,64.1 247.6,66.8 247.3,65.7 251.9,63 					"/>
					<polygon class="st3" points="253.7,69.7 249.1,72.4 248.8,71.3 253.4,68.6 					"/>
					<polygon class="st3" points="255.2,75.3 250.6,78 250.3,76.9 254.9,74.2 					"/>
					<polygon class="st3" points="256.8,80.9 252.1,83.6 251.8,82.5 256.5,79.8 					"/>
					<polygon class="st3" points="258.3,86.5 253.7,89.2 253.4,88.1 258,85.4 					"/>
					<polygon class="st3" points="208.7,73.1 201.1,77.4 200.8,76.3 208.4,71.9 					"/>
					<polygon class="st3" points="206.5,77.5 201.9,80.1 201.6,79 206.2,76.4 					"/>
					<polygon class="st3" points="222.8,66.9 215.3,71.2 215,70.1 222.5,65.8 					"/>
					<polygon class="st3" points="233,59 228.5,61.7 228.2,60.6 232.7,57.9 					"/>
					<polygon class="st3" points="237.2,59.8 229.2,64.4 228.9,63.3 236.9,58.7 					"/>
					<polygon class="st3" points="249.6,49.5 242.1,53.8 241.8,52.7 249.3,48.4 					"/>
					<polygon class="st3" points="250.4,52.2 242.9,56.6 242.6,55.5 250.1,51.1 					"/>
					<polygon class="st3" points="246.4,35.5 233.2,43.1 232.9,42 246.1,34.3 					"/>
					<polygon class="st3" points="230.6,44.6 222.7,49.1 222.4,48 230.3,43.4 					"/>
					<polygon class="st3" points="179.9,70.6 158.4,83 157.9,81.4 179.4,69 					"/>
				</g>
			</g>
			<g>
				<g>
					<path class="st8" d="M103.6,210.3c-3.8-2.2-5.7-5.1-5.7-8l0.4-31.5c0-2.8,1.9-5.7,5.6-7.8c7.5-4.4,19.7-4.4,27.3,0
						c4,2.3,5.9,5.4,5.6,8.5c0-0.2,0-0.4,0-0.5l-0.4,31.5c0,2.8-1.9,5.7-5.6,7.8C123.4,214.6,111.2,214.6,103.6,210.3z"/>
					<g>
						<path class="st9" d="M104,178.8c7.6,4.4,19.8,4.4,27.3,0c7.5-4.4,7.5-11.4-0.1-15.8c-7.6-4.4-19.8-4.4-27.3,0
							C96.4,167.4,96.4,174.4,104,178.8z"/>
					</g>
				</g>
				<g>
					<path class="st8" d="M102.3,174.9c0.8,1.1,1.8,2,3.4,2.9c6.6,3.8,17.2,3.8,23.8,0c1.6-0.9,2.7-1.9,3.4-2.9
						c2.8-3.6,1.7-8-3.4-10.9c-6.6-3.8-17.3-3.8-23.9,0C100.6,166.9,99.5,171.3,102.3,174.9z"/>
				</g>
				<g>
					<g>
						<path class="st10" d="M102.3,174.9c0.8,1.1,1.8,2,3.4,2.9c6.6,3.8,17.2,3.8,23.8,0c1.6-0.9,2.7-1.9,3.4-2.9
							c-0.8-1.1-1.8-2-3.4-2.9c-6.6-3.9-17.3-3.9-23.9,0C104.2,172.8,103,173.8,102.3,174.9z"/>
					</g>
					<g>
						<path class="st10" d="M102.3,174.9c0.8,1.1,1.8,2,3.4,2.9c6.6,3.8,17.2,3.8,23.8,0c1.6-0.9,2.7-1.9,3.4-2.9
							c-0.8-1.1-1.8-2-3.4-2.9c-6.6-3.9-17.3-3.9-23.9,0C104.2,172.8,103,173.8,102.3,174.9z"/>
					</g>
				</g>
				<path class="st8" d="M94.3,199.5c2.6,0,4.5-1.5,5.5-4.1c0.4-1.2-0.2-2.5-1.3-2.9c-1.2-0.4-2.5,0.2-2.9,1.3
					c-0.4,1.1-1.1,1.2-1.2,1.1c-1.3,0-3.4-1.6-4.4-4c-1.2-2.9-1.2-7.6,0.1-10.5c0.4-1,1-1.7,1.5-1.9c1-0.4,2.1-0.3,2.9,0.3
					c1,0.7,1.6,2,1.6,3.6c0,1.3,1,2.3,2.3,2.3c1.3,0,2.3-1,2.3-2.3c0-3.1-1.3-5.8-3.6-7.4c-2.1-1.4-4.7-1.7-7.2-0.7
					c-1.7,0.7-3,2.2-4,4.3c-1.7,4-1.8,9.9-0.1,14C87.3,196.7,90.9,199.5,94.3,199.5z"/>
			</g>
			<g>
				<path class="st11" d="M401.3,230.9c0,0-59.2-33.4-83-7.1C298,246.1,338.5,342,334.7,380.7c-7.1,6.4-15,7-23.6,3.2
					c-13,1.7-18.5,7-20.4,14v10.7l26.3,11.3l48.3,5.9l2.1-22.5c-9.1-37.3-3.8-74.1-4.8-115.4l87.5,50.5l60.1-11.3l15.6-77.8
					L401.3,230.9z"/>
				<path class="st4" d="M313.5,384.8c-7.5,1.1-12.6,4.7-16.8,9.4c-2,2.3-1.8,5.7,0.4,7.8c4.4,4.1,12.2,10.3,19.1,11.7
					c21.7,4.3,43.7-13.8,50.9-12.1c7,8.3,8.7,18.9,6.5,31.4c0,0-7.9,8.2-20.7,6.8c-8.5-0.9-21.7-10.3-21.7-10.3
					c-16.5-2.5-31.8-8.8-45.9-18.5c-6.3-7.9-10.4-15.9-10.7-24.2c0-7,5.4-9.5,12.3-8.6L313.5,384.8z"/>
				<g>
					<path class="st12" d="M291.9,521c0,4.7-3.8,8.5-8.5,8.5c-4.7,0-8.5-3.8-8.5-8.5c0-4.7,3.8-8.5,8.5-8.5
						C288.1,512.5,291.9,516.3,291.9,521z"/>
					<path class="st12" d="M423.4,559.8c0,4.7-3.8,8.5-8.5,8.5c-4.7,0-8.5-3.8-8.5-8.5c0-4.7,3.8-8.5,8.5-8.5
						C419.6,551.3,423.4,555.1,423.4,559.8z"/>
					<path class="st12" d="M525.5,500.2c0,4.7-3.8,8.5-8.5,8.5c-4.7,0-8.5-3.8-8.5-8.5c0-4.7,3.8-8.5,8.5-8.5
						C521.7,491.7,525.5,495.5,525.5,500.2z"/>
					<path class="st12" d="M462.1,422.6c0,4.7-3.8,8.5-8.5,8.5c-4.7,0-8.5-3.8-8.5-8.5c0-4.7,3.8-8.5,8.5-8.5
						C458.3,414.1,462.1,417.9,462.1,422.6z"/>
					<path class="st12" d="M312.8,438.2c0,4.7-3.8,8.5-8.5,8.5c-4.7,0-8.5-3.8-8.5-8.5s3.8-8.5,8.5-8.5
						C309,429.7,312.8,433.5,312.8,438.2z"/>
					<g>
						<g>
							<path class="st12" d="M419.5,473.2l41.4-55.4v-3.7l-12.2,0.1l-53.2,51.9c-3.6,0-7.2,0.3-10.7,1l-78.4-39.8l-9.7,1.9v3.7
								l69,45.3c-1.2,2-1.8,4.1-1.7,6.2l-89.9,27.1v3.7l6.2,7l95.9-23.9c3,1.3,6.2,2.3,9.7,2.9l22.9,58.8l13.5-1.2v-3.7l-9.7-56.4
								c1.5-0.6,2.9-1.3,4.2-2c1.3-0.8,2.5-1.6,3.5-2.4l104,5.6l2.1-7.8v-3.7l-101.9-9.5C423.4,476.8,421.7,474.9,419.5,473.2z"/>
						</g>
						<g>
							<path class="st13" d="M419.5,458.5l41.4-44.4l-12.2-3.6l-53.2,40.9c-3.6,0-7.2,0.3-10.7,1l-78.4-28.8l-9.7,5.6l69,34.3
								c-1.2,2-1.8,4.1-1.7,6.2l-89.9,41.8l6.2,7l95.9-34.9c3,1.3,6.2,2.3,9.7,2.9l22.9,69.8l13.5-1.2l-9.7-71.1
								c1.5-0.6,2.9-1.3,4.2-2c1.3-0.8,2.5-1.6,3.5-2.4l104,16.6l2.1-7.8l-101.9-24.2C423.4,462.1,421.7,460.2,419.5,458.5z"/>
						</g>
					</g>
					<g>
						<path class="st1" d="M408.3,388.4c-0.7-0.7-1.6-1.4-2.7-2.1c-6.5-3.7-16.9-3.7-23.4,0c-1.1,0.6-2,1.3-2.7,2.1h-2.1v77.9
							c0,2.4,1.6,4.9,4.8,6.8c6.5,3.7,16.9,3.7,23.4,0c3.2-1.9,4.8-4.3,4.8-6.8v-77.9H408.3z"/>
						<path class="st1" d="M405.6,381.6c6.5,3.7,6.5,9.8,0,13.5c-6.5,3.7-16.9,3.7-23.4,0c-6.5-3.7-6.5-9.8,0-13.5
							C388.7,377.9,399.2,377.9,405.6,381.6z"/>
						<path class="st13" d="M415.1,333.6c-2.4-2.4-6-4.5-11.2-5.9c-6.5-1.8-13.4-1.8-19.9,0c-5.1,1.4-8.8,3.5-11.2,5.9h-3.1v59.2
							c0,5,4.5,9.9,13.6,12.6c6.9,2.1,14.3,2.1,21.2,0c9.1-2.7,13.6-7.7,13.6-12.6v-59.2H415.1z"/>
						<path class="st1" d="M404.5,321c18.2,5.4,18.2,19.9,0,25.3c-6.9,2.1-14.3,2.1-21.2,0c-18.2-5.4-18.2-19.9,0-25.3
							C390.2,319,397.6,319,404.5,321z"/>
					</g>
				</g>
				<path class="st1" d="M428.1,105.3c-4.3-2.5-11.4-2.5-15.7,0c-2.2,1.3-3.3,2.9-3.3,4.5v244.3c0,1.6,1.1,3.3,3.3,4.5
					c4.3,2.5,11.4,2.5,15.7,0c2.2-1.3,3.3-2.9,3.3-4.5V109.9C431.3,108.2,430.2,106.6,428.1,105.3z"/>
				<path class="st14" d="M351.3,139.2l-16.6-10.2l-19.5-15.7l-16-2.9l-9.9,0.7c-0.7,0-1.4,0.3-2,0.7l-1.8,1.2l-2.5,0.5
					c-1.6,0.3-2.9,1.6-3.3,3.2l-2.5,1.8c-1.1,1.2-0.1,3.5,1.5,3.5l3.4-0.6l6.2,0.7l10.3,3.3l6.9,8.8c0,0-0.7,2.3-1.2,2.5
					c-3.6,1.7-10.1,2.4-10.1,2.4l-3.5,0c-2.9,1.4-4.1,4-1,4.9l4.8,1.1l18.6,1.5l13.9-2l16.5,9.3L351.3,139.2z"/>
				<path class="st14" d="M346.5,280.7c0,0-66.3-37-90.2-10.7c-20.3,22.3,27.4,121.9,23.6,160.5c-7.1,6.4-15.1,7-23.6,3.2
					c-13,1.7-18.5,7-20.4,14v10.7l26.3,11.3l48.3,5.9l2.1-22.5c-9.1-37.3-3.8-74.1-4.8-115.4l87.5,50.5l60.1-11.3l15.6-77.8
					L346.5,280.7z"/>
				<g>
					<path d="M426.6,456.3l114.6-66.5c1.9-1.1,3.1-3.5,3.1-6.8l0-15.6c0-6.7-4.8-14.9-10.6-18.2l-127.1-72.9
						c-2.9-1.7-5.6-1.8-7.5-0.7L284.5,342L426.6,456.3z"/>
				</g>
				<path class="st4" d="M258.6,434.6c-7.5,1.1-12.6,4.7-16.8,9.4c-2,2.3-1.8,5.7,0.4,7.8c4.4,4.1,12.2,10.3,19.1,11.7
					c21.7,4.3,43.7-13.8,50.9-12.1c7,8.3,8.7,18.9,6.5,31.4c0,0-7.9,8.2-20.7,6.8c-8.5-0.9-21.7-10.3-21.7-10.3
					c-16.5-2.5-31.8-8.9-45.9-18.5c-6.3-7.9-10.4-15.9-10.7-24.2c0-7,5.4-9.5,12.3-8.6L258.6,434.6z"/>
				<path class="st4" d="M507,329.5c-11.2,48.8-46.9,67.3-92.9,67.4c-51.7-5.7-98.7-44.9-144.4-93.1c-1.6-5.1-2.6-10.2-2.8-15.2
					c-0.9-20.9,11.7-40.6,47.3-58.3l116,21.2l63.5,11.6C493.7,262.9,515.5,291.9,507,329.5z"/>
				<path class="st15" d="M430.2,251.3l-54,72.8c-28.6-41.9-72.4-3.1-109.2-35.6c-0.9-20.9,11.7-40.6,47.3-58.3L430.2,251.3z"/>
				<path class="st14" d="M348.2,137.3c-8.8,2.4-13.9,4.2-12.6,12c26.2,16.8,41.6,40.4,73.6,40.1l74.4-36.7
					c1-18.3-12.8-57.7-39.2-47.4l-44.5,46.3L348.2,137.3z"/>
				<path class="st5" d="M509,304.8c-24.3,22.8-54.8,38.2-81.3,40.4c-25.5,2.1-47.2-8-56.3-35.3c2.6-20.6,5.5-42.3-3-63.1
					c0,0-10-1.7-18.6-8.8c-6.4-5.3-12-13.7-12-26.6c0-20.5,38.3-60.1,38.3-60.1c22.8-25.2,41.2-39.6,68.4-45.9
					c0,0,33.9,8.1,38.8,44.7c5.9,44-5.5,60.3,6.9,96.2C500.5,263.5,505.3,279.6,509,304.8z"/>
				<path class="st14" d="M386.6,104l1.9,36.6c14.3,11.4,53.5-1,46.4-17.9l-6.1-32.9L386.6,104z"/>
				<path class="st14" d="M242.2,226.4l-9.7-13.7l-11.3-5l-13.8-15.5l-6.9-5.3l-3-0.4l-4.1-0.7c-4-0.3-3.9-4.6,0-4.9l7.6,0.2
					l7.9,3.3l0.7-1.9l-8.1-7.4l-5.2-2.2c-2.5-0.4-3.2-4.4,0.5-5.1l5.4,0.2l3.7-1.5c1.9-0.7,3.9-0.8,5.9-0.2l3.6,1.1l5.3-2.3
					c1.8-0.8,3.8-0.4,5.2,0.9l6.8,6.3l7.4,9c0,0,4.5,1.7,7.6,6.6c1.9,3.1,0.6,14.3,0.6,14.3l10.8,10.3L242.2,226.4z"/>
				<path class="st16" d="M428,345.1c-25.8,2.3-47.6-7.8-56.6-35.2c2.6-20.6,5.5-42.3-3-63.1c0,0-10-1.7-18.6-8.8l1.4-14.5l41.9-18
					C415.2,258.1,350.7,328.5,428,345.1z"/>
				<path class="st14" d="M232.4,212.8c9.7,28.3,39.7,61.7,54.8,67.1c32-7,64-32.2,96.4-56.4c22.5-14.7,0.7-51.9-27-34.5
					c0,0-66.2,48.5-67.2,48.5c-1.1,0-41.2-35.1-41.2-35.1C240.1,203.3,234.3,206.7,232.4,212.8z"/>
				<g>
					<path d="M464.6,187.3l-2.3,101l-26,134L551,356c0.6-0.4,1.2-0.8,1.6-1.4c26.9-33.4,54.7-92.9,45.6-214.9
						c-0.5-6.9-5.3-14.6-11-17.9c-3-1.8-5.8-1.9-7.8-0.8C579.4,121,464.6,187.3,464.6,187.3z"/>
					<path class="st12" d="M411.9,412.2l15.9,9.2c4.1,2.4,7.9,2.2,10.1-0.5c26.9-33.4,54.7-92.9,45.6-214.9
						c-0.5-6.9-5.3-14.6-11-17.9c-5.8-3.3-10.6-1-11,5.5c-5,78.2-18.8,147.3-57,199C400.9,397.3,405.1,408.3,411.9,412.2z"/>
				</g>
				<path class="st12" d="M292.1,382.6l127.1,72.9c5.8,3.3,10.5,0.6,10.5-6.1l0-15.6c0-6.7-4.8-14.9-10.6-18.2L292,342.7
					c-5.8-3.3-10.5-0.6-10.5,6.1l0,15.6C281.5,371.1,286.3,379.3,292.1,382.6z"/>
				<path class="st14" d="M365,42.7c-2.6,4.5-3.7,9.7-4.2,14.9c-1.7,16.7,1.8,33.9,9.9,48.5c2,3.6,4.3,7,7.4,9.7
					c3.1,2.6,7.1,4.4,11.2,4.1c6-0.5,10.7-5.1,14.8-9.4c3.6-3.9,7.3-8,8.6-13.1c1.4-5.6-0.3-11.4-2.3-16.8
					c-4.6-12.3-11-23.8-19.1-34.2c-3.1-4-7.6-11.3-12.9-12.4C373.1,32.8,367.5,38.5,365,42.7z"/>
				<path d="M360.7,40.1c0,0-27.2,52.7,54.1,76.4c0,0,3.2,2.3,16.5-4.4c11.3-19.4,40.3-65.4-9.7-87.5
					C389.7,10.6,355.3,22.9,360.7,40.1z"/>
				<path d="M414.5,119.2c-0.8,6.1-2.9,11.9-3.9,17.9c-3.1,19.7,8.7,40.8,27.1,48.5c-6.7-19.4,13.8-40.6,6.9-59.9
					c-2.9-8.2-10.2-13.9-17.2-19.2c-2.7-2.1-5.5-4.2-8.8-5.3c-6.1-2.2-7.2-1.1-6.4,3.8C413.3,110.1,415.3,113.6,414.5,119.2z"/>
			</g>
		</g>
	</g>
</switch>

</svg>
