<?xml version="1.0" encoding="utf-8"?>
<!-- Generator: Adobe Illustrator 27.1.1, SVG Export Plug-In . SVG Version: 6.00 Build 0)  -->










<svg version="1.1" id="Layer_1" xmlns="http://www.w3.org/2000/svg" xmlns:xlink="http://www.w3.org/1999/xlink" x="0px" y="0px" viewBox="0 0 600 370.3" style="enable-background:new 0 0 600 370.3;" xml:space="preserve">
<style type="text/css">
	.st0{opacity:0.3;}
	.st1{fill:#F1F2F2;}
	.st2{opacity:0.5;fill:#574943;}
	.st3{fill:#A1B4BF;}
	.st4{fill:#C84030;}
	.st5{fill:#389998;}
	.st6{fill:#FFC654;}
	.st7{fill:#F4EFE9;}
	.st8{fill:#EB5C44;}
	.st9{fill:#CCA7CF;}
	.st10{fill:#DDE65C;}
	.st11{fill:#BAF3FF;}
	.st12{fill:#FBE979;}
	.st13{fill:#FDB053;}
	.st14{fill:#FFEC7A;}
	.st15{fill:#E95156;}
	.st16{fill:#A39685;}
	.st17{fill:#C2BFBB;}
	.st18{fill:#D6D2CE;}
	.st19{fill:#E6E1DD;}
	.st20{fill:#A18781;}
	.st21{fill:#696664;}
	.st22{fill:#858280;}
	.st23{fill:#A6A3A0;}
	.st24{fill:#261F1D;}
	.st25{fill:#403531;}
	.st26{fill:#836E69;}
	.st27{fill:#685750;}
	.st28{fill:#0F0D0C;}
	.st29{fill:#362C29;}
	.st30{fill:#C2A39B;}
</style>
<switch>
	
	<g>
		<g>
			<polygon class="st0" points="600,187.9 284.1,370.3 10,211.9 325.9,29.5 			"/>
			<polygon class="st1" points="600,184.6 284.1,367 10,208.6 325.9,26.2 			"/>
			<g>
				<polygon class="st2" points="36.6,205.7 77.8,229.5 119.1,205.7 77.8,181.9 				"/>
				<polygon class="st2" points="160.4,181.9 119.1,205.7 160.4,229.5 201.6,205.7 				"/>
				<polygon class="st2" points="160.4,134.2 119.1,158 160.4,181.9 201.6,158 				"/>
				<polygon class="st2" points="284.1,158 242.9,134.2 201.6,158 242.9,181.9 				"/>
				<polygon class="st2" points="242.9,86.6 201.6,110.4 242.9,134.2 284.1,110.4 				"/>
				<polygon class="st2" points="366.7,110.4 325.4,86.6 284.1,110.4 325.4,134.2 				"/>
				<polygon class="st2" points="325.4,38.9 284.1,62.8 325.4,86.6 366.7,62.8 				"/>
				<polygon class="st2" points="119.1,253.3 160.4,277.2 201.6,253.3 160.4,229.5 				"/>
				<polygon class="st2" points="242.9,229.5 201.6,253.3 242.9,277.1 284.1,253.3 				"/>
				<polygon class="st2" points="242.9,181.9 201.6,205.7 242.9,229.5 284.1,205.7 				"/>
				<polygon class="st2" points="284.1,205.7 325.4,229.5 366.7,205.7 325.4,181.9 				"/>
				<polygon class="st2" points="366.7,158 325.4,134.2 284.1,158 325.4,181.9 				"/>
				<polygon class="st2" points="366.7,158 407.9,181.9 449.2,158 407.9,134.2 				"/>
				<polygon class="st2" points="449.2,110.4 407.9,86.6 366.7,110.4 407.9,134.2 				"/>
				<polygon class="st2" points="201.6,301 242.9,324.8 284.1,301 242.9,277.1 				"/>
				<polygon class="st2" points="325.4,324.8 366.7,301 325.4,277.1 284.1,301 				"/>
				<polygon class="st2" points="284.1,253.3 325.4,277.1 366.7,253.3 325.4,229.5 				"/>
				<polygon class="st2" points="407.9,277.1 449.2,253.3 407.9,229.5 366.7,253.3 				"/>
				<polygon class="st2" points="366.7,205.7 407.9,229.5 449.2,205.7 407.9,181.9 				"/>
				<polygon class="st2" points="490.4,229.5 531.7,205.7 490.4,181.9 449.2,205.7 				"/>
				<polygon class="st2" points="449.2,158 490.4,181.9 531.7,158 490.4,134.2 				"/>
				<polygon class="st3" points="284.1,351.2 283,350.6 34.2,207 38.9,204.4 284.1,346 576,177.4 580.7,180.1 				"/>
			</g>
		</g>
		<g>
			<polygon class="st0" points="391,155.1 275.8,88.6 426,1.9 541.2,68.4 			"/>
			<polygon class="st1" points="391,153.2 275.8,86.7 426,0 541.2,66.5 			"/>
			<g>
				<path class="st4" d="M446.6,74.7l11.6,6.7h16.3l5.4-3.2l10.1,5.9l-9.6,5.5h-28.2l-19.9-11.5L446.6,74.7z"/>
				<polygon class="st5" points="432.3,78.2 432.3,61.9 452.2,50.4 458.2,58.6 446.6,65.3 446.6,74.7 				"/>
				<polygon class="st6" points="479.9,78.3 486,74.7 486,65.3 474.5,58.6 458.2,58.6 452.2,50.4 480.4,50.4 500.3,61.9 500.3,78.2 
					490,84.1 				"/>
				<path class="st6" d="M461.5,63.3l-6.9,4v5.6l6.9,4h9.7l6.9-4v-5.6l-6.9-4H461.5z"/>
				<path class="st6" d="M425.7,12.4l-6.9,4v5.6l6.9,4h9.7l6.8-4v-5.6l-6.8-4H425.7z"/>
				<path class="st5" d="M404.7,24.5l-6.8,4v5.6l6.8,4h9.7l6.9-4v-5.6l-6.9-3.9L404.7,24.5z"/>
				<path class="st4" d="M383.6,36.7l-6.9,4v5.6l6.9,3.9h9.7l6.9-3.9v-5.6l-6.9-4H383.6z"/>
			</g>
			<polygon class="st7" points="448.5,108.1 354.2,53.7 358.3,51.3 452.6,105.8 			"/>
			<polygon class="st7" points="399.8,90.4 345.2,58.9 349.3,56.5 403.8,88 			"/>
			<g>
				<path class="st8" d="M324.9,76.3l-6,3.4l0,4.9l2.8,1.6l-5.2,3l-4.9-2.9V78l10.2-5.9L324.9,76.3z"/>
				<polygon class="st5" points="321.9,72.1 336.4,72.1 346.6,78 339.3,79.7 333.3,76.3 324.9,76.3 				"/>
				<polygon class="st6" points="321.8,86.2 324.9,88 333.3,88 339.3,84.6 339.3,79.7 346.6,78 346.6,86.3 336.4,92.3 321.9,92.3 
					316.6,89.2 				"/>
				<path class="st6" d="M335.1,80.7l-3.5-2h-5l-3.5,2v2.9l3.5,2h5l3.5-2V80.7z"/>
			</g>
			<g>
				<path class="st9" d="M374.2,104.7v-4.8l-6-3.4h-3.9v-4.3h7l10.3,5.9v8.4L374.2,104.7z"/>
				<polygon class="st10" points="381.5,106.5 371.3,112.4 356.8,112.4 359.8,108.1 368.2,108.1 374.2,104.7 				"/>
				<polygon class="st5" points="364.3,96.4 359.8,96.4 353.9,99.9 353.9,104.7 359.8,108.1 356.8,112.4 346.5,106.5 346.5,98.1 
					356.8,92.2 364.3,92.2 				"/>
				<path class="st5" d="M361.5,105.8h5l3.5-2v-2.9l-3.5-2h-5l-3.5,2v2.9L361.5,105.8z"/>
			</g>
			<g>
				<path class="st6" d="M403.1,116.6h-8.4l-5.9,3.4v2.3h-7.3v-4l10.2-5.9h14.5L403.1,116.6z"/>
				<polygon class="st8" points="406.2,112.3 416.4,118.3 416.4,126.6 409,124.9 409,120 403.1,116.6 				"/>
				<polygon class="st6" points="388.8,122.3 388.8,124.9 394.7,128.3 403.1,128.3 409,124.9 416.4,126.6 406.2,132.5 391.6,132.6 
					381.4,126.6 381.4,122.3 385.3,120.1 				"/>
				<path class="st8" d="M404.9,123.9V121l-3.5-2h-5l-3.5,2v2.9l3.5,2h5L404.9,123.9z"/>
			</g>
		</g>
		<g>
			<polygon class="st0" points="184.5,363.2 70.3,297.2 219.3,211.1 333.6,277.1 			"/>
			<polygon class="st1" points="184.5,361.7 70.3,295.8 219.3,209.7 333.6,275.7 			"/>
			<g>
				<polygon class="st10" points="262.9,274.6 262.9,274.6 239.5,288.2 229.9,282.6 229.9,266.8 				"/>
				<polygon class="st5" points="229.9,266.8 249.3,255.6 276.8,255.6 296.2,266.8 262.9,274.6 				"/>
				<polygon class="st6" points="262.9,274.6 262.9,274.6 296.2,266.8 296.2,282.6 276.8,293.8 249.3,293.8 239.5,288.2 				"/>
			</g>
			<g>
				<polygon class="st10" points="225.8,284.2 213.9,277.3 211.7,277.3 210.1,278.2 210.1,279.5 222,286.4 224.2,286.4 225.8,285.5 
									"/>
				<polygon class="st6" points="219.4,287.9 207.5,281 205.3,281 203.7,281.9 203.7,283.2 215.6,290 217.9,290 219.4,289.1 				"/>
				<polygon class="st8" points="213,291.6 201.1,284.7 198.9,284.7 197.3,285.6 197.3,286.8 209.3,293.7 211.5,293.7 213,292.8 
									"/>
			</g>
			<g>
				<path class="st8" d="M216.3,232.8l-6.7,3.8v5.4l3.1,1.8l-5.8,3.4l-5.5-3.2v-9.3l11.5-6.6L216.3,232.8z"/>
				<polygon class="st5" points="212.9,228 229.1,228 240.5,234.7 232.3,236.6 225.7,232.8 216.3,232.8 				"/>
				<polygon class="st6" points="212.8,243.8 216.3,245.8 225.7,245.8 232.3,242 232.3,236.6 240.5,234.7 240.5,244 229.1,250.6 
					212.9,250.6 207,247.2 				"/>
				<path class="st6" d="M227.7,237.7l-3.9-2.2h-5.6l-4,2.2v3.2l4,2.3h5.6l3.9-2.3V237.7z"/>
			</g>
			<g>
				<path class="st9" d="M193.1,264.6v-5.4l-6.7-3.8h-4.4v-4.8h7.8l11.4,6.6v9.3L193.1,264.6z"/>
				<polygon class="st10" points="201.3,266.6 189.9,273.2 173.7,273.2 177.1,268.5 186.5,268.5 193.1,264.6 				"/>
				<polygon class="st5" points="182.1,255.4 177.1,255.4 170.5,259.2 170.5,264.6 177.1,268.5 173.7,273.2 162.3,266.6 
					162.3,257.3 173.7,250.6 182.1,250.6 				"/>
				<path class="st5" d="M179,265.8h5.5l3.9-2.3v-3.2l-3.9-2.3H179l-4,2.3v3.2L179,265.8z"/>
			</g>
			<polygon class="st9" points="259.7,303.7 231,287.2 214.4,296.7 243.1,313.3 			"/>
			<polygon class="st7" points="229.7,321 140.8,269.7 144.8,267.3 233.8,318.7 			"/>
			<polygon class="st7" points="220.8,326.2 131.9,274.8 135.9,272.5 224.8,323.9 			"/>
			<polygon class="st7" points="175.2,310.1 122.9,280 127,277.7 179.2,307.8 			"/>
			<g>
				<polygon class="st11" points="182.7,348.2 93.8,296.8 117.2,283.3 206.1,334.6 				"/>
				<g>
					<polygon class="st12" points="123.8,290.2 118.4,287.1 117.4,287.1 116.7,287.5 116.7,288.1 122.1,291.2 123.1,291.2 
						123.8,290.8 					"/>
					<polygon class="st13" points="120.9,291.9 115.5,288.8 114.5,288.8 113.8,289.2 113.8,289.7 119.2,292.9 120.2,292.9 
						120.9,292.5 					"/>
					<polygon class="st8" points="118,293.5 112.7,290.5 111.7,290.5 111,290.8 111,291.4 116.3,294.5 117.3,294.5 118,294.1 					
						"/>
				</g>
				<polygon class="st8" points="93.8,296.8 138.9,306.5 149.4,313.2 170.6,318.7 181.5,328.3 206.1,334.6 202.1,336.9 180.4,343.7 
									"/>
				<polygon class="st13" points="93.8,296.8 120.7,298.9 143.8,315 176.1,327.9 186.3,335.1 202.1,336.9 196.9,340 177.4,343.8 
									"/>
				<polygon class="st12" points="93.8,296.8 128.2,307.1 135.9,316.3 160,325.4 172.1,334.3 196.9,340 182.7,348.2 				"/>
			</g>
		</g>
		<g>
			<polygon class="st0" points="419.7,339.6 304.5,273.1 454.7,186.4 569.9,252.9 			"/>
			<polygon class="st1" points="419.7,337.7 304.5,271.2 454.7,184.5 569.9,250.9 			"/>
			<g>
				<g>
					<polygon class="st13" points="429.7,322 332.1,265.7 332.7,265.4 430.4,321.7 					"/>
					<polygon class="st14" points="390.3,256.8 373.3,246.9 337.1,267.9 354.1,277.7 					"/>
					<polygon class="st6" points="425.6,263 408.6,253.2 360.1,281.2 377.1,291 					"/>
					<polygon class="st15" points="460.8,269.3 443.8,259.5 383.2,294.5 400.2,304.3 					"/>
					<polygon class="st6" points="465.6,293.2 448.6,283.3 406.2,307.8 423.2,317.6 					"/>
				</g>
				<g>
					<g>
						<polygon class="st8" points="454.6,226.8 454.6,226.8 454.6,208.7 467.5,208.7 485.9,219.3 						"/>
						<polygon class="st8" points="485.9,219.3 485.9,234.3 467.5,245 441.4,245 454.6,226.8 						"/>
						<polygon class="st6" points="454.6,226.8 454.6,226.8 441.4,245 423,234.3 423,219.3 441.4,208.7 454.6,208.7 						"/>
					</g>
					<g>
						<polygon class="st13" points="525.5,256.3 506.3,245.2 502.8,245.9 499.6,247.8 498.3,249.8 517.5,260.9 520.9,260.2 
							524.2,258.3 						"/>
						<polygon class="st8" points="512,264.1 492.8,253 489.4,253.7 486.1,255.6 484.9,257.6 504,268.7 507.4,268 510.7,266.1 
													"/>
					</g>
				</g>
			</g>
		</g>
		<polygon class="st0" points="114.9,200.3 0,134 149.9,47.5 264.8,113.8 		"/>
		<polygon class="st1" points="114.9,199 0,132.6 149.9,46.1 264.8,112.4 		"/>
		<g>
			<path class="st8" d="M169.6,81.7l-11.3-6.5l-15.9,0l-11.3,6.5l0,9.2l5.3,3.1l-9.9,5.7l-9.4-5.4V78.4l19.5-11.2h27.5l19.4,11.2
				L169.6,81.7z"/>
			<polygon class="st13" points="136.4,94 142.4,97.4 158.3,97.4 169.6,90.9 169.6,81.7 183.5,78.4 183.5,94.3 164.1,105.5 
				136.6,105.5 126.5,99.7 			"/>
		</g>
		<polygon class="st7" points="225.1,122 186.3,99.5 190.3,97.2 229.2,119.6 		"/>
		<polygon class="st7" points="216.1,127.1 177.3,104.7 181.3,102.4 220.2,124.8 		"/>
		<polygon class="st7" points="191.1,123.1 168.3,109.9 172.3,107.6 195.1,120.8 		"/>
		<polygon class="st16" points="139.3,171.5 47.5,118.6 48.5,118 140.3,170.9 		"/>
		<polygon class="st13" points="105.8,128 77.8,111.8 57.9,123.4 85.9,139.5 		"/>
		<polygon class="st8" points="162.7,147.3 134.7,131.1 102.4,149.7 130.4,165.9 		"/>
		<polygon class="st7" points="113.1,186.6 21.4,133.7 42.7,121.4 134.4,174.3 		"/>
		<g>
			<g>
				<g>
					<polygon class="st0" points="306.5,89.3 293.3,86.2 280.1,89.3 274.7,96.9 280.1,104.6 293.3,107.7 306.5,104.5 311.9,96.9 
											"/>
					<g>
						<polygon class="st17" points="306.1,104 311.4,96.6 311.4,89.6 307.3,92.9 304.7,96.3 						"/>
						<polygon class="st18" points="293.3,107.1 306.1,104 306.1,97 301.2,96.7 292.5,99.1 						"/>
						<polygon class="st7" points="280.5,104 275.2,96.6 275.2,89.6 279.4,92.9 280.5,97 						"/>
						<polygon class="st19" points="293.3,107.1 280.5,104 280.5,97 285.4,96.7 293.3,100 						"/>
						<polygon class="st1" points="306.1,97 311.4,89.6 306.1,82.2 293.3,79.2 280.5,82.2 275.2,89.6 280.5,97 293.3,100 						"/>
					</g>
					<g>
						<polygon class="st7" points="284.4,54.6 286.8,54.6 286.8,58 288.6,74.2 283.8,94.5 280.4,89.8 						"/>
						<polygon class="st19" points="293.3,59.5 290.7,57.1 286.8,58 283.8,94.5 293.3,96.8 						"/>
						<polygon class="st17" points="302.2,54.6 299.8,54.6 299.8,58 298,74.2 302.8,94.5 306.2,89.8 						"/>
						<polygon class="st18" points="299.8,58 295.3,55.8 293.3,59.5 293.3,96.8 302.8,94.5 						"/>
						<path class="st20" d="M286.8,58l6.5,1.5l6.5-1.6l2.4-3.3l-2.4-3.3l-6.5-1.6l-6.5,1.6l-2.4,3.3L286.8,58z"/>
						<polygon class="st0" points="284,58.6 284.7,59.6 293.3,61.7 301.9,59.6 302.7,58.6 302.2,54.6 284.4,54.6 						"/>
					</g>
					<g>
						<polygon class="st17" points="301.9,58.1 305.5,53.1 305.5,48.4 302.7,50.6 301,52.8 						"/>
						<polygon class="st18" points="293.3,60.1 301.9,58.1 301.9,53.3 298.6,53.2 292.8,54.8 						"/>
						<polygon class="st7" points="284.7,58.1 281.1,53.1 281.1,48.4 283.9,50.6 284.7,53.3 						"/>
						<polygon class="st19" points="293.3,60.1 284.7,58.1 284.7,53.3 288,53.2 293.3,55.4 						"/>
						<polygon class="st1" points="301.9,53.3 305.5,48.4 301.9,43.4 293.3,41.3 284.7,43.4 281.1,48.4 284.7,53.3 293.3,55.4 
													"/>
					</g>
					<g>
						<polygon class="st21" points="298,50.6 293.3,51.3 288.6,50.6 285.3,50.4 288.8,51.4 293.3,52.4 298,51.4 301.3,50.4 						
							"/>
						<polygon class="st22" points="299.8,47.7 286.8,47.7 282.5,48 285.3,50.4 293.3,52.3 301.3,50.4 304.2,48 						"/>
						<polygon class="st23" points="305.6,37.2 300,43.2 286.6,43.2 281,37.2 276.9,36.1 277.9,41.7 282.5,48 293.3,50.6 304.2,48 
							308.7,41.7 309.7,36.1 						"/>
						<polygon class="st17" points="308.7,30.5 305.3,31.5 298.4,36.4 288.2,36.4 281.3,31.5 277.9,30.5 276.9,36.1 281.8,42.8 
							293.3,45.5 304.9,42.8 309.7,36.1 						"/>
						<polygon class="st18" points="304.2,24.2 301.3,21.9 301.6,23.6 301.5,27.3 297.3,31.3 289.3,31.3 285.2,27.3 285,23.6 
							285.3,21.9 282.4,24.2 277.9,30.5 282.5,36.8 293.3,39.4 304.2,36.8 308.7,30.5 						"/>
						<polygon class="st19" points="301.3,21.9 297.8,20.9 298.2,22.1 298,23.9 294.8,25.5 291.8,25.5 288.7,23.9 288.4,22.1 
							288.8,20.9 285.3,21.9 282,26.5 285.3,31.1 293.3,33 301.3,31.1 304.6,26.5 						"/>
						<polygon class="st7" points="297.8,20.9 295.9,20.4 296.3,21.5 295.7,22.4 294.5,22.9 292.1,22.9 290.9,22.4 290.4,21.5 
							290.7,20.4 288.8,20.9 287,23.4 288.8,26 293.3,27.1 297.8,26 299.7,23.4 						"/>
						<polygon class="st1" points="295.9,23.4 297,21.9 295.9,20.4 293.3,19.8 290.7,20.4 289.6,21.9 290.7,23.4 293.3,24 						"/>
					</g>
				</g>
				<g>
					<polygon class="st0" points="392.3,104.7 379.2,101.6 366,104.7 360.5,112.4 366,120 379.2,123.1 392.3,120 397.8,112.3 					
						"/>
					<g>
						<polygon class="st17" points="392,119.4 397.3,112.1 397.3,105 393.1,108.3 390.5,111.7 						"/>
						<polygon class="st18" points="379.2,122.5 392,119.4 392,112.4 387.1,112.2 378.4,114.6 						"/>
						<polygon class="st7" points="366.4,119.4 361.1,112.1 361.1,105 365.2,108.3 366.4,112.4 						"/>
						<polygon class="st19" points="379.2,122.5 366.4,119.4 366.4,112.4 371.3,112.2 379.2,115.5 						"/>
						<polygon class="st1" points="391.9,112.4 397.2,105 391.9,97.6 379.2,94.6 366.4,97.6 361.1,105 366.4,112.4 379.2,115.5 
													"/>
					</g>
					<g>
						<polygon class="st7" points="370.3,70.1 372.7,70.1 372.7,73.4 374.4,89.6 369.7,110 366.2,105.2 						"/>
						<polygon class="st19" points="379.2,75 376.6,72.5 372.7,73.4 369.7,110 379.2,112.2 						"/>
						<polygon class="st17" points="388.1,70.1 385.6,70.1 385.6,73.4 383.9,89.6 388.6,110 392.1,105.2 						"/>
						<polygon class="st18" points="385.6,73.4 381.2,71.3 379.2,75 379.2,112.2 388.6,110 						"/>
						<path class="st20" d="M372.7,73.4l6.5,1.5l6.5-1.5l2.4-3.4l-2.4-3.3l-6.5-1.6l-6.5,1.6l-2.4,3.3L372.7,73.4z"/>
						<polygon class="st0" points="369.8,74 370.6,75.1 379.2,77.1 387.8,75.1 388.5,74.1 388.1,70.1 370.3,70.1 						"/>
					</g>
					<g>
						<polygon class="st17" points="387.8,73.5 391.4,68.5 391.4,63.8 388.6,66 386.8,68.3 						"/>
						<polygon class="st18" points="379.2,75.6 387.8,73.5 387.8,68.8 384.5,68.6 378.6,70.2 						"/>
						<polygon class="st7" points="370.6,73.5 367,68.5 367,63.8 369.8,66 370.6,68.8 						"/>
						<polygon class="st19" points="379.2,75.6 370.6,73.5 370.6,68.8 373.8,68.6 379.2,70.8 						"/>
						<polygon class="st1" points="387.8,68.8 391.3,63.8 387.8,58.8 379.2,56.8 370.5,58.8 367,63.8 370.6,68.8 379.2,70.8 						
							"/>
					</g>
					<g>
						<polygon class="st21" points="383.8,66 379.2,66.7 374.5,66 371.2,65.8 374.7,66.8 379.2,67.9 383.8,66.8 387.1,65.8 						
							"/>
						<polygon class="st22" points="385.7,63.1 372.6,63.1 368.3,63.4 371.2,65.8 379.2,67.7 387.1,65.8 390,63.4 						"/>
						<polygon class="st23" points="391.4,52.6 385.8,58.6 372.5,58.6 366.9,52.6 362.8,51.5 363.8,57.1 368.3,63.4 379.2,66 
							390,63.4 394.5,57.1 395.5,51.5 						"/>
						<polygon class="st17" points="394.5,45.9 391.2,47 384.2,51.8 374.1,51.8 367.1,47 363.8,45.9 362.8,51.5 367.6,58.2 
							379.2,61 390.7,58.2 395.5,51.5 						"/>
						<polygon class="st18" points="390,39.7 387.1,37.3 387.5,39.1 387.3,42.7 383.1,46.8 375.2,46.8 371,42.7 370.8,39.1 
							371.2,37.3 368.3,39.7 363.8,45.9 368.3,52.2 379.2,54.8 390,52.2 394.5,45.9 						"/>
						<polygon class="st19" points="387.1,37.3 383.7,36.3 384.1,37.5 383.8,39.4 380.7,40.9 377.6,40.9 374.5,39.4 374.2,37.5 
							374.7,36.3 371.2,37.3 367.9,41.9 371.2,46.5 379.2,48.4 387.1,46.5 390.4,41.9 						"/>
						<polygon class="st7" points="383.7,36.3 381.7,35.8 382.1,36.9 381.5,37.8 380.4,38.3 377.9,38.3 376.8,37.8 376.2,36.9 
							376.6,35.8 374.7,36.3 372.8,38.9 374.7,41.4 379.2,42.5 383.7,41.4 385.5,38.9 						"/>
						<polygon class="st1" points="381.7,38.8 382.8,37.3 381.7,35.8 379.2,35.2 376.6,35.8 375.5,37.3 376.6,38.8 379.2,39.4 
													"/>
					</g>
				</g>
				<g>
					<polygon class="st0" points="454,140.4 440.8,137.2 427.7,140.4 422.2,148 427.7,155.6 440.9,158.7 454.1,155.6 459.5,148 
											"/>
					<g>
						<polygon class="st17" points="453.6,155.1 459,147.7 459,140.7 454.8,144 452.2,147.3 						"/>
						<polygon class="st18" points="440.9,158.1 453.6,155.1 453.6,148 448.8,147.8 440.1,150.2 						"/>
						<polygon class="st7" points="428.1,155.1 422.8,147.7 422.8,140.7 426.9,144 428.1,148 						"/>
						<polygon class="st19" points="440.9,158.1 428.1,155.1 428.1,148 433,147.8 440.9,151.1 						"/>
						<polygon class="st1" points="453.6,148 458.9,140.6 453.6,133.3 440.8,130.2 428.1,133.3 422.8,140.7 428.1,148 440.9,151.1 
													"/>
					</g>
					<g>
						<polygon class="st7" points="432,105.7 434.4,105.7 434.4,109 436.1,125.2 431.4,145.6 428,140.8 						"/>
						<polygon class="st19" points="440.9,110.6 438.3,108.1 434.4,109 431.4,145.6 440.9,147.9 						"/>
						<polygon class="st17" points="449.8,105.7 447.3,105.7 447.3,109 445.6,125.2 450.3,145.6 453.8,140.8 						"/>
						<polygon class="st18" points="447.3,109 442.9,106.9 440.9,110.6 440.9,147.9 450.3,145.6 						"/>
						<path class="st20" d="M434.4,109l6.5,1.6l6.5-1.6l2.4-3.3l-2.4-3.3l-6.5-1.6l-6.5,1.6l-2.4,3.3L434.4,109z"/>
						<polygon class="st0" points="431.5,109.7 432.3,110.7 440.9,112.8 449.5,110.7 450.2,109.7 449.8,105.7 432,105.7 						"/>
					</g>
					<g>
						<polygon class="st17" points="449.5,109.1 453,104.1 453,99.4 450.3,101.6 448.5,103.9 						"/>
						<polygon class="st18" points="440.9,111.2 449.5,109.1 449.5,104.4 446.2,104.2 440.3,105.8 						"/>
						<polygon class="st7" points="432.3,109.1 428.7,104.1 428.7,99.4 431.5,101.6 432.3,104.4 						"/>
						<polygon class="st19" points="440.9,111.2 432.3,109.1 432.3,104.4 435.5,104.2 440.9,106.4 						"/>
						<polygon class="st1" points="449.5,104.4 453,99.4 449.5,94.4 440.9,92.4 432.2,94.4 428.7,99.4 432.3,104.4 440.9,106.4 
													"/>
					</g>
					<g>
						<polygon class="st21" points="445.5,101.6 440.9,102.3 436.2,101.6 432.9,101.4 436.4,102.4 440.9,103.5 445.5,102.4 
							448.8,101.4 						"/>
						<polygon class="st22" points="447.4,98.8 434.4,98.8 430,99 432.9,101.4 440.9,103.3 448.8,101.4 451.7,99 						"/>
						<polygon class="st23" points="453.1,88.3 447.5,94.2 434.2,94.2 428.6,88.3 424.5,87.2 425.5,92.8 430,99 440.9,101.6 
							451.7,99 456.2,92.8 457.2,87.2 						"/>
						<polygon class="st17" points="456.2,81.5 452.9,82.6 445.9,87.4 435.8,87.4 428.8,82.6 425.5,81.5 424.5,87.2 429.3,93.8 
							440.9,96.6 452.4,93.8 457.2,87.2 						"/>
						<polygon class="st18" points="451.7,75.3 448.8,72.9 449.2,74.7 449,78.3 444.8,82.4 436.9,82.4 432.7,78.3 432.5,74.7 
							432.9,72.9 430,75.3 425.5,81.5 430,87.8 440.9,90.4 451.7,87.8 456.2,81.5 						"/>
						<polygon class="st19" points="448.8,72.9 445.4,71.9 445.8,73.1 445.5,75 442.4,76.5 439.3,76.5 436.2,75 435.9,73.1 
							436.4,71.9 432.9,72.9 429.6,77.5 432.9,82.1 440.9,84 448.8,82.1 452.1,77.5 						"/>
						<polygon class="st7" points="445.4,71.9 443.4,71.4 443.8,72.5 443.2,73.5 442.1,73.9 439.6,73.9 438.5,73.5 437.9,72.5 
							438.3,71.4 436.4,71.9 434.5,74.5 436.4,77.1 440.9,78.1 445.4,77.1 447.2,74.5 						"/>
						<polygon class="st1" points="443.4,74.4 444.5,72.9 443.4,71.4 440.9,70.8 438.3,71.4 437.2,72.9 438.3,74.4 440.9,75.1 
													"/>
					</g>
				</g>
				<g>
					<polygon class="st0" points="348.1,162.3 326.6,157.2 305.2,162.4 296.3,174.7 305.2,187.1 326.7,192.3 348.1,187.1 357,174.7 
											"/>
					<g>
						<polygon class="st17" points="346.9,186.7 355.4,175 355.4,163.8 348.8,169.1 344.7,174.4 						"/>
						<polygon class="st18" points="326.7,191.6 346.9,186.7 346.9,175.6 339.2,175.2 325.4,179 						"/>
						<polygon class="st7" points="306.3,186.7 297.9,175 297.9,163.8 304.5,169.1 306.3,175.6 						"/>
						<polygon class="st19" points="326.7,191.6 306.3,186.7 306.3,175.6 314.1,175.2 326.7,180.4 						"/>
						<polygon class="st1" points="346.9,175.5 355.3,163.8 346.9,152.1 326.6,147.3 306.3,152.1 297.9,163.8 306.3,175.6 
							326.7,180.4 						"/>
					</g>
					<g>
						<polygon class="st7" points="311.7,81.4 315.7,81.4 315.7,87 318.6,138 310.7,172.2 304.9,164.2 						"/>
						<polygon class="st19" points="326.6,89.6 322.3,85.4 315.7,87 310.7,172.2 326.6,176 						"/>
						<polygon class="st17" points="341.6,81.4 337.6,81.4 337.6,87 334.6,138 342.6,172.2 348.3,164.2 						"/>
						<polygon class="st18" points="337.6,87 330,83.3 326.6,89.6 326.6,176 342.6,172.2 						"/>
						<path class="st20" d="M315.7,87l10.9,2.6l10.9-2.6l4-5.6l-4.1-5.6l-10.9-2.6l-10.9,2.6l-4,5.6L315.7,87z"/>
						<polygon class="st0" points="310.9,88 312.2,89.8 326.7,93.2 341.1,89.8 342.4,88.1 341.6,81.4 311.7,81.4 						"/>
					</g>
					<g>
						<polygon class="st17" points="341.9,87 348.1,78.2 355.7,51.6 343.2,59.9 340.1,63.9 						"/>
						<polygon class="st18" points="326.7,90.6 341.9,87 347.2,63.4 336,64.5 325.7,67.3 						"/>
						<polygon class="st7" points="311.5,87 305.2,78.2 297.6,51.6 310.1,59.9 311.5,64.8 						"/>
						<polygon class="st19" points="326.7,90.6 311.5,87 306.1,63.5 317.3,64.5 326.7,68.4 						"/>
						<polygon class="st1" points="347.2,63.4 355.7,51.6 347.2,39.7 326.6,34.8 306.1,39.8 297.6,51.6 306.1,63.5 326.7,68.4 
													"/>
					</g>
					<g>
						<polygon class="st17" points="339,57.9 344.1,50.8 344.1,44.9 340.1,48.1 337.6,51.3 						"/>
						<polygon class="st18" points="326.6,60.8 339,57.9 339,52 334.2,51.8 325.9,54.1 						"/>
						<polygon class="st7" points="314.3,57.9 309.2,50.8 309.2,44.9 313.2,48.1 314.3,52 						"/>
						<polygon class="st19" points="326.6,60.8 314.3,57.9 314.3,52 319,51.8 326.6,55 						"/>
						<polygon class="st1" points="338.9,52 344,44.9 338.9,37.8 326.6,34.8 314.3,37.8 309.2,44.9 314.3,52 326.6,55 						"/>
					</g>
					<g>
						<polygon class="st0" points="334.2,49.3 337.4,44.9 334.2,40.5 326.6,38.7 319.1,40.5 315.9,44.9 319.1,49.3 326.7,51.1 
													"/>
						<polygon class="st21" points="329.6,48.3 326.6,48.7 323.6,48.3 321.5,48.2 323.8,48.8 326.6,49.5 329.6,48.8 331.7,48.2 
													"/>
						<polygon class="st22" points="330.8,46.4 322.4,46.4 319.7,46.6 321.5,48.2 326.6,49.4 331.7,48.2 333.6,46.6 						"/>
						<polygon class="st23" points="334.5,39.7 330.9,43.5 322.3,43.5 318.7,39.7 316.1,39 316.7,42.6 319.7,46.6 326.6,48.3 
							333.6,46.6 336.5,42.6 337.2,39 						"/>
						<polygon class="st17" points="336.5,35.4 334.4,36 329.9,39.1 323.4,39.1 318.9,36 316.7,35.4 316.1,39 319.2,43.3 326.6,45 
							334.1,43.3 337.2,39 						"/>
						<polygon class="st18" points="333.6,31.3 331.8,29.8 332,30.9 331.9,33.3 329.2,35.9 324.1,35.9 321.4,33.3 321.3,30.9 
							321.5,29.8 319.7,31.3 316.7,35.4 319.7,39.4 326.6,41.1 333.6,39.4 336.5,35.4 						"/>
						<polygon class="st19" points="331.8,29.8 329.5,29.1 329.8,30 329.6,31.2 327.6,32.1 325.6,32.1 323.6,31.2 323.5,30 
							323.7,29.1 321.5,29.8 319.4,32.8 321.5,35.7 326.6,37 331.8,35.7 333.9,32.8 						"/>
						<polygon class="st7" points="329.5,29.1 328.3,28.9 328.5,29.6 328.2,30.2 327.4,30.5 325.8,30.5 325.1,30.2 324.7,29.6 
							324.9,28.9 323.7,29.1 322.6,30.8 323.8,32.5 326.6,33.2 329.5,32.5 330.7,30.8 						"/>
						<polygon class="st1" points="328.3,30.8 329,29.8 328.3,28.9 326.6,28.5 324.9,28.9 324.3,29.8 324.9,30.8 326.6,31.2 						
							"/>
					</g>
				</g>
				<g>
					<polygon class="st0" points="223.9,105 210.7,101.8 197.5,105 192.1,112.6 197.6,120.2 210.8,123.4 223.9,120.2 229.4,112.6 
											"/>
					<g>
						<polygon class="st17" points="223.5,119.7 228.8,112.3 228.8,105.3 224.7,108.6 222.1,111.9 						"/>
						<polygon class="st18" points="210.8,122.8 223.5,119.7 223.5,112.7 218.7,112.4 209.9,114.8 						"/>
						<polygon class="st7" points="198,119.7 192.7,112.3 192.7,105.3 196.8,108.6 198,112.7 						"/>
						<polygon class="st19" points="210.8,122.8 198,119.7 198,112.7 202.8,112.4 210.8,115.7 						"/>
						<polygon class="st1" points="223.5,112.7 228.8,105.3 223.5,97.9 210.7,94.8 198,97.9 192.7,105.3 198,112.7 210.8,115.7 
													"/>
					</g>
					<g>
						<polygon class="st7" points="201.9,70.3 204.3,70.3 204.3,73.7 206,89.9 201.2,110.2 197.8,105.4 						"/>
						<polygon class="st19" points="210.8,75.2 208.2,72.7 204.3,73.7 201.3,110.2 210.8,112.5 						"/>
						<polygon class="st17" points="219.6,70.3 217.2,70.3 217.2,73.7 215.5,89.9 220.2,110.2 223.7,105.4 						"/>
						<polygon class="st18" points="217.2,73.7 212.8,71.5 210.8,75.2 210.8,112.5 220.2,110.2 						"/>
						<path class="st20" d="M204.3,73.7l6.5,1.5l6.5-1.6l2.4-3.4l-2.4-3.4l-6.5-1.5l-6.5,1.5l-2.4,3.4L204.3,73.7z"/>
						<polygon class="st0" points="201.4,74.3 202.1,75.3 210.8,77.4 219.4,75.3 220.1,74.3 219.6,70.3 201.9,70.3 						"/>
					</g>
					<g>
						<polygon class="st17" points="219.4,73.7 222.9,68.8 222.9,64 220.1,66.3 218.4,68.5 						"/>
						<polygon class="st18" points="210.8,75.8 219.4,73.7 219.4,69 216.1,68.9 210.2,70.5 						"/>
						<polygon class="st7" points="202.1,73.7 198.6,68.8 198.6,64 201.4,66.3 202.1,69 						"/>
						<polygon class="st19" points="210.8,75.8 202.1,73.7 202.1,69 205.4,68.9 210.8,71.1 						"/>
						<polygon class="st1" points="219.3,69 222.9,64 219.3,59.1 210.8,57 202.1,59.1 198.6,64 202.1,69 210.8,71.1 						"/>
					</g>
					<g>
						<polygon class="st21" points="215.4,66.3 210.8,66.9 206.1,66.3 202.8,66 206.3,67 210.8,68.1 215.4,67 218.7,66 						"/>
						<polygon class="st22" points="217.3,63.4 204.2,63.4 199.9,63.7 202.8,66 210.8,68 218.7,66 221.6,63.6 						"/>
						<polygon class="st23" points="223,52.9 217.4,58.9 204.1,58.9 198.4,52.9 194.4,51.8 195.4,57.4 199.9,63.7 210.8,66.3 
							221.6,63.6 226.1,57.4 227.1,51.8 						"/>
						<polygon class="st17" points="226.1,46.2 222.8,47.2 215.8,52 205.7,52 198.7,47.2 195.4,46.2 194.4,51.8 199.2,58.5 
							210.8,61.2 222.3,58.5 227.1,51.8 						"/>
						<polygon class="st18" points="221.6,39.9 218.7,37.5 219.1,39.3 218.9,42.9 214.7,47 206.8,47 202.6,42.9 202.4,39.3 
							202.8,37.5 199.9,39.9 195.4,46.2 199.9,52.4 210.8,55 221.6,52.4 226.1,46.2 						"/>
						<polygon class="st19" points="218.7,37.5 215.2,36.5 215.7,37.8 215.4,39.6 212.3,41.1 209.2,41.1 206.1,39.6 205.8,37.8 
							206.2,36.5 202.8,37.5 199.4,42.1 202.8,46.8 210.8,48.7 218.7,46.8 222,42.1 						"/>
						<polygon class="st7" points="215.2,36.5 213.3,36.1 213.7,37.2 213.1,38.1 212,38.6 209.5,38.6 208.4,38.1 207.8,37.2 
							208.2,36.1 206.2,36.5 204.4,39.1 206.3,41.7 210.8,42.8 215.2,41.7 217.1,39.1 						"/>
						<polygon class="st1" points="213.3,39.1 214.4,37.6 213.3,36.1 210.8,35.5 208.2,36.1 207.1,37.6 208.2,39.1 210.8,39.7 
													"/>
					</g>
				</g>
				<g>
					<polygon class="st0" points="476.4,187.4 463.2,184.3 450,187.4 444.6,195 450,202.6 463.2,205.8 476.4,202.6 481.9,195 					
						"/>
					<g>
						<polygon class="st17" points="476,202.1 481.3,194.7 481.3,187.7 477.2,191 474.6,194.3 						"/>
						<polygon class="st18" points="463.2,205.2 476,202.1 476,195.1 471.1,194.8 462.4,197.2 						"/>
						<polygon class="st7" points="450.4,202.1 445.1,194.7 445.1,187.7 449.3,191 450.4,195.1 						"/>
						<polygon class="st19" points="463.2,205.2 450.4,202.1 450.4,195.1 455.3,194.8 463.2,198.1 						"/>
						<polygon class="st1" points="476,195.1 481.3,187.7 476,180.3 463.2,177.2 450.4,180.3 445.1,187.7 450.4,195.1 463.2,198.1 
													"/>
					</g>
					<g>
						<polygon class="st7" points="454.3,152.7 456.7,152.7 456.7,156.1 458.5,172.3 453.7,192.6 450.3,187.9 						"/>
						<polygon class="st19" points="463.2,157.6 460.6,155.1 456.7,156.1 453.7,192.6 463.2,194.9 						"/>
						<polygon class="st17" points="472.1,152.7 469.7,152.7 469.7,156.1 468,172.3 472.7,192.6 476.1,187.9 						"/>
						<polygon class="st18" points="469.7,156.1 465.2,153.9 463.2,157.6 463.2,194.9 472.7,192.6 						"/>
						<path class="st20" d="M456.7,156.1l6.5,1.6l6.5-1.6l2.4-3.3l-2.4-3.4l-6.5-1.5l-6.5,1.5l-2.4,3.4L456.7,156.1z"/>
						<polygon class="st0" points="453.9,156.7 454.6,157.7 463.2,159.8 471.8,157.7 472.6,156.7 472.1,152.7 454.3,152.7 						"/>
					</g>
					<g>
						<polygon class="st17" points="471.8,156.2 475.4,151.2 475.4,146.4 472.6,148.7 470.9,150.9 						"/>
						<polygon class="st18" points="463.2,158.2 471.8,156.2 471.8,151.4 468.5,151.3 462.7,152.9 						"/>
						<polygon class="st7" points="454.6,156.2 451,151.2 451,146.4 453.8,148.7 454.6,151.4 						"/>
						<polygon class="st19" points="463.2,158.2 454.6,156.2 454.6,151.4 457.9,151.3 463.2,153.5 						"/>
						<polygon class="st1" points="471.8,151.4 475.4,146.4 471.8,141.5 463.2,139.4 454.6,141.5 451,146.4 454.6,151.4 
							463.2,153.5 						"/>
					</g>
					<g>
						<polygon class="st21" points="467.9,148.7 463.2,149.3 458.5,148.7 455.2,148.5 458.7,149.5 463.2,150.5 467.9,149.5 
							471.2,148.5 						"/>
						<polygon class="st22" points="469.7,145.8 456.7,145.8 452.4,146.1 455.2,148.5 463.2,150.4 471.2,148.5 474.1,146.1 						
							"/>
						<polygon class="st23" points="475.5,135.3 469.9,141.3 456.5,141.3 450.9,135.3 446.8,134.2 447.9,139.8 452.4,146.1 
							463.2,148.7 474.1,146.1 478.6,139.8 479.6,134.2 						"/>
						<polygon class="st17" points="478.6,128.6 475.3,129.6 468.3,134.5 458.1,134.5 451.2,129.6 447.9,128.6 446.8,134.2 
							451.7,140.9 463.2,143.6 474.8,140.9 479.6,134.2 						"/>
						<polygon class="st18" points="474.1,122.3 471.2,120 471.5,121.7 471.4,125.3 467.2,129.4 459.2,129.4 455.1,125.3 
							454.9,121.7 455.2,120 452.4,122.3 447.9,128.6 452.4,134.8 463.2,137.5 474.1,134.8 478.6,128.6 						"/>
						<polygon class="st19" points="471.2,120 467.7,118.9 468.1,120.2 467.9,122 464.8,123.6 461.7,123.6 458.6,122 458.3,120.2 
							458.7,118.9 455.2,120 451.9,124.6 455.2,129.2 463.2,131.1 471.2,129.2 474.5,124.6 						"/>
						<polygon class="st7" points="467.7,118.9 465.8,118.5 466.2,119.6 465.6,120.5 464.5,121 462,121 460.8,120.5 460.3,119.6 
							460.6,118.5 458.7,118.9 456.9,121.5 458.7,124.1 463.2,125.2 467.7,124.1 469.6,121.5 						"/>
						<polygon class="st1" points="465.8,121.5 466.9,120 465.8,118.5 463.2,117.9 460.6,118.5 459.6,120 460.6,121.5 463.2,122.1 
													"/>
					</g>
				</g>
				<g>
					<polygon class="st0" points="449.1,235 435.9,231.8 422.7,235 417.2,242.6 422.7,250.2 435.9,253.4 449.1,250.2 454.5,242.6 
											"/>
					<g>
						<polygon class="st17" points="448.7,249.7 454,242.3 454,235.3 449.8,238.6 447.2,241.9 						"/>
						<polygon class="st18" points="435.9,252.7 448.7,249.7 448.7,242.6 443.8,242.4 435.1,244.8 						"/>
						<polygon class="st7" points="423.1,249.7 417.8,242.3 417.8,235.3 421.9,238.6 423.1,242.6 						"/>
						<polygon class="st19" points="435.9,252.7 423.1,249.7 423.1,242.6 428,242.4 435.9,245.7 						"/>
						<polygon class="st1" points="448.7,242.6 454,235.2 448.7,227.9 435.9,224.8 423.1,227.9 417.8,235.3 423.1,242.6 
							435.9,245.7 						"/>
					</g>
					<g>
						<polygon class="st7" points="427,200.3 429.4,200.3 429.4,203.6 431.1,219.8 426.4,240.2 423,235.4 						"/>
						<polygon class="st19" points="435.9,205.2 433.3,202.7 429.4,203.6 426.4,240.2 435.9,242.5 						"/>
						<polygon class="st17" points="444.8,200.3 442.4,200.3 442.4,203.6 440.6,219.8 445.4,240.2 448.8,235.4 						"/>
						<polygon class="st18" points="442.4,203.6 437.9,201.5 435.9,205.2 435.9,242.5 445.4,240.2 						"/>
						<path class="st20" d="M429.4,203.6l6.5,1.6l6.5-1.6l2.4-3.3l-2.4-3.3l-6.5-1.5l-6.5,1.5l-2.4,3.4L429.4,203.6z"/>
						<polygon class="st0" points="426.5,204.3 427.3,205.3 435.9,207.4 444.5,205.3 445.2,204.3 444.8,200.3 427,200.3 						"/>
					</g>
					<g>
						<polygon class="st17" points="444.5,203.7 448.1,198.8 448.1,194 445.3,196.3 443.5,198.5 						"/>
						<polygon class="st18" points="435.9,205.8 444.5,203.7 444.5,199 441.2,198.8 435.3,200.4 						"/>
						<polygon class="st7" points="427.3,203.7 423.7,198.8 423.7,194 426.5,196.3 427.3,199 						"/>
						<polygon class="st19" points="435.9,205.8 427.3,203.7 427.3,199 430.6,198.8 435.9,201 						"/>
						<polygon class="st1" points="444.5,199 448.1,194 444.5,189 435.9,187 427.3,189 423.7,194 427.3,199 435.9,201 						"/>
					</g>
					<g>
						<polygon class="st21" points="440.6,196.2 435.9,196.9 431.2,196.2 427.9,196 431.4,197 435.9,198.1 440.5,197 443.9,196 
													"/>
						<polygon class="st22" points="442.4,193.4 429.4,193.4 425,193.6 427.9,196 435.9,197.9 443.9,196 446.7,193.6 						"/>
						<polygon class="st23" points="448.2,182.9 442.6,188.8 429.2,188.8 423.6,182.9 419.5,181.8 420.5,187.4 425,193.6 
							435.9,196.2 446.7,193.6 451.3,187.4 452.3,181.8 						"/>
						<polygon class="st17" points="451.3,176.1 447.9,177.2 441,182 430.8,182 423.8,177.2 420.5,176.1 419.5,181.8 424.3,188.5 
							435.9,191.2 447.5,188.5 452.3,181.8 						"/>
						<polygon class="st18" points="446.7,169.9 443.9,167.5 444.2,169.3 444,172.9 439.9,177 431.9,177 427.7,172.9 427.6,169.3 
							427.9,167.5 425,169.9 420.5,176.1 425,182.4 435.9,185 446.7,182.4 451.3,176.1 						"/>
						<polygon class="st19" points="443.9,167.5 440.4,166.5 440.8,167.8 440.5,169.6 437.4,171.1 434.3,171.1 431.2,169.6 
							431,167.8 431.4,166.5 427.9,167.5 424.6,172.1 427.9,176.7 435.9,178.6 443.9,176.7 447.2,172.1 						"/>
						<polygon class="st7" points="440.4,166.5 438.5,166 438.8,167.1 438.3,168.1 437.1,168.5 434.6,168.5 433.5,168.1 
							432.9,167.1 433.3,166 431.4,166.5 429.6,169.1 431.4,171.7 435.9,172.8 440.4,171.7 442.2,169.1 						"/>
						<polygon class="st1" points="438.5,169 439.5,167.5 438.5,166 435.9,165.4 433.3,166 432.2,167.5 433.3,169.1 435.9,169.7 
													"/>
					</g>
				</g>
			</g>
			<g>
				<g>
					<polygon class="st0" points="162.6,139.9 149.3,136.7 136.1,139.9 130.6,147.5 136.1,155.2 149.4,158.4 162.6,155.2 
						168.1,147.5 					"/>
					<g>
						<polygon class="st24" points="162.2,154.8 167.5,147.4 167.5,140.4 163.3,143.7 160.7,147 						"/>
						<polygon class="st25" points="149.4,157.8 162.2,154.8 162.2,147.7 157.3,147.5 148.6,149.9 						"/>
						<polygon class="st26" points="136.6,154.8 131.3,147.4 131.3,140.4 135.4,143.7 136.6,147.7 						"/>
						<polygon class="st27" points="149.4,157.8 136.6,154.8 136.6,147.7 141.5,147.5 149.4,150.8 						"/>
						<polygon class="st20" points="162.1,147.7 167.4,140.4 162.1,133 149.3,129.9 136.6,133 131.3,140.4 136.6,147.7 149.4,150.8 
													"/>
					</g>
					<g>
						<polygon class="st26" points="140.5,105.4 142.9,105.4 142.9,108.7 144.6,124.9 139.9,145.3 136.4,140.5 						"/>
						<polygon class="st27" points="149.4,110.3 146.8,107.8 142.9,108.7 139.9,145.3 149.4,147.6 						"/>
						<polygon class="st24" points="158.3,105.4 155.8,105.4 155.8,108.7 154.1,124.9 158.8,145.3 162.3,140.5 						"/>
						<polygon class="st25" points="155.8,108.7 151.4,106.6 149.4,110.3 149.4,147.6 158.8,145.3 						"/>
						<path class="st20" d="M142.9,108.7l6.5,1.6l6.5-1.6l2.4-3.4l-2.4-3.4l-6.5-1.5l-6.5,1.6l-2.4,3.3L142.9,108.7z"/>
						<polygon class="st0" points="140,109.4 140.8,110.4 149.4,112.5 158,110.4 158.7,109.4 158.3,105.4 140.5,105.4 						"/>
					</g>
					<g>
						<polygon class="st24" points="158,108.8 161.6,103.9 161.6,99.1 158.8,101.4 157,103.6 						"/>
						<polygon class="st25" points="149.4,110.9 158,108.8 158,104.1 154.7,103.9 148.8,105.6 						"/>
						<polygon class="st26" points="140.8,108.8 137.2,103.9 137.2,99.1 140,101.4 140.8,104.1 						"/>
						<polygon class="st27" points="149.4,110.9 140.8,108.8 140.8,104.1 144,103.9 149.4,106.1 						"/>
						<polygon class="st20" points="158,104.1 161.5,99.1 158,94.1 149.4,92.1 140.7,94.1 137.2,99.1 140.8,104.1 149.4,106.1 
													"/>
					</g>
					<g>
						<polygon class="st28" points="154,101.3 149.4,102 144.7,101.3 141.4,101.1 144.9,102.1 149.4,103.2 154,102.1 157.3,101.1 
													"/>
						<polygon class="st24" points="155.9,98.5 142.8,98.5 138.5,98.7 141.4,101.1 149.4,103 157.3,101.1 160.2,98.7 						"/>
						<polygon class="st29" points="161.7,88 156,94 142.7,94 137.1,88 133,86.9 134,92.5 138.5,98.7 149.4,101.3 160.2,98.7 
							164.7,92.5 165.7,86.9 						"/>
						<polygon class="st25" points="164.7,81.3 161.4,82.3 154.4,87.1 144.3,87.1 137.3,82.3 134,81.3 133,86.9 137.8,93.5 
							149.4,96.3 161,93.5 165.7,86.9 						"/>
						<polygon class="st27" points="160.2,75 157.4,72.6 157.7,74.4 157.5,78 153.3,82.1 145.4,82.1 141.2,78 141,74.4 141.4,72.6 
							138.5,75 134,81.3 138.5,87.5 149.4,90.1 160.2,87.5 164.7,81.3 						"/>
						<polygon class="st26" points="157.4,72.6 153.8,71.6 154.3,72.9 154,74.7 150.9,76.2 147.8,76.2 144.7,74.7 144.5,72.9 
							144.9,71.6 141.4,72.6 138.1,77.2 141.4,81.9 149.4,83.8 157.4,81.8 160.7,77.2 						"/>
						<polygon class="st20" points="153.8,71.6 151.9,71.2 152.3,72.2 151.7,73.2 150.6,73.6 148.1,73.6 147,73.2 146.4,72.2 
							146.8,71.2 144.9,71.6 143,74.2 144.9,76.8 149.4,77.8 153.9,76.8 155.7,74.2 						"/>
						<polygon class="st30" points="151.9,74.1 153,72.6 151.9,71.2 149.4,70.5 146.8,71.2 145.7,72.6 146.8,74.1 149.4,74.7 						
							"/>
					</g>
				</g>
				<g>
					<polygon class="st0" points="139.7,185.7 126.4,182.6 113.2,185.7 107.7,193.4 113.2,201 126.5,204.2 139.7,201 145.2,193.4 
											"/>
					<g>
						<polygon class="st24" points="139.2,200.6 144.5,193.2 144.5,186.2 140.4,189.5 137.8,192.9 						"/>
						<polygon class="st25" points="126.5,203.7 139.2,200.6 139.2,193.6 134.4,193.4 125.6,195.8 						"/>
						<polygon class="st26" points="113.7,200.6 108.4,193.2 108.4,186.2 112.5,189.5 113.7,193.6 						"/>
						<polygon class="st27" points="126.5,203.7 113.7,200.6 113.7,193.6 118.5,193.4 126.5,196.7 						"/>
						<polygon class="st20" points="139.2,193.6 144.5,186.2 139.2,178.8 126.4,175.8 113.7,178.8 108.4,186.2 113.7,193.6 
							126.5,196.7 						"/>
					</g>
					<g>
						<polygon class="st26" points="117.5,151.2 120,151.2 120,154.6 121.7,170.8 116.9,191.2 113.5,186.4 						"/>
						<polygon class="st27" points="126.5,156.1 123.9,153.7 120,154.6 117,191.2 126.5,193.4 						"/>
						<polygon class="st24" points="135.3,151.2 132.9,151.2 132.9,154.6 131.2,170.8 135.9,191.2 139.4,186.4 						"/>
						<polygon class="st25" points="132.9,154.6 128.5,152.4 126.5,156.1 126.5,193.4 135.9,191.2 						"/>
						<path class="st20" d="M120,154.6l6.5,1.6l6.5-1.6l2.4-3.3l-2.4-3.3l-6.5-1.5l-6.5,1.5l-2.4,3.4L120,154.6z"/>
						<polygon class="st0" points="117.1,155.2 117.8,156.3 126.5,158.3 135.1,156.3 135.8,155.3 135.3,151.2 117.5,151.2 						"/>
					</g>
					<g>
						<polygon class="st24" points="135.1,154.7 138.6,149.7 138.6,145 135.9,147.2 134.1,149.4 						"/>
						<polygon class="st25" points="126.5,156.7 135.1,154.7 135.1,149.9 131.8,149.8 125.9,151.4 						"/>
						<polygon class="st26" points="117.8,154.7 114.3,149.7 114.3,145 117.1,147.2 117.8,149.9 						"/>
						<polygon class="st27" points="126.5,156.7 117.8,154.7 117.8,149.9 121.1,149.8 126.5,152 						"/>
						<polygon class="st20" points="135.1,149.9 138.6,145 135,140 126.4,137.9 117.8,140 114.3,145 117.8,149.9 126.5,152 						
							"/>
					</g>
					<g>
						<polygon class="st28" points="131.1,147.2 126.5,147.9 121.7,147.2 118.5,147 122,148 126.5,149.1 131.1,148 134.4,147 						
							"/>
						<polygon class="st24" points="133,144.3 119.9,144.3 115.6,144.6 118.5,147 126.5,148.9 134.4,147 137.3,144.6 						"/>
						<polygon class="st29" points="138.7,133.8 133.1,139.8 119.8,139.8 114.2,133.8 110.1,132.7 111.1,138.3 115.6,144.6 
							126.5,147.2 137.3,144.6 141.8,138.3 142.8,132.7 						"/>
						<polygon class="st25" points="141.8,127.1 138.5,128.1 131.5,133 121.4,133 114.4,128.1 111.1,127.1 110.1,132.7 114.9,139.4 
							126.5,142.2 138,139.4 142.8,132.7 						"/>
						<polygon class="st27" points="137.3,120.8 134.4,118.5 134.8,120.3 134.6,123.9 130.4,128 122.5,128 118.3,123.9 118.1,120.3 
							118.5,118.5 115.6,120.8 111.1,127.1 115.6,133.4 126.5,136 137.3,133.4 141.8,127.1 						"/>
						<polygon class="st26" points="134.4,118.5 130.9,117.5 131.3,118.7 131.1,120.6 128,122.1 124.9,122.1 121.8,120.6 
							121.5,118.7 121.9,117.5 118.5,118.5 115.1,123.1 118.5,127.7 126.5,129.6 134.4,127.7 137.7,123.1 						"/>
						<polygon class="st20" points="130.9,117.5 129,117 129.4,118.1 128.8,119 127.7,119.5 125.2,119.5 124.1,119 123.5,118.1 
							123.9,117 121.9,117.5 120.1,120.1 122,122.6 126.5,123.7 130.9,122.6 132.8,120 						"/>
						<polygon class="st30" points="129,120 130.1,118.5 129,117 126.5,116.4 123.9,117 122.8,118.5 123.9,120 126.5,120.6 						
							"/>
					</g>
				</g>
				<g>
					<polygon class="st0" points="164.5,236 151.2,232.8 137.9,236 132.5,243.6 137.9,251.3 151.2,254.5 164.5,251.3 170,243.6 
											"/>
					<g>
						<polygon class="st24" points="164,250.9 169.3,243.5 169.3,236.5 165.2,239.8 162.6,243.1 						"/>
						<polygon class="st25" points="151.2,253.9 164,250.9 164,243.8 159.1,243.6 150.4,246 						"/>
						<polygon class="st26" points="138.4,250.9 133.1,243.5 133.1,236.5 137.3,239.8 138.4,243.8 						"/>
						<polygon class="st27" points="151.2,253.9 138.4,250.9 138.4,243.8 143.3,243.6 151.2,246.9 						"/>
						<polygon class="st20" points="164,243.8 169.3,236.5 164,229.1 151.2,226 138.4,229.1 133.1,236.5 138.4,243.8 151.2,246.9 
													"/>
					</g>
					<g>
						<polygon class="st26" points="142.3,201.5 144.7,201.5 144.7,204.8 146.5,221 141.7,241.4 138.3,236.6 						"/>
						<polygon class="st27" points="151.2,206.4 148.6,203.9 144.7,204.8 141.7,241.4 151.2,243.7 						"/>
						<polygon class="st24" points="160.1,201.5 157.7,201.5 157.7,204.8 156,221 160.7,241.4 164.1,236.6 						"/>
						<polygon class="st25" points="157.7,204.8 153.2,202.7 151.2,206.4 151.2,243.7 160.7,241.4 						"/>
						<path class="st20" d="M144.7,204.8l6.5,1.6l6.5-1.6l2.4-3.3l-2.4-3.3l-6.5-1.5l-6.5,1.5l-2.4,3.3L144.7,204.8z"/>
						<polygon class="st0" points="141.9,205.5 142.6,206.5 151.2,208.5 159.8,206.5 160.5,205.5 160.1,201.5 142.3,201.5 						"/>
					</g>
					<g>
						<polygon class="st24" points="159.8,204.9 163.4,200 163.4,195.2 160.6,197.4 158.9,199.7 						"/>
						<polygon class="st25" points="151.2,207 159.8,204.9 159.8,200.2 156.6,200 150.7,201.7 						"/>
						<polygon class="st26" points="142.6,204.9 139,200 139,195.2 141.8,197.4 142.6,200.2 						"/>
						<polygon class="st27" points="151.2,207 142.6,204.9 142.6,200.2 145.9,200 151.2,202.2 						"/>
						<polygon class="st20" points="159.8,200.2 163.4,195.2 159.8,190.2 151.2,188.2 142.6,190.2 139,195.2 142.6,200.2 
							151.2,202.2 						"/>
					</g>
					<g>
						<polygon class="st28" points="155.9,197.4 151.2,198.1 146.5,197.4 143.2,197.2 146.8,198.2 151.2,199.3 155.9,198.2 
							159.2,197.2 						"/>
						<polygon class="st24" points="157.7,194.6 144.7,194.6 140.4,194.8 143.2,197.2 151.2,199.1 159.2,197.2 162.1,194.8 						
							"/>
						<polygon class="st29" points="163.5,184.1 157.9,190.1 144.5,190.1 138.9,184.1 134.8,183 135.9,188.6 140.4,194.8 
							151.2,197.4 162.1,194.8 166.6,188.6 167.6,183 						"/>
						<polygon class="st25" points="166.6,177.3 163.3,178.4 156.3,183.2 146.1,183.2 139.2,178.4 135.9,177.3 134.8,183 
							139.7,189.6 151.2,192.4 162.8,189.6 167.6,183 						"/>
						<polygon class="st27" points="162.1,171.1 159.2,168.7 159.5,170.5 159.4,174.1 155.2,178.2 147.2,178.2 143.1,174.1 
							142.9,170.5 143.2,168.7 140.4,171.1 135.9,177.3 140.4,183.6 151.2,186.2 162.1,183.6 166.6,177.3 						"/>
						<polygon class="st26" points="159.2,168.7 155.7,167.7 156.1,169 155.8,170.8 152.8,172.3 149.7,172.3 146.6,170.8 146.3,169 
							146.7,167.7 143.2,168.7 139.9,173.3 143.2,178 151.2,179.9 159.2,177.9 162.5,173.3 						"/>
						<polygon class="st20" points="155.7,167.7 153.8,167.3 154.2,168.3 153.6,169.3 152.5,169.7 150,169.7 148.8,169.3 
							148.3,168.3 148.6,167.3 146.7,167.7 144.9,170.3 146.8,172.9 151.2,173.9 155.7,172.9 157.6,170.3 						"/>
						<polygon class="st30" points="153.8,170.2 154.9,168.7 153.8,167.3 151.2,166.6 148.6,167.3 147.5,168.7 148.6,170.2 
							151.2,170.9 						"/>
					</g>
				</g>
				<g>
					<polygon class="st0" points="224,270.3 210.7,267.2 197.4,270.4 191.9,278 197.4,285.7 210.7,288.8 224,285.7 229.5,278 					
						"/>
					<g>
						<polygon class="st24" points="223.5,285.3 228.8,277.9 228.8,270.8 224.7,274.2 222.1,277.5 						"/>
						<polygon class="st25" points="210.7,288.3 223.5,285.3 223.5,278.2 218.6,278 209.9,280.4 						"/>
						<polygon class="st26" points="197.9,285.3 192.6,277.9 192.6,270.8 196.8,274.2 197.9,278.2 						"/>
						<polygon class="st27" points="210.7,288.3 197.9,285.3 197.9,278.2 202.8,278 210.7,281.3 						"/>
						<polygon class="st20" points="223.5,278.2 228.8,270.8 223.5,263.5 210.7,260.4 197.9,263.5 192.6,270.8 197.9,278.2 
							210.7,281.3 						"/>
					</g>
					<g>
						<polygon class="st26" points="201.8,235.9 204.2,235.9 204.2,239.2 206,255.4 201.2,275.8 197.8,271 						"/>
						<polygon class="st27" points="210.7,240.8 208.1,238.3 204.2,239.2 201.2,275.8 210.7,278 						"/>
						<polygon class="st24" points="219.6,235.9 217.2,235.9 217.2,239.2 215.5,255.4 220.2,275.8 223.6,271 						"/>
						<polygon class="st25" points="217.2,239.2 212.7,237 210.7,240.8 210.7,278 220.2,275.8 						"/>
						<path class="st20" d="M204.2,239.2l6.5,1.6l6.5-1.6l2.4-3.3l-2.4-3.4l-6.5-1.5l-6.5,1.6l-2.4,3.3L204.2,239.2z"/>
						<polygon class="st0" points="201.4,239.9 202.1,240.9 210.7,242.9 219.3,240.9 220.1,239.9 219.6,235.9 201.8,235.9 						"/>
					</g>
					<g>
						<polygon class="st24" points="219.3,239.3 222.9,234.3 222.9,229.6 220.1,231.8 218.4,234.1 						"/>
						<polygon class="st25" points="210.7,241.4 219.3,239.3 219.3,234.6 216,234.4 210.2,236 						"/>
						<polygon class="st26" points="202.1,239.3 198.5,234.3 198.5,229.6 201.3,231.8 202.1,234.6 						"/>
						<polygon class="st27" points="210.7,241.4 202.1,239.3 202.1,234.6 205.4,234.4 210.7,236.6 						"/>
						<polygon class="st20" points="219.3,234.5 222.9,229.6 219.3,224.6 210.7,222.6 202.1,224.6 198.5,229.6 202.1,234.6 
							210.7,236.6 						"/>
					</g>
					<g>
						<polygon class="st28" points="215.4,231.8 210.7,232.5 206,231.8 202.7,231.6 206.2,232.6 210.7,233.7 215.4,232.6 
							218.7,231.6 						"/>
						<polygon class="st24" points="217.2,228.9 204.2,228.9 199.9,229.2 202.7,231.6 210.7,233.5 218.7,231.6 221.6,229.2 						
							"/>
						<polygon class="st29" points="223,218.4 217.4,224.4 204,224.4 198.4,218.4 194.3,217.3 195.3,222.9 199.9,229.2 210.7,231.8 
							221.6,229.2 226.1,222.9 227.1,217.3 						"/>
						<polygon class="st25" points="226.1,211.7 222.7,212.7 215.8,217.6 205.6,217.6 198.7,212.7 195.3,211.7 194.3,217.3 
							199.2,224 210.7,226.8 222.3,224 227.1,217.3 						"/>
						<polygon class="st27" points="221.6,205.4 218.7,203.1 219,204.9 218.9,208.5 214.7,212.6 206.7,212.6 202.6,208.5 
							202.4,204.9 202.7,203.1 199.9,205.4 195.3,211.7 199.9,218 210.7,220.6 221.6,218 226.1,211.7 						"/>
						<polygon class="st26" points="218.7,203.1 215.2,202.1 215.6,203.3 215.3,205.2 212.3,206.7 209.2,206.7 206.1,205.2 
							205.8,203.3 206.2,202.1 202.7,203.1 199.4,207.7 202.7,212.3 210.7,214.2 218.7,212.3 222,207.7 						"/>
						<polygon class="st20" points="215.2,202.1 213.3,201.6 213.7,202.7 213.1,203.6 212,204.1 209.5,204.1 208.3,203.6 
							207.8,202.7 208.1,201.6 206.2,202.1 204.4,204.7 206.2,207.3 210.7,208.3 215.2,207.3 217.1,204.7 						"/>
						<polygon class="st30" points="213.3,204.6 214.4,203.1 213.3,201.6 210.7,201 208.1,201.6 207.1,203.1 208.1,204.6 
							210.7,205.2 						"/>
					</g>
				</g>
				<g>
					<polygon class="st0" points="286.6,198.4 265.5,193.3 244.4,198.4 235.7,210.5 244.5,222.7 265.5,227.8 286.6,222.7 
						295.4,210.5 					"/>
					<g>
						<polygon class="st24" points="285.8,221.9 294.3,210.2 294.3,199 287.7,204.3 283.6,209.5 						"/>
						<polygon class="st25" points="265.5,226.7 285.8,221.9 285.8,210.7 278.1,210.3 264.2,214.2 						"/>
						<polygon class="st26" points="245.2,221.9 236.8,210.2 236.8,199 243.4,204.3 245.2,210.7 						"/>
						<polygon class="st27" points="265.5,226.7 245.2,221.9 245.2,210.7 253,210.3 265.5,215.6 						"/>
						<polygon class="st20" points="285.8,210.7 294.2,199 285.8,187.3 265.5,182.4 245.2,187.3 236.8,199 245.2,210.7 265.5,215.6 
													"/>
					</g>
					<g>
						<polygon class="st26" points="250.6,116.5 254.6,116.5 254.6,122.1 257.5,173.1 249.5,207.4 243.8,199.3 						"/>
						<polygon class="st27" points="265.5,124.8 261.1,120.6 254.6,122.2 249.6,207.4 265.5,211.2 						"/>
						<polygon class="st24" points="280.5,116.5 276.4,116.5 276.4,122.1 273.5,173.1 281.5,207.4 287.2,199.3 						"/>
						<polygon class="st25" points="276.4,122.1 268.9,118.5 265.5,124.8 265.5,211.2 281.5,207.4 						"/>
						<path class="st20" d="M254.6,122.2l10.9,2.6l10.9-2.6l4-5.6l-4.1-5.6l-10.9-2.6l-10.9,2.6l-4,5.6L254.6,122.2z"/>
						<polygon class="st0" points="249.8,123.2 251.1,125 265.5,128.4 280,125 281.2,123.3 280.5,116.5 250.6,116.5 						"/>
					</g>
					<g>
						<polygon class="st24" points="280.7,122.1 287,113.4 294.6,86.8 282.1,95.1 279,99 						"/>
						<polygon class="st25" points="265.5,125.8 280.7,122.1 286.1,98.6 274.9,99.6 264.6,102.5 						"/>
						<polygon class="st26" points="250.4,122.1 244.1,113.4 236.5,86.8 249,95.1 250.4,99.9 						"/>
						<polygon class="st27" points="265.5,125.8 250.4,122.1 245,98.6 256.1,99.6 265.5,103.5 						"/>
						<polygon class="st20" points="286.1,98.6 294.6,86.8 286,74.9 265.5,70 245,74.9 236.5,86.8 245,98.6 265.6,103.5 						"/>
					</g>
					<g>
						<polygon class="st24" points="277.8,93.1 282.9,85.9 282.9,80.1 279,83.3 276.5,86.5 						"/>
						<polygon class="st25" points="265.5,96 277.8,93.1 277.8,87.2 273.1,87 264.7,89.3 						"/>
						<polygon class="st26" points="253.2,93.1 248.1,85.9 248.1,80.1 252.1,83.3 253.2,87.2 						"/>
						<polygon class="st27" points="265.5,96 253.2,93.1 253.2,87.2 257.9,87 265.5,90.1 						"/>
						<polygon class="st20" points="277.8,87.2 282.9,80.1 277.8,73 265.5,70 253.2,73 248.1,80.1 253.2,87.2 265.5,90.1 						"/>
					</g>
					<g>
						<polygon class="st0" points="273.1,84.4 276.2,80.1 273.1,75.7 265.5,73.9 257.9,75.7 254.8,80.1 258,84.4 265.5,86.2 						
							"/>
						<polygon class="st28" points="268.5,83.5 265.5,83.9 262.5,83.5 260.4,83.3 262.6,84 265.5,84.6 268.5,84 270.6,83.3 						
							"/>
						<polygon class="st24" points="269.7,81.6 261.3,81.6 258.5,81.8 260.4,83.3 265.5,84.5 270.6,83.3 272.5,81.8 						"/>
						<polygon class="st29" points="273.4,74.8 269.8,78.7 261.2,78.7 257.6,74.8 255,74.1 255.6,77.7 258.5,81.8 265.5,83.5 
							272.5,81.8 275.4,77.7 276.1,74.1 						"/>
						<polygon class="st25" points="275.4,70.5 273.2,71.2 268.8,74.3 262.3,74.3 257.8,71.2 255.6,70.5 255,74.1 258.1,78.4 
							265.5,80.2 273,78.4 276.1,74.1 						"/>
						<polygon class="st27" points="272.5,66.5 270.7,65 270.9,66.1 270.7,68.4 268.1,71.1 263,71.1 260.3,68.4 260.2,66.1 
							260.4,65 258.5,66.5 255.6,70.5 258.5,74.6 265.5,76.2 272.5,74.6 275.4,70.5 						"/>
						<polygon class="st26" points="270.7,65 268.4,64.3 268.7,65.1 268.5,66.3 266.5,67.3 264.5,67.3 262.5,66.3 262.4,65.1 
							262.6,64.3 260.4,65 258.3,67.9 260.4,70.9 265.5,72.1 270.7,70.9 272.8,67.9 						"/>
						<polygon class="st20" points="268.4,64.3 267.2,64 267.4,64.7 267.1,65.3 266.3,65.6 264.7,65.6 264,65.3 263.6,64.7 
							263.9,64 262.6,64.3 261.5,66 262.6,67.7 265.5,68.3 268.4,67.7 269.6,66 						"/>
						<polygon class="st30" points="267.2,66 267.9,65 267.2,64 265.5,63.6 263.9,64 263.2,65 263.9,66 265.5,66.4 						"/>
					</g>
				</g>
				<g>
					<polygon class="st0" points="308.6,283.2 295.3,280.1 282,283.2 276.5,290.9 282,298.6 295.3,301.7 308.6,298.5 314.1,290.9 
											"/>
					<g>
						<polygon class="st24" points="308.1,298.1 313.4,290.8 313.4,283.7 309.3,287.1 306.7,290.4 						"/>
						<polygon class="st25" points="295.3,301.2 308.1,298.1 308.1,291.1 303.2,290.8 294.5,293.3 						"/>
						<polygon class="st26" points="282.5,298.1 277.2,290.8 277.2,283.7 281.4,287.1 282.5,291.1 						"/>
						<polygon class="st27" points="295.3,301.2 282.5,298.1 282.5,291.1 287.4,290.8 295.3,294.1 						"/>
						<polygon class="st20" points="308.1,291.1 313.4,283.7 308.1,276.3 295.3,273.3 282.5,276.3 277.2,283.7 282.5,291.1 
							295.3,294.1 						"/>
					</g>
					<g>
						<polygon class="st26" points="286.4,248.7 288.8,248.7 288.8,252.1 290.6,268.3 285.8,288.7 282.4,283.9 						"/>
						<polygon class="st27" points="295.3,253.6 292.7,251.2 288.8,252.1 285.8,288.7 295.3,290.9 						"/>
						<polygon class="st24" points="304.2,248.7 301.8,248.7 301.8,252.1 300.1,268.3 304.8,288.7 308.2,283.9 						"/>
						<polygon class="st25" points="301.8,252.1 297.3,249.9 295.3,253.6 295.3,290.9 304.8,288.7 						"/>
						<path class="st20" d="M288.8,252.1l6.5,1.6l6.5-1.6l2.4-3.4l-2.4-3.4l-6.5-1.5l-6.5,1.5l-2.4,3.4L288.8,252.1z"/>
						<polygon class="st0" points="286,252.7 286.7,253.8 295.3,255.8 303.9,253.8 304.7,252.8 304.2,248.7 286.4,248.7 						"/>
					</g>
					<g>
						<polygon class="st24" points="303.9,252.2 307.5,247.2 307.5,242.5 304.7,244.7 303,246.9 						"/>
						<polygon class="st25" points="295.3,254.2 303.9,252.2 303.9,247.4 300.7,247.3 294.8,248.9 						"/>
						<polygon class="st26" points="286.7,252.2 283.1,247.2 283.1,242.5 285.9,244.7 286.7,247.4 						"/>
						<polygon class="st27" points="295.3,254.2 286.7,252.2 286.7,247.4 290,247.3 295.3,249.5 						"/>
						<polygon class="st20" points="303.9,247.4 307.5,242.5 303.9,237.5 295.3,235.4 286.7,237.5 283.1,242.5 286.7,247.4 
							295.3,249.5 						"/>
					</g>
					<g>
						<polygon class="st28" points="300,244.7 295.3,245.4 290.6,244.7 287.3,244.5 290.8,245.5 295.3,246.6 300,245.5 303.3,244.5 
													"/>
						<polygon class="st24" points="301.8,241.8 288.8,241.8 284.5,242.1 287.3,244.5 295.3,246.4 303.3,244.5 306.2,242.1 						
							"/>
						<polygon class="st29" points="307.6,231.3 302,237.3 288.6,237.3 283,231.3 278.9,230.2 280,235.8 284.5,242.1 295.3,244.7 
							306.2,242.1 310.7,235.8 311.7,230.2 						"/>
						<polygon class="st25" points="310.7,224.6 307.4,225.6 300.4,230.5 290.2,230.5 283.3,225.6 280,224.6 278.9,230.2 
							283.8,236.9 295.3,239.7 306.9,236.9 311.7,230.2 						"/>
						<polygon class="st27" points="306.2,218.3 303.3,216 303.6,217.7 303.5,221.4 299.3,225.5 291.3,225.5 287.2,221.4 287,217.7 
							287.3,216 284.5,218.3 280,224.6 284.5,230.9 295.3,233.5 306.2,230.9 310.7,224.6 						"/>
						<polygon class="st26" points="303.3,216 299.8,215 300.2,216.2 300,218.1 296.9,219.6 293.8,219.6 290.7,218.1 290.4,216.2 
							290.8,215 287.3,216 284,220.6 287.3,225.2 295.3,227.1 303.3,225.2 306.6,220.6 						"/>
						<polygon class="st20" points="299.8,215 297.9,214.5 298.3,215.6 297.7,216.5 296.6,217 294.1,217 292.9,216.5 292.4,215.6 
							292.7,214.5 290.8,215 289,217.5 290.8,220.1 295.3,221.2 299.8,220.1 301.7,217.5 						"/>
						<polygon class="st30" points="297.9,217.5 299,216 297.9,214.5 295.3,213.9 292.7,214.5 291.7,216 292.7,217.5 295.3,218.1 
													"/>
					</g>
				</g>
				<g>
					<polygon class="st0" points="392.8,272.8 379.5,269.6 366.2,272.8 360.7,280.4 366.2,288.1 379.5,291.3 392.8,288.1 
						398.3,280.4 					"/>
					<g>
						<polygon class="st24" points="392.3,287.7 397.6,280.3 397.6,273.2 393.5,276.6 390.9,279.9 						"/>
						<polygon class="st25" points="379.5,290.7 392.3,287.7 392.3,280.6 387.4,280.4 378.7,282.8 						"/>
						<polygon class="st26" points="366.7,287.7 361.4,280.3 361.4,273.2 365.6,276.6 366.7,280.6 						"/>
						<polygon class="st27" points="379.5,290.7 366.7,287.7 366.7,280.6 371.6,280.4 379.5,283.7 						"/>
						<polygon class="st20" points="392.3,280.6 397.6,273.2 392.3,265.9 379.5,262.8 366.7,265.9 361.4,273.2 366.7,280.6 
							379.5,283.7 						"/>
					</g>
					<g>
						<polygon class="st26" points="370.6,238.3 373,238.3 373,241.6 374.8,257.8 370,278.2 366.6,273.4 						"/>
						<polygon class="st27" points="379.5,243.2 376.9,240.7 373,241.6 370,278.2 379.5,280.4 						"/>
						<polygon class="st24" points="388.4,238.3 386,238.3 386,241.6 384.3,257.8 389,278.2 392.4,273.4 						"/>
						<polygon class="st25" points="386,241.6 381.5,239.5 379.5,243.2 379.5,280.4 389,278.2 						"/>
						<path class="st20" d="M373,241.6l6.5,1.5l6.5-1.6l2.4-3.4l-2.4-3.3l-6.5-1.5l-6.5,1.6l-2.4,3.3L373,241.6z"/>
						<polygon class="st0" points="370.2,242.2 370.9,243.3 379.5,245.3 388.1,243.3 388.9,242.3 388.4,238.3 370.6,238.3 						"/>
					</g>
					<g>
						<polygon class="st24" points="388.1,241.7 391.7,236.7 391.7,232 388.9,234.2 387.2,236.5 						"/>
						<polygon class="st25" points="379.5,243.8 388.1,241.7 388.1,237 384.8,236.8 379,238.4 						"/>
						<polygon class="st26" points="370.9,241.7 367.3,236.7 367.3,232 370.1,234.2 370.9,237 						"/>
						<polygon class="st27" points="379.5,243.8 370.9,241.7 370.9,237 374.2,236.8 379.5,239 						"/>
						<polygon class="st20" points="388.1,237 391.7,232 388.1,227 379.5,225 370.9,227 367.3,232 370.9,237 379.5,239 						"/>
					</g>
					<g>
						<polygon class="st28" points="384.2,234.2 379.5,234.9 374.8,234.2 371.5,234 375,235 379.5,236.1 384.2,235 387.5,234 						
							"/>
						<polygon class="st24" points="386,231.4 373,231.4 368.7,231.6 371.5,234 379.5,235.9 387.5,234 390.4,231.6 						"/>
						<polygon class="st29" points="391.8,220.9 386.2,226.8 372.8,226.8 367.2,220.9 363.1,219.8 364.2,225.4 368.7,231.6 
							379.5,234.2 390.4,231.6 394.9,225.4 395.9,219.8 						"/>
						<polygon class="st25" points="394.9,214.1 391.6,215.2 384.6,220 374.4,220 367.5,215.2 364.2,214.1 363.1,219.8 368,226.4 
							379.5,229.2 391.1,226.4 395.9,219.8 						"/>
						<polygon class="st27" points="390.4,207.9 387.5,205.5 387.8,207.3 387.7,210.9 383.5,215 375.5,215 371.4,210.9 371.2,207.3 
							371.5,205.5 368.7,207.9 364.2,214.1 368.7,220.4 379.5,223 390.4,220.4 394.9,214.1 						"/>
						<polygon class="st26" points="387.5,205.5 384,204.5 384.4,205.7 384.1,207.6 381.1,209.1 378,209.1 374.9,207.6 374.6,205.7 
							375,204.5 371.5,205.5 368.2,210.1 371.5,214.7 379.5,216.6 387.5,214.7 390.8,210.1 						"/>
						<polygon class="st20" points="384,204.5 382.1,204 382.5,205.1 381.9,206.1 380.8,206.5 378.3,206.5 377.1,206.1 376.6,205.1 
							376.9,204 375,204.5 373.2,207.1 375,209.6 379.5,210.7 384,209.6 385.9,207.1 						"/>
						<polygon class="st30" points="382.1,207 383.2,205.5 382.1,204 379.5,203.4 376.9,204 375.8,205.5 376.9,207 379.5,207.6 
													"/>
					</g>
				</g>
			</g>
		</g>
	</g>
</switch>

</svg>
