<?xml version="1.0" encoding="utf-8"?>
<!-- Generator: Adobe Illustrator 27.1.1, SVG Export Plug-In . SVG Version: 6.00 Build 0)  -->










<svg version="1.1" id="Layer_1" xmlns="http://www.w3.org/2000/svg" xmlns:xlink="http://www.w3.org/1999/xlink" x="0px" y="0px" viewBox="0 0 600 537.8" style="enable-background:new 0 0 600 537.8;" xml:space="preserve">
<style type="text/css">
	.st0{fill:#403531;}
	.st1{fill:#685750;}
	.st2{fill:#836E69;}
	.st3{fill:#A39C95;}
	.st4{fill:#D8D1C7;}
	.st5{fill:#FFFFFF;}
	.st6{fill:#362C29;}
	.st7{fill:#C7A495;}
	.st8{fill:#F0C6B4;}
	.st9{fill:#574943;}
	.st10{fill:#3E6669;}
	.st11{fill:#418080;}
	.st12{opacity:0.15;fill:#211A1A;}
	.st13{fill:#F4EFE9;}
	.st14{fill:#0A0808;}
	.st15{fill:#5E4439;}
	.st16{fill:#211A1A;}
	.st17{fill:#6B4414;}
	.st18{fill:#736656;}
	.st19{fill:#EF8F2D;}
	.st20{fill:#D66B24;}
	.st21{fill:#6E5849;}
	.st22{opacity:0.3;}
	.st23{fill:#D9AF6F;}
	.st24{fill:#C79D5C;}
	.st25{fill:#B5AFA7;}
	.st26{opacity:0.6;fill:#7DD2E3;}
	.st27{opacity:0.6;fill:#5F9FAD;}
	.st28{opacity:0.6;fill:#BAF3FF;}
	.st29{opacity:0.2;fill:#FFFFFF;}
	.st30{fill:#B4CED6;}
	.st31{fill:#E8F3FF;}
	.st32{opacity:0.5;}
	.st33{fill:#377691;}
	.st34{fill:#65C6E5;}
	.st35{fill:#B88F5A;}
	.st36{fill:#17435C;}
	.st37{fill:#4F4F4F;}
	.st38{fill:#754C29;}
	.st39{fill:#231F20;}
	.st40{fill:#595959;}
	.st41{fill:#E6E1DD;}
	.st42{fill:#947C77;}
	.st43{fill:#3C2415;}
	.st44{fill:#603913;}
	.st45{fill:#EEEDF6;}
	.st46{fill:#9FB366;}
	.st47{fill:#FA5C52;}
	.st48{fill:#E3BD5E;}
	.st49{fill:#D1D1D1;}
	.st50{fill:#363636;}
	.st51{fill:#4D4D4D;}
	.st52{fill:#995D43;}
	.st53{fill:#B57355;}
</style>
<switch>
	
	<g>
		<g>
			<g>
				<g>
					<polygon class="st0" points="191.6,260.7 194.3,259.2 216.8,205.2 211.7,202.3 209,203.9 210.2,207.8 191.6,257.3 					"/>
					<polygon class="st1" points="186.5,257.8 191.6,260.7 214.1,206.8 209,203.9 					"/>
				</g>
				<g>
					<polygon class="st1" points="260.6,259.9 263.3,258.4 263,255.2 258.4,254.1 206.3,225.5 204.9,227.8 					"/>
					<polygon class="st2" points="260.3,256.7 263,255.2 209,223.9 206.3,225.5 					"/>
				</g>
				<g>
					<polygon class="st0" points="268,304.8 270.6,303.3 266.4,233.9 261.4,231 258.7,232.5 261.4,236.6 265.6,297.7 					"/>
					<polygon class="st1" points="262.9,301.9 268,304.8 263.8,235.4 258.7,232.5 					"/>
				</g>
				<g>
					<polygon class="st2" points="264.6,233.7 269.4,230.9 209.8,196.5 205,199.3 209,203.7 					"/>
					<polygon class="st0" points="264.6,237.2 269.4,234.4 269.4,230.9 264.6,233.7 262.7,233.7 					"/>
					<polygon class="st1" points="205,202.8 264.6,237.2 264.6,233.7 205,199.3 					"/>
				</g>
			</g>
			<g>
				<polygon class="st3" points="215.2,304.6 268.8,273.6 268.8,259.5 240.5,271.3 215.2,290.5 				"/>
				<polygon class="st4" points="151.7,267.9 215.2,304.6 215.2,290.5 203.9,275.5 151.7,253.8 				"/>
				<polygon class="st5" points="215.2,290.5 268.8,259.5 205.4,222.9 151.7,253.8 				"/>
			</g>
			<g>
				<polygon class="st4" points="148.9,192.3 151.7,253.8 157.5,259.5 163.9,260.9 158.3,194.6 				"/>
				<polygon class="st5" points="202.5,161.3 148.9,192.3 152.9,194.6 184.1,194.5 206.5,163.6 				"/>
				<polygon class="st3" points="152.9,194.6 163.9,260.9 217.6,229.9 206.5,163.6 				"/>
			</g>
			<g>
				<path class="st6" d="M248.1,319.7c0,0,3.8,3.1,6.4,5.1c2.6,2,5.5,5.6,9.3,7.6c3.8,2,6.4,0.7,6.9,0c3.3-5-5.5-10.8-5.5-10.8
					l-12.4-10.4l-5.8,2.6l-1.9,2.4L248.1,319.7z"/>
				<path class="st7" d="M254.6,262.1c0,0,6.8,6.4,5.6,13.9c-1.2,7.5-3.5,21.3-3,30.1c0.3,4.6,1.9,9,1.9,9s10.1,9.2,7.1,11
					c-2.4,1.5-8.8-3.3-14.7-8.3c-1.9-1.6-4.3-2-4.1-4.5c0.7-3.5-0.2-13.1-0.2-13.1l-7.6-23.4l-5.7-10.4l15.5-10L254.6,262.1z"/>
				<path class="st6" d="M236.4,321.1c0,0-2.1,3.1,0.2,5.3c1.6,1.5,12.5,10.1,17.2,11.9c4.7,1.8,7.7,0.7,9.1-0.7
					c2.7-2.8-7.3-10.1-7.3-10.1L236.4,321.1z"/>
				<path class="st8" d="M233.9,279.5l2.1,0.9c0,0-1.9,4.5-2,8.7c0,4.3,4.2,20.1,4,29c0,0.7-1.7,2.3-1.7,3.5
					c1.4,2.6,16.4,14.2,21.8,10.6c2.1-1.4-9.8-12-10.1-13.6c-1.7-10.6-0.4-30.7-0.4-30.7s3-11.9,0.4-14.7c-2.6-2.8-7.4-7.8-7.4-7.8
					l-4.9-1.4l-8.6,6.9l0.5,5.6L233.9,279.5z"/>
				<path class="st6" d="M191.4,257.5c6.5,5.5,42.5,22.1,42.5,22.1s-3.2-1.1-2.8-5.2c0.3-4,6.2-7.1,13.1-10.9c7.9-4.3,9-2,10.6-1.4
					c-4.7-6.2-13.7-17.4-21.5-24.3c-6.3-5.6-13.6-7.7-13.6-7.7l-4.5-1l-22.9,7.6l-4.6,9.3C187.5,246,190.7,255.9,191.4,257.5z"/>
				<path class="st9" d="M228.3,234.5c0,0,1.4,2.6,5.6,0.4c4-2.1,3.3-4.8,3.3-4.8l-3.6-3.9l-6.8,4.1L228.3,234.5z"/>
				<polygon class="st5" points="228.6,231.8 231.4,235.7 236.6,232.7 234.7,228.7 232.7,227 228.3,228.7 				"/>
				<path class="st8" d="M231.4,235.7c0.1,2.2-0.1,4.1,0,6.3c0.2,2.3,1.7,6,2.7,6c1,0-0.1-5.7,1.3-5.8c1.3-0.1,3,3.1,3,3.1
					s-0.3,4,0.8,4.9c1.2,0.9,2.2,1.6,3.5,1.3c1.3-0.3,1.7-7.5,1.1-9.4c-0.6-1.8-6.1-7.7-7-9C235.4,230.9,230.9,233.1,231.4,235.7z"/>
				<path class="st10" d="M217.2,219.8c0,0,10.1,13.1,11.1,14.7c-0.4-3.1,6.2-7.2,8.9-4.4c-0.9-1.6-13.1-22-13.1-22l-1.6-5.6
					l-10.2,4.7L217.2,219.8z"/>
				<path class="st10" d="M215.7,172.1c0,0,4,0,4.5,5.7c0.5,5.7,1.9,17.3,1.9,17.3l-9.1-4.2l-2.4-19.7L215.7,172.1z"/>
				<polygon class="st7" points="194.1,172.9 191.7,180.1 197.1,186.5 205.3,186.5 210.7,184.1 212.3,179.7 210.7,170.2 198,169.1 
									"/>
				<path class="st5" d="M193.3,176.4c4.1,10.5,13.5,7.5,13.5,7.5s4.1-2.6,1.7-7.5c0.8,0,2.9,0,2.9,0l5.5,9.7v17.3l-7.2,0.9
					l-16.4-10.6l-3.3-8.5C190,185.1,191.6,179.7,193.3,176.4z"/>
				<path class="st11" d="M180.6,187.9c7.5-8.4,12.4-12.1,12.4-12.1s-0.2,7.6,5,12.7c5.2,5.1,12.9,8.3,12.9,8.3s2.4-12.4,0-17
					c-2.4-4.6-6.7-8.2-6.7-8.2s3.3-1.2,4.6-0.9c7.7,1.9,8.7,10.2,10.3,13.5c1.6,3.3,5.8,9,6.3,14.5c0.5,5.5-5.5,11.5-5.5,11.5
					s-2.3,15.6,3.9,20.8c1.1,3-2.8,8.7-7.1,11.7c-0.4,0.3-3.5-2.5-4.9-7.9c-1.3,4.9,1.6,10.2,1.2,10.6c-2.6,3-12.4,0.3-21.6,12.1
					c-1.3-1.3-7.2-6-8.7-15.8c-1.1-6.7-0.3-9.4-0.6-15.2c-0.8-15.1-2-32.5-2-32.5S181.2,189,180.6,187.9z"/>
				<path class="st9" d="M213,241.3c0,0,2.7,1.8-0.6,6.3c-2.8,3.9-5.5,2.2-5.5,2.2l-3.4-2.9l6.4-7.5L213,241.3z"/>
				<polygon class="st5" points="205.3,247.5 209.6,250 214.4,243.5 211.8,241.4 206.5,240.4 203.4,242.9 				"/>
				<path class="st9" d="M218.3,146.9c2.5,9-1.6,11.8-1.6,11.8l-4.4-4.6l0.4-7.8C212.7,146.3,217.9,146.5,218.3,146.9z"/>
				<path class="st8" d="M216.6,149.9c1.1,3.5,1.1,7.8,1.1,7.8s2.9,3.8,2.9,4.8c0,1-2,2.1-2,2.1s-0.2,7.4-1,8.1
					c-2.1,1.9-9.8,0-9.8,0l-3-6.6l3.4-19.8l4.9,1C213,147.3,216.4,148.4,216.6,149.9z"/>
				<path class="st3" d="M214.1,150.8c0,0,1.6,3.7,0.4,6.2c-1.2,2.5-3.2,2.9-3.9,5.7c-2,7.6-0.2,13.8,2.2,14.6
					c-4,2.8-10.8,0.5-10.8,0.5s-0.6-0.2,0,0.8c-11.9,1-16.1-7.3-14.5-15.7c0.3-1.7,0.8-6.2,4.4-14.8c4.7-11.1,22.1-4.7,22.1-4.7
					s4.1,1.3,4.3,3.5C218.7,150.1,214.1,150.8,214.1,150.8z"/>
				<path class="st12" d="M197,147.1c10-1,17.1,3.7,17.1,3.7S207.1,143.9,197,147.1z"/>
				<path class="st10" d="M194.8,210.3c0,0,2.7,9.6,12,5.2C199.5,216.6,194.8,210.3,194.8,210.3z"/>
				<path class="st10" d="M183.5,186.9c-7.7,0.9-5.1,10.6-5.1,10.6s4.1,35,6.8,37.4c3.3,2.9,17.6,12.7,21.7,14.8
					c-1.8-2.4,2.6-8.8,6.1-8.4c-3.5-2.2-18.1-14.8-18.1-14.8l-3-31.1C191.9,195.3,191.2,186,183.5,186.9z"/>
				<path class="st8" d="M209.9,250.4c-2.5-2.6,2.3-8,4.5-7c0.9,0.5,9.6,4.9,11,5.8c1.3,1,6.1,6.9,5.6,8.2c-0.5,1.3-7,3.2-8.2,2.8
					c-1.1-0.4-3.8-3.5-3.8-3.5s-4.4-1.2-6.9-3.7C211.3,252.3,211,251.5,209.9,250.4z"/>
				<path class="st10" d="M214.9,205.8c-0.2-1.6-0.7-3.2-1.4-4.7c-0.7-1.5-1.6-2.9-2.6-4.2c1.6,2.8,3,5.8,3.2,9
					c0.2,3.2-0.5,6.3-1.1,9.5c-0.7,3.2-1.2,6.4-1.5,9.7c-0.1,1.6-0.2,3.3-0.1,4.9c0.1,1.6,0.1,3.3,0.3,4.9c0-3.3,0.1-6.5,0.5-9.7
					c0.4-3.2,1-6.4,1.7-9.6C214.6,212.4,215.3,209.1,214.9,205.8z"/>
			</g>
			<g>
				<g>
					<polygon class="st0" points="133.1,294.5 135.8,293 158.3,239 153.2,236.1 150.6,237.6 151.7,241.6 133.1,291.1 					"/>
					<polygon class="st1" points="128,291.6 133.1,294.5 155.6,240.6 150.6,237.6 					"/>
				</g>
				<g>
					<polygon class="st1" points="202.1,293.7 204.8,292.1 204.5,288.9 199.9,287.9 147.8,259.3 146.4,261.5 					"/>
					<polygon class="st2" points="201.8,290.5 204.5,288.9 150.5,257.7 147.8,259.3 					"/>
				</g>
				<g>
					<polygon class="st0" points="209.5,338.6 212.1,337 207.9,267.7 202.9,264.7 200.2,266.3 202.9,270.4 207.1,331.5 					"/>
					<polygon class="st1" points="204.4,335.7 209.5,338.6 205.3,269.2 200.2,266.3 					"/>
				</g>
				<g>
					<polygon class="st2" points="206.1,267.5 210.9,264.7 151.3,230.3 146.5,233.1 150.5,237.5 					"/>
					<polygon class="st0" points="206.1,271 210.9,268.2 210.9,264.7 206.1,267.5 204.2,267.5 					"/>
					<polygon class="st1" points="146.5,236.6 206.1,271 206.1,267.5 146.5,233.1 					"/>
				</g>
			</g>
		</g>
		<g>
			<g>
				<g>
					<polygon class="st0" points="75,328 77.7,326.5 100.2,272.5 95.2,269.6 92.5,271.2 93.6,275.1 75,324.6 					"/>
					<polygon class="st1" points="70,325.1 75,328 97.5,274.1 92.5,271.2 					"/>
				</g>
				<g>
					<polygon class="st1" points="144.1,327.2 146.7,325.7 146.5,322.5 141.8,321.4 89.7,292.8 88.4,295.1 					"/>
					<polygon class="st2" points="143.8,324 146.5,322.5 92.4,291.3 89.7,292.8 					"/>
				</g>
				<g>
					<polygon class="st0" points="151.4,372.1 154.1,370.6 149.9,301.2 144.8,298.3 142.1,299.8 144.8,303.9 149,365 					"/>
					<polygon class="st1" points="146.3,369.2 151.4,372.1 147.2,302.7 142.1,299.8 					"/>
				</g>
				<g>
					<polygon class="st2" points="148.1,301 152.9,298.2 93.3,263.8 88.5,266.6 92.4,271 					"/>
					<polygon class="st0" points="148.1,304.5 152.9,301.7 152.9,298.2 148.1,301 146.2,301 					"/>
					<polygon class="st1" points="88.5,270.1 148.1,304.5 148.1,301 88.5,266.6 					"/>
				</g>
			</g>
			<g>
				<polygon class="st3" points="98.6,371.9 152.3,340.9 152.3,326.8 124,338.6 98.6,357.8 				"/>
				<polygon class="st4" points="35.1,335.2 98.6,371.9 98.6,357.8 87.3,342.8 35.1,321.2 				"/>
				<polygon class="st13" points="98.6,357.8 152.3,326.8 88.8,290.2 35.1,321.2 				"/>
			</g>
			<g>
				<polygon class="st4" points="32.3,259.6 35.1,321.2 40.9,326.8 47.3,328.2 41.7,261.9 				"/>
				<polygon class="st13" points="86,228.6 32.3,259.6 36.3,261.9 67.6,261.8 90,230.9 				"/>
				<polygon class="st3" points="36.3,261.9 47.3,328.2 101,297.2 90,230.9 				"/>
			</g>
			<g>
				<path class="st14" d="M121.5,289.6c0,0,2.2,4.3-5.1,6.4c-4.2,1.2-5.5-1.5-5.5-1.5l-1.1-4.9l9-3.9L121.5,289.6z"/>
				<polygon class="st5" points="119.9,288.7 121.3,295.6 113.2,296.1 111,292 113.5,288 117.4,286.6 				"/>
				<path class="st15" d="M117.8,283c1.3,2.4,2.6,4.7,3.7,6.6c-3.3-2.5-10.3,2.9-10.6,4.9c-0.6-1-2.3-3.6-4.1-6.5l5.1-5H117.8z"/>
				<path class="st15" d="M106.8,288c-3-4.7-6.6-10.1-6.6-10.1l-8.7-42.1l5.7-7.3c0,0,6.4-0.1,8.2,8.2c1.8,8.3,3.6,29.3,4.4,30.9
					c1.2,2.5,4.8,9.3,8.1,15.4L106.8,288z"/>
				<path class="st16" d="M147.9,382.9c5.8,5.4,9.7,7.5,12.2,9.7c2.5,2.2,2.1,6,1.9,6.8c-1.2,3.8-4.7,3.9-9.6,1.7
					c-4.8-2.1-8.1-5.8-10.8-7.4c-2.7-1.6-7-2.6-8.9-5c-1.2-1.5,0.2-6.8,0.2-6.8S145.5,380.6,147.9,382.9z"/>
				<path class="st17" d="M147.9,381.6c5.8,5.3,9.7,7.5,12.2,9.7c2.5,2.2,2.1,6,1.9,6.8c-1.2,3.8-4.7,3.9-9.6,1.7
					c-4.8-2.1-8.1-5.8-10.8-7.4c-2.7-1.6-7-2.6-8.9-5c-1.2-1.5,0.2-6.8,0.2-6.8S145.5,379.3,147.9,381.6z"/>
				<path class="st15" d="M115.5,297.7c20.3,14.9,25.8,23.1,35.5,32c3.6,3.3,2.7,10.9,2.2,14.9c-2.7,20.1-4.8,29-4.7,35.7
					c0.1,6.7-16.9,4.8-16-2.3c0.8-7.1,0.1-24.7,3-38c-0.9-1.4-33.5-17.5-33.5-17.5l-9.7-13.2l8.1-13.7
					C100.5,295.6,111.8,297.7,115.5,297.7z"/>
				<path class="st7" d="M113,304.7c0,0-0.5,2.4-0.4,3.7c0.1,1.3,1,4.8,1.9,4.7c1.8-0.3,1.3-2.6,1.3-2.6s-0.5-3.8,1.3-3.7
					c1.8,0.1,2.8,3.3,2.9,4.8c0.1,1.5-0.9,6.6,0.4,7c2.2,0.6,6.1-5.1,6.8-7.8c0.6-2.7-1.7-8.4-1.7-8.4L113,304.7z"/>
				<path class="st16" d="M141.6,407.3c1.4,1.6,1.2,4.1,1.1,4.9c-1.3,5.5-11.6,4.2-17-0.4c-4.8-4.1-11-8.6-11-10.5
					c0-1.9,0-1.7,0-1.7S140.2,405.7,141.6,407.3z"/>
				<path class="st17" d="M129,393c4.6,5.7,11.2,11.4,12.6,13.1c1.4,1.6,1.2,4.1,1.1,4.9c-1.3,5.5-11.6,4.2-17-0.4
					c-4.8-4.1-11-8.6-11-10.5c0-1.9,0-6.3,0-6.3S125.3,392.4,129,393z"/>
				<path class="st18" d="M100.1,300.9c-0.8,6.8-2.7,10-2.7,10s24.1,24.9,27.3,29.5c3.2,4.6,4.6,9.7,4.4,13.8
					c-0.9,15.6,0.1,32.2,0.7,38.6c0.6,6.4-16.2,4.8-16.5-1.3c-0.5-11.9-3.6-21.4-2.8-39.2c-1-0.6-34-21.5-39.6-27.7
					c-3-3.3-3.7-6.2-3.7-6.2l8.4-21.7l21.7-1.8C97.3,294.9,99.1,300.4,100.1,300.9z"/>
				<polygon class="st7" points="73.3,227.7 72.7,231 72,242.7 84.8,248.8 92.5,247.6 97.2,241.5 91,230.5 73.7,225.1 				"/>
				<polygon class="st5" points="69.9,238.8 72.7,237.1 81.5,245.9 88.8,244.2 92,242.4 93.7,238.8 97.8,237.1 102.3,249.5 
					102.3,268.3 99.8,273.9 93.1,276 79.8,264.6 67.3,245.3 				"/>
				<g>
					<path class="st19" d="M92.1,248.1c5.8,14.2,5.7,28,5.7,28s-4.5,2.9-5.1,2.4c0-16.6-3.2-29-3.2-29l0.6-2.5
						C90.2,247,92,247.6,92.1,248.1z"/>
					<polygon class="st20" points="93.1,244.5 92.1,248.1 89.5,249.5 85.9,248.5 85,244.8 88.8,244.2 91.2,242.3 					"/>
				</g>
				<path class="st21" d="M71.3,232.2c0,0-0.8,4,1.2,9.2c6.8,17.9,16.3,21.9,22.8,31.1c11.3-29.1-6.8-40.1-6.8-40.1l3.5-2.2
					c0,0,3.6,0.6,8.2,7.6c4.1,6.3,5.3,11,4.9,22.2c-0.4,11.3-0.3,24.9,1.1,28.4c2.2,5.4,9.3,9.3,9.3,9.3s-7.8,4.7-11.5,11.1
					c-4.9,0.5-6.2-3.3-6.2-3.3s-1.1,3.9,1.3,7.3c-21.4,4.8-20.5,19.3-26.3,15c-3.4-2.5-7.5-6.3-9.6-16.9c-3.2-16,0.8-26.2-6.8-44.7
					c0.9-2.5,0.2-18.8,0.1-19.6C62.1,240.6,71.3,232.2,71.3,232.2z"/>
				<path class="st15" d="M95.3,272.5c0.4,2.7,0.6,5.5,0.8,8.2c0.2,2.8,0.4,5.5,0.5,8.3l0.5,8.3c0.1,1.4,0.2,2.8,0.3,4.1
					c0.1,1.4,0.2,2.7,0.4,4.1c-0.7-2.7-1.1-5.4-1.4-8.2c-0.3-2.7-0.5-5.5-0.7-8.3c-0.1-2.8-0.3-5.5-0.3-8.3l-0.1-4.1L95.3,272.5z"/>
				<path class="st22" d="M72.5,231c2,15,16.3,13.3,16.3,13.3s-0.4,4.8-0.5,7.8c0,0-17.3,0-18.5-18.9C70.4,232.5,72.5,231,72.5,231z
					"/>
				<g>
					<path class="st22" d="M88.8,244.2c0,0,3.2-4,4-9.8c-0.4-0.1,2.4-0.1,2.8-0.2c1.8,7.5-0.8,14.1-0.8,14.1
						C93.1,246.9,88.8,244.2,88.8,244.2z"/>
					<path class="st5" d="M88.8,244.2c0,0,2.2-5,2.9-10.9c-0.4-0.2,2.4-0.2,2.8-0.2c1.8,7.5-0.3,13.4-0.3,13.4
						C92.5,245.1,88.8,244.2,88.8,244.2z"/>
					<path class="st5" d="M72.9,229.7c2,15,15.9,14.5,15.9,14.5s-1.4,3.6-1.4,6.5c0,0-15.3-0.8-17.5-17.7
						C70.4,232.5,72.9,229.7,72.9,229.7z"/>
				</g>
				<path class="st8" d="M100.1,220.2c0,0,0.2,2.6,0,3.3c-0.2,0.7-1.2,1.7-1.2,1.7s0.4,2.2,0.2,3.8c-0.2,1.6-2.8,9.9-3.1,10.9
					c-0.3,1-3.5,2.6-5.2,2.5c-1.7-0.1-9-5-10.5-6.4c-1.5-1.4-2.1-5.4-2.1-5.4s-2.6-0.2-3.2-2.2c-1.3-1-2.3-2.4-2.3-2.4l-0.6-8.5
					l13.8-7l13.8,2.1L100.1,220.2z"/>
				<path class="st23" d="M74.9,228.4c0,0-1.1-2.1-1-3.8c0-1-0.1-3.1,2.1-2.1c2.2,1,3.1,4.1,3.1,4.1s4.5-0.7,6.7-2.5
					c2.2-1.8,2.2-4.5,2.2-4.5s3.6-1.1,7-0.6c3.3,0.4,4.7,2.1,5.5,1c0.8-1.1,1.7-2.8,0.2-7.1c-0.5-1.3-1.6-5-10.3-9.7
					c-3.8-2.1-10.7-0.9-13.2,0.8c-2.5,1.8-2.9,3.4-4,4.4c-5.3,2.7-4,10.3-3,14.3C71.5,227.9,74.9,228.4,74.9,228.4z"/>
				<path class="st24" d="M76.4,210.3c0.8-1.5,10.4,8.2,10.4,8.2S75.5,211.8,76.4,210.3z"/>
			</g>
			<g>
				<g>
					<polygon class="st0" points="16.5,361.8 19.2,360.3 41.7,306.3 36.7,303.4 34,304.9 35.1,308.9 16.5,358.4 					"/>
					<polygon class="st1" points="11.5,358.9 16.5,361.8 39,307.9 34,304.9 					"/>
				</g>
				<g>
					<polygon class="st1" points="85.6,361 88.2,359.4 88,356.2 83.3,355.2 31.2,326.6 29.9,328.8 					"/>
					<polygon class="st2" points="85.3,357.8 88,356.2 33.9,325 31.2,326.6 					"/>
				</g>
				<g>
					<polygon class="st0" points="92.9,405.9 95.6,404.3 91.4,335 86.3,332.1 83.6,333.6 86.3,337.7 90.5,398.8 					"/>
					<polygon class="st1" points="87.8,403 92.9,405.9 88.7,336.5 83.6,333.6 					"/>
				</g>
				<g>
					<polygon class="st2" points="89.6,334.8 94.4,332 34.8,297.6 30,300.4 33.9,304.8 					"/>
					<polygon class="st0" points="89.6,338.3 94.4,335.5 94.4,332 89.6,334.8 87.7,334.8 					"/>
					<polygon class="st1" points="30,303.9 89.6,338.3 89.6,334.8 30,300.4 					"/>
				</g>
			</g>
		</g>
		<g>
			<g>
				<path class="st25" d="M86.9,418.8v-75h-9.8v75c0,0.7,0.5,1.5,1.4,2c1.9,1.1,5,1.1,7,0C86.5,420.2,86.9,419.5,86.9,418.8z"/>
				<path class="st13" d="M85.5,345.8c-1.9,1.1-5,1.1-7,0c-1.9-1.1-1.9-2.9,0-4c1.9-1.1,5-1.1,7,0C87.4,342.9,87.4,344.7,85.5,345.8
					z"/>
			</g>
			<g>
				<path class="st25" d="M297.1,297.5v-75h-9.8v75c0,0.7,0.5,1.5,1.4,2c1.9,1.1,5,1.1,7,0C296.6,298.9,297.1,298.2,297.1,297.5z"/>
				<path class="st13" d="M295.6,224.5c-1.9,1.1-5,1.1-7,0c-1.9-1.1-1.9-2.9,0-4c1.9-1.1,5-1.1,7,0
					C297.5,221.5,297.5,223.3,295.6,224.5z"/>
			</g>
			<g>
				<path class="st25" d="M212.9,491.5v-75h-9.8v75c0,0.7,0.5,1.4,1.4,2c1.9,1.1,5,1.1,7,0C212.5,493,212.9,492.3,212.9,491.5z"/>
				<path class="st13" d="M211.5,418.5c-1.9,1.1-5,1.1-7,0c-1.9-1.1-1.9-2.9,0-4c1.9-1.1,5-1.1,7,0
					C213.4,415.6,213.4,417.4,211.5,418.5z"/>
			</g>
			<g>
				<path class="st25" d="M423.1,370.2v-75h-9.8v75c0,0.7,0.5,1.5,1.4,2c1.9,1.1,5,1.1,7,0C422.6,371.7,423.1,370.9,423.1,370.2z"/>
				<path class="st13" d="M421.6,297.2c-1.9,1.1-5,1.1-7,0c-1.9-1.1-1.9-2.9,0-4c1.9-1.1,5-1.1,7,0
					C423.5,294.3,423.5,296.1,421.6,297.2z"/>
			</g>
			<g>
				<polygon class="st26" points="429,295 292.2,216.1 292.2,209.6 429,288.6 				"/>
				<polygon class="st27" points="292.2,216.1 71.4,343.5 71.4,337.1 292.2,209.6 				"/>
				<polygon class="st26" points="208.2,422.5 71.4,343.5 71.4,337.1 208.2,416.1 				"/>
				<polygon class="st27" points="429,295 208.2,422.5 208.2,416.1 429,288.6 				"/>
				<polygon class="st28" points="208.2,416.1 71.4,337.1 292.2,209.6 429,288.6 				"/>
				<polygon class="st29" points="258.2,229.2 227.1,247.2 227.1,405.2 258.2,387.2 				"/>
				<polygon class="st29" points="275.9,219 264.3,225.7 264.3,383.7 275.9,377 				"/>
			</g>
		</g>
		<g>
			<polygon class="st5" points="303.3,248.9 276.6,264.3 239.7,243 266.4,227.6 			"/>
			<polygon class="st4" points="294.4,248.2 276.1,258.8 271,255.9 289.4,245.3 			"/>
			<polygon class="st4" points="268.8,253.6 256.7,246.6 269,239.5 281.1,246.5 			"/>
		</g>
		<g>
			<polygon class="st5" points="281.6,272.6 254.9,288 218,266.7 244.7,251.2 			"/>
			<polygon class="st4" points="270.5,270.9 252.1,281.5 247,278.6 265.4,268 			"/>
			<polygon class="st4" points="244.7,277.1 226.6,266.7 245,256.1 263.1,266.5 			"/>
		</g>
		<g>
			<path class="st22" d="M113.6,331.9c-2.2-1.3-5.9-1.3-8.2,0c-2.2,1.3-2.2,3.4,0,4.7c2.3,1.3,5.9,1.3,8.2,0
				C115.9,335.3,115.9,333.2,113.6,331.9z"/>
			<g>
				<path class="st30" d="M104.1,334.2v-11.4h10.8v11.4c0,0.8-0.5,1.6-1.6,2.2c-2.1,1.2-5.5,1.2-7.6,0
					C104.7,335.8,104.1,335,104.1,334.2z"/>
				<path class="st31" d="M105.7,325c2.1,1.2,5.5,1.2,7.6,0c2.1-1.2,2.1-3.2,0-4.4c-2.1-1.2-5.5-1.2-7.6,0
					C103.6,321.8,103.6,323.7,105.7,325z"/>
				<path class="st30" d="M113.1,320.7c-2-1.1-5.1-1.1-7.1,0c-2,1.1-2,3,0,4.1c2,1.1,5.1,1.1,7.1,0C115,323.7,115,321.8,113.1,320.7
					z"/>
			</g>
			<g class="st32">
				<path class="st33" d="M104.6,332.9v-5.4h9.8v5.4c0,0.7-0.5,1.4-1.4,2c-1.9,1.1-5,1.1-6.9,0C105.1,334.3,104.6,333.6,104.6,332.9
					z"/>
				<path class="st34" d="M106.1,329.5c1.9,1.1,5,1.1,6.9,0c1.9-1.1,1.9-2.9,0-4c-1.9-1.1-5-1.1-6.9,0
					C104.2,326.6,104.2,328.4,106.1,329.5z"/>
			</g>
		</g>
		<g>
			<path class="st22" d="M218.7,275.8c-2.2-1.3-5.9-1.3-8.2,0c-2.2,1.3-2.2,3.4,0,4.7c2.3,1.3,5.9,1.3,8.2,0
				C221,279.2,221,277.1,218.7,275.8z"/>
			<g>
				<path class="st30" d="M209.3,278.1v-11.4h10.8v11.4c0,0.8-0.5,1.6-1.6,2.2c-2.1,1.2-5.5,1.2-7.6,0
					C209.8,279.6,209.3,278.9,209.3,278.1z"/>
				<path class="st31" d="M210.8,268.8c2.1,1.2,5.5,1.2,7.6,0c2.1-1.2,2.1-3.2,0-4.4c-2.1-1.2-5.5-1.2-7.6,0
					C208.7,265.6,208.7,267.6,210.8,268.8z"/>
				<path class="st30" d="M218.2,264.6c-2-1.1-5.1-1.1-7.1,0c-2,1.1-2,3,0,4.1c2,1.1,5.1,1.1,7.1,0
					C220.1,267.5,220.1,265.7,218.2,264.6z"/>
			</g>
			<g class="st32">
				<path class="st33" d="M209.8,276.8v-5.4h9.8v5.4c0,0.7-0.5,1.4-1.4,2c-1.9,1.1-5,1.1-6.9,0C210.2,278.2,209.8,277.5,209.8,276.8
					z"/>
				<path class="st34" d="M211.2,273.4c1.9,1.1,5,1.1,6.9,0c1.9-1.1,1.9-2.9,0-4c-1.9-1.1-5-1.1-6.9,0
					C209.3,270.5,209.3,272.3,211.2,273.4z"/>
			</g>
		</g>
		<g>
			<path class="st22" d="M204.3,394.3c-2.2-1.3-5.9-1.3-8.2,0c-2.2,1.3-2.2,3.4,0,4.7c2.3,1.3,5.9,1.3,8.2,0
				C206.5,397.7,206.5,395.6,204.3,394.3z"/>
			<g>
				<path class="st30" d="M194.8,396.6v-11.4h10.8v11.4c0,0.8-0.5,1.6-1.6,2.2c-2.1,1.2-5.5,1.2-7.6,0
					C195.3,398.2,194.8,397.4,194.8,396.6z"/>
				<path class="st31" d="M196.4,387.4c2.1,1.2,5.5,1.2,7.6,0c2.1-1.2,2.1-3.2,0-4.4c-2.1-1.2-5.5-1.2-7.6,0
					C194.3,384.2,194.3,386.1,196.4,387.4z"/>
				<path class="st30" d="M203.7,383.1c-2-1.1-5.1-1.1-7.1,0c-2,1.1-2,3,0,4.1c2,1.1,5.1,1.1,7.1,0
					C205.7,386.1,205.7,384.2,203.7,383.1z"/>
			</g>
			<g class="st32">
				<path class="st33" d="M195.3,395.3v-5.4h9.8v5.4c0,0.7-0.5,1.4-1.4,2c-1.9,1.1-5,1.1-6.9,0C195.8,396.7,195.3,396,195.3,395.3z"/>
				<path class="st34" d="M196.7,391.9c1.9,1.1,5,1.1,6.9,0c1.9-1.1,1.9-2.9,0-4c-1.9-1.1-5-1.1-6.9,0
					C194.8,389,194.8,390.8,196.7,391.9z"/>
			</g>
		</g>
		<g>
			<path class="st22" d="M315.3,324.5c-2.2-1.3-5.9-1.3-8.2,0c-2.2,1.3-2.2,3.4,0,4.7c2.3,1.3,5.9,1.3,8.2,0
				C317.5,327.9,317.5,325.8,315.3,324.5z"/>
			<g>
				<path class="st30" d="M305.8,326.8v-11.4h10.8v11.4c0,0.8-0.5,1.6-1.6,2.2c-2.1,1.2-5.5,1.2-7.6,0
					C306.3,328.4,305.8,327.6,305.8,326.8z"/>
				<path class="st31" d="M307.4,317.6c2.1,1.2,5.5,1.2,7.6,0c2.1-1.2,2.1-3.2,0-4.4c-2.1-1.2-5.5-1.2-7.6,0
					C305.3,314.4,305.3,316.4,307.4,317.6z"/>
				<path class="st30" d="M314.7,313.4c-2-1.1-5.1-1.1-7.1,0c-2,1.1-2,3,0,4.1c2,1.1,5.1,1.1,7.1,0
					C316.7,316.3,316.7,314.5,314.7,313.4z"/>
			</g>
			<g class="st32">
				<path class="st33" d="M306.3,325.5v-5.4h9.8v5.4c0,0.7-0.5,1.4-1.4,2c-1.9,1.1-5,1.1-6.9,0C306.8,327,306.3,326.3,306.3,325.5z"/>
				<path class="st34" d="M307.7,322.1c1.9,1.1,5,1.1,6.9,0c1.9-1.1,1.9-2.9,0-4c-1.9-1.1-5-1.1-6.9,0
					C305.8,319.3,305.8,321,307.7,322.1z"/>
			</g>
		</g>
		<g>
			<g>
				<polygon class="st5" points="377.1,313.9 350.4,329.3 313.5,308 340.2,292.6 				"/>
				<polygon class="st4" points="368.2,313.3 349.8,323.9 344.8,321 363.2,310.3 				"/>
				<polygon class="st4" points="358.1,307.4 339.7,318 334.7,315.1 353,304.5 				"/>
				<polygon class="st4" points="348,301.6 329.6,312.2 324.5,309.3 342.9,298.6 				"/>
			</g>
			<g>
				<polygon class="st5" points="383.5,296.9 356.8,312.4 319.9,291.1 346.6,275.6 				"/>
				<path class="st3" d="M350,287.6c-2.4,1.4-6.3,1.4-8.7,0c-2.4-1.4-2.4-3.6,0-5c2.4-1.4,6.3-1.4,8.7,0
					C352.4,284,352.4,286.3,350,287.6z"/>
				<polygon class="st4" points="362.2,289.4 343.9,300 338.8,297.1 357.2,286.5 				"/>
				<polygon class="st4" points="372.4,295.3 354,305.9 348.9,302.9 367.3,292.3 				"/>
				<polygon class="st4" points="332.6,295 325.9,291.1 332.7,287.1 339.5,291 				"/>
			</g>
		</g>
		<g>
			<path class="st35" d="M377.9,382.3l-6,0.3c0,0-0.6,6.1-0.2,7c3.4,2.4,4.7,2.6,7.2,4.5c2.6,2,4.6,4.4,6.7,4.9
				c2.1,0.5,4.4,0.2,4.8-1.1c0.6-1.8-1.1-6.4-1.1-6.4L377.9,382.3z"/>
			<path class="st35" d="M347.5,394.4c-2.9,4.2,0.7,6.4,0.7,6.4s12.3,5.9,18.1,7.9c4,1.4,8.4-0.9,8.3-2.2c-0.1-1.3,0-0.8,0-0.8
				S348.1,393.6,347.5,394.4z"/>
			<path class="st17" d="M377.9,381.5l-6,0.3c0,0-0.6,6.1-0.2,7c3.4,2.4,4.7,2.6,7.2,4.5c2.6,2,4.6,4.4,6.7,5
				c2.1,0.5,4.4,0.2,4.8-1.1c0.6-1.8-0.1-7.2-0.1-7.2L377.9,381.5z"/>
			<path class="st14" d="M378.8,366.4c0,0-0.6,10.1-1.8,15.9c-1.6,7.7,13.3,11.4,13.4,7.2c0.2-4.2,2-20.3,2-20.3L378.8,366.4z"/>
			<path class="st17" d="M359.5,391.6c0,0-5.9,0.1-8.2,0c-2.3-0.1-3.2,1.1-3.8,2c-2.9,4.2,0.7,6.4,0.7,6.4s12.3,5.9,18.1,8
				c4,1.4,8.4-0.9,8.3-2.2c-0.1-1.3-0.5-8.2-0.5-8.2L359.5,391.6z"/>
			<path class="st16" d="M355.3,356.9c1.6,19.6,3.2,20.1,3.6,35.3c0,1.3,0,5.8,6.2,6.6c7.1,1,9.4-0.8,9.4-2.7c0-1.9,0-10.5-1-30.1
				c-0.1-1.5-4.8-8-4.8-8l-7.6-1.7C361.1,356.3,356.2,355.3,355.3,356.9z"/>
			<path class="st14" d="M401.9,335.3c0,0-9.1-1.3-13.7-2c-8.9-1.4-10.1,4.8-10.2,7.8c-0.2,3,0.5,7.3,0.5,7.3l20.6,4.4L401.9,335.3z
				"/>
		</g>
		<g>
			<g>
				<polygon class="st0" points="410.3,387 413,385.5 417.2,320.9 412.1,318 409.5,319.5 410.6,323.5 410.3,383.6 				"/>
				<polygon class="st1" points="405.3,384.1 410.3,387 414.5,322.5 409.5,319.5 				"/>
			</g>
			<g>
				<polygon class="st1" points="469.2,380.4 471.9,378.8 471.6,375.6 467,374.6 413.1,344.9 411.8,347.2 				"/>
				<polygon class="st2" points="468.9,377.2 471.6,375.6 415.7,343.4 413.1,344.9 				"/>
			</g>
			<g>
				<polygon class="st0" points="486.7,431.1 489.4,429.6 467,349.8 462,346.9 459.3,348.4 460.4,352.4 482.7,424.7 				"/>
				<polygon class="st1" points="481.6,428.2 486.7,431.1 464.3,351.3 459.3,348.4 				"/>
			</g>
			<g>
				<polygon class="st2" points="465.9,349.9 470.7,347.2 411.1,312.8 406.3,315.5 410.3,319.9 				"/>
				<polygon class="st0" points="465.9,353.5 470.7,350.7 470.7,347.2 465.9,349.9 464,349.9 				"/>
				<polygon class="st1" points="406.3,319.1 465.9,353.5 465.9,349.9 406.3,315.5 				"/>
			</g>
		</g>
		<g>
			<polygon class="st3" points="411.6,418 465.3,387 465.3,372.9 437,384.7 411.6,403.9 			"/>
			<polygon class="st4" points="359.2,387.7 411.6,418 411.6,403.9 400.4,388.9 359.2,373.7 			"/>
			<polygon class="st13" points="411.6,403.9 465.3,372.9 412.9,342.7 359.2,373.7 			"/>
		</g>
		<g>
			<path class="st16" d="M398.8,348.7c0,0-15-2.8-34.1-4.4c-5.6-0.5-8.2,3.1-9,5.2c-0.8,2.1-0.3,7.4-0.3,7.4s5.4,8.4,15.8,7.6
				c1,1,29.8,17.2,38.7,19.1c8.9,1.9,20.9-5.2,20.9-5.2s10.7-6.9,10.3-9.2C440.9,368.2,398.8,348.7,398.8,348.7z"/>
		</g>
		<polygon class="st36" points="445.3,326.9 451.3,329.8 454.3,323 446,320.5 		"/>
		<path class="st37" d="M437.9,293.9c0,0,8.9-4.7,13.6,0c5.8,5.8,7,17.8,10.7,29.8c0.9,2.9-0.2,5.2-2.9,6.6c-4.2,2.2-8-0.6-8-0.6
			s-4.2-7.9-6.5-13.3C443.8,314.2,437.9,293.9,437.9,293.9z"/>
		<path class="st38" d="M413.8,280.2c0.3,2.4,1.2,4.2,2,4.1c0.9-0.1,1.3-2.1,1-4.5c-0.3-2.4-1.2-4.2-2.1-4.1
			C414,275.8,413.5,277.8,413.8,280.2z"/>
		<path class="st38" d="M436,279.5c-0.4,2.4,0,4.4,0.8,4.5c0.8,0.1,1.8-1.7,2.2-4c0.4-2.3,0-4.4-0.8-4.5
			C437.4,275.3,436.4,277.1,436,279.5z"/>
		<polygon class="st38" points="434.5,288 435.2,295.2 423.3,300.5 418.3,298.4 418.3,288.5 		"/>
		<path class="st39" d="M426.3,259.1c10.6,0,11.8,8.4,11.9,10.2c0.4,13.6-2.7,17.8-2.7,17.8s-1.9,3.4-9.1,3.4
			c-6.8,0-8.6-2.6-8.6-2.6s-3-6-3-18.1C414.7,268.6,415.7,259.1,426.3,259.1z"/>
		<path class="st40" d="M415.4,303.3l-9.3,8.5l-0.4,22.3l-3.1,18.2c0,0-7,3.1-7.1,11.1c-0.1,8,9,15.4,13.1,17.3
			c13.2,3.5,19.9-2.4,24.2-5c6.2-3.8,11.1-6.9,12.1-14.9c0.4-2.7,0.2-12.5,0.1-21.1c-0.1-8.6,5.4-19.9,6.4-26.8
			c1.1-8.2-0.4-13.2-3.6-15.7c-4.4-3.4-9.6-3.1-9.6-3.1l-6.5,4.1L415.4,303.3z"/>
		<path class="st37" d="M400.2,364.5c6.1,0.8,8.2-5.6,8.2-5.6l10.9-34.2c0,0,3.2-11.1-4.2-13.9c-12.6-4.6-14.5,12.4-14.5,12.4
			l-4.7,25.7L400.2,364.5z"/>
		<path class="st5" d="M415.9,297.5c0,0,10.2-0.1,15.7-3c2.8-1.5,3.4-3.7,3.4-3.7l2.9,3.1c0,0-0.8,3.3-5.2,5.7
			c-7.8,4.3-17.6,3.7-17.6,3.7L415.9,297.5z"/>
		<g>
			<polygon class="st4" points="410.5,343.3 399.4,396.9 405.3,402.6 411.6,403.9 419.9,345.6 			"/>
			<polygon class="st13" points="464.1,312.3 410.5,343.3 414.5,345.6 445.7,345.5 468.1,314.6 			"/>
			<polygon class="st3" points="414.5,345.6 411.6,403.9 432.9,398.2 465.3,372.9 468.1,314.6 			"/>
		</g>
		<g>
			<g>
				<polygon class="st0" points="351.6,420.7 354.3,419.1 358.5,354.6 353.4,351.6 350.8,353.2 351.9,357.2 351.6,417.3 				"/>
				<polygon class="st1" points="346.5,417.8 351.6,420.7 355.8,356.1 350.8,353.2 				"/>
			</g>
			<g>
				<polygon class="st1" points="410.5,414 413.2,412.5 412.9,409.3 408.3,408.2 354.4,378.6 353.1,380.9 				"/>
				<polygon class="st2" points="410.2,410.8 412.9,409.3 357,377 354.4,378.6 				"/>
			</g>
			<g>
				<polygon class="st0" points="428,464.8 430.7,463.2 408.3,383.4 403.3,380.5 400.6,382.1 401.7,386 424,458.4 				"/>
				<polygon class="st1" points="422.9,461.8 428,464.8 405.6,385 400.6,382.1 				"/>
			</g>
			<g>
				<polygon class="st2" points="407.2,383.6 412,380.8 352.4,346.4 347.6,349.2 351.6,353.6 				"/>
				<polygon class="st0" points="407.2,387.1 412,384.3 412,380.8 407.2,383.6 405.3,383.6 				"/>
				<polygon class="st1" points="347.6,352.7 407.2,387.1 407.2,383.6 347.6,349.2 				"/>
			</g>
		</g>
		<path class="st38" d="M373.9,347.6c0,0-5.7-3.5-7.8-4.3c-2.1-0.8-4.8,0.6-5.5,1.2c-1.1,0.9-1.5,2.3-1.5,2.9
			c-0.5,4.1,0.6,8.7,2,8.9c1.5,0.3,1.8-0.7,1.8-0.7s4.2,1.2,6,1.3c1.8,0.1,2.9-0.5,2.9-0.5l2.9-3.7L373.9,347.6z"/>
		<path class="st5" d="M377.8,348.5c0,0-1-0.4-3.2-1c-2.7-0.7-4.8,8.7-2.1,9.4c3.4,0.8,4.1,1.1,4.1,1.1L377.8,348.5z"/>
		<path class="st37" d="M395.9,349c0,0-14.9-1.1-18.6-1.5c-3.7-0.4-6,10.3-0.2,11.7c5.7,1.5,15.8,4.3,23.1,5.2l2.2-10.6L395.9,349z"/>
		<g>
			<polygon class="st33" points="203.8,374.6 203.8,345 245.8,320.8 245.8,351.2 			"/>
			<g>
				<polygon class="st22" points="246.7,355.2 276,372 232.1,397.4 202.9,380.5 				"/>
				<polygon class="st3" points="275.3,372.1 232.1,397 232.1,394.6 264.6,372.6 275.3,369.6 				"/>
				<polygon class="st4" points="203.4,380.4 232.1,397 232.1,394.6 226.7,388.5 203.4,377.9 				"/>
				<polygon class="st25" points="203.4,377.9 246.5,353 264.8,363.6 221.6,388.5 				"/>
				<polygon class="st41" points="232.1,394.6 275.3,369.6 264.8,363.6 221.6,388.5 				"/>
				<polygon class="st25" points="244.7,385.2 259.1,376.9 251.4,372.5 237.1,380.8 				"/>
				<g>
					<polygon class="st0" points="234.6,378.7 236.8,377.4 234.6,376.2 232.4,377.4 					"/>
					<polygon class="st0" points="232.2,380.1 234.4,378.9 232.2,377.6 230,378.9 					"/>
					<polygon class="st0" points="237.1,377.3 249.1,370.4 246.9,369.1 234.9,376 					"/>
					<polygon class="st0" points="229.8,381.5 232,380.3 229.8,379 227.6,380.3 					"/>
					<polygon class="st0" points="223.1,385.4 229.6,381.6 227.4,380.4 220.9,384.1 					"/>
					<polygon class="st0" points="254.2,367.4 256.3,366.2 254.2,364.9 252,366.2 					"/>
					<polygon class="st0" points="251.7,368.8 253.9,367.6 251.7,366.3 249.5,367.6 					"/>
					<polygon class="st0" points="256.6,366 259.4,364.4 257.2,363.2 254.4,364.8 					"/>
					<polygon class="st0" points="249.3,370.2 251.5,369 249.3,367.7 247.1,369 					"/>
					<polygon class="st0" points="232.1,377.3 234.3,376 232.1,374.7 229.9,376 					"/>
					<polygon class="st0" points="229.7,378.7 231.9,377.4 229.7,376.1 227.5,377.4 					"/>
					<polygon class="st0" points="227.2,380 229.4,378.8 227.2,377.5 225.1,378.8 					"/>
					<polygon class="st0" points="220.5,383.9 227,380.2 224.9,378.9 218.3,382.7 					"/>
					<polygon class="st0" points="239.4,373 241.6,371.8 239.4,370.5 237.2,371.8 					"/>
					<polygon class="st0" points="237,374.5 239.1,373.2 237,371.9 234.8,373.2 					"/>
					<polygon class="st0" points="234.5,375.9 236.7,374.6 234.5,373.3 232.3,374.6 					"/>
					<polygon class="st0" points="249.2,367.4 251.4,366.1 249.2,364.9 247,366.1 					"/>
					<polygon class="st0" points="246.8,368.8 249,367.5 246.8,366.3 244.6,367.5 					"/>
					<polygon class="st0" points="244.3,370.2 246.5,368.9 244.3,367.7 242.2,368.9 					"/>
					<polygon class="st0" points="241.9,371.6 244.1,370.3 241.9,369.1 239.7,370.3 					"/>
					<polygon class="st0" points="230.9,375.1 233.1,373.9 230.9,372.6 228.7,373.9 					"/>
					<polygon class="st0" points="228.5,376.6 230.7,375.3 228.5,374 226.3,375.3 					"/>
					<polygon class="st0" points="226.1,377.9 228.2,376.7 226.1,375.4 223.9,376.7 					"/>
					<polygon class="st0" points="223.6,379.4 225.8,378.1 223.6,376.8 221.4,378.1 					"/>
					<polygon class="st0" points="218.1,382.5 223.3,379.5 221.2,378.3 215.9,381.3 					"/>
					<polygon class="st0" points="238.2,370.9 240.4,369.7 238.2,368.4 236,369.7 					"/>
					<polygon class="st0" points="235.8,372.3 238,371.1 235.8,369.8 233.6,371.1 					"/>
					<polygon class="st0" points="233.3,373.7 235.5,372.5 233.3,371.2 231.2,372.5 					"/>
					<polygon class="st0" points="248,365.3 250.2,364 248,362.7 245.8,364 					"/>
					<polygon class="st0" points="245.6,366.7 247.8,365.4 245.6,364.1 243.4,365.4 					"/>
					<polygon class="st0" points="243.2,368.1 245.4,366.8 243.2,365.5 241,366.8 					"/>
					<polygon class="st0" points="240.7,369.5 242.9,368.2 240.7,367 238.6,368.2 					"/>
					<polygon class="st0" points="229.1,373.4 231.3,372.1 229.1,370.8 226.9,372.1 					"/>
					<polygon class="st0" points="226.7,374.8 228.9,373.5 226.7,372.3 224.5,373.5 					"/>
					<polygon class="st0" points="224.3,376.2 226.4,374.9 224.3,373.7 222.1,374.9 					"/>
					<polygon class="st0" points="221.8,377.6 224,376.3 221.8,375.1 219.6,376.3 					"/>
					<polygon class="st0" points="219.4,379 221.5,377.7 219.4,376.5 217.2,377.7 					"/>
					<polygon class="st0" points="215.7,381.1 219.1,379.2 216.9,377.9 213.5,379.9 					"/>
					<polygon class="st0" points="236.4,369.2 238.6,367.9 236.4,366.6 234.2,367.9 					"/>
					<polygon class="st0" points="234,370.6 236.1,369.3 234,368.1 231.8,369.3 					"/>
					<polygon class="st0" points="231.5,372 233.7,370.7 231.5,369.5 229.3,370.7 					"/>
					<polygon class="st0" points="246.2,363.5 248.4,362.2 246.2,361 244,362.2 					"/>
					<polygon class="st0" points="248.6,362.1 252,360.1 249.8,358.9 246.4,360.8 					"/>
					<polygon class="st0" points="250.5,363.9 254.5,361.6 252.3,360.3 248.3,362.6 					"/>
					<polygon class="st0" points="251.6,366 256.9,362.9 254.7,361.7 249.4,364.7 					"/>
					<polygon class="st0" points="243.8,364.9 246,363.6 243.8,362.4 241.6,363.6 					"/>
					<polygon class="st0" points="241.4,366.3 243.5,365 241.4,363.8 239.2,365 					"/>
					<polygon class="st0" points="238.9,367.7 241.1,366.4 238.9,365.2 236.7,366.4 					"/>
					<polygon class="st0" points="227.9,371.3 230,370 227.9,368.7 225.7,370 					"/>
					<polygon class="st0" points="225.4,372.7 227.6,371.4 225.4,370.1 223.2,371.4 					"/>
					<polygon class="st0" points="223,374.1 225.2,372.8 223,371.5 220.8,372.8 					"/>
					<polygon class="st0" points="220.6,375.5 222.7,374.2 220.6,373 218.4,374.2 					"/>
					<polygon class="st0" points="218.1,376.9 220.3,375.6 218.1,374.4 215.9,375.6 					"/>
					<polygon class="st0" points="213.2,379.7 217.9,377 215.7,375.8 211,378.5 					"/>
					<rect x="211" y="378" class="st0" width="0.7" height="0.4"/>
					<rect x="209.3" y="377" class="st0" width="0.7" height="0.4"/>
					<rect x="211.8" y="375.6" class="st0" width="0.7" height="0.4"/>
					<rect x="213.5" y="379.4" class="st0" width="0.7" height="0.4"/>
					<rect x="215.9" y="380.8" class="st0" width="0.7" height="0.4"/>
					<rect x="218.3" y="382.2" class="st0" width="0.7" height="0.4"/>
					<rect x="220.9" y="383.7" class="st0" width="0.7" height="0.4"/>
					<rect x="228.8" y="381.2" class="st0" width="0.7" height="0.4"/>
					<g>
						<rect x="231.2" y="379.8" class="st0" width="0.7" height="0.4"/>
						<rect x="227.6" y="379.8" class="st0" width="0.7" height="0.4"/>
					</g>
					<g>
						<rect x="228.7" y="378.3" class="st0" width="0.7" height="0.4"/>
						<rect x="225.1" y="378.3" class="st0" width="0.7" height="0.4"/>
					</g>
					<g>
						<rect x="225.1" y="377.7" class="st0" width="0.7" height="0.4"/>
						<rect x="221.4" y="377.7" class="st0" width="0.7" height="0.4"/>
					</g>
					<g>
						<rect x="220.8" y="377.3" class="st0" width="0.7" height="0.4"/>
						<rect x="217.2" y="377.3" class="st0" width="0.7" height="0.4"/>
					</g>
					<g>
						<rect x="219.6" y="375.2" class="st0" width="0.7" height="0.4"/>
						<rect x="215.9" y="375.2" class="st0" width="0.7" height="0.4"/>
					</g>
					<g>
						<rect x="223.3" y="375.9" class="st0" width="0.7" height="0.4"/>
						<rect x="219.6" y="375.9" class="st0" width="0.7" height="0.4"/>
					</g>
					<g>
						<rect x="227.5" y="376.2" class="st0" width="0.7" height="0.5"/>
						<rect x="223.9" y="376.2" class="st0" width="0.7" height="0.5"/>
					</g>
					<g>
						<rect x="231.1" y="376.9" class="st0" width="0.7" height="0.4"/>
						<rect x="227.5" y="376.9" class="st0" width="0.7" height="0.4"/>
					</g>
					<g>
						<rect x="233.7" y="378.4" class="st0" width="0.7" height="0.4"/>
						<rect x="230" y="378.4" class="st0" width="0.7" height="0.4"/>
					</g>
					<g>
						<rect x="236.1" y="377" class="st0" width="0.7" height="0.4"/>
						<rect x="232.4" y="377" class="st0" width="0.7" height="0.4"/>
					</g>
					<g>
						<rect x="233.6" y="375.5" class="st0" width="0.7" height="0.4"/>
						<rect x="229.9" y="375.5" class="st0" width="0.7" height="0.4"/>
					</g>
					<g>
						<rect x="232.4" y="373.4" class="st0" width="0.7" height="0.4"/>
						<rect x="228.7" y="373.4" class="st0" width="0.7" height="0.4"/>
					</g>
					<g>
						<rect x="230.5" y="371.7" class="st0" width="0.7" height="0.4"/>
						<rect x="226.9" y="371.7" class="st0" width="0.7" height="0.4"/>
					</g>
					<g>
						<rect x="224.4" y="372.4" class="st0" width="0.7" height="0.4"/>
						<rect x="220.8" y="372.4" class="st0" width="0.7" height="0.4"/>
					</g>
					<g>
						<rect x="226.9" y="371" class="st0" width="0.7" height="0.4"/>
						<rect x="223.2" y="371" class="st0" width="0.7" height="0.4"/>
					</g>
					<g>
						<rect x="234.8" y="372" class="st0" width="0.7" height="0.4"/>
						<rect x="231.2" y="372" class="st0" width="0.7" height="0.4"/>
					</g>
					<g>
						<rect x="238.4" y="372.7" class="st0" width="0.7" height="0.4"/>
						<rect x="234.8" y="372.7" class="st0" width="0.7" height="0.4"/>
					</g>
					<g>
						<rect x="240.9" y="371.3" class="st0" width="0.7" height="0.4"/>
						<rect x="237.2" y="371.3" class="st0" width="0.7" height="0.4"/>
					</g>
					<g>
						<rect x="243.4" y="369.9" class="st0" width="0.7" height="0.4"/>
						<rect x="239.7" y="369.9" class="st0" width="0.7" height="0.4"/>
					</g>
					<g>
						<rect x="245.8" y="368.5" class="st0" width="0.7" height="0.5"/>
						<rect x="242.2" y="368.5" class="st0" width="0.7" height="0.5"/>
					</g>
					<g>
						<rect x="248.2" y="367.1" class="st0" width="0.7" height="0.4"/>
						<rect x="244.6" y="367.1" class="st0" width="0.7" height="0.4"/>
					</g>
					<g>
						<rect x="250.7" y="365.7" class="st0" width="0.7" height="0.4"/>
						<rect x="247" y="365.7" class="st0" width="0.7" height="0.4"/>
					</g>
					<g>
						<rect x="249.5" y="363.6" class="st0" width="0.7" height="0.4"/>
						<rect x="245.8" y="363.6" class="st0" width="0.7" height="0.4"/>
					</g>
					<g>
						<rect x="247" y="365" class="st0" width="0.7" height="0.4"/>
						<rect x="243.4" y="365" class="st0" width="0.7" height="0.4"/>
					</g>
					<g>
						<rect x="244.6" y="366.4" class="st0" width="0.7" height="0.4"/>
						<rect x="241" y="366.4" class="st0" width="0.7" height="0.4"/>
					</g>
					<g>
						<rect x="242.2" y="367.8" class="st0" width="0.7" height="0.4"/>
						<rect x="238.6" y="367.8" class="st0" width="0.7" height="0.4"/>
					</g>
					<g>
						<rect x="237.9" y="367.5" class="st0" width="0.7" height="0.4"/>
						<rect x="234.2" y="367.5" class="st0" width="0.7" height="0.4"/>
					</g>
					<g>
						<rect x="240.4" y="366" class="st0" width="0.7" height="0.4"/>
						<rect x="236.7" y="366" class="st0" width="0.7" height="0.4"/>
					</g>
					<g>
						<rect x="242.8" y="364.6" class="st0" width="0.7" height="0.4"/>
						<rect x="239.2" y="364.6" class="st0" width="0.7" height="0.4"/>
					</g>
					<g>
						<rect x="235.4" y="368.9" class="st0" width="0.7" height="0.4"/>
						<rect x="231.8" y="368.9" class="st0" width="0.7" height="0.4"/>
					</g>
					<g>
						<rect x="239.7" y="369.2" class="st0" width="0.7" height="0.4"/>
						<rect x="236" y="369.2" class="st0" width="0.7" height="0.4"/>
					</g>
					<g>
						<rect x="233" y="370.3" class="st0" width="0.7" height="0.4"/>
						<rect x="229.3" y="370.3" class="st0" width="0.7" height="0.4"/>
					</g>
					<g>
						<rect x="229.3" y="369.6" class="st0" width="0.7" height="0.4"/>
						<rect x="225.7" y="369.6" class="st0" width="0.7" height="0.4"/>
					</g>
					<g>
						<rect x="231.7" y="368.2" class="st0" width="0.7" height="0.4"/>
						<rect x="228.1" y="368.2" class="st0" width="0.7" height="0.4"/>
					</g>
					<g>
						<rect x="234.2" y="366.8" class="st0" width="0.7" height="0.4"/>
						<rect x="230.5" y="366.8" class="st0" width="0.7" height="0.4"/>
					</g>
					<g>
						<rect x="236.6" y="365.3" class="st0" width="0.7" height="0.4"/>
						<rect x="233" y="365.3" class="st0" width="0.7" height="0.4"/>
					</g>
					<g>
						<rect x="239.1" y="363.9" class="st0" width="0.7" height="0.5"/>
						<rect x="235.5" y="363.9" class="st0" width="0.7" height="0.5"/>
					</g>
					<g>
						<rect x="241.6" y="362.5" class="st0" width="0.7" height="0.4"/>
						<rect x="237.9" y="362.5" class="st0" width="0.7" height="0.4"/>
					</g>
					<g>
						<rect x="244" y="361.1" class="st0" width="0.7" height="0.4"/>
						<rect x="240.3" y="361.1" class="st0" width="0.7" height="0.4"/>
					</g>
					<g>
						<rect x="246.4" y="359.7" class="st0" width="0.7" height="0.4"/>
						<rect x="242.8" y="359.7" class="st0" width="0.7" height="0.4"/>
					</g>
					<g>
						<rect x="248.8" y="358.3" class="st0" width="0.7" height="0.4"/>
						<rect x="245.2" y="358.3" class="st0" width="0.7" height="0.4"/>
					</g>
					<g>
						<rect x="247.7" y="361.8" class="st0" width="0.7" height="0.4"/>
						<rect x="244" y="361.8" class="st0" width="0.7" height="0.4"/>
					</g>
					<g>
						<rect x="245.2" y="363.2" class="st0" width="0.7" height="0.4"/>
						<rect x="241.6" y="363.2" class="st0" width="0.7" height="0.4"/>
					</g>
					<g>
						<rect x="237.2" y="370.6" class="st0" width="0.7" height="0.5"/>
						<rect x="233.6" y="370.6" class="st0" width="0.7" height="0.5"/>
					</g>
					<g>
						<rect x="228.1" y="373.1" class="st0" width="0.7" height="0.4"/>
						<rect x="224.5" y="373.1" class="st0" width="0.7" height="0.4"/>
					</g>
					<g>
						<rect x="236" y="374.1" class="st0" width="0.7" height="0.4"/>
						<rect x="232.3" y="374.1" class="st0" width="0.7" height="0.4"/>
					</g>
					<g>
						<rect x="250.8" y="368.5" class="st0" width="0.7" height="0.4"/>
						<rect x="247.1" y="368.5" class="st0" width="0.7" height="0.4"/>
					</g>
					<g>
						<rect x="253.2" y="367.1" class="st0" width="0.7" height="0.4"/>
						<rect x="249.5" y="367.1" class="st0" width="0.7" height="0.4"/>
					</g>
					<g>
						<rect x="255.6" y="365.7" class="st0" width="0.7" height="0.4"/>
						<rect x="252" y="365.7" class="st0" width="0.7" height="0.4"/>
					</g>
					<g>
						<rect x="258.7" y="364" class="st0" width="0.7" height="0.4"/>
						<rect x="256.1" y="362.5" class="st0" width="0.7" height="0.4"/>
						<rect x="249.4" y="364.3" class="st0" width="0.7" height="0.4"/>
						<rect x="248.3" y="362.2" class="st0" width="0.7" height="0.4"/>
						<rect x="253.7" y="361.1" class="st0" width="0.7" height="0.4"/>
						<rect x="251.3" y="359.7" class="st0" width="0.7" height="0.4"/>
						<rect x="246.4" y="360.4" class="st0" width="0.7" height="0.4"/>
						<rect x="248.4" y="369.9" class="st0" width="0.7" height="0.4"/>
						<rect x="234.9" y="375.6" class="st0" width="0.7" height="0.4"/>
						<rect x="254.4" y="364.3" class="st0" width="0.7" height="0.4"/>
					</g>
					<g>
						<rect x="229.9" y="374.8" class="st0" width="0.7" height="0.5"/>
						<rect x="226.3" y="374.8" class="st0" width="0.7" height="0.5"/>
					</g>
					<g>
						<rect x="225.7" y="374.5" class="st0" width="0.7" height="0.4"/>
						<rect x="222.1" y="374.5" class="st0" width="0.7" height="0.4"/>
					</g>
					<g>
						<rect x="222" y="373.8" class="st0" width="0.7" height="0.4"/>
						<rect x="218.4" y="373.8" class="st0" width="0.7" height="0.4"/>
					</g>
					<rect x="226.3" y="379.7" class="st0" width="0.7" height="0.4"/>
					<rect x="222.6" y="379.1" class="st0" width="0.7" height="0.4"/>
					<rect x="218.3" y="378.7" class="st0" width="0.7" height="0.4"/>
					<rect x="217.1" y="376.6" class="st0" width="0.7" height="0.4"/>
					<rect x="212.2" y="376.6" class="st0" width="0.7" height="0.4"/>
					<rect x="214.6" y="375.2" class="st0" width="0.7" height="0.4"/>
					<rect x="214.2" y="374.2" class="st0" width="0.7" height="0.4"/>
					<rect x="217.1" y="373.8" class="st0" width="0.7" height="0.4"/>
					<rect x="216.7" y="372.8" class="st0" width="0.7" height="0.4"/>
					<rect x="219.5" y="372.4" class="st0" width="0.7" height="0.4"/>
					<rect x="219.1" y="371.4" class="st0" width="0.7" height="0.4"/>
					<rect x="222" y="370.9" class="st0" width="0.7" height="0.4"/>
					<rect x="221.5" y="370" class="st0" width="0.7" height="0.4"/>
					<rect x="224.4" y="369.5" class="st0" width="0.7" height="0.4"/>
					<rect x="224" y="368.6" class="st0" width="0.7" height="0.4"/>
					<rect x="226.8" y="368.1" class="st0" width="0.7" height="0.4"/>
					<rect x="226.4" y="367.2" class="st0" width="0.7" height="0.4"/>
					<rect x="229.3" y="366.7" class="st0" width="0.7" height="0.4"/>
					<rect x="228.8" y="365.8" class="st0" width="0.7" height="0.4"/>
					<rect x="231.7" y="365.3" class="st0" width="0.7" height="0.4"/>
					<rect x="231.3" y="364.4" class="st0" width="0.7" height="0.4"/>
					<rect x="234.2" y="363.9" class="st0" width="0.7" height="0.5"/>
					<rect x="233.8" y="362.9" class="st0" width="0.7" height="0.4"/>
					<rect x="236.7" y="362.5" class="st0" width="0.7" height="0.4"/>
					<rect x="236.2" y="361.5" class="st0" width="0.7" height="0.4"/>
					<rect x="239.1" y="361.1" class="st0" width="0.7" height="0.4"/>
					<rect x="238.6" y="360.1" class="st0" width="0.7" height="0.4"/>
					<rect x="241.5" y="359.7" class="st0" width="0.7" height="0.4"/>
					<rect x="241.1" y="358.7" class="st0" width="0.7" height="0.4"/>
					<rect x="243.9" y="358.3" class="st0" width="0.7" height="0.4"/>
					<rect x="243.5" y="357.3" class="st0" width="0.7" height="0.4"/>
					<rect x="246.4" y="356.9" class="st0" width="0.7" height="0.4"/>
					<polygon class="st0" points="235.2,367.1 237.4,365.8 235.2,364.5 233,365.8 					"/>
					<polygon class="st0" points="232.7,368.5 234.9,367.2 232.7,366 230.5,367.2 					"/>
					<polygon class="st0" points="230.3,369.9 232.5,368.6 230.3,367.3 228.1,368.6 					"/>
					<polygon class="st0" points="245,361.4 247.1,360.1 245,358.9 242.8,360.1 					"/>
					<polygon class="st0" points="242.5,362.8 244.7,361.5 242.5,360.3 240.3,361.5 					"/>
					<polygon class="st0" points="247.4,360 249.6,358.7 247.4,357.5 245.2,358.7 					"/>
					<polygon class="st0" points="240.1,364.2 242.3,362.9 240.1,361.7 237.9,362.9 					"/>
					<polygon class="st0" points="237.7,365.6 239.9,364.3 237.7,363.1 235.5,364.3 					"/>
					<polygon class="st0" points="225.4,369.9 227.6,368.6 226.2,367.8 224,369 					"/>
					<polygon class="st0" points="223,371.3 225.2,370 223.7,369.2 221.5,370.4 					"/>
					<polygon class="st0" points="220.5,372.6 222.7,371.4 221.3,370.6 219.1,371.8 					"/>
					<polygon class="st0" points="218.1,374.1 220.3,372.8 218.9,372 216.7,373.2 					"/>
					<polygon class="st0" points="215.6,375.5 217.8,374.2 216.4,373.4 214.2,374.6 					"/>
					<polygon class="st0" points="213.2,376.9 215.4,375.6 214,374.8 211.8,376.1 					"/>
					<polygon class="st0" points="210.8,378.3 212.9,377 211.5,376.2 209.3,377.5 					"/>
					<polygon class="st0" points="232.7,365.6 234.9,364.4 233.5,363.5 231.3,364.8 					"/>
					<polygon class="st0" points="230.2,367 232.4,365.8 231,365 228.8,366.2 					"/>
					<polygon class="st0" points="227.8,368.4 230,367.2 228.6,366.4 226.4,367.6 					"/>
					<polygon class="st0" points="242.5,360 244.7,358.7 243.2,357.9 241.1,359.1 					"/>
					<polygon class="st0" points="240.1,361.4 242.3,360.1 240.8,359.3 238.6,360.6 					"/>
					<polygon class="st0" points="244.9,358.6 247.1,357.3 245.7,356.5 243.5,357.7 					"/>
					<polygon class="st0" points="237.6,362.8 239.8,361.5 238.4,360.7 236.2,362 					"/>
					<polygon class="st0" points="235.2,364.2 237.4,362.9 236,362.1 233.8,363.4 					"/>
					<polygon class="st42" points="234.6,378.3 236.8,377 234.6,375.8 232.4,377 					"/>
					<polygon class="st42" points="232.2,379.7 234.4,378.4 232.2,377.2 230,378.4 					"/>
					<polygon class="st42" points="237.1,376.9 249.1,369.9 246.9,368.7 234.9,375.6 					"/>
					<polygon class="st42" points="229.8,381.1 232,379.8 229.8,378.5 227.6,379.8 					"/>
					<polygon class="st42" points="223.1,385 229.6,381.2 227.4,379.9 220.9,383.7 					"/>
					<polygon class="st42" points="254.2,367 256.3,365.7 254.2,364.5 252,365.7 					"/>
					<polygon class="st42" points="251.7,368.4 253.9,367.1 251.7,365.9 249.5,367.1 					"/>
					<polygon class="st42" points="256.6,365.6 259.4,364 257.2,362.7 254.4,364.3 					"/>
					<polygon class="st42" points="249.3,369.8 251.5,368.5 249.3,367.3 247.1,368.5 					"/>
					<polygon class="st42" points="232.1,376.8 234.3,375.5 232.1,374.3 229.9,375.5 					"/>
					<polygon class="st42" points="229.7,378.2 231.9,376.9 229.7,375.7 227.5,376.9 					"/>
					<polygon class="st42" points="227.2,379.6 229.4,378.3 227.2,377.1 225.1,378.3 					"/>
					<polygon class="st42" points="220.5,383.5 227,379.7 224.9,378.5 218.3,382.2 					"/>
					<polygon class="st42" points="239.4,372.6 241.6,371.3 239.4,370.1 237.2,371.3 					"/>
					<polygon class="st42" points="237,374 239.1,372.7 237,371.5 234.8,372.7 					"/>
					<polygon class="st42" points="234.5,375.4 236.7,374.1 234.5,372.9 232.3,374.1 					"/>
					<polygon class="st42" points="249.2,366.9 251.4,365.7 249.2,364.4 247,365.7 					"/>
					<polygon class="st42" points="246.8,368.3 249,367.1 246.8,365.8 244.6,367.1 					"/>
					<polygon class="st42" points="244.3,369.7 246.5,368.5 244.3,367.2 242.2,368.5 					"/>
					<polygon class="st42" points="241.9,371.1 244.1,369.9 241.9,368.6 239.7,369.9 					"/>
					<polygon class="st42" points="230.9,374.7 233.1,373.4 230.9,372.2 228.7,373.4 					"/>
					<polygon class="st42" points="228.5,376.1 230.7,374.8 228.5,373.6 226.3,374.8 					"/>
					<polygon class="st42" points="226.1,377.5 228.2,376.2 226.1,375 223.9,376.2 					"/>
					<polygon class="st42" points="223.6,378.9 225.8,377.7 223.6,376.4 221.4,377.7 					"/>
					<polygon class="st42" points="218.1,382.1 223.3,379.1 221.2,377.8 215.9,380.8 					"/>
					<polygon class="st42" points="238.2,370.5 240.4,369.2 238.2,368 236,369.2 					"/>
					<polygon class="st42" points="235.8,371.9 238,370.6 235.8,369.4 233.6,370.6 					"/>
					<polygon class="st42" points="233.3,373.3 235.5,372 233.3,370.8 231.2,372 					"/>
					<polygon class="st42" points="248,364.8 250.2,363.6 248,362.3 245.8,363.6 					"/>
					<polygon class="st42" points="245.6,366.2 247.8,365 245.6,363.7 243.4,365 					"/>
					<polygon class="st42" points="243.2,367.6 245.4,366.4 243.2,365.1 241,366.4 					"/>
					<polygon class="st42" points="240.7,369 242.9,367.8 240.7,366.5 238.6,367.8 					"/>
					<polygon class="st42" points="229.1,372.9 231.3,371.7 229.1,370.4 226.9,371.7 					"/>
					<polygon class="st42" points="226.7,374.3 228.9,373.1 226.7,371.8 224.5,373.1 					"/>
					<polygon class="st42" points="224.3,375.7 226.4,374.5 224.3,373.2 222.1,374.5 					"/>
					<polygon class="st42" points="221.8,377.2 224,375.9 221.8,374.6 219.6,375.9 					"/>
					<polygon class="st42" points="219.4,378.6 221.5,377.3 219.4,376 217.2,377.3 					"/>
					<polygon class="st42" points="215.7,380.7 219.1,378.7 216.9,377.5 213.5,379.4 					"/>
					<polygon class="st42" points="236.4,368.7 238.6,367.5 236.4,366.2 234.2,367.5 					"/>
					<polygon class="st42" points="234,370.1 236.1,368.9 234,367.6 231.8,368.9 					"/>
					<polygon class="st42" points="231.5,371.5 233.7,370.3 231.5,369 229.3,370.3 					"/>
					<polygon class="st42" points="246.2,363.1 248.4,361.8 246.2,360.5 244,361.8 					"/>
					<polygon class="st42" points="248.6,361.7 252,359.7 249.8,358.4 246.4,360.4 					"/>
					<polygon class="st42" points="250.5,363.4 254.5,361.1 252.3,359.9 248.3,362.2 					"/>
					<polygon class="st42" points="251.6,365.5 256.9,362.5 254.7,361.2 249.4,364.3 					"/>
					<polygon class="st42" points="243.8,364.5 246,363.2 243.8,361.9 241.6,363.2 					"/>
					<polygon class="st42" points="241.4,365.9 243.5,364.6 241.4,363.3 239.2,364.6 					"/>
					<polygon class="st42" points="238.9,367.3 241.1,366 238.9,364.7 236.7,366 					"/>
					<polygon class="st42" points="227.9,370.8 230,369.6 227.9,368.3 225.7,369.6 					"/>
					<polygon class="st42" points="225.4,372.2 227.6,371 225.4,369.7 223.2,371 					"/>
					<polygon class="st42" points="223,373.6 225.2,372.4 223,371.1 220.8,372.4 					"/>
					<polygon class="st42" points="220.6,375 222.7,373.8 220.6,372.5 218.4,373.8 					"/>
					<polygon class="st42" points="218.1,376.5 220.3,375.2 218.1,373.9 215.9,375.2 					"/>
					<polygon class="st42" points="213.2,379.3 217.9,376.6 215.7,375.4 211,378 					"/>
					<polygon class="st42" points="235.2,366.6 237.4,365.3 235.2,364.1 233,365.3 					"/>
					<polygon class="st42" points="232.7,368 234.9,366.8 232.7,365.5 230.5,366.8 					"/>
					<polygon class="st42" points="230.3,369.4 232.5,368.2 230.3,366.9 228.1,368.2 					"/>
					<polygon class="st42" points="245,361 247.1,359.7 245,358.4 242.8,359.7 					"/>
					<polygon class="st42" points="242.5,362.4 244.7,361.1 242.5,359.8 240.3,361.1 					"/>
					<polygon class="st42" points="247.4,359.6 249.6,358.3 247.4,357 245.2,358.3 					"/>
					<polygon class="st42" points="240.1,363.8 242.3,362.5 240.1,361.2 237.9,362.5 					"/>
					<polygon class="st42" points="237.7,365.2 239.9,363.9 237.7,362.6 235.5,363.9 					"/>
					<polygon class="st42" points="225.4,369.4 227.6,368.1 226.2,367.3 224,368.6 					"/>
					<polygon class="st42" points="223,370.8 225.2,369.5 223.7,368.7 221.5,370 					"/>
					<polygon class="st42" points="220.5,372.2 222.7,370.9 221.3,370.1 219.1,371.4 					"/>
					<polygon class="st42" points="218.1,373.6 220.3,372.4 218.9,371.5 216.7,372.8 					"/>
					<polygon class="st42" points="215.6,375 217.8,373.8 216.4,373 214.2,374.2 					"/>
					<polygon class="st42" points="213.2,376.4 215.4,375.2 214,374.3 211.8,375.6 					"/>
					<polygon class="st42" points="210.8,377.9 212.9,376.6 211.5,375.8 209.3,377 					"/>
					<polygon class="st42" points="232.7,365.2 234.9,363.9 233.5,363.1 231.3,364.4 					"/>
					<polygon class="st42" points="230.2,366.6 232.4,365.3 231,364.5 228.8,365.8 					"/>
					<polygon class="st42" points="227.8,368 230,366.7 228.6,365.9 226.4,367.2 					"/>
					<polygon class="st42" points="242.5,359.5 244.7,358.3 243.2,357.4 241.1,358.7 					"/>
					<polygon class="st42" points="240.1,360.9 242.3,359.7 240.8,358.8 238.6,360.1 					"/>
					<polygon class="st42" points="244.9,358.1 247.1,356.9 245.7,356 243.5,357.3 					"/>
					<polygon class="st42" points="237.6,362.3 239.8,361.1 238.4,360.2 236.2,361.5 					"/>
					<polygon class="st42" points="235.2,363.7 237.4,362.5 236,361.6 233.8,362.9 					"/>
				</g>
			</g>
			<g>
				<polygon class="st1" points="203.4,377.9 203.8,360 203.4,344.7 202,343.9 202,377.2 				"/>
				<path class="st0" d="M245.1,321.8v27.1l-40.7,23.5v-1.6v-25.5l-1-0.6v33.2l43.2-24.9v-33.2L245.1,321.8z"/>
				<polygon class="st2" points="204.4,372.4 204.4,372.9 245.5,349.1 245.5,321.5 245.1,321.8 245.1,348.8 				"/>
			</g>
			<g>
				<polygon class="st2" points="246.5,319.8 245.2,319 202,343.9 203.4,344.7 225.5,332.6 				"/>
				<polygon class="st0" points="245.1,321.8 204.4,345.3 203.9,345.5 203.4,344.7 246.5,319.8 246.3,320.8 				"/>
			</g>
		</g>
		<g>
			<path class="st14" d="M251.2,452.6c0,0-6.8-1.9-8.7,1.3c-1.4,2.4,1.7,4.4,4.2,5.7c2.5,1.4,7.9,1.7,10.4,2.9
				c2.5,1.2,4.5,3.1,6.9,3.8c2.5,0.9,3.8-0.8,4-1.4c0.6-1.7-0.8-4.4-0.8-4.4L251.2,452.6z"/>
			<path class="st7" d="M259.6,411.4c0,0,2.2,12.2,1.2,22.6c-0.7,7.8-3.2,15.4-3.2,15.4l-3.6,1.7l-0.2,5.5c0,0,6.7,4.4,9.4,5.4
				c1.9,0.8,4.1-0.8,4.1-1.4c0-1.3-0.9-4.2-0.8-6.2c0.1-1.9,2.4-9,3.6-12.6c1.2-3.6,0-30.2,0-30.2L259.6,411.4z"/>
			<path class="st14" d="M242.6,457.8c0,0-4.8-1.9-7,0.4c-3.4,3.6,0.5,6.1,3.5,7.6c3,1.5,9.9,5.6,12.3,6.3c3.3,1,4.9,0.2,5.6-0.3
				c1.3-0.9,0.5-4.4,0.5-4.4L242.6,457.8z"/>
			<path class="st8" d="M242.5,423.3c0,4.4,3.9,21.8,4.7,28.2c0.6,4.9-1.1,5.7-1.8,6.1c-0.8,0.5-4.1-0.3-5.4,1
				c-2.6,2.8,8.3,7.5,9.6,8.5c3.4,2.4,8.4,2.1,8,0c-0.4-2.1-0.8-3.4-1.1-5.9c-0.8-6.1,1.5-17.9,1.4-22.6c0-4.8-0.6-6.2-0.6-6.2
				L242.5,423.3z"/>
		</g>
		<g>
			<g>
				<polygon class="st0" points="293.5,454.2 296.2,452.7 300.4,388.1 295.4,385.2 292.7,386.7 293.8,390.7 293.5,450.8 				"/>
				<polygon class="st1" points="288.5,451.3 293.5,454.2 297.7,389.6 292.7,386.7 				"/>
			</g>
			<g>
				<polygon class="st1" points="352.5,447.5 355.2,446 354.9,442.8 350.2,441.7 296.3,412.1 295.1,414.4 				"/>
				<polygon class="st2" points="352.2,444.4 354.9,442.8 299,410.5 296.3,412.1 				"/>
			</g>
			<g>
				<polygon class="st0" points="369.9,498.3 372.6,496.7 350.3,417 345.2,414 342.5,415.6 343.6,419.6 365.9,491.9 				"/>
				<polygon class="st1" points="364.8,495.4 369.9,498.3 347.6,418.5 342.5,415.6 				"/>
			</g>
			<g>
				<polygon class="st2" points="349.2,417.1 354,414.4 294.4,379.9 289.6,382.7 293.5,387.1 				"/>
				<polygon class="st0" points="349.2,420.7 354,417.9 354,414.4 349.2,417.1 347.3,417.1 				"/>
				<polygon class="st1" points="289.6,386.2 349.2,420.7 349.2,417.1 289.6,382.7 				"/>
			</g>
		</g>
		<g>
			<polygon class="st3" points="294.8,485.2 348.5,454.2 348.5,440.1 320.2,451.9 294.8,471.1 			"/>
			<polygon class="st4" points="242.4,454.9 294.8,485.2 294.8,471.1 283.6,456.1 242.4,440.9 			"/>
			<polygon class="st13" points="294.8,471.1 348.5,440.1 296.1,409.9 242.4,440.9 			"/>
		</g>
		<path class="st7" d="M266.3,417.6l-6.8-6.1c0,0,0.2-3.2,4.2-3.6c4.8-0.4,14.9,0.1,14.9,0.1l-1.1,5.1L266.3,417.6z"/>
		<path class="st8" d="M257.3,432.7c0.8,0.1,7.6-15.8,7.6-15.8s-11.2-1.2-15.8-1.5c-4.6-0.3-6.5,3.5-6.5,7.9
			C242.5,423.3,248,429.8,257.3,432.7z"/>
		<path class="st6" d="M322.6,438.1c-0.4,3.5-13.4,14-24.8,14.5c-11.4,0.4-42.5-19.5-42.5-19.5s-3.3-2.6-2.5-7.3
			c0.9-5.5,6.7-6.2,13.3-10.4c6.6-4.3,9.3-7.8,13.6-7.5c4.3,0.2,11.3,2.2,11.3,2.2S322.8,436.9,322.6,438.1z"/>
		<polygon class="st15" points="334.1,404 322.3,397.3 323.5,391 327.3,390.3 334.1,396.1 		"/>
		<path class="st21" d="M324.1,369.4c0,0,3.9-0.2,6.2,5.2c2.3,5.4,7.8,18.5,9.5,21.7c1.7,3.2,1.4,6.4-1.3,7.9
			c-2.7,1.5-4.9-0.4-6.4-2.4c-1.5-2-10.5-14.9-10.5-14.9L324.1,369.4z"/>
		<path class="st21" d="M298,379.8c-3.1,4-8.4,6.8-8.4,6.8s-4.8,12.9-5.4,14.5c1.1,10,3.7,14.5,2.9,20.5c-0.8,6-7.3,6.7-7.3,9.8
			c0,8.5,4.1,12,9.1,15c10.5,6.3,17.3,3.4,23.8,0c6.5-3.4,10.9-7.4,11.4-12.2c1-9.6-3.5-15.2-3.9-21.1c-0.3-5.8,8.1-22.4,8-30.2
			c-0.1-7.8-3.3-10.2-3.3-10.2l-20-2.5C304.9,370.1,297.7,379,298,379.8z"/>
		<polygon class="st6" points="284.8,405.1 285.4,408.2 293.9,401.1 289.6,400.4 		"/>
		<path class="st43" d="M301.2,338.7c0,0-4.9-1.3-8,3.3c-3.2,4.6-0.2,29.2-2.2,35.8c6.9,3.7,10.2,1.2,10.2,1.2s0.8,1,0,2.2
			c8,1.4,22.2,2.5,24.4-11.9c0.7-4.5-2.2-25.4-11.1-29.9C304.6,334.3,301.2,338.7,301.2,338.7z"/>
		<path class="st44" d="M313.8,342.7c-3.6-4-12.5-3.9-12.5-3.9S310.1,336.6,313.8,342.7z"/>
		<path class="st8" d="M241.4,389.7c0,0-5.2-5.2-6.2-5.8c-1-0.6-3.9-0.6-3.9-0.6s-2.8,0.7-4.7,2c-0.6,0.4-1.2,3.5-1.1,4.3
			c0.1,0.8,0.4,1.3,1.1,1.7c0.7,0.4,2.2,0.3,2.6,0.5c0.4,0.2,4.5,3.2,6,3.6c1.4,0.4,2.7,0.2,2.7,0.2L241.4,389.7z"/>
		<path class="st5" d="M241.5,397.8c0,0-1.5-0.8-3.1-1.8c-2.4-1.5,1-7.5,3.8-6.1c1.4,0.7,3.3,1.7,3.3,1.7L241.5,397.8z"/>
		<path class="st21" d="M298.6,389.2c-3.2-8-10.7-1.5-14.4,0.6c-7.5,4.3-18.9,10.6-18.9,10.6s-13.2-6.4-19.5-9.7
			c-4.8-2.6-8.8,6-5.9,7.7c3.8,2.2,21.4,14.7,24.2,14.6c2.9,0,29.6-11.9,29.6-11.9S301.9,397.2,298.6,389.2z"/>
		<g>
			<polygon class="st4" points="293.7,410.5 282.7,464.1 288.5,469.8 294.8,471.1 303.1,412.8 			"/>
			<polygon class="st13" points="347.4,379.5 293.7,410.5 297.7,412.8 329,412.7 351.4,381.8 			"/>
			<polygon class="st3" points="297.7,412.8 294.8,471.1 316.2,465.4 348.5,440.1 351.4,381.8 			"/>
		</g>
		<g>
			<g>
				<polygon class="st0" points="234.8,487.9 237.5,486.3 241.7,421.7 236.7,418.8 234,420.4 235.1,424.4 234.8,484.4 				"/>
				<polygon class="st1" points="229.8,484.9 234.8,487.9 239,423.3 234,420.4 				"/>
			</g>
			<g>
				<polygon class="st1" points="293.8,481.2 296.4,479.6 296.2,476.4 291.5,475.4 237.6,445.8 236.4,448.1 				"/>
				<polygon class="st2" points="293.5,478 296.2,476.4 240.3,444.2 237.6,445.8 				"/>
			</g>
			<g>
				<polygon class="st0" points="311.2,531.9 313.9,530.4 291.6,450.6 286.5,447.7 283.8,449.2 284.9,453.2 307.2,525.6 				"/>
				<polygon class="st1" points="306.1,529 311.2,531.9 288.9,452.2 283.8,449.2 				"/>
			</g>
			<g>
				<polygon class="st2" points="290.5,450.8 295.3,448 235.7,413.6 230.9,416.4 234.8,420.8 				"/>
				<polygon class="st0" points="290.5,454.3 295.3,451.5 295.3,448 290.5,450.8 288.6,450.8 				"/>
				<polygon class="st1" points="230.9,419.9 290.5,454.3 290.5,450.8 230.9,416.4 				"/>
			</g>
		</g>
		<g>
			<g>
				<polygon class="st1" points="79,460 76.3,458.5 72.1,393.9 77.2,391 79.9,392.6 78.8,396.5 79,456.6 				"/>
				<polygon class="st0" points="84.1,457.1 79,460 74.8,395.5 79.9,392.6 				"/>
			</g>
			<g>
				<polygon class="st0" points="20.1,453.4 17.4,451.8 17.7,448.6 22.4,447.6 76.3,417.9 77.5,420.3 				"/>
				<polygon class="st2" points="20.4,450.2 17.7,448.6 73.6,416.4 76.3,417.9 				"/>
			</g>
			<g>
				<polygon class="st1" points="2.7,504.1 0,502.6 22.3,422.8 27.4,419.9 30.1,421.4 28.9,425.4 6.6,497.7 				"/>
				<polygon class="st0" points="7.8,501.2 2.7,504.1 25,424.3 30.1,421.4 				"/>
			</g>
			<g>
				<polygon class="st2" points="23.4,423 18.6,420.2 78.2,385.8 83,388.6 79.1,393 				"/>
				<polygon class="st1" points="23.4,426.5 18.6,423.7 18.6,420.2 23.4,423 25.3,423 				"/>
				<polygon class="st0" points="83,392.1 23.4,426.5 23.4,423 83,388.6 				"/>
			</g>
		</g>
		<g>
			<polygon class="st4" points="77.7,491 24.1,460 24.1,446 52.4,457.7 77.7,477 			"/>
			<polygon class="st3" points="130.2,460.8 77.7,491 77.7,477 89,461.9 130.2,446.7 			"/>
			<polygon class="st13" points="77.7,477 24.1,446 76.5,415.7 130.2,446.7 			"/>
		</g>
		<g>
			<polygon class="st3" points="78.9,416.3 89.9,469.9 84.1,475.6 77.7,477 69.4,418.6 			"/>
			<polygon class="st13" points="25.2,385.4 78.9,416.3 74.9,418.6 43.6,418.6 21.2,387.6 			"/>
			<polygon class="st4" points="74.9,418.6 77.7,477 56.4,471.3 24.1,446 21.2,387.6 			"/>
		</g>
		<g>
			<g>
				<polygon class="st1" points="137.7,493.7 135.1,492.1 130.9,427.6 135.9,424.7 138.6,426.2 137.5,430.2 137.7,490.3 				"/>
				<polygon class="st0" points="142.8,490.8 137.7,493.7 133.5,429.1 138.6,426.2 				"/>
			</g>
			<g>
				<polygon class="st0" points="78.8,487 76.1,485.5 76.4,482.3 81.1,481.2 135,451.6 136.2,453.9 				"/>
				<polygon class="st2" points="79.1,483.8 76.4,482.3 132.3,450 135,451.6 				"/>
			</g>
			<g>
				<polygon class="st1" points="61.4,537.8 58.7,536.2 81,456.4 86.1,453.5 88.8,455.1 87.6,459.1 65.3,531.4 				"/>
				<polygon class="st0" points="66.5,534.9 61.4,537.8 83.7,458 88.8,455.1 				"/>
			</g>
			<g>
				<polygon class="st2" points="82.1,456.6 77.3,453.8 136.9,419.4 141.7,422.2 137.8,426.6 				"/>
				<polygon class="st1" points="82.1,460.1 77.3,457.4 77.3,453.8 82.1,456.6 84,456.6 				"/>
				<polygon class="st0" points="141.7,425.7 82.1,460.1 82.1,456.6 141.7,422.2 				"/>
			</g>
		</g>
		<g>
			<g>
				<polygon class="st22" points="157.2,289.7 187,306.9 142.3,332.8 112.4,315.5 				"/>
				<polygon class="st14" points="186.3,307 142.3,332.4 142.3,329.9 175.4,307.5 186.3,304.5 				"/>
				<polygon class="st6" points="112.9,315.5 142.3,332.4 142.3,329.9 136.7,323.7 112.9,312.9 				"/>
				<polygon class="st16" points="123.7,319.1 167.7,293.7 186.3,304.5 142.3,329.9 				"/>
				<polygon class="st9" points="123.7,319.1 167.7,293.7 157,287.5 112.9,312.9 				"/>
				<polygon class="st16" points="136.5,309.6 151.2,301.1 143.4,296.6 128.7,305.1 				"/>
				<g>
					<polygon class="st3" points="153.4,320.4 155.6,319.2 153.4,317.9 151.2,319.2 					"/>
					<polygon class="st3" points="150.9,321.9 153.1,320.6 150.9,319.3 148.7,320.6 					"/>
					<polygon class="st3" points="155.9,319 168.1,311.9 165.9,310.7 153.6,317.7 					"/>
					<polygon class="st3" points="148.4,323.3 150.7,322 148.4,320.7 146.2,322 					"/>
					<polygon class="st3" points="141.6,327.3 148.2,323.4 146,322.1 139.3,326 					"/>
					<polygon class="st3" points="173.3,308.9 175.5,307.7 173.3,306.4 171.1,307.7 					"/>
					<polygon class="st3" points="170.8,310.4 173.1,309.1 170.8,307.8 168.6,309.1 					"/>
					<polygon class="st3" points="175.8,307.5 178.7,305.9 176.4,304.6 173.6,306.2 					"/>
					<polygon class="st3" points="168.4,311.8 170.6,310.5 168.4,309.2 166.1,310.5 					"/>
					<polygon class="st3" points="150.8,319 153,317.7 150.8,316.4 148.6,317.7 					"/>
					<polygon class="st3" points="148.3,320.4 150.6,319.1 148.3,317.8 146.1,319.1 					"/>
					<polygon class="st3" points="145.9,321.8 148.1,320.5 145.9,319.2 143.6,320.5 					"/>
					<polygon class="st3" points="139,325.8 145.6,321.9 143.4,320.6 136.8,324.5 					"/>
					<polygon class="st3" points="158.3,314.6 160.5,313.4 158.3,312.1 156,313.4 					"/>
					<polygon class="st3" points="155.8,316.1 158,314.8 155.8,313.5 153.5,314.8 					"/>
					<polygon class="st3" points="153.3,317.5 155.5,316.2 153.3,314.9 151.1,316.2 					"/>
					<polygon class="st3" points="168.3,308.9 170.5,307.6 168.3,306.3 166,307.6 					"/>
					<polygon class="st3" points="165.8,310.3 168,309 165.8,307.7 163.5,309 					"/>
					<polygon class="st3" points="163.3,311.7 165.5,310.4 163.3,309.2 161.1,310.4 					"/>
					<polygon class="st3" points="160.8,313.2 163.1,311.9 160.8,310.6 158.6,311.9 					"/>
					<polygon class="st3" points="149.6,316.8 151.8,315.5 149.6,314.2 147.4,315.5 					"/>
					<polygon class="st3" points="147.1,318.2 149.4,317 147.1,315.7 144.9,317 					"/>
					<polygon class="st3" points="144.6,319.7 146.9,318.4 144.6,317.1 142.4,318.4 					"/>
					<polygon class="st3" points="142.2,321.1 144.4,319.8 142.2,318.5 139.9,319.8 					"/>
					<polygon class="st3" points="136.5,324.4 141.9,321.3 139.6,320 134.3,323.1 					"/>
					<polygon class="st3" points="157.1,312.5 159.3,311.2 157.1,309.9 154.8,311.2 					"/>
					<polygon class="st3" points="154.5,313.9 156.8,312.7 154.5,311.4 152.3,312.7 					"/>
					<polygon class="st3" points="152.1,315.4 154.3,314.1 152.1,312.8 149.8,314.1 					"/>
					<polygon class="st3" points="167.1,306.7 169.3,305.5 167.1,304.2 164.8,305.5 					"/>
					<polygon class="st3" points="164.6,308.2 166.8,306.9 164.6,305.6 162.3,306.9 					"/>
					<polygon class="st3" points="162.1,309.6 164.3,308.3 162.1,307 159.9,308.3 					"/>
					<polygon class="st3" points="159.6,311 161.8,309.7 159.6,308.4 157.4,309.7 					"/>
					<polygon class="st3" points="147.7,315 150,313.7 147.7,312.4 145.5,313.7 					"/>
					<polygon class="st3" points="145.3,316.4 147.5,315.1 145.3,313.8 143,315.1 					"/>
					<polygon class="st3" points="142.8,317.9 145,316.6 142.8,315.3 140.6,316.6 					"/>
					<polygon class="st3" points="140.3,319.3 142.5,318 140.3,316.7 138.1,318 					"/>
					<polygon class="st3" points="137.8,320.7 140,319.5 137.8,318.2 135.6,319.5 					"/>
					<polygon class="st3" points="134,322.9 137.5,320.9 135.3,319.6 131.8,321.6 					"/>
					<polygon class="st3" points="155.2,310.7 157.4,309.4 155.2,308.1 153,309.4 					"/>
					<polygon class="st3" points="152.7,312.1 154.9,310.9 152.7,309.6 150.5,310.9 					"/>
					<polygon class="st3" points="150.2,313.6 152.5,312.3 150.2,311 148,312.3 					"/>
					<polygon class="st3" points="165.2,304.9 167.4,303.6 165.2,302.3 163,303.6 					"/>
					<polygon class="st3" points="167.7,303.5 171.1,301.5 168.9,300.2 165.4,302.2 					"/>
					<polygon class="st3" points="169.5,305.3 173.6,302.9 171.4,301.7 167.3,304 					"/>
					<polygon class="st3" points="170.7,307.4 176.1,304.4 173.8,303.1 168.5,306.2 					"/>
					<polygon class="st3" points="162.7,306.4 165,305.1 162.7,303.8 160.5,305.1 					"/>
					<polygon class="st3" points="160.2,307.8 162.5,306.5 160.2,305.2 158,306.5 					"/>
					<polygon class="st3" points="157.8,309.2 160,307.9 157.8,306.6 155.5,307.9 					"/>
					<polygon class="st3" points="146.5,312.9 148.7,311.6 146.5,310.3 144.2,311.6 					"/>
					<polygon class="st3" points="144,314.3 146.2,313 144,311.7 141.8,313 					"/>
					<polygon class="st3" points="141.5,315.7 143.8,314.4 141.5,313.1 139.3,314.4 					"/>
					<polygon class="st3" points="139,317.2 141.3,315.9 139,314.6 136.8,315.9 					"/>
					<polygon class="st3" points="136.5,318.6 138.8,317.3 136.5,316 134.3,317.3 					"/>
					<polygon class="st3" points="131.5,321.5 136.3,318.8 134,317.5 129.3,320.2 					"/>
					<rect x="129.3" y="319.7" class="st3" width="0.7" height="0.4"/>
					<rect x="127.6" y="318.7" class="st3" width="0.8" height="0.4"/>
					<rect x="130.1" y="317.3" class="st3" width="0.8" height="0.5"/>
					<rect x="131.8" y="321.2" class="st3" width="0.7" height="0.4"/>
					<rect x="134.3" y="322.6" class="st3" width="0.8" height="0.5"/>
					<rect x="136.8" y="324" class="st3" width="0.8" height="0.4"/>
					<rect x="139.3" y="325.5" class="st3" width="0.7" height="0.4"/>
					<rect x="147.5" y="323" class="st3" width="0.7" height="0.4"/>
					<g>
						<rect x="149.9" y="321.6" class="st3" width="0.8" height="0.5"/>
						<rect x="146.2" y="321.6" class="st3" width="0.8" height="0.5"/>
					</g>
					<g>
						<rect x="147.3" y="320.1" class="st3" width="0.8" height="0.5"/>
						<rect x="143.6" y="320.1" class="st3" width="0.8" height="0.5"/>
					</g>
					<g>
						<rect x="143.6" y="319.4" class="st3" width="0.8" height="0.4"/>
						<rect x="139.9" y="319.4" class="st3" width="0.8" height="0.4"/>
					</g>
					<g>
						<rect x="139.3" y="319" class="st3" width="0.8" height="0.4"/>
						<rect x="135.6" y="319" class="st3" width="0.8" height="0.4"/>
					</g>
					<g>
						<rect x="138" y="316.9" class="st3" width="0.8" height="0.4"/>
						<rect x="134.3" y="316.9" class="st3" width="0.7" height="0.4"/>
					</g>
					<g>
						<rect x="141.8" y="317.6" class="st3" width="0.7" height="0.5"/>
						<rect x="138.1" y="317.6" class="st3" width="0.8" height="0.5"/>
					</g>
					<g>
						<rect x="146.1" y="317.9" class="st3" width="0.8" height="0.5"/>
						<rect x="142.4" y="317.9" class="st3" width="0.8" height="0.5"/>
					</g>
					<g>
						<rect x="149.8" y="318.7" class="st3" width="0.8" height="0.4"/>
						<rect x="146.1" y="318.7" class="st3" width="0.8" height="0.4"/>
					</g>
					<g>
						<rect x="152.4" y="320.1" class="st3" width="0.7" height="0.4"/>
						<rect x="148.7" y="320.1" class="st3" width="0.8" height="0.4"/>
					</g>
					<g>
						<rect x="154.9" y="318.7" class="st3" width="0.7" height="0.4"/>
						<rect x="151.2" y="318.7" class="st3" width="0.7" height="0.4"/>
					</g>
					<g>
						<rect x="152.3" y="317.2" class="st3" width="0.8" height="0.5"/>
						<rect x="148.6" y="317.2" class="st3" width="0.8" height="0.5"/>
					</g>
					<g>
						<rect x="151.1" y="315.1" class="st3" width="0.8" height="0.4"/>
						<rect x="147.4" y="315.1" class="st3" width="0.8" height="0.4"/>
					</g>
					<g>
						<rect x="149.2" y="313.3" class="st3" width="0.7" height="0.5"/>
						<rect x="145.5" y="313.3" class="st3" width="0.8" height="0.5"/>
					</g>
					<g>
						<rect x="143" y="314" class="st3" width="0.8" height="0.4"/>
						<rect x="139.3" y="314" class="st3" width="0.8" height="0.4"/>
					</g>
					<g>
						<rect x="145.5" y="312.5" class="st3" width="0.8" height="0.4"/>
						<rect x="141.8" y="312.5" class="st3" width="0.8" height="0.4"/>
					</g>
					<g>
						<rect x="153.5" y="313.6" class="st3" width="0.8" height="0.4"/>
						<rect x="149.8" y="313.6" class="st3" width="0.7" height="0.4"/>
					</g>
					<g>
						<rect x="157.2" y="314.3" class="st3" width="0.8" height="0.5"/>
						<rect x="153.5" y="314.3" class="st3" width="0.8" height="0.5"/>
					</g>
					<g>
						<rect x="159.7" y="312.9" class="st3" width="0.8" height="0.5"/>
						<rect x="156" y="312.9" class="st3" width="0.7" height="0.5"/>
					</g>
					<g>
						<rect x="162.3" y="311.4" class="st3" width="0.8" height="0.4"/>
						<rect x="158.6" y="311.4" class="st3" width="0.7" height="0.4"/>
					</g>
					<g>
						<rect x="164.8" y="310" class="st3" width="0.8" height="0.5"/>
						<rect x="161.1" y="310" class="st3" width="0.8" height="0.5"/>
					</g>
					<g>
						<rect x="167.3" y="308.6" class="st3" width="0.7" height="0.4"/>
						<rect x="163.5" y="308.6" class="st3" width="0.8" height="0.4"/>
					</g>
					<g>
						<rect x="169.7" y="307.1" class="st3" width="0.8" height="0.4"/>
						<rect x="166" y="307.1" class="st3" width="0.8" height="0.4"/>
					</g>
					<g>
						<rect x="168.5" y="305" class="st3" width="0.7" height="0.5"/>
						<rect x="164.8" y="305" class="st3" width="0.7" height="0.5"/>
					</g>
					<g>
						<rect x="166.1" y="306.4" class="st3" width="0.7" height="0.5"/>
						<rect x="162.3" y="306.4" class="st3" width="0.7" height="0.5"/>
					</g>
					<g>
						<rect x="163.6" y="307.8" class="st3" width="0.7" height="0.5"/>
						<rect x="159.9" y="307.8" class="st3" width="0.8" height="0.5"/>
					</g>
					<g>
						<rect x="161.1" y="309.3" class="st3" width="0.8" height="0.5"/>
						<rect x="157.4" y="309.3" class="st3" width="0.8" height="0.5"/>
					</g>
					<g>
						<rect x="156.7" y="308.9" class="st3" width="0.8" height="0.5"/>
						<rect x="153" y="308.9" class="st3" width="0.8" height="0.5"/>
					</g>
					<g>
						<rect x="159.2" y="307.5" class="st3" width="0.7" height="0.4"/>
						<rect x="155.5" y="307.5" class="st3" width="0.7" height="0.4"/>
					</g>
					<g>
						<rect x="161.7" y="306" class="st3" width="0.7" height="0.5"/>
						<rect x="158" y="306" class="st3" width="0.8" height="0.5"/>
					</g>
					<g>
						<rect x="154.2" y="310.4" class="st3" width="0.7" height="0.4"/>
						<rect x="150.5" y="310.4" class="st3" width="0.8" height="0.4"/>
					</g>
					<g>
						<rect x="158.5" y="310.8" class="st3" width="0.8" height="0.5"/>
						<rect x="154.8" y="310.8" class="st3" width="0.8" height="0.5"/>
					</g>
					<g>
						<rect x="151.7" y="311.8" class="st3" width="0.8" height="0.4"/>
						<rect x="148" y="311.8" class="st3" width="0.8" height="0.4"/>
					</g>
					<g>
						<rect x="148" y="311.1" class="st3" width="0.8" height="0.4"/>
						<rect x="144.2" y="311.1" class="st3" width="0.8" height="0.4"/>
					</g>
					<g>
						<rect x="150.4" y="309.7" class="st3" width="0.8" height="0.5"/>
						<rect x="146.7" y="309.7" class="st3" width="0.7" height="0.5"/>
					</g>
					<g>
						<rect x="152.9" y="308.3" class="st3" width="0.8" height="0.4"/>
						<rect x="149.2" y="308.3" class="st3" width="0.7" height="0.4"/>
					</g>
					<g>
						<rect x="155.4" y="306.8" class="st3" width="0.8" height="0.5"/>
						<rect x="151.7" y="306.8" class="st3" width="0.8" height="0.5"/>
					</g>
					<g>
						<rect x="158" y="305.3" class="st3" width="0.7" height="0.4"/>
						<rect x="154.3" y="305.3" class="st3" width="0.8" height="0.4"/>
					</g>
					<g>
						<rect x="160.4" y="303.9" class="st3" width="0.8" height="0.4"/>
						<rect x="156.7" y="303.9" class="st3" width="0.8" height="0.4"/>
					</g>
					<g>
						<rect x="162.9" y="302.5" class="st3" width="0.8" height="0.4"/>
						<rect x="159.2" y="302.5" class="st3" width="0.8" height="0.4"/>
					</g>
					<g>
						<rect x="165.4" y="301" class="st3" width="0.8" height="0.5"/>
						<rect x="161.7" y="301" class="st3" width="0.8" height="0.5"/>
					</g>
					<g>
						<rect x="167.9" y="299.6" class="st3" width="0.7" height="0.5"/>
						<rect x="164.2" y="299.6" class="st3" width="0.8" height="0.5"/>
					</g>
					<g>
						<rect x="166.7" y="303.2" class="st3" width="0.8" height="0.5"/>
						<rect x="163" y="303.2" class="st3" width="0.7" height="0.5"/>
					</g>
					<g>
						<rect x="164.2" y="304.6" class="st3" width="0.8" height="0.4"/>
						<rect x="160.5" y="304.6" class="st3" width="0.8" height="0.4"/>
					</g>
					<g>
						<rect x="156" y="312.2" class="st3" width="0.8" height="0.5"/>
						<rect x="152.3" y="312.2" class="st3" width="0.7" height="0.5"/>
					</g>
					<g>
						<rect x="146.7" y="314.7" class="st3" width="0.8" height="0.5"/>
						<rect x="143" y="314.7" class="st3" width="0.7" height="0.5"/>
					</g>
					<g>
						<rect x="154.7" y="315.8" class="st3" width="0.8" height="0.5"/>
						<rect x="151.1" y="315.8" class="st3" width="0.7" height="0.5"/>
					</g>
					<g>
						<rect x="169.8" y="310.1" class="st3" width="0.8" height="0.5"/>
						<rect x="166.1" y="310.1" class="st3" width="0.7" height="0.5"/>
					</g>
					<g>
						<rect x="172.3" y="308.6" class="st3" width="0.7" height="0.4"/>
						<rect x="168.6" y="308.6" class="st3" width="0.8" height="0.4"/>
					</g>
					<g>
						<rect x="174.8" y="307.2" class="st3" width="0.8" height="0.5"/>
						<rect x="171.1" y="307.2" class="st3" width="0.8" height="0.5"/>
					</g>
					<g>
						<rect x="177.9" y="305.4" class="st3" width="0.8" height="0.5"/>
						<rect x="175.3" y="303.9" class="st3" width="0.8" height="0.4"/>
						<rect x="168.5" y="305.7" class="st3" width="0.7" height="0.4"/>
						<rect x="167.3" y="303.6" class="st3" width="0.7" height="0.5"/>
						<rect x="172.9" y="302.5" class="st3" width="0.8" height="0.5"/>
						<rect x="170.4" y="301.1" class="st3" width="0.7" height="0.4"/>
						<rect x="165.4" y="301.8" class="st3" width="0.8" height="0.4"/>
						<rect x="167.4" y="311.5" class="st3" width="0.8" height="0.5"/>
						<rect x="153.6" y="317.3" class="st3" width="0.7" height="0.4"/>
						<rect x="173.6" y="305.8" class="st3" width="0.8" height="0.4"/>
					</g>
					<g>
						<rect x="148.6" y="316.5" class="st3" width="0.8" height="0.5"/>
						<rect x="144.9" y="316.5" class="st3" width="0.8" height="0.5"/>
					</g>
					<g>
						<rect x="144.3" y="316.1" class="st3" width="0.8" height="0.5"/>
						<rect x="140.6" y="316.1" class="st3" width="0.8" height="0.5"/>
					</g>
					<g>
						<rect x="140.5" y="315.4" class="st3" width="0.8" height="0.5"/>
						<rect x="136.8" y="315.4" class="st3" width="0.7" height="0.5"/>
					</g>
					<rect x="144.9" y="321.5" class="st3" width="0.8" height="0.4"/>
					<rect x="141.1" y="320.8" class="st3" width="0.7" height="0.5"/>
					<rect x="136.8" y="320.5" class="st3" width="0.8" height="0.5"/>
					<rect x="135.5" y="318.3" class="st3" width="0.8" height="0.5"/>
					<rect x="130.5" y="318.3" class="st3" width="0.8" height="0.4"/>
					<rect x="133" y="316.9" class="st3" width="0.7" height="0.4"/>
					<rect x="132.6" y="315.9" class="st3" width="0.8" height="0.5"/>
					<rect x="135.5" y="315.4" class="st3" width="0.8" height="0.5"/>
					<rect x="135.1" y="314.4" class="st3" width="0.8" height="0.5"/>
					<rect x="138" y="314" class="st3" width="0.7" height="0.4"/>
					<rect x="137.5" y="313" class="st3" width="0.7" height="0.5"/>
					<rect x="140.5" y="312.5" class="st3" width="0.7" height="0.4"/>
					<rect x="140" y="311.5" class="st3" width="0.8" height="0.4"/>
					<rect x="143" y="311.1" class="st3" width="0.8" height="0.4"/>
					<rect x="142.5" y="310.1" class="st3" width="0.8" height="0.4"/>
					<rect x="145.4" y="309.7" class="st3" width="0.8" height="0.4"/>
					<rect x="145" y="308.7" class="st3" width="0.7" height="0.5"/>
					<rect x="147.9" y="308.2" class="st3" width="0.7" height="0.5"/>
					<rect x="147.5" y="307.2" class="st3" width="0.8" height="0.4"/>
					<rect x="150.4" y="306.8" class="st3" width="0.7" height="0.4"/>
					<rect x="150" y="305.8" class="st3" width="0.7" height="0.5"/>
					<rect x="152.9" y="305.4" class="st3" width="0.8" height="0.4"/>
					<rect x="152.5" y="304.3" class="st3" width="0.8" height="0.5"/>
					<rect x="155.5" y="303.9" class="st3" width="0.8" height="0.5"/>
					<rect x="155" y="302.9" class="st3" width="0.8" height="0.4"/>
					<rect x="157.9" y="302.4" class="st3" width="0.8" height="0.5"/>
					<rect x="157.5" y="301.5" class="st3" width="0.8" height="0.5"/>
					<rect x="160.4" y="301" class="st3" width="0.8" height="0.5"/>
					<rect x="159.9" y="300" class="st3" width="0.8" height="0.5"/>
					<rect x="162.9" y="299.6" class="st3" width="0.8" height="0.4"/>
					<rect x="162.4" y="298.6" class="st3" width="0.8" height="0.4"/>
					<rect x="165.4" y="298.1" class="st3" width="0.8" height="0.5"/>
					<polygon class="st3" points="153.9,308.5 156.2,307.3 153.9,306 151.7,307.3 					"/>
					<polygon class="st3" points="151.4,310 153.7,308.7 151.4,307.4 149.2,308.7 					"/>
					<polygon class="st3" points="149,311.4 151.2,310.1 149,308.8 146.7,310.1 					"/>
					<polygon class="st3" points="163.9,302.8 166.2,301.5 163.9,300.2 161.7,301.5 					"/>
					<polygon class="st3" points="161.4,304.2 163.7,302.9 161.4,301.6 159.2,302.9 					"/>
					<polygon class="st3" points="166.4,301.3 168.6,300.1 166.4,298.8 164.2,300.1 					"/>
					<polygon class="st3" points="159,305.6 161.2,304.3 159,303.1 156.7,304.3 					"/>
					<polygon class="st3" points="156.5,307.1 158.7,305.8 156.5,304.5 154.3,305.8 					"/>
					<polygon class="st3" points="144,311.4 146.2,310.1 144.7,309.3 142.5,310.6 					"/>
					<polygon class="st3" points="141.5,312.8 143.7,311.5 142.3,310.7 140,312 					"/>
					<polygon class="st3" points="139,314.2 141.2,313 139.8,312.1 137.5,313.4 					"/>
					<polygon class="st3" points="136.5,315.7 138.7,314.4 137.3,313.6 135.1,314.9 					"/>
					<polygon class="st3" points="134,317.1 136.2,315.9 134.8,315 132.6,316.3 					"/>
					<polygon class="st3" points="131.5,318.6 133.7,317.3 132.3,316.5 130.1,317.7 					"/>
					<polygon class="st3" points="129,320 131.3,318.7 129.8,317.9 127.6,319.2 					"/>
					<polygon class="st3" points="151.4,307.1 153.7,305.8 152.2,305 150,306.3 					"/>
					<polygon class="st3" points="148.9,308.5 151.1,307.2 149.7,306.4 147.5,307.7 					"/>
					<polygon class="st3" points="146.4,310 148.7,308.7 147.2,307.8 145,309.1 					"/>
					<polygon class="st3" points="161.4,301.3 163.6,300 162.2,299.2 159.9,300.5 					"/>
					<polygon class="st3" points="158.9,302.7 161.2,301.5 159.7,300.6 157.5,301.9 					"/>
					<polygon class="st3" points="163.9,299.9 166.1,298.6 164.7,297.8 162.4,299 					"/>
					<polygon class="st3" points="156.5,304.2 158.7,302.9 157.2,302.1 155,303.3 					"/>
					<polygon class="st3" points="154,305.6 156.2,304.3 154.7,303.5 152.5,304.8 					"/>
					<polygon class="st41" points="153.4,320 155.6,318.7 153.4,317.4 151.2,318.7 					"/>
					<polygon class="st41" points="150.9,321.4 153.1,320.1 150.9,318.9 148.7,320.1 					"/>
					<polygon class="st41" points="155.9,318.6 168.1,311.5 165.9,310.2 153.6,317.3 					"/>
					<polygon class="st41" points="148.4,322.8 150.7,321.6 148.4,320.3 146.2,321.6 					"/>
					<polygon class="st41" points="141.6,326.8 148.2,323 146,321.7 139.3,325.5 					"/>
					<polygon class="st41" points="173.3,308.5 175.5,307.2 173.3,305.9 171.1,307.2 					"/>
					<polygon class="st41" points="170.8,309.9 173.1,308.6 170.8,307.4 168.6,308.6 					"/>
					<polygon class="st41" points="175.8,307.1 178.7,305.4 176.4,304.1 173.6,305.8 					"/>
					<polygon class="st41" points="168.4,311.4 170.6,310.1 168.4,308.8 166.1,310.1 					"/>
					<polygon class="st41" points="150.8,318.5 153,317.2 150.8,315.9 148.6,317.2 					"/>
					<polygon class="st41" points="148.3,319.9 150.6,318.7 148.3,317.4 146.1,318.7 					"/>
					<polygon class="st41" points="145.9,321.4 148.1,320.1 145.9,318.8 143.6,320.1 					"/>
					<polygon class="st41" points="139,325.3 145.6,321.5 143.4,320.2 136.8,324 					"/>
					<polygon class="st41" points="158.3,314.2 160.5,312.9 158.3,311.6 156,312.9 					"/>
					<polygon class="st41" points="155.8,315.7 158,314.3 155.8,313.1 153.5,314.3 					"/>
					<polygon class="st41" points="153.3,317.1 155.5,315.8 153.3,314.5 151.1,315.8 					"/>
					<polygon class="st41" points="168.3,308.4 170.5,307.1 168.3,305.9 166,307.1 					"/>
					<polygon class="st41" points="165.8,309.9 168,308.6 165.8,307.3 163.5,308.6 					"/>
					<polygon class="st41" points="163.3,311.3 165.5,310 163.3,308.7 161.1,310 					"/>
					<polygon class="st41" points="160.8,312.7 163.1,311.4 160.8,310.1 158.6,311.4 					"/>
					<polygon class="st41" points="149.6,316.4 151.8,315.1 149.6,313.8 147.4,315.1 					"/>
					<polygon class="st41" points="147.1,317.8 149.4,316.5 147.1,315.2 144.9,316.5 					"/>
					<polygon class="st41" points="144.6,319.2 146.9,317.9 144.6,316.6 142.4,317.9 					"/>
					<polygon class="st41" points="142.2,320.7 144.4,319.4 142.2,318.1 139.9,319.4 					"/>
					<polygon class="st41" points="136.5,323.9 141.9,320.8 139.6,319.5 134.3,322.6 					"/>
					<polygon class="st41" points="157.1,312 159.3,310.8 157.1,309.5 154.8,310.8 					"/>
					<polygon class="st41" points="154.5,313.5 156.8,312.2 154.5,310.9 152.3,312.2 					"/>
					<polygon class="st41" points="152.1,314.9 154.3,313.6 152.1,312.4 149.8,313.6 					"/>
					<polygon class="st41" points="167.1,306.3 169.3,305 167.1,303.7 164.8,305 					"/>
					<polygon class="st41" points="164.6,307.7 166.8,306.4 164.6,305.1 162.3,306.4 					"/>
					<polygon class="st41" points="162.1,309.1 164.3,307.8 162.1,306.6 159.9,307.8 					"/>
					<polygon class="st41" points="159.6,310.6 161.8,309.3 159.6,308 157.4,309.3 					"/>
					<polygon class="st41" points="147.7,314.6 150,313.3 147.7,312 145.5,313.3 					"/>
					<polygon class="st41" points="145.3,316 147.5,314.7 145.3,313.4 143,314.7 					"/>
					<polygon class="st41" points="142.8,317.4 145,316.1 142.8,314.8 140.6,316.1 					"/>
					<polygon class="st41" points="140.3,318.9 142.5,317.6 140.3,316.3 138.1,317.6 					"/>
					<polygon class="st41" points="137.8,320.3 140,319 137.8,317.7 135.6,319 					"/>
					<polygon class="st41" points="134,322.5 137.5,320.5 135.3,319.2 131.8,321.2 					"/>
					<polygon class="st41" points="155.2,310.3 157.4,308.9 155.2,307.7 153,308.9 					"/>
					<polygon class="st41" points="152.7,311.7 154.9,310.4 152.7,309.1 150.5,310.4 					"/>
					<polygon class="st41" points="150.2,313.1 152.5,311.8 150.2,310.5 148,311.8 					"/>
					<polygon class="st41" points="165.2,304.5 167.4,303.2 165.2,301.9 163,303.2 					"/>
					<polygon class="st41" points="167.7,303.1 171.1,301.1 168.9,299.8 165.4,301.8 					"/>
					<polygon class="st41" points="169.5,304.8 173.6,302.5 171.4,301.2 167.3,303.6 					"/>
					<polygon class="st41" points="170.7,307 176.1,303.9 173.8,302.6 168.5,305.7 					"/>
					<polygon class="st41" points="162.7,305.9 165,304.6 162.7,303.3 160.5,304.6 					"/>
					<polygon class="st41" points="160.2,307.3 162.5,306 160.2,304.8 158,306 					"/>
					<polygon class="st41" points="157.8,308.8 160,307.5 157.8,306.2 155.5,307.5 					"/>
					<polygon class="st41" points="146.5,312.4 148.7,311.1 146.5,309.8 144.2,311.1 					"/>
					<polygon class="st41" points="144,313.8 146.2,312.5 144,311.3 141.8,312.5 					"/>
					<polygon class="st41" points="141.5,315.3 143.8,314 141.5,312.7 139.3,314 					"/>
					<polygon class="st41" points="139,316.7 141.3,315.4 139,314.1 136.8,315.4 					"/>
					<polygon class="st41" points="136.5,318.2 138.8,316.9 136.5,315.6 134.3,316.9 					"/>
					<polygon class="st41" points="131.5,321 136.3,318.3 134,317 129.3,319.7 					"/>
					<polygon class="st41" points="153.9,308.1 156.2,306.8 153.9,305.5 151.7,306.8 					"/>
					<polygon class="st41" points="151.4,309.6 153.7,308.3 151.4,307 149.2,308.3 					"/>
					<polygon class="st41" points="149,311 151.2,309.7 149,308.4 146.7,309.7 					"/>
					<polygon class="st41" points="163.9,302.3 166.2,301 163.9,299.7 161.7,301 					"/>
					<polygon class="st41" points="161.4,303.8 163.7,302.5 161.4,301.2 159.2,302.5 					"/>
					<polygon class="st41" points="166.4,300.9 168.6,299.6 166.4,298.3 164.2,299.6 					"/>
					<polygon class="st41" points="159,305.2 161.2,303.9 159,302.6 156.7,303.9 					"/>
					<polygon class="st41" points="156.5,306.6 158.7,305.3 156.5,304 154.3,305.3 					"/>
					<polygon class="st41" points="144,310.9 146.2,309.7 144.7,308.8 142.5,310.1 					"/>
					<polygon class="st41" points="141.5,312.4 143.7,311.1 142.3,310.3 140,311.5 					"/>
					<polygon class="st41" points="139,313.8 141.2,312.5 139.8,311.7 137.5,313 					"/>
					<polygon class="st41" points="136.5,315.3 138.7,314 137.3,313.1 135.1,314.4 					"/>
					<polygon class="st41" points="134,316.7 136.2,315.4 134.8,314.6 132.6,315.9 					"/>
					<polygon class="st41" points="131.5,318.1 133.7,316.9 132.3,316 130.1,317.3 					"/>
					<polygon class="st41" points="129,319.6 131.3,318.3 129.8,317.5 127.6,318.7 					"/>
					<polygon class="st41" points="151.4,306.6 153.7,305.4 152.2,304.5 150,305.8 					"/>
					<polygon class="st41" points="148.9,308.1 151.1,306.8 149.7,306 147.5,307.2 					"/>
					<polygon class="st41" points="146.4,309.5 148.7,308.2 147.2,307.4 145,308.7 					"/>
					<polygon class="st41" points="161.4,300.9 163.6,299.6 162.2,298.7 159.9,300 					"/>
					<polygon class="st41" points="158.9,302.3 161.2,301 159.7,300.2 157.5,301.5 					"/>
					<polygon class="st41" points="163.9,299.4 166.1,298.1 164.7,297.3 162.4,298.6 					"/>
					<polygon class="st41" points="156.5,303.7 158.7,302.4 157.2,301.6 155,302.9 					"/>
					<polygon class="st41" points="154,305.1 156.2,303.9 154.7,303 152.5,304.3 					"/>
				</g>
			</g>
			<g>
				<polygon class="st4" points="143.6,330.7 146.9,312.9 143.6,296.8 142.3,296 142.3,329.9 				"/>
				<polygon class="st41" points="187.7,271.3 186.3,270.5 142.3,296 143.6,296.8 166.4,291.4 				"/>
				<polygon class="st3" points="187.7,305.2 187.7,271.3 143.6,296.8 143.6,330.7 				"/>
				<polygon class="st31" points="167.7,297.2 164.6,299 162.3,302.8 162.3,306.5 164.6,307.7 167.7,305.9 169.9,302.1 169.9,298.4 
									"/>
			</g>
		</g>
		<g>
			<path class="st14" d="M104.9,304.4c5.8,2.3,9.6-9.8,4.9-11.6c-1.8-0.5-6.8-1.8-6.8-1.8l-4.8,9.5
				C98.2,300.5,103.7,303.6,104.9,304.4z"/>
			<path class="st8" d="M112.1,295c0,0,11.6,0.1,12.7,0.5c1.1,0.4,4.9,2,5.4,2.6c0.6,0.6,2.4,4.5,2.6,5.4c0.2,1,0.1,2.6-0.5,3.4
				c-0.6,0.7-5.6,3-7.7,2.9c-2.1-0.1-5.7-2.9-5.7-2.9s-5.8-1-7.9-1.5c-2-0.5-2.9-2.5-2.9-2.5l-4.1-1.8l2.2-6L112.1,295z"/>
			<path class="st5" d="M105,292c0,0,6.2,2.6,7.1,3c-5.6,2-4,7.9-4,7.9l-6.2-1L105,292z"/>
			<path class="st15" d="M56.5,246.7c-9,7.8-1.1,18.2-1.1,18.2s21.2,28.3,23.2,30.2c2.1,1.8,18,7.1,26.3,9.4
				c-2.8-3.3,1.5-11.9,4.9-11.6c-1.2-0.6-20.2-9.6-21.7-10.4c-1.5-0.8-15.6-22.5-16.9-25.4C66.7,246.7,57.2,246.1,56.5,246.7z"/>
		</g>
		<g>
			<path class="st14" d="M598.4,223.4c-0.8-0.4-1.9-0.7-3.1-0.7h-53.9v-35.3c0-1.5-2.1-2.7-4.7-2.7c-2.6,0-4.7,1.2-4.7,2.7v35.3
				h-53.9c-1.4,0-2.6,0.3-3.5,0.9l-1.3-0.4v2.3c0,1.5,2.1,2.7,4.7,2.7h53.9v35.3c0,1.5,2.1,2.7,4.7,2.7c2.6,0,4.7-1.2,4.7-2.7v-35.3
				h53.9c2.6,0,4.7-1.2,4.7-2.7v-2.3L598.4,223.4z"/>
			<path class="st9" d="M595.3,220.4h-53.9v-35.3c0-1.5-2.1-2.7-4.7-2.7c-2.6,0-4.7,1.2-4.7,2.7v35.3h-53.9c-2.6,0-4.7,1.2-4.7,2.7
				c0,1.5,2.1,2.7,4.7,2.7h53.9v35.3c0,1.5,2.1,2.7,4.7,2.7c2.6,0,4.7-1.2,4.7-2.7v-35.3h53.9c2.6,0,4.7-1.2,4.7-2.7
				C600,221.6,597.9,220.4,595.3,220.4z"/>
		</g>
		<g>
			<g>
				<path class="st6" d="M541.5,222.8v-2h-9.8v2c0,0.7,0.5,1.5,1.4,2c1.9,1.1,5,1.1,7,0C541,224.3,541.5,223.6,541.5,222.8z"/>
				<path class="st2" d="M540.1,222.8c-1.9,1.1-5,1.1-7,0c-1.9-1.1-1.9-2.9,0-4c1.9-1.1,5-1.1,7,0C542,219.9,542,221.7,540.1,222.8z
					"/>
			</g>
			<g>
				<path class="st6" d="M540.5,220.7v-70.5h-7.8v70.5c0,0.6,0.4,1.2,1.1,1.6c1.5,0.9,4,0.9,5.5,0
					C540.1,221.8,540.5,221.2,540.5,220.7z"/>
				<path class="st9" d="M539.3,151.8c-1.5,0.9-4,0.9-5.5,0c-1.5-0.9-1.5-2.3,0-3.2c1.5-0.9,4-0.9,5.5,0
					C540.9,149.5,540.9,150.9,539.3,151.8z"/>
			</g>
		</g>
		<polygon class="st45" points="570.4,173.4 500.4,133 515,1.2 551.5,20.9 585,41.7 580.1,99.5 		"/>
		<polygon class="st41" points="588,40.4 586.1,43.3 585,41.7 515,1.2 517.9,0 		"/>
		<polygon class="st3" points="573.4,172.2 570.4,173.4 585,41.7 588,40.4 		"/>
		<g>
			<g>
				<polygon class="st3" points="558.9,185.5 569.8,179.2 569.8,178.5 564.1,180.9 558.9,184.8 				"/>
				<polygon class="st13" points="488.9,145 558.9,185.5 558.9,184.8 556.6,181.7 488.9,144.4 				"/>
				<polygon class="st41" points="558.9,184.8 569.8,178.5 499.8,138.1 488.9,144.4 				"/>
			</g>
			<g>
				<polygon class="st13" points="569.2,178.9 499.2,138.4 501,121.5 564,157.6 571.1,161.9 571.2,163.4 				"/>
				<polygon class="st41" points="571.7,161.7 571.3,162.3 571.1,161.9 501,121.5 501.7,121.3 				"/>
				<polygon class="st3" points="569.8,178.6 569.2,178.9 571.1,161.9 571.7,161.7 573.1,169.4 570.4,173.4 				"/>
			</g>
		</g>
		<g>
			<g>
				<path class="st9" d="M520.2,15.7l2.3-10.1L515,1.2l-0.7,0.3c-1.2,0.5-2.3,3-2.6,5.7c-0.2,2,0.1,3.5,0.8,3.9L520.2,15.7z"/>
				<path class="st25" d="M521.8,5.9c-1.2,0.5-2.3,3-2.6,5.7c-0.3,2.7,0.4,4.5,1.6,4l0.7-0.3l1.1-9.7L521.8,5.9z"/>
			</g>
			<g>
				<path class="st9" d="M582.6,51.7l2.3-10.1l-7.5-4.4l-0.7,0.3c-1.2,0.5-2.3,3-2.6,5.7c-0.2,2,0.1,3.5,0.8,3.9L582.6,51.7z"/>
				<path class="st16" d="M584.3,42c-1.2,0.5-2.3,3-2.6,5.7c-0.3,2.7,0.4,4.5,1.6,4l0.7-0.3l1.1-9.7L584.3,42z"/>
			</g>
			<g>
				<path class="st25" d="M575.1,47.4l2.3-10.1L522.5,5.6l-0.7,0.3c-1.2,0.5-2.3,3-2.6,5.7c-0.2,2,0.1,3.5,0.8,3.9L575.1,47.4z"/>
				<path class="st9" d="M576.7,37.6c-1.2,0.5-2.3,3.1-2.6,5.7c-0.3,2.7,0.4,4.5,1.6,4l0.7-0.3l1.1-9.7L576.7,37.6z"/>
			</g>
		</g>
		<g>
			<polygon class="st46" points="523.4,60.6 519,100.2 525.3,103.9 529.7,64.3 			"/>
			<polygon class="st46" points="577.6,62.9 578.2,57.8 571.8,54.1 571.2,59.2 			"/>
			<polygon class="st47" points="576.5,73.2 577,68 570.7,64.4 570.1,69.5 			"/>
			<polygon class="st48" points="575.3,83.5 575.9,78.3 569.5,74.7 568.9,79.8 			"/>
			<polygon class="st47" points="543.5,114.4 537.2,110.7 542.6,61.2 549,64.8 			"/>
			<polygon class="st48" points="557.6,100.6 555.3,121.2 561.7,124.9 564,104.3 			"/>
			<polygon class="st49" points="511.1,109.5 510.7,112.9 565.6,144.6 566,141.2 			"/>
			<polygon class="st49" points="531.2,128.5 510.3,116.4 510,119.9 530.9,132 			"/>
		</g>
		<path class="st6" d="M435.7,231.6c0,0-12.2,5.2-7.6,9.5c1,0.9,5.1,1.4,9.4-0.9c2.3-1.2,5.2-3.1,8.1-4.2c2.8-1.1,8.7-1,8.7-1
			l1.1-6.2l-11.1,0.4L435.7,231.6z"/>
		<path class="st14" d="M415.4,130.8c1.3,2.1,7.8,2.4,8.9,0.1c0.1-0.6,0.6-2.9,0.6-2.9l-7.1-1.2
			C417.8,126.8,415.6,129.9,415.4,130.8z"/>
		<polygon class="st5" points="416.5,129.4 417.2,135 420.3,135 422.3,134 423.1,127.5 418.5,126.8 		"/>
		<path class="st50" d="M430.2,64.2c0,0-4-0.6-6.1,6.3c-2.1,6.9-8.1,25.8-9,33.1c-0.8,7.3,0.3,27.1,0.3,27.1s4.2-1.9,8.7,0
			c1.2-0.6,10.9-62.8,10.9-62.8L430.2,64.2z"/>
		<path class="st7" d="M435.8,179.2c0,0-1.3,2.4,0,5c11.5,23.8,5.8,41.7,5.6,42.9c-1.5,2.7-9.5,6-8.4,7.7c2,3.2,10.3-2.4,13.3-3.2
			c3-0.7,7.3-1.2,7.3-1.2l1.3-27.9l-4.7-23.4H435.8z"/>
		<path class="st6" d="M448.8,238.5c0,0-8.6,9.4-6.1,11.8c2.4,2.4,7.4,1.6,10.2-0.6c2.8-2.2,8.8-10.7,9.7-12.5
			c0.9-1.8-0.6-4.8-0.6-4.8L448.8,238.5z"/>
		<path class="st8" d="M459.9,184.5c0.9,4.9,3.4,6.8,3.7,12c0.3,5.3-2.8,17.5-2.4,33.3c0,1,1.2,2.9,0.8,3.5
			c-3.6,5.1-10.9,13-13.9,11.3c-3-1.7,4.7-13,4.7-13s0.8-20.9-3.8-36.1c-1.1-3.8-2.7-9.2-2.7-9.2l7.8-6
			C454.2,180.3,458.4,183.8,459.9,184.5z"/>
		<path class="st6" d="M465,135.6c1,15.5-2.7,40.2-3.5,45.2c-0.6,3.8-3.2,6.3-7.4,6.3c-13,0-19.5-6.7-20.6-10
			c-1.1-3.3-6.3-17.8-9.4-44.2c1.1-0.9,5.8-5.1,5.8-5.1h22.5C452.4,127.9,463.9,134.3,465,135.6z"/>
		<path class="st7" d="M450.9,59.6c0,7,1.8,9.1,1.8,9.1l1.8,6.6l-9.8,5.2l-7.6-1.9l-3.4-4.9l0.6-7.1l5.7-8.2l7.9-0.9
			C447.8,57.4,450,58.5,450.9,59.6z"/>
		<path class="st5" d="M452.7,68.7c-4.1,10.5-13.5,7.5-13.5,7.5s-4.1-2.6-1.7-7.5c-0.8,0-2.9,0-2.9,0l-5.5,9.7v17.3l7.2,0.8
			L452.7,86l3.3-8.5C456,77.5,454.3,72,452.7,68.7z"/>
		<path class="st51" d="M463.6,80.5l-10.9-11.8c0,0,0.8,7.2-4.4,12.3c-5.2,5.1-14.7,9.4-14.7,9.4s-1.7-12,0.7-16.7
			c2.4-4.6,5.4-7.5,5.4-7.5s-1.9-1.2-3-0.7c-6.3,2.7-9.4,10-10.9,13.4c-1.6,3.3-6.7,8.9-7.2,14.5c-0.5,5.5,5.5,11.5,5.5,11.5
			s-0.1,22.3-0.3,25.9c-0.2,3.2,1.8,5.8,6.1,8.7c0.4,0.3,1.3-7.2,1.3-7.2s1,8.6,1.5,8.9c5.7,2.9,16.3,5.1,26.8,0.4
			c6.1-2.8,5.5-6.6,5.5-6.6s-2.6-5.9-3.1-10.5c-0.9-9,2-35.9,2-35.9L463.6,80.5z"/>
		<path class="st8" d="M428.2,138.3c1.2,1.9,1.7,3.3,1.7,3.3l-2.1,1.5l-2-2v-2.2C425.7,138.9,427.8,138.2,428.2,138.3z"/>
		<path class="st52" d="M456.2,34c0.9-0.7,10.2,2.3,10.9,12.9c0.7,10.5-5.8,16.7-6.7,19.2c-4.3-0.9-6.7-6.7-6.7-6.7
			S455.4,34.8,456.2,34z"/>
		<path class="st50" d="M450.1,38c0,2.4,2,4.4,4.4,4.4c2.4,0,4.4-2,4.4-4.4c0-2.4-2-4.4-4.4-4.4C452,33.7,450.1,35.6,450.1,38z"/>
		<path class="st8" d="M429.9,44c0,0-2.1,2.9-2.8,7.4c-0.1,0.6,0.5,1.2,0.7,1.5c-0.8,6.1,0.9,14.8,1.4,16.2c0.3,0.8,3.3,2.3,4.4,2.1
			c8.6-0.9,11-4.5,12.1-5.8c1.1-1.2,1.4-3.7,1.4-3.7s2.2,0.1,3.5-2.1c0.9-0.5,3.9-2.3,3.9-2.3l0.7-9.8l-17.8-8L429.9,44z"/>
		<path class="st53" d="M450.5,59.6c0,0,2.9-5.1-0.1-5.7c-3-0.6-2.8,4.7-5.3,4c-1.3-0.4,0.8-0.8-2.2-3.3c-1.5-1.2,1.6-2.4,0.4-4.5
			c-0.4-0.8-7,0.5-11.1-2.2c-2.8-1.8-2.3-4.2-2-5.1c0.5-1.5,8.9-16.3,22.9-6c10.3,7.6,5.5,17.2,4.7,18.5
			C455,60.2,450.5,59.6,450.5,59.6z"/>
		<path class="st8" d="M425.7,141.1c0,0,0.4,4.3,1.1,5.8c0.6,1.6,4.4,6.4,3.2,7.2c-1.3,0.8-6.3-3-7.4-4.3c-1.7-2-4-8.7-5.3-14.8
			c-0.1-0.5,3.7-1.7,5.1-1c2.9,1.4,5.8,4.3,5.8,4.3L425.7,141.1z"/>
		<path class="st50" d="M448.3,104.8c0,0-2.7,9.6-12,5.2C443.6,111.1,448.3,104.8,448.3,104.8z"/>
		<path class="st50" d="M428.6,99.9c0.5-3.7,2.4-7,4.9-9.6c-1.2,1.4-2.1,2.9-2.8,4.6c-0.7,1.6-1.2,3.3-1.4,5.1
			c-0.1,1.7,0,3.5,0.2,5.3l0.7,5.3c0.4,3.6,0.8,7.2,0.9,10.8c0.1,1.8,0.1,3.6,0.1,5.4c0,1.8-0.1,3.6-0.2,5.4
			c-0.2-3.6-0.4-7.2-0.7-10.8c-0.3-3.6-0.7-7.1-1.1-10.7c-0.2-1.8-0.5-3.6-0.7-5.4C428.5,103.6,428.4,101.8,428.6,99.9z"/>
		<g>
			<path class="st14" d="M499.4,121.2c5.8,1.3,1.1,12.5-1.9,11.3c-3.1-1.3-6.9-3.2-6.9-3.2l3.8-9.1
				C494.4,120.2,494.3,120.1,499.4,121.2z"/>
			<polygon class="st5" points="501.7,123.7 496.5,121.6 492.7,122.7 491.6,128 494.3,129.6 498.7,129.8 			"/>
			<path class="st8" d="M501.7,123.7c0,0,5.1-0.4,7.5,0c2.3,0.4,6.3,2.8,6.9,3.5c0.6,0.7-1,1.7-1,1.7s3.2,2.5,4.9,3.3
				c1.7,0.8,1.7,3.7-0.4,5.2c-2.1,1.5-8.6,1.2-11.7,0c-3.1-1.2-5.3-5-9.1-7.7c-0.8-0.6-0.6-2.1,0.5-4
				C500.1,124.1,501.7,123.7,501.7,123.7z"/>
			<path class="st50" d="M456,80.5c7.4-4.9,12.3,5.2,12.3,5.2s14.2,28.8,15.7,30.3c3.2,0.7,10.2,4,15.4,5.2c-5.7,0.5-8,8.8-1.9,11.3
				c-7.6-2.7-19.4-5.4-22.4-8.3c-3-2.9-19.9-32.3-19.9-32.3S450.1,84.4,456,80.5z"/>
		</g>
	</g>
</switch>

</svg>
