<?xml version="1.0" encoding="utf-8"?>
<!-- Generator: Adobe Illustrator 27.1.1, SVG Export Plug-In . SVG Version: 6.00 Build 0)  -->










<svg version="1.1" id="Layer_1" xmlns="http://www.w3.org/2000/svg" xmlns:xlink="http://www.w3.org/1999/xlink" x="0px" y="0px" viewBox="0 0 600 600" style="enable-background:new 0 0 600 600;" xml:space="preserve">
<style type="text/css">
	.st0{fill:#FFC5B3;}
	.st1{fill:#D89C55;}
	.st2{fill:#000206;}
	.st3{fill:#CC8C46;}
	.st4{fill:#E8B470;}
	.st5{fill:#C1C1C1;}
	.st6{fill:#1E1E1E;}
	.st7{fill:#045999;}
	.st8{fill:#DDDDDD;}
	.st9{fill:#FFAD97;}
	.st10{fill:#F7941D;}
	.st11{fill:#FFFFFF;}
	.st12{fill:#DF3F33;}
</style>
<switch>
	
	<g>
		<g>
			<g>
				<path class="st0" d="M443.5,247.6c0,0,8.5,31.7,7.6,43.4s-15.6,44.7-15.6,44.7s-12.7-19.3-12.7-41.5s4.7-46.6,4.7-46.6H443.5z"/>
				<path class="st1" d="M435.8,269.5l15.3-5.6c0,0-4.3-19.4-7.6-27.1c-2.5-5.8-4.8-11.9-12.2-13.3c-5.8-1.1-9.9,3.1-10.7,7.6
					C419.3,238.8,435.8,269.5,435.8,269.5z"/>
				<path class="st2" d="M432.7,529.9c-2.2,5.2-7.2,4.7-17.2,1c-9-3.2-16.3-6.9-22.7-11.6c-6.4-4.7-6.4-5.3-7.3-8.5
					c-1.2-4.5,5.3-7,16.2-3.6c1.1,0.3,2.1,0.6,3,1c-2,0.3-4.1,1.1-4.9,2.7c-2,3.7,4.2,7.7,10.7,10.9c6.5,3.2,11.8,3.2,15,1.8
					c2.4-1.1,5.5-2.5,7.1-3.1C433.1,524.8,434,526.8,432.7,529.9z"/>
				<path class="st0" d="M402.7,476.3L402.7,476.3c0.1,0.9-0.3-8-0.5-19.2c-7.4,3.5-15.4,5.2-23.7,6.7c0.7,5,1.4,10,2.2,14.7
					c1.8,21.5,3.4,49.3,3.4,49.3s-3-1.3-9-3.3c-2,0.3-4.1,1.1-4.9,2.7c-2,3.7,4.2,7.7,10.7,10.9c6.5,3.2,11.8,3.2,15,1.8
					c2.4-1.1,5.5-2.5,7.1-3.1c-0.4-2.9-0.8-6.8-0.2-12.7C403.7,512.5,403.3,490.9,402.7,476.3z"/>
				<path class="st0" d="M433.4,459.4c0.2-2.7,0.5-5.7,0.8-8.7c-7.7,2.5-15.9,3.4-23.5,2.7c0.4,8.6,0.9,16.5,1.2,21.3
					c1,16.1,1.7,36.8,1.7,36.8s-3-1.3-9-3.3c-2,0.3-4.1,1.1-4.9,2.7c-2,3.7,4.2,7.7,10.7,10.9c6.5,3.2,11.8,3.2,15,1.8
					c2.4-1.1,5.5-2.5,7.1-3.1c-0.4-2.9-0.8-6.8-0.2-12.7C433,498.2,432.7,468.6,433.4,459.4z"/>
				<path class="st2" d="M403.2,546.2c-2.2,5.2-7.2,4.7-17.2,1c-8.9-3.2-16.3-6.9-22.7-11.6c-6.4-4.7-6.4-5.3-7.3-8.5
					c-1.2-4.5,5.3-7,16.2-3.6c1.1,0.3,2.1,0.6,3,1c-2,0.3-4.1,1.1-4.9,2.7c-2,3.7,4.2,7.7,10.7,10.9c6.5,3.2,11.8,3.2,15,1.8
					c2.4-1.1,5.5-2.5,7.1-3.1C403.6,541.1,404.5,543.1,403.2,546.2z"/>
				<path class="st3" d="M438.3,425.9c-1.1,16.5-2.7,72.7-4.6,83c-6.5,3.8-19.4,3.8-25.7-3.8c0-15.9,2.1-51.5,1.7-65.8
					c-0.4-15.7,3.2-52.4,2.7-60.1c-5,14.5-7.4,21.3-8.7,46.7c-2,40,1.3,93,0.8,101.8c-12.1,3.3-18.1,1.5-22.5-3.7
					c0-3.1-10.6-79.8-10.6-84.7c-0.1-20.1,3.6-89.2,6.7-103.6c2-9.7,3.3-21.5,3.3-21.5l48-5.9c0,0-2.1-0.9,6.3,18.9
					c8.4,19.9,7.1,35.1,5.9,44.4C440.9,378.9,438.6,419.7,438.3,425.9z"/>
				<path class="st0" d="M399.7,166.4c-2.5,1.7-12.7,1.4-15.3,22c-2.3,18.2,3,19.9,6.7,21.5c2,0.9,9.5,3.3,9.5,3.3l-0.8,18.4
					c0,0,9,3.6,17.7,0c8.7-3.6,8.7-3.6,8.7-3.6s-3.4-5.8-2.8-15.9c0.7-12.5,5.1-30.3,2-37C419.5,163.2,406.5,161.7,399.7,166.4z"/>
				<path class="st4" d="M443.3,338c-2.7,3.5-6.6,4-12.4,5.8c-0.9-5-4.6-10.2-4.6-10.2s-1.7,8-2.6,12.9c-5,1.2-14.4,2.6-16.6,2.9
					c-9.7,1.2-27.6-4.8-32.1-12c5.9-18.5,8.7-54.3,8.7-54.3s-8.7-23.6-2.5-36.1c6.2-12.5,14.1-13.9,20.1-15.9
					c6.3-2.1,26.5-5.7,26.5-5.7s19.2,14.9,14.9,33.6c-3.5,15.6-3.7,25-4.3,34.2C437.9,300.4,443.2,331.1,443.3,338z"/>
				<path class="st0" d="M374.5,263.2c0,0-6.9,15-11.8,28.9c-5.7,1.7-13.4,5.6-22.9,9.6c-12.6,5.3-16.4,7.2-21,5.9
					c-4.6-1.3-9.6,0.1-14.7-1.2c-5.2-1.3-4.6,2.7-1.8,3.4c2.9,0.8,4.9,3.2,4.9,3.2s-3.7,2-10.8,5.3c-6.3,2.9-5.6,8.4-0.1,8.6
					c9.2,0.3,21.8-4.2,27.6-6.6s39-4.2,51.2-11.6c1.9-1.1,6.2-7.3,9-12.9c6.5-13,11.8-26,11.8-26L374.5,263.2z"/>
				<path class="st1" d="M388.1,237.6c3.7-0.9,10.9,2.3,13.3,10.6c3.7,12.8-1.2,18.9-4.1,25.3c-0.9,2.1-5,9.4-5,9.4
					c-3.3,0.4-8.5,0.4-15.4-3.4c-6.2-3.5-7.6-8.6-7.6-8.6s2.3-9,4.9-17.1C376.6,246.6,380.7,239.4,388.1,237.6z"/>
				<path class="st1" d="M394.1,233.7c0,0,2.4-5.9,8.7-6.5c18.3-1.8,21.3-4.3,21.3-4.3s4-0.7,5.9,2.6c1.2,2.1,2.2,3.8,2.2,3.8
					S410.8,239.9,394.1,233.7z"/>
				<path class="st2" d="M382.6,180.9c0,0,5.1,3.6,11.1,6c-1.9,32.9-8.6,39.7,4.7,47.6c3.9,2.3,12.2,5.4,13.7,18.9
					c2.3,20.9,15.4,25,15.4,25s13.6-13.1,13.9-44.5c0.1-16.5-1.1-59.3-7.4-67c-10.2-12.4-21.3-12.7-31.8-8.2
					C393.7,156.7,384.7,160.4,382.6,180.9z"/>
			</g>
			<path class="st0" d="M291.3,192.1c-2.3-2.8-16.1-20.5-21.9-29.5c-5.8-9-14.2-29.4-14.2-29.4l-13.4,25.1c0,0,12.9,21,21.4,33.8
				c8.5,12.8,29,23.4,34.5,33.4c8.7,15.8,8.4,15.5,15.9,21c4,2.8,16.5,9.7,12.9-4.9c-1-4-4.2-5.1-5.9-7c-1.4-1.6-2.9-3-1.3-4
				c1.6-1,6.2-0.5,7.3-1.2c3.6-2.4-5.3-3.6-7.6-4.9c-4.6-2.7-7.8-5.1-10.6-8.6C299.3,204.5,292.5,193.6,291.3,192.1z"/>
			<path class="st5" d="M226.5,107.9l5.2,41.2c0,0,5.4,8.1,11.4,16.7c10.7-5,21-13.2,26.2-22.6c-6.4-10.4-14.1-19.8-19.6-26.8
				C238.2,101.7,226.5,107.9,226.5,107.9z"/>
			<path class="st6" d="M271.1,424.3c-6.3-6.2-11-11.3-11-11.3l-28.7-1.2v9.5c0,0,0.9,3.9,5.3,6.8c4.5,2.8,13.2,7.7,18,9.4
				c6.7,2.4,18.7,5,24,5.2c6,0.2,8.6-2.6,5.5-5.7C278.8,431.7,277,430,271.1,424.3z"/>
			<path class="st6" d="M185,424.9l-25.9-2.9c0,0-3.6,16.5,2.4,33.5c6.1,17,16.7,17.2,20.4,15.8c3.7-1.3,5.5-12.1,4.8-24.4
				C186.1,434.6,185,424.9,185,424.9z"/>
			<path class="st7" d="M242.8,209c0,0-54.5-16.4-52.9-4.7c0,0-19.2,18.3-17,53.2c1,16-3.3,52.3-4.6,79.8
				c-16.1,36.2-19.2,78-19.2,78s-2.5,7,10.1,13.2c12.5,6.3,30.8-0.3,30.8-0.3s0-53.9,14.5-84.5c7.9-16.7,10.1-74.7,10.1-74.7
				l12.5,62.1l1.1,78.7c0,0,8.9,8.8,19.7,8.8c14.1,0.1,14.8-8.2,14.8-8.2s2.5-67.5-3.1-105.2C254.5,272.2,242.8,209,242.8,209z"/>
			<path class="st8" d="M223.2,108.4c-2.4,1-3.6,3.4-3.6,3.4l-28.8,0.5c0,0-23.2,12.2-28.7,30.3c-0.4,5.7,0.1,11.6,1,17.5
				c0.8,0.5,6.3-0.4,6.7,0.8c7.3,21.3,6.3,47.3,4.8,68.7c2.7,5.4,4.8,7,11.1,9.1c18.6,6.3,47.8,0.6,58.9-5.6
				C238.5,191.3,256.5,138.7,223.2,108.4z"/>
			<path class="st7" d="M218.9,139.2c0,0-1.6,13.5-2.6,16.5c-1,2.9-1.3,3.8-1.3,3.8l10.5,12.1l5.8-13.6c0,0-7.4-17.9-8.9-20.1
				C221.1,135.6,218.9,139.2,218.9,139.2z"/>
			<path class="st6" d="M245.3,156.3c-3.7-32.8-17.2-48.7-17.2-48.7l-11.7,0.2c0,0,9.3,20.5,10.2,29.8c1.5,15.5-2.7,29.7-2.7,29.7
				s-11.1-28.9-23-40.9c-11-11.1-13.6-11.8-13.6-11.8l-9.6,6.8c0,0,14.1,17.7,12,41.4c-1.8,20.5-16.2,24.5-16.2,24.5l-3.6,50.3
				c0,0,18.3,13.6,32.7,14.6c18.6,1.3,46.7-12.4,46.7-12.4s-3.2-22.4-3.2-37.1C246,179.8,245.9,162.3,245.3,156.3z"/>
			<path class="st9" d="M216.3,107.7l-21.8-15.9l-4.6,25.7c0,0,4.4,5.3,11,8.7c5.5,2.9,12.1,5.5,18.1,7.4c2.5-4.5,0-10.8,0-10.8
				L216.3,107.7z"/>
			<path class="st0" d="M191.9,63.7c-4.8,6.2-6.3,21.6,0.3,32.4c5.9,9.6,19.4,15.1,25.4,16.1c10.7,1.7,22.2-27.8,10-45.9
				C216,49.1,198.2,55.7,191.9,63.7z"/>
			<path class="st10" d="M202.2,50.6C187.9,52.9,181.7,70.2,182,78c0.5,12.6,10.3,18.1,10.3,18.1s-1.6-6.2-0.2-9
				c1.2-2.3,4.9-2.7,6.1,1.4c1.4,0.4,3,0.3,3,0.3l-1.3-8.3c0,0,6.6,2.2,14.8,1.5c10-0.9,14.2-4.7,16.6-8.8
				C228.2,52.5,216.5,48.2,202.2,50.6z"/>
			<path class="st0" d="M218.9,217.2c-11.1-5.2-45.8-19.3-45.8-19.3s4.5-33.7,5.3-46.8c0.8-13.1-19.3-8.3-19.3-8.3s-6.9,22-7.3,34.5
				c-0.5,12.5-4.2,32,0.3,38.3c3.6,5,48,13.2,63,16C216.3,225.2,216.7,223.5,218.9,217.2z"/>
			<path class="st0" d="M240.7,220.9c-3.6-1.8-11.2-2.4-12.6-3.7c-1.3-1.2,3.8-3.7,4.1-5.5c0.4-2.5-0.5-2.8-1.9-2.3
				c-4.4,1.7-15.5,3.5-19.9,4c-1.9,5.6,1.2,11.4,0,17.3c10.1,2,21.6,5.5,25,5.7C250.9,237.6,247.6,224.2,240.7,220.9z"/>
			<path class="st5" d="M172.9,124.8c-16,2.1-18.1,19.2-22.5,43.3c11.2,5.6,21,9.2,31.6,2.6c1-4.8,2.5-11.9,2.7-14.5
				C185.4,145.4,181.8,123.6,172.9,124.8z"/>
			<path class="st11" d="M217,111.8c1.4,8.1,1.4,19.4,1.4,19.4l12.9-6l-7.1-15.7C223.7,110.2,220.1,113,217,111.8z"/>
			<path class="st11" d="M191.6,108.2c0,0-2.9,4.2-2.9,6.4c-0.1,2.2,4.5,13.5,10,20.7c5.8-3,20.3-3,20.3-3s-8.3-8-13.1-11.8
				C201,116.6,191.6,108.2,191.6,108.2z"/>
			<path class="st7" d="M216.9,131.2c-2.2,0.8-3.4,1.2-3.4,1.2s2.4,7.3,4.6,8.7c1.4,1,4.2,0.1,5.1-1.5c1.4-2.3-1.2-9.9-1.2-9.9
				S220,130.1,216.9,131.2z"/>
			<g>
				<path class="st12" d="M233.1,190.5l1-2.5c0.4-1,7.6-40.2,4.1-56.3c-2.5-11.7-8.5-20.5-11.6-24.7c-0.4,0.5-0.7,0.9-1.3,1.7
					c2.9,3.8,8.1,11.9,10.7,23.5c2.7,12.6-0.7,45.7-3,52.5c-2.9-5.8-13.3-35-25.1-48.3c-7.5-8.4-18.2-16.1-22.9-19.5
					c-2.3-1.7-3.3,0.6-2.5,1.2c1.8,1.5,3.7,2.8,5.8,4.2c4.7,3.3,10.6,7.4,18,15.6c14.8,16.5,25.9,50,26,50.2L233.1,190.5z"/>
			</g>
			<polygon class="st11" points="239.6,175.9 241.1,199 241.1,199 226.4,207.5 224.9,184.4 			"/>
			<polygon class="st12" points="238.6,178 238.8,180.6 226.3,187.8 226.2,185.2 			"/>
			<polygon class="st8" points="234.2,185.5 235.3,200.6 227.8,205 226.7,189.8 			"/>
		</g>
	</g>
</switch>

</svg>
