<?xml version="1.0" encoding="utf-8"?>
<!-- Generator: Adobe Illustrator 27.1.0, SVG Export Plug-In . SVG Version: 6.00 Build 0)  -->










<svg version="1.1" id="Layer_1" xmlns="http://www.w3.org/2000/svg" xmlns:xlink="http://www.w3.org/1999/xlink" x="0px" y="0px" viewBox="0 0 249.8 696.7" style="enable-background:new 0 0 249.8 696.7;" xml:space="preserve">
<style type="text/css">
	.st0{fill:#33251E;}
	.st1{fill:#E0814E;}
	.st2{fill:#AE5928;}
	.st3{fill:#FFFFFF;}
	.st4{fill:#2F3062;}
	.st5{fill:#11111C;}
	.st6{fill:#FCD1BB;}
	.st7{fill:#F8A695;}
	.st8{fill:#DB6952;}
	.st9{fill:#D96138;}
	.st10{fill:#A43C23;}
	.st11{fill:#DE9B7A;}
	.st12{fill:#4E2F22;}
</style>
<switch>
	
	<g>
		<g>
			<g>
				<g>
					<path class="st0" d="M186.9,660.5c0,0-0.4,4.6,0.6,5.6c1,1,5.7,3.9,6.8,4.8c1.1,0.9,6.1,9.7,12.2,14.2
						c6.8,5.1,14.5,9.5,22.5,10.9c8.3,1.4,13.3,0.2,17.4-2.2c4.1-2.5,3.2-10.2,3.2-10.2L186.9,660.5z"/>
				</g>
				<g>
					<path class="st1" d="M249.7,684.6c-0.1,0.9-0.3,1.8-0.7,2.7c-2,4.3-6.9,5.8-11.3,6.3c-5.1,0.6-10.3-0.3-15.1-2.2
						c-4.2-1.7-8.1-4.3-11.9-6.9c-3.2-2.2-6.5-4.7-8.9-7.7c-0.2-0.3-0.4-0.6-0.6-0.8c-0.3-0.4-0.5-0.7-0.8-1.1
						c-6.9-9.6-7.1-8.2-10.4-10.4c-0.2-0.1-0.3-0.2-0.5-0.3c-0.5-0.4-0.9-0.8-1.3-1.3c-2.3-2.9-2.4-7.6-2.7-11.1
						c-0.2-2.3-0.1-4.6,0.1-6.9c0.1-0.9,0.1-1.8,0.1-2.7c0.1-2.3,0.1-4.7-0.3-7c-1.1-7.4-2.6-15.7-2.6-15.7l29.6-6.3
						c0,0,5,20.9,9.5,28.7c3.5,6,10.3,15.7,16.1,22.9c0.7,0.8,1.3,1.7,2,2.4c1,1.2,1.9,2.3,2.8,3.2c1.5,1.6,2.9,3.4,4.1,5.2
						C248.5,678.3,249.9,681.4,249.7,684.6z"/>
				</g>
				<g>
					<path class="st2" d="M217.9,642.4c-3.9-9.7-7.2-19.7-8.2-30.2c-0.1-1.1-1.8-1.1-1.7,0c0.6,6.4,1.9,12.6,3.9,18.8
						c1,3,2.1,6,3.2,9c0.6,1.5,1.2,3,1.8,4.4c0.4,1,0.8,2,1.2,2.9c2.3,3.4-3.6,6.3-6.2,5.4c-1.5-0.5-2.7-1.4-3.5-2.7
						c-1.3-1.4-2.3-3.1-3.2-4.7c-1.7-3-3.1-6.2-4.2-9.4c-2.4-7.1-3.6-14.5-4.6-21.9c-0.1-1.1-1.9-1.1-1.7,0
						c1.2,9.1,2.6,18.2,6.3,26.7c2.4,5.6,6.3,14.6,13.6,14c2.3-0.2,4.8-1.3,5.6-3.6C221.2,648.2,218.9,645,217.9,642.4z"/>
				</g>
				<g>
					<path class="st2" d="M190.1,664.5c-0.2-0.1-0.3-0.2-0.5-0.3c-0.5-0.4-0.9-0.8-1.3-1.3c0.1-3.7,0.1-7.5-0.3-11.2
						c-0.3-2.5-0.8-4.9-2.3-6.8c0.1-0.9,0.1-1.8,0.1-2.7c2.3,2.3,3.5,5.7,3.9,8.8C190.1,655.4,190.3,659.9,190.1,664.5z"/>
				</g>
				<g>
					<path class="st2" d="M240,667.2c0,1.6-0.2,3.1-0.7,4.5c-1.5,4.1-6.2,6.3-10.2,7c-5.1,0.9-10.4-0.4-14.8-3.1
						c-1.8-1.1-3.3-2.6-5.1-3.7c-1-0.6-2.3-1.2-3.5-0.9c-1.6,0.5-2.8,2.7-3.5,4.7c-0.1,0.4-0.2,0.7-0.3,1.1
						c-0.2-0.3-0.4-0.6-0.6-0.8c-0.3-0.4-0.5-0.7-0.8-1.1c0.4-1.3,0.9-2.6,1.7-3.6c1.7-2.1,3.8-3.6,6.5-2.2c0.8,0.5,1.6,1.1,2.3,1.7
						c0.8,0.6,1.5,1.1,2.3,1.6c1.6,1.1,3.2,2,5,2.8c4.7,2.1,10,2.7,14.7,0.3c4.2-2.2,5.3-6.3,5-10.7
						C238.7,665.6,239.3,666.5,240,667.2z"/>
				</g>
				<g>
					<path class="st3" d="M219.5,641.1c-7-1.9-14-0.4-19.7,4c-0.9,0.7,0.4,1.9,1.2,1.2c5.2-4,11.7-5.3,18.1-3.6
						C220.1,643,220.6,641.4,219.5,641.1z"/>
				</g>
				<g>
					<path class="st3" d="M215.3,632c-7-1.9-14-0.4-19.7,4c-0.9,0.7,0.4,1.9,1.2,1.2c5.2-4,11.7-5.3,18.1-3.6
						C215.9,634,216.4,632.3,215.3,632z"/>
				</g>
			</g>
			<g>
				<g>
					<path class="st0" d="M100.6,659v7.7c0,0.7-0.6,1.4-1.4,1.4H78.8c-0.7,0-1.4-0.6-1.4-1.4l0,0c0-0.8-0.6-1.4-1.4-1.4
						c-3.2,0-11.1,0.1-14.8,0.7c-4.6,0.7-8.9,2.3-13.1,2.7c-4.2,0.4-34.7,1.4-42-1.6c-1.1-0.4-0.7-5.6-0.7-5.6L100.6,659z"/>
				</g>
				<g>
					<path class="st1" d="M100.9,646.2c-0.1-0.6-0.3-1.5-0.5-2.5c-0.1-0.5-0.2-1.1-0.3-1.7c-0.8-4.3-2-9.8-2.1-11.1
						c-0.3-3.3-0.4-15.8-0.7-19.2c-0.2-2.7,0.1,3.7-2.9,2.9c-4.1-1.1-9.2-0.7-13.5-0.3c-0.2,0-0.4,0-0.6,0c-0.6,0.1-1.2,0.1-1.8,0.2
						c-2.9,0.3-5.7,0.6-8.6,1c-0.3-0.4-0.9-0.6-1.4-0.2c-0.2,0.2-0.4,0.3-0.6,0.5c-1.1,0.2-2.2,0.3-3.2,0.5
						c-1.1,0.2-0.6,1.8,0.5,1.7c0.1,0,0.1,0,0.2,0c-1.3,1.1-2.7,2.3-4.1,3.4c-0.4,0.4-0.9,0.7-1.3,1.1c-2.4,2-4.7,3.9-7.1,5.8
						c-0.4,0.4-0.8,0.7-1.3,1c-1.8,1.5-3.6,2.9-5.4,4.3c-0.5,0.4-1,0.8-1.5,1.2c-1.6,1.3-3.2,2.5-4.9,3.8c-3.8,1.8-7.6,3.4-11.4,4.9
						c-0.5,0.2-1.1,0.4-1.6,0.7c-2.6,1-5.3,2-8,3c-5.4,2-13.2,6.1-13.6,12.8c-0.2,2.9,1.9,3.9,4.5,4.3c2.4,0.4,4.8,0.5,7.2,0.6
						c8.1,0.3,16.1,0.4,24.2,0.3c6.8-0.1,12.1-2,18.4-2.5c0.6-0.1,1.2-0.1,1.8-0.1c0.4,0,0.8,0,1.2,0c3.3-0.2,9.7-0.5,13.1-0.5
						c1.1,0,2.7,0,4.7,0c0.6,0,1.1,0,1.7,0c7.8,0.1,18.6,0.5,18.6,0.5S101.8,651.1,100.9,646.2z"/>
				</g>
				<g>
					<path class="st2" d="M81.7,613.4c-0.2,0.3-0.5,0.6-0.7,0.9c-6.3,8.1-13.2,16.9-22.7,21.2c-3.5,1.6-8.1,2.6-11.7,0.7
						c-0.7-0.4-1.3-0.9-1.8-1.4c0.5-0.4,1-0.8,1.5-1.2c4.3,4.9,15.5-1.6,20.2-5.6c4.6-4,8.5-8.7,12.2-13.5c0.6-0.8,1.2-1.5,1.8-2.3
						C81.2,611.3,82.4,612.5,81.7,613.4z"/>
				</g>
				<g>
					<path class="st3" d="M59.5,637.6c-1.8-2.4-3.8-4.6-6-6.6c-0.4-0.4-1.1-1-1.8-1.7c0.4-0.3,0.9-0.7,1.3-1c3,2.5,5.6,5.3,8,8.4
						C61.7,637.6,60.2,638.4,59.5,637.6z"/>
				</g>
				<g>
					<path class="st3" d="M67.3,630.3c-1.3-3-3.6-5-6.1-7c-0.3-0.3-0.7-0.6-1-0.9c0.4-0.4,0.9-0.7,1.3-1.1c0.1,0.1,0.1,0.1,0.1,0.1
						c2.8,2.3,5.6,4.6,7.1,8C69.2,630.5,67.7,631.4,67.3,630.3z"/>
				</g>
				<g>
					<path class="st2" d="M100.5,643.7c-5.5,0.5-10.8,2.2-14.5,6.7c-2.7,3.3-3.6,7.5-4,11.7c-0.6,0-1.2,0-1.7,0c0-0.2,0-0.4,0.1-0.5
						c0.5-4.4,1.4-8.9,4.4-12.4c4-4.7,9.6-6.5,15.4-7.1C100.3,642.7,100.4,643.2,100.5,643.7z"/>
				</g>
				<g>
					<path class="st2" d="M61.3,662.7c-0.6,0-1.2,0-1.8,0.1c-0.4-1.3-0.8-2.7-1.3-4c-1.3-3.9-2.7-10.7-8.8-9.4
						c-2.5,0.5-4.6,1.9-7.1,2.3c-6.5,0.9-12.3-2.3-15.4-7.4c0.6-0.2,1.1-0.4,1.6-0.7c3.1,4.7,8.7,7.5,14.7,6.2
						c3.5-0.8,7.2-3.7,10.9-2.1c3.8,1.7,4.9,8,6,11.4C60.6,660.3,61,661.4,61.3,662.7z"/>
				</g>
			</g>
			<g>
				<path class="st4" d="M228.2,614.2c0,0-19.5,8.5-40.7,7.9c-13-0.3-24.6,0-24.6,0s-4.5-16.4-6.8-35.2c-0.2-1.5-0.3-3-0.5-4.6
					c-0.4-4.6-0.7-9.3-0.8-13.8c-0.2-24.9-14-56.2-16.1-90.9c-1.3-20.2-7-47.6-11.6-67c0,0,0,0,0,0c-3.3-14-6-23.9-6-23.9
					s1.4-94.3-1.7-99.1c-3.1-4.7-6.1-26.6-4.4-33.9c1.7-7.3,9.5-18.9,9.5-18.9l4.7-0.4l23.4-2.2l11.2,8.8l1.9,1.5l10.5,8.3
					c0,0,7.9,2,16.2,49.4c0.1,0.6,0.2,1.1,0.3,1.7c1.3,7.5,2.6,16.2,3.9,26.2C206.1,402.8,228.2,614.2,228.2,614.2z"/>
			</g>
			<g>
				<path class="st5" d="M171.2,502.6c-2.1,28.6-7.1,56.9-15.1,84.4c-0.2-1.5-0.3-3-0.5-4.6c7.2-26.1,11.9-52.8,13.8-79.8
					C169.5,501.5,171.3,501.4,171.2,502.6z"/>
			</g>
			<g>
				<path class="st4" d="M129.1,371.8c-0.1,12.5-0.8,25.6-2,38.8c0,0,0,0,0,0c-2.5,28.5-6.6,57.4-8.7,81.6c0,0,0,0,0,0
					c-3,35.4,0,63.9-3.4,80.7c-3.4,16.8,0,49.2,0,49.2s-10.8,1.3-25.9,0c-15.1-1.3-44-3.5-44-3.5s2-288.4,4.2-315.6
					c0.1-0.8,0.1-1.6,0.2-2.4c0.1-0.6,0.1-1.2,0.2-1.7c2.8-25.4,12.7-46.9,12.7-46.9s5.5-1.7,13.4-4.2c0.6-0.2,1.2-0.4,1.7-0.6
					c19.6-6.1,51.4-15.9,51.6-15c0,0.1,0,0.8,0.1,2.1C129.4,249.2,129.2,335.7,129.1,371.8z"/>
			</g>
			<g>
				<path class="st5" d="M130.5,312.7c-0.3-18.9-0.2-37.7,0.1-56.6c0-1.1-1.7-1.1-1.7,0c-0.3,16-0.4,32.1-0.3,48.2
					c0.1,7.8,0.2,15.7,0.4,23.5c0.1,7.6-0.6,18.1-10.1,19.4c-1.1,0.2-0.6,1.8,0.5,1.7C135,346.7,130.7,323.2,130.5,312.7z"/>
			</g>
			<g>
				<path class="st5" d="M77.5,245.1c0,0.8,0,1.5-0.1,2.3c-0.4,14-3,27.9-8.1,41c-1.8,4.8-4.2,9.6-9.2,11.7
					c-3.5,1.5-7.1,1.4-10.8,0.7c0.1-0.6,0.1-1.2,0.2-1.7c4.6,0.8,9.3,0.7,13-2.5c4.3-3.8,6-10.7,7.6-16c3.3-10.6,5-21.5,5.4-32.5
					c0-0.9,0.1-1.9,0.1-2.8C75.8,244,77.5,244,77.5,245.1z"/>
			</g>
			<g>
				<path class="st5" d="M192.7,302c-4.3-0.1-8.6-0.8-12.4-3.1c-4.6-2.8-6.4-7.3-7.8-12.3c-4.2-14.9-7-30.1-8.7-45.5
					c0-0.2-0.1-0.4-0.1-0.6c-0.1-1.1,1.6-1.1,1.7,0c0.1,0.7,0.2,1.4,0.2,2c1.4,12.5,3.7,24.9,6.8,37.1c1.5,5.9,2.6,13.1,7.8,17
					c3.6,2.6,7.8,3.4,12.2,3.6C192.5,300.9,192.6,301.4,192.7,302z"/>
			</g>
			<g>
				<path class="st5" d="M127.1,410.6C127.1,410.6,127.1,410.6,127.1,410.6c-2.5,28.5-6.6,57.4-8.7,81.6c-2.5-8.9-5-20-5.3-30.2
					c-0.6-21.3,4.6-29.9,1.9-45.8c-2.7-15.8,4.4-74.5,4.4-74.5s0.9,11.8,3.5,27.6C125.4,384.9,127.1,409.7,127.1,410.6z"/>
			</g>
			<g>
				<path class="st5" d="M122.1,252.2c-0.4-0.2-1,0.2-1.1,0.6c-4.5,16.9-3.1,35.5-3.1,52.8c-0.1,19,0,38.1,0.1,57.1
					c0,1.1,1.7,1.1,1.7,0c-0.1-18.5-0.2-36.9-0.1-55.4c0.1-17-1.4-35.4,2.6-52.2c0.5,0.2,1.2,0,1.3-0.7
					C123.8,253.2,123.2,252.6,122.1,252.2z"/>
			</g>
			<g>
				<path class="st1" d="M63.2,256.7c0,0,26.5,0.4,52.6,0.8c26.1,0.3,62.4-2.7,62.4-2.7S143,239,137.9,238.6
					c-5.2-0.4-14.7-1.1-27.5,1.5c-12.8,2.6-18.9,6-24.7,7.7C79.8,249.6,63.2,256.7,63.2,256.7z"/>
			</g>
			<g>
				<path class="st3" d="M129.4,258.7h-19.6c-2.7,0-4.9-2.2-4.9-4.9v-5.6c0-2.7,2.2-4.9,4.9-4.9h19.6c2.7,0,4.9,2.2,4.9,4.9v5.6
					C134.3,256.5,132.1,258.7,129.4,258.7z M109.8,245.1c-1.7,0-3.1,1.4-3.1,3.1v5.6c0,1.7,1.4,3.1,3.1,3.1h19.6
					c1.7,0,3.1-1.4,3.1-3.1v-5.6c0-1.7-1.4-3.1-3.1-3.1H109.8z"/>
			</g>
			<g>
				<path class="st4" d="M91.1,234.9c-0.9,12.9-1.6,25.9-2.1,38.9c0,1.1,1.7,1.1,1.7,0c0.5-13,1.1-25.9,2.1-38.9
					C92.9,233.8,91.2,233.8,91.1,234.9z"/>
			</g>
			<g>
				<path class="st4" d="M151.1,234.9c0.9,12.9,1.6,25.9,2.1,38.9c0,1.1-1.7,1.1-1.7,0c-0.5-13-1.1-25.9-2.1-38.9
					C149.3,233.8,151.1,233.8,151.1,234.9z"/>
			</g>
			<g>
				<path class="st6" d="M199.4,126.4c-1.3-11.1-9-17.7-18.9-20.9c-1.1-0.4-2.3-0.7-3.4-1c-9.5-2.3-19.1-2.8-28.7-2.9h-0.9
					c-0.3,0-0.6,0-1,0c-4.7,0-9.4,0-14.1,0c-10.8,0-21.7-0.4-32.5-0.3c-5.3,0-10.6,0.3-16,0.7c-0.6,0.1-1.2,0.1-1.8,0.1c0,0,0,0,0,0
					c-4,0.3-7.9,0.7-11.9,1c-8.7,0.8-18.8,0.1-26.7,4.3c-2.7,1.4-5.5,3.1-7.8,5.2c-1.6,1.4-2.9,3.1-3.8,5c-2.5,5.5-1.8,12.2-0.8,18
					c2.3,14.1,9,23.3,12.5,37c2.4,9.5,3.6,19.3,5.6,28.9c0.6,3,1.3,6,2.2,8.9c-1.3,10.8-2.6,22.1-1.5,32.8c0.1,0.8,0.2,1.7,0.3,2.5
					c0.3,2.1,0.8,4.4,1.8,6.4c0.1,0.3,0.3,0.6,0.4,0.9c0.2,0.3,0.4,0.6,0.6,0.9c0.2,0.4,0.5,0.7,0.7,1c2.7,3.2,8.6,2.6,12.3,2.6
					c5.9,0,11.6-1.6,17.3-3.1c6.2-1.5,12.4-3.1,18.6-4.7c4.2-1.1,8.3-2.2,12.4-3.3c0.2,0.1,0.5,0.1,0.7,0.2c0.6,0.1,1.2,0.3,1.8,0.4
					c12.4,2.6,42.7,8,51.9,8.6c6.4,0.4,13.7,0.8,17.1-5.4c0.1-0.2,0.3-0.5,0.4-0.7c0.2-0.3,0.3-0.6,0.4-1c1.5-3.6,1.9-7.8,2.4-11.7
					c0.6-4.2,0.9-8.5,1-12.7c0.8-1.6,1.6-3.3,2.3-5c0.1-0.1,0.2-0.2,0.2-0.4c0-0.1,0-0.2,0-0.2c0.2-0.5,0.4-0.9,0.6-1.4
					c0.2-0.4,0-0.7-0.2-0.9c2.1-14.3,3.7-28.7,4.9-43.2c0.6-7.9,1.1-15.8,1.5-23.7C199.5,141.6,200.3,133.8,199.4,126.4z"/>
			</g>
			<g>
				<path class="st3" d="M125.9,194c-1.1,0.7-1.9,2.5-1.3,3.8c0.5,1,1.6,1.5,2.6,0.9c0.5-0.3,0.9-0.9,1.1-1.5c0.3-0.7,0.3-1.6,0-2.3
					C127.5,193.7,126.6,193.6,125.9,194z"/>
			</g>
			<g>
				<path class="st3" d="M117.9,235c-0.6,1.2-0.2,3.2,0.9,3.9c1,0.6,2.1,0.4,2.6-0.7c0.3-0.6,0.3-1.2,0.1-1.9
					c-0.2-0.8-0.6-1.5-1.3-1.9C119.1,233.8,118.3,234.2,117.9,235z"/>
			</g>
			<g>
				<path class="st3" d="M121.8,149.8c-1.1,0.7-1.9,2.5-1.3,3.8c0.5,1,1.6,1.5,2.6,0.9c0.5-0.3,0.9-0.9,1.1-1.5
					c0.3-0.7,0.3-1.6,0-2.3C123.5,149.4,122.6,149.3,121.8,149.8z"/>
			</g>
			<g>
				<path class="st6" d="M151.1,106.7c-0.6-0.8-1.3-1.7-2-2.7c-0.6-0.8-1.1-1.6-1.7-2.5c-0.6-0.9-1.3-1.8-1.9-2.8
					c-2.2-3.1-4.5-6.1-6.9-8.3c-5.1-4.5-13.9-4.8-20.3-4.8c-2.6,0-5.3,0-7.9,0.2c-6,0.5-15.1,1.8-19.8,5.9c-2.1,1.9-4.1,4.2-5.9,6.5
					c-0.9,1.2-1.8,2.4-2.6,3.6c0,0,0,0.1-0.1,0.1c-0.6,0.8-1.1,1.6-1.7,2.4c-0.4-0.7-1.7-0.6-1.6,0.4c0.1,0.5,0.1,1,0.2,1.5
					c-0.1,0.1-0.2,0.2-0.2,0.3c-0.4,0.6,0,1.1,0.6,1.2c0.3,1.1,0.7,2.2,1.1,3.3c0.5,1.2,1.2,2.4,1.8,3.5c2.6,4.2,6.4,8,9.9,11
					c6.9,5.9,15,10,23.5,13.3c0.3,0.1,0.6,0.2,0.8,0.3c0.6,0.2,1.2,0.5,1.7,0.7c3.1,1.2,6.4,2.2,9.5,1.2c3.6-1.1,7.4-4,9.8-6.9
					c2.6-3.1,3.9-7.1,5.5-10.8c1.7-4,3.3-7.9,5-11.9c0.2-0.5,0.4-1.1,0.7-1.6c0.1-0.3,0.3-0.7,0.4-1c0.2-0.5,0.4-1,0.6-1.5
					c0.2,0.2,0.5,0.3,0.8,0.2C151.1,107.8,151.6,107.2,151.1,106.7z"/>
			</g>
			<g>
				<g>
					<path class="st7" d="M135.3,109.4c-0.2-0.3-0.3-0.6-0.5-0.9c0-0.1,0.1-0.2,0.1-0.3c0.1-0.6-0.3-1-0.8-1.1
						c-5.4-11.1-3.7-23.8-4.4-35.8c-0.1-1.1-1.8-1.1-1.7,0c0.1,1,0.1,2,0.1,3c-0.1,0-0.1,0-0.1,0c-0.2,0.1-0.5,0.2-0.7,0.3
						c-0.1-0.1-0.3-0.1-0.5-0.1c-4,0.5-7.9-0.4-12-0.4c-1.5,0-3.1,0.3-4.9,0.6c-2.3,0.3-4.6,0.7-6.4,0.2c0-0.4-0.1-0.9-0.1-1.3
						c0-0.3,0-0.5-0.1-0.8c-0.1-1.1-1.8-1.1-1.7,0c0,0.5,0.1,0.9,0.1,1.4c0.3,4.5,0.4,9,0.3,13.5c0,1.5-0.1,3-0.2,4.6
						c-0.3,6.1-0.6,12.9-5.4,17.2c-0.8,0.7,0.4,2,1.2,1.2c0.9-0.8,1.7-1.7,2.3-2.7c-0.3,5.7,1.2,11.4,4.6,16.1
						c2.5,3.4,6.3,6.9,10.9,6.1c9.2-1.6,16.2-11,18.7-19.7C134.9,110.8,135.7,110.1,135.3,109.4z"/>
				</g>
				<g>
					<path class="st8" d="M125.8,78.4c-0.5-2.3-7.1,0.3-9.2-0.7c-2-1-4.3-2.2-6.6-3c-1.5-0.6-3.1-1-4.5-1.2c-0.7-0.1-1.4,0-2,0.1
						c-0.6,0.1-1.2,0.3-1.7,0.7c0.3,4.5,0.4,9,0.3,13.5c3,1.2,6.1,1.7,9.4,1.6C115.7,89.1,127.5,86.4,125.8,78.4z"/>
				</g>
			</g>
			<g>
				<path class="st7" d="M137.3,41.7c-0.5-2.9-1.5-5.7-3.2-8.2c-2.8-3.9-7.1-6.3-11.5-8.2c-3.2-1.3-6.6-2.4-10.1-2.7
					c-3.5-0.3-7.1,0.3-10.1,2c-3.1,1.8-5.4,3-6.9,6.2c-2.7,5.8-3.1,14.1-2.8,20.4c0.2,5.4,0.8,10.8,2.6,16c1.8,5.1,4.8,9.9,9.2,13.3
					c4.9,3.8,11.6,5.4,17.6,3.3c5.7-2,9.6-7.2,11.8-12.5c2.7-6.3,3.6-13.1,4-19.9C137.9,48.2,137.9,44.9,137.3,41.7z"/>
			</g>
			<g>
				<path class="st7" d="M98.2,51.1c0.1-0.9-1-1-1.5-0.5c-1.6-3.5-4.5-6.7-8.7-5.5c-5.2,1.4-5.7,8.4-4.6,12.7
					c1.1,4.2,5,10.6,10.3,8.9C100,64.7,97.7,55.8,98.2,51.1z"/>
			</g>
			<g>
				<path class="st7" d="M136.7,66.7c5.2,1.6,9.2-4.8,10.3-8.9c1.1-4.3,0.6-11.3-4.6-12.7c-4.3-1.2-7.2,2-8.7,5.5
					c-0.5-0.6-1.6-0.4-1.5,0.5C132.6,55.8,130.3,64.7,136.7,66.7z"/>
			</g>
			<g>
				<path class="st0" d="M106.6,50.1c0-0.4-0.1-0.7-0.2-1.1c-0.2-0.6-0.7-1.2-1.3-1.3c-0.7-0.2-1.5,0.2-1.9,0.7
					c-0.5,0.6-0.7,1.3-0.8,2c-0.1,0.9,0,1.8,0.4,2.5c1.5,2.9,3.9,0.4,3.9-1.9C106.7,50.7,106.7,50.4,106.6,50.1z"/>
			</g>
			<g>
				<path class="st0" d="M128.8,50.1c0-0.4-0.1-0.7-0.2-1.1c-0.2-0.6-0.7-1.2-1.3-1.3c-0.7-0.2-1.5,0.2-1.9,0.7
					c-0.5,0.6-0.7,1.3-0.8,2c-0.1,0.9,0,1.8,0.4,2.5c1.5,2.9,3.9,0.4,3.9-1.9C128.8,50.7,128.8,50.4,128.8,50.1z"/>
			</g>
			<g>
				<path class="st8" d="M117.8,52.7c-0.3-1.1-1.9-0.6-1.7,0.5c0.3,1.2,1.3,3.9,0,4.8c-0.9,0.6-0.1,2.1,0.9,1.5
					C119.3,57.9,118.4,54.8,117.8,52.7z"/>
			</g>
			<g>
				<path class="st8" d="M122.1,62.9c-1.5,1.2-3.2,2.5-5.2,2.5c-2.3,0-4.5-1.2-6.1-2.7c-0.8-0.8-2,0.4-1.2,1.2c1.7,1.7,4,3,6.4,3.2
					c2.8,0.3,4.9-1.1,7-2.7C123.8,63.7,122.9,62.2,122.1,62.9z"/>
			</g>
			<g>
				<path class="st9" d="M110.9,40.6c-0.1-0.4-0.3-0.9-0.6-1.2c-1.2-1.3-3.8-1.2-5.4-0.9c-1.7,0.3-3.3,1.2-4.5,2.6
					c-0.5,0.5-0.9,1.2-0.8,1.9c0.1,2.4,5.6,0.8,7.1,0.8c0.9,0,1.7,0.1,2.5-0.2C110.4,43.2,111.1,41.8,110.9,40.6z"/>
			</g>
			<g>
				<path class="st9" d="M122.7,43.6c0.8,0.3,1.7,0.2,2.5,0.2c1.5,0,7,1.6,7.1-0.8c0-0.7-0.4-1.4-0.8-1.9c-1.2-1.3-2.8-2.3-4.5-2.6
					c-1.6-0.3-4.1-0.3-5.4,0.9c-0.3,0.3-0.5,0.8-0.6,1.2C120.8,41.8,121.5,43.2,122.7,43.6z"/>
			</g>
			<g>
				<path class="st9" d="M144.9,38.1c-0.6,0.2-1.3,0.2-1.9,0.1c1.5,3.6,1.9,7-1.2,7.9c-0.9,0.3-1.9,0.1-2.7-0.3
					c0,1.8-0.6,3.2-2.3,2.8c-1.6-0.3-2.1-2-2.3-3.3c-0.2-1.3-0.3-2.7-0.5-4.1c0,0,0-0.1,0-0.1c-2-2.2-3.7-4.6-5.2-7.1
					c-0.4,0.4-1.1,0.7-2.1,0.7c-2.4,0-5.4-2.2-7.4-3.4c-1.9-1.1-3.6-2.5-5.4-3.9c-4.8,0.7-9.5,1.2-14.3,1c-0.6,0-1.2-0.1-1.8-0.1
					c0,0.1,0,0.2,0,0.3c-0.1,2.5-0.4,5.1-0.7,7.6c-0.5,3.6-0.8,7.9-2.3,11.2c-1.6,3.3-4.8,5.3-6.7,1.1c-1-2.2-1.2-5.2-1.3-8
					c-0.2-1.4-0.3-2.8-0.5-4.2c-0.7,0.6-1.5,1-2.3,1c-1.7,0-2.5-1.5-2.4-3.2c0.2-2.8,1.4-5.7,2.5-8.4c1.1-2.6,3-7.7,6.3-8.1
					c0.3,0,1.7,0.2,2.4,0.5c0.3,0.1,0.4,0.2,0.4,0.3c0.3-0.5,0.6-1.1,0.9-1.7C98.5,9.3,107.7-0.6,115.8,0c5.1,0.4,2.3,4.9,0.2,7.6
					c3.4-1.3,6.8-2.4,10.5-2.6c4.6-0.2,10.4,1.4,14.5,4c2.1,1.3,5,4.5,2.8,7.2c-1.3,1.6-3.5,2-5.7,2c1.5,1.1,3,2.3,4.2,3.8
					c2.2,2.7,5.2,6.3,5.8,9.9C148.6,34.7,147.5,37.4,144.9,38.1z"/>
			</g>
			<g>
				<path class="st10" d="M99.6,28.4c-0.6,0-1.2-0.1-1.8-0.1c0,0.1,0,0.2,0,0.3c-1.7-3.4-3.3-6.9-4.9-10.4c0.3,0.1,0.4,0.2,0.4,0.3
					c0.3-0.5,0.6-1.1,0.9-1.7C95.9,20.7,97.7,24.6,99.6,28.4z"/>
			</g>
			<g>
				<path class="st8" d="M91.8,53.9c-0.5-1-2-0.1-1.5,0.9c0.6,1.4,1,2.8,1.1,4.3c0,1.1,1.8,1.1,1.7,0C93.1,57.3,92.6,55.6,91.8,53.9
					z"/>
			</g>
			<g>
				<path class="st8" d="M138.4,52c-1,1.9-1.4,3.9-1.2,6.1c0.1,1.1,1.8,1.1,1.7,0c-0.1-1.8,0.2-3.6,1-5.2
					C140.4,51.9,138.9,51.1,138.4,52z"/>
			</g>
			<g>
				<path class="st10" d="M129.5,32.2c-1.6-5.7-5.3-10.3-10.5-13c-1-0.5-1.9,1-0.9,1.5c4.8,2.5,8.3,6.8,9.7,12
					C128.2,33.8,129.8,33.3,129.5,32.2z"/>
			</g>
			<g>
				<path class="st10" d="M133.4,26.1c-0.6-0.9-2.1-0.1-1.5,0.9c2.7,4,5.2,8.2,5.4,13.2c0,1.1,1.8,1.1,1.7,0
					C138.9,34.8,136.3,30.4,133.4,26.1z"/>
			</g>
			<g>
				<path class="st6" d="M135.9,96.9c-3-0.7-7.5,4.4-9.4,6.3c-3.2,3.2-6.3,6.7-9.3,10.1c0,0,0,0,0,0.1c-0.3,0.3-0.6,0.7-0.9,1.1
					c-0.2-0.3-0.5-0.7-0.8-1c0,0,0,0,0-0.1c-3.5-4.7-11.3-13.3-14.7-16.7c-3.6-3.6-2.1-0.1-6.9,0.4c-0.3-0.7-1.5-0.6-1.6,0.3
					c-0.4,0.1-0.8,0.2-1.1,0.3c-1.1,0.3-0.6,2,0.4,1.7c0.2-0.1,0.4-0.1,0.6-0.2c-0.1,1.8-0.1,3.7,0,5.6c0,0.7,0.1,1.3,0.1,2
					c0.3,3.6,1.1,7.1,2.7,10c2.4,4.2,6.9,7.8,10.8,10.6c3.4,2.3,6.9,3.5,10.4,3.5c0.6,0,1.1,0,1.7-0.1c5.2-0.5,10-3.5,13.7-8.3
					c2.8-3.6,5.5-8.5,6.9-13.2c0.2-0.6,0.3-1.2,0.4-1.7c0.1-0.4,0.2-0.8,0.2-1.2C139.6,103.7,139.3,97.7,135.9,96.9z"/>
			</g>
			<g>
				<path class="st11" d="M150.6,112.8c-0.8-0.4-1.7-0.7-2.6-1.1c-3.1-1.2-6.3-2.3-9.5-2.5c-3.6-0.3-7.1,0.5-10.3,3.2
					c-1.7,1.5-3,2.4-5.1,3.4c-2.9,1.3-4.5,2-5.5,5.2c-0.1,0.2-0.1,0.5-0.2,0.7c0.1,3,0.2,6,0.4,9c0.1,3.1,0.2,6.2,0.4,9.3
					c0.1,1.8,0.1,3.6,0.2,5.3c0.6,13.2,0.6,26.4,3.3,39.4c1.1,5.5,1.5,10.5,0.3,16c-1.3,5.9-2.8,11.7-3.8,17.7
					c-1.5,9.4-3.2,19.3-1.5,28.6c-0.7-0.1-1.3-0.3-1.8-0.4c-1.1-6.8-0.6-13.9,0.4-20.9c0.9-6.2,1.8-12.3,3.2-18.4
					c0.8-3.6,2.1-7.2,2.5-10.9c0.4-3.8-0.2-7.5-0.9-11.2c-2.6-12.6-2.7-25.3-3.3-38.1c-0.1-2.6-0.2-5.2-0.3-7.7
					c-0.1-2.8-0.2-5.7-0.3-8.5c-0.1-3.3-0.4-9.4-0.4-9.4s-5.2-4.1-7.7-6.3c-2.5-2.3-5.5-4-8.3-5.8c-1.1-0.7-2.6-2.1-3.8-2.5
					c-1.6-0.6-2.8-0.5-3.8,0.1c-1.1,0.6-2.1,1.6-3.3,2.5c-2.2,1.8-4.4,3.6-6.7,5.4c-0.3,0.2-0.6,0.5-0.9,0.7
					c-0.5,0.4-1.6,0.2-1.5-0.6c0.2-1.2,0.3-2.4,0.5-3.6c0.5-3.1,1-6.1,1.7-9.1c0,0,0,0,0-0.1c0.9-1.2,1.7-2.4,2.6-3.6
					c-0.3,1.2-0.6,2.3-0.8,3.5c-0.8,3.6-1.5,7.2-2,10.8c2.8-2.3,5.5-4.6,8.4-6.8c0.6-0.4,1.2-0.9,1.7-1.2c1.2-0.6,2.3-0.8,3.8-0.2
					c3.4,1.3,6.9,4.4,9.9,6.5c1,0.7,7.6,5.7,9.8,7.7c-0.1-1.8-0.1-3.7-0.2-5.5c0,0,0,0,0,0.1c0.3,0.4,0.5,0.7,0.8,1
					c0.3-0.3,0.6-0.7,0.9-1.1c0,1.4,0.1,2.8,0.1,4.3c0.3-0.4,0.6-0.8,1-1.2c1.1-1.1,2.4-1.5,3.8-2.1c2.5-1,4-2.6,6.1-4.1
					c3.3-2.5,7-3.1,10.8-2.8c3.3,0.3,6.6,1.4,9.7,2.7c0.3,0.1,0.6,0.3,0.9,0.4c-0.2-0.5-0.3-0.9-0.5-1.4c-0.9-2.5-1.7-5-2.6-7.6
					c-0.3-0.9-0.6-1.8-0.9-2.8c0.7,0.9,1.3,1.8,1.9,2.8h0.9c0.3,0.8,0.6,1.6,0.8,2.5c0.4,1.3,0.9,2.6,1.3,3.9
					c0.5,1.3,0.9,2.6,1.4,3.9C152.2,112.6,151.2,113,150.6,112.8z"/>
			</g>
			<g>
				<path class="st6" d="M65.9,195c-1.5-10.2-3.9-20.3-6-30.1c-2.3-10.6-4.5-21.6-8.2-31.8c-3.2-8.7-9.2-13.1-17.2-17.1
					c3-2.6,6.4-4.5,10.1-5.5c1.1-0.3,0.6-1.9-0.4-1.7c-3.1,0.8-5.9,2.1-8.5,3.8c-2.4,1.6-4.5,3.5-6.4,5.7c-0.5,0.5-0.9,1.1-1.3,1.6
					c-6.6,8.5-10,20.2-10.4,30.2c-0.2,5.7,0.2,11.5-0.4,17.2c-0.7,6.3-3.4,11.7-5.2,17.6c-1.3,4.2-2,8.6-2.2,13
					c-10.4,10-12,26.7-7,40c5.3,14,23.7,21.4,37.8,19.4c3.6-0.5,7.1-1.7,10.3-3.4c0.5-0.3,1-0.5,1.5-0.8c0.6-0.4,1.2-0.8,1.7-1.2
					c2.1-1.5,3.9-3.2,5.5-5.3c2.9-3.7,4.6-8.1,5.8-12.7c0.7-2.9,1.2-5.9,1.6-8.9C68.1,215.1,67.4,205,65.9,195z"/>
			</g>
			<g>
				<path class="st11" d="M52,195c-3.7-3.5-8.3-4.8-13.3-4.9c-5.5-0.1-12.5,0.3-17.3,3.2c-0.1,0.1-0.2,0.2-0.3,0.3
					c-4.1,0.3-8.3,1.8-12.1,4.8c-0.9,0.7,0.4,1.9,1.2,1.2c11.9-9.5,27.3-2.5,35,8.6c0.6,0.9,2.1,0,1.5-0.9c-5.2-7.5-13.4-13-22-13.8
					c3.8-1.5,8.4-1.7,12.3-1.8c5.1-0.1,9.9,0.8,13.7,4.4C51.6,197,52.8,195.7,52,195z"/>
			</g>
			<g>
				<path class="st11" d="M60.1,232.8c-0.2,2.2-0.6,4.3-1.1,6.4c-1.1,4.4-2.7,8.7-4.9,12.6c-0.4,0.7-0.8,1.4-1.2,2.1
					c-0.2-0.3-0.4-0.6-0.6-0.9c-0.5,0.3-1,0.6-1.5,0.8c0.4-0.6,0.7-1.1,1.1-1.7c2.1-3.5,3.7-7.2,4.9-11.1c0.8-2.7,1.3-5.4,1.6-8.2
					C58.6,231.7,60.3,231.7,60.1,232.8z"/>
			</g>
			<g>
				<path class="st11" d="M60.8,218.3c0.1,1.1-1.7,1.1-1.7,0c-0.7-11-1.8-22-3.3-33c-0.7-5-1.4-10-2.9-14.8
					c-1.6-4.9-4.2-9.1-6.9-13.5c-7.2-11.8-13.2-24.3-17.9-37.2c0.4-0.6,0.9-1.1,1.3-1.6c5.3,14.6,12.4,28.3,20.5,41.9
					c4.9,8.3,6.6,17.2,7.8,26.6C59,197.2,60.1,207.7,60.8,218.3z"/>
			</g>
			<g>
				<path class="st6" d="M228.5,223.7c-0.4-3.2-1.5-6.3-1.5-9.6c0-2.8,0.6-5.6,0.6-8.4c0-4.8-1.1-9.8-2.9-14.3
					c-2.9-7.3-5.4-14.2-7.2-21.9c-1.4-5.7-2.9-11.5-3-17.4c-0.1-4.8,0.2-9.6-0.9-14.3c-0.9-4-2.4-7.8-4.5-11.3
					c-0.3-0.6-0.6-1.1-1-1.7c-2.2-3.3-4.8-6.4-7.9-8.9c-5.2-4.3-12.7-8.9-19.9-10.4c-1.7-0.3-3.3-0.5-4.9-0.5c-1.1,0-1.1,1.7,0,1.7
					c1.7,0,3.2,0.2,4.7,0.6c-5.2,6.9-6.8,14.7-5.8,23.3c0.6,5.2,1.5,10.4,0.3,15.6c-1.2,5.3-4.1,10.1-6.5,14.9
					c-8.5,17.1-12,36.9-9.3,55.9c1.1,7.6,3.4,15.4,8.3,21.5c4.4,5.4,10.5,8.7,17.1,10.5c0.5,0.2,1,0.3,1.6,0.4
					c0.2,0.1,0.4,0.1,0.6,0.1c0.5,0.1,1.1,0.2,1.6,0.3c7.1,1.4,14.9,1.6,22,0.4c8.5-1.5,12.2-6.8,15.6-14.2
					C227.8,232.1,229.1,228.1,228.5,223.7z"/>
			</g>
			<g>
				<path class="st11" d="M209.3,126.4c-4.6,7.9-10.4,15.2-15.9,22.6c-5.4,7.3-10.4,14.8-13.8,23.3c-3.2,8.2-4.9,16.9-6.6,25.6
					c-0.2,1.1-1.9,0.6-1.7-0.4c1.7-8.9,3.5-17.9,6.9-26.3c3-7.4,7.2-14.1,11.8-20.5c6.1-8.5,12.9-16.7,18.1-25.8
					C208.7,125.3,209,125.8,209.3,126.4z"/>
			</g>
			<g>
				<path class="st11" d="M188.4,249.8c-0.6-0.1-1.1-0.2-1.6-0.3c-0.2,0-0.4-0.1-0.6-0.1c-0.1,0.2-0.2,0.5-0.4,0.7
					c-0.4-0.3-0.8-0.7-1.2-1.1c-5.9-6.1-8.5-16.2-6.3-23.9c0.3-1.1,2-0.6,1.7,0.5c-2.2,7.4,0.5,17.3,6.5,22.9
					C187.2,248.9,187.8,249.4,188.4,249.8z"/>
			</g>
			<g>
				<path class="st11" d="M224.5,202.8c-1.4-3-4.1-4.3-7.1-5.6c-4.3-1.7-8.9-3.2-13.6-3.4c-8.1-0.4-15.8,2.8-21.6,8.2
					c-0.8,0.8,0.4,2,1.2,1.2c5.2-4.8,11.9-7.7,19.1-7.7c5.8,0,17.8,2.3,20.5,8.1C223.5,204.7,225,203.8,224.5,202.8z"/>
			</g>
			<g>
				<path class="st11" d="M215.9,187.6c-12.9-5.1-27.1-1.1-35.4,10c-0.7,0.9,0.8,1.8,1.5,0.9c7.9-10.5,21.3-14.1,33.4-9.3
					C216.5,189.7,217,188,215.9,187.6z"/>
			</g>
			<g>
				<path class="st7" d="M87.6,183.1c-0.7,0.1-17.1,12.8-50.8,22.2c-4.8,1.3-20.2,5.5-23.6,18.1c-3.5,12.7,3.9,31.5,23.8,28.3
					c19.9-3.2,62.4-52.5,62.4-52.5L87.6,183.1z"/>
			</g>
			<g>
				<g>
					<path class="st7" d="M120.7,162.2c-0.1-0.2-0.3-0.3-0.5-0.4c-0.4-0.3-0.9-0.4-1.4-0.3c-1.7,0.1-3.9,1.3-4.8,2
						c-2.4,1.9-4,4.6-5.4,7.3c-0.5-12.8-1.7-29.7-2.6-32.5c-0.4-1.1-1.2-2.5-2.5-2.8c-0.1,0-0.2-0.1-0.3-0.1
						c-0.6-0.1-1.1,0.1-1.5,0.4c-0.2-0.7-0.4-1.3-0.8-1.8c0,0,0,0,0,0c-0.2-0.3-0.4-0.6-0.7-0.8c0,0-0.1-0.1-0.1-0.1
						c-1.4-1-2.7-0.6-3.6,0.5c-0.4,0.4-0.7,0.9-1,1.5c0,0,0,0,0,0c-0.2-0.2-0.5-0.3-0.8-0.4c-2.1-0.4-3.5,2.1-3.7,3.8
						c-0.3,2-0.4,4.1-0.4,6.2c0,0.4,0,0.8,0,1.3c0,0-0.1,0.1-0.1,0.1c-0.2,0.2-0.4,0.4-0.6,0.6c-1.3,1.5-1.5,3.7-1.6,5.6
						c-0.3,12-3.4,24-6.1,35.7c0.2-0.2,0.7,0.4,2.6,5.1c1.3,3.4,4.4,6.1,8,7c4.2,1,8.7-1.1,12.2-3.3c2.8-1.7,5.2-4.2,5.9-7.5
						c0.1-0.6,0.2-1.1,0.3-1.7c1-5.4,1.4-11.4,4.1-16.3c0.6-1.1,2.6-2.8,4.1-4.5C120.7,165,121.6,163.5,120.7,162.2z M82.2,188
						c0-0.1,0.1-0.2,0.1-0.2C82.2,187.8,82.2,187.9,82.2,188z"/>
				</g>
				<g>
					<path class="st8" d="M94.6,173.5c-0.3-1.1-2-0.6-1.7,0.5c1.8,6.6,3.5,13.7-0.9,19.5c-0.7,0.9,0.8,1.7,1.5,0.9
						C98.2,188.2,96.5,180.5,94.6,173.5z"/>
				</g>
				<g>
					<path class="st8" d="M118.9,161.4c-1.7,0.1-3.9,1.3-4.8,2c-2.4,1.9-4,4.6-5.4,7.3c-0.5-12.8-1.7-29.7-2.6-32.5
						c-0.4-1.1-1.2-2.5-2.5-2.8c-0.1,0-0.2-0.1-0.3-0.1c-0.6-0.1-1.1,0.1-1.5,0.4c-0.2-0.7-0.4-1.3-0.8-1.8c0,0,0,0,0,0
						c-0.2-0.3-0.4-0.6-0.7-0.8c-11.4,3.4-8.5,18.7-4.9,27.3c2.6,6.2,5.8,12.2,9.4,17.9c1.9,3,4,6,6.1,8.9c0.1,0.1,0.1,0.2,0.2,0.3
						c1-5.4,1.4-11.4,4.1-16.3c0.6-1.1,2.6-2.8,4.1-4.5C119.3,164.8,119.1,163.1,118.9,161.4z"/>
				</g>
				<g>
					<path class="st8" d="M93.6,165.6c-0.2,1.1-1.9,0.6-1.7-0.5c0.6-3.1,0.9-6.1,0.9-9.2c0-1.6,0.2-9.7-3-9.4
						c0.2-0.2,0.4-0.4,0.6-0.6c0,0,0.1-0.1,0.1-0.1c0-0.4,0-0.8,0-1.3C96.6,144.5,94.3,162.1,93.6,165.6z"/>
				</g>
				<g>
					<path class="st8" d="M98.6,164.9c0,1.1-1.8,1.1-1.7,0c0.2-5,0.6-9.9,0.4-14.9c-0.2-7.5-0.7-13.2-1.7-15.2
						c0.2-0.5,0.6-1.1,1-1.5c1.3,1.8,1.5,5.5,1.7,7.1C99.1,148.5,98.8,156.8,98.6,164.9z"/>
				</g>
				<g>
					<path class="st8" d="M104.4,163.6c0,1.1-1.7,1.1-1.7,0c0-5.4-0.1-10.8-0.1-16.2c0-4.6,0.3-9.4-1.6-13.6
						c0.4,0.5,0.6,1.1,0.8,1.8c0.4-0.3,0.9-0.5,1.5-0.4c0.8,2.8,1,5.9,1,9C104.3,150.6,104.3,157.1,104.4,163.6z"/>
				</g>
			</g>
			<g>
				<path class="st7" d="M219,235.8c-11.8,16.1-32.1,7.2-45.6-5.2c-4.9-4.5-12.1-10.8-19.2-16.9c-3.3-2.8-6.5-5.6-9.6-8.2
					c-8.7-7.4-15.5-13.2-15.5-13.2l12.7-15.8c0,0,10.4,5.2,16.9,7.9c0.6,0.2,1.1,0.4,1.7,0.6c1.7,0.6,5.4,2,10,3.7
					c12.2,4.5,31,11.5,37,13.8C215.7,205.6,230.8,219.7,219,235.8z"/>
			</g>
			<g>
				<g>
					<g>
						<path class="st7" d="M142.5,183.7c1.6-2.7,2.2-6.3,1.8-9.4c-0.9-6.4-4.5-8-8.7-12.6c-3.2-3.5-5.9-8.5-7.7-12.8
							c-0.8-1.9-2.4-4.8-3.7-3.3c-2.3,2.7-0.7,9.7,1.4,12.7c-2.3-3-4.6-5.9-7-8.9c-2.4-3.1-5-6.1-7.5-9c-1.8-2-4.1-3.4-6.7-3.1
							c-0.6,0-1.2,0.2-1.8,0.4c-0.1-0.1-0.2-0.1-0.3-0.2c0,0,0,0,0,0c-1-0.7-2.6-1.5-3.7-0.7c-0.6,0.4-1,1-1.2,1.7
							c-0.1,0.4-0.1,0.9-0.1,1.4c0,0.9,0.2,1.7,0.2,1.7s-0.3,0.2-0.8,0.6c-0.6,0.5-1.3,1.3-1.5,2.2c-0.2,1.2,0.1,2.4,0.7,3.5
							c0.3,0.7,0.7,1.3,1.1,1.9c-0.1,0.1-0.3,0.1-0.4,0.2c-0.1,0.1-0.2,0.2-0.3,0.2c-1.7,1.9,1,7.1,1.8,8.8
							c3.3,6.7,7.6,12.8,12.1,18.6c4,5.2,10.8,12.1,17,14.8c3.1,1.4,9.5,4.1,12.8,4.8c2.8,0.6,0.4-1.3,3.3-1.8
							C148.4,194.6,142.2,189.7,142.5,183.7z"/>
					</g>
					<g>
						<path class="st8" d="M106.9,165.6c-1.6-2.7-3.1-5.3-4.7-8c-1.4-2.4-3-6.2-5.6-7.6c0.1-0.1,0.2-0.2,0.4-0.2
							c-0.4-0.6-0.8-1.3-1.1-1.9c2.4,0.6,4,2.5,5.3,4.7c2.5,4,4.8,8.1,7.2,12.2C109,165.7,107.5,166.5,106.9,165.6z"/>
					</g>
					<g>
						<path class="st8" d="M111.6,161.5c-1.5-2.1-10.2-15.8-14.9-19.4c0.4-0.4,0.8-0.6,0.8-0.6s-0.2-0.8-0.2-1.7
							c1.7,1.1,3,3.3,4.1,4.7c4,5.3,7.8,10.7,11.7,16.1C113.7,161.6,112.2,162.4,111.6,161.5z"/>
					</g>
					<g>
						<path class="st8" d="M116.7,158.5c-2.4-3.6-4.9-7.2-7.3-10.7c-1.8-2.7-4.2-7.6-7.1-10.3c0.1,0.1,0.2,0.2,0.3,0.2
							c0.6-0.2,1.2-0.4,1.8-0.4c1.5,1.8,2.6,3.9,3.9,5.7c3.3,4.9,6.7,9.7,10,14.6C118.9,158.6,117.4,159.4,116.7,158.5z"/>
					</g>
				</g>
				<g>
					<path class="st8" d="M132,162.4c-1.4-1.1-2.8-2.3-4.1-3.6c-0.8-0.8-2,0.5-1.2,1.2c1.3,1.3,2.7,2.4,4.1,3.6
						C131.6,164.3,132.8,163.1,132,162.4z"/>
				</g>
			</g>
			<g>
				<path class="st3" d="M120,121c-0.9,0.9-1.3,2.9-0.4,4c0.7,0.9,1.9,1.1,2.7,0.2c0.4-0.5,0.6-1.1,0.7-1.7c0.1-0.8-0.1-1.6-0.6-2.2
					C121.5,120.2,120.6,120.3,120,121z"/>
			</g>
			<g>
				<path class="st12" d="M160.3,184.9c-0.5-0.2-1.1-0.4-1.7-0.6c-4.3,8.1-9,16.4-14.1,21.2c3.1,2.6,6.3,5.4,9.6,8.2
					c5-5.3,12.5-16.7,16.1-25.1C165.7,186.9,162,185.5,160.3,184.9z"/>
			</g>
			<g>
				<path class="st3" d="M168.6,198.5c-2,3.8-7.4,5-12,2.6c-4.6-2.4-6.8-7.5-4.8-11.3s7.4-5,12-2.6
					C168.4,189.6,170.5,194.7,168.6,198.5z"/>
			</g>
		</g>
	</g>
</switch>

</svg>
