<?xml version="1.0" encoding="utf-8"?>
<!-- Generator: Adobe Illustrator 27.1.0, SVG Export Plug-In . SVG Version: 6.00 Build 0)  -->










<svg version="1.1" id="Layer_1" xmlns="http://www.w3.org/2000/svg" xmlns:xlink="http://www.w3.org/1999/xlink" x="0px" y="0px" viewBox="0 0 249.8 696.7" style="enable-background:new 0 0 249.8 696.7;" xml:space="preserve">
<style type="text/css">
	.st0{fill:#A94E25;}
	.st1{fill:#4E2F22;}
	.st2{fill:#F7B34A;}
	.st3{fill:#F3704F;}
	.st4{fill:#FFFFFF;}
	.st5{fill:#C77529;}
	.st6{fill:#25140E;}
	.st7{fill:#682D11;}
	.st8{fill:#FCD1BB;}
	.st9{fill:#5D5FAA;}
	.st10{fill:#33251E;}
	.st11{fill:#CC3A27;}
	.st12{fill:#11111C;}
</style>
<switch>
	
	<g>
		<g>
			<g>
				<g>
					<path class="st0" d="M106.4,594.6c0,0,1.4,30.4,0,35.7c-0.6,2.1-3.1,4-4.6,5.4c-3.1,2.8-23.9,18.5-27.1,21.3
						c-3,2.6-3,6.4-0.5,9.3c2.8,3.4,7.6,3.5,11.6,2.5c11.4-2.8,15.1-6.6,25.2-9c10.1-2.4,18.2-3.6,21.1-10.6
						c2.9-6.9,0.1-18.2,0-25.9c-0.2-13.4,1-27.3,1-27.3L106.4,594.6z"/>
				</g>
				<g>
					<path class="st1" d="M133.4,641c0,0-1.8,5.8-8.9,8.2c-7.1,2.4-14.6,5-20.4,7.1c-5.8,2.1-9.3,4.6-15,3c-5.7-1.6-8.5-7.2-8.5-7.2
						s-6.1,4.6-9.8,7.7c-3.7,3.1-10.9,11.1-11,12.9c-0.1,1.7,1.6,2.6,5.6,2.8c4.2,0.2,14.4,0.2,24.9-3.8c4.3-1.6,13.4-6,18.7-7.7
						c5.3-1.7,18-5.3,21.7-8.9C134.3,651.6,133.7,647.8,133.4,641z"/>
				</g>
			</g>
			<g>
				<g>
					<path class="st0" d="M171.6,610.5c0,0,0.1,21.5,2.1,30.6c2,9.1,15.6,24.4,20.4,31.3c4.7,6.8,1.9,15.6-8.8,13.7
						c-10.7-1.9-21.2-12.9-26.8-19.7c-5.6-6.7-10.7-9-11.9-14c-1.2-5,1.1-15.7,0.7-24.6c-0.4-8.9-0.4-15.7-0.4-15.7L171.6,610.5z"/>
				</g>
				<g>
					<path class="st1" d="M146.6,641.4c0,0,0.9,8,5.8,13.2c4.9,5.2,13,13.2,19.7,18.8s11.6,3.2,14.8,2c5.3-2,3.9-7.3,3.9-7.3
						s6.1,6.2,9.2,13.3c3.1,7.1,4.6,10.9,4.6,12.4c0,1.5-2,3.1-5,2.8c-3.1-0.3-20.9-5-26-9.6c-5.6-5.1-10.7-10.8-15.8-16.4
						c-4-4.4-9.4-8.3-11.5-14.1C144.5,652,146.6,641.4,146.6,641.4z"/>
				</g>
			</g>
			<g>
				<path class="st2" d="M208.1,407.9c-0.1,0.4-0.1,0.8-0.2,1.2c0,0.2-0.1,0.5-0.1,0.7c-0.4,2.5-0.7,5-0.9,7.5v0
					c-2.8,25.4-2.7,51.2-6,81.1c-2.3,21.4-1,43-2.8,64.4c-1,11.9-2.3,23.8-3.7,35.7c-0.7,6-0.4,14.9-3.2,20.4
					c-0.3,0.6-1.1,1.1-2.3,1.5c-2.5,0.8-6.5,1.2-11,1.3c-10.1,0.3-22.5-0.7-25.2-0.6c-20.6,0.2-41.3-0.1-61.9-0.4
					c-6.5-0.1-6.8-20.7-7-25.8c0-1-0.2-2.5-0.4-4.3c-1.3-12.5-5.6-41.2-6.1-55.1c-0.3-9.2-1.3-18.4-2.6-27.7
					c-2.9-20.8-7.6-41.5-10-62.1c-1.4-11.6-2.5-23.3-3.5-34.9c-0.1-0.5-0.1-1.1-0.1-1.6c-0.9-11.7-1.6-23.4-2-35.1
					c-0.3-8.8-0.5-17.7-0.5-26.5c0-23.3,7.4-43.8,14.6-58.1c6.5-13.1,12.8-21.1,12.8-21.1s48.6-23.3,51.6-25.5
					c3.1-2.2,38.8,8.1,48.3,24.1c9.5,16,16.3,14.4,21.9,47.4c1.4,8.5,2.3,20.3,2.6,33C211,368.9,210,393,208.1,407.9z"/>
			</g>
			<g>
				<g>
					<path class="st3" d="M207.9,409.1c-0.4,2.7-0.7,5.4-1,8.1v0c-3.6,1.8-7.6,2.3-11.2-0.6c-2.3-1.9-3.2-6-7.1-4
						c-1.9,1-3.5,2.4-5.5,3.2c-4.3,1.7-9.2,1.3-13.8,0.9c-7.3-0.7-15.8-2.2-18.2-10.2c-1.4-4.4-0.6-9.1-1.1-13.7
						c-0.6-5.2-4.6-8.2-5.7-13c-1.8-8.1,3.2-16.4,9.8-20.7c3.1-2.1,6.2-3.7,8.8-6.4c1.5-1.6,2.9-3.2,4.6-4.6c3-2.3,6.5-3.4,10.2-3.8
						c9.5-1.1,22.5-1.1,32.7,3C211,369.4,210,394.2,207.9,409.1z"/>
				</g>
				<g>
					<path class="st4" d="M204.4,362.8c-3.5-4.2-11.4-3.3-16.5-3.6c-6.6-0.3-13,2.1-17.2,7.4c-3.1,4-4.2,8.5-3.1,13.3
						c1.3,5.6-2.6,11.3,0.7,16.9c2,3.5,6.3,5.6,10.1,4c2-0.8,3.5-2.5,5.2-3.9c2.2-1.9,3.6-1.8,5.5,0.3c0.6,0.6,1.1,1.1,1.9,1.4
						c3.7,1.4,7.7-2.6,9.6-5.2c1.6-2.1,2.3-4.2,2.1-6.8c-0.2-4.1-0.9-7.2,1.2-11C206.3,371.3,207.9,367,204.4,362.8z"/>
				</g>
				<g>
					<path class="st2" d="M191.8,368.7c-0.2-0.8-0.9-1.3-1.7-1.4c-0.8-0.1-1.6,0.1-2.3,0.4c-2.7,1.2-4.5,3.7-6,6.1
						c-0.2,0.4-0.5,0.8-0.6,1.2c-0.5,2.2,2.8,1.5,3.9,1.1c2.6-1,4.9-3,6.3-5.4C191.7,370.1,192,369.4,191.8,368.7z"/>
				</g>
				<g>
					<path class="st2" d="M182.2,384.8c-0.7-2.3-2.6-5.2-5.3-5.7c-1-0.2-1.7,0.5-1.8,1.5c0,0.4,0,0.7,0.1,1c0,0.1,0,0.2,0,0.3
						c0.9,2.6,2.1,5.6,4.8,6.8C183.2,390.1,182.8,386.8,182.2,384.8z"/>
				</g>
				<g>
					<path class="st2" d="M191.9,380.7c-0.8-0.8-5.1-3.4-5.6-1.1c-0.4,1.7,2.4,4.3,4,4.7c0.7,0.2,1.4,0,1.9-0.5
						C193,382.9,192.7,381.5,191.9,380.7z"/>
				</g>
				<g>
					<path class="st3" d="M120.4,557.7c-1.8,3.7-1.7,6.5-1.3,10.5c0.2,1.9,0.4,3.8-0.1,5.7c-2.1,10-13.7,12.6-22.1,14.3
						c-4.2,0.8-8.8,1.8-13.5,2.2c-0.2-1.9-0.5-4.1-0.8-6.7c-1.7-14.2-4.9-36.7-5.3-48.5c-0.1-1.9-0.2-3.8-0.3-5.7
						c-0.5-7.3-1.3-14.7-2.3-22c7.1-2.9,19.9-6.7,25.7-0.5c2.6,2.7,2.9,6.7,3.5,10.2c0.8,5.6,2.5,9.2,7.9,11.8c7.3,3.4,12,8.5,12,17
						C123.8,550.6,122.3,553.9,120.4,557.7z"/>
				</g>
				<g>
					<path class="st3" d="M98.3,325c-1.1,4.9-3.7,11.1-3.9,16.7c-0.1,3.8,2.7,7.4,2.5,11.3c-0.2,4.2-3.6,7.8-6.2,10.7
						c-5.3,5.7-12.5,9.5-20.2,10.7c-3.9,0.6-7.7,0.4-11.4-0.3c-0.2-5.6-0.3-11.2-0.4-16.8c-0.1-3.2-0.1-6.5-0.1-9.7
						c0-17.1,4-32.7,9-45.5c1.8-4.6,3.7-8.8,5.6-12.6c3.7,1.1,7.1,3,9.6,5.6c3.2,3.4,3.7,8.2,6.3,12c2.1,3.1,6.1,4.1,8.4,7.1
						C100.1,317.4,99.1,321.3,98.3,325z"/>
				</g>
			</g>
			<g>
				<path class="st5" d="M200.3,360.2c-0.4,12.1-1.3,24.6-1.7,35.5c-0.1,1.8-0.1,3.7-0.2,5.4c-0.1,5.6-0.2,11.2-0.4,16.8
					c-0.4,16.2-0.7,32.5-1.2,48.7c-1.3,44.3-7.4,88.3-12.3,132.4c-0.1,1.1-1.8,1.1-1.7,0c2.8-24.6,5.6-49.2,8.3-73.8
					c4-35.9,4.7-72.1,5.3-108.2c0.1-6.6,0.2-13.3,0.4-19.9c0-0.2,0-0.4,0-0.6c0.2-11.8,1.1-24.2,1.5-36.9c0.2-5.1,0.3-10.3,0.2-15.5
					c-0.1-3-0.2-6-0.3-9c-0.2-3.7-0.5-7.3-1-11c-0.7-5.7-1.5-11.3-2.6-16.9c-2.6-12.7-6.3-25-11.2-36.3c-0.4-1,1-1.8,1.4-0.8
					c5.5,12.7,9.2,25.9,11.8,39.3c0.8,4.5,1.5,8.9,2.1,13.4c0.5,3.7,0.9,7.3,1.2,11c0.3,3.3,0.5,6.9,0.5,10.6
					C200.6,349.6,200.5,354.9,200.3,360.2z"/>
			</g>
			<g>
				<g>
					<path class="st1" d="M140,41.8c-0.1-0.3-0.1-0.6-0.2-0.9c-0.7-2.6-0.8-5.8-2.8-7.5c-1.1-2.6-4.2-4.5-6.8-5.1
						c-5.5-1.4-9.3-1.6-13,2.3c-1.2-0.4-2.5-0.4-3.7,0.2c-2.2,1-2.7,3.2-4,5c-2.3,3.2-3.1,6.9-1.3,10.3c-0.2,0.9-0.2,1.9,0,2.9
						c0.2,1.6,0.9,3,1.8,4c3.1,3.2,5.4,6.9,10.5,6.2c0.4-0.1,0.7-0.4,0.8-0.7c2.4,1.8,4.8,0.9,8.2-0.2c1.9-0.6,3.9-0.5,5.5-1.7
						C139.9,52.9,141.2,47.4,140,41.8z"/>
				</g>
				<g>
					<path class="st6" d="M140,41.8c-1.2,2.8-1.9,6-4.9,7.6c-1.7,0.9-3.5,0.6-5.2,1.3c-1,0.4-1.3,1-2.3,1.4
						c-3.4,1.7-7.7,0.4-11.4,0.5c-3.2,0-6-1.4-8.1-3.6c0.2,1.6,0.9,3,1.8,4c3.1,3.2,5.4,6.9,10.5,6.2c0.4-0.1,0.7-0.4,0.8-0.7
						c2.4,1.8,4.8,0.9,8.2-0.2c1.9-0.6,3.9-0.5,5.5-1.7C139.9,52.9,141.2,47.4,140,41.8z"/>
				</g>
				<g>
					<path class="st1" d="M154,82.6c-0.2-1.4,0.2-3,0.1-4.4c-0.1-1.5-0.2-3-0.5-4.6c-0.5-2.8-1.4-5.7-3-8.1
						c-0.3-0.4-0.6-0.9-0.9-1.3c-0.3-0.4-0.6-0.8-0.9-1.2c-0.4-0.5-0.8-0.9-1.1-1.4c-0.6-0.7-1.2-1.3-1.8-1.8
						c-0.7-0.6-1.4-1.2-2.2-1.6c-2.2-1.4-4.9-1.8-7.5-2.3c-2.4-0.5-4.9-0.8-7.4-0.8c-0.6,0-1.1,0-1.7,0c-0.8,0-1.6,0.1-2.4,0.2
						c-0.7,0.1-1.3,0.2-2,0.3c-4.4,0.7-8.7,2.3-12.3,5c-0.4,0.3-0.9,0.7-1.3,1.1c-0.7,0.6-1.4,1.3-2,2c-1.6,1.7-2.9,3.7-4,5.6
						c-2.6,4.8-2,10.2-1.9,15.4c0.1,6,2.2,10.5,4.5,15.9c0.4,0.9,1.6,0.6,1.6-0.1c2.2,1.8,4.9,2.6,7.3,4.2c3.7,2.4,5.3,5.8,8,9.1
						c3.9,4.8,11.8,6.5,17.5,5c6.4-1.7,8.2-4.7,10.5-10.7C153.4,100.3,155.1,90.9,154,82.6z"/>
				</g>
				<g>
					<path class="st7" d="M115.5,94.1c0-0.8-1.1-0.8-1.5-0.3c-1.8-3-5-5.4-9-3.9c-4.8,1.8-4.7,8-3.2,11.7c1.4,3.6,7.1,10.4,12,8.4
						C119.7,107.5,115.5,98.3,115.5,94.1z"/>
				</g>
				<g>
					<g>
						<path class="st8" d="M104.6,134.7c-0.5,0-1-0.5-1.1-1.3c-0.1-0.4-0.1-0.9-0.1-1.3c0-0.9,0-1.9,0-2.8c0-1.4,0-3.4,1.2-3.4
							c1.1,0,1.2,1.7,1.2,3c0,1.3,0,2.6,0,3.8C105.8,133.9,105.3,134.7,104.6,134.7z"/>
					</g>
				</g>
				<g>
					<g>
						<path class="st8" d="M110.9,134.7c-0.5,0-1-0.5-1.1-1.3c-0.1-0.4-0.1-0.9-0.1-1.3c0-0.9,0-1.9,0-2.8c0-1.4,0-3.4,1.2-3.4
							c1.1,0,1.2,1.7,1.2,3c0,1.3,0,2.6,0,3.8C112.1,133.9,111.6,134.7,110.9,134.7z"/>
					</g>
				</g>
				<g>
					<g>
						<path class="st8" d="M107.8,134.7c-0.5,0-0.9-0.5-1-1.3c-0.1-0.4-0.1-0.9-0.1-1.3c0-0.9,0-1.9,0-2.8c0-1.4,0-3.4,1.1-3.4
							c1,0,1.1,1.7,1.1,3c0,1.3,0,2.6,0,3.8C108.9,133.9,108.4,134.7,107.8,134.7z"/>
					</g>
				</g>
				<g>
					<path class="st9" d="M112.1,122.4c-0.6-4.5-1.7-9-3.2-13.3c-0.2-0.6-0.4-1.4-0.8-1.9c-0.5-0.7-0.9,0.2-1.2,0.7
						c-0.8,1.7-1.1,3.6-1.6,5.4c-0.6,2.4-1.1,4.8-1.6,7.3c-0.2,1.3-0.8,3.1-0.5,4.5c0.2,1,1.1,1.5,2.1,1.8c1.1,0.3,2.3,0.3,3.5,0.2
						c0.8-0.1,2,0.1,2.7-0.6l0.1-0.1c0.4-0.4,0.6-0.7,0.6-1.3C112.4,124.4,112.2,123.2,112.1,122.4z M109.7,122
						c0,0.2-0.1,0.5-0.3,0.7l0,0c-0.3,0.3-0.8,0.2-1.2,0.2c-0.5,0-1,0-1.5-0.1c-0.4-0.1-0.8-0.3-0.9-0.8c-0.1-0.6,0.1-1.3,0.2-1.9
						c0.2-1.1,0.4-2.1,0.7-3.1c0.2-0.8,0.4-1.6,0.7-2.3c0.1-0.3,0.3-0.6,0.5-0.3c0.2,0.2,0.3,0.6,0.3,0.8c0.7,1.8,1.1,3.8,1.4,5.7
						C109.7,121.3,109.7,121.7,109.7,122z"/>
				</g>
				<g>
					<path class="st4" d="M109.7,107c0-1.1-0.9-1.9-1.9-1.9c-1.1,0-1.9,0.9-1.9,1.9c0,1.1,0.9,1.9,1.9,1.9
						C108.9,108.9,109.7,108.1,109.7,107z"/>
				</g>
				<g>
					<g>
						<path class="st0" d="M154.6,148.9c-0.2-0.3-0.3-0.6-0.5-0.9c0-0.1,0.1-0.2,0.1-0.3c0.1-0.6-0.3-1-0.8-1.1
							c-4.1-9.8-4.4-29.5-5.1-41.6c-0.1-1.1-1.2,4.4-1.1,5.5c0.1,1,0.1,2,0.1,3c-0.1,0-0.1,0-0.1,0c-0.2,0.1-0.5,0.2-0.7,0.3
							c-0.1-0.1-0.3-0.1-0.5-0.1c-4.1,0.5-8-0.5-12.1-0.5c-1.5,0-3.2,0.3-4.9,0.6c-2.3,0.3-4.6,0.7-6.5,0.2c0-0.4-0.1-0.9-0.1-1.3
							c0-0.3,0-0.5-0.1-0.8c-0.1-1.1-1.8-1.1-1.7,0c0,0.5,0.1,1,0.1,1.4c0.3,4.5,0.4,9.1,0.3,13.6c0,1.5-0.1,3.1-0.2,4.6
							c-0.3,6.1-0.6,13.1-5.5,17.4c-0.8,0.8,0.4,2,1.2,1.2c0.9-0.8,1.7-1.7,2.3-2.7c-0.3,5.8,1.2,11.5,4.7,16.2
							c2.6,3.4,6.4,6.9,11,6.2c9.3-1.6,16.3-11.1,18.9-19.9C154.2,150.4,155,149.7,154.6,148.9z"/>
					</g>
					<g>
						<path class="st7" d="M144.9,117.6c-0.5-2.3-7.2,0.3-9.3-0.7c-2-1-4.3-2.2-6.7-3.1c-1.5-0.6-3.1-1-4.6-1.2
							c-0.7-0.1-1.4,0-2,0.1c-0.6,0.1-1.2,0.3-1.7,0.7c0.3,4.5,0.4,9.1,0.3,13.6c3,1.2,6.2,1.8,9.5,1.6
							C134.8,128.4,146.7,125.7,144.9,117.6z"/>
					</g>
				</g>
				<g>
					<path class="st0" d="M149.1,79.2c-0.8-2.9-2.1-5.6-4.1-7.9c-3.2-3.6-7.8-5.6-12.5-7c-3.4-1-6.9-1.7-10.4-1.6
						c-3.5,0.1-7.1,1-10,3.1c-2.9,2.1-5.1,3.6-6.3,7c-2.1,6.1-0.9,14.4,0.1,20.8c0.8,5.4,2,10.8,4.4,15.8
						c2.4,4.9,6.5,10.2,11.3,13.1c5.4,3.2,10.4,4.4,16.2,1.7c5.5-2.6,9.3-9.3,11-14.8c2-6.6,2.2-13.6,1.9-20.4
						C150.4,85.7,150,82.4,149.1,79.2z"/>
				</g>
				<g>
					<path class="st1" d="M151.4,85.1c-1.8,2.7-3.9,0.6-4.5-1.5c-0.7-2.4-1.2-5.9-2.3-9c-0.3-0.7-0.5-1.4-0.9-2.1
						c-1.5-3.1-3.8-5.6-7.9-6c-2.7-0.2-5.4-0.3-8.1-0.1c-0.6,0-1.1,0.1-1.7,0.1c-1.4,0.1-2.9,0.3-4.3,0.6c-0.6,0.1-1.1,0.2-1.7,0.3
						c-1.7,0.4-3.4,0.8-5,1.5c-2,0.7-4.2,1.5-5.8,3c-0.5,0.5-1,1-1.3,1.6c0,0,0,0,0,0c-1.3,2.1-1.5,4.8-1.7,7.1
						c-0.3,3.2,0.3,6.2-0.2,10.4c-0.3,1.9-0.9,3.4-1.9,1.1c-1.1-2.5-1.7-5.9-1.8-8.7c-0.1-2.2,0.1-6.8,0.8-8.9
						c1.1-2.8,2.2-5.1,3.8-7c0.5-0.6,1.1-1.2,1.7-1.7c1-0.9,2.1-1.7,3.4-2.5c2.8-1.7,5.9-2.5,9.1-2.9c0.6-0.1,1.2-0.1,1.8-0.2
						c1.2-0.1,2.4-0.1,3.5-0.1c0.3,0,0.7,0,1,0c0.2,0,0.5,0,0.7,0c4.8,0.2,10.2,0.6,14.6,2.5c1.2,0.5,2.3,1.2,3.2,2
						c0.6,0.5,1.1,0.9,1.5,1.5c1.6,1.7,2.7,3.9,3.4,6.3c0.7,2.3,0.9,4.8,1,7.2C151.9,81,152.4,83.6,151.4,85.1z"/>
				</g>
				<g>
					<path class="st10" d="M118.7,93.8c-0.1-0.3-0.3-0.7-0.5-1c-0.4-0.5-1-0.9-1.6-0.9c-0.7,0-1.3,0.6-1.6,1.2
						c-0.3,0.6-0.3,1.4-0.1,2.1c0.2,0.8,0.5,1.6,1.1,2.2c2.3,2.2,3.7-0.8,3.1-2.9C118.9,94.3,118.8,94,118.7,93.8z"/>
				</g>
				<g>
					<path class="st10" d="M138.8,90.9c-0.1-0.4-0.2-0.7-0.4-1c-0.3-0.6-0.8-1-1.5-1.1c-2.7-0.3-2.6,3.9-1.5,5.3
						c1.9,2.6,3.8-0.2,3.5-2.4C138.9,91.5,138.9,91.2,138.8,90.9z"/>
				</g>
				<g>
					<g>
						<path class="st0" d="M149.2,104.5c5.2,0.6,8.8-7.5,9.2-11.4c0.4-3.9-1.2-9.9-6.3-10.3c-4.2-0.3-6.6,2.9-7.5,6.3
							c-0.6-0.4-1.6-0.1-1.4,0.7C144.3,93.8,142.8,103.8,149.2,104.5z"/>
					</g>
					<g>
						<path class="st7" d="M149.8,91.8c0.3-1,1.9-0.5,1.6,0.6c-0.4,1.4-0.5,2.8-0.3,4.3c0.1,1.1-1.5,1.4-1.6,0.3
							C149.2,95.2,149.3,93.5,149.8,91.8z"/>
					</g>
				</g>
				<g>
					<path class="st7" d="M128.5,100.6c-2-1.3-1.2-4-0.6-5.9c0.3-1-1.3-1.5-1.6-0.4c-0.8,2.7-1.4,6,1.4,7.8
						C128.6,102.6,129.4,101.1,128.5,100.6z"/>
				</g>
				<g>
					<path class="st1" d="M120.4,84.5c-0.2-0.2-0.4-0.3-0.6-0.4c-2.3-1.3-5.5-0.9-7.5,0.7c-1.1,0.9-3.8,5-1.6,5.9
						c1.2,0.5,2.9-0.7,4-0.9c1.7-0.3,3.6,0,5.2-0.7C121.9,88.3,121.7,85.7,120.4,84.5z"/>
				</g>
				<g>
					<path class="st1" d="M132.6,86.7c1.7,0.2,3.5-0.6,5.2-0.7c1.1-0.1,3,0.6,4.1-0.2c1.9-1.5-1.7-4.8-3-5.3c-2.4-1-5.6-0.5-7.5,1.3
						c-0.2,0.2-0.3,0.3-0.4,0.5C130,84,130.5,86.5,132.6,86.7z"/>
				</g>
				<g>
					<g>
						<path class="st7" d="M123.2,106.9c0,0,1.6-3.3,5.3-4.2c3.7-0.9,6.4,0.9,6.9,1.7c0.6,1-5,3.2-5,3.2L123.2,106.9z"/>
					</g>
					<g>
						<path class="st7" d="M123.2,107.3c0,0,1.4,6.5,7.8,5.3c6.4-1.2,4.7-7.8,4.7-7.8l-6.8,2.9L123.2,107.3z"/>
					</g>
					<g>
						<path class="st4" d="M135.7,104.7c0,0,0-0.1,0-0.1c-0.1-0.4-0.3-0.5-1.1-0.3c-1.9,0.5-3.7,0.8-5.6,1.1c-1,0.2-1.9,0.3-2.9,0.5
							c-0.5,0.1-0.9,0.2-1.4,0.3c-0.4,0.1-0.9,0.2-1.3,0.4c-0.8,0.6,0.6,1.3,1,1.6c3,2,7.4,1.5,9.8-1.2c0.2-0.2,0.3-0.4,0.5-0.6
							c0.2-0.3,0.4-0.6,0.6-1C135.4,105.4,135.7,105,135.7,104.7z"/>
					</g>
				</g>
				<g>
					<path class="st6" d="M124.6,55.4c-0.7,1.5-1.3,3.1-1.7,4.8c-0.6,2.3-1,4.6-1.1,6.9c-0.6,0.1-1.1,0.2-1.7,0.3
						c0.1-2.4,0.4-4.8,1-7.1c0.4-1.6,0.9-3.1,1.5-4.7C123.3,55.5,124,55.4,124.6,55.4z"/>
				</g>
				<g>
					<path class="st6" d="M128.7,55.2c-0.3,1.6-0.5,3.2-0.6,4.9c-0.2,2.1-0.4,4.2-0.3,6.3c-0.6,0-1.1,0.1-1.7,0.1
						c0-2.1,0.1-4.3,0.3-6.4c0.2-1.6,0.4-3.2,0.6-4.8C127.6,55.2,128.2,55.2,128.7,55.2z"/>
				</g>
				<g>
					<path class="st6" d="M147.6,61.8c0.1,1.4,0,2.8-0.2,4.2c-0.4,2.9-1.3,5.8-2.8,8.5c-0.3-0.7-0.5-1.4-0.9-2.1
						c1.2-2.5,1.9-5.2,2.1-7.9c0.1-1.5,0.1-3.1-0.1-4.6C146.5,60.6,147.1,61.2,147.6,61.8z"/>
				</g>
				<g>
					<path class="st6" d="M109.3,71.8c-0.5,0.5-1,1-1.3,1.6c-0.6-2-0.9-4-1-6c-0.1-1.2,0-2.5,0.1-3.7c0.7-0.7,1.3-1.4,2-2
						c-0.3,1.3-0.4,2.6-0.5,4C108.6,67.7,108.8,69.8,109.3,71.8z"/>
				</g>
				<g>
					<path class="st6" d="M132.7,37.7c-1.4-2.1-4-3.5-6.6-3.1c-2.5,0.4-3.6,3-3.7,5.3c-1.4-0.3-2.9-0.7-4.1,0.1
						c-1.5,0.9-1.9,2.9-1.9,4.5c0,1.1,1.7,1.1,1.7,0c0-1.7,0.7-3.1,2.7-3.2c0.7,0,1.6,0.3,2.3,0.4c0.5,0.1,1.1-0.2,1.1-0.8
						c-0.4-4.4,4.6-6.2,7.2-2.4C131.8,39.4,133.3,38.6,132.7,37.7z"/>
				</g>
			</g>
			<g>
				<path class="st2" d="M153.4,161.8c-7.9,7-17.3,19.3-28.3,11.2c-11-8.1-13.2-30.4-13.2-30.4s0.2-0.1,0.4-0.4c0,0,0,0,0,0
					c0.4-0.3,1.1-0.8,1.8-1.4c0.4-0.4,0.9-0.7,1.3-1.1c0.5-0.5,1-0.9,1.4-1.4c1.7-1.9,2.8-4.8,3.7-4c0.9,0.7,5.4,5.8,9.4,7.2
					c0.5,0.2,1.1,0.3,1.6,0.4c0.1,0,0.3-0.1,0.7-0.2c2-0.6,7.6-2.6,10.1-4.2c2.9-1.9,6.8-6.4,7.6-6.2c0.7,0.2,1.5,1.3,3.4,4.3
					c0.7,1.2,1.7,2.2,2.5,2.9c0.5,0.4,0.9,0.8,1.3,1.1c0.7,0.5,1.2,0.8,1.2,0.9c0,0,0,0,0,0.1C158.7,141.4,161,154.9,153.4,161.8z"/>
			</g>
			<g>
				<path class="st2" d="M218.5,263.3C218.5,263.3,218.5,263.4,218.5,263.3c-1,1-8.6,3.8-15.6,3.8c-5.6,0-10.1-0.2-10.1-0.2l-8-2.3
					l-2.8-0.1l-94.4-4.3c-0.1,0-1.7-0.1-5.1-5.7c-3.2-5.2-3.6-12-3.6-12l-12.9,12.8l-7.7,7.6c0,0-12.1-1.8-20.3-7.3
					c-8.2-5.4-12.2-14.2-12.4-15.9c-0.2-1.4,11.2-32.2,18.6-51.4c0.2-0.5,0.4-1.1,0.6-1.6c1.5-3.8,2.8-7.1,3.8-9.4
					c2.4-5.8,5.5-11.3,9.5-16.1c0.4-0.5,0.8-0.9,1.2-1.4c5.4-6.3,12.4-11.3,21.1-14.3c12.2-4.2,34.1-3.1,34.1-3.1s6.4,4.5,7.5,5.3
					c1.1,0.8,9.4,4,10.7,4c1.3,0,20.6-11.7,20.6-11.7s5.4,0.7,10.8,1.1c2.3,0.2,4.5,0.3,6.4,0.3c14.7,0.2,29.6,7,39.4,18
					c0.4,0.4,0.7,0.8,1,1.2c1.2,1.4,2.3,3,3.4,4.5c8.3,12.8,9.1,28.6,9.5,43.3c0,0.9,0.1,1.7,0.1,2.6
					C224.3,221.7,219.1,262.5,218.5,263.3z"/>
			</g>
			<g>
				<path class="st4" d="M131,237.8c-1.4-1.4-2.7,0.2-3,1.7c-0.1,0.7-0.2,1.5,0,2.2c0.5,1.6,2.3,2.3,3.3,0.7
					c0.4-0.6,0.5-1.4,0.4-2.2c0-0.7-0.1-1.4-0.4-1.9C131.2,238.1,131.1,237.9,131,237.8z"/>
			</g>
			<g>
				<path class="st3" d="M221.5,183c-1.3-6.3-3.5-12.4-7.1-17.9c-1-1.6-2.1-3.1-3.4-4.5c-0.3-0.4-0.7-0.8-1-1.2
					c-5.7-6.5-13.2-11.5-21.4-14.6c-5.8-2.2-11.9-3.4-18-3.5c-1.9,0-4.1-0.2-6.4-0.3c-0.2,0.6-0.4,1.2-0.6,1.8
					c-1.2,4-1.2,8.3,0.4,12.2c1.1,2.7,3.2,4.8,4,7.7c0.9,3.1,0.3,6.5-0.1,9.6c-1,8.8-2.1,19,4.6,25.9c6.6,6.8,17.4,7.8,26.3,7.9
					c2.7,0,5.4-0.1,8.1-0.3c3.9-0.3,6.6,0.1,10.2,1.6c2.3,0.9,4.5,1.3,6.8,1.1C223.7,200,223.3,191.3,221.5,183z"/>
			</g>
			<g>
				<path class="st4" d="M214.4,165.1c-1-1.6-2.1-3.1-3.4-4.5c-0.3-0.4-0.7-0.8-1-1.2c-1.6-1.8-3.4-3.5-5.2-5.1
					c-1.5-1.3-3-2.4-4.7-3.5c-3.6-2.4-7.5-4.4-11.5-5.9c-1.3,1-2.5,2.2-3.6,3.5c-3.7,4.3-6.3,10.2-3.8,15.7c1.1,2.3,2.9,4.2,4.9,5.7
					c1,0.8,2.1,1.5,3.2,2.2c2.8,1.7,3.8,3.5,4.1,6.7c0.6,5.3,5.3,7.7,10.2,7.1c4-0.5,7.8-1.2,11.8-1.4c2.1-0.1,4-0.5,5.9-1.3
					C220.2,176.7,218,170.6,214.4,165.1z"/>
			</g>
			<g>
				<path class="st2" d="M204.8,154.2c-1.7,2-3.7,3.7-6,5c-2.6,1.5-3.5-0.8-2.5-2.9c0.9-2,2-3.9,3.6-5.4c0.1-0.1,0.2-0.2,0.3-0.3
					C201.8,151.8,203.4,153,204.8,154.2z"/>
			</g>
			<g>
				<path class="st2" d="M212.6,166c-1.5-2.7-5.3,0-6.8,1.3c0,0-0.1,0.1-0.1,0.1c-0.1,0-0.1,0.1-0.2,0.1c-0.8,0.7-2.4,2.2-1.5,3.4
					c0.9,1.2,3.2,0,4.2-0.5c1.5-0.8,3.5-2.1,4.4-3.5C212.7,166.6,212.7,166.2,212.6,166z"/>
			</g>
			<g>
				<path class="st5" d="M74.5,240.5c0,1.1-1.7,1.1-1.7,0c-0.2-8.2-0.4-16.4-0.5-24.5c-0.2-7.8,0.4-16.2-1-23.9
					c-1.4-7.7-5.4-15.1-8.7-22.2c-1.4-2.9-2.8-5.8-4.2-8.7c0.4-0.5,0.8-0.9,1.2-1.4c1.8,3.6,3.5,7.1,5.2,10.7
					c3.1,6.7,6.9,13.8,8.2,21.2c1.4,7.4,0.9,15.2,1,22.7C74.1,223,74.3,231.8,74.5,240.5z"/>
			</g>
			<g>
				<path class="st5" d="M211.1,160.5c-4.5,3-8.4,7.3-11.6,11.1c-2.1,2.5-4,5.1-5.7,7.8c-2.9,4.4-5.6,9-8,13.7
					c-1.8,3.4-3.5,6.7-5.1,10.1c-6.4,13.4-11.4,27.2-14.2,41.9c-0.2,1.1-1.8,0.6-1.6-0.4c2.9-14.7,7.9-28.7,14.3-42.1
					c2.4-5.1,5.1-10.2,7.9-15.2c2-3.5,4.1-7,6.4-10.3c3-4.4,6.3-8.5,10.1-12.2c2-2,4.2-3.9,6.6-5.5
					C210.4,159.8,210.8,160.1,211.1,160.5z"/>
			</g>
			<g>
				<path class="st11" d="M210.1,159.4c-2.4,1.6-4.6,3.5-6.6,5.5c-3.8,3.7-7.1,7.8-10.1,12.2c-2.3,3.3-4.4,6.8-6.4,10.3
					c-2.8,5-5.5,10.1-7.9,15.2c0.5,0.2,1,0.5,1.6,0.7c1.6-3.4,3.3-6.8,5.1-10.1c2.5-4.7,5.1-9.3,8-13.7c1.8-2.7,3.7-5.3,5.7-7.8
					c3.1-3.8,7.1-8.1,11.6-11.1C210.8,160.1,210.4,159.8,210.1,159.4z"/>
				<path class="st3" d="M223.9,208.4c-2.3,0.2-4.5-0.2-6.8-1.1c-3.7-1.5-6.4-1.9-10.2-1.6c-2.7,0.2-5.4,0.3-8.1,0.3
					c-5.8-0.1-12.5-0.6-18.3-2.8c1.6-3.4,3.3-6.8,5.1-10.1c2.5-4.7,5.1-9.3,8-13.7c1.8-2.7,3.7-5.3,5.7-7.8
					c3.1-3.8,7.1-8.1,11.6-11.1c1.2,1.4,2.3,3,3.4,4.5c3.6,5.5,5.7,11.6,7.1,17.9C223.3,191.3,223.7,200,223.9,208.4z"/>
			</g>
			<g>
				<path class="st5" d="M129.9,173.6c-0.7,4.3-1.5,8.5-2.3,12.8c-2,10.9-3.9,21.9-3.6,33c0,1.1-1.7,1.1-1.7,0
					c-0.3-11.8,1.8-23.4,4-34.9c0.7-4,1.5-8.1,2.1-12.1c1.6-9.9,2.7-19.9,1.8-30c-0.1-1.1,1.6-1.1,1.7,0
					C132.8,152.9,131.6,163.2,129.9,173.6z"/>
			</g>
			<g>
				<path class="st5" d="M126.2,241c-1.2-6.2-2.7-12.4-2.5-18.7c0-1.1-1.6-1.1-1.7,0c-0.2,6,1.1,11.7,2.2,17.5
					c1.3,6.7,2.5,13.3,3.8,20c0.2,1.1,1.8,0.6,1.6-0.4C128.6,253.2,127.4,247.1,126.2,241z"/>
			</g>
			<g>
				<g>
					<path class="st7" d="M116,220.5c-0.9-1.1-1.7-2.2-2.5-3.3c0,0,0,0,0,0c-1.1-7.2,0.9-14.3-1.5-21.4c-1-2.8-3.6-14.2-7.7-12.6
						c-5.3,2.1-1.1,7.7,0,10.7c2,5.4,3.5,10.3,4.7,16.5c0.6,3.3,2.5,8.3,4.6,10.9C114.2,222.2,116.7,221.4,116,220.5z"/>
				</g>
				<g>
					<path class="st0" d="M134.9,217.9c0,0-2.6-10.1-8.4-22.1c-4.4-9.2-10.2-17.8-17.6-24.8c-2.2-2.2-5.7-5.8-9.2-5.7
						c-2,0.1-3,0.6-2.7,2.2c0,0.1,0,0.2,0.1,0.3c-0.4,0.3-0.9,1.2-1.1,2c-0.1,0.4-0.1,0.7-0.1,1.1c0,0.1,0,0.2,0,0.2
						c0.3,1.3,1.5,2.1,2.4,2.9c0.6,0.5,1.1,1.1,1.6,1.6c0.4,0.4,0.8,0.8,1.1,1.2c-0.2,0.1-0.3,0.3-0.4,0.4c-0.3,0.4-0.4,1-0.4,1.7
						c0.2,3.6,4.8,7.7,6.4,10.7c0.5,1,1,1.9,1.4,2.9c0.8,1.8,1.4,3.8,1.7,5.8c1.2,10.5-1.6,23.6,10.9,28.1c0.4,0.2,0.8,0,1-0.3
						c2.6,1.8,5.5,2.8,8.8,2.6C132.9,228.8,134.9,217.9,134.9,217.9z"/>
				</g>
				<g>
					<path class="st7" d="M115.4,194.1c-1.8-4.1-3.7-8.3-6.5-12c-0.7-1.6-1.5-3.2-2.4-4.4c-3-4.3-5.6-7.6-10.7-6.8
						c0,0.1,0,0.2,0,0.2c0.3,1.3,1.5,2.1,2.4,2.9c0.6,0.5,1.1,1.1,1.6,1.6c0.4,0.4,0.8,0.8,1.1,1.2c-0.2,0.1-0.3,0.3-0.4,0.4
						c-0.3,0.4-0.4,1-0.4,1.7c0.2,3.6,4.8,7.7,6.4,10.7c0.5,1,1,1.9,1.4,2.9c0.3-0.3,0.6-0.6,0.9-1c1-1.4,1.3-3,1.2-4.7
						c1.4,2.5,2.6,5.1,3.7,7.7C114.3,195.7,115.9,195.1,115.4,194.1z"/>
				</g>
				<g>
					<path class="st7" d="M119.3,191c-2.9-4.4-15.6-27.8-23.2-21.1c0.2-0.9,0.7-1.7,1.1-2c0-0.1,0-0.2-0.1-0.3
						c3.1-0.9,6.8,0.5,9.4,2.7c6,5.1,9.9,13.2,14.2,19.6C121.2,190.9,119.8,191.9,119.3,191z"/>
				</g>
			</g>
			<g>
				<polygon class="st3" points="86.1,259.1 178.4,260.2 178.4,269.8 86.1,268.4 				"/>
			</g>
			<g>
				<ellipse class="st4" cx="129.4" cy="264.1" rx="19.5" ry="11.5"/>
			</g>
			<g>
				<path class="st12" d="M66.1,255.2l-7.7,7.6c0,0-12.1-1.8-20.3-7.3c-8.2-5.4-12.2-14.2-12.4-15.9c0,0,12.9,0.6,24,6.2
					C55.8,248.9,61.6,252.3,66.1,255.2z"/>
			</g>
			<g>
				<path class="st12" d="M218.5,263.3C218.5,263.3,218.5,263.4,218.5,263.3c-0.9,0.9-6.6,3-12.7,3.6c-1,0.1-2,0.2-2.9,0.2
					c-5.6,0-10.1-0.2-10.1-0.2l-8-2.3l-2.8-0.1c-3.7-3.8-6.9-7.2-7.2-7.6c-0.8-1,1.9-15.1,2.1-15.9c0,0,0,0,0,0s0,0,0,0
					c0.4-0.1,4.9-1.1,16.3,3.4c6.3,2.4,11.1,5,14.7,7.5C217,258,218.5,263.3,218.5,263.3z"/>
			</g>
			<g>
				<path class="st0" d="M207.9,251.8c-0.3,3.7-0.9,9.5-2.1,15.2c-1,4.5-2.4,8.9-4.4,11.9c-6,8.9-19.5,11.5-27.9,5
					c-8.4-6.5-5.6-25.6-4.4-29.8c1.2-4,7.4-12.6,7.7-13.1c0,0,0,0,0,0s0,0,0,0c0.4-0.1,4.9-1.1,16.3,3.4
					C199.6,246.7,204.3,249.3,207.9,251.8z"/>
			</g>
			<g>
				<path class="st0" d="M173.6,283.8c0,0-18-14.4-30.5-28.5c-8.4-9.5-28.9-33.1-28.9-33.1l1.4-10.6l11.7,0.5
					c0,0,58.5,32.8,67.1,41.9C198.8,258.6,173.6,283.8,173.6,283.8z"/>
			</g>
			<g>
				<path class="st0" d="M43.2,243.1c0,0-5,11.3-7.4,21.3c-2.4,10-1.7,21.3,10.1,27.9c11.8,6.6,21-2,24.6-7.1c3.6-5.2,8.4-25,8.4-25
					l-27.3-13.8L43.2,243.1z"/>
			</g>
			<g>
				<path class="st0" d="M81.2,196.3c0,0-31.2,43.3-35.3,50.4c-4.1,7.1-5.6,12.4-5.6,13.8s14,13.8,14.8,14.5
					c0.8,0.7,14.7,11.3,14.7,11.3s7.9-8.8,14-31.1c4-14.6,14.4-54.9,14.4-54.9l-8.8-6.1L81.2,196.3z"/>
			</g>
			<g>
				<g>
					<path class="st7" d="M91,205.8c5.1,0.8,13.6-1.9,13.1-9c-0.1-0.7-1.2,1.1-1.7,1.2c-4-5-9.7-8.5-16.1-9.4
						c-4.3-0.6-9.6,0.5-8.8,6.1C78.4,201.3,85,204.8,91,205.8z"/>
				</g>
				<g>
					<path class="st7" d="M78,175.9c-1.5,0.3-1.9,1.7-1.6,3c0.5,2.6,3,4.6,2.5,7.4c-0.4,2.6-1.6,3.7-1.5,7.7
						c0.1,3.9,7.8-4.8,8.7-7.1c0.4,0-0.2-0.9-0.2-1.5c-0.2-3.6-1.4-6.6-4.6-8.6C80.4,176.2,79.2,175.8,78,175.9z"/>
				</g>
				<g>
					<g>
						<path class="st0" d="M82.3,195.4c0.2,0,0.4,0,0.7,0c0,0.2,0.2,0.7,0.5,1.2c0.1,0.2,0.2,0.4,0.4,0.6c0.6,0.7,1.5,1,2.4,1.2
							c0.5,0.2,1.4,0.1,1.8,0c0.2,0,0.3,0,0.3,0s0.3,0.6,0.8,1.1c0.2,0.3,0.5,0.5,0.8,0.8c1,0.8,3.3,0.9,4.5,0.5
							c0.3-0.1,0.5-0.2,0.7-0.4c0,0,0,0,0,0.1c0.1,0.6,0.5,1,1,1.4c0.4,0.3,1,0.6,1.5,0.7c1.3,0.4,2.7,0,3.7-0.9
							c0.3-0.3,0.6-0.6,0.9-0.9c0.7-0.9,1.2-1.8,1.8-2.8c1.9-3.4,3.8-7.2,4.3-11.1c0.3-2.6-0.4-4.1-2.2-4.3c-0.2,0-0.3,0-0.5,0
							c-0.2,0-0.4,0.1-0.6,0.2c0.3-0.9,0.5-1.9,0.4-2.9c-0.1-1.7-0.7-3.1-2.3-3.5c-0.6-0.2-1.2-0.2-1.8,0c-0.3,0.1-0.5,0.2-0.8,0.4
							c0.1-0.9,0.1-1.8-0.1-2.5c-0.3-1.3-1.2-2.3-3-2.3c-1.4,0-2.4,0.8-3.3,1.9c-0.4,0.4-0.7,0.9-1,1.3c-0.2,0.2-0.3,0.4-0.5,0.7
							c-0.1-0.4-0.2-0.8-0.4-1.2c-0.3-0.6-0.8-1-1.6-1.2c-3.2-0.8-5.9,4.4-7,6.4C82,182.9,75.4,195.3,82.3,195.4z"/>
					</g>
					<g>
						<path class="st7" d="M82.3,195.4c0.2,0,0.4,0,0.7,0c0,0.2,0.2,0.7,0.5,1.2c4.1-7.5,8.2-14.8,10.7-23c-0.4,0.4-0.7,0.9-1,1.3
							c-0.2,0.2-0.3,0.4-0.5,0.7c-0.1-0.4-0.2-0.8-0.4-1.2C89.8,181.8,86.1,188.6,82.3,195.4z"/>
					</g>
					<g>
						<path class="st7" d="M88.1,198.4c0.2,0,0.3,0,0.3,0s0.3,0.6,0.8,1.1c4.9-7.3,9.1-15,12.2-23.3c-0.3,0.1-0.5,0.2-0.8,0.4
							c0.1-0.9,0.1-1.8-0.1-2.5C97.4,182.6,93.2,190.7,88.1,198.4z"/>
					</g>
					<g>
						<path class="st7" d="M95.3,200.4c0.1,0.6,0.5,1,1,1.4c3.9-6.2,7.5-12.5,9.9-19.3c-0.2,0-0.3,0-0.5,0c-0.2,0-0.4,0.1-0.6,0.2
							c0.3-0.9,0.5-1.9,0.4-2.9C103.2,187.1,99.4,193.8,95.3,200.4z"/>
					</g>
				</g>
			</g>
			<g>
				<path class="st7" d="M46.4,245.1c-4,6.1-7.2,12.6-9.7,19.4c-0.4,1,1.2,1.4,1.6,0.4c2.5-6.7,5.7-13,9.6-19
					C48.5,245,47,244.2,46.4,245.1z"/>
			</g>
			<g>
				<path class="st7" d="M201.5,259.1c-6.2-7.5-14.4-12.4-22.7-17.3c-0.9-0.5-1.8,0.9-0.8,1.4c8.1,4.8,16.3,9.7,22.4,17
					C201,261.1,202.2,259.9,201.5,259.1z"/>
			</g>
			<g>
				<g>
					<g>
						<path class="st8" d="M148.2,129.5c-0.5,0-1-0.5-1.1-1.3c-0.1-0.4-0.1-0.9-0.1-1.3c0-0.9,0-1.9,0-2.8c0-1.4,0-3.4,1.2-3.4
							c1.1,0,1.2,1.7,1.2,3c0,1.3,0,2.6,0,3.8C149.4,128.7,148.9,129.5,148.2,129.5z"/>
					</g>
				</g>
				<g>
					<g>
						<path class="st8" d="M154.5,129.5c-0.5,0-1-0.5-1.1-1.3c-0.1-0.4-0.1-0.9-0.1-1.3c0-0.9,0-1.9,0-2.8c0-1.4,0-3.4,1.2-3.4
							c1.1,0,1.2,1.7,1.2,3c0,1.3,0,2.6,0,3.8C155.7,128.7,155.2,129.5,154.5,129.5z"/>
					</g>
				</g>
				<g>
					<g>
						<path class="st8" d="M151.4,129.5c-0.5,0-0.9-0.5-1-1.3c-0.1-0.4-0.1-0.9-0.1-1.3c0-0.9,0-1.9,0-2.8c0-1.4,0-3.4,1.1-3.4
							c1,0,1.1,1.7,1.1,3c0,1.3,0,2.6,0,3.8C152.4,128.7,152,129.5,151.4,129.5z"/>
					</g>
				</g>
				<g>
					<path class="st9" d="M155.7,117.2c-0.6-4.5-1.7-9-3.2-13.3c-0.2-0.6-0.4-1.4-0.8-1.9c-0.5-0.7-0.9,0.2-1.2,0.7
						c-0.8,1.7-1.1,3.6-1.6,5.4c-0.6,2.4-1.1,4.8-1.6,7.3c-0.2,1.3-0.8,3.1-0.5,4.5c0.2,1,1.1,1.5,2.1,1.8c1.1,0.3,2.3,0.3,3.5,0.2
						c0.8-0.1,2,0.1,2.7-0.6l0.1-0.1c0.4-0.4,0.6-0.7,0.6-1.3C156,119.2,155.8,118,155.7,117.2z M153.3,116.8c0,0.2-0.1,0.5-0.3,0.7
						l0,0c-0.3,0.3-0.8,0.2-1.2,0.2c-0.5,0-1,0-1.5-0.1c-0.4-0.1-0.8-0.3-0.9-0.8c-0.1-0.6,0.1-1.3,0.2-1.9c0.2-1.1,0.4-2.1,0.7-3.1
						c0.2-0.8,0.4-1.6,0.7-2.3c0.1-0.3,0.3-0.6,0.5-0.3c0.2,0.2,0.3,0.6,0.3,0.8c0.7,1.8,1.1,3.8,1.4,5.7
						C153.2,116.1,153.3,116.5,153.3,116.8z"/>
				</g>
				<g>
					<path class="st4" d="M153.3,101.8c0-1.1-0.9-1.9-1.9-1.9c-1.1,0-1.9,0.9-1.9,1.9s0.9,1.9,1.9,1.9
						C152.4,103.8,153.3,102.9,153.3,101.8z"/>
				</g>
			</g>
			<g>
				<path class="st5" d="M157.2,139.6c-0.2,0.2-0.5,0.5-0.7,0.7c-4.7,4.6-9.7,8.9-15.1,12.6c-2.5,1.8-4.1,2.9-6.1,0.3
					c-0.5-0.6-0.9-1.2-1.3-1.9c-1.3-2.3-2.2-5.2-2.9-7.9c-1.2,2.2-2.4,4.4-3.8,6.5c-0.5,0.8-1,1.6-1.5,2.4c-0.4,0.6-0.8,1.5-1.4,1.9
					c-1,0.7-2-1.1-2.5-1.7c-0.9-1-1.7-2-2.5-3.1c-1.6-2.1-3-4.4-4.2-6.8c-0.3-0.6-0.6-1.1-0.9-1.7c0.4-0.4,0.9-0.7,1.3-1.1
					c0.8,1.8,1.7,3.5,2.8,5.1c1.4,2.3,3.1,4.6,4.9,6.7c0.3,0.3,0.8,0.3,1.1-0.1c0.5-0.7,1-1.5,1.4-2.2c1.6-2.5,3.1-5.1,4.4-7.7
					c0.5,0.2,1.1,0.3,1.6,0.4c0.1,0,0.3-0.1,0.7-0.2c0.6,3,1.5,6.4,3.1,8.7c0.2,0.2,0.4,0.5,0.5,0.7c1.9,2.3,2.9,1.5,5.1-0.1
					c1.9-1.4,3.8-2.8,5.7-4.3c2.6-2.1,5.2-4.4,7.6-6.7c0.5-0.5,1-1,1.6-1.5C156.4,138.9,156.8,139.3,157.2,139.6z"/>
			</g>
			<g>
				<path class="st5" d="M189.6,610.5c-0.2,2.8-0.4,6.4-0.6,9.8c-2.5,0.8-6.5,1.2-11,1.3c0.4-3.9,1.2-9,2.7-14.9
					c3.4-13,7.1-46.9,7.1-46.9S190.1,600.9,189.6,610.5z"/>
			</g>
			<g>
				<path class="st11" d="M198.4,401.2c-0.1,5.6-0.2,11.2-0.4,16.8c-0.5-0.2-1.1-0.5-1.6-0.9c0.1-6.8,0.2-13.6,0.4-20.5
					c0.3-16.5,2-34.4,1.7-52.4c0.7,0.1,1.3,0.2,2,0.3C200.8,362.9,198.8,384.5,198.4,401.2z"/>
			</g>
			<g>
				<path class="st4" d="M102.8,561c-0.9-2.2-2.4-2.8-3.9-4.4c-3.1-3.3-1.2-10.2-1.8-14.4c-0.8-5.1-3.4-10.3-8.5-12.2
					c-3.5-1.3-7.6-1.1-11.5-0.2c0.1,1.9,0.2,3.8,0.3,5.7c0.2,5.8,1.1,14.1,2.1,22.8l0.6,4.9c0.3,2,0.5,4,0.7,5.9
					c0.2,1.8,0.5,3.6,0.7,5.3c0.4,3.4,0.9,6.7,1.2,9.6c0.1,0,0.2,0,0.3,0C92,582.7,107.2,571.5,102.8,561z"/>
			</g>
			<g>
				<path class="st2" d="M87.1,546.8c-0.1-1.9-0.4-6.5-2.7-7.3c-3.3-1.1-2.9,11.4,0.3,12.6C87.2,553.1,87.1,548.1,87.1,546.8z"/>
			</g>
			<g>
				<path class="st2" d="M82.8,557.9c-1.1,0.1-2.2,0.2-3.3,0.3l0.6,4.9c0.2,0,0.4,0,0.5-0.1c2-0.1,7.2,0,7.6-2.8
					C88.6,557.5,84.4,557.8,82.8,557.9z"/>
			</g>
			<g>
				<path class="st2" d="M83.8,568.1c-1,0-2,0.4-2.9,0.9c0.2,1.8,0.5,3.6,0.7,5.3c0.1,0,0.1-0.1,0.1-0.1c1.2-0.6,2.4-1.4,3.4-2.3
					C86.5,570.5,86.1,568.1,83.8,568.1z"/>
			</g>
			<g>
				<path class="st4" d="M81.9,335c-0.3-4.1-3.5-6.8-3.9-11c-0.6-5.8,0.7-11.9-3-17c-1.7-2.4-4.3-4-7.2-5
					c-3.4,8.8-6.4,18.8-7.9,29.8c-0.3,1.8-0.5,3.7-0.6,5.6c-0.3,3.3-0.5,6.7-0.5,10.1c0,3.2,0,6.5,0.1,9.7c2.6-0.8,5.1-2,7.5-3.2
					c5.6-2.9,11.6-6.2,14.3-12.2C81.5,339.7,82,337.3,81.9,335z"/>
			</g>
			<g>
				<path class="st8" d="M210.1,159.4c-2.4,1.6-4.6,3.5-6.6,5.5c-3.8,3.7-7.1,7.8-10.1,12.2c0.1,0.5,0.2,1,0.3,1.5
					c0,0.3,0.1,0.6,0.1,0.9c1.8-2.7,3.7-5.3,5.7-7.8c3.1-3.8,7.1-8.1,11.6-11.1C210.8,160.1,210.4,159.8,210.1,159.4z"/>
			</g>
			<g>
				<path class="st8" d="M198.4,359.8c-0.4,12.7-1.3,25.2-1.5,36.9c0,0.2,0,0.4,0,0.6c0.6-0.5,1.2-1,1.8-1.5
					c0.4-10.9,1.3-23.5,1.7-35.5C199.7,360,199,359.9,198.4,359.8z"/>
			</g>
			<g>
				<path class="st2" d="M68.7,313.5c-0.6-0.6-1.4-0.7-2.1-0.2c-1.4,1-2,3-2.2,4.9c-0.3,2.1-0.2,5.2,2,5.2c2.3,0,2.7-4.6,2.8-6.2
					C69.4,316.1,69.6,314.4,68.7,313.5z"/>
			</g>
			<g>
				<path class="st2" d="M67.4,331.8c-0.8-1.3-2.3-1.6-3.7-1.4c-1.3,0.2-2.7,0.7-3.9,1.5c-0.3,1.8-0.5,3.7-0.6,5.6
					c0.7,0.1,1.4,0,2-0.1c1.9-0.4,3.7-1.2,5.2-2.4c0.7-0.5,1.3-1.2,1.3-2C67.7,332.5,67.6,332.1,67.4,331.8z"/>
			</g>
			<g>
				<path class="st5" d="M145.6,554.7c-9.3-45.8-15.5-92.2-18.5-138.8c-0.1-1.1-1.7-1.1-1.7,0c3,46.8,9.2,93.3,18.5,139.2
					C144.2,556.2,145.8,555.8,145.6,554.7z"/>
			</g>
			<g>
				<path class="st4" d="M136.3,156c-1.1-1.7-2.7-0.3-3.3,1c-0.3,0.7-0.5,1.4-0.5,2.1c0.1,1.7,1.8,2.7,3.1,1.3
					c0.5-0.6,0.7-1.3,0.9-2.1c0.1-0.7,0.2-1.3,0-2C136.5,156.3,136.4,156.2,136.3,156z"/>
			</g>
			<g>
				<path class="st4" d="M131,191.2c-1.4-1.4-2.7,0.2-3,1.7c-0.1,0.7-0.2,1.5,0,2.2c0.5,1.6,2.3,2.3,3.3,0.7
					c0.4-0.6,0.5-1.4,0.4-2.2c0-0.7-0.1-1.4-0.4-1.9C131.2,191.5,131.1,191.3,131,191.2z"/>
			</g>
		</g>
	</g>
</switch>

</svg>
