<?xml version="1.0" encoding="utf-8"?>
<!-- Generator: Adobe Illustrator 27.1.0, SVG Export Plug-In . SVG Version: 6.00 Build 0)  -->










<svg version="1.1" id="Layer_1" xmlns="http://www.w3.org/2000/svg" xmlns:xlink="http://www.w3.org/1999/xlink" x="0px" y="0px" viewBox="0 0 249.8 696.7" style="enable-background:new 0 0 249.8 696.7;" xml:space="preserve">
<style type="text/css">
	.st0{fill:#CC703B;}
	.st1{fill:#2F3062;}
	.st2{fill:#5D5FAA;}
	.st3{fill:#FCD1BB;}
	.st4{fill:#FFFFFF;}
	.st5{fill:#DE9B7A;}
	.st6{fill:#D0A189;}
	.st7{fill:#955B3E;}
	.st8{fill:#8E4620;}
	.st9{fill:#4E2F22;}
	.st10{fill:#33251E;}
</style>
<switch>
	
	<g>
		<g>
			<g>
				<g>
					<path class="st0" d="M76.7,623.1c0,7.7-0.1,18.8-0.1,18.8l-23.1,11.6l-7.6,3.8l-13.6-10.2c0,0,0.9-1.4,2.1-3.6v0
						c1.8-3.2,4.4-7.9,6.2-12.1c0.1-0.1,0.1-0.2,0.1-0.4c0.7-1.7,1.3-3.5,1.8-5.3c0.2-0.8,0.4-1.6,0.6-2.4c1-4.9,1.4-9,1.4-9
						s31.9-1.2,32.2,2.1C76.6,617.3,76.7,619.9,76.7,623.1z"/>
				</g>
				<path class="st1" d="M76.7,623.1c0,7.7-0.1,18.8-0.1,18.8l-23.1,11.6c-6.8-1.7-12.6-4.1-15.5-6.9c-1.2-1.1-2.5-2.2-3.7-3.1v0
					c1.8-3.2,4.4-7.9,6.2-12.1c0.1-0.1,0.1-0.2,0.1-0.4c0.7-1.7,1.3-3.5,1.8-5.3c0.2-0.8,0.4-1.6,0.6-2.4c3.5,2.1,8.7,4.2,20.8,3.2
					C68.1,626.1,72.6,624.6,76.7,623.1z"/>
				<g>
					<path class="st2" d="M75.9,661.7c-3.7,1.8-12.3,5.3-17.2,10.6c-4.9,5.3-6.9,11.8-14.3,16.3c-7.4,4.4-16.1,6.8-23.5,7.8
						c-7.4,1-17.2-1.6-19.5-5.8c-1.2-2.1-1.6-4.3-1.4-6.6c0.2-2.2,1-4.4,2.3-6.4c2.5-4,10.1-12.3,16.3-18.2
						c6.2-5.9,16.9-19.7,18.8-23.7c2.6-5.4,9.3-8.5,18.9-5.1c9.6,3.4,9,11.5,10.2,11.4c4.2-0.2,9.8-7.2,9.8-7.2
						c0.9-1.2,0.9,16.6,1.6,18.6c0,0,0,0,0,0C78.6,655.4,79.6,659.9,75.9,661.7z"/>
				</g>
				<g>
					<path class="st3" d="M75.9,661.7c-3.7,1.8-12.3,5.3-17.2,10.6c-4.9,5.3-6.9,11.8-14.3,16.3c-7.4,4.4-16.1,6.8-23.5,7.8
						c-7.4,1-17.2-1.6-19.5-5.8c-1.2-2.1-1.6-4.3-1.4-6.6c1.1,1.6,2.3,3.1,3.6,4c3.6,2.6,8.6,4,21.5,2.6
						c12.8-1.4,22.4-12.8,25.6-16.4c3.2-3.7,9.8-12.4,16.3-14.6c6.5-2.2,10.8-6.2,10.8-6.2s0,0,0,0
						C78.6,655.4,79.6,659.9,75.9,661.7z"/>
				</g>
				<g>
					<path class="st4" d="M63.5,644.1c-4,4.8-8.3,9.3-12.9,13.6c-0.8,0.8,0.4,2,1.3,1.3c4.6-4.3,8.8-8.8,12.9-13.6
						C65.5,644.4,64.2,643.2,63.5,644.1z"/>
				</g>
			</g>
			<g>
				<g>
					<path class="st0" d="M192.7,644.6c-0.2,0.1-4.7,0.6-10,1.1c-7.7,0.8-16.9,1.8-16.9,1.8l-12.6-12.6c0,0,0.3-2.3,1-7.4
						c0.3-2.5,0.7-5.6,1.2-9.4c1.2-9.6,2.1-21.1,2.1-21.1l30.5,6.1c-0.5,4.3-0.9,8.7-1.4,13.1c-0.3,3.1-0.8,6.3-0.9,9.6
						c-0.2,4.9,0.4,9.8,3.3,13.9c0.2,0.4,0.5,0.7,0.8,1.1C191.5,643,193.1,644.4,192.7,644.6z"/>
				</g>
				<path class="st1" d="M189.8,640.8c-1,1.7-3,3.6-7,5c-7.7,0.8-16.9,1.8-16.9,1.8l-12.6-12.6c0,0,0.3-2.3,1-7.4
					c4.7,1.1,12.3,2.4,18.8,1.7c5.6-0.7,10-2.2,12.8-3.4c-0.2,4.9,0.4,9.8,3.3,13.9C189.3,640.1,189.5,640.4,189.8,640.8z"/>
				<g>
					<path class="st2" d="M231.5,677.7c0,0.3-0.1,0.5-0.1,0.7c-0.7,3.9-1.8,5.3-4.2,6.8c-6.8,4.4-16.1,4-23.7,2.6
						c-8.3-1.5-14.4-6.4-22-9.6c-7.5-3.1-9-6.4-14.6-6.4c-5.7,0-8.1,0.6-14.2-3.3c-6.2-3.8-6.6-9.3-4.9-12.1
						c1.7-2.8,5.5-21.6,5.5-21.6s9.2,7,10.2,7.3c1,0.3,6.5-6.5,15.7-7.4c9.2-0.9,11.1,1.4,14.2,4.5c4.6,4.6,8,9.5,13.6,13
						c6,3.8,12.4,6.8,17.9,11.4C229.8,667.8,232.3,673.2,231.5,677.7z"/>
				</g>
				<g>
					<path class="st4" d="M185,655.7c-4.7-2.5-12.4-6.8-16.8-9.8c-0.9-0.6-1.8,0.9-0.9,1.5c4.4,3,12.1,7.3,16.8,9.8
						C185.1,657.8,186,656.3,185,655.7z"/>
				</g>
				<g>
					<path class="st3" d="M231.4,678.4c-0.7,3.9-1.8,5.3-4.2,6.8c-6.8,4.4-16.1,4-23.7,2.6c-8.3-1.5-14.4-6.4-22-9.6
						c-7.5-3.1-9-6.4-14.6-6.4c-5.7,0-8.1,0.6-14.2-3.3c-6.2-3.8-6.6-9.3-4.9-12.1c0,0,2.4,6.1,9.5,8.1c7.1,2.1,7.5,1,16.9,4
						c9.3,3,22.3,13.5,32.1,14.9s18,0.6,22.9-3.1C229.9,679.8,230.7,679.1,231.4,678.4z"/>
				</g>
			</g>
			<g>
				<path class="st3" d="M145.3,299.1c-0.2,0.8-1.7,17.6-3.6,38.7c-3.3,37.5-7.7,88.5-7.7,88.5s-2.4,5.8-5.6,13.4
					c-2,5.1-4.4,11-6.5,16.6c-2,5.3-3.8,10.3-5,14.1c-4.4,14.2-6.6,37.3-8.6,54.3c-2,17.1-11.5,30.4-14.6,48.8
					c-3.1,18.4-3.3,29.3-6,37c-2.7,7.8-15.5,8-28.4,9.5c-1.1,0.1-2.2,0.2-3.4,0.3c-0.6,0-1.2,0.1-1.8,0.1
					C42.5,621,30,618.7,30,618.7s2.7-86.1,4.2-107.2c1.6-21.1,6.6-94.4,11.7-140.6c6.9-61.9,20.9-93.4,20.9-93.4
					s13.2-19.8,19.3-29.7c1.1-1.8,2-3.2,2.5-4.2c0.3-0.6,0.5-1,0.6-1.2c0.2-1.3,18.8-2.1,28.1-2.4c3.1-0.1,5.1-0.1,5.1-0.1
					s8.1,21.3,14.7,38.3c0.7,1.8,1.3,3.5,2,5.1C142.5,292.2,145.1,298.8,145.3,299.1z"/>
			</g>
			<g>
				<path class="st5" d="M89.2,240.9c-0.2,0.9-0.3,1.8-0.5,2.8c-4.9,27.7-9.8,55.4-13.8,83.2c-3.8,25.8-6.8,51.6-8.5,77.6
					c-1.7,25.5-1,51.1-2.2,76.6c-1.2,25.7-5.6,51.1-7.1,76.8c-1.2,20.8-1.3,41.7-1.1,62.5c-0.6,0-1.2,0.1-1.8,0.1
					c-0.2-24.4-0.2-48.8,1.8-73.1c2.1-25.9,6.2-51.6,6.8-77.6c0.6-25.9,0.6-51.6,2.7-77.5c3.9-48.5,12.2-96.6,20.7-144.5
					c0.4-2.5,0.9-5,1.3-7.5C87.7,239.3,89.4,239.8,89.2,240.9z"/>
			</g>
			<g>
				<path class="st3" d="M212.1,366.3c0,69.2-24.6,242.8-24.6,242.8s-3.8,2.7-11.8,5.2c-0.6,0.2-1.2,0.4-1.8,0.5
					c-3.7,1.1-8.3,2-13.7,2.7c-6.9,0.8-19,3.9-23.8-3c-7.7-11-0.6-27.4,0.5-39.4c1.1-11.5-6.9-31-10.2-46.1
					c-1.1-5.1-2-10.2-2.6-15.4c-1.1-8.9-1.5-18-1-27c0.6-13.2,4.9-25.7,5.6-38.8c0.1-2.7,0.1-5.4-0.1-8.1c0-0.5-0.1-1-0.1-1.6
					c-1.2-13.3-5.1-26.3-5.1-39.4l-0.1-87.6l-4.9-59.5l-0.1-1.8l-0.8-9.9l-0.4-4.9c0,0,12.5-7.2,20.1-11.3c0.6-0.4,1.3-0.7,1.8-1
					c2.2-1.2,3.7-1.9,3.8-1.9c0.4,0.2,23.6,10.4,38.9,17.1c0.8,0.4,1.5,0.7,2.3,1c6.4,2.8,10.9,4.8,10.9,4.8s0.7,2.2,1.8,6.3
					c0.2,0.6,0.3,1.2,0.5,1.8C201.9,269.4,212.1,313.1,212.1,366.3z"/>
			</g>
			<g>
				<path class="st5" d="M196.6,399.8c-2,28.1-4,56.3-6,84.4c-3.1,43.4-9.9,86.7-14.8,130.1c-0.6,0.2-1.2,0.4-1.8,0.5
					c3.7-29.5,8.8-69.3,12.7-108.4c4.6-45.7,7.2-91.5,8.8-114.7c3.6-51.4,6.1-104.9-13.8-153.5c0,0,0,0,0-0.1
					c-0.4-1,1.3-1.5,1.7-0.4c0.2,0.5,0.4,1,0.6,1.4c10.5,26.1,14.7,54.1,15.6,82.1C200.3,347.5,198.5,373.7,196.6,399.8z"/>
			</g>
			<g>
				<path class="st5" d="M151.8,324.9c-0.6-6.3-1.2-12.5-1.5-18.8c-1-25.4-0.2-50.8-0.2-76.2c0-1.1-1.8-1.1-1.8,0
					c0,21.4-0.2,42.9,0,64.4c0.1,10.3,0.7,20.4,1.7,30.6c0.5,5.1,1.1,10.1,1.2,15.2c0,3.4-0.7,7.1-4.4,8.4c-2.5,0.9-5.4,0.5-7.9,0
					c-1.1-0.2-1.6,1.5-0.5,1.7c6.9,1.5,14-0.1,14.5-8.2C153.4,336.4,152.4,330.5,151.8,324.9z"/>
			</g>
			<g>
				<path class="st5" d="M144.9,384.5c-1.9-15.5-2.7-31.1-3.1-46.7c-0.1-3.5-0.2-7.1-0.3-10.6c-0.3-14.6-1.6-29.2-2.3-43.8
					c-0.2-3.7-0.4-7.5-0.5-11.2c-0.5-16.5-0.4-32.9,0.2-49.4c0.2-4.4,0.4-8.7,0.6-13.1c0.1-1.1-1.7-1.1-1.8,0
					c-0.3,4.7-0.5,9.4-0.6,14.1c-0.5,13.5-0.6,27-0.4,40.4c0.1,4.7,0.3,9.3,0.5,14c0.7,13.6,1.8,27.2,2.3,40.8
					c0.8,18.3-4,35.5-6.5,53.5c-1.1,8.2-1.8,16.5-1.9,24.7c-0.2,8.6,0.7,17.1,0.4,25.7c-0.2,5.4-1.5,10.4-3.1,15.2
					c-1.5,4.5-3.4,8.9-5,13.6c-0.5,1.5-1,3-1.4,4.6c2.1-5.6,4.5-11.5,6.5-16.6c0.2,2.7,0.2,5.4,0.1,8.1c-0.6,13-4.9,25.6-5.6,38.8
					c-0.4,9-0.1,18,1,27c6.2-10.4,12-21,15.9-32.5c2.3-6.8,4-13.8,4.5-21c0.7-8.5-0.4-17-1-25.4c-0.7-9.4,0.4-18.2,1.6-27.5
					C146.1,399.6,145.8,392.1,144.9,384.5z"/>
			</g>
			<g>
				<path class="st5" d="M197.2,252c-26.3-1.1-52.6-1.1-78.9-0.2c-14.6,0.5-29.2,1.3-43.7,2.4c-1.1,0.1-1.1-1.7,0-1.8
					c14.5-1.1,29-1.9,43.6-2.4c26.1-0.9,52.3-0.8,78.5,0.2C196.8,250.8,197,251.4,197.2,252z"/>
			</g>
			<g>
				<path class="st6" d="M217.5,164.4c2-7.8,4.3-15.5,3.8-23.7c-0.9-13.3-8.2-26.6-19.8-33.5c-12.1-7.3-30.5-6.6-44.5-5.5
					c-0.6,0-1.2,0.1-1.8,0.1c-0.1,0-0.1,0-0.2,0c-0.1,0-0.1,0-0.2,0c-10.1,0.8-19.7-2.3-29.7-2.1c-5.1,0.1-10.2,1-15.3,1.6
					c-4.6,0.5-11.9,2.1-14.9-2.6c-0.5-0.8-1.6-0.3-1.6,0.4c-0.2,0-0.3,0-0.5,0c-0.3,0-0.6,0-0.9,0c-0.3,0-0.6,0-0.9,0
					c-7.2,0.2-14.4,0.9-21.5,2.3c-7.4,1.4-16.1,3-22.4,7.4c-0.2,0.2-0.5,0.4-0.7,0.6c-0.1,0-0.1,0.1-0.1,0.1c0,0,0,0-0.1,0.1
					c-0.9,0.7-1.7,1.4-2.4,2.2c-7,7.4-8.1,18.8-6.2,28.7c0.2,0.8,0.3,1.5,0.5,2.3c0.2,0.7,0.4,1.4,0.6,2.1c2.3,7.6,6,14.6,8.9,22
					c1.4,3.4,2.6,7,3.1,10.6c0.7,4.6,0,8.8-0.6,13.3c0,0.1,0,0.1,0,0.2c-0.1,0.6-0.1,1.1-0.2,1.7c-0.1,0.4-0.1,0.8-0.1,1.1
					c-0.1,0.7-0.1,1.5-0.1,2.2c0,6.6,1.3,13.2,2.4,19.7c0.6,3.8,1.3,7.6,2,11.4c-2.6,11.6-4.6,23.4-3.5,35.2v0
					c0.1,1.2,0.2,2.4,0.4,3.6c0.5,3.2,0.5,6.5,1.6,9.6c0.1,0.3,0.2,0.6,0.4,0.9c0.9,2.1,2.3,3.9,4.3,5c5.6,3,10.7-0.7,16-2.7
					c6.3-2.3,10.1-5.9,15.2-10.3c5.8-5.1,7.6-11.1,15-13.7c3.5-1.2,5.2-2,8.5-3.6c3.1-1.6,4.3-3.5,7.1-5.5c2.9-2,5.5-4.3,8-6.7
					c0.5-0.4,0.9-0.9,1.4-1.3c0.2,0.1,0.4,0.2,0.7,0.2c6,2.1,12.2,3.5,18.6,4.3c2.3,0.3,4.8,0.2,7.1,0.5c3.3,0.5,6.4,2.1,8.8,3.5
					c2.6,1.5,9.4,2.4,14.5,3.3c2.1,0.4,3.8,0.7,5,1.1c3.3,1,7.4,1.8,11.2,1.4c3.6-0.3,6.9-1.6,9.1-4.5c3.6-4.7,5.1-11.5,6-17.8
					c2.8-2.4,4.4-6.1,4.8-9.9c0.5-4.1-0.3-8.2-0.7-12.4c-0.4-4.9-0.2-9.8,0.2-14.7C214.4,183.1,215.2,173.6,217.5,164.4z"/>
			</g>
			<g>
				<path class="st7" d="M130,184.6c-0.2,1.1-0.3,2.3-0.5,3.5c-0.1,1.1,1.7,1.1,1.8,0c0.1-1,0.2-2,0.4-3
					C131.9,184,130.2,183.5,130,184.6z"/>
			</g>
			<g>
				<path class="st7" d="M133.5,224.3c-0.1-1.1-1.8-1.1-1.8,0c0.1,1.4,0,2.7-0.1,4.1c-0.1,1.1,1.7,1.1,1.8,0
					C133.5,227.1,133.6,225.7,133.5,224.3z"/>
			</g>
			<g>
				<path class="st7" d="M194.2,251.7c-3.8,0.4-7.9-0.4-11.2-1.4c-1.2-0.4-2.9-0.7-5-1.1c-5.1-21.8-8.6-37.3-7.2-40
					c1.4-2.7,6.3-6,6.3-6v8.1c0,0-2.7,3.1,0.8,11.4C181.3,230.4,192.6,249.1,194.2,251.7z"/>
			</g>
			<g>
				<path class="st7" d="M91.3,231c-1.2,7.4-5.9,9.9-10,15.8c-4.1,5.9-2.4,7.8-11.4,17.5c-4.9,5.3-11.8,9.4-17,12
					c-0.1-0.3-0.3-0.6-0.4-0.9c-1.1-3.1-1.2-6.4-1.6-9.6c-0.2-1.2-0.3-2.4-0.4-3.6c2.8-1.1,20.8-8.6,23.4-15c2.8-7,3.1-7.3,8.6-13.5
					c5.5-6.2,3.1-11.1,3.1-11.1l4.9-4.9C90.4,217.8,92.5,223.6,91.3,231z"/>
			</g>
			<g>
				<path class="st6" d="M152.6,118.5c-9,3.3-16.6,5.2-27.8,2.4c-9.6-2.4-28.4-12.8-33.7-15.8c-0.9-0.5-1.4-0.8-1.4-0.8
					s0.9-2.4,2.1-5.1c0.5-1.2,1.1-2.4,1.8-3.5c1-1.7,2-3.1,2.9-3.7c3-1.8,9.8,0.1,23.8,1.2c14.1,1,22.5-2.2,25.6-1.9
					c2.7,0.2,7.2,7,9.1,10.6c0.3,0.6,0.5,1,0.7,1.4C156.3,105,161.6,115.2,152.6,118.5z"/>
			</g>
			<g>
				<path class="st0" d="M153.1,103.1c0,0-19.3,26.5-21.4,31.5c-2.1,5-1.4,2-2.8,3.1c-1.4,1.1-15.5-3.7-18.3-6
					c-2.8-2.3-9.8-17.3-10.3-19.1c-0.5-1.8-8-10.5-4-11.5c4.4-1.1,7.3-3.8,9.7-7.4c3.5-5.2,3.8-9.8,3.8-15.9c0-3.7-0.1-7.3-0.4-11
					l1.8,0.2l29.6,2.5c0,0-0.2,7.3-0.1,14.6c0.1,6.4,0.5,11,1.5,12.9C144.4,101.2,153.1,103.1,153.1,103.1z"/>
			</g>
			<g>
				<path class="st4" d="M99.8,101c0,0,10.4,8,21.8,8.1c11.4,0.1,25.1-6.2,25.1-6.2s-12.8,19.2-14.3,21.6c-1.5,2.4-7.9,7.5-11.3,9.5
					C117.6,136.1,99.8,101,99.8,101z"/>
			</g>
			<g>
				<path class="st8" d="M140.7,69.6l-29.6-2.5c0,0.1-0.1,0.2-0.1,0.2c-0.5-0.4-1.7,0-1.6,0.9c1.9,12.1,19.3,20.8,31.1,15.9
					C140.5,76.8,140.7,69.6,140.7,69.6z"/>
			</g>
			<g>
				<path class="st0" d="M101.1,41.9c1.2,9.4,3,20.5,9,28.2c5.8,7.5,15.1,11.8,24.3,6.3c9.3-5.6,12.2-16.6,13.7-26.6
					c0.9-5.6,0.9-11.3,0.3-17c-0.5-4.4-1.1-11.6-4.4-14.8c-4.9-4.9-13.8-6-20.4-6.3c-1.7-0.1-3.5-0.1-5.2,0.1
					c-8.4,0.9-10.3,3.3-14.8,10.7c-1.7,2.7-2.5,5.8-2.8,9C100.4,34.9,100.7,38.4,101.1,41.9z"/>
			</g>
			<g>
				<path class="st9" d="M97.4,38.1c0,0,4.9,1.2,5.5,0.5c0.7-0.8,0.9-2.5,1.1-3.5c0.5-2.2,1-4.5,1.5-6.8c0.6-2.8,0.8-5.7,1.8-8.5
					c1.1-3,2.5-3.6,5.6-3.9c6.8-0.6,13.7-0.5,20.5-0.1c2.4,0.1,6.2-0.2,8.5,1c2.5,1.3,2.8,6.5,3.2,8.9c0.7,4.1,1.2,8.2,1.4,12.3
					c0,0.4,0.1,0.9,0.5,1.1c0.2,0.1,0.4,0.1,0.6,0c1-0.1,0.8,6.7,3,2.4c2.3-4.3,2.5-15.6,1.2-22.2c-2.5-12.5-14-16-24.2-17
					c-10.3-1-23.4,2.9-27.6,13.2C95.8,25.6,97.4,38.1,97.4,38.1z"/>
			</g>
			<g>
				<g>
					<path class="st0" d="M108.1,42.7c0.1-0.8-1-1-1.5-0.5c-1.6-3.3-4.6-6.3-8.9-5.2c-5.3,1.3-5.9,7.9-4.8,11.9
						c1.1,3.9,6.2,11.8,11.6,10.3C111,57.3,107.6,47.1,108.1,42.7z"/>
				</g>
				<g>
					<path class="st8" d="M101.6,46c-0.5-1-2-0.1-1.5,0.9c0.7,1.4,1,2.9,1.1,4.4c0,1.1,1.8,1.2,1.8,0
						C102.8,49.5,102.4,47.7,101.6,46z"/>
				</g>
			</g>
			<g>
				<g>
					<path class="st0" d="M145.3,59.2c5.4,1.5,10.5-6.3,11.6-10.3c1.1-4,0.5-10.6-4.8-11.9c-4.4-1.1-7.4,1.9-8.9,5.2
						c-0.5-0.5-1.6-0.4-1.5,0.5C142.1,47.1,138.7,57.3,145.3,59.2z"/>
				</g>
				<g>
					<path class="st8" d="M148.2,46c0.5-1,2-0.1,1.5,0.9c-0.7,1.4-1,2.9-1.1,4.4c0,1.1-1.8,1.2-1.8,0
						C146.9,49.5,147.4,47.7,148.2,46z"/>
				</g>
			</g>
			<g>
				<path class="st10" d="M111.4,40.4c0.1-0.4,0.2-0.7,0.4-1.1c0.3-0.6,0.9-1.1,1.5-1.2c0.7-0.1,1.5,0.3,1.9,1
					c0.4,0.6,0.5,1.4,0.5,2.2c0,0.9-0.2,1.8-0.7,2.5c-1.9,2.7-4.1-0.1-3.7-2.5C111.3,41,111.4,40.7,111.4,40.4z"/>
			</g>
			<g>
				<path class="st10" d="M135.1,40.9c0.1-0.4,0.2-0.7,0.4-1.1c0.3-0.6,0.9-1.1,1.5-1.2c0.7-0.1,1.5,0.3,1.9,1
					c0.4,0.6,0.5,1.4,0.5,2.2c0,0.9-0.2,1.8-0.7,2.5c-1.9,2.7-4.1-0.1-3.7-2.5C135,41.5,135,41.2,135.1,40.9z"/>
			</g>
			<g>
				<path class="st8" d="M128,43.6c-0.2-1.1-1.9-0.9-1.8,0.2c0.1,0.9,0.2,1.7,0.4,2.6c0.1,0.8,0.4,1.9-0.3,2.5
					c-0.9,0.7,0.1,2.1,1.1,1.4C129.3,48.7,128.3,45.6,128,43.6z"/>
			</g>
			<g>
				<path class="st9" d="M119,31.8c0-0.7-0.3-1.3-0.8-1.8c-2.6-2.5-8.2-1.3-10.5,1c-1.4,1.4-0.9,3,1.1,3.1c2.4,0.1,4.8,0.2,7.3,0.1
					c0.9-0.1,1.8-0.2,2.4-0.8C118.9,33,119.1,32.4,119,31.8z"/>
			</g>
			<g>
				<path class="st9" d="M131.8,32.5c0-0.7,0.3-1.3,0.8-1.8c2.6-2.5,8.2-1.3,10.5,1c1.4,1.4,0.9,3-1.1,3.1c-2.4,0.1-4.8,0.2-7.3,0.1
					c-0.9-0.1-1.8-0.2-2.4-0.8C131.9,33.7,131.8,33.1,131.8,32.5z"/>
			</g>
			<g>
				<path class="st4" d="M132.4,55.1c0-0.1-0.1-0.2-0.1-0.2c-0.3-0.3-0.8-0.4-1.3-0.5c-3.7-0.3-7.5-0.3-11.2,0
					c-0.3,0-0.7,0.1-0.9,0.3c-0.2,0.2-0.1,0.5,0,0.8c1,2.9,4.5,5,8.1,4.4c2.5-0.4,4.7-2,5.4-4.1C132.4,55.6,132.4,55.3,132.4,55.1z"/>
			</g>
			<g>
				<path class="st6" d="M155.7,109.3c-0.1,0.6-0.1,1.1-0.2,1.7c-0.6,3.3-2,7.3-5.2,11.2c-7.3,8.7-7,18.9-17.9,19.9
					c-2.8,0.3-5.8,0.6-8.7,0.8c-0.6,0-1.3,0.1-1.9,0.1c-7.9,0.5-15.2,0.2-17.3-3.8c-2.5-4.7-9.5-19.6-12.1-28
					c-0.2-0.7-0.4-1.4-0.6-2c-0.3-1-0.4-1.9-0.5-2.6C91,101,101.4,96,101.4,96s1.9,9.2,6.3,15.2c2.4,3.3,6.3,9.1,9.3,13.8
					c1.6,2.4,2.9,4.5,3.8,5.8c0,0,0.1,0.1,0.1,0.1c0.5,0.8,0.8,1.3,0.8,1.3s0.3-0.6,0.9-1.5c0.4-0.6,0.9-1.4,1.5-2.2
					c1.2-1.8,2.7-3.9,4.4-6c0.8-1,1.6-2,2.5-2.9c4.9-5.2,12.8-21,12.8-21s11.8,3.8,11.8,4.6C155.6,103.6,156.1,106,155.7,109.3z"/>
			</g>
			<g>
				<path class="st7" d="M125.8,131.6c-0.3,1.1-0.4,2.3-0.4,3.4c0,1.1,1.8,1.1,1.8,0c0-1,0.1-2,0.3-3
					C127.8,131,126.1,130.5,125.8,131.6z"/>
			</g>
			<g>
				<path class="st7" d="M128.9,237.6c-0.2-0.1-0.4-0.2-0.7-0.2c-0.4,0.5-0.9,0.9-1.4,1.3c0.6-4.7,1.5-9.2,1.1-14
					c-0.4-5.6-1.7-11.1-2.3-16.7c-0.6-5.5-0.2-10.9,0.3-16.4c1.2-11.7,2.4-22.7-1-34.2c-1.5-4.8-2.6-9.6-3.2-14.4
					c-0.6-4-0.9-8.1-0.9-12.2c0.5,0.8,0.8,1.3,0.8,1.3s0.3-0.6,0.9-1.5c0,4.2,0.3,8.2,1,12.2c0.8,5.4,2.1,10.7,3.7,16.1
					c2.9,10.2,1.7,20.5,0.6,30.8c-0.6,5.7-1,11.5-0.5,17.3c0.5,5.3,1.6,10.6,2.2,15.9C130.2,228.1,129.8,232.7,128.9,237.6z"/>
			</g>
			<g>
				<path class="st6" d="M74.4,140.7c-3.3-3-7-5.7-10.9-7.8c-1.6-0.9-3.3-1.6-5-2.3c-3.7-1.5-5.8-2.4-6.1-6.7
					c-0.2-3.1-0.7-5.7-3.8-7.2c-1.6-0.8-3.4-0.9-5.1-0.4c2.3-2.5,4.8-4.9,7.4-7.2c0.8-0.7-3.6-0.2-4.7,0.4c-0.1,0-0.1,0.1-0.1,0.1
					c0,0,0,0-0.1,0.1c-0.8,0.7-1.6,1.4-2.4,2.2c-5.5,5.3-9,10.8-12.1,17.3c-0.4,0.7-0.7,1.5-1,2.2c-1,2.1-1.9,4.3-2.9,6.7
					c-2.4,5.6-4.1,11.5-5.1,17.5c-1,5.8-1.4,11.8-3.5,17.3c-2.1,5.3-5.4,10.2-6.4,15.9c-0.9,5.2,0.2,10.6-0.7,15.8
					c-1.4,8.3-6.1,14.2-5.4,23.1c0.4,4.8,1.9,9.5,3.4,14.1c1.2,3.7,2.4,7.4,4.3,10.8c4.1,7.1,12.3,11.1,20.4,11.7
					c5.4,0.4,10.8-0.4,16.1-1.9c3.3-1,6.5-2.3,9.5-3.8c8.2-4.1,13.4-11,18.1-18.6C96.8,210.1,103,166.8,74.4,140.7z"/>
			</g>
			<g>
				<path class="st6" d="M249.7,216.4c-0.4-6.5-2.2-13-4-19.3c-3.6-12.3-7.2-24.6-12.5-36.2c-2.5-5.6-4.5-10.2-5.9-16.2
					c-0.7-2.9-1.3-5.7-2.1-8.6c-0.2-0.7-0.4-1.5-0.7-2.2c-0.8-2.5-1.7-4.9-2.9-7.2c-5-9.5-17.2-21.3-27.8-23
					c1.1,14.5,4.8,34.2,1.4,48.3c-4.4,18.3-16.3,34.7-17.2,53.5c-1.1,22,14,58.7,40.9,56.8c9.4-0.7,17.7-7.4,21.7-16
					c3.2-6.8,7.3-14.4,8.6-21.9C249.7,221.8,249.8,219.1,249.7,216.4z"/>
			</g>
			<g>
				<path class="st7" d="M225.2,136.1c-2.9,5-6.3,9.7-10,14.2c-3.2,3.8-5.5,7.4-6.6,12.4c-0.8,3.9-1.3,7.7-2.7,11.5
					c-2.6,6.6-6.9,12.3-11.2,17.9c-0.7,0.9-1.9-0.4-1.2-1.3c5-6.4,10-13.2,12.1-21.3c1.7-6.7,2.1-12.5,6.5-18.2
					c4.5-5.7,8.9-11.1,12.5-17.4C224.7,134.6,225,135.4,225.2,136.1z"/>
			</g>
			<g>
				<g>
					<path class="st8" d="M129.1,180.6c2.8-2.1,6-6.8,7.5-10c2.8-6.1,5.6-10.8,9-15.8c1.9-2.8,7.6-7.5,2.7-11
						c-3.8-2.7-9.4,8.3-11.1,10.9c-4.4,6.7-4.1,14.5-7.1,21.6c0,0,0,0,0,0c-1.1,0.9-2.2,1.8-3.4,2.7
						C125.8,179.8,128.2,181.3,129.1,180.6z"/>
				</g>
				<g>
					<path class="st0" d="M109.9,184c3.3,1,6.6,0.7,9.7-0.5c0.1,0.4,0.4,0.6,0.9,0.6c14-1.4,14.5-15.6,18.4-26.1
						c0.8-2,1.9-3.8,3.2-5.5c0.7-0.9,1.5-1.8,2.2-2.6c2.4-2.7,8.2-5.7,9.3-9.3c0.2-0.7,0.2-1.3,0-1.8c-0.1-0.2-0.2-0.4-0.3-0.6
						c0.5-0.3,1-0.7,1.5-1c0.7-0.4,1.4-0.9,2.1-1.2c1.1-0.6,2.6-1.2,3.2-2.4c0-0.1,0.1-0.1,0.1-0.2c0.1-0.3,0.2-0.7,0.2-1.1
						c0-0.9-0.2-1.9-0.6-2.4c0.1-0.1,0.1-0.2,0.1-0.3c0.7-1.7-0.1-2.4-2.2-3c-3.5-1.1-8.1,1.8-10.9,3.5c-9.4,5.4-17.5,12.8-24.4,21
						c-9,10.8-14.3,20.5-14.3,20.5S107.3,183.3,109.9,184z"/>
				</g>
				<g>
					<path class="st8" d="M135.6,153.1c1.9-2.4,3.7-4.8,5.8-6.9c-2.1,6,0.1,10.1,0.3,10.4c0.7-0.9,1.8-5.9,2.6-6.7
						c2.4-2.7,8.2-5.7,9.3-9.3c0.2-0.7,0.2-1.3,0-1.8c-0.1-0.2-0.2-0.4-0.3-0.6c0.5-0.3,1-0.7,1.5-1c0.7-0.4,1.4-0.9,2.1-1.2
						c1.1-0.6,2.6-1.2,3.2-2.4c0-0.1,0.1-0.1,0.1-0.2c-5-2.2-8.6,0.6-12.7,4.2c-1.2,1-2.5,2.4-3.6,3.9c-3.7,3-6.8,6.9-9.7,10.7
						C133.4,153,134.9,154,135.6,153.1z"/>
				</g>
				<g>
					<path class="st8" d="M131,147.9c4.2-3.8,23.2-24.6,29.3-15.7c0-0.9-0.2-1.9-0.6-2.4c0.1-0.1,0.1-0.2,0.1-0.3
						c-2.9-1.7-7.1-1.2-10.3,0.4c-7.4,3.7-13.6,11-19.6,16.5C129.1,147.3,130.2,148.7,131,147.9z"/>
				</g>
			</g>
			<g>
				<g>
					<path class="st0" d="M154,171.6l23.1,39.7c0,0,9-2.1,15.7-7.3c6.7-5.2,9.1-13.6,9.1-13.6l-27.8-28.4L154,171.6z"/>
				</g>
				<g>
					<path class="st8" d="M175.9,161.6c0.8-5.9-4.8-7.1-9.3-6.4c-6.8,1-12.8,4.7-17.1,10c-0.5-0.1-1.7-2-1.8-1.2
						c-0.6,7.5,8.4,10.4,13.8,9.5C168,172.4,174.9,168.7,175.9,161.6z"/>
				</g>
				<g>
					<path class="st8" d="M171.9,142.8c-3.4,2.2-4.6,5.3-4.9,9.2c0,0.6-0.7,1.5-0.2,1.6c1,2.5,9.1,11.7,9.2,7.5
						c0.1-4.2-1.1-5.4-1.6-8.1c-0.5-2.9,2-5.1,2.6-7.8c0.3-1.4,0-2.9-1.7-3.2C174.2,141.7,172.8,142.1,171.9,142.8z"/>
				</g>
				<g>
					<g>
						<path class="st0" d="M170.8,162.5c-0.2,0-0.5,0-0.7,0c0,0.2-0.2,0.7-0.5,1.2c-0.1,0.2-0.3,0.4-0.4,0.6
							c-0.6,0.7-1.6,1.1-2.5,1.3c-0.6,0.2-1.5,0.1-1.9,0c-0.2,0-0.3,0-0.3,0s-0.4,0.6-0.9,1.2c-0.2,0.3-0.5,0.6-0.8,0.8
							c-1.1,0.9-3.5,1-4.8,0.5c-0.3-0.1-0.5-0.2-0.8-0.4c0,0,0,0,0,0.1c-0.2,0.6-0.5,1.1-1,1.5c-0.5,0.3-1,0.6-1.6,0.8
							c-1.4,0.5-2.8,0-3.9-1c-0.4-0.3-0.7-0.7-0.9-1c-0.7-0.9-1.3-1.9-1.9-3c-2-3.6-4-7.6-4.5-11.8c-0.4-2.8,0.4-4.3,2.3-4.5
							c0.2,0,0.3,0,0.5-0.1c0.3,0,0.5,0.1,0.7,0.2c-0.3-0.9-0.5-2-0.4-3c0.1-1.8,0.8-3.3,2.5-3.8c0.7-0.2,1.3-0.2,1.9,0
							c0.3,0.1,0.6,0.2,0.9,0.4c-0.1-0.9-0.1-1.9,0.1-2.7c0.3-1.4,1.3-2.4,3.2-2.5c1.4,0,2.5,0.9,3.5,2c0.4,0.5,0.8,1,1.1,1.4
							c0.2,0.2,0.3,0.5,0.5,0.7c0.1-0.4,0.2-0.9,0.4-1.2c0.3-0.6,0.8-1.1,1.6-1.3c3.4-0.8,6.2,4.7,7.4,6.8
							C171.2,149.2,178.1,162.4,170.8,162.5z"/>
					</g>
					<g>
						<path class="st8" d="M170.8,162.5c-0.2,0-0.5,0-0.7,0c0,0.2-0.2,0.7-0.5,1.2c-4.4-7.9-8.6-15.7-11.4-24.3
							c0.4,0.5,0.8,1,1.1,1.4c0.2,0.2,0.3,0.5,0.5,0.7c0.1-0.4,0.2-0.9,0.4-1.2C162.9,148,166.8,155.2,170.8,162.5z"/>
					</g>
					<g>
						<path class="st8" d="M164.7,165.6c-0.2,0-0.3,0-0.3,0s-0.4,0.6-0.9,1.2c-5.2-7.8-9.6-15.9-12.9-24.6c0.3,0.1,0.6,0.2,0.9,0.4
							c-0.1-0.9-0.1-1.9,0.1-2.7C154.8,148.9,159.3,157.5,164.7,165.6z"/>
					</g>
					<g>
						<path class="st8" d="M157.1,167.8c-0.2,0.6-0.5,1.1-1,1.5c-4.1-6.5-8-13.2-10.5-20.5c0.2,0,0.3,0,0.5-0.1
							c0.3,0,0.5,0.1,0.7,0.2c-0.3-0.9-0.5-2-0.4-3C148.8,153.7,152.7,160.8,157.1,167.8z"/>
					</g>
				</g>
			</g>
			<g>
				<path class="st0" d="M126.5,181.8l-12.6,12.6l-8.7,8.7l-19.6,19.6c0,0-7.8-8-11.9-17.7c-4.1-9.6-3.7-16.3-3.7-16.3l18.8-8.4
					l3.5-1.5l10.9-4.9l2.7-1.2l2.3-1L126.5,181.8z"/>
			</g>
			<g>
				<path class="st7" d="M86.9,235.3c-7.2-5.5-13.4-12.3-17.9-20.2c-2.3-3.9-4.3-8.1-5.5-12.5c-0.6-2.3-0.9-4.7-1-7.1
					c-0.1-2-0.5-4.6,1-6.3c0.6-0.7,5.6-3.5,5.4-1.3c-0.1,1.1,1.7,1.1,1.8,0c0.4-4.3-5.6-2.1-7.5-0.6c-4.5,3.4-2.5,11.9-1.2,16.5
					c3.7,13.2,13.3,24.9,24,33.1C86.9,237.5,87.8,236,86.9,235.3z"/>
			</g>
			<g>
				<path class="st7" d="M61.3,191.9c-4.4-0.2-7.9,2.2-11.7,4.1c-1.9,1-3.9,1.8-6,2.2c-4.7,0.8-8.9,0.5-13.4,2.5
					c-3.3,1.5-6.3,3.5-9.2,5.5c-0.9,0.7-1.8-0.9-0.9-1.5c6.6-4.7,12.8-7.5,20.9-8.1c3.2-0.2,6-1.5,8.7-2.9c0.4-0.2,0.8-0.4,1.2-0.6
					c-0.4-0.2-0.8-0.4-1.1-0.5c-5.9-2.6-12-2.7-18.5-2.7c-1.1,0-1.1-1.8,0-1.8c6.7,0.1,12.7,0.1,18.7,2.6c0.9,0.4,1.9,0.8,2.8,1.3
					c0.1,0,0.1,0.1,0.1,0.1c2.4-1.1,4.8-2,7.5-2.1c-0.1-0.1-0.2-0.2-0.2-0.4c-0.5-2.8-3.6-5.3-4.7-7.9c-1.4-3.2-2-6.8-2.7-10.2
					c-1.6-7.9-4.1-14.4-9.2-20.7c-1.7-2.1-3.4-4.1-5-6.1c-2.2-2.7-4.2-5.5-5.9-8.7c-0.8-1.6-1.6-3.2-2.2-4.8c0.3-0.7,0.7-1.5,1-2.2
					c0.9,2.3,1.9,4.6,3.1,6.8c0.9,1.6,1.9,3.1,2.9,4.5c2.9,4,6.3,7.6,9.3,11.6c4.4,5.8,6.3,12,7.8,19.1c0.8,3.7,1.3,7.8,3.2,11.2
					c1.3,2.5,3.7,4,4.2,6.9c0.1,0.4-0.1,0.7-0.4,0.9C62.4,190.4,62.4,191.9,61.3,191.9z"/>
			</g>
			<g>
				<path class="st7" d="M120.9,130.8c-0.1,0-0.3-0.1-0.4-0.2c-4.5-4.8-9.7-8.1-15.5-11c-4.8-2.4-7.6-6.9-12.6-8.3
					c-1.1-0.3-2.3-0.4-3.7-0.4c-0.5,0-1-0.6-0.9-1.1c1.1-3.5,2.1-7,3.1-10.5c0.3,0,0.6,0,0.9,0c0.5-1.2,1.1-2.4,1.8-3.5
					c-0.3,1.2-0.5,2.3-0.9,3.5c-0.5,2-1,3.9-1.6,5.9c-0.4,1.3-0.8,2.7-1.2,4c0.7,0,1.3,0.1,1.9,0.2c5,1,8.2,4.7,12.6,7.7
					c2.9,2,6.3,3.2,9.3,5.3c1.2,0.9,2.3,1.7,3.5,2.6C118.7,127.4,120,129.5,120.9,130.8z"/>
			</g>
			<g>
				<path class="st7" d="M159,111c-1.2,0-2.3,0-3.5,0c-2.5,0.1-5,0.2-7.3,1c-3.7,1.2-5.9,3.8-8.9,6c-2.1,1.6-4.6,2.3-6.8,3.8
					c-2.9,1.9-5.6,4.4-8.2,6.7c1.2-1.8,2.7-3.9,4.4-6c0.8-0.6,1.6-1.2,2.4-1.8c3.2-2.3,6.7-3.6,9.8-6.3c4.5-3.9,9.5-4.9,15-5.1
					c0.7,0,1.3,0,2,0c-0.7-2-1.4-4-2.1-6c-0.2-0.5-0.3-0.9-0.5-1.4c0.6-0.1,1.2-0.1,1.8-0.1c1,2.7,1.9,5.5,2.9,8.2
					C160.1,110.4,159.6,111,159,111z"/>
			</g>
			<g>
				<path class="st7" d="M242.6,214.8c-5.7-15.6-21.6-22-36.6-25.6c-0.1,0-0.2,0-0.3,0c-1-0.9-2.3-1.5-3.8-1.9
					c-1.1-0.3-1.6,1.5-0.5,1.7c8.7,2,4.7,11.3,0.9,15.7c-2.4,2.7-5.2,5-8.3,6.9c-6.3,3.9-13.5,6.1-20.8,7.4
					c-1.1,0.2-0.6,1.9,0.5,1.7c10.6-2,21.3-5.9,28.9-13.8c3-3.1,6.1-7.2,5.9-11.7c-0.1-1.5-0.4-2.8-1-3.9c4.8,1.2,9.6,2.7,14.1,4.8
					c0,0,0,0,0,0.1c3.4,7.1,8.3,13.7,8.5,21.9c0,1.1,1.8,1.1,1.8,0c-0.2-7.7-4.3-14.1-7.7-20.7c7.4,3.9,13.7,9.4,16.8,17.8
					C241.3,216.3,243,215.8,242.6,214.8z"/>
			</g>
			<g>
				<path class="st1" d="M103.1,173.8l-10.9,4.9c2.2,9,6.7,17.4,13.1,24.3l8.7-8.7C108.8,188.4,105.1,181.4,103.1,173.8z"/>
			</g>
			<g>
				<path class="st4" d="M100,182.8c-4.9,2.1-9.8,1.3-11.1-1.7c-0.1-0.3-0.2-0.5-0.2-0.8l3.5-1.5l10.9-4.9l2.7-1.2
					c0.3,0.3,0.5,0.7,0.7,1C107.7,176.7,104.8,180.8,100,182.8z"/>
			</g>
		</g>
	</g>
</switch>

</svg>
