<?xml version="1.0" encoding="utf-8"?>
<!-- Generator: Adobe Illustrator 27.1.0, SVG Export Plug-In . SVG Version: 6.00 Build 0)  -->










<svg version="1.1" id="Layer_1" xmlns="http://www.w3.org/2000/svg" xmlns:xlink="http://www.w3.org/1999/xlink" x="0px" y="0px" viewBox="0 0 249.8 696.7" style="enable-background:new 0 0 249.8 696.7;" xml:space="preserve">
<style type="text/css">
	.st0{fill:#F8A695;}
	.st1{fill:#A5A7BD;}
	.st2{fill:#FCD1BB;}
	.st3{fill:#62616F;}
	.st4{fill:#DE9B7A;}
	.st5{fill:#E0814E;}
	.st6{fill:#AE5928;}
	.st7{fill:#DB6952;}
	.st8{fill:#8A3C1D;}
	.st9{fill:#33251E;}
	.st10{fill:#FFFFFF;}
	.st11{fill:#51230F;}
	.st12{fill:#4E2F22;}
	.st13{fill:#25140E;}
</style>
<switch>
	
	<g>
		<g>
			<g>
				<g>
					<path class="st0" d="M52.2,603l-1.6,34l11.3,11.6l17.2-9c0,0,3.6-22.8,3.7-26.2C83,610,52.2,603,52.2,603z"/>
				</g>
				<g>
					<path class="st1" d="M80.5,646.3c-0.9,6.4-0.6,10.1-0.6,15c0,1.2,0,2.3-0.2,3.3c-0.4,3.3-1.5,5.8-4.4,8.1
						c-2,1.6-4.8,2.4-7.3,3.2c-3.1,1-6.3,1.9-9.4,3.1c-5,1.9-9.1,5.7-13.7,8.5c-11,6.6-28.2,14.3-39.7,4.6c-1-0.8-1.8-1.8-2.5-2.9
						c-2-3.3-2.6-9.4,2.3-15.2c2-2.3,4.5-4.2,7.1-6c1.6-1.1,3.2-2.2,4.7-3.2c1.5-1,3-2.1,4.4-3.3c0.5-0.4,1-0.8,1.5-1.2
						c2.2-1.8,4.2-3.7,6.3-5.6c0.4-0.4,0.9-0.9,1.3-1.3l0.1-0.1c2-2,4.2-4,6.1-6.1c0.4-0.4,0.8-0.9,1.2-1.3c1.2-1.4,2.2-2.8,3.2-4.3
						c0.3-0.5,0.6-0.9,0.8-1.4c0.3-0.5,0.6-1,0.9-1.5c1.2-2.1,2.5-4.2,3.9-6.1c2.6-3.5,5.7-5.3,10-4.7c3.5,0.5,7.6,2.1,9.3,5.4
						c1.8,3.4,2.6,7.2,2.9,9.4c0.2,1.1,0.2,1.7,0.2,1.7l1-0.5l9.1-4.2C79.1,639.7,81.4,639.9,80.5,646.3z"/>
				</g>
				<g>
					<path class="st2" d="M37.5,672.5c-2.6-3.5-5.8-6.4-9.6-8.5c-2.1-1.2-4.3-1.9-6.6-2.6c0.5-0.4,1-0.8,1.5-1.2
						c2.4,0.8,4.8,1.6,7,3c3.6,2.2,6.6,5.1,9.1,8.4C39.6,672.5,38.1,673.4,37.5,672.5z"/>
				</g>
				<g>
					<path class="st2" d="M45.9,666.4c-4.2-5.5-10-9.5-16.8-11.9c0.4-0.4,0.9-0.9,1.3-1.3c6.8,2.5,12.7,6.6,16.9,12.1
						C48.1,666.3,46.6,667.4,45.9,666.4z"/>
				</g>
				<g>
					<path class="st2" d="M53.4,659.3c-3.4-3.3-6.9-6.7-11-9.2c-1.9-1.2-3.9-2.1-5.9-2.9c0.4-0.4,0.8-0.9,1.2-1.3
						c1.9,0.8,3.8,1.7,5.6,2.8c4.2,2.6,7.8,6.1,11.3,9.5C55.4,658.8,54.2,660,53.4,659.3z"/>
				</g>
				<g>
					<path class="st2" d="M61.4,652.4c-5-6.4-12.2-9.7-19.7-12.3c0.3-0.5,0.6-1,0.9-1.5c7.6,2.7,14.9,6.2,20.1,12.7
						C63.3,652.2,62.1,653.3,61.4,652.4z"/>
				</g>
				<g>
					<path class="st3" d="M70,643.9c-4.9,7-11.6,13.2-17.7,18.7c-8.2,7.6-17.5,13.9-28.2,17.4c-1,0.3-1.5-1.3-0.5-1.6
						c10.9-3.5,20.3-10.2,28.6-18c5.7-5.3,11.9-11.1,16.5-17.8c0.2,1.1,0.2,1.7,0.2,1.7L70,643.9z"/>
				</g>
				<g>
					<path class="st2" d="M68.4,671.7c-4.4,1.4-9.3,1.4-13.6,3.2c-3.5,1.5-6,4.4-9,6.8c-3.5,2.8-7.3,5-11.4,6.8c0-0.1,0-0.1-0.1-0.2
						c-0.1-0.6-0.3-1.1-0.4-1.7c-1.5-5.3-4-10.1-8.4-13.7c-3.8-3.1-8.6-4.6-13.5-5c-2.6,1.8-5.1,3.7-7.1,6c-1.8,2.1-2.9,4.3-3.4,6.4
						c-0.3,1.4-0.4,2.7-0.4,3.9v0c0.1,1.9,0.7,3.6,1.4,4.8c0.7,1.1,1.5,2.1,2.5,2.9c11.6,9.7,28.8,2,39.7-4.6
						c4.6-2.8,8.7-6.6,13.7-8.5c3.1-1.2,6.3-2.1,9.4-3.1c2.4-0.8,5.2-1.6,7.3-3.2c2.9-2.3,4-4.9,4.4-8.1
						C76.4,667.8,73,670.2,68.4,671.7z"/>
				</g>
				<g>
					<path class="st4" d="M34.5,688.2c-7.5,3.7-15.9,6.7-24,3.8c-4.3-1.5-7.3-4.3-9.1-7.7v0c-0.1-1.2,0-2.6,0.4-3.9
						c1.6,5.8,6.1,10.1,13,10.9c6.8,0.9,13.4-1.7,19.4-4.7C34.2,687.1,34.3,687.7,34.5,688.2z"/>
				</g>
			</g>
			<g>
				<g>
					<path class="st0" d="M156.2,607.9l-1.1,41.3l12.5-3.3l16.5-10.2c0,0,1.9-23,1.8-26.4C185.7,605.9,156.2,607.9,156.2,607.9z"/>
				</g>
				<g>
					<path class="st1" d="M230.1,686.8c-3.2,2.3-7,3.7-10.8,4.3c-6.1,1-12.4,0.2-18.4-1.1c-4.6-1-10-2.2-13.8-5.2
						c-4.8-3.8-16.6-8.9-23.8-10.4c-3.2-0.7-8.2-2-10.3-4.8c-0.9-1.2-1.2-2.6-1.2-4.1c-0.1-1.7,0.2-3.6,0.2-5.2
						c-0.1-3.8-0.2-7.7,0.2-11.6c0.6-6.1,3.2-7.2,3.2-7.2c3.7,1,8.4,1.5,10.4,0.8c0.4-0.2,0.7-0.4,0.9-0.6c0.1-0.2,0.2-0.4,0.3-0.7
						c0.8-2.6,1.7-9.9,6.7-11.7c5.6-2,10.4-0.3,12.4,2.7c0.8,1.1,2,3.2,3.8,5.8c0.3,0.5,0.7,0.9,1.1,1.4c1.3,1.7,2.9,3.6,4.8,5.7
						c0.4,0.5,0.9,0.9,1.4,1.4c1.5,1.5,3.1,3,5,4.5c0.5,0.4,1,0.8,1.5,1.2c0.4,0.3,0.8,0.7,1.3,1c1.4,1.1,3.1,2.1,4.8,3.1
						c0.6,0.4,1.3,0.7,1.9,1.1c2.5,1.4,5.1,2.7,7.7,4.1c3.2,1.7,6.2,3.5,8.6,5.5c3.2,2.6,6.1,6.2,6.9,10.4
						C235.3,681.2,233.3,684.4,230.1,686.8z"/>
				</g>
				<g>
					<path class="st2" d="M190.7,639.3c-6.3,2-11.9,5.8-16.3,11c-0.7,0.8-1.9-0.4-1.2-1.2c4.5-5.2,10.2-9.1,16.5-11.2
						C190,638.3,190.4,638.8,190.7,639.3z"/>
				</g>
				<g>
					<path class="st2" d="M196.9,646.3c-6.1,1.9-12.2,6.3-15.5,9.9c-0.8,0.9-2.2-0.2-1.5-1.1c3.4-3.8,9.3-8.2,15.6-10.3
						C196,645.4,196.4,645.9,196.9,646.3z"/>
				</g>
				<g>
					<path class="st2" d="M203.4,652.1c-5.8,2.1-11.1,5.2-15.9,9.3c-0.8,0.7-2.1-0.4-1.2-1.1c4.7-4,9.9-7.2,15.6-9.4
						C202.4,651.3,202.9,651.7,203.4,652.1z"/>
				</g>
				<g>
					<path class="st2" d="M211.4,657.2c-5.6,2.1-10.8,5.1-15.5,9.1c-0.8,0.7-2-0.5-1.2-1.2c4.5-3.8,9.4-6.8,14.8-8.9
						C210.1,656.5,210.8,656.9,211.4,657.2z"/>
				</g>
				<g>
					<path class="st3" d="M208.6,674.5c-10-4.6-19.8-9.3-28.1-16.6c-5.4-4.7-10.6-9.7-14.9-15.5c0.4-0.2,0.7-0.4,0.9-0.6
						c0.1-0.2,0.2-0.4,0.3-0.7c4.2,5.8,9.4,10.8,14.9,15.6c8.2,7.2,17.9,11.8,27.7,16.3C210.4,673.5,209.5,674.9,208.6,674.5z"/>
				</g>
				<g>
					<path class="st2" d="M234.5,677.2c-0.1-0.3-0.1-0.6-0.2-0.9c-0.3-1-0.6-1.9-1.1-2.8c-1.3-2.6-3.4-4.9-5.6-6.7
						c-2.4-2-5.4-3.7-8.6-5.5c-5.2,0-10.6,1.9-14.5,4.9c-5,3.8-8.5,9.5-10.7,15.3c-0.2,0.6-0.4,1.1-0.6,1.7c-0.4-0.3-0.8-0.6-1.2-1
						c-0.1,0-0.1-0.1-0.1-0.1c-5.9-4.6-12.5-7.7-19.8-9.5c-7-1.8-14-3.7-20.3-7.1c0.1,1.5,0.3,2.9,1.2,4.1c2.1,2.8,7.1,4.2,10.3,4.8
						c7.2,1.5,19,6.6,23.8,10.4c3.8,3,9.2,4.2,13.8,5.2c6,1.3,12.3,2,18.4,1.1c3.9-0.6,7.7-2,10.8-4.3
						C233.3,684.4,235.3,681.2,234.5,677.2z"/>
				</g>
				<g>
					<path class="st4" d="M234.3,676.3c-0.3,1-0.7,1.9-1.3,2.8c-2.4,3.7-7.2,6.3-11.3,7.4c-5.5,1.5-11.6,1.1-17.2,0.5
						c-4.7-0.4-9.1-1.6-12.5-4.7c0.4,0.3,0.8,0.6,1.2,1c0.2-0.6,0.4-1.1,0.6-1.7c3.6,3,8.3,3.6,13,3.9c4.3,0.3,8.8,0.6,13.1-0.3
						c4.8-1,10.8-4.1,12.7-9c0.3-0.9,0.5-1.8,0.7-2.7C233.7,674.4,234.1,675.3,234.3,676.3z"/>
				</g>
			</g>
			<g>
				<path class="st5" d="M211,369.1c0,0-5.2,107.8-6.3,137.6c-1.1,29.7-12.6,102.4-12.8,103.3c-0.2,0.9-36.2,2.8-39.7,1.7
					c-3.5-1.1-10.6-9.3-10.9-25.6c-0.2-16.3-2.8-20.2-3.5-32.5c-0.6-12.4,2.3-31.8,1.2-37.5c-1.3-6.7-2.4-13.3-3.2-19.9
					c-3.1-22.5-4.1-44.3-5.2-67.4c0-0.1,0-0.3,0-0.4v-0.1c-0.1-2.8-0.2-5.6-0.4-8.5l-17.4-117.6c0,0,0.1-2.7,1.8-6.1
					c2.3-4.5,7.7-10.2,19.8-12.5c21.4-4,23.3-4.7,35.4-3.9c12,0.8,17.5-3.4,23.9,3.9c6.4,7.3,17.7,13.4,17.2,25.5
					C210.5,321.4,211,369.1,211,369.1z"/>
			</g>
			<g>
				<path class="st5" d="M144.2,384.7c-3.3,8.6-6.3,17.4-9,26.3c-1.8,5.9-3.4,11.8-4.5,17.7c0,0,0,0.1,0,0.1c-0.6,3-1,6.1-1.2,9.2
					c-0.7,9.6-0.5,19.3-1.7,28.9c-1.5,12.8-4.3,25.5-7.2,38.1c-2.7,11.7-4.9,25.8-11.1,36.3c-4,6.8-7.1,13.5-8.9,20.2
					c-0.3,1.1-0.6,2.3-0.9,3.5c-0.8,3.7-1.1,7.4-1.1,11c0.4,16.9-5.2,32.1-11.3,36c-6.1,3.8-39.9-2.4-41-6.2
					c-2.5-8.9-2-57.9,1.3-101.3c3.3-43.4,8.4-131.5,8.9-134.5l16.9-69l41.2-4.8l25.6-3l3.4,78.4L144.2,384.7z"/>
			</g>
			<g>
				<path class="st6" d="M148.8,296.7c-0.1-1.1-1.8-1.1-1.7,0c0.5,9.8,0.6,19.6,0.2,29.4c-0.2,4.7,0.4,31.2-7.2,30.8
					c1.3-20.6,0.6-41.3-2.1-61.7c-0.1-1.1-1.9-1.1-1.7,0c3.1,24.1,3.5,48.5,1.2,72.7c-0.1,1.1,1.6,1.1,1.7,0
					c0.3-3.1,0.5-6.1,0.7-9.2c8.6,0.5,8.1-16.3,8.4-21.7C149.3,323.6,149.4,310.1,148.8,296.7z"/>
			</g>
			<g>
				<g>
					<path class="st0" d="M96.7,110.8c4.3,3.6,9.5,6.5,14.9,8.1c9.3,2.8,20.6,2.6,29.7-1c7.7-3.1,16.9-2.3,23.1-7.9
						c1-0.9,5.4-5.3,5.4-5.3s-3.5-0.8-3.5-0.8c-3.2-0.5-8.3-2.6-12.1-4.5c-5.7-2.9-5.5-7.1-5.5-7.1s-7.5-3.1-7.4-3.1
						c1.2-0.2,0.7-1.9-0.5-1.7c-3.2,0.5-5.8,1.8-8.1,3.7c-2.2-1.8-4.9-3.2-8.1-3.7c-1.2-0.2-1.7,1.5-0.5,1.7c0.2,0,0.4,0.1,0.5,0.1
						c-0.6,0.5-6.9,1.8-7.1,2.6c-1.8,5.3-4.9,7.2-9.4,9.7c-4.4,2.4-10.4,4.8-15.2,6.1C94.3,108.9,95.6,109.9,96.7,110.8z"/>
				</g>
				<g>
					<g>
						<path class="st0" d="M154.2,109.1c-0.2-0.3-0.4-0.6-0.6-0.9c0-0.1,0.1-0.2,0.1-0.3c0.1-0.6-0.3-1-0.8-1.1
							c-6-11.1-4.1-23.9-4.9-36c-0.1-1.1-2-1.1-1.9,0c0.1,1,0.1,2,0.2,3c-0.1,0-0.1,0-0.2,0c-0.3,0.1-0.5,0.2-0.8,0.3
							c-0.1-0.1-0.3-0.1-0.5-0.1c-4.5,0.5-8.9-0.5-13.4-0.5c-1.6,0-3.5,0.3-5.4,0.6c-2.5,0.3-5.1,0.7-7.2,0.2c0-0.4-0.1-0.9-0.1-1.3
							c0-0.3,0-0.5-0.1-0.8c-0.1-1.1-2-1.1-1.9,0c0,0.5,0.1,1,0.1,1.4c0.3,4.5,0.5,9,0.4,13.6c0,1.5-0.1,3.1-0.2,4.6
							c-0.4,6.1-0.7,13-6.1,17.3c-0.9,0.7,0.4,2,1.4,1.2c1-0.8,1.9-1.7,2.6-2.7c-0.4,5.8,1.3,11.5,5.2,16.2c2.8,3.4,7,6.9,12.1,6.1
							c10.2-1.6,18.1-11.1,20.9-19.8C153.7,110.6,154.7,109.9,154.2,109.1z"/>
					</g>
					<g>
						<path class="st7" d="M143.6,78c-0.5-2.3-8,0.3-10.3-0.7c-2.2-1-4.8-2.2-7.4-3.1c-1.7-0.6-3.4-1-5-1.2c-0.8-0.1-1.5,0-2.2,0.1
							c-0.7,0.1-1.3,0.3-1.9,0.7c0.3,4.5,0.5,9,0.4,13.6c3.3,1.2,6.8,1.8,10.5,1.6C132.4,88.8,145.5,86.1,143.6,78z"/>
					</g>
				</g>
			</g>
			<g>
				<g>
					<path class="st8" d="M161.1,31.3c0.1-1.5-0.7-2.1-1.1-3.3c-0.7-2,0.8-3.2,1-5c0.4-2.6-2-8.7-3.9-10.2c-1.4-1.1-3.1-1.6-4.8-1.8
						c-0.5-0.1-1-0.1-1.5-0.1c0.5-0.5,0.8-1,1-1.5c0.4-1,0.2-2-1.1-2.9c-1.3-0.9-2.8,0-4.1,0.1c-1.5,0.1-2.6-0.5-4-1.1
						c-2.6-1.1-5.1-2.5-7.9-3.1c-10.6-2.4-22,2.1-25.4,12.5c-0.1,0.3-0.2,0.7-0.3,1c-0.4-0.1-0.8-0.1-1.2-0.1
						c-3.8-0.2-6.9,2-8.6,6.4c-1.1,2.9-1.4,8-0.3,10.8c0.8,2,2,3.7,2.5,5.9c0.5,2.5,0.5,5.1,0.7,7.6c0,0.5,0.5,1,1.1,0.8
						c2.2-0.7,4.7,1.4,6.2-0.7c0,0,0-0.1,0.1-0.1c0.2-0.1,0.3-0.4,0.3-0.7c-0.1-2.6,0.1-5.1,0.6-7.6c0.5-0.5,0.7-1.1,1.1-2
						c0.7-1.5,1.7-1.6,2.7-2.8c1.5-1.8,1.8-4.2,1.5-6.6v-0.1c0-0.2,0-0.3-0.1-0.5c0.2,0.1,0.3,0.1,0.5,0.1c0.2,0,0.3,0.1,0.5,0.1
						c0.2,0,0.3,0.1,0.5,0.1c0.1,0,0.3,0,0.4,0h0.1c0.7,0,1.4-0.1,2.1-0.2c3.5-0.6,5.3-2.9,9.1-1.3c1.1,0.5,1.9,1.3,3.2,1.5
						c3,0.4,3.8-1.8,7.2,0.4c0.9,0.6,1.4,1.5,2.5,2c2.7,1.2,5.2,1.2,7.5,3.5c1.8,1.8,3.5,3.9,5.2,5.8c-0.6,3.2-0.6,6.4,1.1,9.5
						c0.2,0.4,1,0.6,1.4,0.2c2.2-2.8,2.6-6.7,3.2-10.1c0.2-1.1,0.2-2.2,0.1-3.2C160.6,33.4,161,32.4,161.1,31.3z"/>
				</g>
				<g>
					<path class="st0" d="M154.3,46.5c0-0.6-0.1-1.2-0.1-1.8c0,0,0,0,0,0c-0.1-1.2-0.2-2.3-0.3-3.5c-0.2-1.4-0.4-2.8-0.6-4.2
						c-0.6-3.3-1.7-6.6-3.3-9.4c-1.8-3.1-4.2-4.1-7.4-5.7c-3.2-1.5-6.9-1.8-10.3-1.2c-3.5,0.6-7.4-0.8-10.5,0.8
						c-4.3,2.2-8.5,5.1-10.9,9.1c-1.3,2.1-1.4,4.9-1.7,7.3c-0.3,2.9-0.4,5.9-0.3,8.9c0,0.2,0,0.3,0,0.5c0.1,1.4,0.2,2.9,0.3,4.4
						c0.7,6.8,2.5,13.6,5.6,19.6c2.6,5.1,7.6,10.9,13.5,12.4c6.2,1.6,10.9-0.5,15.5-4.6c4.1-3.7,7.2-4.9,8.6-10.1
						C154.2,61.6,154.7,53.9,154.3,46.5z"/>
				</g>
				<g>
					<path class="st8" d="M152.3,25.7c-1.8-3.1-6-3.2-9.3-4.8c-3.2-1.5-7.4-2.3-10.9-1.7c-3.5,0.6-8.2-1.1-11.3,0.5
						c-1.8,0.9-3.8,2-5.7,3.4c-0.5,0.3-1.1,0.7-1.6,1.1c-2,1.5-3.7,3.2-4.8,5.1c-1.3,2.1,0.6,6.2,0.3,8.6c-0.3,2.9-0.4,5.9-0.3,8.9
						c0,0.2,0,0.3,0,0.5c0.3-0.2,0.5-0.4,0.8-0.7c0,0,0-0.1,0.1-0.1c0.2-0.1,0.3-0.4,0.3-0.7c-0.1-2.6,0.1-5.1,0.6-7.6
						c0.5-0.5,0.7-1.1,1.1-2c0.7-1.5,1.7-1.6,2.7-2.8c1.5-1.8,1.8-4.2,1.5-6.6c0-0.2,0-0.4-0.1-0.6c0.6,0.2,1.3,0.3,2,0.3
						c0.7,0,1.4-0.1,2.1-0.2c3.5-0.6,5.3-2.9,9.1-1.3c1.1,0.5,1.9,1.3,3.2,1.5c3,0.4,3.8-1.8,7.2,0.4c0.9,0.6,1.4,1.5,2.5,2
						c2.7,1.2,5.2,1.2,7.5,3.5c1.5,1.5,2.8,3.1,4.1,4.7C152.6,33.6,154,28.5,152.3,25.7z M153.9,41.1c-0.1,1.2,0,2.3,0.3,3.5
						C154.1,43.5,154,42.3,153.9,41.1z"/>
				</g>
				<g>
					<path class="st9" d="M124.3,46.4c-0.8-0.7-2.5-0.9-3.3-0.9c-1.1,0-2.2,0.5-2.9,1.3c-0.2,0.2-0.4,0.5-0.4,0.8
						c-0.1,1.5,2.1,0.6,2.8,0.4c0.8-0.3,1.5-0.4,2.3-0.1c0.9,0.3,2.5,0.3,1.9-1.1C124.6,46.6,124.5,46.5,124.3,46.4z"/>
				</g>
				<g>
					<path class="st9" d="M146.2,45.9c-0.8-0.7-2.5-0.9-3.3-0.9c-1.1,0-2.2,0.5-2.9,1.3c-0.2,0.2-0.4,0.5-0.4,0.8
						c-0.1,1.5,2.1,0.6,2.8,0.4c0.8-0.3,1.5-0.4,2.3-0.1c0.9,0.3,2.5,0.3,1.9-1.1C146.4,46.1,146.3,46,146.2,45.9z"/>
				</g>
				<g>
					<g>
						<path class="st0" d="M115.3,48.8c0.1-0.7-1-0.9-1.5-0.4c-1.6-2.9-4.5-5.6-8.8-4.6c-5.2,1.2-5.7,7-4.6,10.6
							c1.1,3.5,6.1,10.4,11.4,9C118.2,61.7,114.8,52.7,115.3,48.8z"/>
					</g>
					<g>
						<path class="st7" d="M109.4,51.2c-0.5-1-2-0.1-1.5,0.9c0.7,1.4,1,2.8,1.1,4.3c0,1.1,1.8,1.1,1.7,0
							C110.7,54.6,110.2,52.9,109.4,51.2z"/>
					</g>
				</g>
				<g>
					<g>
						<path class="st0" d="M151.8,63.4c5.2,1.4,10.3-5.5,11.4-9c1.1-3.6,0.6-9.4-4.6-10.6c-4.3-1-7.2,1.6-8.8,4.6
							c-0.5-0.5-1.6-0.3-1.5,0.4C148.8,52.7,145.4,61.7,151.8,63.4z"/>
					</g>
					<g>
						<path class="st7" d="M155.6,50.7c0.5-1,2-0.1,1.5,0.9c-0.7,1.4-1,2.8-1.1,4.3c0,1.1-1.8,1.1-1.7,0
							C154.4,54,154.8,52.3,155.6,50.7z"/>
					</g>
				</g>
				<g>
					<path class="st8" d="M126.9,40.5c-0.2-1.2-1.3-2.4-2.2-3c-1.6-0.9-3.5-1.4-5.3-1.1c-1.8,0.3-3.5,1.3-4.6,2.9
						c-0.3,0.5-0.6,1-0.6,1.6c-0.1,2,2.2,1.9,3.6,2c1.9,0,3.7,0.1,5.6,0.1c1,0,2.2,0,2.9-0.7C126.8,41.8,127,41.2,126.9,40.5z"/>
				</g>
				<g>
					<path class="st8" d="M137.8,41.9c0.7,0.7,1.9,0.8,2.9,0.8c1.9,0,3.7,0,5.6,0c1.4,0,3.7,0.1,3.7-1.9c0-0.6-0.3-1.2-0.6-1.7
						c-1-1.5-2.7-2.6-4.5-3c-1.8-0.3-3.7,0-5.4,1c-1,0.6-2.1,1.7-2.3,2.9C137.1,40.7,137.2,41.3,137.8,41.9z"/>
				</g>
				<g>
					<path class="st8" d="M154.5,35.8c0.2-1.9,0.5-3.8,0.6-5.8c0-1.2-1.7-1.2-1.7,0c-0.1,1.9-0.2,3.8-0.4,5.6
						c-0.5,4.3,0.2,8.7-0.6,13c-0.5,3.1,0.2,5.6-0.1,8.7c-0.2,1.5-0.6,2.8-0.7,4.3c-0.1,1.1-0.7,2-0.8,3.1c0,0.2-0.1,0.3-0.1,0.5
						c-1.3,0.5-2.4,1.3-3.2,2.5c-0.8,1.2-1.2,2.5-1.6,3.9c0,0,0,0,0,0.1c-2,0.4-3.1,1.9-3.8,3.6c-1.1,0.7-2.7,0.4-3.9,0.9
						c-0.1,0.1-0.3,0.1-0.4,0.2c-0.4-0.4-0.7-0.8-1.1-1.1c-1.4-1.6-2.2-5.5-1.7-7.6c0.1-0.3,0-0.5-0.1-0.7c-0.1-0.4-0.5-0.8-1-0.6
						c-0.4,0.1-0.8,0.3-1.2,0.6c-0.5-0.1-1.1,0.2-1.1,0.8c-0.1,1-0.1,5.2-0.9,7.1c-0.6,1-1.6,1.4-2.8,1.4c-1,0-1.9-0.5-3-0.5
						c-0.6-0.8-1.2-1.6-2-2.2c-1.7-1.4-2.4-1.6-3.4-3.9c-1-2.4-2.3-4-4.2-5.5c-0.1-1.9-0.3-3.8-0.7-5.7c-0.4-2.2-1.5-4.1-2.1-6.2
						c-0.3-1.2-0.5-2.4-0.6-3.6c-0.1-1.1,0.2-2.4,0-3.5c-0.2-0.9-0.3-1.8-0.5-2.7c-0.3-1.7-0.6-3.4-0.8-5.2
						c-0.4-3.5-0.7-7.1-0.8-10.6c0-1.1-1.8-1.2-1.7,0c0.1,2.5,0.2,5.1,0.5,7.6c-0.4,0.1-0.7,0.3-0.7,0.8c0,0.5,0,1.1,0.1,1.6
						c-0.5-0.1-1,0.2-1.1,0.8c-0.1,0.8,0.2,1.6,0.4,2.3c-0.2,0.2-0.4,0.5-0.3,0.9c0.2,1.1,0.7,1.9,1.2,2.8c1.4,2.4,1.7,5.7,2.3,8.4
						c0.8,3.2,0.7,5.6,0.8,8.8c0.1,3.9,0.5,11.2,2.6,14.7c1.4,2.3,3.2,5.9,5.2,7.7c2,1.8,5.3,2,7.9,2.3c4.8,0.6,9.4,0.1,14.1,0.1
						c8.7-1.2,11.6-9.5,13.1-17.2c1.1-5.7,0.6-11.8,0.8-17.5c0.1-3.4,0.2-6.8,0.2-10.2C155.2,38.8,155.4,37.4,154.5,35.8z"/>
				</g>
				<g>
					<path class="st10" d="M136.8,62.7c-3.3,0.1-6.4-0.2-9.6,0.6c-0.7-0.1-1.4,0.5-1,1.2c2.4,3.7,9.3,4.6,12,0.7
						C139.4,63.7,138.6,62.6,136.8,62.7z"/>
				</g>
				<g>
					<g>
						<path class="st8" d="M134.1,59.6c-2.2-3.1-6.8-1.9-9.1,0.4c-1.1,1.2-2.4,1.7-3.9,0.9c-0.8-0.4-0.7,0.4-0.3,1.2
							c0.7,1.5,2.3,2.3,3.8,2.5c1.8,0.3,3.4-0.5,5.1-0.8c1.3-0.2,2.7-0.2,3.7-1C134.4,62,134.9,60.7,134.1,59.6z"/>
					</g>
					<g>
						<path class="st8" d="M132.8,62.8c1,0.8,2.4,0.8,3.7,1c2.6,0.4,7.5,1.5,8.9-1.7c0.4-0.8,0.5-1.6-0.3-1.2
							c-1.6,0.7-2.8,0.3-3.9-0.9c-2.2-2.3-6.9-3.5-9.1-0.4C131.4,60.7,131.9,62,132.8,62.8z"/>
					</g>
				</g>
				<g>
					<path class="st7" d="M133.2,47.7c-0.6-1-2.1-0.1-1.5,0.9c1.6,2.7,4.2,6.8,1.2,9.6c-0.8,0.8,0.4,2,1.2,1.2
						C137.8,56.1,135.2,51.2,133.2,47.7z"/>
				</g>
				<g>
					<path class="st7" d="M125.2,48.8c-0.9,1-1.8,1.9-2.9,2.7c-0.9,0.6,0,2.2,0.9,1.5c1.2-0.9,2.3-1.8,3.2-2.9
						C127.1,49.2,125.9,47.9,125.2,48.8z"/>
				</g>
				<g>
					<path class="st7" d="M141,50.3c-0.7-0.7-1.3-1.4-2-2.2c-0.7-0.8-2,0.4-1.2,1.2c0.7,0.7,1.3,1.4,2,2.2
						C140.5,52.4,141.7,51.1,141,50.3z"/>
				</g>
				<g>
					<path class="st11" d="M117.7,26.4h-0.1c-0.1,0-0.3,0-0.4,0c-0.2,0-0.3,0-0.5-0.1c-0.2,0-0.3-0.1-0.5-0.1
						c-0.2,0-0.3-0.1-0.5-0.1c0,0.2,0.1,0.3,0.1,0.5v0.1c0-0.1-0.1-0.1-0.1-0.2c-0.6-0.9-1.4-1.7-2.1-2.4c-1.1-1-2.4-1.9-3.3-3.2
						c-1-1.4-1.4-3.1-2-4.7c-0.1-0.2-0.2-0.4-0.2-0.6c0.4,0,0.8,0.1,1.2,0.1c0.1-0.3,0.2-0.7,0.3-1c0.5,1.4,0.9,2.8,1.6,4.1
						c0.9,1.8,2.6,2.8,4.1,4.1c0.5,0.5,1,1,1.4,1.5C116.9,25.1,117.3,25.8,117.7,26.4z"/>
				</g>
				<g>
					<path class="st11" d="M152.3,11c-2,0.7-4,1.3-6.2,0.9c-5.2-1-9.7-4.4-15-5.3c-1.1-0.2-0.6-1.9,0.5-1.7c5.1,0.9,8.9,3.5,13.7,5
						c2.4,0.7,4.5,0.2,6.6-0.5c-0.2,0.6-0.6,1.1-1,1.5C151.3,10.9,151.8,10.9,152.3,11z"/>
				</g>
				<g>
					<path class="st11" d="M153.1,22.8c-0.9-0.6-1.7-0.8-2.7-1c-2-0.4-1.3,0.2-2.4-1.7c-3.1-5.3-8.6-6.2-14.4-5.8
						c-1.1,0.1-1.1,1.8,0,1.7c2.7-0.2,5.3-0.2,7.9,0.6c1.2,0.4,2.1,0.8,3,1.7c1.3,1.2,1.5,2.9,2.6,4.2c1.9,2.3,6.8-0.6,6.8,6.3
						c0,1.1,1.6,1.1,1.7,0C155.8,26.5,155.2,24.2,153.1,22.8z"/>
				</g>
			</g>
			<g>
				<path class="st10" d="M195.8,309.7c0.4,2.4-31.5,3.7-49.9,2c-8.1-0.8-15.1-0.9-21.6-0.8c-0.6,0-1.3,0-1.9,0.1
					c-7.7,0.2-14.8,0.9-22.4,1.5c-14.8,1.2-21.3,0-21.3,0L76.7,140l0.6-27l22.7-7.6c0,0,13.9,7.3,30.5,7.3c16.6,0,32.4-9.6,32.4-9.6
					s10,2,14.1,3.6C181,108.1,195.4,307.3,195.8,309.7z"/>
			</g>
			<g>
				<path class="st2" d="M98.2,104.5c-4,1.9-8.2,3.3-12.5,4.4c-1,0.3-0.6,1.9,0.4,1.6c4.5-1.1,8.8-2.6,12.9-4.6
					C100.1,105.5,99.2,104,98.2,104.5z"/>
			</g>
			<g>
				<path class="st2" d="M175.9,105.9c-3.9-1-7.7-2.3-11.3-4c-1-0.4-1.8,1-0.8,1.4c3.8,1.7,7.7,3.1,11.7,4.1
					C176.5,107.8,176.9,106.2,175.9,105.9z"/>
			</g>
			<g>
				<path class="st12" d="M90.3,198.6c-0.1,19.1-2,51.1-4.2,80.7c0,0,0,0,0,0c-2.3,31.2-5,59.8-6.5,68.1
					c-2.8,16.3-3.5,21.5-11.7,25.8c-8.3,4.3-28.4,0-29.3-1.3c-0.6-0.9,0.6-60,1.3-94.1c0.1-4,0.2-7.6,0.2-10.7
					c0.2-7.2,0.2-11.9,0.2-12.8c0-4.3-3.7-110,0-116.8c2.6-4.8,7.2-7.9,11.1-11.5c3.3-3.1,6.2-5.6,10.3-7.6
					c1.1-0.5,10.2-3.6,16.6-5.8c3.6-1.2,6.3-2.1,6.3-2.2C84.7,110.5,90.5,159.3,90.3,198.6z"/>
			</g>
			<g>
				<path class="st13" d="M67.3,261.1c-5.9,8.1-10.1,11.4-18.8,13.8c-3.3,0.9-6.2,2-8.6,3c0.1-4,0.2-7.6,0.2-10.7
					c4.6,0.1,17.7-0.2,22.8-7.1c6.3-8.5,6.7-17.2,6.7-17.2l3.2-3.5C73,239.4,73.2,252.9,67.3,261.1z"/>
			</g>
			<g>
				<path class="st12" d="M224.4,371.1c-2.4,3.1-21.7,7.8-31,0c-9.3-7.8-6.7-49.5-6.9-71.4c0-3.7-0.3-11.9-0.8-22.7
					c-2.3-52.7-8.7-170.4-8.7-170.4c2.3,0.4,4.5,0.9,6.6,1.5c10.1,2.8,17.6,7.3,23,11.1c10.2,7.1,12.5,13.3,14,18.4
					c2.4,8.5,4.3,102,4.9,107c0.2,2,0.2,6.2,0,11.6c-0.1,3.8-0.3,8.1-0.5,12.8c-0.2,5.1-0.4,10.6-0.5,16.1
					C224,302.9,226.8,368,224.4,371.1z"/>
			</g>
			<g>
				<path class="st1" d="M185.6,276.9C185.6,276.9,185.6,276.9,185.6,276.9c-2.3-52.7-8.7-170.4-8.7-170.4c2.3,0.4,4.5,0.9,6.6,1.5
					c3.2,11.9,8.9,34,9.3,44.9C193.5,168.3,185.6,276.9,185.6,276.9z"/>
			</g>
			<g>
				<path class="st13" d="M225.4,256.2c-0.1,3.8-0.3,8.1-0.5,12.8c-3.1-0.8-7.1-2.6-11.7-6.5c-10.8-9.2-12-23.4-12-23.4l2,3.4
					c0,0,4.3,7,10.7,9.5C219.7,254.2,224.5,255.9,225.4,256.2z"/>
			</g>
			<g>
				<path class="st12" d="M73.6,169.7c-1.9-10.9-5.1-23.1-12.9-31.4c-4.5-4.8-11.5-6.8-16.6-3.8c-0.2-0.4-0.8-0.7-1.2-0.5
					c-0.1,0.1-0.2,0.2-0.3,0.3c-0.1,0.2-0.2,0.4-0.4,0.6c-0.5,0.7-1,1.5-1.6,2.3c-1,1.4-2,2.9-3.1,4.4c-0.4,0.5-0.7,1-1.1,1.5
					c-4.7,6.8-9.2,14.1-9.5,22c-0.1,3.4,0.4,6.7-0.3,10.1c-0.5,2.4-1.4,4.7-2.2,6.9c-2.2,5.7-4.3,10.9-4.2,17.1
					c0.1,6.4,1.1,12.5,0.5,18.9c-0.6,6.3-2,12.5-2.3,18.8c-0.4,8.9,1.6,19,9.4,24.3c4.5,3.1,8.4,5.2,12.2,5.6
					c2.7,0.3,5.3-0.2,8.1-1.9c9.5-5.7,18.3-21.1,22.3-30C79.4,214.9,77.2,190.8,73.6,169.7z"/>
			</g>
			<g>
				<path class="st1" d="M90.3,198.6c-0.1,19.1-2,51.1-4.2,80.7c-0.2-2.1-7.9-95.8-10.5-112.9c-1.9-12.6,1-39.9,2.7-53.8
					c3.6-1.2,6.3-2.1,6.3-2.2C84.7,110.5,90.5,159.3,90.3,198.6z"/>
			</g>
			<g>
				<path class="st13" d="M59,210.4c-11.4-4.9-26.9-5.9-33.7,6.6c-0.5,1,1,1.9,1.5,0.9c6.4-11.6,20.8-10.5,31.3-6
					C59.2,212.3,60.1,210.8,59,210.4z"/>
			</g>
			<g>
				<path class="st13" d="M63.7,217.4c-4.5-13.4-7.8-27-10.4-40.8c-1.3-7-4.6-12.6-8.1-18.7c-2-3.4-4-6.8-5.9-10.2
					c-0.9-1.5-1.8-3.1-2.7-4.6c0.4-0.5,0.7-1,1.1-1.5c0.6,1,1.2,2,1.8,3c2.6,4.4,5.1,8.7,7.7,13.1c3.2,5.5,6.3,10.6,7.6,16.9
					c3,14.3,6.1,28.4,10.7,42.3C65.7,218,64,218.4,63.7,217.4z"/>
			</g>
			<g>
				<path class="st12" d="M248.1,230c-0.8-5.8-1.8-11.4-2.1-17.3c-0.6-11.2-2.7-22-5.3-32.9c-1.5-6.1-3-12.3-5.3-18.1
					c-2.1-5.2-6.1-9.5-8-14.8c-0.4-1-0.8-2.1-1.2-3.1c-0.3-0.6-0.6-1.2-0.9-1.9c-5.9-12.2-15.7-20.6-16.4-21.1
					c-0.9-0.6-5,19.6-5.3,28.9c-0.4,11.6-2.9,23-4,34.6c-1.8,19.6-4.5,44,8.6,60.5c4.8,6.1,11.8,10.9,19.6,11.8
					c8.6,0.9,15.9-5.7,19.2-13.3C248.8,239,248.7,234.4,248.1,230z"/>
			</g>
			<g>
				<path class="st13" d="M226.1,143.9c-1,2.7-2,5.3-3,8c-2.2,6.4-4.1,12.9-6.9,19.1c-6.5,14.2-10.7,28-11.8,43.7
					c-0.1,1.1-1.8,1.1-1.7,0c1-14.6,4.5-28.4,10.7-41.7c4.7-10,8-20.6,11.8-30.9C225.6,142.6,225.9,143.2,226.1,143.9z"/>
			</g>
			<g>
				<path class="st13" d="M232.2,207.4c-6.2-4.8-14.6-8.2-22.5-6.7c-1.1,0.2-0.6,1.9,0.5,1.7c7.1-1.4,14.3,1.7,20.1,5.8
					c5.6,3.9,8.4,12.3,8.8,18.8c0.1,1.1,1.8,1.1,1.7,0C240.4,220.3,237.6,211.7,232.2,207.4z"/>
			</g>
			<g>
				<path class="st7" d="M141.7,198.6c0,0-4.2-5.4-6-10.5c-1.8-5.1-2.1-12.4-2.1-12.7s2.1-3.5,3.3-4.6c1.2-1.1,4-4.2,4.9-4.3
					c0.9-0.1,3.2,0.4,2.3,3.9C143,173.7,141.7,198.6,141.7,198.6z"/>
			</g>
			<g>
				<path class="st0" d="M154.8,162.6c-2-6.1-3.6-12.2-5-18.4c-0.6-2.6-1.3-6.9-2.9-9.8c0,0,0,0,0,0c-0.6-1-1.2-1.9-2.1-2.5
					c-7.2-5.1-6.1,19.1-6,21.5c0,0.3,0.2,0.6,0.4,0.7c0,10.7,1.2,21.1,0.7,31.8c0,0.2,0,0.4,0,0.6c-0.2,6.2,0.7,15.1,7.2,17.9
					c7.1,3,18.5-6.9,18.5-6.9S158.2,173.2,154.8,162.6z"/>
			</g>
			<g>
				<path class="st7" d="M148,145.7c-0.7-3.6-1-6.6-1.1-10.2c0-0.4,0-0.7-0.1-1.1c0,0,0,0,0,0c-0.6-1-1.2-1.9-2.1-2.5
					c-7.2-5.1-6.1,19.1-6,21.5c0,0.3,0.2,0.6,0.4,0.7c0,10.7,1.2,21.1,0.7,31.8c0,0.2,0,0.4,0,0.6c2.7-6.3,3.8-13.7,5.5-20.4
					C147.1,159.5,149.3,152.6,148,145.7z"/>
			</g>
			<g>
				<path class="st0" d="M144.1,141.6c-0.2-1.1-0.8-2.2-1.6-2.8c0.3-2.5,0.7-6.5-0.8-8.6c-0.2-0.3-0.5-0.5-0.7-0.7
					c-0.3-0.3-0.7-0.4-1-0.5c0,0,0-0.1,0-0.1c-0.1-1.5-0.7-3.1-2.5-3.2c-0.6-0.1-1.1,0.1-1.6,0.3c-1.1,0.7-1.8,2.2-2.2,3.6
					c-0.3-0.1-0.6-0.2-0.9-0.2c-0.1,0-0.1,0-0.2,0c-2.8,0.2-3.6,5.1-4.3,7c-1.9,5.3-3.5,10.6-5.2,16c-1.8,5.6-10.8,31.6-10.8,31.6
					s-4.6-1,1.5,6.5c3.3,4,9.3,7.4,13.7,4.7c0.1,0.5,0.7,0.9,1.2,0.5c4.8-3.2,8.2-6.7,9.8-12.3c2.1-7.1,1-14.6,2.2-21.8
					C141.8,155.3,145.3,148.1,144.1,141.6z"/>
			</g>
			<g>
				<path class="st0" d="M128.7,195.7l-11,9.2l-8.6,7.2c-6.2,5.2-12.5,10.4-18.7,15.6c-4.6,3.8-9.2,7.7-13.8,11.5
					c-5.5,4.6-9,8.2-16.5,7.5c-7.1-0.7-13.3-3.4-17.3-9.6c-1.9-2.9-3.4-6.1-4-9.5c-1.3-7,1.7-14.4,8.1-17.8
					c3-1.6,30.8-13.2,49.8-21.2c3.8-1.6,7.3-3,10.1-4.2c4.8-2,7.8-3.2,7.8-3.2s10.8,4.6,11.5,4.8
					C126.8,186.2,128.7,195.7,128.7,195.7z"/>
			</g>
			<g>
				<path class="st0" d="M159.5,185.4c0,0,58.8,22.3,63.4,24.5c5.5,2.6,8.5,9.1,9.4,14.8c1,6.7-0.6,14-5.2,19
					c-5,5.4-13.8,5.1-19.7,1.5c-2.8-1.7-5.5-3.8-8.2-5.7c-3.3-2.3-6.7-4.6-10-6.9c-4-2.8-8-5.5-12-8.3c-4.1-2.8-8.2-5.7-12.3-8.5
					c-3.6-2.5-19-12.1-19-12.1s1.7-13,2.3-13.2C148.8,190.3,159.5,185.4,159.5,185.4z"/>
			</g>
			<g>
				<path class="st2" d="M92.1,608.7c0-0.1-0.1-0.2-0.1-0.2c-1-2.2-6.3-2-8.3-2.2c-3.5-0.4-7-0.7-10.4-1.1c-7.1-0.8-14.4-2-21.6-2.2
					c-2.4-0.1-9-0.1-9.2,3.6c-0.1,1.1,0.8,2.1,0.7,3.2c-0.1,1.2-0.9,1.5-1.1,2.6c-0.2,1.5,0,2.7,1,3.9c1.3,1.6,3.5,2.3,5.4,2.9
					c3.5,1.2,7.1,2.1,10.8,2.7c6.5,1.1,13.2,1.3,19.8,1.4c3.1,0,9.6,1.3,10.6-2.8c0.3-1.1-0.1-2-0.1-3.1c0.1-2.9,1.2-2.8,2.1-4.6
					C92.4,611.7,92.6,610,92.1,608.7z"/>
			</g>
			<g>
				<path class="st2" d="M145.7,612c0.8,1.9,1.9,1.8,1.8,4.7c0,1.1-0.5,2-0.3,3.1c0.8,4.2,7.3,3.3,10.4,3.5
					c6.6,0.3,13.3,0.5,19.9-0.2c3.7-0.4,7.4-1,10.9-2c1.9-0.5,4.2-1.1,5.5-2.6c1.2-1.4,1.5-2.8,0.9-4.5c-1.2-2.9,1.6-5.4-1-7.6
					c-1.9-1.6-5.3-1.7-7.6-1.7c-7.2-0.2-14.5,0.5-21.7,0.8c-3.5,0.2-7,0.3-10.5,0.5c-2,0.1-7.3-0.4-8.4,1.7c0,0.1-0.1,0.2-0.1,0.2
					C145.1,609.1,145.2,610.8,145.7,612z"/>
			</g>
			<g>
				<path class="st6" d="M144.2,459c1,12.3-4.1,27.3-8.3,37.3c-3.1-22.5-4.1-44.3-5.2-67.4c0,0,0,0.1,0,0.1v-0.5
					c0,0,4.2-25.4,5.6-44c1.4-18.7,2.4-29.3,2.4-29.3s3.1,6.2,5,16.6c1.4,7.8,2.2,18.1,0.6,30C140.2,429.4,142.4,438.6,144.2,459z"/>
			</g>
			<g>
				<path class="st6" d="M100.5,561.7c-0.3,1.1-0.6,2.3-0.9,3.5c-3.7-13.2-6.2-26.7-7.3-40.4c-0.1-1.1,1.6-1.4,1.7-0.2
					C95.1,537.1,97.2,549.5,100.5,561.7z"/>
			</g>
			<g>
				<path class="st8" d="M106.8,184.5c-2.8,1.2-6.3,2.6-10.1,4.2c4.4,7.7,8.5,15.5,12.4,23.4l8.6-7.2
					C114.3,198,110.6,191.2,106.8,184.5z"/>
			</g>
			<g>
				<path class="st10" d="M109.2,200.9c-4.5,2-9.6,0.6-11.3-3.3c-1.7-3.8,0.6-8.6,5.1-10.6c4.5-2,9.6-0.6,11.3,3.3
					C116,194.1,113.7,198.9,109.2,200.9z"/>
			</g>
			<g>
				<path class="st7" d="M143.5,137.6c-5.3-0.2-8.5,19.7-9.1,21.7c-0.3,1.1,1.4,1.5,1.7,0.5c0.9-3,1.4-6.1,2-9.2
					c0.3-1.3,0.5-2.6,0.9-3.9c0.3-1,2.5-7.7,4.9-7C143.7,139,143.6,138.3,143.5,137.6z"/>
			</g>
			<g>
				<path class="st7" d="M141.7,130.1c-5,0.4-6,10.1-6.9,13.4c-1.1,4.4-2.3,8.8-3.4,13.2c-0.3,1.1-1.9,0.6-1.7-0.5
					c1.9-7.3,3.3-15,5.8-22.1c0.9-2.4,2.3-4.5,4.4-5.3c0,0,0,0.1,0,0.1c0.3,0.1,0.6,0.2,1,0.5C141.2,129.6,141.5,129.8,141.7,130.1z
					"/>
			</g>
			<g>
				<path class="st7" d="M135.8,125.9c-1.2,2-1.6,4.9-2.2,6.8c-0.7,2.5-1.4,4.9-2.1,7.4c-1.5,5.2-3,10.4-4.4,15.6
					c-0.3,1.1-2,0.6-1.7-0.5c1.9-6.8,3.9-13.7,5.8-20.5c0.4-1.5,0.8-3.5,1.3-5.4c0.1,0,0.1,0,0.2,0c0.3,0,0.6,0.1,0.9,0.2
					C134.1,128.1,134.7,126.6,135.8,125.9z"/>
			</g>
			<g>
				<path class="st7" d="M150.2,155.4c-0.6-3.3-1.3-7.4-2.4-10.6c-0.4-1.1-1.5,0.4-1.1,1.4c1.4,4,1.6,8.4,2.5,12.6
					c0.7,3.7,1.6,7.3,2.6,10.9c0.3,1.1,1.9,0.5,1.6-0.6C152,164.6,151,160,150.2,155.4z"/>
			</g>
			<g>
				<path class="st7" d="M147.7,194.1c-4.6-4.8-3.6-11.3-0.6-16.6c0.5-1-1-1.9-1.5-0.9c-3.4,6-4.2,13.4,0.9,18.7
					C147.3,196.2,148.5,195,147.7,194.1z"/>
			</g>
			<g>
				<path class="st13" d="M52.2,204.1c-3.3-2.4-7.1-3.4-11.1-3.6c-3.5-0.2-7.6-0.5-10.8,1.2c-1,0.5-0.1,2,0.9,1.5
					c5.5-2.9,15.5-1,20.2,2.4C52.2,206.3,53.1,204.8,52.2,204.1z"/>
			</g>
			<g>
				<path class="st4" d="M79.2,615.8c-10.7-1.3-21.1-4.1-30.9-8.5c-1-0.5-1.9,1-0.9,1.5c10.1,4.5,20.7,7.5,31.8,8.8
					C80.4,617.7,80.3,615.9,79.2,615.8z"/>
			</g>
			<g>
				<path class="st4" d="M191.9,610.6c-11.9,4.5-24.4,6.7-37.1,6.6c-1.1,0-1.1,1.7,0,1.7c12.9,0.1,25.5-2.1,37.6-6.7
					C193.4,611.9,193,610.2,191.9,610.6z"/>
			</g>
			<g>
				<path class="st4" d="M179.3,610.6c-8.2,0.1-16.3,0.2-24.5,0.3c-1.1,0-1.1,1.8,0,1.7c8.2-0.1,16.3-0.2,24.5-0.3
					C180.4,612.3,180.4,610.6,179.3,610.6z"/>
			</g>
			<g>
				<path class="st2" d="M150.9,221.7c-4.4,12.2-8.9,24.4-12,37c-1.7,6.7-2.9,13.4-3.7,20.3c-0.7,5.7-1.5,11.2-3.6,16.6
					c-2.1,5.2-4.6,10.3-7.2,15.3c-0.6,0-1.3,0-1.9,0.1c3-5.6,5.8-11.4,8-17.3c2.2-5.8,2.6-11.9,3.4-18c0.8-6.1,2.1-12.2,3.6-18.2
					c3.2-12.3,7.5-24.3,11.9-36.2C149.6,220.2,151.3,220.6,150.9,221.7z"/>
			</g>
		</g>
	</g>
</switch>

</svg>
