<?xml version="1.0" encoding="utf-8"?>
<!-- Generator: Adobe Illustrator 27.1.0, SVG Export Plug-In . SVG Version: 6.00 Build 0)  -->










<svg version="1.1" id="Layer_1" xmlns="http://www.w3.org/2000/svg" xmlns:xlink="http://www.w3.org/1999/xlink" x="0px" y="0px" viewBox="0 0 249.8 696.7" style="enable-background:new 0 0 249.8 696.7;" xml:space="preserve">
<style type="text/css">
	.st0{fill:#F8A695;}
	.st1{fill:#F7B34A;}
	.st2{fill:#D98938;}
	.st3{fill:#F3704F;}
	.st4{fill:#CC3A27;}
	.st5{fill:#8A3C1D;}
	.st6{fill:#51230F;}
	.st7{fill:#DB6952;}
	.st8{fill:#33251E;}
	.st9{fill:#FFFFFF;}
	.st10{fill:#FCD1BB;}
	.st11{fill:#2F3062;}
	.st12{fill:#11111C;}
</style>
<switch>
	
	<g>
		<g>
			<g>
				<path class="st0" d="M214.6,629.4l-5.7,8.4h-24l-5-33l-3-19.8l31.4-7.3c0,0,0.7,11.9,2,24c0.8,6.9,1.8,13.9,3,18.7
					C216.6,633.6,214.6,629.4,214.6,629.4z"/>
			</g>
			<g>
				<path class="st1" d="M213.3,620.4c-1.2-4.8-2.2-11.8-3-18.7c-1.9,0.2-3.7,0.4-5.5,0.5c-0.6,0.1-1.2,0.1-1.8,0.2
					c-2.2,0.2-4.4,0.5-6.7,0.7c-0.6,0.1-1.2,0.1-1.8,0.2c-1.8,0.2-3.6,0.4-5.5,0.6c-0.8,0.1-1.7,0.1-2.7,0.1c-0.6,0-1.2,0-1.8,0.1
					c-1.6,0.1-3.3,0.2-4.7,0.6l5,33h24l5.7-8.4C214.6,629.4,216.6,633.6,213.3,620.4z"/>
			</g>
			<g>
				<path class="st2" d="M190.9,637.1c0,0.3,0,0.5-0.2,0.7c-0.4,0.5-1.2,0.6-1.5,0c0-0.1-0.1-0.1-0.1-0.2c-1.5-11.1-3-22.3-4.6-33.4
					c0.6,0,1.2,0,1.8-0.1C187.9,615.1,189.4,626.1,190.9,637.1z"/>
			</g>
			<g>
				<path class="st2" d="M200.5,635.9c0.1,1.1-1.6,1.2-1.8,0.1c-1.4-10.9-2.8-21.7-4.2-32.6c0.6-0.1,1.2-0.1,1.8-0.2
					C197.7,614.1,199.1,625,200.5,635.9z"/>
			</g>
			<g>
				<path class="st2" d="M207.8,631.8c0.2,1.1-1.6,1.6-1.7,0.5c-1.4-9.9-2.4-19.8-3.1-29.8c0.6-0.1,1.2-0.1,1.8-0.2
					C205.5,612.1,206.5,622,207.8,631.8z"/>
			</g>
			<g>
				<path class="st0" d="M95.9,579.3l-0.5,20.3l-0.6,25.3l-30.4,6.2c0,0-1.4-8.5-0.2-18.9c0.4-3.6,0.5-8.3,0.5-13
					c0-8.9-0.5-17.5-0.5-17.5L95.9,579.3z"/>
			</g>
			<g>
				<path class="st1" d="M95.3,599.5c-2,0-4.1-0.1-6.1,0c-0.6,0-1.2,0-1.8,0c-2.4,0-4.8,0-7.2,0h-1.8c-1.9,0-3.8,0-5.7,0
					c-0.3,0-0.6,0-0.9,0c-0.6,0-1.2-0.1-1.8-0.1c-1.8-0.1-3.8-0.3-5.6-0.1c0,4.6-0.1,9.4-0.5,13c-1.1,10.5,0.2,18.9,0.2,18.9l5-1
					l1.8-0.4l7.5-1.5l1.8-0.4l6.7-1.4l1.8-0.4l5.8-1.2L95.3,599.5C95.4,599.5,95.4,599.5,95.3,599.5z"/>
			</g>
			<g>
				<path class="st2" d="M71.2,629.7c-0.2,2.1-0.3,4.2-0.5,6.3c-0.1,1.1-1.9,1.1-1.8,0c0.2-2,0.4-4,0.5-5.9
					c0.8-10.2,1.1-20.4,0.8-30.7c0.6,0,1.2,0.1,1.8,0.1C72.2,609.6,71.9,619.7,71.2,629.7z"/>
			</g>
			<g>
				<path class="st2" d="M80.4,633.3c0,1.1-1.8,1.1-1.8,0c0-1.7,0-3.4,0-5.2c0-9.6-0.1-19.1-0.1-28.7h1.8c0.1,9.5,0.1,18.9,0.1,28.3
					C80.4,629.7,80.4,631.5,80.4,633.3z"/>
			</g>
			<g>
				<path class="st2" d="M89.3,599.5c-0.1,8.9-0.2,17.7-0.3,26.6c0,2.9-0.1,5.7-0.1,8.6c0,1.2-1.8,1.2-1.8,0c0-2.7,0.1-5.5,0.1-8.2
					c0.1-9,0.2-18,0.3-27C88.1,599.5,88.7,599.5,89.3,599.5z"/>
			</g>
			<g>
				<path class="st3" d="M218.5,592.9c0,1.3-17.4,7.1-29.8,7.1c-12.5,0-35.2,1.8-36.9,0c-1.8-1.8-10.7-58.7-15.6-80.4
					c-2.8-12.6-9.6-59.8-14.8-96.9c-0.3-2-0.6-3.9-0.8-5.8c-0.9-6.3-1.7-12.2-2.4-17.4c-2-14.9-3.4-25-3.4-25s-19.4-94.2-20-98.3
					c-0.4-2.6,7.5-8.3,13.5-12.4c2.9-2,5.3-3.5,6.2-4.1c0.2-0.2,0.4-0.2,0.4-0.3c0,0,0.5-0.1,1.4,0c1.9,0,5.5,0.1,10.1,0.2
					c0.6,0,1.2,0,1.8,0.1c17.5,0.6,46.3,1.7,47.2,2.3c1.3,0.9,19.6,63.2,19.6,63.2s8,73.4,12,103.6
					C210.9,458.8,218.5,591.5,218.5,592.9z"/>
			</g>
			<g>
				<path class="st3" d="M120.6,427.3c0,1.5-0.1,3.9-0.2,7.2c0,0,0,0,0,0c-0.9,34.4-4.1,158-7.4,159.6c-0.6,0.3-3.3,0.6-7.1,0.8
					c-17.3,0.8-59.6,0.3-61.8-0.8c-2.7-1.3-3.1-59.6-3.8-85.4c-0.7-25.8,0-122.4,0-122.4s3.4-105,3.4-106.8
					c0-1.4,45.5-11.7,64.6-15.9c2.8-0.6,5.1-1.1,6.5-1.5c0.9-0.2,1.5-0.3,1.7-0.4c0.1,0,0.1,0,0.1,0s0,0.4,0,1.2v0.1
					c0.2,6.9,1.2,40.6,2.2,75.9c0.1,5.2,0.3,10.4,0.4,15.6c0,0.6,0,1.3,0,1.9c0.5,19.5,1,38.1,1.2,51.6v0.2c0.1,3.2,0.1,6,0.1,8.5
					C120.6,421.7,120.6,425.4,120.6,427.3z"/>
			</g>
			<g>
				<path class="st4" d="M120.6,427.3c0,1.5-0.1,3.9-0.2,7.2c0,0,0,0,0,0c-0.9,34.4-4.1,158-7.4,159.6c-0.6,0.3-3.3,0.6-7.1,0.8
					c-1.7-13.7-4.3-39.7-1.8-58.6c3.6-26.7,9.9-52.9,5.9-79.6s8.2-71.1,8.2-71.1l1.7,25.7l0.7,5.5
					C120.6,421.7,120.6,425.4,120.6,427.3z"/>
			</g>
			<g>
				<path class="st4" d="M128.2,342.9c-0.6,5.9-3,11.6-9,13.6c-0.1,0-0.1,0-0.2,0.1c-0.1,0-0.3,0.1-0.4,0v2.2
					c0.1,16.5,0.8,32.9,1.7,49.3v0.2c0.3,4.8,0.6,9.6,0.9,14.3c-0.3-2-0.6-3.9-0.8-5.8c0.1,4.9,0.1,8.6,0,10.5
					c0,1.5-0.1,3.9-0.2,7.2c-0.8-11.7-1.6-23.4-2.2-35.2c-0.7-13.5-1.2-27.1-1.3-40.7c-0.1-32.2,1.3-64.5-2.2-96.5
					c-0.1-0.9-0.2-1.8-0.3-2.7c-0.1-0.7-0.2-1.4-0.3-2.1c-0.1-1.1,1.6-1.1,1.8,0c0.1,0.6,0.1,1.2,0.2,1.8c0.1,0.9,0.2,1.8,0.3,2.7
					c0,0.4,0.1,0.8,0.1,1.1v0.1c2.7,25.2,2.3,50.5,2.2,75.9c0,5.3-0.1,10.5-0.1,15.8c0.2-0.1,0.3-0.1,0.5-0.2
					c9.1-3.5,7.5-16.2,7.6-24.1c0.1-8.7,0.1-17.4,0.1-26.1c0-15-0.2-29.9-0.6-44.9c0-2.5-0.1-5-0.2-7.4c0-1.1,1.8-1.1,1.8,0
					c0.1,2.5,0.1,5,0.2,7.5c0.4,17.8,0.6,35.7,0.6,53.5C128.6,322.9,129.2,333,128.2,342.9z"/>
			</g>
			<g>
				<path class="st4" d="M164.3,283.6c-36-0.2-71.9,0.1-107.9,0.8c-1.1,0-1.2,1.8-0.1,1.8c36-0.7,71.9-1,107.9-0.8L164.3,283.6z"/>
			</g>
			<g>
				<path class="st5" d="M111.9,23.3c-1.5-3-1.7-5-5.2-5.5c-2.3-0.3-4.1,0.1-5.6,1.1c-2.6,1-4.9,3.1-6.2,5.7
					c-1.5,2.9-1.6,6.3,0.6,9.1c4.1,5,11.4,1.1,14.6-3c0.4-0.5,0.8-1.1,1.2-1.7C112.4,27.2,112.9,25.2,111.9,23.3z"/>
			</g>
			<g>
				<path class="st6" d="M107.2,30c-5.6,1-10.3-1.1-12.2-5.4c-1.5,2.9-1.6,6.3,0.6,9.1c4.1,5,11.4,1.1,14.6-3
					c0.4-0.5,0.8-1.1,1.2-1.7C109.6,29.2,108,29.8,107.2,30z"/>
			</g>
			<g>
				<path class="st5" d="M145.4,153.4c0,0-2,0.6-2.2,0.9c-0.3,0.4-0.8,0.6-1.3,0.7c-19.6,5.6-40.7,6.2-60.7,1.8
					c-2.3-0.5-7.1-61.2-6.9-86.1c0.1-5.6,0.1-11.4,1.5-16.9c1.4-5.5,4.1-10.8,8.7-14.4c4.1-3.1,9.2-4.6,14.3-5.5c0.1,0,0.1,0,0.2,0
					c0.6-0.1,1.2-0.2,1.8-0.3c6.4-1,12.9-1.2,19.1,0.2c6.9,1.5,13.5,5.2,17.6,10.8c4.7,6.4,5.7,14.5,6.4,22.3
					c0.5,5.4,0.9,10.9,1.2,16.3C146.3,106.5,145.4,153.4,145.4,153.4z"/>
			</g>
			<g>
				<path class="st6" d="M134.7,141.8c-0.4-5.8-0.2-5-0.8-10.8c-1.1-12.2-1.2-32-0.5-44.3c0-0.7-2.4-0.1-2.9,0.2
					c-6.9,3.5-13.5,6.5-21.2,7.2c-6.8,0.7-13.7,1-20.5,1.4c-0.4,0-0.7,0.3-0.8,0.6c0-0.4,0-0.9-0.1-1.3c-0.1-1.1-1.9-1.1-1.8,0
					c1.1,16.1-0.4,32.1-4.3,47.8c-0.3,1.1,1.4,1.6,1.7,0.5c0-0.1,0-0.2,0.1-0.3c0.7,0.6,1.6,1,2.7,1c3.1,0.2,5.9-1,9.2-0.5
					c2.6,0.4,5.2,1.2,7.8,1.8c5.5,1.3,11,2.3,16.5,3c3.5,0.5,8.3,1.8,11.7,0.4C134.4,147.4,134.9,144.6,134.7,141.8z"/>
			</g>
			<g>
				<path class="st0" d="M131.2,137.1c-0.2-0.3-0.4-0.6-0.6-1c0-0.1,0.1-0.2,0.1-0.3c0.1-0.6-0.4-1-0.9-1.1
					c-6.1-11.4-4.2-24.5-5-36.9c-0.1-1.1-2-1.1-2,0c0.1,1,0.1,2,0.2,3c-0.1,0-0.1,0-0.2,0c-0.3,0.1-0.5,0.2-0.8,0.3
					c-0.1-0.1-0.3-0.1-0.5-0.1c-4.6,0.5-9-0.5-13.6-0.5c-1.6,0-3.6,0.3-5.5,0.6c-2.6,0.4-5.2,0.7-7.3,0.2c0-0.4-0.1-0.9-0.1-1.3
					c0-0.3,0-0.5-0.1-0.8c-0.1-1.1-2.1-1.1-2,0c0,0.5,0.1,1,0.1,1.5c0.4,4.6,0.5,9.3,0.4,13.9c0,1.6-0.1,3.1-0.2,4.7
					c-0.4,6.2-0.7,13.3-6.2,17.8c-0.9,0.8,0.5,2,1.4,1.3c1-0.9,1.9-1.8,2.6-2.8c-0.4,5.9,1.3,11.8,5.3,16.6
					c2.9,3.5,7.1,7.1,12.3,6.3c10.4-1.6,18.3-11.4,21.2-20.3C130.7,138.6,131.7,137.8,131.2,137.1z"/>
			</g>
			<g>
				<path class="st7" d="M120.4,105.1c-0.5-2.3-8.1,0.4-10.4-0.7c-2.2-1-4.9-2.2-7.5-3.1c-1.7-0.6-3.5-1-5.1-1.2
					c-0.8-0.1-1.6,0-2.3,0.1c-0.7,0.1-1.3,0.4-1.9,0.7c0.4,4.6,0.5,9.3,0.4,13.9c3.3,1.2,6.9,1.3,10.6,1.6
					C110.2,116.9,122.3,113.4,120.4,105.1z"/>
			</g>
			<g>
				<path class="st0" d="M132,67.5c-0.6-3-1.1-6.7-3.1-9.2c-3-3.9-5-4.5-10.3-7.9c-3.3-2.1-7.6-4.9-11.5-5.2
					c-3.9-0.3-10.7,3.5-14.1,5.3c-3.5,1.8-6.1,3.1-7.8,6.4c-2.3,4.4-3,9.6-3.2,14.5c-0.2,4.5,0.6,11.5,1.4,16
					c1.7,9.3,7.4,16.3,15.3,20.9c6.9,4,14.5,3.7,20.9-1.1c3.3-2.5,6.3-5.6,8.2-9.5c3-6.4,4.1-13.3,4.6-20.2
					C132.6,74.1,132.6,70.7,132,67.5z"/>
			</g>
			<g>
				<path class="st0" d="M131.9,90.7c5.4,1.7,9.5-4.9,10.6-9.2c1.1-4.4,0.6-11.6-4.7-13.1c-4.4-1.2-7.4,2-9,5.7
					c-0.5-0.6-1.6-0.4-1.5,0.5C127.7,79.4,125.3,88.6,131.9,90.7z"/>
			</g>
			<g>
				<path class="st8" d="M98.3,74.6c-0.1-0.4-0.2-0.8-0.3-1.1c-0.3-0.6-0.8-1.2-1.4-1.3c-0.7-0.2-1.5,0.2-2,0.8s-0.6,1.4-0.7,2.1
					c-0.1,0.9,0.1,1.8,0.5,2.6c0.7,1.2,1.9,1.7,3,0.6C98.2,77.3,98.5,75.9,98.3,74.6z"/>
			</g>
			<g>
				<path class="st8" d="M117.8,74.6c0.1-0.4,0.2-0.8,0.3-1.1c0.3-0.6,0.8-1.2,1.5-1.3c0.7-0.1,1.5,0.2,2,0.8
					c0.5,0.6,0.6,1.4,0.7,2.1c0,0.9-0.1,1.8-0.6,2.6c-0.7,1.2-1.9,1.7-2.9,0.6C117.9,77.3,117.6,75.9,117.8,74.6z"/>
			</g>
			<g>
				<path class="st7" d="M131.4,82.8c0.9-1.5,1-3.2,0.3-4.7c-0.5-1,1.1-1.9,1.5-0.9c1,2.1,0.9,4.5-0.3,6.5
					C132.4,84.7,130.9,83.8,131.4,82.8z"/>
			</g>
			<g>
				<path class="st7" d="M109.5,75.6c-0.5-1-2-0.1-1.5,0.9c0.7,1.6,2.1,3.7,1.5,5.4c-0.4,1.1,1.3,1.5,1.7,0.5
					C112.1,80.1,110.4,77.6,109.5,75.6z"/>
			</g>
			<g>
				<path class="st5" d="M100.1,65.1c-0.4-0.6-1.1-1-1.7-1.1c-1.9-0.4-4.1,0.1-5.7,1.1c-0.4,0.2-0.8,0.5-1.1,0.9
					c-1,1.6,0.8,1.9,2,1.8c1.4-0.2,2.8-0.2,4.2-0.1c0.4,0,0.9,0.1,1.3,0c0.4-0.1,0.9-0.3,1.1-0.7C100.6,66.4,100.5,65.7,100.1,65.1z
					"/>
			</g>
			<g>
				<path class="st5" d="M115.2,65.1c0.4-0.6,1.1-1,1.7-1.1c1.9-0.4,4.1,0.1,5.7,1.1c0.4,0.2,0.8,0.5,1.1,0.9c1,1.6-0.8,1.9-2,1.8
					c-1.4-0.2-2.8-0.2-4.2-0.1c-0.4,0-0.9,0.1-1.3,0c-0.4-0.1-0.9-0.3-1.1-0.7C114.7,66.4,114.8,65.7,115.2,65.1z"/>
			</g>
			<g>
				<path class="st7" d="M113.7,87.6c-2.9,3.3-7.5,3.2-10.3-0.1c-0.7-0.9-1.9,0.4-1.2,1.3c3.4,4,9.3,4,12.8,0
					C115.7,88,114.4,86.7,113.7,87.6z"/>
			</g>
			<g>
				<path class="st5" d="M142,66.2c-1.4-5-5.7-8.2-9.8-11.3c-2.2-1.7-4.6-3.4-7-4.7c-2.5-1.3-5.3-1.8-7.7-3.2
					c-4.1-2.4-8.3-7-13.1-7.6c-0.5-0.1-1-0.1-1.5,0c-0.6,0.1-1.1,0.2-1.7,0.5c-3.2,1.2-6.1,4.5-8.7,6c-4.3,2.5-8.6,4.8-11.1,9.3
					c-2.2,4-2.5,8.5-1.4,12.8c-0.7,0.1-1.5,0.2-2.2,0.2c-1.2,0-1.2,1.8,0,1.8c9.1-0.4,13.9-4.4,18.4-8.6c3.7-3.5,5.8-8.3,7.6-13
					c0.2-0.6,0.4-1.2,0.6-1.9c0.3,0.4,0.7,0.9,1,1.3c6.2,7.2,15.8,11,21.4,18.9c7.8,10.9,7.8,24.4,6.3,37.1
					c-0.4,1.7,1.1,2.7,1.3,1.9c1.6-0.4,3.3-0.3,4.9,0.2c0.6,0.2,1.1-0.3,1.1-0.9c0.4-7.5,2.7-14.8,3.1-22.3
					C143.9,77.4,143.5,71.3,142,66.2z"/>
			</g>
			<g>
				<path class="st6" d="M93.6,52.4c-3.3,7.3-9,13-16.3,16.5c-1,0.5-0.1,2,0.9,1.5c7.5-3.6,13.4-9.6,16.9-17.1
					C95.6,52.3,94.1,51.4,93.6,52.4z"/>
			</g>
			<g>
				<path class="st0" d="M89.6,74.6c0.1-0.9-1-1.1-1.5-0.5c-1.6-3.6-4.6-6.9-9-5.7c-5.3,1.5-5.9,8.7-4.7,13.1
					c1.1,4.3,7.6,10.4,11.4,8.9C92.1,88,89.1,79.4,89.6,74.6z"/>
			</g>
			<g>
				<path class="st7" d="M84.1,82.8c-0.9-1.5-1-3.2-0.3-4.7c0.5-1-1.1-1.9-1.5-0.9c-1,2.1-0.9,4.5,0.3,6.5
					C83.2,84.7,84.7,83.8,84.1,82.8z"/>
			</g>
			<g>
				<path class="st6" d="M105.3,47.6c-0.4-0.4-0.7-0.8-1-1.3c-0.2,0.6-0.4,1.3-0.6,1.9c-0.7-2.8-1.5-5.7-2.5-8.4
					c-0.7-2-1.4-4-2.2-5.9c0.6-0.1,1.2-0.2,1.8-0.3c0.7,1.9,1.5,3.8,2.1,5.7C103.8,42.1,104.6,44.8,105.3,47.6z"/>
			</g>
			<g>
				<path class="st6" d="M139.8,56.9c-1.5-6.7-4.5-12.9-10.7-16.4c-1-0.6-1.9,1-0.9,1.5c6.8,3.8,9.2,11.1,10.4,18.4
					c1.3,7.5,1.9,15.2,2.1,22.8c0,1.1,1.8,1.1,1.8,0C142.2,74.5,141.7,65.5,139.8,56.9z"/>
			</g>
			<g>
				<path class="st9" d="M162.6,283.8c0,0-9.8,0.7-22.7-1.8c-10.3-1.9-23.8-5.9-28.8-7.4c-1.3-0.4-2-0.6-2-0.6s-0.7,0.3-1.9,0.9
					c-6.2,2.8-25.6,11.7-34.8,14.5c-11.1,3.3-23.6,3.3-23.1,0c0.4-3.3-12.9-58.3-7.8-76.5c5.1-18.2,28.3-75.1,28.3-75.1
					s13.5-4.3,15.9-6.4l0,0c0.3-0.3,0.6-0.8,0.9-1.5c1.5-4.2,1.5-14.5,2.6-15.8c1.2-1.6,9.7,1.9,18.3,1.7c8.5-0.2,22-2.5,23-2.1
					c0.9,0.4,1.4,12.1,2.1,16.2c0.1,0.6,0.2,1.1,0.3,1.3c0.1,0.1,0.2,0.2,0.5,0.4c3.3,1.9,21.7,6.1,23.5,6.4
					c1.9,0.3,3.6,45,3.6,59.4C160.2,211.5,162.6,283.8,162.6,283.8z"/>
			</g>
			<g>
				<path class="st10" d="M133.1,131.4c-13.5,9.9-34,9.8-47.6,0l0,0c0.3-0.3,0.6-0.8,0.9-1.5c13.1,9.6,33,9.6,45.9-0.1
					c0.1,0.6,0.2,1.1,0.3,1.3C132.7,131.1,132.9,131.2,133.1,131.4z"/>
			</g>
			<g>
				<path class="st11" d="M78,215.8c0,0.4,0,0.8-0.1,1.1c-0.2,4.6-0.6,8.7-1.1,12c-3.4,21.4-6,25.7-5.3,38.9
					c0.2,2.7,0.4,5.8,0.9,9.5c0.2,1.6,0.4,3.1,0.5,4.7c1.7,19.9-1.2,38.3-7,52.6c-6.2,15.4-9.8,57-11.9,67.6
					c-2.1,10.7-19,9.5-27,8.3c-8-1.2-5.6-13.6-5.6-29.7c0-8,0-30.6,0.1-53.3c0-0.6,0-1.2,0-1.8c0-6.2,0.1-12.4,0.1-18.3
					c0.1-8.6,0.2-16.6,0.3-22.8c0.1-4.6,0.2-8.4,0.3-10.9c0.9-16.6,2.4-110.2,10.1-120.9c3.9-5.4,14.3-9.5,23.8-12.4
					c0.6-0.2,1.1-0.3,1.7-0.5c8.8-2.5,16.3-3.8,16.3-3.8S79.2,185.5,78,215.8z"/>
			</g>
			<g>
				<path class="st12" d="M78.1,216.5c0,0.2,0,0.4-0.1,0.5c-0.4,0.6-1.6,0.4-1.7-0.5c-1.5-14.9-4.3-29.7-8.4-44.1
					c-2-7.1-4.4-14.1-7.1-21c-1.4-3.6-3.1-7.2-4.6-10.9c0.6-0.2,1.1-0.3,1.7-0.5c1.6,4.2,3.6,8.3,5.2,12.4
					c2.6,6.9,4.9,13.9,6.9,21.1c3.9,13.9,6.5,28,8,42.3C78.1,216.1,78.1,216.3,78.1,216.5z"/>
			</g>
			<g>
				<path class="st12" d="M72.5,277.4c-0.5-3.7-0.7-6.7-0.9-9.5c-4,1.3-7.8,3.2-11.6,5.3c-3.8,2.1-7.6,4.2-11.7,5.7
					c-4.1,1.6-8.5,2.2-12.8,2.8c-4.5,0.7-9.1,1.6-13.5,2.8c-0.1,6.3-0.2,14.2-0.3,22.8c2.7-0.3,5.4-0.8,8-1.6
					c4.6-1.3,8.5-3.9,12.6-6.1c8.8-4.7,18.5-7.9,26.5-14.1c1.4-1.1,2.8-2.3,4.2-3.7C72.9,280.5,72.7,279,72.5,277.4z"/>
			</g>
			<g>
				<path class="st11" d="M209.8,398.6c-2.7,3.8-14.7,4.4-21.8,3.1c-7.1-1.4-7.8-5.8-8.5-12.5c-0.7-6.7-9.3-30.5-10.9-44.3
					c-1.6-13.8-1.8-30.7-7.8-43.6c-2.8-6-3.7-13.5-4.2-22.1c-0.2-2.8-0.3-5.8-0.4-8.9c-0.3-7.7-0.7-16-2-24.7
					c-0.8-5.3-1.5-14-2.2-24.3c-0.3-4.3-0.6-8.8-0.8-13.5v-0.1c-1.8-32.7-3-72-3-72s6.6,1.3,14.7,3.8c0.6,0.2,1.2,0.4,1.7,0.5
					c10.1,3.2,21.8,7.9,25.3,13.7c6.4,10.9,7.1,24.5,7.3,38.3c0.2,9.5,2.7,50.5,5,83.8c0.7,9.6,1.3,18.6,1.9,26
					c0.3,4.4,0.6,8.2,0.9,11.2c0.3,3.6,0.7,7.8,1.1,12.4c0.1,0.6,0.1,1.2,0.2,1.8C208.7,355.6,212,395.4,209.8,398.6z"/>
			</g>
			<g>
				<path class="st12" d="M164.7,140.2c-2.7,11.7-5.2,23.4-7,35.2c-2.4,15.2-5.2,29.8-5.3,45.3c0,0.3-0.2,0.6-0.4,0.7
					c-0.3-4.3-0.6-8.8-0.8-13.5v-0.1c0.9-10.5,2.7-20.8,4.5-31.3c1.2-7.1,2-14.3,3.6-21.4c1.2-5.2,2.4-10.4,3.6-15.6
					C163.6,139.8,164.1,140,164.7,140.2z"/>
			</g>
			<g>
				<path class="st12" d="M202.4,276c-2.8-1.2-5.7-2.2-8.3-3c-7-2.3-14.4-3.6-21.8-3.7c-5.2-0.1-10.8,1.5-16.1,1.2
					c0.1,3.1,0.3,6,0.4,8.9c4.5,3.5,9.5,6.4,14.5,9.2c10.3,5.9,21.2,11.6,33.1,13.4C203.7,294.6,203,285.6,202.4,276z"/>
			</g>
			<g>
				<path class="st5" d="M145.6,134.8c-0.1,7-1.8,37.5-3.5,37.6c-0.7,0.1-2.6,0.2-4.5,0.3c-0.6,0.1-1.2,0.1-1.8,0.1
					c-1.8,0.1-3.3,0-3.4-0.4c-0.1-0.9,0.6-8.2,1.2-17.9c0.7-9.7,0-26.6,0-26.6s1.2,0,2.9,0.2c0.6,0.1,1.2,0.2,1.8,0.3
					C141.8,129.1,145.7,130.8,145.6,134.8z"/>
			</g>
			<g>
				<path class="st6" d="M137.6,172.7c-0.6,0.1-1.2,0.1-1.8,0.1c1.6-14.8,1.4-29.8,0.8-44.7c-0.1-2.1-0.2-4.3-0.3-6.4
					c-0.1-1.1,1.7-1.1,1.8,0c0.1,2.2,0.2,4.5,0.3,6.7C139.1,143.2,139.2,158,137.6,172.7z"/>
			</g>
			<g>
				<path class="st11" d="M94.8,259.2c0,0-47.9,40.9-72.9,38.2c-25-2.7-27.1-31.5-14.3-89.2c2.6-11.8,5.6-21.3,8.7-29
					c0.2-0.6,0.5-1.2,0.7-1.8c10.6-25.4,22-29.9,22-29.9L67,208.2c0,0,2.6,0.7,6.4,3.6c3.8,2.9,8.7,7.9,13.5,16.7
					C96.5,246,94.8,259.2,94.8,259.2z"/>
			</g>
			<g>
				<path class="st12" d="M94.8,259.2c0,0-10.5-4.9-19.8-16.8c-1.3-1.6-2.5-3.3-3.7-5.2c-9.7-15.2-7.4-25.9-7.3-26.7c0,0,0,0,0,0
					s4.2,0.6,9.4,1.2c3.8,2.9,8.7,7.9,13.5,16.7c0,0,0,0,0,0C96.5,246,94.8,259.2,94.8,259.2z"/>
			</g>
			<g>
				<path class="st0" d="M99.8,209.5c0,0-21.2,28.7-24.9,32.9c-1.3-1.6-2.5-3.3-3.7-5.2c-9.7-15.2-7.4-25.9-7.3-26.7c0,0,0,0,0,0
					l19.4-12.9l14.2,4.3L99.8,209.5z"/>
			</g>
			<g>
				<g>
					<path class="st7" d="M111.8,208.6c0,0-5.5-3.5-8.8-7.5c-3.3-4-5.9-10.4-6-10.7c-0.1-0.3,0.7-3.8,1.5-5.1c0.7-1.4,2.3-5.1,3-5.5
						c0.7-0.4,3.1-0.6,3.3,2.7C104.9,185.9,111.8,208.6,111.8,208.6z"/>
				</g>
				<g>
					<path class="st0" d="M111.9,172.1c-3.7-4.8-7.2-9.8-10.5-15c-1.4-2.2-3.4-5.8-5.8-7.9c0,0,0,0,0,0c-0.8-0.7-1.7-1.3-2.7-1.6
						c-8.1-2.3,0.6,19.1,1.6,21.2c0.1,0.3,0.4,0.4,0.6,0.5c3.5,9.6,7.9,18.6,10.9,28.4c0.1,0.2,0.1,0.4,0.2,0.6
						c1.8,5.6,5.5,13.4,12.3,13.8c7.4,0.4,14.4-12.2,14.4-12.2S118.4,180.4,111.9,172.1z"/>
				</g>
				<g>
					<path class="st7" d="M100.4,159c-1.8-3-3-5.6-4.3-8.8c-0.1-0.3-0.3-0.7-0.4-1c0,0,0,0,0,0c-0.8-0.7-1.7-1.3-2.7-1.6
						c-8.1-2.3,0.6,19.1,1.6,21.2c0.1,0.3,0.4,0.4,0.6,0.5c3.5,9.6,7.9,18.6,10.9,28.4c0.1,0.2,0.1,0.4,0.2,0.6
						c0.4-6.6-1-13.6-1.6-20.1C104,171.7,103.8,164.8,100.4,159z"/>
				</g>
				<g>
					<path class="st0" d="M95.6,156.6c-0.5-0.9-1.5-1.7-2.4-2c-0.6-2.3-1.4-6.1-3.5-7.5c-0.3-0.2-0.6-0.3-0.9-0.4
						c-0.4-0.1-0.7-0.2-1.1-0.1c0,0,0-0.1,0-0.1c-0.6-1.4-1.6-2.5-3.3-2.1c-0.6,0.2-1,0.4-1.3,0.8c-0.8,1-0.9,2.5-0.8,4
						c-0.3,0-0.6,0-0.9,0.1c0,0-0.1,0-0.1,0.1c-2.5,1.1-1.6,5.8-1.6,7.7c0,5.4,0.2,10.7,0.5,16.1c0.2,5.6,0.5,31.9,0.5,31.9
						s-4.4,0.6,3.5,5.4c4.2,2.6,10.8,3.6,13.8-0.2c0.3,0.4,0.9,0.6,1.3,0.1c3.3-4.4,5.2-8.7,4.9-14.2c-0.4-7-3.8-13.5-5-20.3
						C97.9,169.7,98.7,162.1,95.6,156.6z"/>
				</g>
				<g>
					<path class="st7" d="M93.8,153.2c-4.8,1.6-1.3,20.5-1.2,22.5c0.1,1.1,1.7,0.9,1.7-0.1c-0.2-3-0.7-5.9-1.1-8.9
						c-0.2-1.3-0.4-2.5-0.5-3.8c-0.1-1-0.2-7.8,2.2-7.9C94.4,154.4,94.1,153.8,93.8,153.2z"/>
				</g>
				<g>
					<path class="st7" d="M89.7,147.1c-4.3,2-2.2,11-1.9,14.2c0.4,4.3,0.8,8.7,1.2,13c0.1,1.1-1.6,1.2-1.7,0.1
						c-0.7-7.2-1.9-14.6-1.9-21.8c0-2.5,0.6-4.8,2.3-6.2c0,0,0,0.1,0,0.1c0.3,0,0.7,0,1.1,0.1C89.1,146.7,89.4,146.9,89.7,147.1z"/>
				</g>
				<g>
					<path class="st7" d="M83.1,145.2c-0.4,2.2,0.1,5,0.3,6.8c0.2,2.4,0.3,4.9,0.5,7.3c0.3,5.1,0.7,10.3,1,15.5
						c0.1,1.1-1.6,1.2-1.7,0.1c-0.5-6.8-0.9-13.6-1.4-20.3c-0.1-1.5-0.4-3.4-0.6-5.2c0,0,0.1,0,0.1-0.1c0.3-0.1,0.6-0.1,0.9-0.1
						C82.2,147.7,82.3,146.1,83.1,145.2z"/>
				</g>
				<g>
					<path class="st7" d="M105.5,167c-1.6-2.7-3.6-6.2-5.6-8.7c-0.7-0.8-1.2,0.8-0.6,1.7c2.5,3.1,4.2,7,6.3,10.5
						c1.8,3.1,3.8,6,5.8,9c0.6,0.9,1.9-0.2,1.3-1.1C110.1,174.7,107.7,171,105.5,167z"/>
				</g>
				<g>
					<path class="st7" d="M115.8,202.7c-5.6-2.8-6.9-9-5.9-14.7c0.2-1.1-1.5-1.4-1.6-0.3c-1.1,6.5,0.5,13.4,6.9,16.6
						C116,204.7,116.7,203.2,115.8,202.7z"/>
				</g>
			</g>
			<g>
				<path class="st11" d="M214.3,291.9c-28.8,5.6-71-27.2-71-27.2s0,0,0-0.1c-0.3-1-3.7-13.4,2.6-31.6c3.3-9.5,7.3-15.3,10.5-18.7
					c1.3-1.4,2.5-2.4,3.4-3.1c1.4-1.1,2.3-1.4,2.3-1.4l13.9-65.5c0,0,13.4,3,28.7,25.2c0.4,0.5,0.7,1,1,1.5
					c4.9,7.4,10,16.8,14.9,28.7C243,254.4,238.8,287.1,214.3,291.9z"/>
			</g>
			<g>
				<path class="st12" d="M160.8,239.8c-1.5,5-3.5,9-5.5,12.3c-5.7,9.4-12.1,12.6-12.1,12.6s0,0,0-0.1c-0.2-0.9-2.8-10.4,0.6-24.8
					c0.5-2.2,1.2-4.4,2-6.8c3.2-9.2,11.5-19,12-19.5h0C158.2,214.3,164.4,228.6,160.8,239.8z"/>
			</g>
			<g>
				<path class="st0" d="M160.8,239.8c-1.5,5-3.5,9-5.5,12.3l-11.5-12.2l-27.6-29.4l16.7-10.6l24.9,13.6h0
					C158.2,214.3,164.4,228.6,160.8,239.8z"/>
			</g>
			<g>
				<path class="st10" d="M135.4,265.1c-7.3,1.1-14.1,4.7-20.8,7.8c-1.2,0.6-2.4,1.1-3.5,1.8c-1.3-0.4-2-0.6-2-0.6s-0.7,0.3-1.9,0.9
					c1.6-1.1,3.2-2,5-2.9c7.2-3.4,14.8-7.5,22.7-8.7C136,263.2,136.5,265,135.4,265.1z"/>
			</g>
			<g>
				<path class="st12" d="M45.1,323.9c-7.8,1.8-15.6,3-23.5,3.7c0-0.6,0-1.2,0-1.8c7.7-0.7,15.4-1.9,23-3.6
					C45.7,321.9,46.2,323.6,45.1,323.9z"/>
			</g>
			<g>
				<path class="st12" d="M206.3,327.4c-7.2-0.7-14.4-1.9-21.5-3.5c-1.1-0.2-0.7-2,0.5-1.7c6.9,1.6,13.9,2.8,20.9,3.4
					C206.2,326.2,206.3,326.8,206.3,327.4z"/>
			</g>
			<g>
				<path class="st12" d="M62.4,211.8c-3.8,2.5-7.6,5.1-11.3,7.6c-0.1,0.4-0.6,0.7-1,0.7c-3.2,2.1-6.3,4.2-9.5,6.3c0,0,0,0-0.1,0.1
					c-9.7,6.5-19.3,13.1-28.7,20c-0.9,0.7-1.8-0.9-0.9-1.5c9-6.6,18.1-12.9,27.3-19.1c-7.9-2.8-16.3-2.8-24.7-2.6
					c-1.1,0-1.1-1.8,0-1.8c9-0.2,18-0.3,26.5,3.1c2.9-2,5.9-3.9,8.8-5.9c-5.7-9.7-14-18-21.4-26.5c-3.8-4.3-7.5-8.6-11.2-13
					c0.2-0.6,0.5-1.2,0.7-1.8c4.3,4.9,8.6,9.9,12.9,14.9c7.1,8.2,15,16.1,20.5,25.5c3.7-2.5,7.4-4.9,11.1-7.4
					C62.5,209.6,63.4,211.1,62.4,211.8z"/>
			</g>
			<g>
				<path class="st12" d="M210.2,239.2c-8.1-2.8-15.4-8.4-23-12.3c-8.7-4.6-17.7-8.6-26.9-12.3c-1.1-0.4-0.6-2.1,0.5-1.7
					c4.6,1.8,9.2,3.8,13.7,5.8c7.8-17.7,18-34.3,30.1-49.3c0.4,0.5,0.7,1,1,1.5c-11.9,14.8-21.9,31.1-29.6,48.5
					c2.3,1.1,4.6,2.2,6.9,3.3c0.1-0.2,0.4-0.3,0.7-0.3c8,0,15.7,1.7,23,5.1c1,0.5,0.1,2-0.9,1.5c-6.3-2.9-12.9-4.5-19.8-4.8
					c3.9,2,7.7,4,11.5,6.2c4.3,2.5,8.4,5.4,13.1,7C211.8,237.9,211.3,239.6,210.2,239.2z"/>
			</g>
			<g>
				<path class="st5" d="M98.2,653.7c0,6.2-19.4,7.3-23.5,7.8c-6.8,0.9-13.3,2.6-20,4c-0.2,0.1-0.5,0.1-0.7,0.1
					c-0.3,0.1-0.6,0.1-1,0.2c-11.2,2-22.9,2-34.2,1.2c-1-0.1-2.1-0.2-2.9-0.7c-2.8-1.8-2-10.1-0.7-12.5c1.9-3.9,4-5.3,11.3-7.7
					c0.3-0.1,0.6-0.2,0.8-0.3c0.6-0.2,1.2-0.5,1.8-0.7h0c3-1.4,5.9-3.4,8.8-5.9c0.4-0.4,0.9-0.8,1.3-1.2c2-1.8,4.1-3.8,6.2-5.9
					c0.5-0.5,1-1,1.4-1.4c0.1-0.1,0.2-0.2,0.3-0.3c2-2,3.7-4.3,5.3-6.5c0.4-0.5,0.7-1,1.1-1.5c3.9-5.3,7.3-10,12.5-9.3
					c5.6,0.7,7.2,5.1,7.6,7.5c0.2,0.9,0.1,1.6,0.1,1.6s0.2,0,0.5-0.1c3.1-0.3,19.4-1.7,21.5,0.1C98.2,623.9,98.2,653.7,98.2,653.7z"/>
			</g>
			<g>
				<path class="st8" d="M58,638.2c-1.5-2.3-5.6-3.7-8-4.7c-1.5-0.6-3-1.2-4.5-1.6c0.5-0.5,1-1,1.4-1.4c1.5,0.4,3,1,4.4,1.7
					c2.8,1.3,6.4,2.5,8.2,5.2C60.2,638.3,58.6,639.2,58,638.2z"/>
			</g>
			<g>
				<path class="st8" d="M65,630c-1.5-2.3-5.6-3.7-8-4.7c-1.5-0.6-2.9-1.1-4.4-1.5c0.4-0.5,0.7-1,1.1-1.5c1.6,0.4,3.1,1,4.7,1.7
					c2.8,1.3,6.4,2.5,8.2,5.2C67.1,630,65.6,630.9,65,630z"/>
			</g>
			<g>
				<path class="st6" d="M74.4,621.9c-2,2.6-3.9,5.4-5.9,7.6c-3.7,4.1-7.7,8.3-12.1,11.6c-3.4,2.5-6.9,3.5-10.9,1.9
					c-2.6-1-5.1-2.4-7.6-3.9c0.4-0.4,0.9-0.8,1.3-1.2c2.4,1.5,4.9,2.8,7.4,3.6c6.1,2,11.4-3.9,15.3-7.8c3.5-3.4,6.8-7,9.8-10.7
					c0.7-0.9,1.4-1.7,2-2.6c0.2,0.9,0.1,1.6,0.1,1.6S74,621.9,74.4,621.9z"/>
			</g>
			<g>
				<path class="st6" d="M55.7,670.6c0.1,1.1-1.7,1.1-1.8,0c-0.1-1.6-0.4-3.3-0.9-4.9c-1.3-4.6-4-8.8-9.2-9.2
					c-3-0.3-6.4,0.8-9.2-0.8c-2.7-1.5-3.6-4.6-5-7c-0.7-1.1-1.5-2.1-2.4-3c0.6-0.2,1.2-0.5,1.8-0.7h0c1.1,1.2,1.9,2.5,2.7,4
					c0.5,0.9,0.9,2,1.5,2.8c2.1,3,4.2,3,7.4,3c4.4,0.1,7.5-0.9,10.3,2.9c1.8,2.3,3,4.9,3.7,7.7C55.2,667.1,55.5,668.8,55.7,670.6z"/>
			</g>
			<g>
				<path class="st5" d="M249.8,680.6c-0.3,4-2.7,7.3-6.6,8.4c-3.5,0.9-7.2,0.3-10.7,0.1c-9-0.4-20.6-5.5-25.6-9.5
					c-3-2.4-4.5-5.6-6.1-8.4c-0.3-0.5-0.6-1-0.9-1.5c-0.8-1.3-1.7-2.4-2.9-3.3c-4.1-2.8-9.9-6.7-11.5-8.5
					c-1.6-1.8-2.4-10.1-2.8-16.6c-0.4-6.5,0.9-12.7,0.9-12.7s6.8,1.1,8.4-1.7c0.3-0.5,0.5-1.1,0.6-1.7c0.2-0.7,0.2-1.5,0.4-2.3
					c0.3-2.2,0.9-4.6,4-6.4c5.1-3,17.7-3.8,19.4-0.9c1.3,2.4,2,5.4,2.7,8.1c0.5,1.5,0.9,3.1,1.3,4.7c0.1,0.4,0.2,0.8,0.4,1.3
					c0.2,0.6,0.4,1.2,0.5,1.9c0.3,1.2,0.7,2.4,1,3.6c0.1,0.3,0.5,1.3,1.1,2.7c0.2,0.6,0.5,1.2,0.8,1.9c0.2,0.5,0.5,1,0.7,1.5
					c2.5,5.4,6.5,12.9,9.8,16.9c2.4,3,5.7,6.2,8.6,9c0.4,0.4,0.8,0.8,1.2,1.2c0.1,0.1,0.1,0.1,0.1,0.1
					C247.7,671.8,250.1,675.9,249.8,680.6z"/>
			</g>
			<g>
				<path class="st8" d="M221.2,631.6c-6.9-1.4-13.9,0.4-19.4,5.1c-0.9,0.7-2.1-0.5-1.3-1.2c5.7-4.9,12.9-6.9,20.1-5.7
					C220.8,630.3,221,630.9,221.2,631.6z"/>
			</g>
			<g>
				<path class="st8" d="M224.1,639.7c-6.2-0.6-12.3,1.2-17.2,5.4c-0.9,0.7-2.1-0.5-1.2-1.2c5-4.3,11.2-6.4,17.6-6
					C223.5,638.4,223.8,639,224.1,639.7z"/>
			</g>
			<g>
				<path class="st6" d="M244.6,668.5c-3,1.2-5.9,2.6-8.9,3.9c-3.1,1.4-6.3,2.2-9.7,1.9c-3.7-0.3-6.6-2.1-9.9-3.8
					c-5.4-2.8-10.5-2.3-15.4,0.7c-0.7,0.4-1.3,0.9-2,1.4c-0.9,0.7-2.2-0.6-1.3-1.2c0.8-0.6,1.6-1.2,2.4-1.7c5.9-3.7,11.9-3.5,18.5,0
					c6.6,3.6,11.8,3.2,18.6,0.2c2.1-0.9,4.2-1.9,6.4-2.8c0.4,0.4,0.8,0.8,1.2,1.2C244.5,668.4,244.5,668.5,244.6,668.5z"/>
			</g>
			<g>
				<path class="st8" d="M14.6,664.3c0,0,1.2,7.9,1.8,8.7c0.6,0.8,16.9,3,26.7,1.9c9.8-1.1,16.2-1.3,17.8-2.9
					c1.6-1.6,2.6-5.2,4.1-6.7c1.6-1.5,9.3-2.1,10.2-2c0.9,0.1,0.4,6.6,1.1,7.1c0.7,0.6,9.5-0.4,14.6-1.2c5.1-0.8,7.9-2.5,7.9-4.2
					c0-1.7-0.6-12.6-0.6-12.6s-19.1,5.2-35.3,8.7c-16.2,3.4-16.9,5-37.9,5C19.8,666.3,14.6,664.3,14.6,664.3z"/>
			</g>
			<g>
				<path class="st8" d="M184.1,654.4c0,0,1.3,11.7,2,13.1c0.7,1.3,5.2,4.6,7.3,5.3c2.2,0.7,4.5,0,4.5,0s2,1.7,2.4,4
					c0.4,2.3,0.9,4.7,2.5,7.3c1.6,2.6,7.2,6.9,13.3,9.4c6.1,2.5,14,3.4,18.9,3.1c5-0.3,6.5-0.3,9.6-1.9c3.1-1.6,4.9-3.9,5.1-5.3
					c0.2-1.3,0-8.9,0-8.9s-1.4,4.7-9.7,6c-14.6,2.2-25.6-2.6-30.9-7c-5.3-4.4-4.7-10-10.6-14.2c-5.9-4.2-6.7-3.4-9.2-5.5
					C186.9,657.8,184.1,654.4,184.1,654.4z"/>
			</g>
			<g>
				<path class="st6" d="M226.2,648.6c0.2,5.9-6.4,6-11,5.9c-6.5-0.2-9.4-8.5-12.2-13.4c-3.2-5.4-6.6-10.8-10.4-15.8
					c0.2-0.7,0.2-1.5,0.4-2.3c6.2,8.1,10.8,17.1,16.6,25.6c2.6,3.8,7.7,5.6,12.2,3.6c4.8-2.1,1.9-8.2,1-11.9
					c-1-3.9-1.8-7.8-2.3-11.7c0.6,2.2,1.3,4.5,1.9,6.8c0.2,0.6,1.2,2.9,2.6,6C225.5,643.6,226.1,646.1,226.2,648.6z"/>
			</g>
		</g>
	</g>
</switch>

</svg>
