<?xml version="1.0" encoding="utf-8"?>
<!-- Generator: Adobe Illustrator 27.1.1, SVG Export Plug-In . SVG Version: 6.00 Build 0)  -->










<svg version="1.1" id="Layer_1" xmlns="http://www.w3.org/2000/svg" xmlns:xlink="http://www.w3.org/1999/xlink" x="0px" y="0px" viewBox="0 0 500 388.3" style="enable-background:new 0 0 500 388.3;" xml:space="preserve">
<style type="text/css">
	.st0{fill:#F06E3E;}
	.st1{fill:#BE552B;}
	.st2{fill:#412625;}
	.st3{fill:#F4EBE4;}
	.st4{fill:#F9A882;}
	.st5{fill:#E38B69;}
	.st6{fill:#B45730;}
	.st7{fill:#FFFFFF;}
	.st8{fill:#674242;}
	.st9{fill:#CB9172;}
	.st10{fill:#E8A14E;}
</style>
<switch>
	
	<g>
		<path class="st0" d="M500,97.4v254.9c0,19.4-15.3,35.2-34.6,35.9c-0.4,0-0.9,0-1.3,0H35.9C16.1,388.3,0,372.2,0,352.4V97.4
			c0-19.8,16.1-35.9,35.9-35.9h428.2c9,0,17.1,3.3,23.4,8.7c1.2,1,2.3,2.1,3.4,3.3C496.6,79.9,500,88.3,500,97.4z"/>
		<polygon class="st1" points="53.7,290.8 45.3,187.1 45,183.4 41.3,183.4 13.5,183.4 9.9,183.4 0,183.4 0,187.1 10.2,187.1 
			18.6,290.8 18.9,294.5 22.5,294.5 22.2,290.8 13.8,187.1 41.6,187.1 50,290.8 50.3,294.5 54,294.5 		"/>
		<polygon class="st1" points="455.1,290.7 446.7,187 446.4,183.3 442.7,183.3 414.9,183.3 411.3,183.3 385.8,183.3 385.8,187 
			411.6,187 420,290.7 420.3,294.3 423.9,294.3 423.6,290.7 415.2,187 443,187 451.4,290.7 451.7,294.3 455.3,294.3 		"/>
		<polygon class="st1" points="500,171.3 500,175 383.4,175 126.7,175 0,175 0,171.3 		"/>
		<polygon class="st1" points="500,292.3 500,295.9 383.4,295.9 126.7,295.9 0,295.9 0,292.3 		"/>
		<g>
			<polygon class="st1" points="40.3,61.5 31.4,171.3 31.1,175 27.5,175 27.8,171.3 36.6,61.5 			"/>
			<polygon class="st1" points="71.7,61.5 62.8,171.3 62.5,175 58.9,175 59.2,171.3 68.1,61.5 			"/>
			<polygon class="st1" points="104,61.5 95.1,171.3 94.9,175 91.2,175 91.5,171.3 100.4,61.5 			"/>
			<polygon class="st1" points="135.9,61.5 127,171.3 126.7,175 123.1,175 123.4,171.3 132.3,61.5 			"/>
		</g>
		<g>
			<polygon class="st1" points="396.3,61.5 387.4,171.3 387.1,175 383.4,175 383.7,171.3 392.6,61.5 			"/>
			<polygon class="st1" points="427.7,61.5 418.8,171.3 418.5,175 414.9,175 415.2,171.3 424,61.5 			"/>
			<polygon class="st1" points="460,61.5 451.1,171.3 450.8,175 447.2,175 447.5,171.3 456.4,61.5 			"/>
			<path class="st1" d="M490.9,73.6l-7.9,97.8l-0.3,3.6H479l0.3-3.6l8.2-101.1C488.7,71.3,489.9,72.4,490.9,73.6z"/>
		</g>
		<path class="st1" d="M198.9,161.1l-41.7-81.2l-1.7-3.2c-1.1,0.6-2.2,1.1-3.2,1.7c-5.7,3-11.5,5.9-17.2,8.9
			c-1.1,0.6-2.2,1.1-3.2,1.7l1.7,3.2l40.7,79.3l1.7,3.2c1.1-0.4,2.3-0.9,3.4-1.3c6-2.4,12-4.8,17.9-7.5c1.1-0.5,2.2-1,3.3-1.5
			L198.9,161.1z M177.7,170.1l-40.9-79.6c5.7-3,11.5-5.9,17.2-8.9l41.6,81.1C189.7,165.2,183.7,167.7,177.7,170.1z"/>
		<path class="st1" d="M315.1,171.9l73.5-54.1l2.9-2.2c-0.7-1-1.4-2-2.2-2.9c-3.8-5.2-7.7-10.4-11.5-15.6c-0.7-1-1.4-2-2.2-2.9
			l-2.9,2.2l-71.8,52.8l-2.9,2.2c0.6,1.1,1.2,2.1,1.8,3.2c3.3,5.6,6.7,11.1,10.2,16.5c0.7,1,1.3,2,2,3L315.1,171.9z M302.9,152.3
			L375,99.3c3.8,5.2,7.7,10.4,11.5,15.6l-73.4,54C309.6,163.4,306.2,157.9,302.9,152.3z"/>
		<path class="st2" d="M281.1,113.3c0.2-8,0.2-16-0.7-23.9c-0.9-7.7-2.2-16-5.8-23.1c-6.7-13.3-22.9-18-37.3-16.8
			c-4.8,0.4-9.5,1.3-14.1,2.5c-4.6,1.2-9.3,2.8-14.2,2.1c1.1-6.2,3.7-12.3,6.7-17.9c3.1-5.8,7.2-10.7,12.8-14.4
			c11.5-7.6,26.3-9.1,39.8-7.2c6.5,0.9,13,2.8,18.3,6.6c4.8,3.4,8.4,8.1,10.9,13.2c5.8,11.9,5,25.5,1.4,37.9
			C294.8,86.6,287.1,99.6,281.1,113.3z"/>
		<path class="st3" d="M189.9,201.5c-1.5,5.7-4.1,11.1-6.7,16.4c-2.4,5-4.9,9.9-7.5,14.8c-10.5,19.7-22.4,38.5-32.6,58.4
			c-5.7,11-10.8,22.4-14.7,34.1c-0.1,0.2,0.1,0.3,0.2,0.4c6.1,2.1,12.3,4.2,18.4,6.4c3.1,1.1,6.1,2.1,9.2,3.2
			c1.6,0.6,3.3,1.1,4.9,1.7c1.5,0.5,3.3,0.9,4.3,2.3c1.8,2.4,0.1,6-0.7,8.5c-1,2.9-2.1,5.7-3.2,8.6c-2.4,5.9-5.1,11.7-8.1,17.3
			c0,0,0,0,0,0c-1.4-0.1-2.7-0.1-4.1-0.2l-17.9-0.7c-11.3-0.4-22.8-0.6-34-2.5c-5-0.9-10.2-2-14.9-3.9c-4.3-1.7-8.6-4.3-11-8.5
			c-2.8-4.9-2-10.9-0.8-16.2c1.2-5.4,3-10.7,5-15.9c8-21.2,16.9-42.1,26.6-62.6c4.8-10.2,9.9-20.4,15.1-30.4
			c4.7-9.1,9.5-18.2,15.1-26.7c5.6-8.5,12.2-16.4,20.4-22.4c8.5-6.2,18.2-10.4,28-14c0.4-0.1,0.7-0.3,1.1-0.4
			C187.7,179,193,189.7,189.9,201.5z"/>
		<path class="st2" d="M222.7,58.1c-0.2-4.8-2.4-13.1-8.9-12.4c-3.9,0.4-7.9,3.3-11,5.5c-3.5,2.5-7.1,6.9-11.8,5.7
			c-0.2,0-0.3,0.1-0.4,0.2c-0.3,0.6-0.1,1.1,0.3,1.5c-0.8,5.3,3.6,9.8,8.9,10.4c0.9,0.1,1.7,0,2.5,0c1.2-0.1,1.9,0.1,2.8,1
			c1.1,1.2,2.1,2.4,3.5,3.4c2.4,1.7,5.6,2.5,8.3,1.2C222.7,71.9,223,63.4,222.7,58.1z"/>
		<path class="st3" d="M388.9,221.2c-4.7,18.6-20.1,35.9-27.4,53.8c-3.2,7.9-21.1,84.5-23,113H224.7c-6.6-1.8-13.2-3.9-19.6-6.2
			c-0.1,0.4-0.3,0.7-0.4,1.1c0.3,0,0.6,0,0.9,0c0.5,0,0.5,0.6,0,0.7c-0.4,0-0.8,0-1.1,0.1c-0.3,0.9-0.7,1.8-1,2.7
			c-0.2,0.4-0.8,0.2-0.7-0.2c0.3-0.8,0.7-1.7,1-2.5c-2.7,0.1-6-9.5-8.7-9.4c-26.2,1.3-52.6,2.1-78.6-1.9c-5.1-0.8-10.2-1.8-12.9-6.4
			c-2.7-4.6-2.9-10.4-2.4-15.5c0.5-5.8,1.8-11.5,3-17.2c1.2-6,2.5-12.1,3.9-18.1c5.4-24,11.6-47.7,18.8-71.3
			c3.3-10.8,6.5-21.6,10.6-32.1c3.5-8.8,7.9-17.5,14.6-24.7c5.4-5.7,12-9.7,19.1-13c6.9-4.1,14.8-7.2,22.3-9.7
			c4.7-1.6,9.5-3.1,14.3-4.5c3.1-1.1,17.1-5.2,20.7-6.3l35.4-10.8c16.3,1.5,32.4,4.3,48.2,8.2c0.1-0.1,0.3-0.1,0.7,0
			c8.5,1.9,28.4,6,39.2,9.6c9.3,3.1,21.9,7.6,29.5,13.8C395.9,186.1,392.8,205.8,388.9,221.2z"/>
		<path class="st3" d="M448.8,356.5c-2.8,7.5-8.1,14.3-15.7,17.4c-4.3,1.8-9,2.4-13.6,3c-5.4,0.7-15.7,2-21.2,1.8
			c-16.5-0.8-16.1-3.5-31.9-4.6c-1.4-0.1-2.9-0.1-4.3-0.2c-0.2,0-0.4,0-0.7,0c-10.1,0-19.4,1.9-22.4,2.3c-5.5-9.3-17.7-42.8-18.3-44
			c5.5-4.1,13.2-7.7,21.4-11.2c0.3-0.1,0.5-0.2,0.8-0.3c11.3-4.7,23.5-9,32.4-13.6c-5-8-30-53.8-37.5-66.9
			c5.2-7.8,13.2-24.2,17.6-32.6c4.1-8,8.4-16,12.7-23.9c1.7-3.2,3.3-6.5,4.9-9.8c0.3,0.2,0.6,0.4,0.9,0.6c13.6,10.1-1-6.5,2.6-3.9
			c28.6,20.3,46.6,80.6,55.8,99.3c8.8,17.9,16.1,36.9,18.4,56.8C452.1,336.7,452.3,347.1,448.8,356.5z"/>
		<path class="st2" d="M307.7,42.3c-0.2-4.7-2.4-6.9-4.6-10.5c-0.1-0.1-0.1-0.2-0.1-0.3c-2.4-2.5-4.5-5.1-4.8-8.6
			c-0.9-11-5.7-14.2-8.8-15.4c-1.5-0.6-3.2-1.1-4.8-1.2c-2.4-0.3-4.8,0.3-7.2,0.1c-2.5-0.1-4.2-1.6-6.2-2.9c-1.8-1.2-3.9-2.1-6-2.7
			c-8.2-2.3-16.9,0.3-22.4,6.5c-0.1-0.3-0.6-0.2-0.6,0.1c0,0.2,0,0.5-0.1,0.7c-0.2,0.2-0.4,0.4-0.5,0.6c-0.2,0.3,0.2,0.6,0.5,0.4
			c0,2.5,0.5,4.9,1.6,7.2c0.1,0.3,0.3,0.5,0.4,0.8c-0.1,0.1-0.2,0.2-0.3,0.3c-1.8,2.1-0.9,5.2,0.6,7.1c2.1,2.6,5.4,3.8,8.5,4.8
			c3.5,1.2,7,2.6,10.2,4.6c13.1,7.7,22.8,19.6,25.7,34.2c1.3,6.6,1.6,13.3,1.5,20c-2.7,3.9-5.8,8.7-6.8,13.4
			c-0.9,4.4-1.8,8.9-2.2,13.4c-0.1,0.4-0.2,0.8-0.3,1.1c-0.1,0.3,0.3,0.5,0.5,0.3c4.2-3.5,6-8.6,12.6-26c2-5.4,4.5-13.3,5.3-19
			c0.6-4.3,0.8-8.9,1.8-13.2c0.3-0.4,0.6-0.8,1-1.2C305.2,53.2,307.9,47.2,307.7,42.3z"/>
		<path class="st4" d="M286.8,134.6c-0.1-11.7-0.4-23.4-0.7-35.1c-0.1-4.1-0.3-8.1-0.4-12.2c0-0.4-0.5-0.5-0.6-0.1
			c-0.5,2.1-2.2,3.3-3.9,4.3c-1.8,1.1-3.6,2.1-5.4,3.2c-3.7,2.1-7.4,4.2-11.2,6.2c-6.3,3.3-12.8,6.5-19.4,9.4c0-0.3-0.1-0.6-0.1-1
			c-0.1-0.4-0.7-0.4-0.6,0c0.1,0.4,0.1,0.8,0.2,1.2c-1,0.4-2,0.9-3,1.3c-0.4,0.2-0.1,0.7,0.3,0.6c0.9-0.4,1.8-0.8,2.8-1.2
			c0.8,6.5,1.6,13.1,2.2,19.7c0.5,4.6,0.9,9.1,1.2,13.7c0.2,2.6,0.4,5.1,0.6,7.7c-0.6,0.5-0.7,1.6,0.1,2.2c0,0,0.1,0,0.1,0
			c0,0,0,0.1,0,0.1c0,0.4,0.5,0.4,0.6,0.2c1.3,0.3,13.4,0.3,14.5,0.2l9.5-2.8c4.3-0.5,8.9-1.5,13.1-0.4c0.2,0.1,0.4-0.1,0.4-0.3
			C286.9,145.9,286.9,140.3,286.8,134.6z"/>
		<path class="st5" d="M250.8,142.7c3.2-0.4,6.4-1.7,9.4-2.5c4.4-1.2,8.7-2.6,13.1-3.9c4.5-1.3,9-2.3,13.5-3.5
			c-0.1-11.1-0.4-22.2-0.7-33.3c-9.2,6.5-17.3,14.6-25.9,22c-4.1,3.5-8.4,7.2-13.4,9.5c0.4,3.8,0.7,7.7,1.1,11.5
			C248.9,142.4,249.9,142.4,250.8,142.7z"/>
		<path class="st2" d="M343.9,366.7c0-1-0.1-2-0.2-3c-0.3-2.2-0.7-4.5-1.3-6.6c-0.2-0.9-0.5-1.9-0.8-2.8c-1.3-4-3-7.8-5.1-11.4
			c-1-1.7-2.1-3.5-3.4-5.2c-0.5-0.7-1.1-1.5-1.7-2.1c-0.8-0.9-1.6-1.7-2.5-2.4c-2.9-2.2-7.3-2.8-9.6,0.5c-1.2,1.6-1.5,3.3-1.5,5.2
			c0,0.4-0.1,0.8-0.1,1.3c0,0.6-0.1,1.2,0,1.8c0.1,6.1,2.2,12.1,4.7,17.7c0.3,0.7,0.6,1.4,0.9,2.1c0.8,1.7,1.5,3.4,2.4,5
			c1.2,2.2,2.6,4.2,4.7,5.8c1.6,1.2,2.7,2.5,4.5,3.3c1.5,0.7,3.8,0.9,5.3,0.2C343.3,374.5,344,370,343.9,366.7z"/>
		<path class="st4" d="M342.4,357.1c-0.2-0.9-0.5-1.9-0.8-2.8c-1.3-4-3-7.8-5.1-11.4c-1-1.7-2.1-3.5-3.4-5.2
			c-5.2,1.5-10.9,3-15.6,4.2c-4.3,1.1-7.7,1.9-8.8,2c-4.4,0.6-26.1,10.5-39.4,18.3c-0.9,0.5,3.3,1.5,2.2,2.3c1.9,3.6,3.9,7,5.8,10.5
			c1.1,2,2.2,4.1,3.5,6c7.1-0.4,14.1-1,21.1-1.9c7.1-1,14.9-2.1,20.2-7.3c1.1-1,2-2.2,2.7-3.5c0.3-0.5,0.5-1.1,0.7-1.6
			c0-0.1,0.1-0.2,0.1-0.2c0.4-0.7,0.4-0.6,1.3-0.8c0.6-0.1,1.3-0.1,1.9-0.2c1.5-0.2,3.1-0.3,4.6-0.5c3-0.3,5.9-0.7,8.9-1
			c0.5-0.1,0.9-0.1,1.4-0.2C343.5,361.5,343,359.3,342.4,357.1z"/>
		<path class="st4" d="M286.5,55.7c-2.5-9.5-4.3-18.6-13.7-22.7c-5.4-2.3-7.8-4.4-13.6-5.3c-6.1-1-12.3-1.4-18.4-0.7
			c-9.8,1.1-19.3,5.3-25.8,12.8c-3.4,3.9-5.5,8.6-6.3,13.6c-0.1,0-0.2,0.1-0.2,0.3c0,0.2,0,0.3,0.1,0.5c-0.5,4.2,3.5,29.4,4.7,37.8
			c0.9,6,3,11.4,5.3,17.1c1.9,4.7,4.6,9.1,7.8,13c3.3,4.1,7.6,9.8,12.1,12.6c5.4,3.4,9,3.7,12.5,3.8c5.8,0.1,10-0.2,17.5-6.4
			c9.2-7.5,17-25.6,18-31.5C288.4,89.1,289.6,67.2,286.5,55.7z"/>
		<path class="st2" d="M233.2,83.1c0.6,3.7-0.7,7-2.9,7.3c-2.2,0.3-4.4-2.4-5-6.1c-0.6-3.7,0.7-7,2.9-7.3S232.6,79.4,233.2,83.1z"/>
		<path class="st2" d="M261.3,81.7c0.6,3.7-0.7,7-2.9,7.3c-2.2,0.3-4.4-2.4-5-6.1c-0.6-3.7,0.7-7,2.9-7.3
			C258.5,75.3,260.7,78,261.3,81.7z"/>
		<path class="st6" d="M252,97.1c-1.2-1.3-2.9-2.1-4.6-2.1c-0.4,0-0.4,0.7,0,0.7c1.6,0,3.1,0.7,4.2,1.9
			C251.9,97.8,252.3,97.4,252,97.1z"/>
		<path class="st2" d="M233.3,73.1c-1.8,0.3-4.3,0.2-6.2,0.2c-1.8,0-3.7,0.5-5.4,0.6c-2.2,0.2-3.5-0.3-4.1-2.5
			c-0.3-1.1-0.1-2.2,0.3-3.2c0.5-1.1,4.2-5.6,13.4-4c1.9,0.3,3.8,1,4.7,2.9C237.8,70.3,235.9,72.8,233.3,73.1z"/>
		<path class="st2" d="M261.5,70.8c-1.8,0.3-4.3,0.2-6.2,0.2c-1.8,0-3.6,0.5-5.4,0.6c-2.2,0.2-3.5-0.3-4.1-2.5
			c-0.3-1.1-0.1-2.2,0.3-3.2c0.5-1.1,4.2-5.6,13.4-4c1.9,0.3,3.8,1,4.7,2.9C266,68,264.1,70.5,261.5,70.8z"/>
		<path class="st7" d="M251.2,114.7c-5.9-0.2-10.4,0.4-13.1,0.9c7.1,0,14.2,0.1,21.2,0.3C258.4,115.4,256.1,114.9,251.2,114.7z"/>
		<path class="st2" d="M292.5,66.2c-0.8,1.4-1.8,2-3.6,1.5c-0.9-0.2-1.6-0.6-2.6-0.7c-2.6-0.2-5.2,1.3-7-1.1c-1.3-1.7-1.8-4-2.4-6
			c-0.6-2.1-1.2-8.1-1.7-10.2c-1.7-6.5-5.1-7.5-8.8-6.2c0.1-0.2-2.7-7.1-2.7-7.4c0-1.3-0.9-2.1-2-2.8c-0.9-0.6-2-1.2-2.4-2.3
			c-0.5-1.4,0.4-2.9,1.7-3.7c1.9-1.2,4.6-1.2,6.9-1c9.6,1,16.2,8.3,20.4,15.6C292.4,48.9,296.6,58.4,292.5,66.2z"/>
		<path class="st4" d="M293.1,70.1c-1.8-3.1-5.5-5.2-9.1-4c-3.3,1.2-5.2,4.7-5.8,8c0,0.3,0.2,0.4,0.4,0.4c0,1.8,0.5,3.6,1,5.4
			c0.9,3.3,1.7,6.6,2.6,9.9c0.1,0.2,0.3,0.3,0.5,0.2c3.8-1.8,8.2-4.5,10.5-8.2C295.4,78.5,295,73.5,293.1,70.1z"/>
		<path class="st6" d="M288.5,70.1c-2.8-0.3-4.6,1.8-6.1,3.9c-0.2,0.2,0.1,0.5,0.4,0.5c3.5-0.9,6.2,4.9,2.7,6.6
			c-0.4,0.2,0,0.8,0.3,0.6c3.8-1.9,1.4-8-2.4-7.9c1.3-1.7,2.8-3.3,5.1-3C288.9,70.8,288.9,70.2,288.5,70.1z"/>
		<path class="st8" d="M277.2,31c-0.5-1.8-2-3-2.9-4.5c-1.5-2.6,0.4-4.3,1.1-6.7c1.3-4.2-2.8-6.8-6.1-8c-4.9-1.7-10.2-2.4-15.4-2
			c-0.4,0-0.4,0.7,0,0.7c4.5-0.3,8.9,0.1,13.2,1.4c2.1,0.6,4.5,1.3,6.1,2.9c2.1,2,2,4.2,0.8,6.6c-0.6,1.2-1.2,2.4-1,3.7
			c0.2,1.2,0.9,2.2,1.6,3.1c1.4,1.9,2.8,3.8,1.5,6.2c-1.2,2.1-3.5,3.1-5.6,3.9c-0.4,0.2-0.2,0.8,0.2,0.6
			C273.8,37.5,278.4,35.2,277.2,31z"/>
		<path class="st8" d="M205.6,59.3c-1.5,1-2.9,1.8-4.7,2c-1.6,0.2-4.2,0.5-5.6-0.6c-0.3-0.3-0.8,0.2-0.5,0.5c1.4,1.1,3.5,1,5.2,0.8
			c2.2-0.1,4-1,5.8-2.2C206.3,59.6,206,59.1,205.6,59.3z"/>
		<path class="st8" d="M296.2,52.7c-0.1-0.4-0.8-0.2-0.6,0.2c0.9,2.4,1.7,4.8,1.2,7.4c-0.5,2.3-1.9,4.2-3.9,5.5
			c-0.4,0.2,0,0.8,0.3,0.6c2-1.3,3.4-3.2,4.1-5.4C298,58.1,297.2,55.3,296.2,52.7z"/>
		<path class="st3" d="M293.3,147.2c-0.7-2.2-2.1-4.1-3.3-6.1c-0.9-1.5-1.3-3.2-2.2-4.7c-0.4-0.7-0.8-1.1-1.6-1
			c-1.6,0.2-3.3,1.3-4.9,1.8c-1.8,0.6-3.6,1.2-5.5,1.7c-1.8,0.5-3.7,0.9-5.4,1.7c0,0-0.1,0-0.1,0c-0.5,0.1-1,0.3-1.5,0.5
			c-0.8,0.4-1.4,1-1.8,1.8c-0.5,1-0.8,2.2-1.1,3.3c-0.8,2.9-1.6,5.7-2.4,8.6c-0.5-1.6-1-3.3-1.5-4.9c-0.7-2.2-1.4-4.4-2.2-6.5
			c-0.4-1.3-0.6-2.4-2.1-2.6c-2.3-0.3-4.7-0.1-7-0.2c-1.2,0-2.4-0.1-3.5-0.1c-0.7,0-1.8-0.3-2.4,0c-0.6,0.3-0.8,1.1-0.9,2
			c0,0-0.1,0.1-0.1,0.1l-2.9,12.9c0,0.1,0,0.2,0.1,0.3c2.4,2,4.8,4.1,7.2,6.1c1.8,1.5,3.7,3.6,6.1,4.2c0.8,0.2,1.3,0.2,1.8,0
			c0.7-0.1,1.4-0.5,2.1-1.2c2.1-2.3,3.8-5.8,5.4-8.5c1.7,2.3,3.5,7.3,6.6,9.4c1.1,0.7,3.1,0.6,3.2,0.5l11.2-8.4
			c2.9-2.2,6.1-4.3,8.7-6.8C294.6,150.1,294.1,148.5,293.3,147.2z"/>
		<path class="st2" d="M270.2,156.2c-1.2,1-3.4,3.6-4.9,4.2c-0.8,0.4-1.8,1-2.7,1.1c-1.5,0.2-2.4-0.6-3.3-1.6
			c-1.2-1.2-2.3-2.5-3.3-3.9c-1.3-1.8-1.6-3.3-1-5.5c0.3-1,0.6-2.1,0.8-3.1c0.1-0.6,0.7-1.1,1.3-1.2c2.9-0.2,10-0.4,13-0.2
			c0.7,0,1.3,0.6,1.4,1.3c0.2,2,0.3,2.7,0.3,4.7C271.8,154,271.8,154.8,270.2,156.2z"/>
		<path class="st3" d="M259.9,143.7c-0.1-0.1-0.2-0.2-0.2-0.2c-0.1-0.9-0.3-1.7-0.9-2.4c-0.3-0.3-0.8,0-0.6,0.3
			c0.4,0.5,0.6,1,0.7,1.6c-1-0.4-2.2-0.3-3.1,0.4c-1.7,1.1-2.5,3.4-3.1,5.2c-0.8,2.6-0.9,5.3-0.8,8c0.1,2.2,0,4.8,1.3,6.8
			c0.5,0.7,1.5,2,2.2,0.9c0.7-0.9,0.9-2.5,1.2-3.6c0.4-1.5,0.7-3,1.1-4.5c0.6-2.8,1.2-5.7,1.6-8.6c0.2-1.1,0.4-2.3,0.5-3.4
			C259.9,144.3,260.1,144,259.9,143.7z"/>
		<path class="st3" d="M274,146.1c-0.6-1.9-1.4-4.1-3.1-5.2c-0.2-0.1-0.4-0.2-0.5-0.3c-0.5,0.1-1,0.3-1.5,0.5
			c-0.8,0.4-1.4,1-1.8,1.8c0.1,0.8,0.3,1.6,0.4,2.3c0.5,2.9,1,5.7,1.6,8.6c0.3,1.5,0.7,3,1.1,4.5c0.3,1.1,0.5,2.7,1.2,3.6
			c0.7,1,1.7-0.2,2.2-0.9c1.3-1.9,1.2-4.6,1.3-6.8C274.9,151.5,274.8,148.7,274,146.1z"/>
		<path class="st2" d="M269.4,282.1c-0.9-27.7-1.6-110.3-3.5-125.9c0-0.3-0.4-0.5-0.6-0.2c-0.6,1-3.9,1.9-4.5,2.9
			c-0.1-0.3-0.5-0.4-0.6,0c-7.5,36.5-9.1,59.3-11.8,87.2c-2.5,26.2-3.1,49-0.8,75.4c1.3,14.3,4.1,28.6,9.2,42c0.1,0.3,0.5,0.3,0.6,0
			c2.3-6.4,4.7-12.8,7-19.2c2.3-6.3,4.6-12.6,6.2-19C273.9,312.4,269.8,295.4,269.4,282.1z"/>
		<path class="st9" d="M257,159.4c-0.4,0.3-0.6,0.5-1,0.9c-1,1.2-1.8,1.6-3.4,1c-1.7-0.6-3.3-1.9-4.6-3.1c-2.6-2.2-4.7-4.9-6.8-7.6
			c-0.3-0.3-0.7,0.1-0.5,0.5c2.5,3.2,5.1,6.5,8.5,8.9c1.3,1,2.9,2.1,4.7,2.2c2,0.1,2-1.4,3.4-2.3C257.7,159.7,257.4,159.2,257,159.4
			z"/>
		<path class="st9" d="M289.2,148.8c-2.4,3.1-4.9,6.2-7.8,8.8c-1.5,1.4-3.3,3-5.4,3.4c-2.6,0.6-4.4-1.1-5.5-3.3
			c-0.2-0.4-0.8,0-0.6,0.3c5.3,10.4,16.1-4.2,19.7-8.8C289.9,148.9,289.5,148.4,289.2,148.8z"/>
		<path class="st9" d="M359.3,280.3c-5.5-19.7-7-40.4-4.2-60.6c0.1-0.4-0.6-0.6-0.6-0.2c-2.7,20.4-1.3,41.2,4.2,61
			C358.8,280.9,359.4,280.7,359.3,280.3z"/>
		<path class="st9" d="M370.1,224.7c-4.2,11.2-6.7,22.9-7.5,34.8c0,0.4,0.6,0.4,0.7,0c0.8-11.8,3.3-23.5,7.5-34.6
			C370.9,224.5,370.3,224.3,370.1,224.7z"/>
		<path class="st9" d="M431.2,312.9c-15.2-12.1-37.1-14.6-54.6-6.2c-0.4,0.2,0,0.7,0.3,0.6c17.2-8.3,38.8-5.9,53.8,6.1
			C431,313.7,431.5,313.2,431.2,312.9z"/>
		<path class="st9" d="M179,272.7c-7.4-18.6-11.2-38.5-11.2-58.5c0-0.4-0.7-0.4-0.7,0c0,20.1,3.8,40,11.2,58.6
			C178.5,273.3,179.1,273.1,179,272.7z"/>
		<path class="st9" d="M362.2,373.9c-0.2,0-0.4,0-0.7,0c0-0.3,0.1-0.6,0.1-0.8c1.4-10.8,0.6-22.2-3.4-32.4
			c-1.8-4.7-4.3-9.1-7.6-12.9c-1.6-1.8-3.4-3.5-5.4-4.9c-0.9-0.6-1.9-1.3-2.9-1.9c0.3-0.1,0.5-0.2,0.8-0.3c0.9,0.5,1.7,1.1,2.5,1.7
			c2.2,1.5,4.1,3.3,5.8,5.3c6.9,8,10.2,18.6,11.2,28.9C363.2,362.4,363,368.2,362.2,373.9z"/>
		<path class="st9" d="M352.3,354.1c-3.4,0-3.4,5.2,0,5.2C355.7,359.4,355.7,354.1,352.3,354.1z"/>
		<path class="st9" d="M302.8,162.9c-8.1,2.6-16.3,5.2-24.4,7.8c-0.4,0.1-0.2,0.8,0.2,0.6c8.1-2.6,16.3-5.2,24.4-7.8
			C303.4,163.4,303.2,162.8,302.8,162.9z"/>
		<path class="st2" d="M271.6,24.1c-0.4-2.2-1.1-4.5-2.6-6.3c-1.6-2.1-4.1-3.1-6.4-4.2c-3.3-1.5-6.6-3-10-4.4
			c-1.5-0.6-2.9-1.2-4.4-1.8c0,0,0,0,0,0l0,0c-3.3-3.6-8-5.3-12.7-6.1c-4.7-0.8-9.7-0.6-14.2,1c-8.1,2.9-14.5,10.6-13.9,19.5
			c-7.4-1.7-16.1-1.7-21.5,4.5c-3.9,4.5-3.9,11.8,0.9,15.5c-5.9,4.2-5.8,13.3,0.8,16.9c7.2,4,13.6,0.1,19.7-3.9
			c-0.4,3.3,0.9,6.8,3.7,8.8c3.9,2.9,11.1,2.6,15.3,1.1c4.9-1.8,9.2-3,12.7-6.9c5.2-5.7,6-8.4,5.6-10.7c1.8,3.5,9,2.8,12.3,1.7
			c4.6-1.4,10.2-4,12.9-8.2c1.4-2.2,1.9-5,2.2-7.6C272.2,30.1,272.1,27.1,271.6,24.1z"/>
		<path class="st8" d="M222.8,34.6c-4.4,1.7-8.7,4.2-11.6,8c-2.9,3.8-4.2,8.8-2.8,13.4c0.1,0.4,0.8,0.2,0.6-0.2
			c-3-9.8,5.7-17.4,13.9-20.6C223.4,35,223.2,34.4,222.8,34.6z"/>
		<path class="st4" d="M280.4,356.6c-4.9,1.7-10,2.7-15,3.9c-4.4,1-8.8,2.1-12.9,3.8c-4.6,1.9-8.6,4.7-12.4,7.9
			c-2,1.7-4.1,3.4-6,5.2c-0.8,0.8-1.6,1.6-2.4,2.4c-0.9,1-0.7,0.7-0.3,2.4c0.5,1.9,0.3,1.8,2.1,1.6c4.8-0.4,8.9-3.7,12.4-6.7
			c3.4-2.8,6.8-5.5,11-7c4.8-1.7,9.9-2.6,14.8-3.7c3.7-0.8,7.3-1.6,11-2.5C281.8,361.5,281,359,280.4,356.6z"/>
		<path class="st4" d="M284,372.5c-0.6-0.8-1.2-1.5-2-2.1c-1.2-0.9-3.9-1.3-4.4-2.7c0.4-0.1,0.8-0.2,1.2-0.3
			c0.4-0.1,0.2-0.7-0.2-0.6c-5.4,1.2-11,2.4-15.9,5.2c-1.5,0.8-9.6,5.9-6.1,7.6c1,0.5,2.2,0.6,3.3,0.8c1.5,0.3,3.1,0.5,4.6,0.8
			c2.8,0.4,5.7,0.7,8.5,0.8c3.5,0.2,11,1.4,12.3-3.3C285.8,376.6,285.2,374.3,284,372.5z"/>
		<path class="st2" d="M308.9,388.1H136.8l-3-10.9h166.9c3.1,0,5.9,2.1,6.7,5.1L308.9,388.1z"/>
		<path class="st2" d="M246.7,388.2h-166c-3.6,0-6.8-2.4-7.8-5.9L43.6,278.7c-0.4-1.4,0.7-2.9,2.2-2.9h167.4c1,0,1.9,0.7,2.2,1.6
			L246.7,388.2z"/>
		<path class="st8" d="M145.1,330.5c0.8,4.9-2.5,8.8-7.3,8.8c-4.8,0-9.3-4-10.1-8.8c-0.8-4.9,2.5-8.8,7.3-8.8
			C139.8,321.7,144.3,325.6,145.1,330.5z"/>
		<polygon class="st8" points="240.4,388.2 239.7,388.2 207.2,275.8 207.8,275.8 		"/>
		<path class="st6" d="M282.6,362.4c-2.1,0-4.1,0.7-5.8,2c-0.3,0.2,0,0.8,0.3,0.6c1.6-1.2,3.5-1.8,5.5-1.9
			C283,363.1,283,362.4,282.6,362.4z"/>
		<path class="st6" d="M290.1,369.3c-5.6,0-10.7,2.2-15.7,4.5c-0.4,0.2-0.1,0.8,0.3,0.6c4.9-2.3,9.9-4.5,15.4-4.5
			C290.5,370,290.5,369.3,290.1,369.3z"/>
		<path class="st9" d="M248.8,216.8c-4.6-12.6-11.5-24.1-20.6-34c-0.3-0.3-0.7,0.2-0.5,0.5c8.9,9.8,15.9,21.2,20.4,33.7
			C248.3,217.3,248.9,217.1,248.8,216.8z"/>
		<path class="st0" d="M326.6,209.9c-1.6-2.8-3.5-5.4-5.6-7.9c-1.4-1.6-2.9-3.2-4.5-4.7c-1.2-1.1-2.7-2.2-4.4-2.2
			c-1.5,0-2.7,0.9-3.8,1.9c-1.7,1.6-3.2,3.3-4.7,5c-2.3,2.6-4.5,5.4-6.5,8.2c-0.2,0.2-0.3,0.5-0.5,0.7c0.1,0,0.2,0,0.3,0
			c1.6-0.1,3.2-0.1,4.9-0.2c6.6-0.2,13.2-0.4,19.8-0.3c1.7,0,3.5,0.1,5.2,0.2c0.1,0,0.2,0,0.3,0
			C326.9,210.3,326.8,210.1,326.6,209.9z"/>
		<path class="st9" d="M333.3,212.2c-0.7-2.7-4.1-2.2-6.3-2.3c-0.1,0-0.3,0-0.4,0c-7.9-0.3-15.7-0.2-23.6,0.1
			c-1.9,0.1-3.9,0.1-5.8,0.2c0,0-0.1,0-0.1,0c-1.4,0.1-3.2-0.1-4.5,0.4c-0.8,0.3-1.2,0.9-1.4,1.7c-0.2,1-0.3,6,0,7.2
			c0.7,2.7,4.1,2.2,6.3,2.3c8,0.3,16,0.2,24-0.1c1.9-0.1,3.9-0.2,5.8-0.2c1.4-0.1,3.3,0.2,4.6-0.4c0.8-0.3,1.2-0.9,1.4-1.7
			C333.5,218.3,333.6,213.4,333.3,212.2z M332.3,219.6c-0.5,1-1.1,1-2.1,1.1c-0.9,0.1-1.7,0.1-2.6,0.1c-1.6,0.1-3.2,0.1-4.9,0.2
			c-6.6,0.2-13.2,0.4-19.8,0.3c-1.7,0-3.5-0.1-5.2-0.1c-1.7-0.1-4.7,0.3-5.7-1.3c-0.6-1-0.4-6.6,0.1-7.7c0.5-1,1.1-1,2.1-1.1
			c0.8-0.1,1.5-0.1,2.3-0.1c0.1,0,0.2,0,0.3,0c1.6-0.1,3.2-0.1,4.9-0.2c6.6-0.2,13.2-0.4,19.8-0.3c1.7,0,3.5,0.1,5.2,0.2
			c0.1,0,0.2,0,0.3,0c1.8,0,4.5-0.2,5.4,1.3C333,212.8,332.8,218.5,332.3,219.6z"/>
		<g>
			<path class="st3" d="M299.9,56.5c-2.1-1.2-4.5-1.7-6.9-1c-2.6,0.7-4.8,2.5-6.8,4.1c-4.9,3.8-9.5,8-13.7,12.5
				c-0.1-0.2-0.3-0.3-0.4-0.5c-2.1-2.1-5.6-2.7-8.4-3c-3.8-0.3-7.8,0.2-11.2,1.8c-1.7,0.8-3.7,1.7-4.9,3.2c-0.5,0.6-0.7,1.3-0.9,2
				c-3-0.8-6.1-0.5-8.9,0.8c-0.3-0.6-0.8-1.2-1.3-1.7c-2.1-2.1-5.6-2.7-8.4-3c-3.8-0.3-7.8,0.2-11.2,1.8c-1.7,0.8-3.7,1.7-4.9,3.2
				c-0.5,0.6-0.7,1.3-0.9,2.1c-0.1,0.3-0.1,0.6-0.1,0.6c-1.3,5.6-0.7,12.7,3.7,16.8c4.6,4.2,11.5,5.3,16.8,2
				c5.1-3.2,7.8-9.4,7.7-15.3c0-1.9-0.3-4-1.2-5.8c2.7-1.3,5.6-1.5,8.5-0.7c0,0,0,0,0,0c-1.3,5.6-0.7,12.7,3.7,16.8
				c4.6,4.2,11.5,5.3,16.8,2c5.1-3.2,7.8-9.4,7.7-15.3c0-2.4-0.5-5.1-1.9-7.1c3.6-3.8,7.4-7.4,11.4-10.7c4.3-3.5,9.4-8.2,15.2-4.8
				C299.9,57.2,300.2,56.7,299.9,56.5z M238.5,82.4c0.1,5.2-2,10.9-6.2,14.2c-4.7,3.7-10.6,3.4-15.5,0.3c-5.5-3.5-6.7-10.9-5.4-17
				c0,0,0.1-1.5,0.4-2.1c1-2,3.6-3.1,5.5-4c2.8-1.2,6.1-1.7,9.2-1.6c2.7,0,6,0.5,8.4,2C237.6,76,238.4,79.5,238.5,82.4z M268,93.5
				c-4.7,3.7-10.6,3.4-15.5,0.3c-5.5-3.5-6.7-10.9-5.4-17c0,0,0.1-1.5,0.4-2.1c1-2,3.6-3.1,5.5-4c2.8-1.2,6.1-1.7,9.2-1.6
				c2.7,0,6,0.5,8.4,2c2.6,1.7,3.5,5.1,3.6,8.1C274.3,84.6,272.2,90.3,268,93.5z"/>
			<path class="st3" d="M224.5,100.7c-3.7,0-7.4-1.4-10.3-4.1c-4.9-4.5-5.2-12.2-3.9-17.4c0,0,0-0.3,0.1-0.6c0.2-0.9,0.5-1.7,1-2.4
				c1.3-1.6,3.5-2.6,5.2-3.4c3.3-1.5,7.4-2.1,11.6-1.8c4.1,0.3,7,1.3,8.8,3.1c0.4,0.4,0.7,0.8,1.1,1.3c2.6-1.1,5.4-1.3,8.2-0.8
				c0.2-0.6,0.5-1.1,0.8-1.6c1.3-1.6,3.5-2.6,5.2-3.4c3.3-1.5,7.4-2.1,11.6-1.8c4.1,0.3,7,1.3,8.8,3.1c4.2-4.4,8.6-8.4,13.3-12
				l0.5-0.4c2-1.6,4-3.2,6.6-3.8c2.4-0.6,5.1-0.2,7.4,1.1l0,0c0.3,0.2,0.5,0.5,0.5,0.8c0,0.4-0.2,0.7-0.5,0.9c-0.3,0.2-0.7,0.2-1,0
				c-5.1-3-9.7,0.9-13.8,4.2l-0.6,0.5c-3.8,3.1-7.5,6.6-11,10.3c1.4,2.3,1.7,5,1.8,7c0,6.6-3.1,12.8-8.1,15.9
				c-5.4,3.4-12.6,2.5-17.6-2c-4.7-4.3-5.2-11.6-4.1-16.8c-2.3-0.5-4.7-0.3-6.9,0.6c0.8,2,1,4,1,5.5c0,6.6-3.1,12.8-8.1,15.9
				C229.6,100,227,100.7,224.5,100.7z M226.3,73c-3.3,0-6.3,0.5-8.7,1.6l-0.2,0.1c-1.9,0.8-4.2,1.8-5,3.6c-0.2,0.3-0.3,1.3-0.3,1.8
				l0,0.1c-1.2,5.7-0.1,12.9,5.1,16.3c5,3.2,10.5,3.1,14.8-0.3c3.8-2.9,6.1-8.3,5.9-13.7l0,0c-0.1-2.1-0.6-5.8-3.3-7.6
				c-2.3-1.5-5.7-1.9-8-1.9C226.5,73,226.4,73,226.3,73z M261.9,69.9c-3.3,0-6.3,0.5-8.7,1.6l-0.2,0.1c-1.9,0.8-4.2,1.8-5,3.6
				c-0.2,0.3-0.3,1.3-0.3,1.8l0,0.1c-1.2,5.7-0.1,12.9,5.1,16.3c5,3.2,10.5,3.1,14.8-0.3l0,0c3.8-2.9,6.1-8.3,5.9-13.7
				c-0.1-2.1-0.6-5.8-3.3-7.6c-2.3-1.5-5.7-1.9-8-1.9C262.1,69.9,262,69.9,261.9,69.9z M299.5,57L299.5,57L299.5,57z"/>
		</g>
		<path class="st6" d="M247.4,99.1c-2-0.8-4-1.5-6-2.3c-1.1-0.5-2-1.1-2.6-2.2c-0.6-1.2-0.3-2.5-0.1-3.8c0.9-4.3,2.2-8.5,3.6-12.6
			c0.1-0.4-0.5-0.6-0.6-0.2c-1,2.8-1.8,5.6-2.6,8.4c-0.6,2.1-1.5,4.6-1.3,6.8c0.1,1.7,1,2.8,2.4,3.6c2.1,1.2,4.6,1.9,6.9,2.8
			C247.6,99.8,247.8,99.2,247.4,99.1z"/>
		<path class="st10" d="M201.2,330.8c-2.2-8-5.4-15.9-8.4-23.6c-0.1-0.2-0.2-0.2-0.3-0.2l-36.8-0.2l0.1,0.2
			c-0.1,0.1-0.2,0.2-0.1,0.4c2.6,6.7,5.1,13.4,7.4,20.2c1.9,5.8,3.9,15.2-3.6,18c0,0,0,0,0,0h-0.5c-0.4,0-0.4,0.7,0,0.7h37.1
			c0,0,0.1,0,0.1,0C202.4,343.8,202.7,336.3,201.2,330.8z"/>
		<path class="st10" d="M121.6,368.2c-2.2-8-5.4-15.9-8.4-23.6c-0.1-0.2-0.2-0.2-0.3-0.2L76,344.2l0.1,0.2c-0.1,0.1-0.2,0.2-0.1,0.3
			c2.6,6.7,5.1,13.4,7.4,20.2c1.9,5.8,3.9,15.2-3.6,18c0,0,0,0,0,0h-0.5c-0.4,0-0.4,0.7,0,0.7h37.1c0,0,0.1,0,0.1,0
			C122.8,381.3,123.1,373.8,121.6,368.2z"/>
		<path class="st7" d="M289.6,74.4c-2.9-3.1-8.5-0.8-7.8,3.5c0,0.4,0,0.7-0.1,1c-0.2,3.2-1,5.9-2.3,8.9c0,0.1-0.1,0.2,0,0.3
			c0.9,0.7,1.9,1.4,2.8,2c0.1,0.1,0.3,0,0.4-0.2c0.6-2,1.3-4.2,2.5-5.9c0.7-1.1,1.6-1.2,2.7-1.7c0.3-0.1,0.5-0.3,0.8-0.5
			c0.6-0.4,1.2-1,1.6-1.7C291.1,78.5,291,75.8,289.6,74.4z"/>
	</g>
</switch>

</svg>
