<?xml version="1.0" encoding="utf-8"?>
<!-- Generator: Adobe Illustrator 27.1.1, SVG Export Plug-In . SVG Version: 6.00 Build 0)  -->










<svg version="1.1" id="Layer_1" xmlns="http://www.w3.org/2000/svg" xmlns:xlink="http://www.w3.org/1999/xlink" x="0px" y="0px" viewBox="0 0 500 321.2" style="enable-background:new 0 0 500 321.2;" xml:space="preserve">
<style type="text/css">
	.st0{fill:#E8A14E;}
	.st1{fill:#C48435;}
	.st2{fill:#412625;}
	.st3{fill:#FFFFFF;}
	.st4{fill:#F4E4D3;}
	.st5{fill:#E0C4A8;}
	.st6{fill:#884227;}
	.st7{fill:#E6A585;}
	.st8{fill:#F4EBE4;}
	.st9{fill:#674242;}
	.st10{fill:#97512F;}
</style>
<switch>
	
	<g>
		<g>
			<path class="st0" d="M500,38.4v244.4c0,21.2-17.2,38.4-38.4,38.4H38.4c-2.1,0-4.2-0.2-6.3-0.5c-1.6-0.3-3.2-0.6-4.7-1.1
				C11.6,314.8,0,300.1,0,282.7V38.4C0,17.2,17.2,0,38.4,0h423.2C482.8,0,500,17.2,500,38.4z"/>
			<path class="st1" d="M61.9,268.7c-0.4,17.5-0.4,35-0.2,52.4h-4.5c-0.2-17.5-0.1-35,0.2-52.4H23.9c3.3,17.2,5.4,34.6,8.2,51.9
				c-1.6-0.3-3.2-0.6-4.7-1.1c-2.7-16.9-4.8-34-8-50.8c-0.3-1.5-0.6-3-0.9-4.5H62C62,265.7,61.9,267.2,61.9,268.7z"/>
			<path class="st2" d="M219.7,321.2h-176l-0.5-8.6c-0.1-1.3,0.9-2.4,2.2-2.4l53.8-0.2l38.3-0.1l79.4-0.2c1.2,0,2.2,0.9,2.2,2.1
				L219.7,321.2z"/>
			<polygon class="st1" points="429,169.9 424.5,169.9 424.2,165.4 414.8,0 419.3,0 428.7,165.4 			"/>
			<polygon class="st1" points="224.8,169.9 220.3,169.9 220.1,165.4 210.7,0 215.2,0 224.5,165.4 			"/>
			<polygon class="st1" points="429,169.9 424.5,169.9 0.1,172.4 0.1,167.9 424.2,165.4 428.7,165.4 			"/>
			<g>
				<path class="st2" d="M356.4,211H63.5c-1.2,0-2.2-0.9-2.2-2.1L50.8,40c-0.1-1.3,0.9-2.4,2.2-2.4H346c1.2,0,2.2,0.9,2.2,2.1
					l10.4,168.9C358.7,209.9,357.7,211,356.4,211z"/>
				<path class="st3" d="M350.6,204l-281.3,0c-1.1,0-2-0.9-2.1-2L57.6,45.3c-0.1-1.2,0.9-2.2,2.1-2.2l281.3,0c1.1,0,2,0.9,2.1,2
					l9.7,156.7C352.8,203,351.8,204,350.6,204z"/>
				<path class="st2" d="M208.4,206.2c-6.6-0.2-13.3-0.9-19.8,0.1l3.6,58.7c0.1,1.2,1.1,2.1,2.2,2.1l30.2-1c1.3,0,2.3-1.1,2.2-2.4
					l-3.5-57.4C218.3,206.4,213.3,206.4,208.4,206.2z"/>
				<g>
					<path class="st4" d="M148.4,160.9H86.8c-2.7,0-5-2.1-5.1-4.8l-6.3-94.8c-0.2-3,2.2-5.5,5.1-5.5h61.6c2.7,0,5,2.1,5.1,4.8
						l6.3,94.8C153.8,158.3,151.4,160.9,148.4,160.9z"/>
					<path class="st4" d="M183.4,104.5l-21.8,0.3c-2.7,0-5-2.1-5.1-4.8l-1.2-18.2l0-0.2L154,61.5c-0.2-3,2.2-5.5,5.1-5.5l21.8-0.3
						c2.7,0,5,2.1,5.1,4.8l1.3,19.8l0.1,1l1.1,17.6C188.8,102,186.4,104.5,183.4,104.5z"/>
					<path class="st5" d="M187.4,81.4l-32.1,0.4l0-0.2L154,61.5c-0.2-3,2.2-5.5,5.1-5.5l21.8-0.3c2.7,0,5,2.1,5.1,4.8l1.3,19.8
						L187.4,81.4z"/>
					<path class="st4" d="M188.4,160.3l-21.8,0.3c-2.7,0-5-2.1-5.1-4.8l-2.5-38.4c-0.2-3,2.2-5.5,5.1-5.5l21.8-0.3
						c2.7,0,5,2.1,5.1,4.8l2.5,38.4C193.7,157.7,191.4,160.3,188.4,160.3z"/>
					<path class="st5" d="M187.8,129.5l-0.5-8.3c-0.1-2-1.8-3.5-3.7-3.5l-15.7,0.2c-2.1,0-3.8,1.8-3.7,4l0.5,8.3
						c0.1,2,1.8,3.5,3.7,3.5l15.7-0.2C186.2,133.4,187.9,131.6,187.8,129.5z"/>
					<path class="st4" d="M151,192.4H89.4c-2.7,0-5-2.1-5.1-4.8l-0.6-12.2c-0.2-3,2.2-5.5,5.1-5.5h61.6c2.7,0,5,2.1,5.1,4.8
						l0.6,12.2C156.3,189.9,154,192.4,151,192.4z"/>
					<path class="st4" d="M326.2,82.2h-61.6c-2.7,0-5-2.1-5.1-4.8l-0.6-12.2c-0.2-3,2.2-5.5,5.1-5.5h61.6c2.7,0,5,2.1,5.1,4.8
						l0.6,12.2C331.5,79.6,329.2,82.2,326.2,82.2z"/>
					<path class="st4" d="M329.6,115.5H268c-2.7,0-5-2.1-5.1-4.8l-0.6-12.2c-0.2-3,2.2-5.5,5.1-5.5H329c2.7,0,5,2.1,5.1,4.8
						l0.6,12.2C335,113,332.6,115.5,329.6,115.5z"/>
					<path class="st4" d="M331.3,152.7h-61.6c-2.7,0-5-2.1-5.1-4.8l-0.6-12.2c-0.2-3,2.2-5.5,5.1-5.5h61.6c2.7,0,5,2.1,5.1,4.8
						l0.6,12.2C336.7,150.2,334.3,152.7,331.3,152.7z"/>
					<path class="st4" d="M185.6,192.3l-12.7,0.1c-2.7,0-5-2.1-5.1-4.8l-0.6-12.2c-0.2-3,2.2-5.5,5.1-5.5l12.7-0.1
						c2.7,0,5,2.1,5.1,4.8l0.6,12.2C190.9,189.8,188.5,192.3,185.6,192.3z"/>
					<path class="st4" d="M217.3,192.3l-12.7,0.1c-2.7,0-5-2.1-5.1-4.8l-0.6-12.2c-0.2-3,2.2-5.5,5.1-5.5l12.7-0.1
						c2.7,0,5,2.1,5.1,4.8l0.6,12.2C222.6,189.8,220.3,192.3,217.3,192.3z"/>
					<path class="st4" d="M332,184.4l-12.7,0.1c-2.7,0-5-2.1-5.1-4.8l-0.6-12.2c-0.2-3,2.2-5.5,5.1-5.5l12.7-0.1
						c2.7,0,5,2.1,5.1,4.8l0.6,12.2C337.4,181.9,335,184.4,332,184.4z"/>
					<g>
						<path class="st5" d="M133.7,74.4h-29.2c-0.5,0-0.9-0.4-1-0.9l-0.3-2.7c-0.1-0.6,0.4-1.1,1-1.1h29.2c0.5,0,0.9,0.4,1,0.9
							l0.3,2.7C134.7,73.9,134.3,74.4,133.7,74.4z"/>
					</g>
					<g>
						<path class="st5" d="M135.5,92.1h-29.2c-0.5,0-0.9-0.4-1-0.9l-0.3-2.7c-0.1-0.6,0.4-1.1,1-1.1h29.2c0.5,0,0.9,0.4,1,0.9
							l0.3,2.7C136.5,91.6,136.1,92.1,135.5,92.1z"/>
					</g>
					<g>
						<path class="st5" d="M136.7,109.1h-29.2c-0.5,0-0.9-0.4-1-0.9l-0.3-2.7c-0.1-0.6,0.4-1.1,1-1.1h29.2c0.5,0,0.9,0.4,1,0.9
							l0.3,2.7C137.7,108.6,137.2,109.1,136.7,109.1z"/>
					</g>
					<g>
						<path class="st3" d="M138.2,127.1H109c-0.5,0-0.9-0.4-1-0.9l-0.3-2.7c-0.1-0.6,0.4-1.1,1-1.1h29.2c0.5,0,0.9,0.4,1,0.9
							l0.3,2.7C139.2,126.6,138.8,127.1,138.2,127.1z"/>
					</g>
					<g>
						<path class="st3" d="M140.4,145.2h-29.2c-0.5,0-0.9-0.4-1-0.9l-0.3-2.7c-0.1-0.6,0.4-1.1,1-1.1h29.2c0.5,0,0.9,0.4,1,0.9
							l0.3,2.7C141.4,144.7,141,145.2,140.4,145.2z"/>
					</g>
					<g>
						<path class="st3" d="M97.9,72.9c0-2.1-1.7-3.8-3.9-3.8c-2.2,0-3.9,1.7-3.9,3.8c0,2.1,1.7,3.8,3.9,3.8
							C96.1,76.8,97.9,75.1,97.9,72.9z"/>
						<path class="st3" d="M98.8,90.7c0-2.1-1.7-3.8-3.9-3.8c-2.2,0-3.9,1.7-3.9,3.8c0,2.1,1.7,3.8,3.9,3.8
							C97.1,94.6,98.8,92.8,98.8,90.7z"/>
						<path class="st5" d="M100.5,107.8c0-2.1-1.7-3.8-3.9-3.8c-2.2,0-3.9,1.7-3.9,3.8c0,2.1,1.7,3.8,3.9,3.8
							C98.8,111.6,100.5,109.9,100.5,107.8z"/>
						<path class="st3" d="M97.7,122c-2.2,0-3.9,1.7-3.9,3.8c0,2.1,1.7,3.8,3.9,3.8c2.2,0,3.9-1.7,3.9-3.8
							C101.6,123.7,99.9,122,97.7,122z"/>
						<path class="st5" d="M98.7,139.6c-2.2,0-3.9,1.7-3.9,3.8c0,2.1,1.7,3.8,3.9,3.8c2.2,0,3.9-1.7,3.9-3.8
							C102.6,141.4,100.9,139.6,98.7,139.6z"/>
					</g>
					<g>
						<path class="st5" d="M325.4,69.7c0-2.1-1.7-3.8-3.9-3.8c-2.2,0-3.9,1.7-3.9,3.8c0,2.1,1.7,3.8,3.9,3.8
							C323.7,73.6,325.4,71.9,325.4,69.7z"/>
						<ellipse class="st5" cx="324.2" cy="104.6" rx="3.9" ry="3.8"/>
						<path class="st5" d="M326.3,136.4c-2.2,0-3.9,1.7-3.9,3.8c0,2.1,1.7,3.8,3.9,3.8c2.2,0,3.9-1.7,3.9-3.8
							C330.2,138.1,328.5,136.4,326.3,136.4z"/>
					</g>
				</g>
			</g>
			<path class="st2" d="M300.4,91.8c-1-2.2-2-4.6-1.9-7c0.1-2.8,1.9-5,2.4-7.6c1-5.1-3.4-8.7-6.7-12.1c-1.4-1.5-2.4-3-2.6-5
				c-0.1-1.4-0.1-2.7-0.3-4.1c-0.3-2.2-1.3-4.3-2.7-6c-3.1-4-8.1-5.4-12.9-5.3c-2.5,0-4.9,0.4-7.3,0.9c-1.7,0.3-3.6,0.7-5.4,0.3
				c-1.5-0.4-2.8-1.4-4.1-2.3c-4.1-2.9-9-4.2-13.9-4c-4.9,0.2-9.6,1.8-13.6,4.3c-2.7,1.7-5.2,3.8-8.6,4c-2.8,0.2-5.8-0.8-8.5,0.1
				c-2.2,0.7-3.9,2.2-5.5,3.7c-2.1,2-4,4.1-5.6,6.5c-1.9,2.7-3.5,4.8-6.5,6.3c-1.8,0.9-3.1,2-3.8,3.9c-1.8,5.2,1.8,10.3,2,15.5
				c0.1,2.6-0.8,5.2,0.5,7.7c1,2.1,2.9,3.6,4.8,5c1.8,1.3,3.7,2.3,5.7,3.2c0.5,2.3,2.2,4.5,4.4,5.7c4.7,2.7,10.5,1.1,15.2-0.4
				c3.1-1,6.2-2.1,9.6-2.1c2.8,0,5.6,0.6,8.3,1.6c5.6,2.2,10.4,5.8,15.5,8.9c4.6,2.8,9.6,4.9,14.9,4.1c5.9-0.9,10.3-0.8,15.7-3.1
				c4-1.7,9-6.8,11.2-10.9C303,99.7,302.2,95.6,300.4,91.8z"/>
			<path class="st6" d="M210.1,131.7c-0.2-0.1-0.5-0.1-0.7-0.2c0.1-1.2,0.1-2.5,0.1-3.7c0.1-2.7,0-5.5-0.2-8.2
				c-0.4-5.1-1.3-10.2-3-15c0-0.2,0.1-0.4,0.2-0.7c0.1-0.5-0.6-0.7-0.7-0.2c0,0.1,0,0.2-0.1,0.3c-0.2,0.1-0.3,0.2-0.2,0.4
				c0,0.1,0,0.1,0.1,0.2c-0.8,3.4-2.1,6.6-3.4,9.9c-1.3,3.3-3,6.9-3.1,10.4c-0.1,2.5,1.6,4.1,3.8,5
				C204.3,130.6,209.7,131.8,210.1,131.7z"/>
			<path class="st7" d="M203,124.2c-7.8,0-14.1-7-14.1-15.7s6.3-15.7,14.1-15.7c7.8,0,14.1,7,14.1,15.7S210.7,124.2,203,124.2z
				 M203,94.2c-7.1,0-12.9,6.4-12.9,14.4s5.8,14.4,12.9,14.4c7.1,0,12.9-6.4,12.9-14.4S210.1,94.2,203,94.2z"/>
			<path class="st6" d="M292.2,85.8c-2.2-10.9-10.3-15.3-19.4-21.7c-5-3.5-11.7-4.5-17.5-5.8c-6.3-1.4-35.4,1-46.3,11.3
				c-3.8,3.6-5,5.8-5.6,11c-0.6,5.7-0.1,8.7,0.5,14.4c0.7,7.1,1.4,14.2,2.1,21.4c0.7,7.2,1.4,14.5,2.1,21.7
				c0.6,6.5,0.7,13.7,3.3,19.8c2,4.7,5.6,8.3,10.7,9.3c5.4,1,11.5,0.2,16.8-0.8c11-2,21.4-6.8,30.3-13.6c9.1-7.1,8.5-9.6,12.1-20.9
				C283.2,125.8,293.6,92.4,292.2,85.8z"/>
			<path class="st6" d="M286.7,204.7c-5.4,3.8-10.8,7.7-16.2,11.5c-8.9-20.1-17.2-40.3-25.1-60.8c6.3-4.3,12.3-8.8,18.2-13.5
				c3.8-3.1,7.6-6.3,11.3-9.6c1.3-1.1,2.6-2.3,3.8-3.5c8.3,21.7,17.1,43.1,26.4,64.4C298.4,195.8,292.5,200.5,286.7,204.7z"/>
			<path class="st8" d="M413.6,292.3L413.6,292.3c-0.1-0.2-0.1-0.5-0.2-0.7c-1.2-5.4-2.5-10.7-4-16c-4.6-15.8-11.3-31.1-21.1-44.4
				c-1-1.3-2-2.6-3.1-3.9c-0.2-0.2-0.4-0.5-0.6-0.7c-3.8-4.5-7.9-8.7-12.5-12.4c-6.7-5.4-14.1-9.6-21.9-13.1c-1.1-0.5-3-1.5-5.4-2.7
				c-0.3-0.2-0.6-0.3-0.9-0.5c-15.3-8.1-48.5-27.1-48.5-27.1s-7.5,1.3-16.1,2.7c-0.2,0-0.4,0.1-0.7,0.1c-11.4,1.9-24.4,4.1-24.5,4.2
				c-9.1,8.3-14.5,13-22.1,18.6c-0.2,0.1-0.3,0.3-0.5,0.4c-2.7,2-5.7,4.1-9.3,6.6c-11.3,7.9-23.4,14.6-34.9,22.2
				c-0.2,0.1-0.4,0.2-0.5,0.4c-0.5,0.3-1,0.7-1.5,1c-12,8.1-22,17.9-28.7,30.9c-4.8,9.4-8,19.5-10.4,29.8c-0.1,0.4-0.2,0.8-0.3,1.1
				c-0.6,2.8-1.2,5.5-1.8,8.3c-1.6,8-3.1,16-4.4,24h279.1C417.2,311.5,415.7,301.8,413.6,292.3z"/>
			<g>
				<path class="st6" d="M141.1,284.9c-2.4-5.5-7.6-9.5-12.1-13.2c-1.6-1.3-3.9-3.8-6.3-2.9c-1.4,0.6-2.1,1.9-2.4,3.3
					c-0.2-0.2-0.5-0.4-0.7-0.6c-2.4-2.1-4.9-4.2-7.8-5.6c-2.8-1.3-5.8-1.6-8.9-1.5c-2.6,0.2-10.8,0.3-11,4.1
					c-2.8-0.3-5.5-0.5-8.3-0.3c-2.6,0.2-9.2,0.5-8.9,4.5c0,0.4,0.1,0.7,0.2,0.9c-1.8,0.5-3.4,1.9-3.8,3.8c-0.3,1.4,0.1,2.4,1,3.2
					c-1.6,0.8-2.9,2.1-3,4.1c-0.3,3.4,4.5,4.3,7.5,5c4.1,1,11.2,3.9,12.9,5.3c2.6,2.3,5.2,8.3,9.8,14.9c2.6,3.7,5.8,7.6,10.1,11.2
					H136c-0.1-1.9-0.1-3.8,0.2-5.7c0.2-1.4,0.7-3.3,1.3-5.6C139.6,301.8,143.2,289.7,141.1,284.9z"/>
				<path class="st2" d="M114.3,275c-2.6-2.6-5.3-4.9-9-5.7c-4.1-0.9-8.4-1.1-12.6-1.5c-0.5,0-0.5,0.7,0,0.8
					c3.9,0.4,7.9,0.6,11.7,1.3c3.9,0.7,6.5,2.9,9.3,5.6C114.1,275.9,114.6,275.4,114.3,275z"/>
				<path class="st2" d="M105.9,280.2c-8.8-6.5-20-6.8-30.6-6.9c-0.5,0-0.5,0.8,0,0.8c10.4,0.1,21.5,0.4,30.2,6.8
					C105.9,281.1,106.3,280.5,105.9,280.2z"/>
				<path class="st2" d="M99.2,287.6c-7.7-5.9-17.4-6.8-26.8-6.7c-0.5,0-0.5,0.8,0,0.8c9.1-0.1,18.8,0.7,26.2,6.5
					C99,288.4,99.6,287.9,99.2,287.6z"/>
				<path class="st2" d="M130.8,282.3c-2.7-3.7-6-6.9-9.6-9.7c-0.4-0.3-0.8,0.4-0.4,0.7c3.6,2.7,6.7,5.8,9.4,9.4
					C130.4,283,131.1,282.6,130.8,282.3z"/>
			</g>
			<path class="st2" d="M295.4,87.4c-0.7-6.8-3.4-13.3-8.2-18.6c-8.1-8.8-19.9-12.9-31.6-14.2c-6.3-0.7-12.7-0.7-19-0.6
				c-6,0.1-12.1,0.4-17.8,2.2c-5.5,1.7-11.2,5.2-13.6,10.7c-3.2,7.3,3,14.6,2.8,14.7c1.1,3,2.7,5.7,5.6,7.3c3.1,1.7,6.7,1.9,9.9,3.2
				c2.6,1,4.4,2.8,5.2,5.5c0.3,0.9,0.4,1.8,0.6,2.6c0,1.3-0.1,2.6-0.1,4c0,2.3,0.2,4.8,1.7,6.7c1.2,1.7,3.1,2.7,4.8,3.8
				c2.7,1.9,3.7,4.1,4.5,7.2c0.6,2.1,1.3,4,3,5.4c1.7,1.4,3.8,2.1,5.8,2.9c2.6,0.9,5.2,1.9,7.4,3.6c1.2,0.9,2.4,1.9,3.4,3.1
				c0.6,0.6,1.1,1.4,1.9,1.6c0.3,0.1,0.5,0.1,0.8,0.1c0.3,0.2,0.7,0.4,1.1,0.5c1.5,0.4,3.2,0.1,4.7,0c1.9-0.2,3.7-0.4,5.6-0.6
				c1.8-0.2,3.7-0.3,5.5-0.2c1,0,3.1,0.8,3.9,0.1c0.6-0.5,0.7-1.8,0.8-2.9c1.3-3.5,4-6.3,5.1-10c0.7-2.4,0.7-4.9,0.9-7.3
				c0.3-3.1,1.3-5.5,2.8-8.2c2.5-4.3,3.5-8.8,4-13.7C297.5,93.4,297.9,89.3,295.4,87.4z"/>
			<path class="st7" d="M225.8,89.2c-2.5-2.7-6-5.8-10.3-6.6c-3.7-0.7-7,0.6-10.4,3.8c-2.8,2.7-5.3,5.9-7.7,9
				c-0.4,0.5-0.8,1-1.1,1.5c-2.5,3.2-4.9,6.5-7.4,10c0.4,0.3,0.6,0.5,1,0.7c4.2-6,8.9-12.3,14.1-18.1c2.8-3.1,5.9-6,10.1-5.7
				c4.5,0.3,8.1,3.5,10.7,6.3c0.3,0.3,0.7,0.3,0.9,0C226.1,89.9,226.1,89.5,225.8,89.2z"/>
			<polygon class="st2" points="230.8,87.3 230.8,87.3 230.8,87.3 			"/>
			<path class="st6" d="M225.2,90.6c-6.1-0.9-11.5,4.4-12.9,9.9c-0.3,1.3,0.6,2.1,1.6,2.3c0.5,4.6,1.6,11.9,6.8,12.6
				c6,0.9,11.2-7.5,12-12.4C233.6,97.7,231.1,91.5,225.2,90.6z"/>
			<path class="st2" d="M225.5,94.6c-3.4-0.1-5.7,2.4-6.4,5.6c-0.1,0.4,0.3,0.6,0.6,0.4c2-1.5,4.4,0,4.6,2.2c0.2,1.7-0.7,3.1-2,4.2
				c-0.4,0.3,0.2,0.9,0.5,0.5c1.9-1.6,3-4.3,1.6-6.6c-1-1.6-2.8-2-4.4-1.4c0.8-2.4,2.7-4.2,5.4-4.1C226,95.4,226,94.7,225.5,94.6z"/>
			<path class="st9" d="M227.6,53c-2.6-0.9-5.4-0.8-8,0.2c-2.8,1.1-4.2,3-6.1,5.2c-1.4,1.6-3.6,1-5.4,1.8c-1.1,0.5-2.1,1.3-2.8,2.2
				c-2.1,2.6-2.4,6-2.4,9.1c0,0.5,0.8,0.5,0.8,0c0-3.4,0.4-7.2,3.1-9.6c1.5-1.4,3-1.4,4.9-1.6c0.8-0.1,1.4-0.4,2-0.9
				c0.8-0.8,1.3-1.8,2.1-2.7c0.9-1,2-1.9,3.3-2.5c2.6-1.3,5.6-1.5,8.4-0.6C227.8,53.9,228,53.1,227.6,53z"/>
			<path class="st9" d="M276.3,59.8c-1.9-0.3-3.9-0.3-5.8,0c-1.8,0.3-3.3,0.8-5-0.1c-2.6-1.4-4.7-2.1-7.6-1
				c-0.5,0.2-0.3,0.9,0.2,0.7c1.5-0.6,3-0.7,4.6-0.3c1.2,0.3,2.1,1.1,3.2,1.6c1.9,0.8,4.2-0.1,6.1-0.3c5-0.4,14.7,1.6,13.1,8.6
				c-0.1,0.5,0.6,0.7,0.7,0.2C287.1,63.5,281,60.5,276.3,59.8z"/>
			<path class="st9" d="M256.5,101.8c-1.1-0.7-2.8-1-3.7-1.8c-1-0.9-0.6-3.7-1.1-5c-0.7-2.1-2.4-3.7-4.7-3.7c-0.5,0-0.5,0.8,0,0.8
				c3.9,0,4,4,4.4,6.9c0.2,1.5,1.1,1.7,2.4,2.3c1.9,0.9,4,2,4.7,4.2c0.7,2.2-0.1,4.5-1.9,5.9c-0.4,0.3,0.2,0.8,0.5,0.5
				C260.6,109.1,260,104.1,256.5,101.8z"/>
			<path class="st6" d="M219.2,318.8c0.2,0.8,0.4,1.6,0.6,2.4h-0.7c-3.4-14.6-7.5-29.1-12.2-43.4c-5.8-17.6-12.6-34.9-20.2-51.8
				c0.2-0.1,0.4-0.2,0.5-0.4c3.1,6.7,6,13.5,8.7,20.3C205.5,269.6,213.3,294,219.2,318.8z"/>
			<path class="st6" d="M266.6,295.4c2,8.5,3.9,17.2,5.5,25.8h-0.6c-4.2-22.6-9.9-44.9-17.1-66.8c-6.5-19.6-14.1-38.8-22.9-57.5
				c0.2-0.1,0.4-0.3,0.5-0.4c4,8.6,7.9,17.3,11.4,26.1C252.9,246.2,260.7,270.6,266.6,295.4z"/>
			<path class="st6" d="M317.6,280c3.3,13.6,6,27.4,8.1,41.2h-0.6c-0.5-3-0.9-5.9-1.5-8.9c-4.3-24.8-10.4-49.3-18.3-73.3
				c-7.4-22.4-16.3-44.3-26.7-65.4c0.2,0,0.4-0.1,0.7-0.1c5.4,11.1,10.4,22.3,15.1,33.7C303.9,230.8,311.7,255.2,317.6,280z"/>
			<path class="st6" d="M378.6,321.2H378c-0.6-4.5-1.4-8.9-2.1-13.4c-4.3-24.8-10.4-49.3-18.3-73.3c-4.1-12.4-8.6-24.6-13.7-36.7
				c0.3,0.2,0.6,0.3,0.9,0.5c0.6,1.5,1.2,2.9,1.8,4.4c9.5,23.6,17.3,48,23.3,72.8C373.5,290.6,376.4,305.8,378.6,321.2z"/>
			<path class="st6" d="M385.2,227.3c-6.1-0.9-12.3-1.6-18.5-2.2c-20.3-1.8-40.7-1.8-61,0.1c-20.4,1.9-40.7,5.6-60.5,11.1
				c-19.8,5.6-39.4,12.8-57.6,22.5c-15.2,8.1-29.3,18.2-41.9,30c0.1-0.4,0.2-0.8,0.3-1.1c14.3-13.3,30.6-24.2,48.1-32.9
				c18.4-9.1,38-15.9,57.9-21c19.8-5.1,40.1-8.4,60.6-9.8c20.6-1.4,41.3-1,61.8,1.3c3.4,0.4,6.7,0.8,10.1,1.3
				C384.8,226.8,385,227.1,385.2,227.3z"/>
			<path class="st6" d="M413.6,292.2c-11.8-2.3-23.8-4-35.8-5.1c-20.3-1.8-40.7-1.8-61,0.1c-20.4,1.8-40.7,5.6-60.5,11.1
				c-19.8,5.6-39.4,12.8-57.6,22.5c-0.2,0.1-0.4,0.2-0.6,0.3h-1.3c2.8-1.5,5.5-3,8.4-4.3c18.4-9.1,38-15.9,57.9-21
				c19.8-5.1,40.1-8.4,60.6-9.8c20.6-1.4,41.3-1,61.8,1.3c9.3,1,18.6,2.5,27.8,4.3C413.5,291.8,413.6,292,413.6,292.2z"/>
			<g>
				<path class="st10" d="M340.7,228.3L320,321.2h-13.6l21.3-95.8c0.7-3,3.4-5.2,6.5-5.2l0,0C338.4,220.2,341.6,224.1,340.7,228.3z"/>
				<polygon class="st10" points="389.3,244.8 372.3,321.2 358.7,321.2 375.6,244.8 				"/>
				<polygon class="st10" points="426.1,245.2 409.2,321.2 395.6,321.2 412.5,245.2 				"/>
				<path class="st10" d="M476.7,228.2l-20.6,93h-13.6l21.3-95.8c0.7-3,3.4-5.2,6.5-5.2h0C474.5,220.1,477.6,224.1,476.7,228.2z"/>
				<rect x="329.3" y="239.4" class="st10" width="138.8" height="11.9"/>
			</g>
			<g>
				<path class="st1" d="M21.6,236.8c-0.8-2.8-5.1-1.6-4.3,1.2c2.7,9.6,5.4,19.2,8.2,28.8c0.8,2.8,5.1,1.6,4.3-1.2
					C27.1,256,24.3,246.4,21.6,236.8z"/>
				<path class="st1" d="M37.4,220.3c-0.1,15.2,0.4,30.4,1.3,45.5c0.2,2.9,4.7,2.9,4.5,0c-0.9-15.2-1.4-30.3-1.3-45.5
					C41.9,217.4,37.4,217.4,37.4,220.3z"/>
				<path class="st1" d="M52.2,238.2c-0.8,9-1.4,18.1-1.8,27.1c-0.1,2.9,4.4,2.9,4.5,0c0.4-9.1,1-18.1,1.8-27.1
					C56.9,235.3,52.5,235.4,52.2,238.2z"/>
			</g>
			<path class="st1" d="M461.6,0H359.4c-0.5,3-1.1,5.9-1.6,8.6c-0.9,5.2-1.5,10.5-0.3,15.6c1.1,4.4,3.5,8.4,6.1,12.1
				c2.9,4.1,5.9,8.1,7.7,12.8c1.9,5,2.6,10.5,2.1,15.8c-0.5,5.2-2.6,10.2-2.6,15.5c0,4.6,1.9,8.2,5,11.5c3.9,4.3,6,8.7,6,14.7
				c0,5.8-1.4,11.4-3,17c-0.5,1.7,1.7,3.8,3.3,2.5c5.7-4.3,12.6-6.6,19.7-6.3c7.5,0.3,13,4.1,19.4,7.4c6.8,3.5,13.6,3.6,20.8,1
				c7.1-2.6,13.7-6.5,21.1-8.2c3.8-0.9,7.9-1.3,11.8-0.6c4.1,0.6,7.6,2.6,11.1,4.5c4.7,2.6,9,4.1,13.9,3.5v-89
				C500,17.2,482.8,0,461.6,0z"/>
		</g>
	</g>
</switch>

</svg>
