<?xml version="1.0" encoding="utf-8"?>
<!-- Generator: Adobe Illustrator 27.1.1, SVG Export Plug-In . SVG Version: 6.00 Build 0)  -->










<svg version="1.1" id="Layer_1" xmlns="http://www.w3.org/2000/svg" xmlns:xlink="http://www.w3.org/1999/xlink" x="0px" y="0px" viewBox="0 0 500 321.9" style="enable-background:new 0 0 500 321.9;" xml:space="preserve">
<style type="text/css">
	.st0{fill:#6467AF;}
	.st1{fill:#4F50A2;}
	.st2{fill:#412625;}
	.st3{fill:#FBC0A5;}
	.st4{fill:#FFFFFF;}
	.st5{fill:#97512F;}
	.st6{fill:#B45730;}
	.st7{fill:#CB9172;}
	.st8{fill:#674242;}
</style>
<switch>
	
	<g>
		<path class="st0" d="M500,43.4v235.1c0,23.9-19.4,43.4-43.4,43.4H43.4C19.4,321.9,0,302.5,0,278.5V43.4C0,19.4,19.4,0,43.4,0
			h413.3C480.6,0,500,19.4,500,43.4z"/>
		<path class="st1" d="M272.1,35.7L272.1,35.7l-4.9,0l0,0l-28.9,0v0h-4.9v0h-28.9c-3.4,0-6.3,2.7-6.4,6.2l-1.6,35.4l-0.2,4.9
			l-1.7,38.8l-0.2,4.9l-1.7,38.2c-0.2,3.7,2.8,6.7,6.4,6.7l95.7,0.2c3.4,0,6.3-2.7,6.5-6.1l6.6-122.5c0.2-3.7-2.7-6.8-6.4-6.8
			L272.1,35.7z M227.5,166l-23.4-0.1c-3.7,0-6.6-3.1-6.4-6.7l1.5-33.3h30.2L227.5,166z M229.5,121h-30.1l1.7-38.8h30.1L229.5,121z
			 M231.4,77.2h-30.1l1.4-30.5c0.2-3.4,3-6.2,6.4-6.2l24,0L231.4,77.2z M261.3,166.1l-28.9-0.1l1.8-40h28.9L261.3,166.1z M263.3,121
			h-28.9l1.7-38.8h28.9L263.3,121z M265.3,77.2h-28.9l1.6-36.6h28.9L265.3,77.2z M289.8,166.1l-23.5,0l1.8-40.1h30.1l-1.9,34.1
			C296.1,163.4,293.3,166.1,289.8,166.1z M298.4,121h-30.1l1.7-38.8h30.4L298.4,121z M300.7,77.2h-30.5l1.6-36.6h23.9
			c3.7,0,6.6,3.1,6.4,6.8L300.7,77.2z"/>
		<g>
			<path class="st2" d="M427.1,188.8c-5.4-2.2-11.8-1.9-17.5-1.4c-6.5,0.6-13,1.4-19.6,2.1c-0.1,0-0.1,0-0.2,0.1
				c-2.6,0.3-6.2,1.4-7.1,4c-1,3,3.5,4,5.5,4.3c8.8,1.5,18.1,1.2,26.9,0c1,0.1,2,0.1,3,0c2.7-0.1,5.5-0.7,8-1.6
				c1.8-0.7,3.7-1.9,3.8-4.1C430.1,190.5,428.6,189.4,427.1,188.8z"/>
			<path class="st3" d="M327.1,92.7c-1.4-3.9-4.1-7.3-6.2-10.7c-1.5-2.4-2.8-4.9-3.6-7.5c0.7-2.5,1.3-5.1,1.5-7.8
				c0.3-3.2-0.8-6.4-1.7-9.6c-2.1-7.3-5.4-18.5-5.9-18c-1.5,3.4-2.1,7.1-2.4,10.9c-0.5,6-0.1,12.1,0.9,18.1
				c0.9,5.7,2.4,11.3,4.2,16.8c0.3,0.9,0.6,1.8,0.9,2.7c-0.8,3.1-1.3,6.2-1.3,9.4c0,1.8,0.1,3.6,0.4,5.3c0.1,0.7,0.2,1.5,0.5,2.2
				c0,0-0.1,0-0.1,0.1c-0.5,0.2-0.2,1,0.2,0.8c0.2-0.1,0.3-0.1,0.5-0.2c0.1,0,0.1,0.1,0.2,0.1c0.3,0.2,0.6-0.2,0.6-0.5
				c0.7-0.3,6.7-3.8,8.5-5.2C326.3,98.1,328.3,95.9,327.1,92.7z"/>
			<path class="st4" d="M370,321.7H90.6c0.4-1.1,0.9-2.3,1.3-3.4c2.8-7.3,5.6-14.5,8.5-21.7c5.7-14,11.5-28,17.7-41.8
				c10.6-24,23.8-49.6,48.3-62c12.7-6.4,27-6.8,40.3-11.2c0.7-0.2,1.4-0.5,2.1-0.7c3.6-1.3,7.3-3.2,10.5-5.5c3.5-2.5,6.5-5.5,8.7-9
				c0.4-0.6,0.7-1.2,1-1.8c8.2,1.2,16.3,2.5,24.5,2.8c4.9,0.2,9.9,0.1,14.8,0.1c0.3,0,0.6,0,0.8,0c0,0.2,0.1,0.5,0.1,0.7
				c0.5,2.7,1.3,5.5,2.4,8c2.8,6.8,7.7,12.5,14.8,15.4c11.5,4.6,24.4,1.7,35.9,6.2c10,3.9,16.3,13,20.6,22.4
				c5.2,11.6,8.6,24.2,12.1,36.5c4,14.2,7.6,28.6,10.7,43c1.5,7.1,3,14.3,4.1,21.4C369.9,321.4,369.9,321.6,370,321.7z"/>
			<path class="st3" d="M318.3,119.3c-0.1-2.3-0.3-4.6-0.4-6.8c0-1.1-0.1-2.3-0.2-3.4c-0.3-7.7-0.7-15.4-1-23.1
				c-0.4-8.7-0.8-17.4-1.2-26.1c-0.3-6.9-1.3-10.6-3.1-17.3c-1.6-6.2-3.5-8.6-8.7-12.3c-14.9-10.6-45.8-9.2-53.2-6.4
				c-6.8,2.6-14.8,5-20.1,10.1c-9.9,9.3-12.1,15.6-12.8,29.1c-0.5,8.2,14,51.9,17.4,58.9c6.3,12.9,2.4,13.6,14.6,20.5
				c11.9,6.7,22.5,9,36.1,9.6c6.7,0.3,14.1,0.2,20.4-2c5.9-2,9.6-7,11.2-13C318.8,131.2,318.6,125.2,318.3,119.3z"/>
			<path class="st3" d="M224,177c6.2-1.3,12.8-1.1,19.1-1.1c6.9-0.1,13.8,0,20.8,0c1.4,0,2.9,0,4.3,0c3-11.8,5.8-23.6,8.5-35.5
				c-7-3.9-13.9-8.1-20.6-12.7c-4.4-3-8.7-6-12.9-9.2c-1.4-1.1-3-2.2-4.4-3.4c-4.7,20.8-9.8,41.5-15.3,62.1
				C223.8,177.1,223.9,177.1,224,177z"/>
			<path class="st2" d="M310.6,81.1c0,4.6-2.2,8.4-4.9,8.4c-2.7,0-4.9-3.7-4.9-8.4c0-4.6,2.2-8.4,4.9-8.4
				C308.4,72.8,310.6,76.5,310.6,81.1z"/>
			<path class="st5" d="M310.7,54.6c-3.5-1.7-10.3-1.8-13,1.3c-2.5,2.3-2.9,6-0.1,8.9c1.7,1.8,4.3,1.6,6.4,1.6c2.6,0,6,0.8,8.3-1.1
				C315.6,62.7,314.3,56.4,310.7,54.6z"/>
			<path class="st3" d="M392,122.5c-3.4,9,1,72.6,0.9,83.3c-0.1,10-4.4,29.4-0.3,40.3c4.4,11.6,27.1,34.6,30.8,31.8
				c16.1-12.8,15.8-35.1,11.4-49.7c-7.4-24.8-20.9-81.7-26-98.9C408.2,129.1,399.8,125.6,392,122.5z"/>
			<path class="st3" d="M461.9,63.9c-0.6-4.1-7.4-0.7-9.2,0.2c-10.4,5.2-13.1,7.4-30.2,13.8c-4.6,1.7-7,2.1-10.7,5.5
				c-3.2,2.9-4.2,7.2-9,15c-2.6,4.3-9.3,19.8-11.1,24.6c3.4,2.9,6.8,7.1,9.9,10.3c0.6,0.6,1,0.9,1.4,1c0,0.4-0.1,0.7-0.1,1.1
				c0,0.2,1.6,1.2,1.8,1.2c5.8-0.2,12.9,3.5,17.6-1.5c1.8-1.8,2.7-4.3,3.6-6.7c0.5-1.3,0.9-2.5,1.4-3.8c1.6,0.9,2.8,0.4,3.3,0.3
				c-0.3,1.4,0.3,2.7,1.7,3.3c1.9,0.8,3.8-0.1,5.5-1c1.1-0.6,2.1-1.2,2.9-2c5.2-3.8,11-13.8,7-19.5c0.3-1.8,0.2-3.3-0.5-5
				c-0.6-1.5-1.6-2.2-3.1-2.4c-0.3-2.6-1.2-5.5-4.3-5.5c-0.1-1.1-0.5-3.8-1.2-4.9c-1.9-3.1-5.9-2.2-11.3-1.8
				c8.4-2.5,20.4-7.8,27.4-12.9c1.8-1.3,3.5-2.7,5-4.3C461.2,67.7,462.2,65.6,461.9,63.9z"/>
			<path class="st4" d="M387.1,210.8c-0.1-2.8-0.2-5.6-0.3-8.4c-0.1-2.2-0.2-4.3,0-6.5c0.2-2.4,1-4.8,1.6-7.1
				c1.1-4.1,1.2-8.2,1.2-12.4c0.1-4.6,0.1-9.3,0.2-13.9c9.6,0,19.3-0.7,28.8-2.2c0.4,4.3,0.7,8.7,2,12.8c1.3,4.4,4.1,8.1,5.4,12.5
				c1.4,4.6,1.7,9.6,2.3,14.3c0.6,4.7,1.7,9.6,1.4,14.3c-6.9-1.5-14-1.4-21.1-1.7C401.4,212.3,394.2,211.7,387.1,210.8z"/>
			<path class="st2" d="M135.7,212.9H98.6c-1.1,0-2-0.9-2.1-1.9L89.4,145c-0.1-1,0.7-1.9,1.7-1.9h37.1c1.1,0,2,0.9,2.1,1.9l7.1,66.1
				C137.6,212.1,136.8,212.9,135.7,212.9z"/>
			<path class="st3" d="M115.4,205.9c1.1-0.9,2-1.9,2.6-3.1c1.1-2.3,0.8-5-1.4-6.5c-1.4-1-3.1-1.3-4.8-1.2c1.8-1.6,3-3.6,1.8-6
				c-1.7-3.4-6.1-3.4-9.3-2.5c-2.4,0.6-11,2.1-13.1,3.3c1.3-1.6,6.5-7.5,7.8-8.6c1.8-1.5,9.7-3.2,11.8-4c4-1.7,13.3-6.3,9.6-11.3
				c-1.1-1.5-3.4-0.6-5.5,0.5c-3.6,2-6.7,2.4-10.4,3.2c-3.5,0.7-7,1.5-10.3,2.9c-3.1,1.4-5.1,4.1-7.4,6.4
				c-4.1,4.3-10.6,6.2-12.2,12.1c-1.6,4.1-3,40.7-3.6,53.3c0,0,0,0,0,0c-0.5-0.1-0.7,0.7-0.2,0.8c0.1,0,0.1,0,0.2,0
				c0,0.3,0,0.6,0,0.8c0,0.5,0.8,0.5,0.8,0l0-0.7c3.4,0.7,6.9,1.3,10.4,1.7c1.6,0.2,3,4.3,4.6,4.1c1.3-0.2,1.9-1.1,2.8-2.1
				c2.4-2.7-1.2,3.4,1.9,1.6c2.8-1.6,9.9-8.8,11.4-11.7c3.7-7,3-15,2.6-17.8c0.9-0.6,1.8-1.1,2.6-1.7c3.3-2.1,6.8-2.7,9.2-5.9
				c1.6-2.2,3-3.8,1.1-6.1C117.7,206.4,116.6,206,115.4,205.9z"/>
			<path class="st6" d="M86.6,190.9c-2.1,0.9-4.4,1.6-6.3,2.8c-1.6,1.1-2.3,2.5-2.9,4.3c-0.2,0.5,0.6,0.7,0.8,0.2
				c0.7-2.1,1.6-3.5,3.7-4.5c1.6-0.8,3.3-1.4,5-2.1C87.3,191.4,87.1,190.7,86.6,190.9z"/>
			<path class="st6" d="M109.6,194.7c-5.1,2.4-10.4,4-15.8,5.4c-4,1-8.1,2.7-9.9,6.7c-0.2,0.5,0.5,0.9,0.7,0.4c2.1-4.8,7.5-5.8,12-7
				c4.6-1.2,9.1-2.8,13.4-4.9C110.5,195.2,110.1,194.5,109.6,194.7z"/>
			<path class="st6" d="M113.4,204.4c-4.9,1.9-9.8,3.9-14.8,5.8c-3.2,1.2-6.9,2.6-7.6,6.4c-0.1,0.5,0.7,0.7,0.8,0.2
				c0.8-4.4,6.4-5.6,10-6.9c4-1.6,7.9-3.1,11.9-4.7C114.1,205,113.9,204.3,113.4,204.4z"/>
			<path class="st4" d="M317.9,112.4c0-1.1-0.1-2.3-0.2-3.4c-1.2,0.1-2.4,0.2-3.6,0.2c-1.4,0-2.8,0-4.2-0.1c-0.6,0-1.4-0.3-2,0.1
				c-2,1.2,3.4,6.3,4.4,7.1c1.3,1.1,2.8,2.1,4.5,2.6c0.4,0.1,0.9,0.3,1.5,0.4C318.1,117,318,114.7,317.9,112.4z"/>
			<path class="st6" d="M315.8,99c-1.6,0.3-3.1,0.9-4.5,1.7c-0.4,0.2,0,0.9,0.4,0.7c1.4-0.8,2.8-1.3,4.4-1.7
				C316.5,99.6,316.3,98.9,315.8,99z"/>
			<path class="st6" d="M443.8,99.3c-1.2,2.5-2.1,5.2-3.3,7.7c-1.3,2.7-3.1,4.9-5.2,7c-2.1,2.2-4.4,4.4-6.8,6.2
				c-1.3,1-3.2,1.9-4.8,1c-1.9-1.1-1.3-3.6-1-5.4c0.5-0.3,1.1-0.8,1.5-1.2c2.3-2,4.6-4.2,6.9-6.3c2-1.8,4-3.6,5.2-6
				c1.4-2.7,2.4-5.7,3.5-8.5c0.2-0.5-0.6-0.7-0.8-0.2c-1,2.3-1.9,4.7-2.9,7c-1,2.4-2.4,4.2-4.3,5.9c-1.8,1.7-3.6,3.3-5.5,5
				c-1.5,1.4-6.9,6.9-7.7,2.1c-0.4-2.4,1.9-4.9,3.3-6.6c1.2-1.4,2.6-2.8,3.7-4.3c0.6-0.8,1.2-1.7,1.7-2.7c-0.3,0.2-0.5,0.4-0.8,0.6
				c-0.2,0.1-0.4,0.2-0.6,0.3c-1.3,2-3,3.7-4.5,5.5c-1.7,2-6.2,7.7-1.9,9.6c0.8,0.3,1.5,0.3,2.2,0c-0.3,2.2-0.6,4.8,1.9,5.8
				c2.9,1.1,5.6-1.4,7.6-3.2c2.9-2.5,5.9-5.2,8.1-8.4c2.3-3.3,3.3-7.2,5-10.8C444.7,99.2,444,98.8,443.8,99.3z"/>
			<path class="st6" d="M446.4,106.8c-1.8,3.5-3.6,7.2-6.2,10.1c-2.5,2.7-5.5,4.9-8.5,6.9c-0.4,0.3,0,1,0.4,0.7
				c3.1-2.1,6.1-4.3,8.6-7.1c2.7-3,4.5-6.7,6.3-10.3C447.3,106.7,446.6,106.3,446.4,106.8z"/>
			<path class="st6" d="M434.5,91.1c-1.7-1.4-4.6-0.4-6.5,0.1c-3.1,0.8-6.1,1.6-9.1,2.7c-6.5,2.4-12.5,5.9-16.9,11.3
				c-0.3,0.4,0.2,0.9,0.6,0.6c3.5-4.3,8-7.4,13-9.6c2.6-1.2,5.2-2.1,7.9-2.9c2.6-0.8,5.4-1.8,8.1-2c0.5,0,1.4-0.1,1.8,0.1
				c0.5,0.3,0.6,0.5,0.8,0.9c0.6,0.5,0.4,1.2,0.1,1.8c-0.3,0.6-0.7,1.1-1.2,1.5c-1.2,1.2-2.7,2.2-4.1,3.2c-2.6,1.9-5.3,3.6-8,5.4
				c-2,1.3-3.6,2.8-4.6,4.9c-1.1,2.4-1.4,5.1-2.3,7.6c-2.2,6.2-6.5,11.4-12.1,14.8c-0.4,0.3,0,0.9,0.4,0.7
				c5.1-3.2,9.2-7.8,11.6-13.2c1.3-2.8,1.7-5.9,2.8-8.8c1.5-3.9,5.1-5.6,8.4-7.8c2.9-1.9,6.2-3.9,8.7-6.4
				C435.1,94.6,436.2,92.5,434.5,91.1z"/>
			<path class="st2" d="M448.5,284.8c-2.6-14.5-5.3-29.1-7.9-43.6c-3-16.3-6.1-32.5-10.8-48.4c-0.1-0.2-0.3-0.3-0.5-0.3
				c-15.1,3.9-30.8,4.6-46.2,2c-0.2,0-0.5,0.1-0.5,0.4l2.9,49.4c-9.4-5.4-17.6-13.3-25.4-20.5c-12.6-11.6-26.1-23.4-43.2-27.4
				c-2-0.5-4.1-0.8-6.2-1.1c-1-0.2-2.1-0.4-3.1-0.5l-1.1-0.1c-3.4-0.4-6.8-0.8-10.2-1.7c-3.5-0.9-6.9-2-10.2-3.2v0
				c0-0.5-0.6-0.5-0.8-0.1c-0.2,0.1-0.2,0.5,0,0.6c0,9.8,0.5,19.5,2.4,29.1c2,10,5,19.8,7.9,29.5c6.1,20.1,11.9,40.3,17.4,60.5
				c1.1,4.1,2.2,8.3,3.3,12.4h128.8c3-5.3,4.8-11,5.1-17.2C450.7,297.9,449.7,291.3,448.5,284.8z"/>
			<path class="st2" d="M209.4,180.8c-0.2,0-0.4,0.1-0.6,0.1c-7.2,1.7-14.3,3.4-21.5,5.2c-0.6,0.1-1.3,0.3-1.9,0.5
				c-8,1.9-16.1,3.7-23.9,6.4c-6.5,2.2-12.8,5.2-17.6,10.2c-4.5,4.7-7.5,10.4-10.4,16.1c-6.5,12.9-12.7,26-18.6,39.2
				c-5.7,12.7-11.1,25.5-16.3,38.5c-0.9,2.2-1.8,4.5-2.6,6.7c-2.3,6-4.6,11.9-6.8,17.9H208c0.3-2.9,0.6-5.7,0.8-8.6
				c0.1-0.9,0.2-1.7,0.2-2.6C212.9,267.4,213,224,209.4,180.8z"/>
			<path class="st2" d="M97.2,320c0.1-1.4,0.1-2.9,0.1-4.3c0-3.9-0.3-8-1.3-11.9c-0.2-0.7-0.3-1.4-0.5-2.1c0,0,0-0.1,0-0.1
				c-0.1-0.3-0.2-0.5-0.2-0.8c0,0,0-0.1,0-0.1c-0.1-0.4-0.2-0.7-0.4-1.1c-0.7-2-1.6-3.9-2.7-5.6c-1.4-2.2-3.2-4.2-5.5-5.9
				c-0.8-0.6-1.6-1.1-2.5-1.6c-9-4.8-20-0.2-27.8,6c-1.5,1.2-2.9,2.5-4.1,3.8c-0.2,0.2-0.4,0.4-0.6,0.6c-6.4,7-10.4,15.8-13.6,24.7
				h59.2C97.3,321,97.2,320.4,97.2,320z"/>
			<path class="st2" d="M142.6,248.5c-0.2,5.9-1.3,11.8-2.3,17.7c-0.9,5.5-1.8,11.1-2.8,16.6c-1.3,8-3,17.1-9.3,22.8
				c-4,3.6-9.3,4.7-14.5,5.2c-5.6,0.5-11.3,0.5-16.9,0.2c-5.8-0.3-12.7-0.8-14.8-7.3c-0.8-2.7-1.1-5.5-1.6-8.3
				c-0.5-3.1-1-6.1-1.5-9.2c9.8,1.5,19.3-3.6,25.6-10.9c7.7-8.8,11.9-20.2,16.6-30.7c3.1-6.8,6.9-13.2,9.9-20
				C140.4,228.8,142.8,239.1,142.6,248.5z"/>
			<path class="st3" d="M97.3,321.7H53.4c0.1-7.6,0.4-15.2,1.7-22.8c0.3-1.7,1.3-1.4,1.9-3.8c2.3-9.7,12.1-36.6,15.7-59
				c7,0.5,15.1-2.9,22.1-2.4c-1.5,9.9-3.3,32.4-2.7,47.7c0.4,9.6,2.1,15.8,2.8,18.3c0.2,0.5,0.3,0.9,0.4,1.1c0,0.1,0,0.1,0,0.1
				c0.1,0.3,0.2,0.5,0.2,0.8c0,0,0,0.1,0,0.1c1.3,4.5,1.8,9.4,1.8,14c0,1.4,0,2.9-0.1,4.3C97.2,320.4,97.2,321,97.3,321.7z"/>
			<path class="st4" d="M272.6,199.5c-0.1-7.7-0.5-15.5-0.9-23.2c-0.1-2.6-0.2-5.2-0.3-7.8c0-0.2-0.2-0.4-0.4-0.4
				c-0.6,0.1-1.1,0.1-1.7,0.2c-5.9,0.6-11.8,0.8-17.7,0.7c-0.3,0-0.5,0-0.8,0c-7.6-0.2-15.3-1-22.8-2.5c-0.8-0.2-1.7-0.3-2.5-0.5
				c-0.2,0-0.4,0-0.4,0.2c-1.7,3.3-3.6,6.4-5.8,9.3c-0.8,1.1-1.6,2.1-2.4,3.1c-0.1,0-0.1,0.1-0.2,0.2c-0.2,0.2-0.4,0.5-0.6,0.7
				c-0.3,0.3,0,0.7,0.3,0.7c-1,7.6,3.3,14.4,6.5,21.1c0.9,2,1.7,4,2.4,6c0.5,1.5,0.9,3.1,1.9,4.3c2.1,2.5,5.8,3,8.8,3.4
				c6.1,0.9,12.2,1,18.3,0.5c0.3,0,0.5,0,0.8-0.1c2.2-0.2,4.3-0.5,6.5-0.9c3-0.6,7.6-0.7,9.2-3.9
				C272.6,207.4,272.7,203.2,272.6,199.5z"/>
			<path class="st7" d="M274.6,321.7h-0.8c-2.7-25.1-8.4-49.8-13.5-74.5c-2.1-10.5-4.2-21.1-5.8-31.7c-2.3-15.4-3.9-30.9-3.7-46.6
				c0.3,0,0.5,0,0.8,0c-0.2,14.8,1.2,29.6,3.3,44.2c0.1,0.7,0.2,1.5,0.3,2.2c4,26.3,10.5,52.2,15.2,78.4
				C272.2,303.1,273.6,312.4,274.6,321.7z"/>
			<path class="st8" d="M375.4,320.2c0.2,0.5,0.4,1,0.6,1.6h-0.8c-0.5-1.2-1-2.5-1.5-3.8c-2.5-6.4-4.6-12.9-6.8-19.4
				c-4.6-13.5-9.1-27-13.7-40.5c-0.2-0.5,0.6-0.7,0.7-0.2c2.6,7.6,5.1,15.2,7.7,22.8C366.1,293.9,370.1,307.3,375.4,320.2z"/>
			<path class="st8" d="M388.9,321.7h-0.8c-2.4-24.9-3.3-49.8-2.6-74.8c0-0.5,0.8-0.5,0.8,0C385.6,271.9,386.5,296.9,388.9,321.7z"/>
			<path class="st8" d="M398.6,217.2c-4,0-4,6.2,0,6.2C402.7,223.5,402.7,217.2,398.6,217.2z"/>
			<path class="st7" d="M400.2,172.4c-4,0-4,6.2,0,6.2C404.3,178.7,404.3,172.4,400.2,172.4z"/>
			<path class="st8" d="M109.4,151.3c-4.2,0-4.2,6.5,0,6.5C113.6,157.8,113.6,151.3,109.4,151.3z"/>
			<path class="st7" d="M258.3,181.1c-4,0-4,6.2,0,6.2C262.4,187.4,262.4,181.1,258.3,181.1z"/>
			<path class="st7" d="M263.3,216.6c-4,0-4,6.2,0,6.2C267.4,222.8,267.4,216.6,263.3,216.6z"/>
			<path class="st7" d="M270.2,248.7c-4,0-4,6.2,0,6.2C274.3,254.9,274.3,248.7,270.2,248.7z"/>
			<path class="st7" d="M276.5,286.7c-4,0-4,6.2,0,6.2C280.5,293,280.5,286.7,276.5,286.7z"/>
			<path class="st8" d="M163.7,321.7H163c-2.7-20.8-5.1-41.7-7.2-62.6c-0.1-0.5,0.7-0.5,0.8,0C158.6,280,161.1,300.9,163.7,321.7z"/>
			<path class="st8" d="M125,321.7h-0.8c-3.4-12.8-10.7-24.5-21-33.1c-0.4-0.3,0.2-0.9,0.6-0.6C114.2,296.8,121.6,308.7,125,321.7z"/>
			<path class="st8" d="M209.4,180.8c-0.2,0-0.4,0.1-0.6,0.1c-7.2,1.7-14.3,3.5-21.5,5.2c-1.3,8.9-2.7,17.7-4,26.6
				c-0.4,2.9-0.9,5.8-1.3,8.7c-0.4,2.3-1.4,5.4-0.5,7.7c1.2,3.2,7-1.4,8.6-2.5c2.3-1.5,4.5-3,6.7-4.6c0.3-0.2,0.7,0.1,0.6,0.4
				c-2.4,7.6-9.2,13.8-9.7,22.1c-0.2,4.7,1.6,9.3,3,13.8c1.3,4.3,2.7,8.6,4,12.9c2.5,8.2,5,16.4,7.7,24.6c1.9,5.8,4,11.6,6.2,17.3
				c0.1-0.9,0.2-1.7,0.2-2.6C212.9,267.4,213,224,209.4,180.8z"/>
			<path class="st8" d="M321.3,290.3c-0.1-8.6-0.5-17.2-0.8-25.8c-0.1-4.5-0.3-9-0.4-13.5c-0.2-4.6,0.1-9.6-1.7-14
				c-3.1-7.6-11.6-11.3-16.3-17.7c-0.2-0.3,0.1-0.7,0.4-0.6c2.6,0.8,5.2,1.5,7.9,2.1c1.9,0.5,8.9,3,9-0.5c0-2.5-1.9-5-3-7.1
				c-1.4-2.6-2.7-5.2-4.1-7.8c-1.9-3.6-3.8-7.3-5.7-10.9c-3.4-0.4-6.8-0.8-10.2-1.7c-3.5-0.9-6.9-2-10.2-3.2v0
				c0-0.5-0.6-0.5-0.8-0.1c-0.2,0.1-0.2,0.5,0,0.6c0,9.8,0.5,19.5,2.4,29.1c2,10,5,19.8,7.9,29.5c6.1,20.1,11.9,40.3,17.4,60.5
				c1.1,4.1,2.2,8.3,3.3,12.4h3.7C321.2,311.3,321.4,300.8,321.3,290.3z"/>
			<polygon class="st8" points="133.7,212.9 133,212.9 125.2,143.1 125.9,143.1 			"/>
			<path class="st5" d="M298.6,23.2c-6.6-2.4-51.9-12.5-74.1,3.2c-4.7,3.3-8.6,7.5-11.6,12.4c-3.4,5.5-6.4,11.9-7.3,18.4
				c-0.4,2.9-0.3,5.8,0.5,8.6c0.4,1.5,1.1,2.9,1.6,4.4c0.7,2.2,0.7,4.2,0.2,6.4c-1.5,5.9-3.2,11.7-1.9,17.9
				c1.2,5.8,5.2,9.9,9.4,13.7c4,3.6,8.3,7.1,10.1,12.3c0,1-0.1,1.9,0,2.9c0.3,1.8,1.4,3.4,3.1,4c2.1,0.8,4.5,0.2,6.5-0.6
				c2.2-0.8,4.4-1.7,6.5-2.7c4.1-1.9,8-4.3,10.8-7.9c3.2-4.1,4.4-9.2,5-14.2c1.2-10.4,0-25.5,12-30.2c4-1.6,7.9-2.5,10-6.8
				c2-4.3,1.5-9.1,1.5-13.6c0-3.2,0.3-6.6,2-9.4c1.6-2.7,4.2-4.6,7.1-5.7c6.6-2.6,13.8-1.1,20.4,0.3c0.2,0.1,0.5-0.1,0.5-0.4
				C310.3,29.9,304.3,25.3,298.6,23.2z"/>
			<path class="st3" d="M273.1,82.2c-1.7-4.9-7.9-9.4-13.1-9c-5.4,0.4-8.2,5.8-8.5,10.6c-0.4,5.6,2,11.8,6.9,14.8
				c4.7,2.8,10.9,2.3,14.5-2.1C275.9,93,278.4,84.6,273.1,82.2z"/>
			<path class="st6" d="M265.8,85.1c-1.9-3-4.4-6.7-8.4-6.2c-0.5,0.1-0.5,0.8,0,0.8c3.3-0.4,5.5,2.4,7.2,5
				c-5.1-0.7-5.1,10.2-0.1,8.3c0.5-0.2,0.3-0.9-0.2-0.8c-3.8,1.4-4-8.5,1.1-6.5C265.7,85.8,266,85.4,265.8,85.1z"/>
			<path class="st5" d="M235.8,114.6c-2.6-0.7-7.8,1.2-9.9-1.2c-0.1-0.7-0.2-1.4-0.3-2.2c-0.1-0.5-0.8-0.3-0.8,0.2
				c0,0.1,0,0.3,0.1,0.4c-0.2,0-0.5,0.2-0.4,0.5c0.2,0.6,0.4,1,0.7,1.4c1,6.7,1.4,13.9-2.6,19.8c-3.9,5.7-10.6,8.9-17,11
				c-6.6,2.2-13.5,3.7-19.6,7c-5,2.7-9.5,6.3-13.3,10.6c-7.3,8.3-12,18.9-13,30c-1.2,13.8,5,26,9.7,38.6c3.1,8.2,4.8,16.6,4.8,25.5
				c0,9.1-1.3,18.2-2.7,27.2c0,0.2,0,0.4,0.2,0.4c3.4,1.6,6,0,7.9-2.6c-0.4,1.9-0.4,3.8,0.6,4.9c1.8,1.9,5.7,1.1,7.8,0.3
				c4.5-1.9,6.2-6.1,6.9-10.7c1.4,3.3,5.4,4.7,9,4.3c5.6-0.6,8.8-5.8,10.5-10.6c2.6-7.2,3.9-15,5-22.5c1.2-7.7,1.9-15.4,1.7-23.2
				c-0.1-7.7-1-15.4-2.8-22.8c-1-3.9-2.3-7.7-3.8-11.5c-1.4-3.6-3-7.2-3.8-10.9c-0.9-4.1-0.9-8.4,1.3-12.1c1.9-3.2,4.9-5.6,7.7-7.9
				c5.2-4.4,9.6-9.7,13-15.7c3.6-6.5,6.1-13.8,6.7-21.2C239.6,118.6,239,115.4,235.8,114.6z"/>
			<path class="st2" d="M187.3,205.8c-0.2-0.5-0.9-0.1-0.7,0.4c8.5,19.4,10.6,41.3,5.9,61.9c-0.1,0.5,0.6,0.7,0.8,0.2
				C197.9,247.5,195.8,225.4,187.3,205.8z"/>
			<path class="st2" d="M185.5,247.2c-0.1-0.5-0.8-0.5-0.8,0c1.1,9.8-0.1,19.7-3.5,29c-0.2,0.5,0.6,0.7,0.8,0.2
				C185.4,267,186.6,257.1,185.5,247.2z"/>
			<path class="st2" d="M219.2,147.8c-10.1,8-19.5,19.3-17.3,33.1c0.1,0.5,0.8,0.3,0.8-0.2c-2.1-13.5,7.3-24.5,17.1-32.3
				C220.2,148,219.6,147.5,219.2,147.8z"/>
			<path class="st2" d="M239.1,125.1c-4.6-2-9.2-4-13.8-6c-0.2-0.1-0.5,0-0.6,0.2c-0.3,1.1-0.8,2.5-1,3.6c0,0.2,0.1,0.4,0.3,0.5
				c0.1,0,10.4,4.7,13.8,6.2c0.2,0.1,0.5,0,0.6-0.2c0.3-1.3,0.5-2.5,0.8-3.8C239.4,125.3,239.3,125.1,239.1,125.1z"/>
			<path class="st5" d="M301.7,48.8c-4,3.1-8.2,5.6-11.5,9.6c-5.9,7.3-11.4,20.4-23.2,17.2c-2.5-0.7-4.8-2-7-3.4
				c-2.7-1.7-5.3-3.2-5.2-6.8c0.1-4.8,2.6-10.2,5-14.3c5.1-8.8,13.3-15.6,23-18.9c5.3-1.8,11.1-2.8,16.6-2.2c2.7,0.3,5.4,1,7.6,2.4
				c1,0.6,2,1.4,2.7,2.3c0.4,0.5,0.6,0.9,1,1.3C309,41.2,305.9,45.5,301.7,48.8z"/>
			<path class="st2" d="M245.2,89c0-0.5-0.8-0.5-0.8,0c0.2,4.6,0.9,9.6-0.1,14.1c-1,4.4-3.4,8.4-6.7,11.4c-0.4,0.3,0.2,0.9,0.6,0.5
				c3.3-3,5.7-6.8,6.8-11.1C246.1,99.1,245.4,93.9,245.2,89z"/>
			<path class="st2" d="M229.7,113.2c0-1.4,0-2.8,0-4.2c0-2.9,0-5.9,0-8.8c0-0.5-0.8-0.5-0.8,0c0,2.6,0,5.1,0,7.7c0,1.2,0,2.3,0,3.5
				c0,0.6,0,1.3,0,1.9c0,0.3,0,0.5,0,0.8c-0.1,0.3-0.1,0.5,0,0.7c-0.3-0.1-0.6,0.1-0.5,0.5c0,0.1,0,0.1,0.1,0.2
				c0.1,0.2,0.2,0.3,0.4,0.3l0.3,0c0.1,0,0.3-0.1,0.3-0.2C229.8,114.8,229.6,113.9,229.7,113.2z"/>
			<path class="st2" d="M291.7,41c-4.2-0.3-6.6,3.3-8.6,6.5c-1.5,2.3-3.1,4.3-5.6,5.6c-2.1,1.1-4.4,1.8-6.7,2.4
				c-4.1,1.2-8.4,2.4-11.8,5.2c-3.1,2.6-4.9,6.6-4.2,10.7c0.1,0.5,0.8,0.3,0.8-0.2c-0.9-5,2.4-9.3,6.5-11.7
				c3.7-2.1,7.8-2.8,11.8-4.1c3.1-1,6.1-2.5,8.2-5.2c2.6-3.3,4.5-8.8,9.5-8.5C292.2,41.8,292.2,41,291.7,41z"/>
			<path class="st2" d="M252.5,51c-7.1,5.3-7.3,15-2.8,22.1c0.3,0.4,0.9,0,0.7-0.4c-4.3-6.7-4.2-15.9,2.5-21
				C253.3,51.4,252.9,50.7,252.5,51z"/>
			<path class="st4" d="M101.2,300.7c-0.6-1.4-1.5-2.6-2.5-3.7c-0.5-0.5-1-1.1-1.5-1.6c-2.2-2.2-3.6-4.7-4.3-7.7
				c-0.1-0.4-0.7-0.3-0.7,0.1c0.3,2.1,0.2,4.1,0,6.1c-1.2,8.2-7,15.4-15.4,17.8c-4.9,1.4-10.3,1.1-14.8-1.4
				c-7.9-4.4-6.4-13.9-6.3-14.1c0.1-0.4-0.6-0.6-0.7-0.2c0,0-3.1,11.4-4.3,16.6c-0.7,3-1.5,6-1.7,9.1h53.2c0.5-2.5,0.7-5,0.7-7.5
				C102.8,309.9,103,304.8,101.2,300.7z"/>
			<path class="st7" d="M94.4,309.1c-4,0-4,6.2,0,6.2C98.4,315.3,98.4,309.1,94.4,309.1z"/>
		</g>
	</g>
</switch>

</svg>
