<?xml version="1.0" encoding="utf-8"?>
<!-- Generator: Adobe Illustrator 27.1.1, SVG Export Plug-In . SVG Version: 6.00 Build 0)  -->










<svg version="1.1" id="Layer_1" xmlns="http://www.w3.org/2000/svg" xmlns:xlink="http://www.w3.org/1999/xlink" x="0px" y="0px" viewBox="0 0 500 321.2" style="enable-background:new 0 0 500 321.2;" xml:space="preserve">
<style type="text/css">
	.st0{fill:#E8A14D;}
	.st1{fill:#C48437;}
	.st2{fill:#215742;}
	.st3{fill:#402525;}
	.st4{fill:#FFAB85;}
	.st5{fill:#FFFFFF;}
	.st6{fill:#C77B56;}
	.st7{fill:#B35630;}
	.st8{fill:#FFCD91;}
	.st9{fill:#91573A;}
	.st10{fill:#CC9172;}
	.st11{fill:#664141;}
</style>
<switch>
	
	<g>
		<g>
			<path class="st0" d="M500,43.4v234.4c0,23.9-19.4,43.4-43.4,43.4H43.4C19.4,321.2,0,301.7,0,277.8V43.4C0,19.4,19.4,0,43.4,0
				h413.3c8.4,0,16.2,2.4,22.8,6.5c9.8,6.1,17,16,19.6,27.6C499.7,37.1,500,40.2,500,43.4z"/>
			<path class="st1" d="M421.7,110c-10.2,8.8-23.1,10.4-36.1,8.8c-13.6-1.7-22.7-12-26.9-24.5c-3.6-10.9-4.7-22.9-4.3-34.6h87.2
				C440.8,78.5,436.6,97.1,421.7,110z"/>
			<path class="st1" d="M400.4,39.5c-3.1-4.3-7.4-6.8-12.6-7.6c-2.9-0.4-6.1-0.4-8.4-2.6c-1.5-1.5-2.2-3.6-2.6-5.6
				c-1.6-7.6,0.7-17.8-5.8-23.6c-0.1,0-0.1-0.1-0.2-0.2h-68.1c0.5,0.5,1.1,1,1.7,1.4c5.4,3.8,12,4.1,18.4,4.3
				c6.1,0.2,12.1,0.5,13.7,7.4c1.9,7.9-0.2,19.4,9.9,22.1c2.6,0.7,5.3,0.5,8,0.7c4.1,0.3,6,2.1,6,6.4c0,5.8,0.1,10.9,5.6,14.1
				c4.7,2.8,10.4,2.9,15.5,4.7c6.8,2.3,11.9,8.1,13.7,15c0.3,1.1,1.1,1.6,2,1.6c1.1,0.3,2.5,0,2.9-1.4
				C404.4,64.5,408.6,50.6,400.4,39.5z"/>
			<path class="st1" d="M479.4,6.5c-2,1.7-4.1,3.4-6.4,4.7c-1.8,1.1-3.8,1.9-5.9,2.2c-3.1,0.4-6.2-0.6-9.3-0.5
				c-5.8,0.3-8.7,4.5-11.6,9c-3.8,5.8-7.2,12.6-11.8,17.8c-2.4,2.8-5.6,3.2-9,4c-2.6,0.6-5.2,1.6-7.4,3.1
				c-9.4,6.1-12.6,16.8-14.5,27.3c-1.2,0.7-1.9,2.3-0.6,3.5c0,0,0,0,0,0c-0.1,0.6-0.2,1.1-0.3,1.7c-0.4,2.8,3.9,4,4.3,1.2
				c0-0.1,0-0.3,0.1-0.4c2.4,0.8,5.1,0.7,7.6-0.1c4.8-1.6,8-5.6,10.5-9.8c2.7-4.5,4.8-10.2,9.5-13.1c5.3-3.3,12.2-1.2,18.1-2.6
				c4.8-1.2,8.6-4.4,11.6-8.2c1.4-1.8,2.6-3.6,3.7-5.6c1.1-2,2.1-5.3,4-6.8c2.4-1.8,7.4-0.4,10.1-0.1c3.4,0.3,6.8,0.7,10.3,0.7
				c2.2,0,4.4-0.1,6.5-0.4C496.5,22.4,489.3,12.5,479.4,6.5z"/>
			<path class="st2" d="M263.5,318.2c-9.9-33.4-22.6-66-38-97.2c-7.2-14.6-14.8-29.1-23.4-42.9c-8-12.7-17.2-25-28.8-34.6
				c-5.6-4.7-11.9-8.8-18.6-11.7c-6.9-3-15.7-4.9-22.5-0.7c-0.1,0.1-0.3,0.2-0.4,0.3c0,0-0.1,0-0.1,0.1c-7.1,4.7-9.6,14.5-9.6,22.5
				c0,8.7,2.7,17.2,6.7,24.8c3.9,7.4,8.8,14.1,13.8,20.7c5.4,7.1,10.8,14.3,16.1,21.4c7.4,10,14.8,20.1,22.1,30.2
				c3.4,4.7,6.7,9.4,10.1,14.1c4.4,6.2,8.8,12.5,13.2,18.8c0.1,0.2,0.2,0.3,0.4,0.5c5,7.2,10,14.4,14.9,21.6c3.4,5,6.8,10,10.2,15.1
				h34.8C264,320.2,263.7,319.2,263.5,318.2z"/>
			<polygon class="st1" points="500,118.4 500,122.9 0,122.9 0,118.4 			"/>
			<path class="st2" d="M220.5,302.2c-4.6-6.6-9.4-13.2-14.3-19.6c-0.1-0.2-0.3-0.3-0.4-0.5c-8-10.6-16.4-20.9-25.2-31
				c-1.4-1.6-2.8-3.2-4.2-4.7c-10.8-12.2-22-24.2-33.9-35.2c-11.1-10.2-23.2-19.5-36.9-25.7c-6.7-3-13.8-5.3-21-6.3
				c-2.5-0.4-5.1-0.5-7.7-0.4c-5,0.2-9.9,1.6-13.5,5c-0.2,0.1-0.3,0.3-0.5,0.5c-0.2,0.2-0.4,0.4-0.6,0.6c-1.8,2.1-3.1,4.6-3.8,7.3
				c-1.4,5-1.1,10.6,0,15.5c0.1,0.6,0.3,1.1,0.4,1.6c2.3,8.4,7.2,15.8,13.1,22.2c1.6,1.7,3.2,3.3,4.9,4.8c4.4,4.1,9.2,7.8,13.9,11.4
				C98,253,105,258.5,112.1,264c10.9,8.6,21.8,17.2,32.7,26h0c3.3,2.7,6.7,5.4,10,8.2c6.5,5.3,12.9,10.6,19.3,15.9
				c0.2,0.1,0.3,0.3,0.5,0.4c2.6,2.2,5.3,4.4,7.9,6.6h50.7C229.1,314.8,224.9,308.5,220.5,302.2z"/>
			<path class="st2" d="M179.3,309.7c-0.2-0.1-0.4-0.2-0.6-0.3c-10.3-6.3-20.7-12.2-31.3-17.9c-0.9-0.5-1.8-1-2.7-1.4h0
				c-13.5-7.1-27.3-13.9-41.4-19.7c-13.9-5.7-28.5-10.2-43.6-11.3c-0.4,0-0.8-0.1-1.2-0.1c-6.9-0.4-14,0-20.7,1.4
				c-7.1,1.5-14.9,4.9-18.3,11.7c-0.1,0.2-0.2,0.4-0.3,0.6c-0.1,0.3-0.2,0.5-0.3,0.8c-3.1,8,0.6,17.5,5.3,24
				c5.1,7.1,12.2,12.4,20,16.2c4.6,2.3,9.5,4.2,14.4,5.8c1.6,0.5,3.2,1.1,4.8,1.6h133.9C191.4,317.2,185.4,313.4,179.3,309.7z"/>
			<path class="st3" d="M113.6,305.4c11.8,5,23.5,10.3,35.1,15.8h-1.5c-2.1-1-4.2-2-6.3-2.9c-21.2-9.9-42.9-18.8-64.8-26.9
				c-18.7-6.9-37.7-13.1-56.9-18.6c0.1-0.2,0.2-0.4,0.3-0.6c9.5,2.7,18.9,5.6,28.2,8.7C70,288.1,92,296.3,113.6,305.4z"/>
			<path class="st3" d="M239.5,280.9c-4.1-6.2-8.2-12.5-12.3-18.7c-5.9,5.7-11.8,11.4-17.7,17.1c-1.1,1.1-2.2,2.2-3.3,3.2
				c-0.6,0.6-1.3,1.3-1.9,1.9c-4.3,4.2-8.5,8.5-12.8,12.8c1.9,2.2,3.8,4.4,5.7,6.6c0.3,0.3-0.2,0.8-0.5,0.4
				c-1.9-2.2-3.8-4.4-5.7-6.6c-3.9,4-7.9,8-11.8,12c-1.6,1.6-3.2,3.2-4.7,4.8c-2.2,2.2-4.3,4.4-6.4,6.6h-0.9c2.3-2.4,4.5-4.7,6.8-7
				c1.5-1.6,3.1-3.2,4.7-4.8c3.4-3.5,6.8-6.9,10.2-10.4c0.6-0.6,1.1-1.1,1.7-1.7c-7.4-8.4-14.9-16.6-22.7-24.6
				c-17.7-18.2-36.4-35.4-56-51.4c-15.8-12.9-32.3-25.1-49-37c0.2-0.2,0.3-0.3,0.5-0.5c7.1,5.1,14.2,10.2,21.3,15.5
				c20.7,15.4,40.7,31.7,59.6,49.3c16.4,15.3,32.1,31.4,46.9,48.3c4.3-4.3,8.6-8.6,12.9-12.8c0.6-0.6,1.3-1.3,1.9-1.9
				c6.9-6.9,13.9-13.7,20.9-20.4c-4-6-8-11.9-12.1-17.9c-14.8-21.7-30.1-43-45.8-64c-12.2-16.3-24.6-32.4-37.3-48.3
				c0,0,0.1,0,0.1-0.1c0.1-0.1,0.3-0.2,0.4-0.3c5.4,6.8,10.8,13.7,16.2,20.6c16.1,20.8,31.8,41.9,47,63.3
				c10.9,15.3,21.5,30.7,31.9,46.3c2.7-2.6,5.4-5.2,8.2-7.8c0.3-0.3,0.7,0.2,0.5,0.4c-2.8,2.6-5.5,5.3-8.3,7.9
				c4.2,6.2,8.3,12.5,12.4,18.8C240.3,280.9,239.7,281.2,239.5,280.9z"/>
			<path class="st3" d="M330.1,56.1c-0.2-2.2-1.5-4.1-2.8-5.9c-1.8-2.7-2.7-5.2-2.8-8.5c0-2.6,0.2-5.2-0.3-7.7
				c-0.5-2.2-1.4-4.3-2.8-6.1c-2.6-3.5-6.5-6-10.9-6.7c-4.8-0.9-9.7,0.2-13.9,2.5c-0.1-0.3-0.3-0.5-0.4-0.7c-0.3-0.4-0.8,0-0.6,0.4
				c0.2,0.2,0.3,0.5,0.4,0.7c-0.5,0.3-0.9,0.6-1.3,0.9c-0.4,0.3,0,0.9,0.4,0.6c0.4-0.3,0.8-0.5,1.2-0.8c0.9,2.9-1.1,6.1-1.8,8.9
				c-0.6,2.4-0.1,4.6,1.1,6.7c1.4,2.5,3.6,4.4,5.5,6.6c2.1,2.4,3.7,5.1,5,8.1c2.4,5.7,3.5,11.8,6,17.4c0.5,1.1,1,2.2,1.6,3.2
				c0.7,1.1,1.4,2.7,2.5,3.4c0.6,0.4,1.1,0.5,1.7,0.3c0.8-0.3,1.5-0.8,2.4-1.1c0.8-0.3,1.7-0.4,2.5-0.7c2.6-0.8,4.2-2.9,4.4-5.7
				c0.3-3.1-1.3-5.9-2.9-8.4C327.7,62.8,330.5,59.7,330.1,56.1z"/>
			<path class="st3" d="M326.7,159.9c-0.6-3.8-3.6-7.5-6.1-10.4c-2.6-3.1-5.9-4.9-9.8-5.8c-2.3-0.5-4.6-0.7-6.9-1.1
				c-0.6-0.1-1.4-0.1-1.9-0.5c-1.1-0.7-0.7-1.9-0.5-3c0.2-1,0.4-2,0.5-3c0.3-4.1-0.9-8.1-3-11.7c-3.6-6.2-9.6-10.2-16.1-12.9
				c1.4-0.4,2.7-0.8,4.1-1.3c10.8-3.8,20.4-11,25.8-21.2c2.5-4.8,4.1-10.1,4.2-15.5c0.1-3.6-0.4-7.1-0.7-10.6
				c-0.4-3.5-0.5-7-0.3-10.5c0.1-1.8,0.2-3.7,0.2-5.6c1.4-3.8,2.1-8,1.4-12c-0.8-4.5-3.2-8.9-7.3-11.2c-3.7-2.2-8.4-2.5-12.3-0.5
				c-2.4-5.2-5.1-10.3-10.5-12.8c-4.8-2.3-10.5-2.3-15.2,0.2c-1.1,0.6-2.1,1.3-3.1,2.1c-0.3,0.2-0.7,0.8-1.1,1.1
				c-3.7-2.2-8.3-2.6-12.4-0.9c-2.3,0.9-4.3,2.5-5.9,4.4c-0.7,0.9-1.4,1.9-1.9,2.9c-0.3,0.6-0.5,1.3-0.8,1.8
				c-0.2,0.4-1.3,1.2-1.7,1.3c-0.5,0.1-1.8-0.3-2.3-0.4c-5.7-1-12.3-0.4-17.3,2.6c-4.3,2.6-7.3,7.1-8,12.1c-0.4,2.7-0.1,5.4,0.8,8
				c0.4,1.2,1.2,2.2,1.6,3.4c0.4,1-1.1,2.4-1.7,3.2c-2.8,4.6-3.7,10.2-2.3,15.4c1.3,4.8,4.4,9.1,8.6,11.7c1,0.6,1.9,0.8,1.9,2.3
				c0,0.5-0.3,1.2-0.4,1.7c-0.1,1.4,0.1,2.8,0.6,4.2c0.9,2.5,2.3,4.9,3.9,7.1c4.5,6.3,10.8,11,17.9,13.8c-0.6,3.3-1,6.6-1.1,9.9
				c-5.8-1.3-12.2-1.8-17.7,1.1c-4.3,2.2-7.6,6.4-8,11.3c-5.7-1.8-12.1,1-17.4,3.1c-5.4,2.2-10.8,5-14.6,9.5
				c-3.2,3.8-5.4,8.8-4.7,13.8c0.6,4.5,3.3,8.6,7.5,10.5c-4.2,5.1-4,12.4-0.9,18c3.7,6.6,11.3,10,18.5,11.1
				c18.8,3,36.7-6.5,53.3-13.9c4.5-2,9.3-4.6,14.2-5.4c4.7-0.7,9,1.2,13.3,2.8c3.7,1.3,7.5,2.2,11.4,1.6c4-0.6,7.8-2.5,11.2-4.7
				c3.4-2.3,6.6-4.9,9.4-7.9C325.4,166.5,327.3,163.4,326.7,159.9z"/>
			<path class="st4" d="M321.9,96.2c-0.3,9.7-2.4,18.3-9.8,25.8c-3.3,3.4-10.5,6.5-15.7,6.9c-5.4,0.4-10.7-0.4-15.8-2.1
				c-10.1-3.4-40.2-25.7-42.1-62.1c-0.5-9.8,9.1-17.4,16.4-24.4c7.3-7,16.9-12.5,28-13.1c10.2-0.5,17.4,0.7,23.6,8.1
				C317.3,48.3,322.5,77.5,321.9,96.2z"/>
			<path class="st5" d="M344.4,182.9c0,6.2-1.3,12.3-3,18.3c-1.6,6-3.5,11.8-5.2,17.8c-5,16.6-12.8,70.5-17.3,102.2H195.2
				c-4.5-22.8-11.9-59.2-16.5-72.4c-3.1-8.9-6.5-17.7-8.5-26.9c-1.8-8.8-2.3-18.2,1.5-26.6c3.6-7.8,10.3-13.3,17.5-17.7
				c8.1-5,16.6-9.2,25-13.7c4.6-2.5,9.3-5,14-7.4c0.2-0.1,0.4-0.2,0.6-0.3c5-2.7,10.1-5.4,15-8.3c0.3-0.2,0.5-0.3,0.8-0.5
				c0.5-0.3,1-0.6,1.5-0.9c0.6-0.4,1.2-0.8,1.7-1.1c0.9,0.7,2.1,1.1,3.6,1c3.4-0.2,6-1.7,8.3-4.2c0.6-0.7,1.3-1.3,1.9-2
				c0.2,0.1,0.4,0.2,0.8,0.4c0.8,0.4,1.5,1,2.2,1.4c3.1,2.1,6.6,3.9,10.1,5.1c3.8,1.3,7.9,0.8,11.7,2c2.3,0.7,4.2,0,5.4-1.3
				c1,0.4,2,0.8,3,1.2c4.1,1.6,8.4,2.4,12.3,3.1l0.8,0.1c0.2,0,0.3,0.1,0.5,0.1c3,0.6,5.7,1.2,7.9,2.1
				C326.2,158.5,344.4,172.8,344.4,182.9z"/>
			<path class="st6" d="M402.2,241.4c-0.5-0.8-1-1.6-1.5-2.4c-9-14.4-17.9-28.8-27.1-43.1c-4.2-6.5-8.6-12.8-14.1-18.3
				c-4.9-5-10.4-9.3-16.3-13c-5-3.1-10.3-5.7-15.8-7.7c-6.2-2.3-12.6-3.9-19.1-4.8c0,0,0,0,0,0c-6.5,11.4-12.4,23.3-17.4,35.4
				c-10.1,24.4-16.9,49.9-20.8,76.1c-1.9,13.1-3.6,26.2-5.2,39.3c-0.7,6-1.4,12.1-2.1,18.1l91.9,0c-0.3-12.1-0.2-24.3,0.4-36.4
				c0,0,0-0.1,0.1-0.1c0.2-0.3,0.4-0.4,0.7-0.4c3.1,3,4.5,2.7,8.2,4.9c1.7,1,18.5-5.5,20.9-9c4.1-6.2,7.8-12.7,11.1-19.4
				c1.7-3.6,3.3-7.2,4.8-10.9c0.7-1.7,1.3-3.4,1.9-5.2C403.2,243.2,403.1,242.6,402.2,241.4z"/>
			<path class="st4" d="M256.4,88.9c-0.4,5.8-0.9,11.6-1.4,17.4c-0.9,10.4-1.9,20.8-3,31.2c-0.2,1.7-0.4,3.3-0.6,5
				c-0.4,3.5-0.8,7.1-1.2,10.6c3.6,3.7,8.8,6.5,13.4,8.1c6.3,2.3,13.3,2.7,19.4,0.2c0.7-5.6,1.3-11.2,1.9-16.7
				c0.3-3.1,0.7-6.2,1-9.3c1.3-12.7,2.5-25.4,3.4-38.2C278.4,94.5,267.4,91.8,256.4,88.9z"/>
			<path class="st3" d="M456.8,105.4l-32.4,115.9c-0.2,0.8-1,1.4-1.8,1.4l-75,0.1H347l-3.8,0c-1.2,0-2.1-1.2-1.8-2.4l32.4-115.9
				c0.2-0.8,1-1.4,1.8-1.4l5.5,0h0.7L455,103C456.2,103,457.1,104.2,456.8,105.4z"/>
			<path class="st3" d="M283,74.4c0.6,4-0.8,7.5-3.1,7.9c-2.4,0.4-4.8-2.6-5.4-6.6c-0.6-4,0.8-7.5,3.1-7.9
				C280,67.4,282.4,70.4,283,74.4z"/>
			<path class="st3" d="M307.4,66c0.6,4-0.8,7.5-3.1,7.9c-2.4,0.4-4.8-2.6-5.4-6.6c-0.6-4,0.8-7.5,3.1-7.9
				C304.4,59.1,306.8,62,307.4,66z"/>
			<path class="st3" d="M275.2,51.6c-3.6,0.1-7.3,1.9-9,6c-0.8,1.9-0.6,4.5,0.5,6.2l0,0c0,0,0,0,0,0.1c1.7,1.3,3.5,1.8,4.9,1.2
				c1.1-0.4,2-1.2,3.1-1.7c1.1-0.5,2.3-0.8,3.3-1.4c1.4-0.7,2.5-2,2.9-3.8C281.9,54.1,278.3,51.5,275.2,51.6z"/>
			<path class="st3" d="M299.6,42.4c-3.7,0-7.4,1.4-9.2,5.5c-0.8,1.9-0.7,3.9,0.3,5.6c0,0,1,2.1,4.7,1.8c1.2-0.1,2.7-0.8,3.7-1.3
				c1.1-0.5,2.3-0.8,3.4-1.3c1.4-0.7,2.5-2,3-3.8C306.4,44.8,302.7,42.3,299.6,42.4z"/>
			<path class="st7" d="M301.3,80.8c-1.3-4.7-5.2-8.8-8.1-12.5c-0.3-0.4-0.8,0.1-0.5,0.5c2.7,3.3,5.8,6.8,7.5,10.8
				c1.9,4.6-0.8,8.1-3.9,11.3c-0.3,0.3,0.2,0.8,0.5,0.5C299.6,88.6,302.4,85.2,301.3,80.8z"/>
			<path class="st7" d="M293.4,87.5c-1.8,0.4-3.3,1.3-4.6,2.6c-0.3,0.3,0.2,0.8,0.5,0.5c1.2-1.2,2.6-2,4.3-2.4
				C294,88,293.8,87.4,293.4,87.5z"/>
			<path class="st4" d="M281.2,143.7c-1.2,1.4-2.6,4.5-6.4,3.2c-3.6-1.2-7-3-10.1-5.1c-0.7-0.5-1.4-1-2.2-1.4
				c-0.3-0.2-0.6-0.3-0.8-0.4c-0.6,0.7-1.3,1.3-1.9,2c-2.3,2.5-5.8,0.1-6.7-0.6c-0.6,0.4-6.4,4.6-6.9,5c-0.5,0.3-1,0.6-1.5,0.9
				c-2.5,9.6,5.5,18,15.5,18.5c26,1.3,33.2-12.5,34.5-16.1c0.1-0.3,0.2-0.5,0.3-0.8C293.8,148.4,282.2,144.1,281.2,143.7z"/>
			<path class="st3" d="M401,246.3c0-0.1-0.1-0.2-0.2-0.4c-2.7-3.8-7.9-5-12.4-4.5c-5.3,0.6-10.2,3.3-14,7
				c-5.9,5.7-10.4,13.7-12.8,21.6c-0.2,0.7-0.4,1.3-0.6,2c-1.1,4.3-2.6,10.5,0.1,14.4c2.6,3.8,7.8,4.6,12,3.5
				c0.9-0.2,1.7-0.5,2.6-0.9c3.5-1.5,6.6-4,9.3-6.5c3.3-3.1,6.2-6.7,8.7-10.5c3.8-5.6,8.5-12.8,8.4-19.9
				C402.2,250.2,401.8,248.2,401,246.3z"/>
			<path class="st4" d="M412.2,274.8c-1.6-3.5-3.3-7.1-4.9-10.6c-1.4-3.1-2.9-6.2-4.3-9.3c-0.1-0.2-0.4-1.3-0.7-2.8
				c-0.4-1.6-0.8-3.7-1.2-5.8c0-0.1-0.1-0.2-0.2-0.4c-2.7-3.8-7.9-5-12.4-4.5c-5.3,0.6-10.2,3.3-14,7c-5.9,5.7-10.4,13.7-12.8,21.6
				c0.1,0.2,0.3,0.4,0.5,0.7c1.9,2.7,3.8,5.4,5.7,8c2,2.8,4.1,5.5,6.3,8.2c0.6,0.7,1.1,1.4,1.7,2.1c3.4,4.3,7.2,8.8,16.9,16.7
				c5.4,4.4,7.2,1.6,14,1.1c6.8-0.4,10.3-6.4,10.7-12.7C417.7,287.5,414.9,280.8,412.2,274.8z"/>
			<path class="st4" d="M458.6,182.3C458.6,182.4,458.6,182.4,458.6,182.3c0,0.1,0,0.1,0,0.2c-6,26.2-20.4,85.6-23.3,90.5
				c-3.4,5.9-6.1,14-10.5,19.1c-6.5,7.4-16.5,20.8-28.1,16.2c-4.6-1.8-7.9-6.2-9.5-10.8c-1.8-5.4,1.7-27.7,2.7-31.5
				c5.2-18.8,17.6-24,28-40c5.4-8.3,13.5-21.4,18.1-32c3.6-8.3,3.3-17.9,6.2-25.2c6.1,1.5,10.2,2.1,15.9,3
				C459.1,175.3,459.2,178.8,458.6,182.3z"/>
			<path class="st6" d="M223.4,158.5L223.4,158.5c-4.8,12.7-8.5,25.7-11.3,38.9c-5.3,24.6-7.7,49.8-8.4,75
				c-0.3,10.3-0.4,20.5-0.3,30.8c0,6,0.2,12.1,0.3,18.1h-37c-0.7-4.8-1.2-9.7-1.5-14.6c0-0.3-0.2-0.6-0.6-0.7
				c-14.8-4.7-29.4-9.6-44.1-14.4c0.1-0.4,0.3-0.8,0.4-1.2c5.4-14.5,10.6-29,16.3-43.4c5.2-12.9,11.1-25.7,18.7-37.4
				c7.6-11.6,16.9-21.7,28.1-29.8c6-4.3,12.3-8.1,18.7-11.6c6.6-3.6,13.3-6.9,20.1-10.1C222.9,157.8,223.4,158.4,223.4,158.5z"/>
			<path class="st7" d="M399.1,246.7c-5.9,8-11.8,16.2-15.2,25.6c-0.2,0.4,0.5,0.6,0.7,0.2c3.4-9.4,9.3-17.5,15.1-25.5
				C400,246.7,399.4,246.3,399.1,246.7z"/>
			<path class="st4" d="M458.1,171.7c-0.4-1.3-0.9-2.6-1.5-3.9c-4.4-8.7-9.7-17.1-14.6-25.6c-4.3,6.7-8.4,13.5-12.3,20.3
				c-1.9,3.3-3.8,6.7-5.6,10c-1.2,2.3-2,4-0.9,6.5c0.7,1.6,1.6,3.2,2.5,4.8c1.8,3.2,4,6.4,6.8,8.8c2.3,1.9,5,3.3,8.2,3.5
				c4.1,0.3,7.1-1.8,9.6-4.7c2.6-2.9,8-9,8.3-9l0,0c0,0,0-0.1,0-0.1c0,0,0,0,0,0C459.2,178.8,459.1,175.3,458.1,171.7z"/>
			<path class="st4" d="M449,156.5c-2-3.7-4-7.4-5.6-11.3c-1.3-3.1-2-6.5-4.7-8.8c-2.7-2.4-5.8-4.5-8.5-6.9c-2.7-2.5-5.3-5.2-7.7-8
				c-1.2-1.4-2.4-2.9-3.6-4.2c-1-1.1-2.2-2.8-3.6-3.3c-2.5-0.9-2.9,2.7-2.8,4.2c0.5,7,6.8,11.4,11.5,15.7c3.1,3,5.6,6.5,8.2,9.9
				c2.7,3.4,5.5,6.7,8.4,10c0,0.2,0.1,0.4,0.3,0.4h0c0.1,0.1,0.2,0.2,0.3,0.3c0.2,0.3,0.6,0,0.6-0.3c1.2,0.2,1.9,0.8,3,1.4
				c0.8,0.5,1.7,0.5,2.6,0.1c0.1-0.1,0.2-0.2,0.2-0.3c0.3,0.5,0.5,1,0.8,1.5C448.6,157.2,449.2,156.9,449,156.5z"/>
			<path class="st4" d="M440.5,156.9c0-0.5-0.1-1.1-0.4-1.5c-0.2-0.5-1-1.1-1.3-1.6c0.1-0.2,0.1-0.4-0.2-0.5c0-0.3-0.4-0.3-0.6-0.2
				c-7-2.1-11.1-8.5-15.8-13.6c-2.3-2.5-4.8-4.6-7.6-6.4c-1.5-1-3.1-1.8-4.6-2.8c-1.5-1-2.9-2.2-4.4-3.3c-1.6-1.1-4.2-2.1-4.7,0.5
				c-0.5,2.7,0.8,5.4,2.4,7.5c-0.7-0.2-1.5-0.1-2.2,0.4c-1.3,0.9-1.6,2.7-1.3,4.2c0.5,2.2,2.3,4.1,3.7,5.7
				c2.1,2.3,17.4,15.6,22.5,23.4c0.7,1.1,2.7,0,3.9,0.7c0.8,0.4,2.1,1,3.1,1.7c-0.1,0.3-0.2,0.6-0.3,0.9c-0.1,0.4,0.5,0.6,0.7,0.2
				c0.1-0.2,0.1-0.4,0.2-0.6c0.2,0.2,0.4,0.4,0.5,0.6c0.2,0.4,0.8,0.1,0.6-0.3c-0.2-0.4-0.5-0.7-0.8-1c0.8-2.2,1.8-4.2,3-6.1
				c0.1,0.1,0.3,0.2,0.4,0.2c0.4,0.2,0.7-0.4,0.3-0.6c-0.1-0.1-0.3-0.2-0.4-0.2c0.6-1,1.3-2,2-3.1
				C439.9,159.7,440.6,158.3,440.5,156.9z"/>
			<path class="st4" d="M430,170.5c-5-1.5-9.6-4-13.8-7c-2.2-1.6-4.3-3.3-6.3-5.1c-1.5-1.3-3.1-3.3-5.2-3.8c-1.3-0.3-2.9,0-3.4,1.3
				c-0.7,1.7,0.7,3.4,1.7,4.7c3.2,3.8,6.9,7.2,11,10.1c4.6,3.3,7.1,6.6,12,13.9c0.1,0.1,3.4-5.9,3.5-6.1c0.4-2.5,0.6-4.9,0.5-7.4
				C430.3,171.1,430.4,170.6,430,170.5z"/>
			<path class="st7" d="M434.6,164c-3.9-5.8-10-9.6-14.4-14.9c-2.3-2.7-4.1-6-6.8-8.2c-2.8-2.2-6.1-4-9.1-5.8
				c-0.4-0.2-0.7,0.4-0.4,0.6c3,1.8,6.3,3.5,9,5.7c2.8,2.2,4.6,5.5,6.8,8.2c4.4,5.3,10.5,9,14.3,14.7
				C434.3,164.8,434.9,164.4,434.6,164z"/>
			<path class="st4" d="M457,159.9c-2.4-7.8-5.4-15.3-8.3-22.8c-0.1-0.3-0.6-0.3-0.7,0c-0.7,1.9-1.4,3.7-2.1,5.6
				c-0.6,1.7-1.7,3.6-1.9,5.4c-0.1,1.5,0.9,3.1,1.5,4.5c0.9,2,1.8,3.9,2.7,5.9c1.8,3.7,3.8,7.3,5.1,11.2c0.9,2.7,2,5.4,4.9,6.4
				c-0.1,2.4-0.3,4.8-0.5,7.1c0,0.5,0.7,0.4,0.7,0C459.1,175.1,459.3,167.6,457,159.9z"/>
			<path class="st3" d="M304.8,30.8l0.7-0.3c-5.5-6.3-14.8-7.4-22.8-6.5c-5.2,0.6-10.2,2.2-15,4.2c-4.7,1.9-9.5,4-13.9,6.6
				c-8,4.7-14.1,11.6-15.4,21c-0.7,5.3-1.3,11.1-0.7,16.4c0.5,4.6,2.2,9,4.1,13.2c2.4,5.3,5.3,10.5,6.9,16.1
				c1.8,6,2.4,12.2,2.5,18.4c0,0.2,0.3,0.5,0.5,0.3c2.7-2.1,4.7-5.1,5.4-8.5c0.4-1.7,0.5-3.4,0.3-5c-0.1-0.7-0.2-1.4-0.4-2
				c-0.5-1.7-0.9-2.4-0.5-4.1c1.1-4.8-2-6-2.9-8c-1-2.4-2.1-4.9-1.4-7.5c0.6-2,2-3.6,2.6-5.6c0.4-1.5,0.2-3-0.4-4.4
				c-0.9-2.2-2-4.2-2.7-6.5c-1.5-4.7-1.8-9.8-0.3-14.6c2.8-9.2,15.8-17.6,24.3-20.8c8.8-3.3,21.6-5,30.7-1
				C306.5,32.1,304.8,30.8,304.8,30.8z"/>
			<path class="st3" d="M280.7,27.6c-0.1-0.1-0.2-0.1-0.2-0.1c0.4-0.5,0.8-1,1-1.7c0.2-0.4-0.5-0.6-0.7-0.2c-2.1,5.2-9,3.7-13.4,4.1
				c-3.8,0.3-7.6,1.4-11.1,3C249,36,243,41.9,239.4,49c-3.4,6.7-5.2,15-3.6,22.5c0.7,3.3,2.3,6.5,5,8.7c3,2.4,6.8,2.2,10.3,1
				c8-2.7,13.1-11.1,10.7-19.4c3.8-0.4,6.9-2.9,8.5-6.4c0.9-2,1.3-4.3,1.3-6.5c0-0.2-0.2-1.6-0.1-1.8c0.2-0.4,0.6-0.2,1.1-0.3
				c1-0.1,1.9-0.3,2.8-0.6C283.1,43.7,285.8,34.1,280.7,27.6z"/>
			<path class="st8" d="M265.2,52.1c-0.1,0.2-0.2,0.4-0.4,0.7c-0.1,0-0.1-0.1-0.2-0.1l-3.5,3.5l-29.8,47.2l3,1.9L264.1,58l1.6-4.8
				c-0.1-0.1-0.2-0.1-0.3-0.2c0.1-0.2,0.3-0.4,0.4-0.6C265.9,52,265.4,51.7,265.2,52.1z"/>
			<path class="st4" d="M260.9,85.4c0.3-0.5,0.4-1.1,0.2-1.8c-0.9-3.6-4.3-6-8-5.5c-4.2,0.5-7.2,4.2-7.8,8.2
				c-0.6,4.3,1.6,8.5,5.4,10.6c3.4,1.9,7.7,1.6,10.1-1.7C262.8,92.3,262.7,88.3,260.9,85.4z"/>
			<path class="st9" d="M350.5,281.6c-6.1-10.3-12.2-20.6-18.3-30.9c-5.6-9.6-10.9-19.6-12.8-30.7c-0.1-0.4-0.8-0.3-0.7,0.2
				c1.8,10.9,7,20.8,12.5,30.3c6.1,10.5,12.4,21,18.6,31.5C350.2,282.3,350.8,281.9,350.5,281.6z"/>
			<path class="st9" d="M192,312.7c-3.8-13.7-7.5-27.4-11.3-41.1c-1.8-6.7-3.9-13.3-5.4-20.1c-1.5-6.7-0.8-13.1,1.3-19.7
				c2.1-6.6,4.9-13,6.3-19.8c0.1-0.4-0.6-0.6-0.7-0.2c-2.5,12.1-9.9,23.4-8.3,36.2c0.9,6.8,3.2,13.5,5,20.1c1.9,7,3.9,14.1,5.8,21.1
				c2.2,7.9,4.3,15.9,6.5,23.8C191.4,313.3,192.1,313.1,192,312.7z"/>
			<path class="st9" d="M222.8,158c-6.7,3.3-13.5,6.5-20.1,10.1c-1.9,6.6-3.7,13.2-5.6,19.9c-3,10.6-5.9,21.3-7.7,32.2
				c-1.7,10.4-2.3,20.9-1.2,31.3c1.1,10.5,3.7,20.8,7,30.7c1.9,5.6,3.9,11.1,6.2,16.5c0.6,1.5,1.2,2.9,1.9,4.4
				c-0.1-10.3-0.1-20.5,0.3-30.8c0.8-25.2,3.1-50.3,8.4-75c2.9-13.2,6.6-26.2,11.3-38.8l0,0C223.4,158.4,222.9,157.8,222.8,158z"/>
			<path class="st9" d="M308.4,152.2C308.4,152.2,308.4,152.2,308.4,152.2c-6.5,11.5-12.4,23.3-17.4,35.4
				c-10.1,24.4-16.9,49.9-20.8,76.1c-1.9,13.1-3.6,26.2-5.2,39.3c12.8-11.7,20-28.5,24.9-45c3.4-11.5,5.8-23.2,9.2-34.8
				c3.3-11.4,7.3-22.6,12-33.5c4.8-11.3,10.4-22.2,16.6-32.8C321.4,154.7,315,153,308.4,152.2z"/>
			<path class="st10" d="M307.9,152.1c-0.9,1.6-1.9,3.2-2.9,4.8c-4.8,7.2-10.9,13.6-18.4,17.9c-7.9,4.5-16.5,5.9-25.5,4.9
				c-8.7-1-17.6-3.9-24.3-9.7c-4.1-3.6-7.2-8.4-8.7-13.6c0.2-0.1,0.4-0.2,0.6-0.3c1.8,6.6,6.4,12.4,12.2,16.2
				c7.5,4.9,16.8,7.1,25.7,7.2c8.6,0.1,16.7-2.8,23.6-7.8c7.2-5.2,12.5-12,16.8-19.6L307.9,152.1z"/>
			<path class="st10" d="M248.6,288.7c-6.6-12.3-12.1-25.2-16.6-38.4c-0.1-0.4-0.8-0.2-0.7,0.2c4.5,13.3,10.1,26.2,16.6,38.6
				C248.2,289.5,248.8,289.2,248.6,288.7z"/>
			<path class="st7" d="M299.9,95.6c-0.2,0.1-0.3,0.2-0.5,0.3v0c-3.8,2.4-8.1,4-12.6,4.7c-0.2,0-0.4,0.1-0.7,0.1
				c1.9,2.5,3.8,4.8,9.3,4.4c1.9-0.1,3.9-2.1,4.6-3.8C300.6,99.5,300.3,97.5,299.9,95.6z"/>
			<path class="st5" d="M299.4,95.9c-3.8,2.4-8.1,4-12.6,4.7c1.8,2.1,4.7,2.4,7.3,1.5c2.4-0.8,5.2-2.1,5.4-4.9
				C299.5,96.7,299.5,96.3,299.4,95.9z"/>
			<path class="st7" d="M284.7,127.8c-7.1-2.7-14.4-5.6-20.1-10.9c-0.3-0.3-0.8,0.2-0.5,0.5c5.7,5.4,13.1,8.3,20.4,11.1
				C284.9,128.6,285.1,127.9,284.7,127.8z"/>
			<path class="st11" d="M381.8,103.1c-0.6,1.8-1.1,3.5-1.6,5.3c-7.7,25.4-15.2,50.9-22.3,76.5c-3.5,12.6-6.9,25.1-10.3,37.7H347
				c0.4-1.4,0.7-2.8,1.1-4.2c6.8-25.7,14-51.3,21.5-76.8c3.8-12.9,7.6-25.8,11.6-38.6H381.8z"/>
			<path class="st11" d="M248.1,140.6c-5-3.3-11.6-4.1-17.2-1.7c-4.9,2.1-8.6,6.4-10.1,11.4c-2.8-1.7-6.3-2.6-9.4-1.3
				c-2.6,1.1-4.5,3.8-4.3,6.7c0,0.4,0.7,0.4,0.6,0c-0.2-2.9,1.8-5.5,4.5-6.3c3-1,6.1,0.1,8.6,1.7c0.2,0.1,0.4,0,0.5-0.2
				c1.5-5.2,5.3-9.5,10.2-11.5c5.3-2.1,11.5-1.4,16.2,1.8C248.2,141.4,248.5,140.9,248.1,140.6z"/>
			<path class="st11" d="M270.5,22.9c-2.6,0.2-5.2,2.2-4.8,5c-7.4-0.7-15.3,1.1-20,7.2c-3.9,5-4.3,12.1-0.3,17.1
				c-4.8,1.6-6.7,7.6-7.6,12.1c-1,5.2,0,11.1,4.8,14.2c0.3,0.2,0.7-0.3,0.3-0.6c-4.7-3.1-5.4-9-4.3-14.1c0.9-4.3,2.7-9.9,7.5-11.2
				c0.2-0.1,0.3-0.4,0.1-0.5c-4.5-5.1-3.5-12.8,0.9-17.6c4.9-5.2,12.2-6.6,19-5.8c0.2,0,0.4-0.2,0.3-0.4c-0.8-2.9,2.1-4.6,4.6-4.7
				c1.7-0.1,5.7,0.3,6,2.6c0.1,0.4,0.7,0.4,0.6,0C277.3,23.2,272.9,22.7,270.5,22.9z"/>
			<path class="st3" d="M165.8,313.8C165.8,313.8,165.8,313.7,165.8,313.8c-7.1-2.8-12-4.1-19.2-6.6c-2.8-1-5.6-2-8.3-3.2
				c-4.4-1.9-8.7-4-12.7-6.6c-1.9-1.2-6-3.6-4.9-6.4c1.1-2.9,5.5-1.6,7.7-1.3c4.7,0.6,9.3,1.5,13.9,2.5c7.3,1.6,14.6,3.8,21.6,6.4
				c1.4,5.4,1.7,9.7,1.9,15.1C165.8,313.7,165.8,313.7,165.8,313.8z"/>
			<path class="st4" d="M166.7,321.2c0.2-4.8-1.4-17.3-2.8-22.7c-7.1-2.6-14.3-4.7-21.6-6.4c-1.3,4-2.6,7.9-4,11.9
				c-1.9,5.7-3.8,11.3-5.7,17c0,0,0,0.1,0,0.1C132.5,321.1,166.7,321.2,166.7,321.2z"/>
			<path class="st5" d="M264.5,97.2c-1.8-2.1-3.8-4.2-6.3-5.5c-0.3-0.1-0.6-0.3-0.9-0.4c-0.9,0-1.8-0.3-2.5-0.9
				c-1.3-1.3-1.6-3.6-1.3-5.3c0,0,0,0-0.1,0c-0.1-0.1-0.4-0.1-0.5,0c-4.2,0.6-4.5,6.9-1.2,9c1.2,0.8,2.6,0.9,3.9,1.5
				c1.5,0.7,2.7,1.8,3.9,2.8c0.5,0.4,1.6,1.7,2.4,1.6c0.8-0.1,2-1.8,2.6-2.4C264.7,97.6,264.7,97.4,264.5,97.2z"/>
			<path class="st7" d="M257.7,91.1c-2.1,0.3-3.4-1.8-3.9-3.6c-0.4-1.6-0.2-3.2,0.7-4.7c0.1-0.3,0-0.5-0.3-0.5
				c-2.7-0.3-5,1.3-5.7,3.9c-0.1,0.4,0.6,0.6,0.7,0.2c0.6-2.2,2.3-3.4,4.5-3.4c-1.3,3.2-0.4,9.4,4.1,8.8
				C258.2,91.8,258.2,91.1,257.7,91.1z"/>
			<path class="st1" d="M99.9,93c-2.5,8.9-6.1,21.1-15.8,24.6c-4.9,1.7-10.3,1.3-15.4,1.3c-4.9,0-9.9,0.1-14.8-0.3
				c-4.7-0.4-9.7-1.4-13.6-4.2c-4.1-2.9-6.3-7.5-7.6-12.2c-2.9-10.4-3.6-21.6-3.2-32.5h74C103.1,77.6,102,85.4,99.9,93z"/>
			<path class="st1" d="M46.4,0c-4,9.5-5.7,20.1-6.3,30.1c-1,16.2,0.7,32.6,2.5,48.7c-0.1,0-0.3,0.1-0.4,0.1c-0.5-0.4-1.2-0.6-2-0.4
				c-1.2,0.3-1.7,0.9-2.1,2c-0.3,0.9,0.2,2.1,1,2.5c1.5,0.9,3.3,0.6,5.1,0c1.2,0.6,2.8,0.2,3.1-1.2c0,0,0.1,0,0.1,0
				c2.9-1.2,5.7-2.8,7.7-5.2c2-2.4,2.7-5,2.9-8.1c0.3-4.1,0.6-8.3,1-12.4c1.5-16.5,4.3-32.8,7.2-49.1C66.6,4.8,67,2.4,67,0H46.4z"/>
			<path class="st1" d="M157.9,33.8c-3.2-7.5-10.1-12.9-17.5-15.7c-15.4-6-33.1-0.9-45.7,8.9C78.9,39.3,70.8,58.7,66.5,77.6
				c-0.6,2.7,3.2,3.9,4.2,1.6c0.4-0.3,0.7-0.7,0.8-1.3c-0.2,1.2,3.7,1.5,4.4,1.5c1.7-0.1,3.3-0.9,4.6-2c3-2.6,3.8-6.7,5.3-10.1
				c3.4-7.8,8.9-14.9,16.1-19.6c7.6-4.9,17.1-6.8,25.9-4.6c4.7,1.2,8.5,3.8,12.7,6.1c3.3,1.8,7.1,3.2,10.8,2.2
				C159,49.4,160.6,40.3,157.9,33.8z"/>
		</g>
	</g>
</switch>

</svg>
