<?xml version="1.0" encoding="utf-8"?>
<!-- Generator: Adobe Illustrator 27.1.1, SVG Export Plug-In . SVG Version: 6.00 Build 0)  -->










<svg version="1.1" id="Layer_1" xmlns="http://www.w3.org/2000/svg" xmlns:xlink="http://www.w3.org/1999/xlink" x="0px" y="0px" viewBox="0 0 700 700" style="enable-background:new 0 0 700 700;" xml:space="preserve">
<style type="text/css">
	.st0{fill:#5760B3;}
	.st1{fill:#5059A6;}
	.st2{fill:#3B427A;}
	.st3{fill:#252A4F;}
	.st4{fill:#D1DFFF;}
	.st5{fill:#7B98E0;}
	.st6{fill:#F6B097;}
	.st7{fill:#6F4451;}
	.st8{fill:#F09E82;}
	.st9{fill:#CC7764;}
	.st10{fill:#2F3340;}
	.st11{fill:#51343C;}
	.st12{fill:#8FABF2;}
	.st13{fill:#393F75;}
</style>
<switch>
	
	<g>
		<g>
			<g>
				<g>
					<path class="st0" d="M485.6,360.9l-38.8,34.6l-58.9-105.9l27.6-20.6c9.2-4.9,27.6,7.1,32.1,18.4L485.6,360.9z"/>
				</g>
			</g>
			<g>
				<g>
					<path class="st0" d="M452,596.6c-7-54-20.5-133.3-20.5-133.3l-142.2,5.2c0,0-17.6,69.4-19,97.3c-0.5,10.1-1,17-1.4,29.9
						c0,0,14.5,9.6,52.1,5.8c10.1-1,28.7-6.5,38.8-6.8c13-0.4,27.6,3.7,51.3,6.4C433.3,603.7,452,596.6,452,596.6z"/>
				</g>
			</g>
			<g>
				<g>
					<path class="st1" d="M451,588.7c-2.1-15.7-4.7-32.9-7.2-49.5c-3.9-24.8-7.9-48.1-10.1-62.2l-150,15.1c0,0.1-0.1,0.2-0.1,0.3
						c-0.1,0.5-0.2,1-0.3,1.5c0,0.2-0.1,0.3-0.1,0.5c-0.1,0.5-0.2,1-0.3,1.5c0,0.2-0.1,0.3-0.1,0.5c-0.1,0.5-0.2,1-0.3,1.5
						c0,0.2-0.1,0.3-0.1,0.5c-0.1,0.5-0.2,1-0.4,1.6c0,0.1-0.1,0.3-0.1,0.4c-0.1,0.6-0.3,1.1-0.4,1.7c0,0.1-0.1,0.2-0.1,0.3
						c-0.5,2.1-0.9,4.3-1.4,6.5l7.1,18.8c0,0,6.1,54.7,38.6,42.6c32.6-12.1,40.5-40.9,40.5-40.9s4.6,40.5,9.6,45.1
						C391.4,588.8,431.7,590.2,451,588.7z"/>
				</g>
			</g>
			<g>
				<g>
					<path class="st0" d="M432.7,419.9c0-11.7,8.3-83.7,13-120.7c1.3-9.9-3-21.5-11.6-26.5l-80.5-44.8l-12.2-6.1l-30.9,27.9
						l-64,32.4v11.6c0,0,25,77.8,27,126.3c0.7,16.4-5.9,61.5-5.9,61.5s26.1,79.8,50.8,81.1c24.7,1.3,47.3-47.6,47.3-47.6
						s8.5,54.4,14.5,58.5c13.4,9.2,72.6,7.3,72.6,7.3S432.7,434.7,432.7,419.9z"/>
				</g>
			</g>
			<g>
				<g>
					<path class="st1" d="M440.3,343.2l-38.2-21.4c0,0,0,59.6,17.3,77.4c5.8,6,10.1,13.5,13.3,20.8
						C432.7,412,436.4,376.7,440.3,343.2z"/>
				</g>
			</g>
			<g>
				<g>
					<path class="st0" d="M249.1,280.8c0,0-5.1,0.8-8.3,9.6c-3.2,8.8-32.3,108.3-28,145.6c3,25.4,40.4,116.5,46.9,113.5
						c19.6-9.1,31.3-37,31.3-37L262.9,431c0,0,1.9-2.7,2.2-3.7c0.4-1.4-0.2-4.2-0.1-5.6c1.2-11.5,10.4-44.9,10.4-44.9L249.1,280.8z"/>
				</g>
			</g>
			<g>
				<g>
					<path class="st1" d="M265.2,426.1c-3.6-4.4-8.2-7.8-13.6-10.2c-4.5-2-7.6-9.9-3-11.5c16.5-6.1,1.5-23.8,6.5-29
						c4.7-4.9,5.2-20.7,4.7-35c4.2,16.7,8.5,35.9,11.1,53.8c-2.5,10-5.2,21.7-5.8,27.6C264.9,422.7,265.2,424.6,265.2,426.1z"/>
				</g>
			</g>
			<g>
				<g>
					<path class="st2" d="M360.4,593.6c-0.4,0-0.7-0.3-0.7-0.7c-0.1-7.1-0.1-15.4-0.1-24.3c0-15.5,0.1-31.5-0.5-42.3
						c0-0.4,0.3-0.8,0.7-0.8c0.4,0,0.8,0.3,0.8,0.7c0.5,10.8,0.5,26.9,0.5,42.4c0,8.8,0,17.1,0.1,24.2
						C361.2,593.2,360.8,593.6,360.4,593.6C360.4,593.6,360.4,593.6,360.4,593.6z"/>
				</g>
			</g>
			<g>
				<g>
					<path class="st3" d="M256.8,542.7c-0.2-7,5.8-16.2,9.8-20.2c4.2-4.1,18.8-14.7,24.1-10.8c2.3,1.6-0.4,10.2-3.7,16
						c-4.1,7.1-16.3,23.4-26.4,22.3C255.6,549.4,256.8,542.7,256.8,542.7L256.8,542.7z"/>
				</g>
			</g>
			<g>
				<g>
					<path class="st2" d="M360.4,577.7c-0.3,0-0.6-0.2-0.7-0.6c-0.1-0.4,0.1-0.8,0.5-0.9c5.5-1.5,11.8-6.9,12.7-13.4
						c0.1-0.4,0.4-0.7,0.8-0.6c0.4,0.1,0.7,0.4,0.6,0.8c-1,7.1-7.7,13-13.7,14.6C360.5,577.7,360.5,577.7,360.4,577.7z"/>
				</g>
			</g>
			<g>
				<g>
					<path class="st4" d="M283.7,512.8c1.3-0.4,3.6,8.1,4.1,9.1c2.8,6.1-9,26.2-21.5,29.3c-1.3,0.3-2.4,0.2-3.4-0.3l-3.7-13.1
						C261,524.9,274.7,515.4,283.7,512.8z"/>
				</g>
			</g>
			<g>
				<g>
					<path class="st5" d="M287.7,521.9c2.8,6.1-9,26.2-21.5,29.3c-1.3,0.3-2.4,0.2-3.4-0.3C262,549.5,270,521.8,287.7,521.9z"/>
				</g>
			</g>
			<g>
				<g>
					<path class="st6" d="M283.9,522.4c0,0,1.6,6.7,5.1,9.5c-11.1,8.8-18.3,29.3-18.3,29.3s-1.7-9.4-3.8-14.2
						c-0.8-1.7-1.5-3.5-2.1-4.9C269.8,525,283.9,522.4,283.9,522.4z"/>
				</g>
			</g>
			<g>
				<g>
					<path class="st2" d="M437.6,582.2c-16.8,0-46.2-1.1-57.8-8.2c-1-0.6-4.1-2.5-9.9-31.2c-2.1-10.6-3.8-21-4.6-25.5
						c-2,4.1-6.9,13.2-13.4,22.3c-11.8,16.2-23,24.2-33.6,23.6c-8.9-0.5-18.9-10.6-29.6-30.3c-0.2-0.4-0.1-0.8,0.3-1
						c0.4-0.2,0.8-0.1,1,0.3c10.5,19.1,20,29.1,28.4,29.5c23.9,1.2,46.4-46.7,46.6-47.2c0.1-0.3,0.5-0.5,0.8-0.4
						c0.3,0,0.6,0.3,0.6,0.6c3.3,21.8,9.8,55.3,14.2,58c15.9,9.8,68.6,7.8,69.1,7.8c0.4,0,0.8,0.3,0.8,0.7s-0.3,0.8-0.7,0.8
						C449.1,582,444.4,582.2,437.6,582.2z"/>
				</g>
			</g>
			<g>
				<g>
					<path class="st2" d="M254.2,443.5c-0.1,0-0.2,0-0.3-0.1c-1.8-0.9-4-1.2-6.1-1.6c-3.5-0.6-6.8-1.1-6.9-4.2c0-1,0.2-1.8,0.8-2.4
						c1.5-1.6,4.5-1.6,7.2-1.7c1.4,0,3.3-0.1,3.7-0.4c-0.8-0.6-4.1-1.5-6.5-2.2c-6.4-1.7-13.7-3.7-13.5-7.5c0.1-1.3,0.8-2.4,2-3
						c5.4-2.9,20.5,1.8,25.3,4.6c0.4,0.2,0.5,0.7,0.3,1c-0.2,0.4-0.7,0.5-1,0.3c-4.9-2.9-19.3-7-23.8-4.6c-0.8,0.4-1.2,1-1.2,1.8
						c-0.1,2.6,7.4,4.6,12.4,6c4.9,1.3,7.3,2.1,7.7,3.3c0.1,0.3,0.1,0.7-0.4,1.2c-0.8,0.9-2.6,0.9-4.9,1c-2.3,0.1-5.1,0.1-6.2,1.2
						c-0.3,0.3-0.4,0.8-0.4,1.3c0.1,1.8,2.2,2.3,5.7,2.8c2.1,0.3,4.5,0.7,6.5,1.7c0.4,0.2,0.5,0.6,0.3,1
						C254.7,443.3,254.4,443.5,254.2,443.5z"/>
				</g>
			</g>
			<g>
				<g>
					<path class="st2" d="M320.2,535.9c-8.9,0-20-4-25.5-13.5c-0.1-0.2-0.1-0.5,0.2-0.7c0.2-0.1,0.5-0.1,0.7,0.2
						c5.8,9.9,17.9,13.6,26.8,12.9c7.2-0.6,12.6-4,14.6-9.3c0.1-0.3,0.4-0.4,0.6-0.3c0.3,0.1,0.4,0.4,0.3,0.6
						c-2.2,5.7-7.8,9.3-15.5,10C321.7,535.8,321,535.9,320.2,535.9z"/>
				</g>
			</g>
			<g>
				<g>
					<path class="st4" d="M324.1,236.2c0,0-5.4,18.3-4.8,23.2c2.2,16.2,9.8,54,44.5,122.5c24.4-68.9,21.9-131.6,21.9-131.6
						s-4.7-14.3-7.7-17.3C348.9,204,324.1,236.2,324.1,236.2L324.1,236.2z"/>
				</g>
			</g>
			<g>
				<g>
					<path class="st7" d="M307.1,168.1c0,0-11.6-5.7-10.3-19.7c1.2-12.8,8.3-18.5,8.3-18.5s3-42.5,46.9-21.8
						c16.6,7.8,28.4,17.5,34.3,27.2c6.5,4.5,15,10.2,16.9,23c2.6,17.1-20.1,66.1-20.1,66.1l-20.3-0.1L307.1,168.1z"/>
				</g>
			</g>
			<g>
				<g>
					<path class="st6" d="M378.6,198.6l-50.4,15.7c0,0-1.9,13.7-1.9,25.8c3.7,15.5,28.8,24.7,28.8,24.7s24.9-11.3,24.8-22.8
						C379.9,229.2,378.6,198.6,378.6,198.6z"/>
				</g>
			</g>
			<g>
				<g>
					<path class="st8" d="M355.9,205.7l-27.7,8.6c0,0-1.9,13.7-1.9,25.8c0.8,3.3,2.6,6.3,4.9,9c0,0,5.6,1.7,9.1,1.2
						c8.9-1.2,15.6-8.5,15.6-17.5V205.7z"/>
				</g>
			</g>
			<g>
				<g>
					<path class="st6" d="M318,141.7c-6.5-0.3-12.5,15.5-13,20.3c-0.8,6.9-1.3,9.9-0.8,15.9c0.1,0.7,0,6.9-0.1,7.8
						c-0.8,7-1.8,7.9-0.6,17.3c1.3,9.5,5.3,24.2,15,33.3c5.2,4.9,17.8,6.1,26.2,1.9c6.3-3.2,19.2-11.2,25.7-25
						c2.8-5.9,5-24.1,5-24.1l-4.4,3.2c0,0-1.4-10.8-3.8-14.9c-2.4-4.1-1.6-7.3-0.3-18.9c1-8.8-3-10.9-6.5-13.8
						c-2.8-2.3-6.4-3.5-10-3.6C339.6,143.8,327.2,144.7,318,141.7z"/>
				</g>
			</g>
			<g>
				<g>
					<path class="st9" d="M333,241.6c-1.9,0-3.9-0.2-5.8-0.5c-0.4-0.1-0.7-0.5-0.6-0.9c0.1-0.4,0.5-0.7,0.9-0.6
						c5.8,1.1,12.3,0.4,16.9-2c1.5-0.8,3.9-2,6.6-3.8c0.3-0.2,0.8-0.1,1,0.2c0.2,0.3,0.1,0.8-0.2,1c-2.8,1.9-5.2,3.2-6.8,3.9
						C341.6,240.7,337.3,241.6,333,241.6z"/>
				</g>
			</g>
			<g>
				<g>
					<path class="st6" d="M374,190.7c0,0,4.9-18.5,13.1-14.9c10.1,4.5,0.3,34.8-12,31.5C368.9,205.6,374,190.7,374,190.7L374,190.7z
						"/>
				</g>
			</g>
			<g>
				<g>
					<path class="st10" d="M311.2,186.4c-0.2-1.9,0.8-3.6,2.2-3.7c1.4-0.1,2.7,1.4,2.9,3.3c0.2,1.9-0.8,3.6-2.2,3.7
						C312.7,189.8,311.4,188.3,311.2,186.4L311.2,186.4z"/>
				</g>
			</g>
			<g>
				<g>
					<path class="st9" d="M324.3,186.7c-0.5,1.9-1.7,4.3-2.5,6.1c-0.8,2-1.7,4-2.3,6c-0.2,0.8-0.5,1.7-0.5,2.5
						c0.4,2.5,5.5,3.9,7.7,3.8c0.8,0,0.9,1.1,0.1,1.3c-0.6,0.1-1.2,0.1-1.9,0.1c-3.4-0.1-8.6-1.9-7.9-6.1c0.9-4.8,3.6-9,5.6-13.3
						c0.2-0.3,0.2-0.5,0.4-0.8C323.4,185.6,324.5,185.9,324.3,186.7L324.3,186.7z"/>
				</g>
			</g>
			<g>
				<g>
					<path class="st11" d="M323.4,139.5c-0.1,0-0.2,0-0.3,0c-5-1.8-9.1-6-10.8-11c-1.7-5-1-10.9,1.9-15.3c0.2-0.3,0.7-0.4,1-0.2
						c0.3,0.2,0.4,0.7,0.2,1c-2.6,4.1-3.3,9.4-1.8,14c1.5,4.6,5.3,8.4,9.9,10.1c0.4,0.1,0.6,0.6,0.5,1
						C324,139.3,323.7,139.5,323.4,139.5z"/>
				</g>
			</g>
			<g>
				<g>
					<path class="st11" d="M331.2,140.1c-0.1,0-0.2,0-0.3-0.1c-6.3-3.2-10.4-10.4-10-17.5c0.3-6.8,4.7-12.5,11.7-15.2
						c0.4-0.2,0.8,0,1,0.4c0.2,0.4,0,0.8-0.4,1c-6.4,2.5-10.4,7.7-10.8,13.9c-0.3,6.5,3.5,13.1,9.2,16.1c0.4,0.2,0.5,0.6,0.3,1
						C331.7,140,331.5,140.1,331.2,140.1z"/>
				</g>
			</g>
			<g>
				<g>
					<path class="st11" d="M343.9,141c-0.2,0-0.4-0.1-0.5-0.2c-6.4-6.2-9.4-15.3-7.1-21.7c2.8-7.8,10.1-10.1,15.3-11.1
						c0.4-0.1,0.8,0.2,0.9,0.6c0.1,0.4-0.2,0.8-0.6,0.9c-7.8,1.6-12.3,4.8-14.2,10.2c-1.8,5-0.1,13.5,6.8,20.1
						c0.3,0.3,0.3,0.8,0,1.1C344.3,140.9,344.1,141,343.9,141z"/>
				</g>
			</g>
			<g>
				<g>
					<path class="st11" d="M360.1,142.9c0,0-0.1,0-0.1,0c-0.4-0.1-0.7-0.4-0.6-0.8c0.6-3.9,4.5-7.7,9.8-9.7c3.3-1.2,12-3.3,20.1,4
						c0.3,0.3,0.3,0.7,0.1,1.1c-0.3,0.3-0.7,0.3-1.1,0.1c-7.5-6.7-15.5-4.8-18.6-3.7c-4.7,1.7-8.4,5.2-8.8,8.5
						C360.7,142.6,360.4,142.9,360.1,142.9z"/>
				</g>
			</g>
			<g>
				<g>
					<path class="st2" d="M365.7,515.6C365.7,515.6,365.7,515.6,365.7,515.6c-0.4,0-0.8-0.4-0.7-0.8c0.9-30-0.3-44.9-1.9-65.4
						c-0.8-10.1-1.7-21.6-2.5-36.9c-0.4-7.6,1.2-19.7,3.1-32.4c0.1-0.4,0.4-0.7,0.8-0.6c0.4,0.1,0.7,0.4,0.6,0.8
						c-1.8,12.6-3.5,24.6-3.1,32.1c0.8,15.3,1.7,26.7,2.5,36.8c1.6,20.6,2.8,35.4,1.9,65.5C366.4,515.3,366.1,515.6,365.7,515.6z"/>
				</g>
			</g>
			<g>
				<g>
					<path class="st9" d="M327.9,213.9c-1.8,0-3.4-0.3-4.5-0.8c-0.4-0.2-0.5-0.6-0.3-1c0.2-0.4,0.6-0.5,1-0.3
						c2.3,1.2,9.3,1.1,13.7-2.7c0.3-0.3,0.8-0.2,1.1,0.1c0.3,0.3,0.2,0.8-0.1,1.1c-2.2,1.9-5.2,3.2-8.5,3.6
						C329.5,213.9,328.7,213.9,327.9,213.9z"/>
				</g>
			</g>
			<g>
				<g>
					<path class="st10" d="M348.5,186.2c0.1-2.1-1-3.9-2.5-3.9c-1.5-0.1-2.8,1.6-3,3.7c-0.1,2.1,1,3.9,2.5,3.9
						C347.1,190,348.4,188.3,348.5,186.2L348.5,186.2z"/>
				</g>
			</g>
			<g>
				<g>
					<path class="st2" d="M362.2,390.6c-0.2,0-0.3-0.1-0.5-0.2c-19.9-16.6-49.4-67.3-59.6-93.3c-0.1-0.2-0.1-0.4,0-0.5
						c1.7-4.6,6.1-11,7.5-13.1c-2.1-1.6-8.4-6.5-9-9.1c0-0.1,0-0.3,0-0.4c1.5-5.1,4.1-10.7,8-18.7c0.2-0.4,0.6-0.5,1-0.3
						c0.4,0.2,0.5,0.6,0.3,1c-3.8,7.8-6.3,13.3-7.8,18.2c0.7,2,5.8,6.2,8.9,8.5c0.3,0.2,0.4,0.7,0.2,1c-0.1,0.1-5.6,7.9-7.6,13
						c10.2,26,39.3,76,59,92.4c0.3,0.3,0.4,0.7,0.1,1.1C362.6,390.5,362.4,390.6,362.2,390.6z"/>
				</g>
			</g>
			<g>
				<g>
					<path class="st2" d="M362.2,407.2c-0.1,0-0.3,0-0.4-0.1c-0.4-0.2-0.5-0.7-0.2-1c20-32.2,38.8-90.5,42.1-110.6
						c-1.6-3.4-10.5-13.4-10.6-13.5c-0.1-0.2-0.2-0.4-0.2-0.6c0-0.2,0.1-0.4,0.3-0.5c0.1,0,6.1-4.5,9.2-7.9c-2.1-4.4-5.4-10.6-10-16
						c-0.3-0.3-0.2-0.8,0.1-1.1c0.3-0.3,0.8-0.2,1.1,0.1c4.8,5.7,8.3,12.3,10.4,16.8c0.1,0.3,0.1,0.6-0.1,0.8
						c-2.5,2.9-7.3,6.7-9.1,8c2,2.3,9.1,10.5,10.4,13.5c0.1,0.1,0.1,0.3,0.1,0.4c-3.2,20-22.2,78.9-42.3,111.3
						C362.7,407.1,362.5,407.2,362.2,407.2z"/>
				</g>
			</g>
			<g>
				<g>
					<path class="st12" d="M336.1,281.5c-0.2,0-0.3-0.1-0.5-0.2c-0.5-0.4-13-10.6-16.4-24.1c-0.1-0.4,0.1-0.8,0.5-0.9
						c0.4-0.1,0.8,0.1,0.9,0.5c2.9,11.6,13.3,21,15.5,22.9c4.8-3.2,7.6-5.6,10.8-8.3c2.3-1.9,4.6-3.9,7.9-6.4c0.3-0.2,0.7-0.2,0.9,0
						c8,6.7,11.4,9.4,17.8,14.2c1.6-1.3,7.3-8.2,10.8-16.3c0.2-0.4,0.6-0.6,1-0.4c0.4,0.2,0.6,0.6,0.4,1c-3.9,9-10.7,17.1-12.1,17.4
						c-0.2,0-0.4,0-0.6-0.1c-6.6-4.9-10-7.5-17.8-14.2c-3,2.3-5.2,4.2-7.4,6c-3.2,2.7-6.2,5.3-11.5,8.7
						C336.3,281.5,336.2,281.5,336.1,281.5z"/>
				</g>
			</g>
			<g>
				<g>
					<path class="st12" d="M357.2,369.1c-0.4,0-0.7-0.3-0.7-0.7c-1.2-32.4-3-65.3-5.3-97.7c0-0.4,0.3-0.8,0.7-0.8
						c0.4,0,0.8,0.3,0.8,0.7c2.4,32.4,4.1,65.3,5.3,97.7C358,368.7,357.7,369.1,357.2,369.1C357.3,369.1,357.3,369.1,357.2,369.1z"/>
				</g>
			</g>
			<g>
				<g>
					<path class="st2" d="M280.9,482.4c-0.4,0-0.7-0.3-0.7-0.6c-0.1-0.4,0.2-0.8,0.6-0.9c3.6-0.6,8.2-1.4,12.9-2.1
						c10-1.6,22.3-3.6,24.8-4.5c1.1-3.8,2-16.7,1.5-19.2c-19.9,1.5-34.6,3.6-44.9,6.2c-0.4,0.1-0.8-0.1-0.9-0.5
						c-0.1-0.4,0.1-0.8,0.5-0.9c10.5-2.7,25.4-4.8,45.7-6.3c0.2,0,0.4,0,0.5,0.1c0.3,0.3,1.2,0.9,0.5,9.9c-0.3,4.3-0.9,9.5-1.6,11.5
						c-0.1,0.2-0.2,0.3-0.3,0.4c-1.7,1-11.2,2.5-25.5,4.8c-4.8,0.8-9.3,1.5-12.9,2.1C281,482.3,281,482.4,280.9,482.4z M319.9,454.7
						L319.9,454.7L319.9,454.7z"/>
				</g>
			</g>
			<g>
				<g>
					<path class="st2" d="M257.6,547.6c-0.5,0-1-0.4-1-1c-0.3-11.1,3.1-20,10-26.4c6.8-6.3,14.9-8.3,18.1-8.8
						c1.3-0.2,3.1-0.5,4.6-0.4c-7.6-18.8-13.7-37.2-19-53.6l-0.8-2.4c-0.2-0.5,0.1-1.1,0.6-1.3c0.5-0.2,1.1,0.1,1.3,0.6l0.8,2.4
						c5.5,16.9,11.8,36,19.8,55.3c0,0,0,0.1,0,0.1c0.2,0.5-0.1,1.1-0.6,1.2c-0.4,0.2-0.9,0-1.1-0.3c-1.3-0.5-9.6-0.1-17.6,5
						c-6.6,4.2-14.5,12.5-14,28.5C258.6,547.1,258.2,547.6,257.6,547.6C257.6,547.6,257.6,547.6,257.6,547.6z"/>
				</g>
			</g>
			<g>
				<g>
					<path class="st0" d="M436.5,458.3c-9.3-1.4-20-2-29.5-1.5c0.4,5.2,0.8,8.1,1.2,13.3c0.1,1.8,0.3,3.8,1.5,5.2
						c1.8,2.3,5.2,2.3,8.2,2.2c6.3-0.1,16.2,1.4,21.7,1.7C441.1,476.5,438.9,462.6,436.5,458.3z"/>
				</g>
			</g>
			<g>
				<g>
					<path class="st2" d="M438.4,479.8C438.4,479.8,438.4,479.8,438.4,479.8c-2.1-0.1-4.6-0.4-7.3-0.6c-4.4-0.4-9.4-0.9-13.3-0.9
						c-3,0-6.7,0.1-8.7-2.5c-1.3-1.7-1.5-3.9-1.6-5.6c-0.2-2.6-0.4-4.6-0.6-6.6c-0.2-2-0.4-4.1-0.6-6.7c0-0.2,0.1-0.4,0.2-0.6
						c0.1-0.2,0.3-0.2,0.5-0.3c9.5-0.5,19.1,0,28.5,1.4c0.4,0.1,0.7,0.4,0.6,0.8c-0.1,0.4-0.4,0.7-0.8,0.6
						c-9.1-1.3-18.3-1.8-27.4-1.4c0.2,2.2,0.4,4.1,0.5,5.9c0.2,2,0.4,4.1,0.6,6.7c0.1,1.9,0.3,3.6,1.3,4.8c1.6,2,4.8,2,7.6,2
						c4,0,9,0.5,13.5,0.9c2.7,0.3,5.2,0.5,7.2,0.6c0.4,0,0.7,0.4,0.7,0.8C439.1,479.5,438.8,479.8,438.4,479.8z"/>
				</g>
			</g>
			<g>
				<g>
					<path class="st2" d="M270.7,393.7c-0.5,0-0.9-0.4-1-0.9c-5.4-37.8-12.5-70.6-21.6-100.4c-0.2-0.5,0.1-1.1,0.7-1.2
						c0.5-0.2,1.1,0.1,1.2,0.7c9.2,29.9,16.3,62.8,21.7,100.7c0.1,0.5-0.3,1.1-0.8,1.1C270.8,393.7,270.7,393.7,270.7,393.7z"/>
				</g>
			</g>
			<g>
				<g>
					<path class="st9" d="M375.8,200.8c-0.3,0-0.5-0.2-0.7-0.4c-0.2-0.4,0-0.8,0.3-1c1.9-1,2.9-3.3,2.1-5.4
						c-0.1-0.2-0.2-0.4-0.4-0.7c-0.3-0.5-0.7-1.1-0.8-1.7c-0.1-1.2,2.2-8.7,6.6-10.2c0.4-0.1,0.8,0.1,0.9,0.5
						c0.1,0.4-0.1,0.8-0.5,0.9c-3.6,1.2-5.6,8-5.6,8.7c0,0.2,0.3,0.6,0.5,0.9c0.2,0.3,0.5,0.7,0.6,1c1,2.8-0.2,6-2.8,7.3
						C376,200.8,375.9,200.8,375.8,200.8z"/>
				</g>
			</g>
			<g>
				<g>
					<path class="st3" d="M370.1,420.5c0-3,2.2-5.5,5-5.5c2.7,0,5,2.5,5,5.5c0,3-2.2,5.5-5,5.5C372.4,425.9,370.1,423.5,370.1,420.5
						L370.1,420.5z"/>
				</g>
			</g>
			<g>
				<g>
					<path class="st3" d="M370.1,462.6c0-3,2.2-5.5,5-5.5c2.7,0,5,2.5,5,5.5c0,3-2.2,5.5-5,5.5C372.4,468.1,370.1,465.6,370.1,462.6
						L370.1,462.6z"/>
				</g>
			</g>
			<g>
				<g>
					<path class="st12" d="M355.7,283.6c0-1.6,1.2-2.8,2.6-2.8c1.4,0,2.6,1.3,2.6,2.9c0,1.6-1.2,2.8-2.6,2.8
						C356.9,286.5,355.7,285.2,355.7,283.6L355.7,283.6z"/>
				</g>
			</g>
			<g>
				<g>
					<path class="st12" d="M358.5,306.6c-0.1-1.6,1.1-2.9,2.5-2.9c1.4,0,2.7,1.2,2.7,2.8c0.1,1.6-1.1,2.9-2.5,2.9
						C359.8,309.4,358.6,308.2,358.5,306.6L358.5,306.6z"/>
				</g>
			</g>
			<g>
				<g>
					<path class="st12" d="M359.7,329.5c-0.1-1.6,1.1-2.9,2.5-2.9c1.4,0,2.7,1.2,2.7,2.8c0.1,1.6-1.1,2.9-2.5,2.9
						C361,332.3,359.8,331,359.7,329.5L359.7,329.5z"/>
				</g>
			</g>
			<g>
				<g>
					<path class="st12" d="M360.7,352.3c-0.1-1.6,1.1-2.9,2.5-2.9c1.4,0,2.7,1.2,2.7,2.8c0.1,1.6-1.1,2.9-2.5,2.9
						C362,355.2,360.7,353.9,360.7,352.3L360.7,352.3z"/>
				</g>
			</g>
			<g>
				<g>
					<path class="st3" d="M371.5,237.5l-19.7-17.3c-1.1-0.9-1.4-2.5-0.7-3.7l24.2-47.9c0.9-1.8,3.3-2.3,4.8-0.9l19.7,17.3
						c1.1,0.9,1.4,2.5,0.7,3.7l-24.2,47.9C375.4,238.4,373,238.8,371.5,237.5z"/>
				</g>
			</g>
			<g>
				<g>
					<path class="st7" d="M352.1,179c-0.3,0-0.7-0.1-1-0.3c-0.1-0.1-5.8-3.9-12.5-2.1c-0.9,0.2-1.9-0.3-2.1-1.3
						c-0.2-0.9,0.3-1.9,1.3-2.1c8.3-2.1,15.1,2.5,15.4,2.7c0.8,0.5,1,1.6,0.4,2.4C353.2,178.7,352.6,179,352.1,179z"/>
				</g>
			</g>
			<g>
				<g>
					<path class="st7" d="M306.3,179c-0.5,0-1.1-0.3-1.4-0.7c-0.6-0.8-0.4-1.9,0.4-2.4c0.2-0.1,4.5-3.2,10.3-2.2
						c0.9,0.2,1.6,1.1,1.4,2c-0.2,0.9-1.1,1.6-2,1.4c-4.3-0.8-7.6,1.5-7.7,1.6C307,178.9,306.6,179,306.3,179z"/>
				</g>
			</g>
			<g>
				<g>
					<g>
						<path class="st9" d="M349.5,185.3c-0.1,0-0.3,0-0.4-0.1c0,0-2.3-1.6-4.2-1.6c-1.7,0-3.3,1.2-3.4,1.2c-0.3,0.2-0.8,0.2-1-0.2
							c-0.2-0.3-0.2-0.8,0.2-1c0.1-0.1,2.1-1.5,4.2-1.5c2.4,0,5,1.8,5.1,1.9c0.3,0.2,0.4,0.7,0.2,1
							C350,185.2,349.7,185.3,349.5,185.3z"/>
					</g>
				</g>
			</g>
			<g>
				<g>
					<g>
						<path class="st9" d="M317.3,185.3c-0.1,0-0.3,0-0.4-0.1c0,0-2.3-1.6-4.2-1.6c-1.7,0-3.3,1.2-3.4,1.2c-0.3,0.2-0.8,0.2-1-0.2
							c-0.2-0.3-0.2-0.8,0.2-1c0.1-0.1,2.1-1.5,4.2-1.5c2.4,0,5,1.8,5.1,1.9c0.3,0.2,0.4,0.7,0.2,1
							C317.8,185.2,317.6,185.3,317.3,185.3z"/>
					</g>
				</g>
			</g>
			<g>
				<g>
					<g>
						<path class="st13" d="M381,301.1c12.5-9.2,21.8-29.5,25.6-47c-1-5.6-16.4,14-19,20.9C379.2,297.6,381,301.1,381,301.1z"/>
					</g>
				</g>
				<g>
					<path class="st6" d="M437.5,295.8l-42.2-54.3c-1.8-2.3-2.7-5-2.7-7.9c0-6.2,1-14.8,1.1-21.6v0l-2.8-17
						c-0.3-1.7-1.1-3.3-2.4-4.5l-13.2-11.4c-1.1-1-2.9-0.4-3.2,1.1c-0.4,1.8-0.3,3.3,0.1,4.5l-1-0.6c-1-0.6-2.4-0.1-2.7,1.1
						c-0.7,2.8,0.3,5.4,2,6.7l6.1,4.6l2.1,12l-10.7-7.3c-2.6-1.8-6.2-1.5-8.5,0.8l-6.8,6.7c-0.9,0.8-0.9,2.4,0.2,3
						c1,0.5,2.8,1,4.5,0.8l-1.6,11.6l0.5,0.2c2.6,1,5.4-0.5,6-3.2l1.2-5.9l3.4,1.7l0.2,24.7c0.3,4,2,7.9,4.8,10.8l1.9,2.1l43.4,80.7
						L437.5,295.8z"/>
					<g>
						<g>
							<path class="st9" d="M386.9,278.9c-0.3,0-0.5-0.1-0.7-0.4l-11.3-21.8l-3.7-3.9c-2.9-3.1-4.7-7.1-5-11.3c0,0,0,0,0-0.1
								l0.1-25.1c0-0.4,0.3-0.7,0.7-0.7c0,0,0,0,0,0c0.4,0,0.7,0.3,0.7,0.8l-0.1,25.1c0.3,3.9,1.9,7.5,4.6,10.3l3.8,4
								c0,0.1,0.1,0.1,0.1,0.2l11.4,21.9c0.2,0.4,0,0.8-0.3,1C387.2,278.9,387,278.9,386.9,278.9z"/>
						</g>
					</g>
					<g>
						<g>
							<path class="st9" d="M376.7,213.2c-0.1,0-0.2,0-0.3-0.1l-14.2-6c-0.9-0.2-1.8,0-2.5,0.5c-0.7,0.5-1.2,1.3-1.4,2.2
								c-0.1,0.4-0.4,0.7-0.8,0.6c-0.4-0.1-0.7-0.4-0.6-0.8c0.2-1.3,0.9-2.5,2-3.3c1.1-0.8,2.4-1,3.7-0.8c0,0,0.1,0,0.1,0l14.2,6
								c0.4,0.2,0.6,0.6,0.4,1C377.3,213,377,213.2,376.7,213.2z"/>
						</g>
					</g>
					<g>
						<g>
							<path class="st9" d="M388.1,212.1c-0.4,0-0.7-0.3-0.7-0.6l-2.2-15.1c-0.3-2-1.4-3.7-3.1-4.8l-11.2-6.8
								c-0.4-0.2-0.5-0.7-0.2-1c0.2-0.4,0.7-0.5,1-0.2l11.2,6.8c2.1,1.3,3.4,3.4,3.8,5.9l2.2,15.1c0.1,0.4-0.2,0.8-0.6,0.8
								C388.2,212.1,388.2,212.1,388.1,212.1z"/>
						</g>
					</g>
					<g>
						<g>
							<path class="st9" d="M384.1,212.1c-0.1,0-0.3,0-0.4-0.1l-5.5-3.2c-0.4-0.2-0.5-0.7-0.3-1c0.2-0.4,0.7-0.5,1-0.3l5.5,3.2
								c0.4,0.2,0.5,0.7,0.3,1C384.6,212,384.3,212.1,384.1,212.1z"/>
						</g>
					</g>
				</g>
				<g>
					<g>
						<path class="st4" d="M437.5,295.8l-37.7-48.4c0.2,12.5-7.5,25-13.9,33l31.1,54.7L437.5,295.8z"/>
					</g>
				</g>
				<g>
					<g>
						<path class="st0" d="M486.9,379.7l-1.5,9.5c-0.9,5.5-5.4,9.7-10.9,10.3l-9.8,1c-13.3,1.4-31.2-7.1-38.5-18.4l-44.5-81.5
							c12.5-9.2,21.2-28.9,25-46.5l69.8,86.1C485.4,351.2,489.2,365.6,486.9,379.7z"/>
					</g>
				</g>
				<g>
					<g>
						<path class="st2" d="M434,391.5c-0.1,0-0.3,0-0.4-0.1c-3.1-1.3-7.7-8.1-8.2-8.8c0,0,0-0.1,0-0.1L380.8,301
							c-0.2-0.4-0.1-0.9,0.2-1.2c14.2-12.5,23.7-30,24.6-45.8c0-0.4,0.3-0.8,0.7-0.9c0.4-0.1,0.8,0,1.1,0.3l58.5,72.2
							c0.3,0.4,0.3,1.1-0.1,1.4c-0.4,0.3-1.1,0.3-1.4-0.1l-57-70.3c-1.7,15.4-10.9,32-24.5,44.2l44.1,80.8c1.3,2,5.2,7.2,7.3,8.1
							c0.5,0.2,0.7,0.8,0.5,1.3C434.8,391.3,434.4,391.5,434,391.5z"/>
					</g>
				</g>
			</g>
			<g>
				<g>
					<path class="st9" d="M330.3,205c-0.2,0-0.4-0.1-0.5-0.2c-0.3-0.1-1.5-0.1-2.5-0.1c-0.4,0-0.8-0.3-0.8-0.7
						c0-0.4,0.3-0.8,0.7-0.8c3.2-0.2,3.6,0.4,3.7,0.6c0.2,0.3,0.1,0.8-0.2,1C330.6,204.9,330.4,205,330.3,205z M329.6,204.6
						C329.6,204.6,329.6,204.6,329.6,204.6C329.6,204.6,329.6,204.6,329.6,204.6z"/>
				</g>
			</g>
		</g>
	</g>
</switch>

</svg>
