<?xml version="1.0" encoding="utf-8"?>
<!-- Generator: Adobe Illustrator 27.1.1, SVG Export Plug-In . SVG Version: 6.00 Build 0)  -->










<svg version="1.1" id="Layer_1" xmlns="http://www.w3.org/2000/svg" xmlns:xlink="http://www.w3.org/1999/xlink" x="0px" y="0px" viewBox="0 0 700 700" style="enable-background:new 0 0 700 700;" xml:space="preserve">
<style type="text/css">
	.st0{fill:#FFE1C9;}
	.st1{fill:#FACEAA;}
	.st2{fill:#69332E;}
	.st3{fill:#542925;}
	.st4{fill:#80433C;}
	.st5{fill:#171431;}
	.st6{fill:#D9A48F;}
	.st7{fill:#B36E60;}
	.st8{fill:#6E4385;}
	.st9{fill:#D99F72;}
	.st10{fill:#CF905D;}
	.st11{fill:#FFFFFF;}
	.st12{fill:#A66354;}
	.st13{fill:#994E4B;}
	.st14{fill:#13182B;}
	.st15{fill:#85324B;}
	.st16{fill:#69263A;}
	.st17{fill:#B06358;}
	.st18{fill:#414083;}
	.st19{fill:#2C2C66;}
</style>
<switch>
	
	<g>
		<g>
			<path class="st0" d="M468.6,348.1c-11.6-31.2-19-84-36.2-87.3l-17.6,81.1c6.2,16.8,11,37.3,16,57.4c-3.6,11.6-2,25.5,5.1,40.2
				c6.7,7.7,13,16.3,26.4,11.7c9.6-3.3,18.7-15.9,21.4-26.4c0.1-0.5,0.2-0.9,0.3-1.4C499.5,395.8,475.4,365.7,468.6,348.1z"/>
			<g>
				<g>
					<path class="st1" d="M430.4,395.5c1-1.4,10.4-10.8,11.4-12.2c4.3-6,5.5-9.1,11-14c4.9-4.5,5.4-3.3,11.7-5.5
						c-0.5-0.7-1.1-1.4-2.1-2.4c-1.7-1.9-10.8,1.2-12.6-0.4c-6.9-6.3-7-16.9-14-23.2c-6.6-5.9-11.8-12.5-15.6-20.3l-5.3,24.4
						c5.9,15.9,10.5,35.1,15.2,54.1C430.1,395.8,430.3,395.6,430.4,395.5z"/>
				</g>
			</g>
			<g>
				<g>
					<g>
						<path class="st2" d="M345.4,105.4c-11.4-6.7-26.2-7.2-38.1-1.5c-11.9,5.8-20.6,17.7-22.5,30.7c-0.9,5.9-0.4,12.2-2.9,17.7
							c-2.4,5.3-7.1,9.2-10.7,13.8c-8.1,10.6-9.2,26.1-2.7,37.7c2.6,4.7,6.4,8.8,9.4,13.3c3,4.5,5.4,9.8,4.7,15.2
							c-1,8.1-8.5,15.1-7,23.2c0,0,131.7,0,132.2-0.7c-5.7-4.8-7.9-13.4-5.1-20.3c1.8-4.5,5.4-8.1,8.4-11.9
							c6-7.5,10.1-16.7,10.9-26.2c0.8-9.6-2-19.6-8.3-26.8c-3.5-4-8-7.2-10.8-11.7c-3.4-5.6-3.7-12.6-5.1-19
							c-2.5-11.8-7.1-23.5-17.1-30.2S355.3,100.7,345.4,105.4z"/>
					</g>
				</g>
				<g>
					<g>
						<path class="st3" d="M343.3,125.2c0,0,15.3-9.5,25.5-2.7c14.2,9.4,14.3,10.8,14.4,20.1c0.2,9.3-2.1,25.8-2.3,32
							c-0.2,6.2-71.4,10.4-71.4,10.4s-8.4-9.8-9.6-20.3c-1.8-16.3,8.6-37.7,26.8-39.3C344.8,123.7,343.3,125.2,343.3,125.2z"/>
					</g>
				</g>
				<g>
					<g>
						<path class="st3" d="M326,183.6c0,0-1.8,16.2-12.9,21.3c-11.1,5.1-24,17.7-22.2,30c1.8,12.3,15.9,27,15.9,27h83.5
							c0,0-3.9-6,0.6-12.3c4.5-6.3,10.5-19.5,8.4-34.8c-2.1-15.3-26.4-32.4-26.4-32.4L326,183.6z"/>
					</g>
				</g>
				<g>
					<g>
						<path class="st4" d="M283.9,216.2c-0.3,0-0.6-0.1-0.8-0.3c-0.4-0.4-0.4-1.1,0-1.5c2.2-2.2,5.1-3.9,7.9-5.6
							c3.4-2.1,6.7-4,8.7-6.7c4.5-6.1,3.4-13.6,1.7-21.1c-1.7,11.1-9.7,13.4-16.5,15.3c-6.1,1.7-11.4,3.2-12,10.1
							c-0.1,0.6-0.6,1-1.2,1c-0.6-0.1-1-0.6-1-1.2c0.8-8.4,7.3-10.2,13.6-12c8.3-2.4,17-4.8,15-22.3c-0.3-1.3-0.4-2.6-0.6-3.9
							c-0.1-0.7-0.2-1.3-0.4-2c-3.1-15.3-5.3-42.2,15.1-51c11.2-4.8,24.7-1.1,32.2,8.9c0.3,0.3,0.3,0.8,0.1,1.2
							c-0.2,0.4-0.6,0.6-1,0.6l-1.6-0.1c-10.1-0.5-16.8-0.8-26,4.7c-12.1,7.2-17.5,24.1-16.2,37.5c0.2,1.3,0.4,2.6,0.5,3.8
							c0,0.1,0,0.1,0,0.2c0.4,1.9,0.8,3.7,1.3,5.7c2.1,8.5,4.4,18.2-1.3,26c-2.2,3-5.8,5.2-9.3,7.3c-2.7,1.6-5.5,3.3-7.5,5.3
							C284.5,216.1,284.2,216.2,283.9,216.2z M323.8,114.9c-3.2,0-6.4,0.6-9.4,1.9c-15.6,6.7-16.9,25.4-15.2,39.9
							c1.7-11.3,7.3-22.7,16.9-28.5c9.5-5.7,16.7-5.5,26.4-5.1C337.6,117.9,330.7,114.9,323.8,114.9z"/>
					</g>
				</g>
				<g>
					<g>
						<path class="st4" d="M411.1,219.7c-0.1,0-0.2,0-0.3,0c-0.6-0.2-0.9-0.8-0.8-1.3c3.2-11.9-1.3-22.7-12.4-29.7
							c-5.2-3.3-8.4-5.9-11.5-11.2c-4.5-8.3-4.2-21.7-3.9-30.6l0-0.3c0.7-8.9-4.1-17.7-12.3-22.5c-7.5-4.4-16.1-4.4-22.9,0.2
							c-0.5,0.3-1.2,0.2-1.5-0.3c-0.3-0.5-0.2-1.2,0.3-1.5c7.5-5,17-5.1,25.3-0.2c8.9,5.2,14.1,14.8,13.4,24.5l0,0.2
							c-0.2,8.6-0.6,21.7,3.6,29.5c2.8,4.9,5.7,7.3,10.7,10.4c11.8,7.4,16.8,19.4,13.3,32.1C412,219.4,411.6,219.7,411.1,219.7z"/>
					</g>
				</g>
				<g>
					<g>
						<path class="st4" d="M419.8,200.8c-0.4,0-0.7-0.3-0.8-0.7c-1.8-9.9-9.2-18.8-19.7-23.7c-4.8-2.3-9.6-6.2-12.8-10.6
							c-0.3-0.4-0.2-0.9,0.2-1.1c0.4-0.3,0.9-0.2,1.1,0.2c3.1,4.2,7.6,7.9,12.2,10.1c11,5.1,18.7,14.4,20.6,24.9
							c0.1,0.4-0.2,0.9-0.7,1C419.9,200.8,419.9,200.8,419.8,200.8z"/>
					</g>
				</g>
			</g>
			<g>
				<g>
					<path class="st1" d="M448,591.1c1.2-46.2-1.6-108.4-26.5-154.9c-2.1-8.3-7.5-15.7-7.9-24.3L274.2,412c-0.5,7.1-0.9,14.1-2,20.9
						c-25.9,50.6-35.3,101-33.7,158.1c0,0,24.3,11.9,58.6,8.2c18.4-2,37.5-9.2,51.2-9.2c13.5,0,33.4,7.7,54,6.9
						C424.2,596.1,448,591.1,448,591.1z"/>
				</g>
			</g>
			<g>
				<g>
					<polygon class="st5" points="343.9,226.5 256.8,264.9 275.3,412.9 414.2,411.9 427.8,264.9 					"/>
				</g>
			</g>
			<g>
				<g>
					<path class="st6" d="M338.5,434.5c-22,0-43.1-1-61.6-2.1c-0.5,0-0.8-0.4-0.8-0.9c0-0.5,0.4-0.8,0.9-0.8
						c41,2.5,94.3,4.4,143.2-3.8c0.4-0.1,0.9,0.2,0.9,0.7c0.1,0.4-0.2,0.9-0.7,0.9C393.6,433,365.3,434.5,338.5,434.5z"/>
				</g>
			</g>
			<g>
				<g>
					<path class="st6" d="M348.1,523.8c-0.4,0-0.8-0.4-0.8-0.8c-0.4-12-0.6-22.1-0.9-31.8c-0.5-17.6-0.9-34.2-1.8-57.8
						c-0.4-6.7-0.4-13.5-0.4-20.1c0-0.5,0.4-0.8,0.8-0.8s0.8,0.4,0.8,0.8c0,6.6,0,13.3,0.4,20c0.9,23.7,1.3,40.3,1.8,57.8
						c0.3,9.7,0.5,19.8,0.9,31.8C348.9,523.4,348.6,523.8,348.1,523.8C348.1,523.8,348.1,523.8,348.1,523.8z"/>
				</g>
			</g>
			<g>
				<g>
					<path class="st6" d="M348.1,523.8c-0.3,0-0.6-0.2-0.7-0.4c-0.2-0.4,0-0.9,0.4-1.1c7.9-4.1,12.8-13.2,13.7-18.3
						c0.4-2.4-0.1-14.8-0.7-29.1c-0.8-20.7-1.9-46.4-1.1-60.7c0-0.5,0.4-0.8,0.9-0.8c0.5,0,0.8,0.4,0.8,0.9
						c-0.8,14.3,0.3,39.9,1.1,60.5c0.6,15,1.1,26.9,0.6,29.4c-1.1,6.5-6.9,15.6-14.5,19.5C348.4,523.8,348.2,523.8,348.1,523.8z"/>
				</g>
			</g>
			<g>
				<g>
					<path class="st6" d="M348.3,591c-0.4,0-0.8-0.3-0.8-0.7c-1.8-12.8-1.1-33.3-0.6-49.8c0.2-6.5,0.4-12.7,0.4-17.4
						c0-0.5,0.4-0.8,0.8-0.8c0,0,0,0,0,0c0.5,0,0.8,0.4,0.8,0.8c0,4.8-0.2,11-0.4,17.5c-0.5,16.5-1.2,37,0.6,49.6
						c0.1,0.4-0.2,0.9-0.7,0.9C348.4,591,348.3,591,348.3,591z"/>
				</g>
			</g>
			<g>
				<g>
					<path class="st7" d="M346.1,217.2l-39.3,24.3c-2,21.9,20.1,43.4,39,46.4c20.4-3.7,37.7-19.9,39.5-42.2L346.1,217.2z"/>
				</g>
			</g>
			<g>
				<g>
					<path class="st8" d="M345.8,293.5C345.8,293.5,345.8,293.5,345.8,293.5c-10.1-1.6-21.3-7.9-29.9-16.8c-9.4-9.6-14.8-21-15.2-32
						c0-0.3,0.2-0.6,0.5-0.6c0.3,0,0.6,0.2,0.6,0.5c0.4,10.7,5.7,21.8,14.9,31.3c8.5,8.7,19.4,14.8,29.1,16.4
						c11.5-2.1,22.1-7.7,30.1-15.9c8.4-8.7,13.4-19.6,14.4-31.7c0-0.3,0.3-0.5,0.6-0.5c0.3,0,0.5,0.3,0.5,0.6
						c-1,12.3-6.1,23.5-14.7,32.4C368.5,285.6,357.6,291.4,345.8,293.5C345.9,293.5,345.8,293.5,345.8,293.5z"/>
				</g>
			</g>
			<g>
				<g>
					<path class="st0" d="M256.5,261.3c-4.6,1.6-13.3,10.2-15,15.3c-18,55-29.2,82.7-30.7,128.8c3.1,20.9,16,33.7,27.2,39
						c21.5,10.1,37-10,40.9-21.4c7.3-27.7-7.8-67.1-9.1-95.2C268.8,304.4,268.8,279.6,256.5,261.3z"/>
				</g>
			</g>
			<g>
				<g>
					<path class="st1" d="M240.5,371c-1.5,3-2.6,6.3-3.3,9.6c3.9-3.3,8.2-4.1,11.8-6.4c4.4-2.8,8-6.9,11.8-7.6
						c7.7-1.4,13.9,2.3,17.8,14c-3.2-19.5-11.8-46.9-12.3-63.6c-4.3,10.9-3.7,30.6-10.7,40C251.7,362.1,243.5,365.3,240.5,371z"/>
				</g>
			</g>
			<g>
				<g>
					<path class="st6" d="M216.1,401.9c-0.1,0-0.1,0-0.2,0c-0.4-0.1-0.7-0.5-0.6-1c1.6-6.6,4.8-13.5,8.2-17.3
						c3.5-4,7.9-4.7,12.6-5.6c3.1-0.5,6.3-1.1,9.3-2.7c2.2-1.2,4-2.6,5.7-3.9c4.1-3.2,8-6.3,17.1-4.4c0.4,0.1,0.7,0.5,0.6,1
						c-0.1,0.4-0.5,0.7-1,0.6c-8.4-1.8-11.7,0.8-15.8,4.1c-1.8,1.4-3.6,2.8-5.9,4.1c-3.2,1.7-6.5,2.3-9.8,2.8
						c-4.4,0.8-8.5,1.5-11.6,5c-3.2,3.6-6.4,10.3-7.8,16.6C216.8,401.6,216.5,401.9,216.1,401.9z"/>
				</g>
			</g>
			<g>
				<g>
					<path class="st0" d="M320.8,232.7c-13.4,18.9-11.2,64-5.4,95c5.9,31,15.7,61.4,17.4,92.9c3.2,56.6-12.5,136.8-14.3,168.2
						c-14.9,5.6-31.4,3.8-47.2,1.9c-15.1-1.8-30.3-3.6-44.5-5.8c-1.9-26.9,2.3-54,9.4-80c7.1-26,20.9-56.6,31.3-82.1
						c2.5-56-4.2-105.5-12.6-160.9l54.2-24l13.1-10.9L320.8,232.7z"/>
				</g>
			</g>
			<g>
				<g>
					<path class="st1" d="M279,423.2c-2.1,12-7.7,35.2-19.5,44.3c-6.3,4.9-12.5,12.4-17.8,20c4.8-13.7,10.6-28,16.4-41.8
						C268.9,441.7,276.4,430.7,279,423.2z"/>
				</g>
			</g>
			<g>
				<g>
					<path class="st6" d="M332.1,459.6C332.1,459.6,332.1,459.6,332.1,459.6c-0.5,0-0.9-0.4-0.8-0.9c3.1-32.8-14.7-68.6-28.9-97.4
						c-9.7-19.5-18.1-36.4-18.3-48.4c-0.9-45.3,24.3-75,24.5-75.3c0.3-0.3,0.8-0.4,1.2-0.1c0.3,0.3,0.4,0.8,0.1,1.2
						c-0.3,0.3-25,29.6-24.1,74.2c0.2,11.6,8.5,28.4,18.1,47.7c14.4,28.9,32.2,64.9,29.1,98.2C332.9,459.3,332.5,459.6,332.1,459.6z
						"/>
				</g>
			</g>
			<g>
				<g>
					<path class="st0" d="M366.5,231.6c11.1,18.5,11.2,64,5.4,95c-5.9,31-15.7,61.4-17.4,92.9c-3.2,56.6,12.5,136.8,14.3,168.2
						c14.9,5.6,31.4,3.8,47.2,1.9c15.1-1.8,30.3-3.6,44.5-5.8c1.9-26.9-2.3-54-9.4-80c-7.1-26-17.2-51.1-27.6-76.6
						c-0.9-19.5-1.1-38.8-0.6-58.1c0.2-10.6,5-18.1,5.6-28.7c0.4-6.4-3.4-15.9-2.9-22.3c1.6-19.1,3.9-38.2,6.8-57.3l-51.2-22.7
						l-15.6-12.1L366.5,231.6z"/>
				</g>
			</g>
			<g>
				<g>
					<path class="st1" d="M398.2,480.3c0,0,9.2,4.1,33.9,5c3.6,0.1,12.7,6,15.6,6.6c-5.7-18.5-12.7-36.7-20.1-54.9L398.2,480.3z"/>
				</g>
			</g>
			<g>
				<g>
					<path class="st6" d="M355,462.1c-0.4,0-0.8-0.4-0.8-0.8c-0.2-10.4,7.6-28.4,16.7-49.3c14.4-33.2,32.3-74.6,29.8-109.3
						c-2.1-30-20-62.8-20.2-63.2c-0.2-0.4-0.1-0.9,0.3-1.1c0.4-0.2,0.9-0.1,1.1,0.3c0.2,0.3,18.2,33.4,20.4,63.8
						c2.5,35.1-15.5,76.7-30,110.1c-9,20.7-16.7,38.7-16.6,48.7C355.8,461.7,355.5,462.1,355,462.1C355,462.1,355,462.1,355,462.1z"/>
				</g>
			</g>
			<g>
				<g>
					<path class="st6" d="M422.8,366.1c-0.1,0-0.3,0-0.4-0.1c-0.6-0.2-0.9-0.8-0.6-1.4c6.8-18,5.6-28.6,4.2-40.9
						c-0.2-1.8-0.4-3.6-0.6-5.5c-0.1-1.5-0.3-2.9-0.5-4.4c-0.8-7.3-1.6-14.2-1-21.6c0.8-10.3,3.2-18.6,7.3-25.4
						c0.3-0.5,1-0.7,1.5-0.4c0.5,0.3,0.7,1,0.4,1.5c-3.9,6.5-6.2,14.5-7,24.4c-0.6,7.1,0.2,13.9,1,21.1c0.2,1.5,0.3,2.9,0.5,4.4
						c0.2,1.9,0.4,3.7,0.6,5.4c1.5,12.5,2.7,23.4-4.3,41.9C423.6,365.8,423.2,366.1,422.8,366.1z"/>
				</g>
			</g>
			<g>
				<g>
					<path class="st6" d="M483.9,422.1c0,0-0.1,0-0.1,0c-0.6-0.1-1-0.6-1-1.2c1.4-13.1-1.6-25.5-7.9-33.3c-3.5-4.3-7.6-6.8-12.1-7.2
						c-16.1-1.7-26.8,7.7-30.4,17.6c-0.2,0.6-0.8,0.9-1.4,0.7c-0.6-0.2-0.9-0.8-0.7-1.4c2.4-6.7,7-12,13.3-15.4
						c5.7-3.1,12.6-4.4,19.3-3.7c5.1,0.5,9.7,3.3,13.6,8c6.7,8.3,9.8,21.3,8.4,34.9C484.9,421.7,484.4,422.1,483.9,422.1z"/>
				</g>
			</g>
			<g>
				<g>
					<path class="st6" d="M438.8,387.2c-0.2,0-0.4-0.1-0.6-0.2c-0.3-0.3-0.3-0.8,0-1.2c2.5-2.5,4.7-5.4,6.7-8.3
						c0.4-0.6,0.9-1.3,1.3-1.9c2.6-3.5,5.5-7.2,9.2-9.7c4.2-2.8,9.1-3.7,13.2-2.5c0.4,0.1,0.7,0.6,0.5,1c-0.1,0.4-0.6,0.7-1,0.5
						c-3.6-1.1-8-0.2-11.8,2.3c-3.6,2.4-6.3,5.9-8.8,9.3c-0.4,0.6-0.9,1.2-1.3,1.9c-2.1,2.9-4.2,6-6.9,8.5
						C439.3,387.2,439.1,387.2,438.8,387.2z"/>
				</g>
			</g>
			<g>
				<g>
					<path class="st9" d="M304.9,311.3l7.1,59.3c0.2,1.3,1.1,2.5,2.4,2.8c2.7,0.7,7.7,1.7,15,1.7c6.1,0,10.9-1,13.5-1.7
						c1.3-0.4,2.3-1.5,2.4-2.8l6.4-59.3H304.9z"/>
				</g>
			</g>
			<g>
				<g>
					<path class="st10" d="M343.4,337.7H308l3.9,32.9c0.2,1.3,1.1,2.5,2.4,2.8c2.7,0.7,7.7,1.7,15,1.7c0.9,0,1.8,0,2.7-0.1
						c1.6-4,3.7-7.7,5.7-11.6c0.6-1.2,1.2-2.3,1.7-3.5c0.1-0.2,0.3-0.6,0.3-0.7c0.3-0.8,0.6-1.5,0.9-2.3c0.7-1.6,1.4-3.3,2.1-4.9
						c0.3-0.6,0.5-1.2,0.8-1.8c0,0,0-0.1,0.1-0.1c0-0.1,0-0.1,0.1-0.2c0.9-3.2,1.8-6.2,3.2-9.1C345.5,340.1,344.3,339.1,343.4,337.7
						z"/>
				</g>
			</g>
			<g>
				<g>
					<path class="st11" d="M351.7,311.3l-3.4-3.4l-1.2-6.2c-15.3-2.2-20.7-2.2-37.7,0l-1.1,6.2l-3.4,3.4
						C321.4,313.1,337.2,313.5,351.7,311.3z"/>
				</g>
			</g>
			<g>
				<g>
					<path class="st11" d="M305.5,306.9l-0.7,4.4c7.1,3,41.4,1.7,46.8,0l-0.7-4.4H305.5z"/>
				</g>
			</g>
			<g>
				<path class="st7" d="M346,342.8c2.8-0.1,2.8-2.3,2.7-2.9c-5.7-4.2-13.9-8.1-20.5-8.3c-2.9-0.1-5.3,0.6-7.6,1.5
					c3-2.5,6.1-4.8,9-7.5c4.7,0.3,7.4-0.1,11.3-0.3c7.5-0.5,7.4-4.2,6.5-5c-6.6-2.4-14.1-4.3-20.9-3.4c-1.1-0.1-8,5-11.3,7.6
					c-5.3,3.4-14.5,16.1-21.9,23.7c-11.8,8.9-46,29.5-48.2,38.2c-9.6,37.6,16.3,47.5,16.3,47.5c9.5-5.1,18-22.2,24.2-33.4
					c5.1-9.2,8.3-16.5,13.2-24.7c1.9-0.1,6.6-0.5,8.2-1.1c3.9-1.5,12.2-7.5,13.6-8.6c2.8-1.6,5-3.1,7.3-3.5c3.4,0.4,12-1,12.5-2
					c1.9-3.3-11.1-6.1-14.7-5.8c-3.1,0.7-4,1.1-5.8,1.8l-0.2-2c4.6-1.5,7.5-2.7,10.6-2.6c3.1,0.2,4.4,0.6,10.3,1.4
					c4.8,1,8.2-2.7,3-5.2c-3.2-1.2-10.5-4.3-14.1-4.4c-3.1-0.3-6.2,0.1-10.8,1.4l0,0c3.8-1.5,5.4-3.5,10.2-4.2
					C334.5,341.6,342.4,343.4,346,342.8z"/>
			</g>
			<g>
				<g>
					<path class="st12" d="M367.2,234.4c-1.7-12.1-2.9-24.6-3.1-36.2h-42.2c0,12.1-0.5,24.2-1.9,36.2c-0.6,5.3,2,10.6,6.7,13.2
						c10.9,6,22.1,6.9,34,0.1C365.4,245,367.9,239.7,367.2,234.4z"/>
				</g>
			</g>
			<g>
				<g>
					<g>
						<path class="st7" d="M346,125.7c-5.5,16.1-17.1,9-29.1,22.8c-2.9,3.3-5.7,7.7-7.4,18.3c-2.3,14.7-3.3,32.6,2,42
							c6.6,11.8,23.2,22,32.3,22c8.8,0,29.5-11.8,34.6-23.2c3.9-8.8,3.9-16.4,2.9-27c-1.1-12.4-2.1-24.7-10.2-33
							C363.6,139.7,353.6,139.2,346,125.7z"/>
					</g>
				</g>
				<g>
					<g>
						<path class="st13" d="M343.9,231.6c-4.2,0-10-2-15.9-5.5c-0.4-0.2-0.5-0.7-0.3-1.1c0.2-0.4,0.7-0.5,1.1-0.3
							c5.5,3.3,11.2,5.3,15.1,5.3c0.5,0,0.8,0.4,0.8,0.8C344.7,231.2,344.3,231.6,343.9,231.6z"/>
					</g>
				</g>
				<g>
					<g>
						<g>
							<path class="st14" d="M320.5,172.4c0-2.5,1.4-4.1,3.1-4.1c1.7,0,3.1,1.7,3.1,4.1s-1.4,4.5-3.1,4.5
								C321.9,176.9,320.5,174.9,320.5,172.4L320.5,172.4z"/>
						</g>
					</g>
					<g>
						<g>
							<path class="st2" d="M315.3,163.5c3.1-3.9,8.2-5.8,13.2-5.6c2.7,0.2,5.4,1.5,6.9,3.7c0.7,0.9-0.4,2.2-1.4,1.7
								c-2.8-1.3-5.6-1.9-8.6-1.5c-3,0.4-6.1,1.5-8.5,3.2C315.9,165.8,314.6,164.5,315.3,163.5L315.3,163.5z"/>
						</g>
					</g>
					<g>
						<g>
							<path class="st14" d="M329.6,172.8c-0.3,0-0.5-0.1-0.7-0.3c-1.7-2.4-3.7-3.7-5.6-3.7c-1.5-0.1-3,0.7-4.2,2
								c-1,1.2-3.1,0.9-4,0.8c-0.1,0-0.1,0-0.2,0c-0.5,0-0.8-0.4-0.8-0.9c0-0.5,0.4-0.8,0.9-0.8c0.1,0,0.1,0,0.3,0
								c1.8,0.2,2.4,0,2.5-0.2c1.5-1.7,3.4-2.7,5.5-2.6c1.7,0.1,4.3,0.9,6.8,4.4c0.3,0.4,0.2,0.9-0.2,1.1
								C329.9,172.7,329.8,172.8,329.6,172.8z"/>
						</g>
					</g>
					<g>
						<g>
							<path class="st14" d="M366.8,172.4c0-2.5-1.4-4.1-3.1-4.1c-1.7,0-3.1,1.7-3.1,4.1s1.4,4.5,3.1,4.5
								C365.4,176.9,366.8,174.9,366.8,172.4L366.8,172.4z"/>
						</g>
					</g>
					<g>
						<g>
							<path class="st2" d="M371.5,165c-5.2-3.5-12-5-17.4-1.1c-1,0.7-2.3-0.5-1.6-1.5c3.5-5.3,11-5.3,16-2.5c1.7,0.9,3.2,2,4.4,3.5
								c0.4,0.5,0.3,1.2-0.1,1.6C372.4,165.3,371.9,165.3,371.5,165L371.5,165z"/>
						</g>
					</g>
					<g>
						<g>
							<path class="st14" d="M357.9,172.8c-0.2,0-0.3,0-0.5-0.1c-0.4-0.3-0.5-0.8-0.2-1.1c2.4-3.6,5-4.4,6.7-4.5
								c2.1-0.1,4.2,0.9,5.7,2.7c0.2,0.2,0.7,0.4,2.3,0c0.2,0,0.3-0.1,0.4-0.1c0.5,0,0.8,0.3,0.9,0.8c0,0.5-0.3,0.8-0.8,0.9
								c0,0-0.1,0-0.2,0c-0.9,0.2-2.9,0.6-3.9-0.6c-1.1-1.4-2.7-2.1-4.3-2.1c-1.9,0.1-3.8,1.4-5.4,3.8
								C358.4,172.6,358.2,172.8,357.9,172.8z"/>
						</g>
					</g>
					<g>
						<g>
							<path class="st15" d="M355.6,201.5c0,0-6.6-3.5-8.9-3.1c-1,0.2-1.9,0.7-2.5,1.3c-0.7,0.7-0.9,0.7-1.6,0
								c-0.8-0.8-2.1-1.2-3.4-1.2c-2.1,0-7.7,2.3-7.6,2.8c1,4,6.2,9.2,11.4,9.2C352.8,210.4,355.6,201.5,355.6,201.5z"/>
						</g>
					</g>
					<g>
						<g>
							<path class="st16" d="M331.5,200.3c2.1,1.4,4.9,1.9,7.5,2.4c1.5,0.4,3.1,1,4.6,1c0.9,0,1.9-0.4,3-0.7c1-0.4,2.2-0.5,3.3-0.6
								c2.1-0.4,4.2-0.9,6.1-1.8c0.4-0.2,0.9,0,1.1,0.4c0.2,0.5-0.1,1-0.5,1.2c-2.7,0.8-5.4,1.4-8.1,1.7c-1.6,0.2-3,1.1-4.8,1.1
								c-1.8,0-3.3-0.6-5-0.9c-2.7-0.5-5.4-0.8-8.1-2.1C329.5,201.3,330.4,199.6,331.5,200.3L331.5,200.3z"/>
						</g>
					</g>
					<g>
						<g>
							<g>
								<path class="st13" d="M341,171.8c0,1.9,0.4,4,0.2,6.2c-0.2,2.1-0.8,4.2-1.6,6.1c-1.1,2.4-2,5.6,0.6,7.3
									c0.7,0.5,1.6,0.8,2.5,0.9c0.4,0.1,0.7,0.5,0.7,0.9c-0.1,0.4-0.5,0.7-0.9,0.7c-6.1-0.5-7.1-5.8-4.7-10.6
									c0.8-1.8,1.4-3.6,1.6-5.5c0.3-1.9,0-3.9,0.1-6C339.4,170.8,341,170.8,341,171.8L341,171.8z"/>
							</g>
						</g>
						<g>
							<g>
								<path class="st13" d="M350,192.7c-0.2,0-0.4-0.1-0.6-0.3c-0.3-0.3-0.3-0.9,0.1-1.2c1.3-1.2,0.8-2.6,0.7-2.7
									c-0.2-0.4,0-0.9,0.4-1.1c0.4-0.2,0.9,0,1.1,0.4c0.4,0.9,0.7,3-1.1,4.6C350.4,192.7,350.2,192.7,350,192.7z"/>
							</g>
						</g>
						<g>
							<g>
								<path class="st13" d="M334.6,192.7c-0.2,0-0.4-0.1-0.5-0.2c-1.8-1.6-1.6-3.7-1.2-4.6c0.2-0.4,0.7-0.6,1.1-0.4
									c0.4,0.2,0.6,0.7,0.4,1.1c-0.1,0.2-0.6,1.5,0.8,2.7c0.3,0.3,0.4,0.8,0.1,1.2C335,192.6,334.8,192.7,334.6,192.7z"/>
							</g>
						</g>
					</g>
				</g>
				<g>
					<g>
						<path class="st17" d="M378.2,179.2c-4-2.3-17.2,7-14.5,11.5c2.7,4.5,9.1,2.2,12-0.1C380.2,187,380.7,180.7,378.2,179.2z"/>
					</g>
				</g>
				<g>
					<g>
						<path class="st17" d="M311.4,179.2c4-2.3,17.2,7,14.5,11.5c-2.7,4.5-9.1,2.2-12-0.1C309.5,187,308.9,180.7,311.4,179.2z"/>
					</g>
				</g>
			</g>
			<g>
				<g>
					<path class="st6" d="M267.3,361.4c-0.5,0-0.9-0.3-1.1-0.8c-2.7-9.9-2.7-19.3-2.8-29.3c0-5-0.1-10.3-0.5-15.5
						c-1.3-16.4-5-28.7-11.5-37.6c-0.4-0.5-0.2-1.2,0.2-1.5c0.5-0.4,1.2-0.2,1.5,0.2c6.7,9.3,10.5,21.9,11.9,38.7
						c0.4,5.3,0.5,10.6,0.5,15.6c0.1,9.8,0.2,19.1,2.8,28.7c0.2,0.6-0.2,1.2-0.8,1.3C267.5,361.4,267.4,361.4,267.3,361.4z"/>
				</g>
			</g>
			<g>
				<g>
					<path class="st18" d="M392,490.1l-45.2-102.5c-0.5-1.1-0.3-2.5,0.5-3.4l47.7-56.3c1.6-1.8,4.5-1.4,5.4,0.8l45.2,102.5
						c0.5,1.1,0.3,2.5-0.5,3.4l-47.7,56.3C395.9,492.7,393,492.3,392,490.1z"/>
				</g>
			</g>
			<g>
				<g>
					<path class="st11" d="M349.1,384.7l46.7-55.2c1,0.5,1.3,1.2,3.3,1.3c-0.2,0.2-0.4,0.3-0.6,0.6l-46.7,55.2L349.1,384.7z"/>
				</g>
			</g>
			<g>
				<g>
					<path class="st19" d="M397,488.3c-0.3,0-0.6-0.2-0.7-0.5l-44-98c-0.2-0.4,0-0.9,0.4-1.1c0.4-0.2,0.9,0,1.1,0.4l44,98
						c0.2,0.4,0,0.9-0.4,1.1C397.3,488.3,397.1,488.3,397,488.3z"/>
				</g>
			</g>
			<g>
				<g>
					<path class="st7" d="M441.5,396.1c-10.1,9.9-18.7,26.6-34.8,34.1c0,0,15.3,19.6,16.2,19.8c18.1-7.7,27.9-12.2,40.8-18.8
						c0,0,3.3-10,1.4-22.8c-1.1-7.4-5.1-12.5-9.4-14.6C447.8,389.7,444.9,392.7,441.5,396.1z"/>
				</g>
			</g>
			<g>
				<g>
					<path class="st5" d="M421.8,419.1c-1.7,1.7-3.4,3.3-5.3,4.9c6,3.9,14.1,14.7,11.2,23.9c3.1-1.3,6-2.6,8.8-3.8
						C437.7,441.7,433.4,423.3,421.8,419.1z"/>
				</g>
			</g>
			<g>
				<g>
					<ellipse class="st5" cx="431.3" cy="437" rx="6.5" ry="7.9"/>
				</g>
			</g>
			<g>
				<g>
					<ellipse class="st11" cx="431.3" cy="437" rx="5.3" ry="6.5"/>
				</g>
			</g>
			<g>
				<g>
					<g>
						<path class="st7" d="M418.7,426.9c-4.6-5.4-14.8-10.2-23.2-12.7c-4.3,8.5-16.2,10.6-23.3,15.2c-0.5,12.7,4.5,23.5,9.3,32
							l41.4-11.5L418.7,426.9z"/>
					</g>
				</g>
				<g>
					<g>
						<path class="st7" d="M398.3,415.1c-9.7-4.5-16.2-11.5-21.6-18.5c-1.9-2.5-3.8-0.7-4,1.3c-0.3,3.7,2.1,10.1,4,13.1
							c2.8,4.6,9,8.2,12.2,12.5L398.3,415.1z"/>
					</g>
				</g>
				<g>
					<g>
						<path class="st7" d="M387.9,421.9c-8.2,1-17.8,1.9-25.5,0.5c-1.3-2.4-2-4.1-3.5-7.1c-0.6,0.1-4.7,4.7-5.2,5.1
							c-2.1,1.6-2.4,5.6,0.3,7.4c6.7,4.3,16.5,5.7,23.4,6.8c0,0,0.9-5,0.7-5.1c-7-1.4-14.1-5.3-21.3-6.1c-2,3.8-2,10.7,2.9,14.5
							c0.3,2.9,1.8,6.8,6.3,10.8c-0.3,4.7,8.2,12.1,15.7,13L387.9,421.9z"/>
					</g>
				</g>
				<g>
					<g>
						<g>
							<path class="st13" d="M374.4,436c-0.1,0-0.1,0-0.2,0c-6.1-1.4-12-3.5-17.6-6.3c-0.4-0.2-0.6-0.7-0.4-1.1
								c0.2-0.4,0.7-0.6,1.1-0.4c5.5,2.7,11.2,4.8,17.2,6.2c0.4,0.1,0.7,0.5,0.6,1C375.2,435.7,374.8,436,374.4,436z"/>
						</g>
					</g>
					<g>
						<g>
							<path class="st13" d="M374.8,445.4c-0.1,0-0.1,0-0.2,0c-5.5-1.4-10-3.5-14.9-6.6c-0.4-0.2-0.5-0.8-0.2-1.1
								c0.2-0.4,0.8-0.5,1.1-0.2c4.7,3,9.1,5,14.4,6.4c0.4,0.1,0.7,0.6,0.6,1C375.5,445.1,375.1,445.4,374.8,445.4z"/>
						</g>
					</g>
					<g>
						<g>
							<path class="st13" d="M377.4,454.1c-0.1,0-0.1,0-0.2,0c-3.9-1.1-7.6-2.6-11-4.7c-0.4-0.2-0.5-0.7-0.3-1.1
								c0.2-0.4,0.7-0.5,1.1-0.3c3.3,2,6.9,3.5,10.6,4.5c0.4,0.1,0.7,0.6,0.6,1C378.1,453.8,377.8,454.1,377.4,454.1z"/>
						</g>
					</g>
				</g>
			</g>
			<g>
				<g>
					<path class="st6" d="M241.8,434.7c-0.3,0-0.6-0.1-0.8-0.3c-10.1-9.8-14.5-21.6-12.8-33.9c1.7-12.6,9.2-22.1,11-23.1
						c0.5-0.3,1.2-0.1,1.5,0.4c0.3,0.5,0.1,1.2-0.4,1.5c-1.1,0.6-8.3,9.4-9.9,21.7c-1.5,11.7,2.6,22.4,12.2,31.8
						c0.4,0.4,0.4,1.1,0,1.5C242.4,434.6,242.1,434.7,241.8,434.7z"/>
				</g>
			</g>
			<g>
				<g>
					<path class="st6" d="M249.7,448c-3.9,0-7.9-1-12-2.9c-0.4-0.2-0.6-0.7-0.4-1.1c0.2-0.4,0.7-0.6,1.1-0.4
						c7,3.3,13.9,3.6,20.5,0.8c9.6-4.1,16.7-14.1,19.3-21.7c0.9-3.5,1.5-7.3,1.8-11.4c0-0.5,0.4-0.8,0.9-0.8c0.5,0,0.8,0.4,0.8,0.9
						c-0.3,4.2-0.9,8.2-1.8,11.8c0,0,0,0,0,0.1c-2.7,7.9-10.2,18.4-20.2,22.7C256.4,447.4,253.1,448,249.7,448z"/>
				</g>
			</g>
			<g>
				<g>
					<path class="st6" d="M460.9,439.9c-0.1,0-0.2,0-0.3-0.1c-0.4-0.2-0.6-0.7-0.4-1.1c5.7-13.1,6.8-24.4,3.2-33.4
						c-3.6-9.1-10.7-12.5-10.8-12.6l-0.4-0.2c-2.2-0.9-4.9-2-7.9,1.3c-0.3,0.3-0.8,0.4-1.2,0.1c-0.3-0.3-0.4-0.8-0.1-1.2
						c3.8-4.2,7.5-2.7,9.7-1.8l0.4,0.2c0.1,0,7.6,3.5,11.5,13.1c3.9,9.5,2.9,21.3-3.1,35C461.5,439.7,461.2,439.9,460.9,439.9z"/>
				</g>
			</g>
			<g>
				<g>
					<path class="st13" d="M312,337.3c-0.3,0-0.7-0.2-0.8-0.5c-0.1-0.4,0.1-0.9,0.5-1l11.7-4.1c0.4-0.2,0.9,0.1,1,0.5
						c0.1,0.4-0.1,0.9-0.5,1l-11.7,4.1C312.2,337.3,312.1,337.3,312,337.3z"/>
				</g>
			</g>
			<g>
				<g>
					<path class="st13" d="M313.9,347.7c-0.3,0-0.7-0.2-0.8-0.6c-0.1-0.4,0.1-0.9,0.5-1c0.6-0.2,6.9-2.2,7.1-2.2
						c0.4-0.1,0.9,0.1,1,0.5c0.1,0.4-0.1,0.9-0.5,1c-0.1,0-6.5,2-7.1,2.2C314.1,347.7,314,347.7,313.9,347.7z"/>
				</g>
			</g>
			<g>
				<g>
					<path class="st13" d="M317.6,356.1c-0.3,0-0.7-0.2-0.8-0.6c-0.1-0.4,0.1-0.9,0.5-1c0.4-0.1,2.2-0.9,3.3-1.4
						c0.4-0.2,0.9,0,1.1,0.4c0.2,0.4,0,0.9-0.4,1.1c-0.3,0.1-2.8,1.2-3.4,1.5C317.7,356.1,317.7,356.1,317.6,356.1z"/>
				</g>
			</g>
		</g>
	</g>
</switch>

</svg>
