<?xml version="1.0" encoding="utf-8"?>
<!-- Generator: Adobe Illustrator 27.1.1, SVG Export Plug-In . SVG Version: 6.00 Build 0)  -->










<svg version="1.1" id="Layer_1" xmlns="http://www.w3.org/2000/svg" xmlns:xlink="http://www.w3.org/1999/xlink" x="0px" y="0px" viewBox="0 0 700 700" style="enable-background:new 0 0 700 700;" xml:space="preserve">
<style type="text/css">
	.st0{fill:#E2D8F3;}
	.st1{fill:#252A4F;}
	.st2{fill:#4E467D;}
	.st3{fill:#853E37;}
	.st4{fill:#B57553;}
	.st5{fill:#D8C7F3;}
	.st6{fill:#9896D9;}
	.st7{fill:#B6ACF0;}
	.st8{fill:#E38673;}
	.st9{fill:#C7625C;}
	.st10{fill:#DB7663;}
	.st11{fill:#402130;}
	.st12{fill:#78364A;}
	.st13{fill:#FEFEFE;}
	.st14{fill:#853F53;}
	.st15{fill:#1F2034;}
</style>
<switch>
	
	<g>
		<g>
			<g>
				<path class="st0" d="M251.2,263.3c-12,3.2-17.2,10.2-19.9,20.3c-8.5,32.4-13.6,65.5-19.1,96.7c-6,18-9.2,36.8-9,53.9
					c4.1,12.6,14.3,15.9,29.7,18.5c20.4-4.8,28.5-9.5,33-12.6L251.2,263.3z"/>
			</g>
			<g>
				<path class="st0" d="M442.5,262.4c1.5,0.4,2.9,1,4.4,1.7c9.5,4.6,16.1,13.6,18.2,24c8.2,41,17.2,84.1,29.1,124
					c5.7,19.3-5.5,40.7-23.1,43.5c-11.2-0.4-22.3-2.4-32.9-6L442.5,262.4z"/>
			</g>
			<g>
				<path class="st1" d="M446.5,590.4c-1.7-18.9-3.3-36-4.9-54.8c-1.2-13.3-4.1-26.3-8.7-38.8c0-0.1-0.1-0.1-0.1-0.2
					c-5-13.5-2.2-13.3-3.2-25.2L272,473.7c-1.2,12.9,2.1,11.5-2.4,24.9c-1.7,5-3.3,10-4.7,14.7c-3,9.5-4.7,19.3-5.2,29.3
					c-0.7,16.4-2.4,30.8-3.3,47.8c0,0,18.3,10.7,52.5,9.5c11.6-0.4,33.8-8.6,45.3-9.1c14-0.6,36.9,8.9,50.9,8.8
					C431.7,599.2,446.5,590.4,446.5,590.4z"/>
			</g>
			<g>
				<path class="st2" d="M260.8,540c-0.4,0-0.7-0.3-0.8-0.6c-0.1-0.4,0.2-0.8,0.6-0.9c11.6-1.9,22.7-8,30.4-16.9
					c8.1-9.3,12.7-21.6,12.6-33.9c0-0.4,0.3-0.8,0.8-0.8c0,0,0,0,0,0c0.4,0,0.8,0.3,0.8,0.8c0,12.7-4.7,25.4-13,34.9
					c-8,9.1-19.4,15.4-31.4,17.4C260.9,540,260.8,540,260.8,540z"/>
			</g>
			<g>
				<path class="st2" d="M437.2,532.3c0,0-0.1,0-0.1,0c-10.3-1.9-19.8-7.7-26.2-15.8c-7.7-9.9-10.4-19.7-8.4-31
					c0.1-0.4,0.5-0.7,0.9-0.6c0.4,0.1,0.7,0.5,0.6,0.9c-1.9,10.8,0.7,20.2,8.1,29.8c6.1,7.9,15.3,13.4,25.2,15.3
					c0.4,0.1,0.7,0.5,0.6,0.9C437.9,532,437.6,532.3,437.2,532.3z"/>
			</g>
			<g>
				<path class="st2" d="M351.8,589.9C351.8,589.9,351.8,589.9,351.8,589.9c-0.4,0-0.8-0.3-0.8-0.8c0.1-17.2,0-32.4,0-47.1
					c-0.1-16.3-0.1-33.1,0-52.1c0-0.4,0.4-0.8,0.8-0.8c0.4,0,0.8,0.3,0.8,0.8c-0.1,19-0.1,35.8,0,52.1c0,14.7,0.1,30,0,47.1
					C352.6,589.6,352.2,589.9,351.8,589.9z"/>
			</g>
			<g>
				<path class="st2" d="M352.8,575.9c-0.3,0-0.7-0.2-0.7-0.6c-0.1-0.4,0.1-0.8,0.5-0.9c6.2-1.6,10-7.6,11.5-12.6
					c1.7-5.8,1.2-53.4,0.1-71.8c0-0.4,0.3-0.8,0.7-0.8c0.4,0,0.8,0.3,0.8,0.7c1.1,18.9,1.6,66.2-0.2,72.3
					c-1.6,5.4-5.7,11.9-12.6,13.7C353,575.8,352.9,575.9,352.8,575.9z"/>
			</g>
			<g>
				<path class="st3" d="M429.7,481.8c-47.1,4.8-102.2,4.7-157.9,0c-0.6,4.2-0.4,7.4-1.3,14c56.8,3.9,111.2,4.8,162.1,0
					C431.4,489.8,430.6,484.9,429.7,481.8z"/>
			</g>
			<g>
				<path class="st4" d="M360.2,501.1h-11.4c-3.7,0-6.7-3-6.7-6.7V490c0-3.7,3-6.7,6.7-6.7h11.4c3.7,0,6.7,3,6.7,6.7v4.4
					C366.9,498.1,363.9,501.1,360.2,501.1z M348.8,485.9c-2.3,0-4.1,1.9-4.1,4.1v4.4c0,2.3,1.9,4.1,4.1,4.1h11.4
					c2.3,0,4.1-1.9,4.1-4.1V490c0-2.3-1.9-4.1-4.1-4.1H348.8z"/>
			</g>
			<g>
				<polygon class="st1" points="305.4,504.1 306.7,483.4 311.5,483.4 310.2,504.1 				"/>
			</g>
			<g>
				<polygon class="st1" points="395.1,504.7 394.5,483.8 399.6,483.8 400.6,504.7 				"/>
			</g>
			<g>
				<path class="st0" d="M349.3,217.2c0,0-102.1,47.7-103.6,48.3c7.2,67.5,12,127.5,13.9,194.2c1.2,10,3.7,14.6,11.8,20.6
					c1.6,2.6,126.3,6.2,158-0.2c3.1-1.7,7.2-7,8.4-11.3c3.9-13.9,3.4-124.8,7.1-205.2L349.3,217.2z"/>
			</g>
			<g>
				<path class="st5" d="M284,446.9c7.1-13.7,38.6-43.6,38.6-43.6l-64.4,18.2c0.6,12.5,1.1,25.2,1.4,38.2c0.5,4.4,1.3,7.8,2.7,10.7
					C270.1,464,280,454.8,284,446.9z"/>
			</g>
			<g>
				<path class="st5" d="M437.9,468.7c1.7-6.2,2.6-32,3.4-65.7l-74.2-2.8c0,0,29.7,23.6,30.4,34.3c0.7,9.7,26.1,35.6,34.9,43.3
					C434.7,475.3,437,471.8,437.9,468.7z"/>
			</g>
			<g>
				<g>
					<path class="st6" d="M350.3,265.7c0-1.1,0.9-2,2-2c1.1,0,2,0.9,2,2c0,1.1-0.9,2-2,2C351.2,267.7,350.3,266.8,350.3,265.7
						L350.3,265.7z"/>
				</g>
				<g>
					<path class="st6" d="M350.3,297.4c0-1.1,0.9-2,2-2c1.1,0,2,0.9,2,2s-0.9,2-2,2C351.2,299.4,350.3,298.5,350.3,297.4
						L350.3,297.4z"/>
				</g>
				<g>
					<path class="st6" d="M350.3,329c0-1.1,0.9-2,2-2c1.1,0,2,0.9,2,2c0,1.1-0.9,2-2,2C351.2,331,350.3,330.1,350.3,329L350.3,329z"/>
				</g>
				<g>
					<path class="st6" d="M350.3,360.7c0-1.1,0.9-2,2-2c1.1,0,2,0.9,2,2c0,1.1-0.9,2-2,2C351.2,362.7,350.3,361.8,350.3,360.7
						L350.3,360.7z"/>
				</g>
				<g>
					<path class="st6" d="M350.3,392.3c0-1.1,0.9-2,2-2c1.1,0,2,0.9,2,2c0,1.1-0.9,2-2,2C351.2,394.3,350.3,393.4,350.3,392.3
						L350.3,392.3z"/>
				</g>
				<g>
					<path class="st6" d="M350.3,424c0-1.1,0.9-2,2-2c1.1,0,2,0.9,2,2c0,1.1-0.9,2-2,2C351.2,426,350.3,425.1,350.3,424L350.3,424z"/>
				</g>
				<g>
					<path class="st6" d="M350.3,455.6c0-1.1,0.9-2,2-2c1.1,0,2,0.9,2,2s-0.9,2-2,2C351.2,457.6,350.3,456.7,350.3,455.6
						L350.3,455.6z"/>
				</g>
			</g>
			<g>
				<path class="st7" d="M440,445.9C440,445.9,440,445.9,440,445.9c-0.5,0-0.8-0.4-0.8-0.8c0.5-10.8,0.3-24.8,0.1-41
					c-0.4-31.9-0.9-71.6,3.6-107.4c0.6-4.8,4.1-18.5,4.2-19.1c0.1-0.4,0.5-0.7,0.9-0.6c0.4,0.1,0.7,0.5,0.6,0.9
					c0,0.1-3.6,14.2-4.2,18.9c-4.5,35.7-4,75.4-3.6,107.2c0.2,16.2,0.4,30.2-0.1,41.1C440.7,445.6,440.4,445.9,440,445.9z"/>
			</g>
			<g>
				<path class="st7" d="M259.2,446.4c-0.4,0-0.8-0.3-0.8-0.7c-0.1-3.7-0.3-7.3-0.4-11c-1.6-46.1-3.1-89.7-9.4-133.5
					c-0.7-5.2-9.1-19.3-9.2-19.5c-0.2-0.4-0.1-0.8,0.3-1.1c0.4-0.2,0.8-0.1,1.1,0.3c0.4,0.6,8.6,14.5,9.4,20
					c6.3,43.9,7.8,87.5,9.4,133.7c0.1,3.7,0.3,7.3,0.4,11C259.9,446,259.6,446.4,259.2,446.4C259.2,446.4,259.2,446.4,259.2,446.4z"/>
			</g>
			<g>
				<path class="st7" d="M342.4,474.2c-0.3,0-0.6-0.2-0.7-0.5c-2-5-0.7-12.5,0.4-19.2c0.6-3.7,1.2-7.1,1.1-9.7
					c-1.1-45.3-1.6-180-1.6-181.4c0-0.4,0.3-0.8,0.8-0.8c0,0,0,0,0,0c0.4,0,0.8,0.3,0.8,0.8c0,1.4,0.6,136,1.6,181.3
					c0.1,2.7-0.5,6.2-1.2,9.9c-1.1,6.4-2.3,13.7-0.5,18.4c0.2,0.4,0,0.8-0.4,1C342.6,474.2,342.5,474.2,342.4,474.2z"/>
			</g>
			<g>
				<path class="st8" d="M256.9,398c20.4-6.6,51.5-12.4,63.2-22.1c0,0,7.7,23.8,7.6,23.9c-17.5,10.1-41.9,24.7-58.8,35.8L256.9,398z
					"/>
			</g>
			<g>
				<path class="st8" d="M317.7,378.9c2.4-12.2,2.1-20.5,3.3-32.9c0,0,19.7,18.8,19.4,19.9c-1.8,8-0.9,20.6-3.5,28.6
					c-2.4,7.3-15.7,8.5-18.6,8L317.7,378.9z"/>
			</g>
			<g>
				<path class="st8" d="M321.1,346c1.4-4.1,4.8-11.6,7.4-13.8c3.9-3.4,13.2-8.8,17.9-10.9c4.6-0.6,0.6,6.4-2.2,8.9
					c-5.9,5.3-14,10.8-16.7,18.3c-4.1-3,1.9-7,3.9-9.3c3.9-4.6,11.9-6.2,17.5-8.5c1.5,1.7,1.3,4.8-1.3,6.7
					c-10,7.4-17.3,13.1-16.4,17.5c-3.2-3.6,14.4-16.5,18-18.5c1.6,1,2.4,5.9-0.7,8.8c-13.2,12-8.9,10.5-15.1,17.3
					c-1.8-3.9,10.7-11.5,16.4-14.2c1-0.5,2.2,0.3,2.2,1.4c0,1.4-0.4,2.7-0.9,3.8c-2.4,5-9.2,7.6-11.2,14.3l-13.4-0.8L321.1,346z"/>
			</g>
			<g>
				<path class="st9" d="M325.7,347.8c-0.1,0-0.3,0-0.4-0.1c-0.4-0.2-0.5-0.7-0.3-1c1.3-2.4,3.2-5.5,6.6-8.8
					c2.6-2.4,6.1-3.9,9.8-5.5c0.4-0.2,0.8,0,1,0.4c0.2,0.4,0,0.8-0.4,1c-3.6,1.5-7,2.9-9.3,5.2c-3.2,3-5,5.9-6.3,8.4
					C326.3,347.6,326,347.8,325.7,347.8z"/>
			</g>
			<g>
				<path class="st9" d="M334.1,360.9c-0.2,0-0.3,0-0.5-0.1c-0.3-0.2-0.4-0.7-0.2-1.1c2.8-3.9,5.8-6.1,8.6-8
					c0.4-0.2,0.8-0.1,1.1,0.2c0.2,0.4,0.1,0.8-0.2,1.1c-2.7,1.8-5.5,3.9-8.2,7.6C334.6,360.8,334.4,360.9,334.1,360.9z"/>
			</g>
			<g>
				<path class="st8" d="M353.6,347.1c-0.7-0.3-1.6,0.2-2,0.9c-0.4,0.7-0.5,1.5-0.5,2.3c0.1,5.2,2.8,7.4,7.2,11.9
					c0.2,2.3,2,7.4,2,9.7c0,3-1.2,9.4-1.4,13.8c-0.3,5.3-0.4,7.5,3.2,12.5c3.1,4.3,7.4,6.2,13.1,7.6c3-10.4,4.2-13.1,5.6-22.8
					c-1.3-5.5-3-19.1-3.8-24.4c-0.4-3.1-2.1-5.8-3.2-8.8c-1.8-5.2-3.4-8.5-5.7-12.2c-4.9-5.3-12.1-12.5-19.6-16.2
					c-1.2,1.1-1.2,2.4-1.1,4c0.1,1.6,1.3,4.3,2.9,5.3c6.9,6.1,15.4,16,21.1,23c-0.1-1.3-4.8-7.4-6.4-9.1c-4.5-4.7-9-6.5-13.5-10
					c-0.8-0.6-2.4-0.3-2.6,0.7C348.6,338.6,349.7,341.7,353.6,347.1z"/>
			</g>
			<g>
				<path class="st9" d="M368.3,364.3c-0.3,0-0.5-0.1-0.7-0.4c-3.4-6.5-9.1-11.6-14.7-16.1c-0.3-0.3-0.4-0.8-0.1-1.1
					c0.3-0.3,0.8-0.4,1.1-0.1c5.8,4.7,11.6,9.9,15.1,16.6c0.2,0.4,0.1,0.8-0.3,1C368.5,364.2,368.4,364.3,368.3,364.3z"/>
			</g>
			<g>
				<path class="st9" d="M371.4,353.8c-0.3,0-0.5-0.1-0.6-0.3c-4.9-7.4-6-8.3-12.3-13.1c-0.3-0.3-0.4-0.7-0.1-1.1
					c0.3-0.3,0.7-0.4,1.1-0.1c6.5,4.9,7.7,5.8,12.7,13.5c0.2,0.4,0.1,0.8-0.2,1.1C371.6,353.8,371.5,353.8,371.4,353.8z"/>
			</g>
			<g>
				<path class="st9" d="M329.5,354.9c-0.1,0-0.3,0-0.4-0.1c-0.4-0.2-0.5-0.7-0.2-1.1c2.9-4.5,5.4-7.8,7.5-9.8
					c2.7-2.5,5.2-4,7.7-5.4c1.3-0.7,2.6-1.5,3.9-2.4c0.4-0.2,0.8-0.1,1.1,0.2c0.2,0.4,0.1,0.8-0.2,1.1c-1.4,0.9-2.7,1.7-4,2.4
					c-2.5,1.4-4.9,2.8-7.4,5.2c-2,1.9-4.5,5.1-7.3,9.5C330,354.8,329.7,354.9,329.5,354.9z"/>
			</g>
			<g>
				<path class="st8" d="M380.6,382.7c24.1,9,55.7,15.2,79.1,20.3c0.5,11.2-2,30-5.5,41.6c-20.7-0.8-67.3-35.4-80.8-39.5
					L380.6,382.7z"/>
			</g>
			<g>
				<path class="st0" d="M406.5,389.9c-0.8,11.2-2.9,25.3-5.4,35.1c4.4,2,8.7,4.1,12.9,6.5c1.4,3.1,3.3,6,5.4,7.6
					c16.2,8.8,33.1,16.5,51.1,18.3c8.3-1.6,16.8-8.6,21.4-15.7c4.5-7.1,5.9-19.4,4.2-27.5c-4.3-8.4-8.5-15.9-17-19.7
					c-8.5-3.7-40.4-1.5-47.7-2.3c-2.5-0.2-7.5,0.4-11.7,0.4C415.5,391.8,410.2,390.5,406.5,389.9z"/>
			</g>
			<g>
				<path class="st0" d="M291,387.7c-2.9,13-0.2,24.9,4.2,34.9c-3.5,2.9-8.4,5.6-11.8,8.7c-0.9,2.1-2.2,1.9-3.6,4.4
					c-14.3,10.1-31.9,18.5-49.2,18.3c-13.4-0.2-21.2-6.4-26.7-17.4c-1.4-10.4,0-25.2,4.9-34.3c9.7-16.2,47.1-12.6,55.3-11.3
					c2.1,0.3,11.2,0,13.6,0.7C283.4,389.8,286.7,389.1,291,387.7z"/>
			</g>
			<g>
				<path class="st7" d="M435.9,448c-0.1,0-0.2,0-0.3-0.1c-5-2.3-10.3-4.9-16.5-8.3c0,0-0.1,0-0.1-0.1c-2-1.5-4-4.3-5.5-7.6
					c-4-2.2-8.3-4.4-12.7-6.3c-0.3-0.2-0.5-0.5-0.4-0.9c2.4-9.2,4.5-23.2,5.4-34.9c0-0.2,0.1-0.4,0.3-0.6c0.2-0.1,0.4-0.2,0.6-0.1
					c1.8,0.3,4,0.8,6.2,1.3c2.4,0.5,4.8,1,7,1.4c1.8,0,3.8-0.1,5.7-0.3c2.4-0.2,4.5-0.3,6-0.2c2.2,0.2,7,0.2,12.6,0.1
					c12.4-0.2,29.3-0.4,35.3,2.2c0.4,0.2,0.6,0.6,0.4,1c-0.2,0.4-0.6,0.6-1,0.4c-5.7-2.5-22.4-2.3-34.7-2.1
					c-5.8,0.1-10.4,0.1-12.8-0.1c-1.3-0.1-3.4,0-5.7,0.2c-2,0.1-4,0.3-5.9,0.3c0,0-0.1,0-0.1,0c-2.2-0.4-4.7-0.9-7.1-1.5
					c-1.9-0.4-3.8-0.8-5.3-1.1c-0.9,11.5-2.9,24.6-5.2,33.7c4.3,1.9,8.4,4,12.4,6.2c0.1,0.1,0.3,0.2,0.3,0.4
					c1.4,3.2,3.3,5.8,5.1,7.2c6.2,3.3,11.4,6,16.4,8.2c0.4,0.2,0.6,0.6,0.4,1C436.4,447.8,436.2,448,435.9,448z"/>
			</g>
			<g>
				<path class="st7" d="M259.3,448.6c-0.3,0-0.5-0.1-0.7-0.4c-0.2-0.4-0.1-0.8,0.3-1.1c2.8-1.7,5.3-3,7.6-4.3
					c3.5-1.9,6.8-3.6,10.7-6.4c1.3-1.1,4.6-3.6,5.5-5.6c0-0.1,0.1-0.2,0.2-0.3c1.9-1.6,4.1-3.2,6.3-4.7c1.7-1.2,3.5-2.4,5-3.6
					c-6.4-14.5-5.6-26.8-4.3-33.5c-4.2,1.4-9.1,2.7-14.6,3c0,0,0,0,0,0c-1.9,0-5.6-0.5-7.7-0.8c-7.7-1.2-48.7-4.1-58.1,11.6
					c-0.2,0.4-0.7,0.5-1.1,0.3c-0.4-0.2-0.5-0.7-0.3-1.1c9.9-16.4,50.2-13.9,59.7-12.4c2,0.3,5.6,0.8,7.4,0.8
					c5.8-0.3,11-1.9,15.4-3.3c0.3-0.1,0.6,0,0.8,0.2c0.2,0.2,0.3,0.5,0.2,0.7c-1.4,6.3-2.8,19.1,4.2,34.4c0.1,0.3,0.1,0.7-0.2,0.9
					c-1.7,1.4-3.7,2.7-5.6,4.1c-2.1,1.4-4.3,2.9-6.1,4.5c-1,2-3.5,4.2-5.9,6.1c-4,2.8-7.4,4.6-10.9,6.5c-2.3,1.2-4.8,2.5-7.6,4.2
					C259.6,448.6,259.4,448.6,259.3,448.6z"/>
			</g>
			<g>
				<path class="st10" d="M325.1,194.5c-1.3,10.6-2.4,25.1-3.7,35.6c9.8,10.3,19.3,19.1,27.2,19.2c8.6,0.5,18.2-8.3,27.8-18.1
					l-3.8-34.4L325.1,194.5z"/>
			</g>
			<g>
				<path class="st0" d="M322.3,220.9c-3.4,4.1-8.5,9.3-13.1,15c4.5,13.8,10.7,25.7,19.4,34.7l19.4-21.3
					C337.5,246.8,324.6,230.2,322.3,220.9z"/>
			</g>
			<g>
				<path class="st0" d="M375.1,220.5c4.5,5.7,8.1,10.8,11.7,16.2c-2.8,12.2-9.8,22.9-19.4,33.9l-18.8-21.3
					C362.4,242.9,370.1,232.2,375.1,220.5z"/>
			</g>
			<g>
				<path class="st7" d="M328.7,271.4c-0.2,0-0.4-0.1-0.6-0.2c-8.2-8.5-14.7-20-19.6-35c-0.1-0.4,0.1-0.8,0.5-1
					c0.4-0.1,0.8,0.1,1,0.5c4.8,14.5,10.9,25.6,18.7,33.8l18.8-20.7c0.3-0.3,0.8-0.3,1.1-0.1c0.3,0.3,0.3,0.8,0.1,1.1l-19.4,21.3
					C329.1,271.3,328.9,271.4,328.7,271.4C328.7,271.4,328.7,271.4,328.7,271.4z"/>
			</g>
			<g>
				<path class="st7" d="M367.4,271.4c-0.2,0-0.4-0.1-0.6-0.3L348,249.9c-0.3-0.3-0.3-0.8,0.1-1.1c0.3-0.3,0.8-0.3,1.1,0.1
					l18.2,20.6c10.5-12.2,16.3-22.3,18.7-32.9c0.1-0.4,0.5-0.7,0.9-0.6c0.4,0.1,0.7,0.5,0.6,0.9c-2.5,11-8.6,21.6-19.6,34.3
					C367.8,271.3,367.6,271.4,367.4,271.4C367.4,271.4,367.4,271.4,367.4,271.4z"/>
			</g>
			<g>
				<g>
					<g>
						<path class="st8" d="M383.2,169c0.7-2.3,1.7-4.6,2.8-6.7c1.1-2,3.1-3.4,5.4-3.4c8.4-0.1,2.8,18.7-1.9,25.8
							c-1.5,2.2-4.9,3.8-6.6,1l0,0L383.2,169z"/>
					</g>
					<g>
						<path class="st9" d="M385.1,178.2c-0.4,0-0.7-0.3-0.8-0.6c-0.5-2.6,1.7-12,7.3-14.1c0.4-0.1,0.8,0.1,1,0.5
							c0.1,0.4-0.1,0.8-0.5,1c-4.9,1.8-6.7,10.5-6.4,12.3c0.1,0.4-0.2,0.8-0.6,0.9C385.2,178.2,385.2,178.2,385.1,178.2z"/>
					</g>
				</g>
				<g>
					<g>
						<path class="st8" d="M311.7,164.8c-1.1-2-3-6.9-6.7-5.9c-8.2,2-1.9,18.1,2.9,25.2c1.5,2.2,4.9,4.2,5.7,1.6l0,0
							C313.6,185.7,312.8,167,311.7,164.8z"/>
					</g>
					<g>
						<path class="st9" d="M312.1,178.5c0,0-0.1,0-0.2,0c-0.4-0.1-0.7-0.5-0.6-0.9c0.4-2-3.1-12.4-6.4-13.2
							c-0.4-0.1-0.7-0.5-0.6-0.9c0.1-0.4,0.5-0.7,0.9-0.6c4.3,1,8.1,12.3,7.6,15C312.7,178.3,312.4,178.5,312.1,178.5z"/>
					</g>
				</g>
				<g>
					<path class="st11" d="M312.5,184.1c-0.5-14.8-6.1-35.7-6.5-48.7c-0.4-10.2,5.4-19.5,13.4-25.9c18.8-14.9,46.6-10.8,63,2.2
						c1.1,0.8,10.9,11.5,10.9,29.1c0,14.8-7.1,21-8.4,39.2L312.5,184.1z"/>
				</g>
				<g>
					<path class="st8" d="M310.9,189.4l0.7-27.8l1.3-8.1c1.7-4.4,2-9.3,0.8-13.8v0c-1.8-11.8,6.2-15.4,14.7-14.6
						c0,0,11.9,1.9,19.8,1.9c5.4,0,21.5-2.1,21.5-2.1c7.9-0.8,16,7,14.5,14.8l0,0.2c-0.8,4.1-0.8,8.3,0.1,12.4l1.3,13.5v22.6
						c0,11.5-4.6,22.4-12.8,30.4l-6.5,6.3c-4.5,4.4-10.6,6.9-16.9,6.9h-2.9c-6.2,0-12.1-2.4-16.6-6.6l-5.5-5.2
						C315.8,212.3,310.9,201.1,310.9,189.4z"/>
				</g>
				<g>
					<path class="st12" d="M329.7,123.5c0,0-0.1,0-0.1,0c-0.4-0.1-0.7-0.5-0.6-0.9c2.5-13.7,12.4-20.4,30.2-20.4c0,0,0,0,0,0
						c0.4,0,0.8,0.3,0.8,0.8c0,0.4-0.3,0.8-0.8,0.8c-17,0.1-26.4,6.3-28.7,19.2C330.4,123.2,330.1,123.5,329.7,123.5z"/>
				</g>
				<g>
					<path class="st12" d="M339.6,123.7c-0.4,0-0.7-0.3-0.8-0.7c-0.3-2.8,0.9-5.6,3.4-8.2c5.1-5.4,14.5-8.6,23.3-8.1
						c0.4,0,0.7,0.4,0.7,0.8c0,0.4-0.4,0.7-0.8,0.7c0,0,0,0,0,0c-8.3-0.5-17.4,2.7-22.1,7.7c-2.2,2.3-3.2,4.7-3,7
						C340.4,123.3,340.1,123.7,339.6,123.7C339.7,123.7,339.7,123.7,339.6,123.7z"/>
				</g>
				<g>
					<path class="st12" d="M350.4,123.8C350.3,123.8,350.3,123.8,350.4,123.8c-0.3,0-0.5-0.3-0.5-0.6c1.1-6.9,8.2-7.7,14.4-8.4
						c0.7-0.1,1.3-0.2,2-0.2c0.3,0,0.5,0.2,0.5,0.4c0,0.3-0.2,0.5-0.4,0.5c-0.6,0.1-1.3,0.2-2,0.2c-6.2,0.7-12.7,1.4-13.6,7.6
						C350.8,123.6,350.6,123.8,350.4,123.8z"/>
				</g>
				<g>
					<path class="st13" d="M334.6,192.1l26.3-0.3c0,0-3.2,5.2-12.1,6C339.9,198.6,334.6,192.1,334.6,192.1L334.6,192.1z"/>
				</g>
				<g>
					<path class="st14" d="M385.5,188.5v-16.6c-1.6,15.3-6.9,28.8-14.2,33.8c-0.8-5.5-2.5-12-5.9-15.2c-5-4.6-17-6.3-17-6.3
						s-15.6,0.9-19.4,8.7c-1.7,3.5-3,8.5-3.9,12.9c-6.7-5.6-13-20.2-13.8-36l-0.4,19.6c0,11.7,4.8,22.9,13.3,30.9l5.5,5.2
						c4.5,4.3,10.4,6.6,16.6,6.6h2.9c6.3,0,12.4-2.5,16.9-6.9l6.5-6.3C380.9,210.9,385.5,199.9,385.5,188.5z M364.6,201.1
						c-0.4,2.2-1.1,4.5-2.4,6.6c-1.3,2.2-4.1,3.2-6.5,2.4c-3.9-1.3-9.5-2-15.2,0.2c-2.5,0.9-5.3,0.1-6.7-2.2c-1.4-2.2-2.1-4.6-2.4-7
						c-1.7-11.7,6.8-8.8,15.9-8.8C356.5,192.4,366.8,188.4,364.6,201.1z"/>
				</g>
				<g>
					<path class="st15" d="M330.5,163.6c0-2.2-1.3-4-2.9-4s-2.9,1.8-2.9,4c0,2.2,1.3,4,2.9,4S330.5,165.8,330.5,163.6L330.5,163.6z"/>
				</g>
				<g>
					<g>
						<path class="st11" d="M318.8,155.6c-1-0.9-1-2.5-0.1-3.5c0.2-0.3,6.2-6.3,14.9-4.1c1.3,0.3,2.1,1.6,1.8,3
							c-0.3,1.3-1.6,2.1-3,1.8C326.5,151.3,319.3,156.1,318.8,155.6z"/>
					</g>
				</g>
				<g>
					<path class="st15" d="M322.7,162.2c-0.2,0-0.5-0.1-0.6-0.3c-0.2-0.3-0.2-0.8,0.2-1.1c0.2-0.1,4-2.8,8.9-1.3
						c0.4,0.1,0.6,0.6,0.5,1c-0.1,0.4-0.6,0.6-1,0.5c-4.1-1.3-7.5,1.1-7.6,1.1C323,162.2,322.8,162.2,322.7,162.2z"/>
				</g>
				<g>
					<path class="st15" d="M366.7,163.6c0-2.2,1.3-4,2.9-4s2.9,1.8,2.9,4c0,2.2-1.3,4-2.9,4S366.7,165.8,366.7,163.6L366.7,163.6z"/>
				</g>
				<g>
					<g>
						<path class="st11" d="M377.5,155.6c1-0.9,1-2.5,0.1-3.5c-0.2-0.3-6.2-6.3-14.9-4.1c-1.3,0.3-2.1,1.6-1.8,3
							c0.3,1.3,1.6,2.1,3,1.8C369.8,151.3,377,156.1,377.5,155.6z"/>
					</g>
				</g>
				<g>
					<path class="st15" d="M373.6,162.2c-0.2,0-0.3,0-0.4-0.1c0,0-3.5-2.4-7.6-1.1c-0.4,0.1-0.8-0.1-1-0.5c-0.1-0.4,0.1-0.8,0.5-1
						c4.8-1.5,8.7,1.2,8.9,1.3c0.3,0.2,0.4,0.7,0.2,1.1C374.1,162.1,373.9,162.2,373.6,162.2z"/>
				</g>
				<g>
					<path class="st9" d="M346.1,160.2c-0.7,4.3-1.1,8.7-1.4,13.1c-0.1,2.1-0.3,4.4-0.2,6.4c0,0.5,0.2,0.7,0.4,1.2
						c0.6,1.3,1.6,2.1,3.1,2.5c0.8,0.2,0.7,1.5-0.2,1.4c-2.4,0-4.5-1.8-5.2-4.1c-0.4-2.6,0-5,0.2-7.6c0.5-4.4,1.3-8.7,1.8-13.1
						C344.9,159.1,346.3,159.2,346.1,160.2L346.1,160.2z"/>
				</g>
				<g>
					<path class="st9" d="M351.4,182.3c0.4-0.3,0.9-0.4,1.3-0.5c0.7-0.2,2.2-0.2,2,1c-0.3,1-2.1,1.1-3,1
						C351,183.6,350.9,182.7,351.4,182.3L351.4,182.3z"/>
				</g>
				<g>
					<path class="st9" d="M343,182.3c-0.4-0.3-0.9-0.4-1.3-0.5c-0.7-0.2-2.2-0.2-2,1c0.3,1,2.1,1.1,3,1
						C343.4,183.6,343.6,182.7,343,182.3L343,182.3z"/>
				</g>
			</g>
			<g>
				<path class="st7" d="M283.4,432.1c-0.3,0-0.5-0.1-0.7-0.4c-8.5-15.2-7.2-38.6-7.1-39.6c0-0.4,0.4-0.7,0.8-0.7
					c0.4,0,0.7,0.4,0.7,0.8c0,0.1-0.4,6.1,0.3,13.8c0.6,7.1,2.3,17.2,6.6,24.9c0.2,0.4,0.1,0.8-0.3,1
					C283.7,432,283.6,432.1,283.4,432.1z"/>
			</g>
			<g>
				<path class="st7" d="M251.8,388.5c-0.2,0-0.4-0.1-0.5-0.2c-5.3-5.2-17.3-11.2-24.9-11c-0.9,0-2.2,0.7-2.4,1.8
					c-0.1,0.7,0.3,3.3,9.1,6.1c0.4,0.1,0.6,0.6,0.5,1c-0.1,0.4-0.6,0.6-1,0.5c-8.9-2.8-10.5-5.8-10.2-7.8c0.3-1.8,2.2-3.1,3.8-3.1
					c8.1-0.2,20.4,5.9,26,11.4c0.3,0.3,0.3,0.8,0,1.1C252.2,388.4,252,388.5,251.8,388.5z"/>
			</g>
			<g>
				<path class="st7" d="M414.4,430.5c-0.1,0-0.2,0-0.3-0.1c-0.4-0.2-0.6-0.6-0.4-1c7.1-18.8,5.4-36.6,5.4-36.8
					c0-0.4,0.3-0.8,0.7-0.8c0.4,0,0.8,0.3,0.8,0.7c0,0.2,1.8,18.4-5.4,37.5C415,430.4,414.7,430.5,414.4,430.5z"/>
			</g>
			<g>
				<path class="st2" d="M357.8,503.3c-24.5,0-54-1-88.3-3.9c-0.4,0-0.7-0.4-0.7-0.8c0-0.4,0.4-0.7,0.8-0.7c83.6,7,138.2,3,163.3,0
					c0.4,0,0.8,0.2,0.9,0.7c0.1,0.4-0.2,0.8-0.7,0.9C418.2,501.2,393.1,503.3,357.8,503.3z"/>
			</g>
			<g>
				<path class="st4" d="M350.2,493.3C350.2,493.3,350.2,493.3,350.2,493.3l-3.5-0.1c-0.7,0-1.3-0.6-1.2-1.3c0-0.7,0.6-1.2,1.3-1.2
					c0,0,0,0,0,0l3.5,0.1c0.7,0,1.3,0.6,1.2,1.3C351.4,492.7,350.9,493.3,350.2,493.3z"/>
			</g>
			<g>
				<path class="st9" d="M344.1,201.3c-0.4,0-0.8-0.3-0.8-0.8c0-0.4,0.3-0.8,0.8-0.8l6.8-0.1c0,0,0,0,0,0c0.4,0,0.8,0.3,0.8,0.8
					c0,0.4-0.3,0.8-0.8,0.8L344.1,201.3C344.1,201.3,344.1,201.3,344.1,201.3z"/>
			</g>
			<g>
				<path class="st7" d="M396.4,327.5c-6.2,0-12.6-0.2-19-0.7c-0.4,0-0.7-0.3-0.7-0.7v-8.5c0-0.2,0.1-0.4,0.2-0.5
					c0.1-0.1,0.4-0.2,0.6-0.2c12.4,1.1,25.1,0.6,35.3,0.3c4.3-0.1,8.4-0.3,11.9-0.3c0.4,0,0.7,0.3,0.7,0.7v8.5
					c0,0.4-0.3,0.7-0.7,0.7c-2.4,0.1-4.9,0.1-7.6,0.2C410.5,327.3,403.6,327.5,396.4,327.5z M424.6,326.1L424.6,326.1L424.6,326.1z
					 M378.1,325.4c13.5,1,27,0.6,38.9,0.2c2.4-0.1,4.7-0.2,6.9-0.2v-7c-3.3,0-7.1,0.1-11.1,0.3c-10,0.3-22.4,0.8-34.6-0.2V325.4z"/>
			</g>
			<g>
				<path class="st7" d="M470.4,373.7c-0.5-2.5-2.5-5-6-4.8c-0.8,0-1.6,0.1-2.4,0.3c-1.2,0.3-2.5,1.2-3.9,2.6c0,0,0,0,0,0.1
					c0,0,0,0,0,0c0.1,0.7,1,1,1.5,0.5c1-0.9,1.9-1.5,2.6-1.7c0.7-0.2,1.5-0.3,2.1-0.3c2.6-0.1,4.1,1.7,4.5,3.6
					c0.3,1.9-0.4,4.1-2.9,5c-6.2,2.1-12.9,5.9-17.3,10c-0.3,0.2-0.3,0.6-0.2,0.9c0.1,0.3,0.4,0.4,0.7,0.4c0.2,0,0.4-0.1,0.5-0.2
					c4.3-4,10.7-7.7,16.8-9.7C469.8,379.3,470.8,376.3,470.4,373.7z"/>
			</g>
		</g>
	</g>
</switch>

</svg>
