<?xml version="1.0" encoding="utf-8"?>
<!-- Generator: Adobe Illustrator 27.1.1, SVG Export Plug-In . SVG Version: 6.00 Build 0)  -->










<svg version="1.1" id="Layer_1" xmlns="http://www.w3.org/2000/svg" xmlns:xlink="http://www.w3.org/1999/xlink" x="0px" y="0px" viewBox="0 0 700 700" style="enable-background:new 0 0 700 700;" xml:space="preserve">
<style type="text/css">
	.st0{fill:#8A4E3A;}
	.st1{fill:#C46646;}
	.st2{fill:#BA5C3C;}
	.st3{fill:#C98EC8;}
	.st4{fill:#5756B0;}
	.st5{fill:#4E4D9E;}
	.st6{fill:#403F82;}
	.st7{fill:#E39F52;}
	.st8{fill:#F7AEA8;}
	.st9{fill:#ED9C69;}
	.st10{fill:#E38E58;}
	.st11{fill:#DB8651;}
	.st12{fill:#2B2E57;}
	.st13{fill:#8A69BA;}
	.st14{fill:#20204F;}
	.st15{fill:#D27570;}
	.st16{fill:#E8918B;}
	.st17{fill:#A64F32;}
	.st18{fill:#FFFFFF;}
	.st19{fill:#F19E98;}
	.st20{fill:#2F333E;}
	.st21{fill:#AB6148;}
	.st22{fill:#46407E;}
	.st23{fill:#3A3E63;}
</style>
<switch>
	
	<g>
		<g>
			<g>
				<path class="st0" d="M437.7,410.6c-0.2,0.5-0.3,1-0.5,1.5c6.9-2.5,27.9,8.3,32.6,29.6C462.3,448.8,432,420.2,437.7,410.6z"/>
			</g>
			<g>
				<path class="st1" d="M352.7,102.5c-12.5-4.3-26.8-3-38.3,3.5c-11.5,6.5-20.1,18-23,30.9c-1.4,6.4-1.6,13.3-5.2,18.8
					c-3.1,4.8-8.3,7.9-10.9,12.9c-4,7.7-0.7,17,2.8,24.9s7.3,16.8,4.1,24.9c-2.6,6.4-8.9,10.4-12.9,16c-4.2,5.9-5.6,13.8-3.7,20.8
					c1.9,7,7.1,13.1,13.7,16.1c0,0,120.4-6.2,121.9-6.6c-8.6-8.7-12.5-21.9-10.1-33.9c3.1-15.4,15.4-27.6,19.3-42.9
					c2.3-9.2,1.3-19-1.4-28.1c-2.7-9.1-7.1-17.6-11.8-25.9c-4.8-8.6-10-17.3-17.7-23.5C371.7,103.8,360.9,100.5,352.7,102.5z"/>
			</g>
			<g>
				<path class="st2" d="M358.1,181.2l-41.5-4.8c0,0,0.6,10.6-24.9,46.7c-12.3,17.5,2.7,40.5,7.4,47c21.3-1.1,54.9-2.9,77.7-4.1
					L358.1,181.2z"/>
			</g>
			<g>
				<path class="st3" d="M304.1,242.1c0,0,12.9-25.3,39.4-23.8c18.5,1.1,48.5,29.5,48.5,29.5L304.1,242.1z"/>
			</g>
			<g>
				<path class="st4" d="M407.4,407H262.2c-0.8,4.9-1.5,10.1-2.9,15c-24.6,30.8-36.1,80.7-34.1,120.1c1,20.3,4.5,29.7,9.3,49.4
					c0,0,25.6,9.8,54.4,8.3c13-0.7,58.6-8.3,58.6-8.3l0.5-20l7.7,20c9.6,4.6,42.1,8.7,63.1,8.3c17.6-0.3,44.6-8.3,44.6-8.3
					c-7.2-63.7-19.8-116.7-54.1-172.2L407.4,407z"/>
			</g>
			<path class="st5" d="M262.1,407c-0.8,5-1.4,10.1-2.9,15c-6.4,8-11.6,16.9-16,26.2c-13.7,29.8-19.9,63.8-18,96.6
				c1.2,18.4,4.6,27.8,9.1,46.7c0,0,3.7,1.4,10,3.1c3.8-3.9,7.6-8.3,11.3-13.1c20-26.1,66.8-58.7,66.8-58.7l3.3-115.8H262.1z"/>
			<g>
				<path class="st6" d="M347.8,571.7C347.8,571.7,347.7,571.7,347.8,571.7c-0.6,0-1.1-0.5-1-1.1c0.3-4,0.6-8.6,0.9-13.6
					c2.8-39.1,7.4-104.6,5-140.8c0-0.6,0.4-1.1,1-1.1c0.6,0,1.1,0.4,1.1,1c2.4,36.4-2.2,101.9-5,141.1c-0.4,5-0.7,9.6-0.9,13.6
					C348.8,571.2,348.3,571.7,347.8,571.7z"/>
			</g>
			<g>
				<path class="st6" d="M351.8,506.2c-0.7,0-1.4-0.3-2.2-0.9c-3.4-2.7-7.9-11.2-8.3-17.4c-0.9-13.4-0.9-35.7,0-68.2
					c0-0.6,0.5-1,1.1-1c0.6,0,1,0.5,1,1.1c-0.9,32.4-0.9,54.6,0,68c0.4,5.6,4.5,13.6,7.6,15.9c0.7,0.5,0.9,0.5,0.9,0.5
					c0.6-0.1,1.1,0.3,1.2,0.8c0.1,0.6-0.3,1.1-0.8,1.2C352.1,506.2,352,506.2,351.8,506.2z"/>
			</g>
			<g>
				<path class="st6" d="M353.8,515.9c-0.3,0-0.6-0.1-0.8-0.3c-0.4-0.4-0.3-1.1,0.1-1.5c3.6-3.2,6-5,8.4-6.8
					c2.3-1.7,4.7-3.5,8.2-6.6c0.4-0.4,1.1-0.3,1.5,0.1c0.4,0.4,0.3,1.1-0.1,1.5c-3.6,3.2-6,5-8.4,6.8c-2.3,1.7-4.7,3.5-8.2,6.6
					C354.3,515.8,354.1,515.9,353.8,515.9z"/>
			</g>
			<g>
				<path class="st0" d="M258.5,414.3c23,7.4,130.3,11,155.2,3.6l-1.2-15.4l-147.9-4.6L258.5,414.3z"/>
			</g>
			<g>
				<path class="st7" d="M337.9,421.9c-3.6,0-6.6-3-6.6-6.6c0-3.6,3-6.6,6.6-6.6c3.6,0,6.6,3,6.6,6.6
					C344.5,418.9,341.5,421.9,337.9,421.9z M337.9,411.3c-2.2,0-4,1.8-4,4c0,2.2,1.8,4,4,4c2.2,0,4-1.8,4-4
					C341.9,413.1,340.1,411.3,337.9,411.3z"/>
			</g>
			<g>
				<path class="st7" d="M359.3,421.9c-3.6,0-6.6-3-6.6-6.6c0-3.6,3-6.6,6.6-6.6c3.6,0,6.6,3,6.6,6.6
					C365.9,418.9,363,421.9,359.3,421.9z M359.3,411.3c-2.2,0-4,1.8-4,4c0,2.2,1.8,4,4,4c2.2,0,4-1.8,4-4
					C363.3,413.1,361.5,411.3,359.3,411.3z"/>
			</g>
			<g>
				<path class="st7" d="M343.2,414c2.4-1.2,5-1.4,7.6-0.9c1.3,0.3,4.1,1,3,3c-0.7,0.9-2.1,1.2-3,1.5c-2.6,0.5-5.2,0.3-7.6-0.9
					C342.2,416.1,342.2,414.5,343.2,414L343.2,414z"/>
			</g>
			<g>
				<path class="st8" d="M457.1,367.6c-10.3,24.9-22,51.9-33,75.2c-8.5,9.3-0.8,5.8,2,12.9c7.3,19,13.3,34.4,21.8,55.3
					c2-0.8,3.6-17,2.3-30.9c-0.8-8.3-4.3-15.5-4.5-18.8c-0.6-7.4,8.9-17.3,13.6-23c15.8-18.8,25.4-38.7,36.4-57.9L457.1,367.6z"/>
			</g>
			<g>
				<path class="st9" d="M409.9,247.3c11.4,2.1,14,3.3,21.4,11.7c7.4,8.4,41.5,49.7,50.4,59.8c9.1,10.3,14.6,18.3,20,30.7
					c0.8,1.9,1,4,0.6,6c-5.9,30-19.9,58.4-32.5,86.3c-4.7-21.3-25.7-32.1-32.6-29.6c4.9-15.9,12.3-28.8,17.9-43.6
					c-1.5-1.5-3.3-0.6-4.8-2.1c-1.6-1.6-1.2-4.9-2.9-6.5c-12.6-12.4-25.6-24.4-39-35.9L409.9,247.3z"/>
			</g>
			<g>
				<path class="st10" d="M450.2,366.4c0.7,0.7,1.5,0.9,2.3,1c0.9-1.9,1.7-3.8,2.1-5c1.4-4.1-5-6.8-5-6.8s-6.4-8.2-11.4-23.2
					c-5-15-8.9-36.2-8.9-36.2l-20.7,11.2l-0.3,16.6c13.4,11.5,26.5,23.4,39,35.9C449,361.5,448.6,364.7,450.2,366.4z"/>
			</g>
			<g>
				<path class="st11" d="M457.1,368.4c-0.1,0-0.3,0-0.4-0.1c-0.4-0.2-0.5-0.7-0.3-1.1c4.3-7.7,16.2-13.9,25.5-13.3
					c0.4,0,0.7,0.4,0.7,0.8c0,0.4-0.4,0.7-0.8,0.7c-8.7-0.6-19.9,5.2-24,12.5C457.7,368.2,457.4,368.4,457.1,368.4z"/>
			</g>
			<g>
				<path class="st11" d="M454.6,363.2c-0.1,0-0.1,0-0.2,0c-0.4-0.1-0.7-0.5-0.6-0.9c1.7-7.2,6.7-13.6,15.8-20
					c0.3-0.2,0.8-0.2,1.1,0.2c0.2,0.3,0.2,0.8-0.2,1.1c-8.8,6.2-13.6,12.3-15.1,19.1C455.3,363,455,363.2,454.6,363.2z"/>
			</g>
			<g>
				<path class="st12" d="M254.4,261.7c34-10.1,54.7-25.4,88.4-29.5c12.8,1.9,41.7,8.2,62.3,13.1c10.5,29.6,15.4,57,10.9,92.4
					c-1.6,14.1-8,51.9-9.4,67.3c-32.4,5.8-104,7.8-138.5-8C272.9,345.9,268.5,306.8,254.4,261.7z"/>
			</g>
			<g>
				<g>
					<path class="st13" d="M303.8,261.4c-0.7,0-1.3,0.6-1.3,1.3c0,0.7,0.6,1.3,1.3,1.3c0.7,0,1.3-0.6,1.3-1.3
						C305.1,262,304.5,261.4,303.8,261.4z"/>
				</g>
				<g>
					<path class="st13" d="M303.8,247.8c-0.7,0-1.3,0.6-1.3,1.3s0.6,1.3,1.3,1.3c0.7,0,1.3-0.6,1.3-1.3S304.5,247.8,303.8,247.8z"/>
				</g>
				<g>
					<path class="st13" d="M303.8,275c-0.7,0-1.3,0.6-1.3,1.3c0,0.7,0.6,1.3,1.3,1.3c0.7,0,1.3-0.6,1.3-1.3
						C305.1,275.5,304.5,275,303.8,275z"/>
				</g>
				<g>
					<path class="st13" d="M276.7,275c-0.7,0-1.3,0.6-1.3,1.3c0,0.7,0.6,1.3,1.3,1.3c0.7,0,1.3-0.6,1.3-1.3
						C278,275.5,277.4,275,276.7,275z"/>
				</g>
				<g>
					<path class="st13" d="M303.8,288.5c-0.7,0-1.3,0.6-1.3,1.3c0,0.7,0.6,1.3,1.3,1.3c0.7,0,1.3-0.6,1.3-1.3
						C305.1,289.1,304.5,288.5,303.8,288.5z"/>
				</g>
				<g>
					<path class="st13" d="M290.3,369.8c-0.7,0-1.3,0.6-1.3,1.3c0,0.7,0.6,1.3,1.3,1.3c0.7,0,1.3-0.6,1.3-1.3
						C291.6,370.4,291,369.8,290.3,369.8z"/>
				</g>
				<g>
					<path class="st13" d="M290.3,383.4c-0.7,0-1.3,0.6-1.3,1.3s0.6,1.3,1.3,1.3c0.7,0,1.3-0.6,1.3-1.3S291,383.4,290.3,383.4z"/>
				</g>
				<g>
					<path class="st13" d="M290.3,396.9c-0.7,0-1.3,0.6-1.3,1.3c0,0.7,0.6,1.3,1.3,1.3c0.7,0,1.3-0.6,1.3-1.3
						C291.6,397.5,291,396.9,290.3,396.9z"/>
				</g>
				<g>
					<path class="st13" d="M303.8,383.4c-0.7,0-1.3,0.6-1.3,1.3s0.6,1.3,1.3,1.3c0.7,0,1.3-0.6,1.3-1.3S304.5,383.4,303.8,383.4z"/>
				</g>
				<g>
					<path class="st13" d="M303.8,356.3c-0.7,0-1.3,0.6-1.3,1.3s0.6,1.3,1.3,1.3c0.7,0,1.3-0.6,1.3-1.3S304.5,356.3,303.8,356.3z"/>
				</g>
				<g>
					<path class="st13" d="M303.8,369.8c-0.7,0-1.3,0.6-1.3,1.3c0,0.7,0.6,1.3,1.3,1.3c0.7,0,1.3-0.6,1.3-1.3
						C305.1,370.4,304.5,369.8,303.8,369.8z"/>
				</g>
				<g>
					<path class="st13" d="M290.3,356.3c-0.7,0-1.3,0.6-1.3,1.3s0.6,1.3,1.3,1.3c0.7,0,1.3-0.6,1.3-1.3S291,356.3,290.3,356.3z"/>
				</g>
				<g>
					<path class="st13" d="M303.8,396.9c-0.7,0-1.3,0.6-1.3,1.3c0,0.7,0.6,1.3,1.3,1.3c0.7,0,1.3-0.6,1.3-1.3
						C305.1,397.5,304.5,396.9,303.8,396.9z"/>
				</g>
				<g>
					<path class="st13" d="M303.8,342.7c-0.7,0-1.3,0.6-1.3,1.3c0,0.7,0.6,1.3,1.3,1.3c0.7,0,1.3-0.6,1.3-1.3
						C305.1,343.3,304.5,342.7,303.8,342.7z"/>
				</g>
				<g>
					<path class="st13" d="M303.8,315.6c-0.7,0-1.3,0.6-1.3,1.3c0,0.7,0.6,1.3,1.3,1.3c0.7,0,1.3-0.6,1.3-1.3
						C305.1,316.2,304.5,315.6,303.8,315.6z"/>
				</g>
				<g>
					<path class="st13" d="M303.8,329.2c-0.7,0-1.3,0.6-1.3,1.3c0,0.7,0.6,1.3,1.3,1.3c0.7,0,1.3-0.6,1.3-1.3
						C305.1,329.7,304.5,329.2,303.8,329.2z"/>
				</g>
				<g>
					<path class="st13" d="M303.8,302.1c-0.7,0-1.3,0.6-1.3,1.3c0,0.7,0.6,1.3,1.3,1.3c0.7,0,1.3-0.6,1.3-1.3
						C305.1,302.6,304.5,302.1,303.8,302.1z"/>
				</g>
				<g>
					<path class="st13" d="M276.7,396.9c-0.7,0-1.3,0.6-1.3,1.3c0,0.7,0.6,1.3,1.3,1.3c0.7,0,1.3-0.6,1.3-1.3
						C278,397.5,277.4,396.9,276.7,396.9z"/>
				</g>
				<g>
					<path class="st13" d="M276.7,369.8c-0.7,0-1.3,0.6-1.3,1.3c0,0.7,0.6,1.3,1.3,1.3c0.7,0,1.3-0.6,1.3-1.3
						C278,370.4,277.4,369.8,276.7,369.8z"/>
				</g>
				<g>
					<path class="st13" d="M276.7,342.7c-0.7,0-1.3,0.6-1.3,1.3c0,0.7,0.6,1.3,1.3,1.3c0.7,0,1.3-0.6,1.3-1.3
						C278,343.3,277.4,342.7,276.7,342.7z"/>
				</g>
				<g>
					<path class="st13" d="M276.7,356.3c-0.7,0-1.3,0.6-1.3,1.3s0.6,1.3,1.3,1.3c0.7,0,1.3-0.6,1.3-1.3S277.4,356.3,276.7,356.3z"/>
				</g>
				<g>
					<path class="st13" d="M276.7,288.5c-0.7,0-1.3,0.6-1.3,1.3c0,0.7,0.6,1.3,1.3,1.3c0.7,0,1.3-0.6,1.3-1.3
						C278,289.1,277.4,288.5,276.7,288.5z"/>
				</g>
				<g>
					<path class="st13" d="M276.7,329.2c-0.7,0-1.3,0.6-1.3,1.3c0,0.7,0.6,1.3,1.3,1.3c0.7,0,1.3-0.6,1.3-1.3
						C278,329.7,277.4,329.2,276.7,329.2z"/>
				</g>
				<g>
					<path class="st13" d="M276.7,315.6c-0.7,0-1.3,0.6-1.3,1.3c0,0.7,0.6,1.3,1.3,1.3c0.7,0,1.3-0.6,1.3-1.3
						C278,316.2,277.4,315.6,276.7,315.6z"/>
				</g>
				<g>
					<path class="st13" d="M276.7,383.4c-0.7,0-1.3,0.6-1.3,1.3s0.6,1.3,1.3,1.3c0.7,0,1.3-0.6,1.3-1.3S277.4,383.4,276.7,383.4z"/>
				</g>
				<g>
					<path class="st13" d="M290.3,315.6c-0.7,0-1.3,0.6-1.3,1.3c0,0.7,0.6,1.3,1.3,1.3c0.7,0,1.3-0.6,1.3-1.3
						C291.6,316.2,291,315.6,290.3,315.6z"/>
				</g>
				<g>
					<path class="st13" d="M290.3,329.2c-0.7,0-1.3,0.6-1.3,1.3c0,0.7,0.6,1.3,1.3,1.3c0.7,0,1.3-0.6,1.3-1.3
						C291.6,329.7,291,329.2,290.3,329.2z"/>
				</g>
				<g>
					<path class="st13" d="M290.3,342.7c-0.7,0-1.3,0.6-1.3,1.3c0,0.7,0.6,1.3,1.3,1.3c0.7,0,1.3-0.6,1.3-1.3
						C291.6,343.3,291,342.7,290.3,342.7z"/>
				</g>
				<g>
					<path class="st13" d="M290.3,302.1c-0.7,0-1.3,0.6-1.3,1.3c0,0.7,0.6,1.3,1.3,1.3c0.7,0,1.3-0.6,1.3-1.3
						C291.6,302.6,291,302.1,290.3,302.1z"/>
				</g>
				<g>
					<path class="st13" d="M290.3,261.4c-0.7,0-1.3,0.6-1.3,1.3c0,0.7,0.6,1.3,1.3,1.3c0.7,0,1.3-0.6,1.3-1.3
						C291.6,262,291,261.4,290.3,261.4z"/>
				</g>
				<g>
					<path class="st13" d="M290.3,275c-0.7,0-1.3,0.6-1.3,1.3c0,0.7,0.6,1.3,1.3,1.3c0.7,0,1.3-0.6,1.3-1.3
						C291.6,275.5,291,275,290.3,275z"/>
				</g>
				<g>
					<path class="st13" d="M290.3,288.5c-0.7,0-1.3,0.6-1.3,1.3c0,0.7,0.6,1.3,1.3,1.3c0.7,0,1.3-0.6,1.3-1.3
						C291.6,289.1,291,288.5,290.3,288.5z"/>
				</g>
				<g>
					<path class="st13" d="M290.3,250.4c0.7,0,1.3-0.6,1.3-1.3c0-0.5-0.3-0.9-0.7-1.1c-0.6,0.3-1.2,0.5-1.8,0.8
						c0,0.1-0.1,0.2-0.1,0.4C289,249.8,289.6,250.4,290.3,250.4z"/>
				</g>
				<g>
					<path class="st13" d="M331,356.3c-0.7,0-1.3,0.6-1.3,1.3s0.6,1.3,1.3,1.3c0.7,0,1.3-0.6,1.3-1.3S331.7,356.3,331,356.3z"/>
				</g>
				<g>
					<path class="st13" d="M331,369.8c-0.7,0-1.3,0.6-1.3,1.3c0,0.7,0.6,1.3,1.3,1.3c0.7,0,1.3-0.6,1.3-1.3
						C332.2,370.4,331.7,369.8,331,369.8z"/>
				</g>
				<g>
					<path class="st13" d="M331,396.9c-0.7,0-1.3,0.6-1.3,1.3c0,0.7,0.6,1.3,1.3,1.3c0.7,0,1.3-0.6,1.3-1.3
						C332.2,397.5,331.7,396.9,331,396.9z"/>
				</g>
				<g>
					<path class="st13" d="M331,383.4c-0.7,0-1.3,0.6-1.3,1.3s0.6,1.3,1.3,1.3c0.7,0,1.3-0.6,1.3-1.3S331.7,383.4,331,383.4z"/>
				</g>
				<g>
					<path class="st13" d="M331,329.2c-0.7,0-1.3,0.6-1.3,1.3c0,0.7,0.6,1.3,1.3,1.3c0.7,0,1.3-0.6,1.3-1.3
						C332.2,329.7,331.7,329.2,331,329.2z"/>
				</g>
				<g>
					<path class="st13" d="M331,342.7c-0.7,0-1.3,0.6-1.3,1.3c0,0.7,0.6,1.3,1.3,1.3c0.7,0,1.3-0.6,1.3-1.3
						C332.2,343.3,331.7,342.7,331,342.7z"/>
				</g>
				<g>
					<path class="st13" d="M331,302.1c-0.7,0-1.3,0.6-1.3,1.3c0,0.7,0.6,1.3,1.3,1.3c0.7,0,1.3-0.6,1.3-1.3
						C332.2,302.6,331.7,302.1,331,302.1z"/>
				</g>
				<g>
					<path class="st13" d="M412.3,275c-0.7,0-1.3,0.6-1.3,1.3c0,0.7,0.6,1.3,1.3,1.3c0.7,0,1.3-0.6,1.3-1.3
						C413.6,275.5,413,275,412.3,275z"/>
				</g>
				<g>
					<path class="st13" d="M331,315.6c-0.7,0-1.3,0.6-1.3,1.3c0,0.7,0.6,1.3,1.3,1.3c0.7,0,1.3-0.6,1.3-1.3
						C332.2,316.2,331.7,315.6,331,315.6z"/>
				</g>
				<g>
					<path class="st13" d="M412.3,345.3c0.7,0,1.3-0.6,1.3-1.3c0-0.7-0.6-1.3-1.3-1.3c-0.7,0-1.3,0.6-1.3,1.3
						C411,344.7,411.6,345.3,412.3,345.3z"/>
				</g>
				<g>
					<path class="st13" d="M412.3,304.6c0.7,0,1.3-0.6,1.3-1.3c0-0.7-0.6-1.3-1.3-1.3c-0.7,0-1.3,0.6-1.3,1.3
						C411,304,411.6,304.6,412.3,304.6z"/>
				</g>
				<g>
					<path class="st13" d="M411,371.1c0,0.2,0.1,0.4,0.1,0.6c0.1-0.5,0.1-1,0.2-1.5C411.2,370.4,411,370.8,411,371.1z"/>
				</g>
				<g>
					<path class="st13" d="M317.4,247.8c-0.7,0-1.3,0.6-1.3,1.3s0.6,1.3,1.3,1.3c0.7,0,1.3-0.6,1.3-1.3S318.1,247.8,317.4,247.8z"/>
				</g>
				<g>
					<circle class="st13" cx="412.3" cy="330.4" r="1.3"/>
				</g>
				<g>
					<circle class="st13" cx="412.3" cy="316.9" r="1.3"/>
				</g>
				<g>
					<circle class="st13" cx="412.3" cy="289.8" r="1.3"/>
				</g>
				<g>
					<path class="st13" d="M412.3,356.3c-0.7,0-1.3,0.6-1.3,1.3s0.6,1.3,1.3,1.3c0.3,0,0.6-0.1,0.9-0.3c0.1-0.5,0.2-1,0.2-1.5
						C413.2,356.5,412.8,356.3,412.3,356.3z"/>
				</g>
				<g>
					<circle class="st13" cx="317.4" cy="316.9" r="1.3"/>
				</g>
				<g>
					<path class="st13" d="M317.4,302.1c-0.7,0-1.3,0.6-1.3,1.3c0,0.7,0.6,1.3,1.3,1.3c0.7,0,1.3-0.6,1.3-1.3
						C318.7,302.6,318.1,302.1,317.4,302.1z"/>
				</g>
				<g>
					<circle class="st13" cx="317.4" cy="330.4" r="1.3"/>
				</g>
				<g>
					<path class="st13" d="M331,288.5c-0.7,0-1.3,0.6-1.3,1.3c0,0.7,0.6,1.3,1.3,1.3c0.7,0,1.3-0.6,1.3-1.3
						C332.2,289.1,331.7,288.5,331,288.5z"/>
				</g>
				<g>
					<path class="st13" d="M317.4,356.3c-0.7,0-1.3,0.6-1.3,1.3s0.6,1.3,1.3,1.3c0.7,0,1.3-0.6,1.3-1.3S318.1,356.3,317.4,356.3z"/>
				</g>
				<g>
					<circle class="st13" cx="317.4" cy="289.8" r="1.3"/>
				</g>
				<g>
					<path class="st13" d="M317.4,261.4c-0.7,0-1.3,0.6-1.3,1.3c0,0.7,0.6,1.3,1.3,1.3c0.7,0,1.3-0.6,1.3-1.3
						C318.7,262,318.1,261.4,317.4,261.4z"/>
				</g>
				<g>
					<path class="st13" d="M317.4,275c-0.7,0-1.3,0.6-1.3,1.3c0,0.7,0.6,1.3,1.3,1.3c0.7,0,1.3-0.6,1.3-1.3
						C318.7,275.5,318.1,275,317.4,275z"/>
				</g>
				<g>
					<path class="st13" d="M317.4,342.7c-0.7,0-1.3,0.6-1.3,1.3c0,0.7,0.6,1.3,1.3,1.3c0.7,0,1.3-0.6,1.3-1.3
						C318.7,343.3,318.1,342.7,317.4,342.7z"/>
				</g>
				<g>
					<path class="st13" d="M331,261.4c-0.7,0-1.3,0.6-1.3,1.3c0,0.7,0.6,1.3,1.3,1.3c0.7,0,1.3-0.6,1.3-1.3
						C332.2,262,331.7,261.4,331,261.4z"/>
				</g>
				<g>
					<path class="st13" d="M331,247.8c-0.7,0-1.3,0.6-1.3,1.3s0.6,1.3,1.3,1.3c0.7,0,1.3-0.6,1.3-1.3S331.7,247.8,331,247.8z"/>
				</g>
				<g>
					<path class="st13" d="M331,275c-0.7,0-1.3,0.6-1.3,1.3c0,0.7,0.6,1.3,1.3,1.3c0.7,0,1.3-0.6,1.3-1.3
						C332.2,275.5,331.7,275,331,275z"/>
				</g>
				<g>
					<path class="st13" d="M331,234.3c-0.7,0-1.3,0.6-1.3,1.3s0.6,1.3,1.3,1.3c0.7,0,1.3-0.6,1.3-1.3S331.7,234.3,331,234.3z"/>
				</g>
				<g>
					<path class="st13" d="M317.4,396.9c-0.7,0-1.3,0.6-1.3,1.3c0,0.7,0.6,1.3,1.3,1.3c0.7,0,1.3-0.6,1.3-1.3
						C318.7,397.5,318.1,396.9,317.4,396.9z"/>
				</g>
				<g>
					<circle class="st13" cx="317.4" cy="371.1" r="1.3"/>
				</g>
				<g>
					<path class="st13" d="M317.4,383.4c-0.7,0-1.3,0.6-1.3,1.3s0.6,1.3,1.3,1.3c0.7,0,1.3-0.6,1.3-1.3S318.1,383.4,317.4,383.4z"/>
				</g>
				<g>
					<path class="st13" d="M276.7,302.1c-0.7,0-1.3,0.6-1.3,1.3c0,0.7,0.6,1.3,1.3,1.3c0.7,0,1.3-0.6,1.3-1.3
						C278,302.6,277.4,302.1,276.7,302.1z"/>
				</g>
				<g>
					<path class="st13" d="M371.6,383.4c-0.7,0-1.3,0.6-1.3,1.3s0.6,1.3,1.3,1.3c0.7,0,1.3-0.6,1.3-1.3S372.3,383.4,371.6,383.4z"/>
				</g>
				<g>
					<path class="st13" d="M371.6,342.7c-0.7,0-1.3,0.6-1.3,1.3c0,0.7,0.6,1.3,1.3,1.3c0.7,0,1.3-0.6,1.3-1.3
						C372.9,343.3,372.3,342.7,371.6,342.7z"/>
				</g>
				<g>
					<path class="st13" d="M371.6,356.3c-0.7,0-1.3,0.6-1.3,1.3s0.6,1.3,1.3,1.3c0.7,0,1.3-0.6,1.3-1.3S372.3,356.3,371.6,356.3z"/>
				</g>
				<g>
					<path class="st13" d="M371.6,396.9c-0.7,0-1.3,0.6-1.3,1.3c0,0.7,0.6,1.3,1.3,1.3c0.7,0,1.3-0.6,1.3-1.3
						C372.9,397.5,372.3,396.9,371.6,396.9z"/>
				</g>
				<g>
					<path class="st13" d="M371.6,369.8c-0.7,0-1.3,0.6-1.3,1.3c0,0.7,0.6,1.3,1.3,1.3c0.7,0,1.3-0.6,1.3-1.3
						C372.9,370.4,372.3,369.8,371.6,369.8z"/>
				</g>
				<g>
					<path class="st13" d="M371.6,302.1c-0.7,0-1.3,0.6-1.3,1.3c0,0.7,0.6,1.3,1.3,1.3c0.7,0,1.3-0.6,1.3-1.3
						C372.9,302.6,372.3,302.1,371.6,302.1z"/>
				</g>
				<g>
					<path class="st13" d="M371.6,315.6c-0.7,0-1.3,0.6-1.3,1.3c0,0.7,0.6,1.3,1.3,1.3c0.7,0,1.3-0.6,1.3-1.3
						C372.9,316.2,372.3,315.6,371.6,315.6z"/>
				</g>
				<g>
					<path class="st13" d="M371.6,329.2c-0.7,0-1.3,0.6-1.3,1.3c0,0.7,0.6,1.3,1.3,1.3c0.7,0,1.3-0.6,1.3-1.3
						C372.9,329.7,372.3,329.2,371.6,329.2z"/>
				</g>
				<g>
					<path class="st13" d="M385.2,329.2c-0.7,0-1.3,0.6-1.3,1.3c0,0.7,0.6,1.3,1.3,1.3s1.3-0.6,1.3-1.3
						C386.4,329.7,385.9,329.2,385.2,329.2z"/>
				</g>
				<g>
					<path class="st13" d="M385.2,247.8c-0.7,0-1.3,0.6-1.3,1.3s0.6,1.3,1.3,1.3s1.3-0.6,1.3-1.3S385.9,247.8,385.2,247.8z"/>
				</g>
				<g>
					<path class="st13" d="M385.2,302.1c-0.7,0-1.3,0.6-1.3,1.3c0,0.7,0.6,1.3,1.3,1.3s1.3-0.6,1.3-1.3
						C386.4,302.6,385.9,302.1,385.2,302.1z"/>
				</g>
				<g>
					<path class="st13" d="M371.6,288.5c-0.7,0-1.3,0.6-1.3,1.3c0,0.7,0.6,1.3,1.3,1.3c0.7,0,1.3-0.6,1.3-1.3
						C372.9,289.1,372.3,288.5,371.6,288.5z"/>
				</g>
				<g>
					<path class="st13" d="M385.2,315.6c-0.7,0-1.3,0.6-1.3,1.3c0,0.7,0.6,1.3,1.3,1.3s1.3-0.6,1.3-1.3
						C386.4,316.2,385.9,315.6,385.2,315.6z"/>
				</g>
				<g>
					<path class="st13" d="M385.2,261.4c-0.7,0-1.3,0.6-1.3,1.3c0,0.7,0.6,1.3,1.3,1.3s1.3-0.6,1.3-1.3
						C386.4,262,385.9,261.4,385.2,261.4z"/>
				</g>
				<g>
					<path class="st13" d="M385.2,288.5c-0.7,0-1.3,0.6-1.3,1.3c0,0.7,0.6,1.3,1.3,1.3s1.3-0.6,1.3-1.3
						C386.4,289.1,385.9,288.5,385.2,288.5z"/>
				</g>
				<g>
					<path class="st13" d="M385.2,275c-0.7,0-1.3,0.6-1.3,1.3c0,0.7,0.6,1.3,1.3,1.3s1.3-0.6,1.3-1.3
						C386.4,275.5,385.9,275,385.2,275z"/>
				</g>
				<g>
					<path class="st13" d="M358.1,247.8c-0.7,0-1.3,0.6-1.3,1.3s0.6,1.3,1.3,1.3c0.7,0,1.3-0.6,1.3-1.3S358.8,247.8,358.1,247.8z"/>
				</g>
				<g>
					<path class="st13" d="M358.1,302.1c-0.7,0-1.3,0.6-1.3,1.3c0,0.7,0.6,1.3,1.3,1.3c0.7,0,1.3-0.6,1.3-1.3
						C359.3,302.6,358.8,302.1,358.1,302.1z"/>
				</g>
				<g>
					<circle class="st13" cx="358.1" cy="289.8" r="1.3"/>
				</g>
				<g>
					<circle class="st13" cx="358.1" cy="316.9" r="1.3"/>
				</g>
				<g>
					<path class="st13" d="M358.1,275c-0.7,0-1.3,0.6-1.3,1.3c0,0.7,0.6,1.3,1.3,1.3c0.7,0,1.3-0.6,1.3-1.3
						C359.3,275.5,358.8,275,358.1,275z"/>
				</g>
				<g>
					<path class="st13" d="M385.2,342.7c-0.7,0-1.3,0.6-1.3,1.3c0,0.7,0.6,1.3,1.3,1.3s1.3-0.6,1.3-1.3
						C386.4,343.3,385.9,342.7,385.2,342.7z"/>
				</g>
				<g>
					<path class="st13" d="M358.1,399.5c0.7,0,1.3-0.6,1.3-1.3c0-0.7-0.6-1.3-1.3-1.3c-0.7,0-1.3,0.6-1.3,1.3
						C356.8,398.9,357.4,399.5,358.1,399.5z"/>
				</g>
				<g>
					<path class="st13" d="M358.1,261.4c-0.7,0-1.3,0.6-1.3,1.3c0,0.7,0.6,1.3,1.3,1.3c0.7,0,1.3-0.6,1.3-1.3
						C359.3,262,358.8,261.4,358.1,261.4z"/>
				</g>
				<g>
					<circle class="st13" cx="358.1" cy="330.4" r="1.3"/>
				</g>
				<g>
					<path class="st13" d="M371.6,261.4c-0.7,0-1.3,0.6-1.3,1.3c0,0.7,0.6,1.3,1.3,1.3c0.7,0,1.3-0.6,1.3-1.3
						C372.9,262,372.3,261.4,371.6,261.4z"/>
				</g>
				<g>
					<path class="st13" d="M358.1,342.7c-0.7,0-1.3,0.6-1.3,1.3c0,0.7,0.6,1.3,1.3,1.3c0.7,0,1.3-0.6,1.3-1.3
						C359.3,343.3,358.8,342.7,358.1,342.7z"/>
				</g>
				<g>
					<path class="st13" d="M356.8,235.6c0,0.7,0.6,1.3,1.3,1.3c0.7,0,1.3-0.6,1.3-1.3c0-0.2,0-0.3-0.1-0.4c-0.7-0.1-1.4-0.3-2.1-0.4
						C356.9,234.9,356.8,235.2,356.8,235.6z"/>
				</g>
				<g>
					<path class="st13" d="M371.6,275c-0.7,0-1.3,0.6-1.3,1.3c0,0.7,0.6,1.3,1.3,1.3c0.7,0,1.3-0.6,1.3-1.3
						C372.9,275.5,372.3,275,371.6,275z"/>
				</g>
				<g>
					<path class="st13" d="M371.6,247.8c-0.7,0-1.3,0.6-1.3,1.3s0.6,1.3,1.3,1.3c0.7,0,1.3-0.6,1.3-1.3S372.3,247.8,371.6,247.8z"/>
				</g>
				<g>
					<path class="st13" d="M358.1,356.3c-0.7,0-1.3,0.6-1.3,1.3s0.6,1.3,1.3,1.3c0.7,0,1.3-0.6,1.3-1.3S358.8,356.3,358.1,356.3z"/>
				</g>
				<g>
					<circle class="st13" cx="358.1" cy="371.1" r="1.3"/>
				</g>
				<g>
					<path class="st13" d="M358.1,383.4c-0.7,0-1.3,0.6-1.3,1.3s0.6,1.3,1.3,1.3c0.7,0,1.3-0.6,1.3-1.3S358.8,383.4,358.1,383.4z"/>
				</g>
				<g>
					<path class="st13" d="M263.2,277.5c0.7,0,1.3-0.6,1.3-1.3c0-0.7-0.6-1.3-1.3-1.3c-0.7,0-1.3,0.6-1.3,1.3
						C261.9,276.9,262.5,277.5,263.2,277.5z"/>
				</g>
				<g>
					<path class="st13" d="M344.5,331.7c0.7,0,1.3-0.6,1.3-1.3c0-0.7-0.6-1.3-1.3-1.3c-0.7,0-1.3,0.6-1.3,1.3
						C343.2,331.1,343.8,331.7,344.5,331.7z"/>
				</g>
				<g>
					<path class="st13" d="M344.5,345.3c0.7,0,1.3-0.6,1.3-1.3c0-0.7-0.6-1.3-1.3-1.3c-0.7,0-1.3,0.6-1.3,1.3
						C343.2,344.7,343.8,345.3,344.5,345.3z"/>
				</g>
				<g>
					<path class="st13" d="M344.5,358.8c0.7,0,1.3-0.6,1.3-1.3s-0.6-1.3-1.3-1.3c-0.7,0-1.3,0.6-1.3,1.3S343.8,358.8,344.5,358.8z"/>
				</g>
				<g>
					<path class="st13" d="M344.5,318.2c0.7,0,1.3-0.6,1.3-1.3c0-0.7-0.6-1.3-1.3-1.3c-0.7,0-1.3,0.6-1.3,1.3
						C343.2,317.6,343.8,318.2,344.5,318.2z"/>
				</g>
				<g>
					<path class="st13" d="M344.5,304.6c0.7,0,1.3-0.6,1.3-1.3c0-0.7-0.6-1.3-1.3-1.3c-0.7,0-1.3,0.6-1.3,1.3
						C343.2,304,343.8,304.6,344.5,304.6z"/>
				</g>
				<g>
					<path class="st13" d="M344.5,399.5c0.7,0,1.3-0.6,1.3-1.3c0-0.7-0.6-1.3-1.3-1.3c-0.7,0-1.3,0.6-1.3,1.3
						C343.2,398.9,343.8,399.5,344.5,399.5z"/>
				</g>
				<g>
					<path class="st13" d="M344.5,372.4c0.7,0,1.3-0.6,1.3-1.3c0-0.7-0.6-1.3-1.3-1.3c-0.7,0-1.3,0.6-1.3,1.3
						C343.2,371.8,343.8,372.4,344.5,372.4z"/>
				</g>
				<g>
					<path class="st13" d="M344.5,385.9c0.7,0,1.3-0.6,1.3-1.3s-0.6-1.3-1.3-1.3c-0.7,0-1.3,0.6-1.3,1.3S343.8,385.9,344.5,385.9z"/>
				</g>
				<g>
					<path class="st13" d="M344.5,291c0.7,0,1.3-0.6,1.3-1.3c0-0.7-0.6-1.3-1.3-1.3c-0.7,0-1.3,0.6-1.3,1.3
						C343.2,290.5,343.8,291,344.5,291z"/>
				</g>
				<g>
					<path class="st13" d="M276.7,261.4c-0.7,0-1.3,0.6-1.3,1.3c0,0.7,0.6,1.3,1.3,1.3c0.7,0,1.3-0.6,1.3-1.3
						C278,262,277.4,261.4,276.7,261.4z"/>
				</g>
				<g>
					<path class="st13" d="M261.9,262.7c0,0.7,0.6,1.3,1.3,1.3c0.7,0,1.3-0.6,1.3-1.3c0-0.7-0.6-1.3-1.3-1.3
						C262.5,261.4,261.9,262,261.9,262.7z"/>
				</g>
				<g>
					<path class="st13" d="M344.5,234.3c-0.7,0-1.3,0.6-1.3,1.3s0.6,1.3,1.3,1.3c0.7,0,1.3-0.6,1.3-1.3S345.2,234.3,344.5,234.3z"/>
				</g>
				<g>
					<path class="st13" d="M263.2,291c0.7,0,1.3-0.6,1.3-1.3c0-0.7-0.6-1.3-1.3-1.3c-0.6,0-1,0.4-1.2,0.9c0.1,0.4,0.2,0.9,0.3,1.3
						C262.5,290.9,262.8,291,263.2,291z"/>
				</g>
				<g>
					<path class="st13" d="M344.5,263.9c0.7,0,1.3-0.6,1.3-1.3c0-0.7-0.6-1.3-1.3-1.3c-0.7,0-1.3,0.6-1.3,1.3
						C343.2,263.4,343.8,263.9,344.5,263.9z"/>
				</g>
				<g>
					<path class="st13" d="M344.5,277.5c0.7,0,1.3-0.6,1.3-1.3c0-0.7-0.6-1.3-1.3-1.3c-0.7,0-1.3,0.6-1.3,1.3
						C343.2,276.9,343.8,277.5,344.5,277.5z"/>
				</g>
				<g>
					<path class="st13" d="M344.5,250.4c0.7,0,1.3-0.6,1.3-1.3s-0.6-1.3-1.3-1.3c-0.7,0-1.3,0.6-1.3,1.3S343.8,250.4,344.5,250.4z"/>
				</g>
				<g>
					<path class="st13" d="M398.7,302.1c-0.7,0-1.3,0.6-1.3,1.3c0,0.7,0.6,1.3,1.3,1.3c0.7,0,1.3-0.6,1.3-1.3
						C400,302.6,399.4,302.1,398.7,302.1z"/>
				</g>
				<g>
					<path class="st13" d="M398.7,247.8c-0.7,0-1.3,0.6-1.3,1.3s0.6,1.3,1.3,1.3c0.7,0,1.3-0.6,1.3-1.3S399.4,247.8,398.7,247.8z"/>
				</g>
				<g>
					<path class="st13" d="M398.7,288.5c-0.7,0-1.3,0.6-1.3,1.3c0,0.7,0.6,1.3,1.3,1.3c0.7,0,1.3-0.6,1.3-1.3
						C400,289.1,399.4,288.5,398.7,288.5z"/>
				</g>
				<g>
					<path class="st13" d="M398.7,383.4c-0.7,0-1.3,0.6-1.3,1.3s0.6,1.3,1.3,1.3c0.7,0,1.3-0.6,1.3-1.3S399.4,383.4,398.7,383.4z"/>
				</g>
				<g>
					<path class="st13" d="M398.7,261.4c-0.7,0-1.3,0.6-1.3,1.3c0,0.7,0.6,1.3,1.3,1.3c0.7,0,1.3-0.6,1.3-1.3
						C400,262,399.4,261.4,398.7,261.4z"/>
				</g>
				<g>
					<path class="st13" d="M385.2,383.4c-0.7,0-1.3,0.6-1.3,1.3s0.6,1.3,1.3,1.3s1.3-0.6,1.3-1.3S385.9,383.4,385.2,383.4z"/>
				</g>
				<g>
					<path class="st13" d="M385.2,369.8c-0.7,0-1.3,0.6-1.3,1.3c0,0.7,0.6,1.3,1.3,1.3s1.3-0.6,1.3-1.3
						C386.4,370.4,385.9,369.8,385.2,369.8z"/>
				</g>
				<g>
					<path class="st13" d="M385.2,396.9c-0.7,0-1.3,0.6-1.3,1.3c0,0.7,0.6,1.3,1.3,1.3s1.3-0.6,1.3-1.3
						C386.4,397.5,385.9,396.9,385.2,396.9z"/>
				</g>
				<g>
					<path class="st13" d="M398.7,275c-0.7,0-1.3,0.6-1.3,1.3c0,0.7,0.6,1.3,1.3,1.3c0.7,0,1.3-0.6,1.3-1.3
						C400,275.5,399.4,275,398.7,275z"/>
				</g>
				<g>
					<path class="st13" d="M398.7,356.3c-0.7,0-1.3,0.6-1.3,1.3s0.6,1.3,1.3,1.3c0.7,0,1.3-0.6,1.3-1.3S399.4,356.3,398.7,356.3z"/>
				</g>
				<g>
					<path class="st13" d="M398.7,369.8c-0.7,0-1.3,0.6-1.3,1.3c0,0.7,0.6,1.3,1.3,1.3c0.7,0,1.3-0.6,1.3-1.3
						C400,370.4,399.4,369.8,398.7,369.8z"/>
				</g>
				<g>
					<path class="st13" d="M398.7,396.9c-0.7,0-1.3,0.6-1.3,1.3c0,0.7,0.6,1.3,1.3,1.3c0.7,0,1.3-0.6,1.3-1.3
						C400,397.5,399.4,396.9,398.7,396.9z"/>
				</g>
				<g>
					<path class="st13" d="M385.2,356.3c-0.7,0-1.3,0.6-1.3,1.3s0.6,1.3,1.3,1.3s1.3-0.6,1.3-1.3S385.9,356.3,385.2,356.3z"/>
				</g>
				<g>
					<path class="st13" d="M398.7,315.6c-0.7,0-1.3,0.6-1.3,1.3c0,0.7,0.6,1.3,1.3,1.3c0.7,0,1.3-0.6,1.3-1.3
						C400,316.2,399.4,315.6,398.7,315.6z"/>
				</g>
				<g>
					<path class="st13" d="M398.7,342.7c-0.7,0-1.3,0.6-1.3,1.3c0,0.7,0.6,1.3,1.3,1.3c0.7,0,1.3-0.6,1.3-1.3
						C400,343.3,399.4,342.7,398.7,342.7z"/>
				</g>
				<g>
					<path class="st13" d="M398.7,329.2c-0.7,0-1.3,0.6-1.3,1.3c0,0.7,0.6,1.3,1.3,1.3c0.7,0,1.3-0.6,1.3-1.3
						C400,329.7,399.4,329.2,398.7,329.2z"/>
				</g>
			</g>
			<g>
				<path class="st8" d="M350.5,308.8c6.8-7.4,27-34.9,27.1-51.1c0.1-9.4-2.1-15.6-6.5-20.6c-10.6-2-20.3-3.7-26.8-4.6l-4.7,0.2
					c-10,1.5-19.2,3.8-28,6.6c-2.2,6.2-1.8,13.3,0,19.8C315.8,274,341.4,299.9,350.5,308.8z"/>
			</g>
			<g>
				<path class="st14" d="M350.5,309.8c-0.3,0-0.5-0.1-0.7-0.3c-30.1-29.5-37.4-44.2-39.1-50.3c-2-7.3-2-14.6,0-20.4
					c0.2-0.5,0.8-0.8,1.3-0.6c0.5,0.2,0.8,0.8,0.6,1.3c-1.9,5.5-1.9,12.3,0,19.2c3.9,13.9,27.1,38.1,37.8,48.6
					c6.7-7.6,26-33.8,26.2-49.6c0.1-8.7-1.8-14.9-6.2-19.9c-0.4-0.4-0.3-1.1,0.1-1.5c0.4-0.4,1.1-0.3,1.5,0.1
					c4.8,5.5,6.8,12,6.7,21.3c-0.2,17.1-21.4,45.3-27.4,51.8C351.1,309.7,350.8,309.8,350.5,309.8
					C350.5,309.8,350.5,309.8,350.5,309.8z"/>
			</g>
			<g>
				<path class="st9" d="M319.8,225.1c-0.2,3.8,1.1,6-1.4,10.8c-2.7,5.2-5.6,17.6-5.7,23.6c-0.1,10.6,3.5,25.3,5.5,35.7
					c14.5,75.5-9,178.7-7,228.4c-6.3,2.7-13.4,2.6-20.3,2.4c-23-0.6-46.6,0.4-67.2-1.7c-3-22.3,4.4-46.5,13-67.3
					c8.7-20.8,19.5-40.9,25.6-60.6c2.2-45.7-0.9-91.7-9.8-137c17.2-3.6,34.3-10.8,47.4-17.3C306.3,236.2,311,230.4,319.8,225.1z"/>
			</g>
			<g>
				<path class="st10" d="M245,492c-1.8-14.1,8.2-71.4,8.2-71.4l-0.3,0.1c-5.2,11.9-11.1,23.9-16.2,36.2c-8.7,20.8-16,44.9-13,67.3
					c6.8,0.7,14,1.1,21.3,1.2C245.6,514.7,246.1,500.1,245,492z"/>
			</g>
			<g>
				<path class="st9" d="M362.5,226.6c12.1,19.7,25.3,57.3,25.5,80.4c0.2,23.1-11.4,85.6-4.8,115.2c2.9,13.1,14.4,92.3,15.5,100.7
					c1.3,0.6,31-5.7,37.8-7.2c4.3-1,11.5-1.3,12.4-4.6c-1.4-17.2-9.1-34.9-15.8-50.9c-8.4-20.3-11.4-36.8-14.5-58.1
					c-2.4-16.1-1.5-42.8,1.8-55c9.7-36,9.8-78.7,3.2-95.5l-48.7-16L362.5,226.6z"/>
			</g>
			<g>
				<g>
					<path class="st11" d="M449,511.7c-0.4,0-0.7-0.3-0.8-0.7c-1.4-16.2-8.5-33.3-14.7-48.3l-1-2.4c-3.3-7.9-5.9-15.6-8-23.6
						c-0.1-0.4,0.1-0.8,0.6-0.9c0.4-0.1,0.8,0.1,0.9,0.6c2.1,7.9,4.7,15.6,7.9,23.4l1,2.4c6.3,15.1,13.5,32.3,14.9,48.7
						C449.8,511.3,449.5,511.7,449,511.7C449,511.7,449,511.7,449,511.7z"/>
				</g>
			</g>
			<g>
				<path class="st11" d="M382,385.1c-0.1,0-0.1,0-0.2,0c-0.6-0.1-0.9-0.7-0.8-1.2c1.9-9.1,6.4-20.8,11.2-33.3
					c7.7-20,16.3-42.6,16.5-60l-10.1-5.2c-0.3-0.2-0.5-0.5-0.6-0.8c-0.1-0.9,0.5-1.4,3.6-3.8c1.7-1.3,4.2-3.3,4.9-4.3
					c0.1-4.6-4.9-12.5-14.4-22.9c-7.4-8.1-14.9-14.8-15-14.9c-0.4-0.4-0.5-1-0.1-1.5c0.4-0.4,1-0.5,1.5-0.1
					c1.3,1.1,30.7,27.3,30,39.6c0,0.1,0,0.3-0.1,0.4c-0.6,1.2-2.7,2.9-5.6,5.2c-0.7,0.6-1.6,1.2-2.2,1.7l9.5,4.8
					c0.3,0.2,0.6,0.5,0.6,0.9c0,17.8-8.9,40.9-16.7,61.4c-4.7,12.4-9.2,24.1-11.1,32.9C382.9,384.8,382.5,385.1,382,385.1z
					 M407.6,276.9L407.6,276.9L407.6,276.9z"/>
			</g>
			<g>
				<path class="st11" d="M423.1,336.8c-0.1,0-0.2,0-0.3-0.1c-0.4-0.2-0.6-0.6-0.4-1c2.9-7.1,5.6-37.8,5.6-38.2
					c0-0.4,0.4-0.7,0.8-0.7c0.4,0,0.7,0.4,0.7,0.8c-0.1,1.3-2.7,31.3-5.7,38.6C423.7,336.7,423.4,336.8,423.1,336.8z"/>
			</g>
			<g>
				<path class="st8" d="M315.8,169.5c-3.2-9.2-10.8-5.9-13.5,0.2c-1.6,3.5-0.3,23.1,12.7,22.1L315.8,169.5z"/>
			</g>
			<g>
				<path class="st15" d="M312.5,186.2c-0.3,0-0.6-0.2-0.7-0.5c-1.3-3.8-0.6-6.5-0.1-8.2c0.2-0.8,0.4-1.4,0.3-1.8
					c-0.8-5.4-4.3-6.5-4.4-6.5c-0.4-0.1-0.6-0.6-0.5-1c0.1-0.4,0.6-0.6,1-0.5c0.2,0.1,4.5,1.4,5.5,7.8c0.1,0.8-0.1,1.5-0.3,2.5
					c-0.5,1.7-1,3.9,0.1,7.3c0.1,0.4-0.1,0.8-0.5,1C312.7,186.2,312.6,186.2,312.5,186.2z"/>
			</g>
			<g>
				<path class="st1" d="M317.9,160.7c0,0-1.9,10-16.3,21.4c-11.6,9.3-16.5,30.7-16.5,30.7S272,180.5,275,176
					c3-4.4,29.9-22.6,29.9-22.6L317.9,160.7z"/>
			</g>
			<g>
				<path class="st7" d="M310.1,187.7c0.6,0.7,0.7,1.9,0.8,2.7c0.8,4.9,1.5,9.7,1.2,14.7c-0.1,1.8-0.5,3.8-1.2,5.6
					c-2.3,5.4-7.3,5.3-12.1,3.4c-12.2-4.9-4.4-16.9,3.2-22.1c1.7-1.3,3.5-2.4,5.4-3.4C308.2,188.3,309.2,187.7,310.1,187.7
					L310.1,187.7z M309.3,189.3c0,0.2,0,0.3,0,0.4c0,0.1,0.1,0.1,0,0.2l-0.8,0.6c-4.7,3.4-9.6,7.3-11.8,12.8c-0.4,1-0.7,2.2-0.6,3.2
					c0.3,2.8,3.4,4,5.9,4.7c1,0.3,2.2,0.5,3.2,0.3c1.5-0.3,2.2-1.5,2.8-3c1.2-3.6,1.1-7.8,1.1-11.6c0-2.3-0.1-4.9-0.2-7.2l0-0.1
					c0,0,0,0,0,0C309,189.5,309.1,189.5,309.3,189.3L309.3,189.3z"/>
			</g>
			<g>
				<path class="st8" d="M319.7,198.5c-0.7,12.7,0.8,28.2-2,40.2c1.1,5,35.7,13.7,46.5,9.8c-1-10-1.2-25-0.6-36L319.7,198.5z"/>
			</g>
			<g>
				<path class="st16" d="M363.7,242c-0.5-9.3-0.6-20.7-0.1-29.6l-34.4-10.9v16.4c0,13.3,10.8,24.1,24.1,24.1H363.7z"/>
			</g>
			<g>
				<path class="st1" d="M371.7,195.4c-9.4,18.2-15.4,60.7,4.1,74c7.1,6.7,16.1,7.1,20.7,15.6c4.6,8.5,6.1,21.8-0.2,29.4
					c15.3,2.9,22.3-16,18.3-28.4c2.4,5.2,7.3,7.3,5.3,13.8c17.3-11.2,19.3-34.1,6.2-50c-7.9-9.6-21.6-15.9-24.1-29.1
					c-1.5-7.9,2.2-15.8,3.1-23.9c2-20-12.3-36.5-25.3-50.1L371.7,195.4z"/>
			</g>
			<g>
				<path class="st17" d="M394,282.3c-0.3,0-0.5-0.1-0.7-0.4c-1.6-3-4.4-4.9-7.3-7c-1.6-1.1-3.2-2.3-4.6-3.6
					c-6.3-5.8-9.4-15.3-8.5-26.1c0.7-7.8,3.2-15.4,5.7-22.7c0.5-1.4,1-2.8,1.4-4.2c2.8-8.6,5.3-17.8,4-26.8
					c-0.1-0.4,0.2-0.8,0.7-0.9c0.4-0.1,0.8,0.2,0.9,0.7c1.3,9.4-1.2,18.8-4.1,27.5c-0.5,1.4-0.9,2.8-1.4,4.2
					c-2.4,7.2-5,14.7-5.6,22.3c-0.9,10.3,2,19.3,8,24.8c1.4,1.2,2.9,2.4,4.5,3.4c3,2.1,6,4.3,7.8,7.5c0.2,0.4,0.1,0.8-0.3,1
					C394.3,282.3,394.1,282.3,394,282.3z"/>
			</g>
			<g>
				<path class="st17" d="M402.6,301.3c-0.1,0-0.1,0-0.2,0c-0.4-0.1-0.6-0.5-0.5-1c2.3-8,0.5-17.7-5.1-26.5
					c-1.1-1.8-2.4-3.5-3.6-5.2c-2.6-3.6-5.3-7.4-6.8-11.7c-3.3-9.3-0.7-19.3,2.1-26c4.5-11,7.9-18.3,13.9-27.9
					c0.2-0.4,0.7-0.5,1.1-0.2c0.4,0.2,0.5,0.7,0.2,1.1c-5.9,9.5-9.3,16.8-13.8,27.7c-2.7,6.5-5.2,16.1-2.1,24.9
					c1.5,4.1,4.1,7.7,6.6,11.3c1.2,1.7,2.5,3.5,3.6,5.3c5.8,9.2,7.7,19.3,5.2,27.8C403.2,301.1,402.9,301.3,402.6,301.3z"/>
			</g>
			<g>
				<path class="st17" d="M424.6,295c0,0-0.1,0-0.1,0c-0.3-0.1-0.5-0.3-0.4-0.6c1.8-8.6,0.9-16.8-2.6-22.9c-2.9-5.2-7.6-9.2-12.2-13
					c-4.1-3.4-8.3-7-11.3-11.4c-6.4-9.3-7.2-23.4-1.8-32.6c0.1-0.2,0.5-0.3,0.7-0.2c0.2,0.1,0.3,0.5,0.2,0.7
					c-5.1,8.9-4.4,22.5,1.8,31.5c2.9,4.3,7.1,7.8,11.1,11.2c4.6,3.9,9.4,7.9,12.5,13.3c3.6,6.4,4.5,14.8,2.7,23.6
					C425,294.8,424.8,295,424.6,295z"/>
			</g>
			<g>
				<path class="st17" d="M357.7,125.8C357.6,125.8,357.6,125.8,357.7,125.8c-0.5,0-0.8-0.4-0.8-0.8c0.5-7.7-1.8-15.6-6.3-21.8
					c-0.3-0.3-0.2-0.8,0.2-1.1c0.3-0.3,0.8-0.2,1.1,0.2c4.8,6.5,7.2,14.8,6.6,22.8C358.4,125.5,358.1,125.8,357.7,125.8z"/>
			</g>
			<g>
				<path class="st17" d="M284.8,210.4c-0.4,0-0.7-0.3-0.8-0.6c-1-5.6,1.1-12.1,5.5-17.7c3.2-4,7.2-7.3,11.1-10.5
					c0.9-0.7,1.7-1.4,2.5-2.1c4.6-3.8,9.1-8.1,11.7-13.6c2.4-5.1,3.1-10.8,3.7-16.3c0.7-5.7,1.4-11.7,3.9-17
					c8-16.8,21.6-14.3,28.9-13c0.9,0.2,1.8,0.3,2.5,0.4c0.4,0.1,0.7,0.4,0.7,0.9c-0.1,0.4-0.4,0.7-0.9,0.7c-0.7-0.1-1.6-0.2-2.6-0.4
					c-7.4-1.4-19.7-3.6-27.3,12.1c-2.4,5.1-3.1,10.9-3.8,16.5c-0.7,5.7-1.4,11.5-3.9,16.8c-2.7,5.8-7.4,10.2-12.1,14.2
					c-0.8,0.7-1.7,1.4-2.6,2.1c-3.8,3.1-7.8,6.4-10.8,10.3c-4.2,5.3-6.1,11.3-5.2,16.5c0.1,0.4-0.2,0.8-0.6,0.9
					C284.9,210.4,284.8,210.4,284.8,210.4z"/>
			</g>
			<g>
				<path class="st17" d="M308.8,160.6c-0.1,0-0.1,0-0.2,0c-0.3-0.1-0.4-0.4-0.3-0.7c1.2-3.1,1.2-6.6,1.2-10c0-1.2,0-2.5,0-3.7
					c0.4-8.5,2.7-20.3,11.6-28.3c7.8-7.1,24.6-6.5,33.3-1.3c0.2,0.1,0.3,0.5,0.2,0.7c-0.1,0.2-0.5,0.3-0.7,0.2
					c-8.4-5-24.6-5.6-32.1,1.2c-8.7,7.9-10.9,19.4-11.3,27.6c-0.1,1.2,0,2.5,0,3.7c0,3.5,0,7-1.2,10.4
					C309.2,160.5,309.1,160.6,308.8,160.6z"/>
			</g>
			<g>
				<path class="st17" d="M282.6,204.9c-0.3,0-0.6-0.2-0.7-0.5c-3-8.6-0.4-19,6.3-25.3c3.3-3.1,7.5-5.1,11.5-7.1c1-0.5,2-1,2.9-1.5
					c4.3-2.2,9.5-5.4,12-10.4c0.2-0.4,0.7-0.5,1-0.3c0.4,0.2,0.5,0.7,0.3,1c-2.7,5.4-8.2,8.7-12.7,11.1c-1,0.5-2,1-2.9,1.5
					c-3.9,1.9-7.9,3.9-11.1,6.9c-6.3,5.8-8.7,15.5-5.9,23.6c0.1,0.4-0.1,0.8-0.5,1C282.8,204.9,282.7,204.9,282.6,204.9z"/>
			</g>
			<g>
				<path class="st17" d="M391.8,174c-0.1,0-0.2,0-0.2,0c-0.4-0.1-0.6-0.6-0.5-1c4.6-14.5,2.9-29.7-4.5-39.6
					c-5.8-7.8-14.6-11.8-25.5-11.5c-0.4,0-0.8-0.3-0.8-0.8c0-0.4,0.3-0.8,0.8-0.8c11.4-0.2,20.7,4,26.8,12.1c7.7,10.3,9.5,26,4.7,41
					C392.5,173.8,392.1,174,391.8,174z"/>
			</g>
			<g>
				<path class="st8" d="M375.5,132.9c-8.6-8.1-21-10.7-32.3-7.3c-10.1,3.1-20.8,9.9-23.4,23.6c-1.3,6.2-0.8,14.1-5.7,19.9
					c-1.3,7.3-1.5,15.1-1,22.4c0.6,9.1,4.3,17.7,10.7,24.2c5.6,5.7,13.3,11,22.5,13.4c4.3,1.1,8.9,1,13.1-0.5
					c11.1-4,19.1-13.9,21.7-17.7c3.9-5.6,6-11.5,6.5-16.1c1.1-9.1-0.8-15.7-0.3-25.4c0.6-10.3-0.2-16.2-3.3-23.6
					C382.2,141.5,379.9,137.1,375.5,132.9z"/>
			</g>
			<g>
				<path class="st18" d="M365.7,199c0.5-0.8,0-1.8-1-1.9l-21.2-0.4c-0.4,0-0.9,0-1.2,0.5c-0.2,0.4-0.1,0.9,0.2,1.2
					c2.3,3,5.6,5.3,9.3,5.8C359.7,205.5,364.7,200.4,365.7,199z"/>
			</g>
			<g>
				<path class="st15" d="M360.6,171.5c0.6,3.8,3.7,7.5,3.1,11.7c-0.4,4.4-4.3,8.1-8.7,8.3c-0.4,0-0.8-0.3-0.8-0.7
					c0-0.4,0.3-0.8,0.7-0.8c1.8-0.4,3.4-1.3,4.5-2.5c2.6-2.8,2.7-6.1,1.3-9.7c-0.7-1.9-1.5-3.9-1.6-6c-0.1-0.5,0.3-0.9,0.7-0.9
					C360.2,170.8,360.6,171.1,360.6,171.5L360.6,171.5z"/>
			</g>
			<g>
				<path class="st15" d="M349,188.3c0.7-0.8,1.9-1.1,3-0.9c0.7,0.2,0.8,1.2,0.1,1.5c-0.8,0.4-1.5,0.6-2.4,0.7
					C348.9,189.7,348.5,188.8,349,188.3L349,188.3z"/>
			</g>
			<g>
				<path class="st15" d="M362.2,187.7c1-0.1,1.9,0.6,2.3,1.5c0.2,0.7-0.5,1.3-1.1,1c-0.7-0.2-1.2-0.6-1.7-1.2
					C361.2,188.6,361.6,187.8,362.2,187.7L362.2,187.7z"/>
			</g>
			<g>
				<path class="st19" d="M387.5,179.2c-8.8,1.6-16.8,19.3-5,15.7c2.1-0.6,4.1-1.2,5.4-3C388.1,187.3,387.7,183.4,387.5,179.2z"/>
			</g>
			<g>
				<path class="st19" d="M335.3,184.6c-3.3-7.8-17.1-14.1-16-0.5C320,193.2,342.6,201.9,335.3,184.6z"/>
			</g>
			<g>
				<g>
					<path class="st20" d="M370.1,170.5c0.3-2.3,1.6-4,3-3.8c1.4,0.2,2.3,2.1,2,4.4c-0.3,2.3-1.6,4-3,3.8
						C370.8,174.8,369.9,172.8,370.1,170.5z"/>
				</g>
				<g>
					<path class="st20" d="M369.1,168.8c-0.3,0-0.5-0.1-0.7-0.4c-0.2-0.4-0.1-0.8,0.2-1.1c3.2-2,6.4-2.2,9-0.5
						c0.4,0.2,0.5,0.7,0.2,1.1c-0.2,0.4-0.7,0.5-1.1,0.2c-2.1-1.3-4.7-1.1-7.4,0.6C369.4,168.7,369.2,168.8,369.1,168.8z"/>
				</g>
			</g>
			<g>
				<path class="st20" d="M339.6,170.2c-0.1-2.4-1.2-4.3-2.6-4.3c-1.4,0-2.4,2-2.4,4.4c0.1,2.4,1.2,4.3,2.6,4.3
					C338.6,174.6,339.6,172.6,339.6,170.2z"/>
			</g>
			<g>
				<path class="st20" d="M334.1,168.4c-0.2,0-0.4-0.1-0.6-0.2c-0.3-0.3-0.3-0.8,0-1.1c2.3-2.1,5.8-2.7,9.1-1.4
					c0.4,0.2,0.6,0.6,0.4,1c-0.2,0.4-0.6,0.6-1,0.4c-2.7-1.1-5.6-0.7-7.4,1.1C334.5,168.3,334.3,168.4,334.1,168.4z"/>
			</g>
			<g>
				<path class="st1" d="M330.4,160c-0.5,0-0.9-0.3-1.2-0.7c-0.3-0.6,0-1.4,0.6-1.7c4.5-2.2,11.3-4.3,17.9-2.1c0.7,0.2,1,1,0.8,1.6
					c-0.2,0.7-1,1-1.6,0.8c-5.8-1.9-11.9,0-16,2C330.8,160,330.6,160,330.4,160z"/>
			</g>
			<g>
				<path class="st1" d="M382.9,161.6c-0.2,0-0.5-0.1-0.7-0.2c-4.7-3.2-9.1-3-12.7-2.3c-0.7,0.1-1.4-0.3-1.5-1
					c-0.1-0.7,0.3-1.4,1-1.5c4.2-0.7,9.1-1,14.6,2.7c0.6,0.4,0.7,1.2,0.3,1.8C383.7,161.4,383.3,161.6,382.9,161.6z"/>
			</g>
			<g>
				<path class="st11" d="M320.5,397.1c-0.5,0-1-0.4-1-0.9c-3-23.7-11.4-40.2-19.6-56.3c-7.8-15.3-15.2-29.8-15.8-48.3
					c0,0,0,0,0-0.1c0.1-3,7.2-5,12.1-6l-11.9-7.5c-0.4-0.2-0.5-0.7-0.5-1.1c2.3-11.6,9-23.4,15.3-33.5c0.3-0.5,0.9-0.6,1.4-0.3
					c0.5,0.3,0.6,0.9,0.3,1.4c-6,9.7-12.5,21.1-14.9,32.1l13.5,8.5c0.4,0.2,0.5,0.7,0.5,1.1c-0.1,0.4-0.4,0.7-0.8,0.8
					c-7.3,1.2-12.9,3.4-13,4.5c0.6,18,7.9,32.3,15.6,47.4c7.9,15.4,16.8,32.9,19.8,56.9c0.1,0.6-0.3,1.1-0.9,1.2
					C320.6,397.1,320.5,397.1,320.5,397.1z"/>
			</g>
			<g>
				<path class="st21" d="M313.8,415.6c-0.3,2.9-2.7,5.1-5.4,4.8c-2.7-0.3-4.6-2.9-4.3-5.8c0.3-2.9,2.7-5.1,5.4-4.8
					C312.2,410.1,314.2,412.7,313.8,415.6z"/>
			</g>
			<g>
				<path class="st21" d="M310.6,453.6c-0.3,2.9-2.7,5.1-5.4,4.8c-2.7-0.3-4.6-2.9-4.3-5.8c0.3-2.9,2.7-5.1,5.4-4.8
					C309,448,310.9,450.6,310.6,453.6z"/>
			</g>
			<path class="st22" d="M387.6,164.8c-1-1-2.4-1.6-3.8-1.6l-16.2-0.2c-1.7,0-3.3,0.6-4.5,1.8c-0.8,0.8-1.4,1.8-1.7,2.9
				c-2.8-1.2-5.8-1.3-8.9-0.1c-0.2-1.1-0.8-2.2-1.6-3.1c-1.2-1.2-2.8-1.9-4.4-1.9l-17.1-0.3c0,0-0.1,0-0.1,0c-1.9,0-3.6,1-4.6,2.6
				l-8.5-0.2c0,0,0,0,0,0c-0.6,0-1,0.4-1,1c0,0.6,0.4,1,1,1l7.8,0.1c0,0.2-0.1,0.5-0.1,0.7l-0.1,3.5c0,2.1,0.8,4.1,2.2,5.6
				c1.5,1.5,3.4,2.3,5.5,2.4l13,0.2c0,0,0.1,0,0.1,0c2.1,0,4-0.8,5.5-2.2c1.5-1.5,2.4-3.5,2.4-5.6l0-1.8c3.1-1.4,6-1.3,8.6,0.1
				l0,1.8c0,2.1,0.8,4.1,2.2,5.6c1.5,1.5,3.5,2.4,5.6,2.4l12.2,0.2c0,0,0.1,0,0.1,0c2,0,4-0.8,5.5-2.2c1.5-1.5,2.3-3.4,2.4-5.5
				l0.1-3.5C389.1,167.2,388.6,165.8,387.6,164.8z M348.7,175.6c-1.1,1.1-2.6,1.7-4.2,1.7l-13-0.2c-1.5,0-3-0.6-4.1-1.8
				c-1.1-1.1-1.7-2.6-1.6-4.1l0.1-3.5c0-1.8,1.5-3.3,3.3-3.3c0,0,0,0,0.1,0l17.1,0.3c1.1,0,2.2,0.5,3,1.3c0.8,0.8,1.2,1.9,1.2,3
				l0,2.5C350.4,173,349.8,174.5,348.7,175.6z M387,172.1c0,1.5-0.6,3-1.8,4.1c-1.1,1.1-2.6,1.7-4.1,1.6l-12.2-0.2c0,0,0,0,0,0
				c-1.6,0-3-0.7-4.1-1.8c-1.1-1.1-1.7-2.6-1.7-4.2l0-2.5c0-1.1,0.5-2.2,1.3-3c0.8-0.8,1.9-1.2,3-1.2c0,0,0,0,0.1,0l16.2,0.2
				c0.9,0,1.7,0.4,2.4,1c0.6,0.6,1,1.5,0.9,2.4L387,172.1z"/>
			<g>
				<path class="st8" d="M236.9,568.5c0,0-2.9-24.2-3.4-28.4c-0.6-4.5-6.8-13.8-10.7-20.3l0.6,0.1l11.5-81.4l-32.1-17
					c-6.6,24.4-2.4,76.5-1,95.7c-0.1,0.3-1.2,37.2-0.9,38.2c1.1,4.2,2.4,14.3,3.3,16.2c5.5,11.4,19.5,18.6,22.6,22.3
					c3,2.7,5.5,0.7,5.5-1.2c-0.2-8.5-2.4-10.9-5.5-20.3c-2-14.9,0.5-23.3,0.5-23.3s-0.1,12,1.4,15.5
					C231.8,572.8,237.2,569.8,236.9,568.5z"/>
				<g>
					<path class="st15" d="M224.4,590.6c-0.3,0-0.5-0.1-0.7-0.4c-1.5-2.7-2.3-4.8-3.5-7.6c-0.5-1.2-1-2.6-1.7-4.2
						c-2-4.7-3.6-20.3-3.7-21c0-0.4,0.3-0.8,0.7-0.8c0.4,0,0.8,0.3,0.8,0.7c0,0.2,1.7,16,3.6,20.5c0.7,1.7,1.2,3,1.7,4.3
						c1.1,2.8,1.9,4.9,3.4,7.5c0.2,0.4,0.1,0.8-0.3,1.1C224.7,590.6,224.6,590.6,224.4,590.6z"/>
				</g>
				<g>
					<path class="st15" d="M232.2,570.8c-0.1,0-0.2,0-0.3-0.1c-2.7-1.3-4.6-3.4-5.1-9.4c-0.2-2.5-0.8-9.1-0.9-10.3
						c-0.1-0.1-0.1-0.3-0.1-0.5c0.1-0.4,0.4-0.7,0.8-0.7c0.7,0,0.8,0.1,1,3c0.2,1.7,0.4,4.3,0.7,8.3c0.5,5.8,2.4,7.2,4.2,8.1
						c0.4,0.2,0.5,0.7,0.3,1C232.8,570.6,232.5,570.8,232.2,570.8z"/>
				</g>
				<g>
					<path class="st15" d="M217.5,586.7c-0.2,0-0.4-0.1-0.6-0.2c-3.3-3.5-5.5-5.9-6.4-8.6c-2.3-7.2-3.7-17.5-3.7-17.6
						c-0.1-0.4,0.2-0.8,0.7-0.9c0.4-0.1,0.8,0.2,0.9,0.7c0,0.1,1.4,10.3,3.7,17.3c0.8,2.4,3,4.8,6,8c0.3,0.3,0.3,0.8,0,1.1
						C217.8,586.6,217.7,586.7,217.5,586.7z"/>
				</g>
			</g>
			<g>
				<g>
					<path class="st23" d="M201.2,522.9c-0.1-1.3-0.4-3-0.8-6.5c-0.1-0.4,0.3-0.8,0.7-0.8c8.2,0.5,16.1,0.2,23.3-1.2
						c0.5-0.1,0.9,0.3,0.8,0.7c-0.1,1.5-0.2,4.1-0.1,6.2c0,0.3-0.2,0.7-0.5,0.7c-7.1,1.9-14.8,2.2-22.8,1.5
						C201.6,523.5,201.3,523.2,201.2,522.9z"/>
				</g>
				<g>
					<ellipse class="st23" cx="207.2" cy="519.7" rx="5.2" ry="5.6"/>
				</g>
				<g>
					<ellipse class="st18" cx="207.2" cy="519.7" rx="3.9" ry="4.1"/>
				</g>
			</g>
			<g>
				<path class="st9" d="M254.2,259.1c-10.5,1.4-18.8,10.4-24.2,19.5c-5.4,9.2-18.1,71.5-25.3,107.4c-5.8,32.1-7.8,73.6-7.1,106.2
					c0.9,1.4,25.9,4.4,34.4,0.2c6.9-23.7,11.5-50.3,17.9-73.3c5.9-29.4,14.1-56.9,18-86.7L254.2,259.1z"/>
			</g>
			<g>
				<path class="st11" d="M263.8,364.1c0,0-0.1,0-0.1,0c-0.6-0.1-1-0.6-0.9-1.1c1.6-16.1-1-39.5-3.4-56.3c-2.7-18.3-5.8-32.9-5.8-33
					c-0.1-0.6,0.2-1.1,0.8-1.2c0.6-0.1,1.1,0.2,1.2,0.8c0,0.1,3.1,14.8,5.8,33.2c2.5,16.9,5.1,40.6,3.4,56.9
					C264.8,363.7,264.4,364.1,263.8,364.1z"/>
			</g>
			<g>
				<path class="st11" d="M232,493.5c-0.1,0-0.2,0-0.2,0c-0.6-0.1-0.9-0.7-0.8-1.2l13.3-55.5c0.1-0.6,0.7-0.9,1.2-0.8
					c0.6,0.1,0.9,0.7,0.8,1.2L233,492.7C232.9,493.1,232.5,493.5,232,493.5z"/>
			</g>
			<g>
				<path class="st11" d="M227.8,406.4c-0.3,0-0.6-0.2-0.7-0.4c-0.2-0.4,0-0.8,0.4-1l21.4-10c0.4-0.2,0.8,0,1,0.4
					c0.2,0.4,0,0.8-0.4,1l-21.4,10C228,406.4,227.9,406.4,227.8,406.4z"/>
			</g>
		</g>
	</g>
</switch>

</svg>
