<?xml version="1.0" encoding="utf-8"?>
<!-- Generator: Adobe Illustrator 27.1.1, SVG Export Plug-In . SVG Version: 6.00 Build 0)  -->










<svg version="1.1" id="Layer_1" xmlns="http://www.w3.org/2000/svg" xmlns:xlink="http://www.w3.org/1999/xlink" x="0px" y="0px" viewBox="0 0 700 700" style="enable-background:new 0 0 700 700;" xml:space="preserve">
<style type="text/css">
	.st0{fill:#D49C72;}
	.st1{fill:#AA95AD;}
	.st2{fill:#E3AE90;}
	.st3{fill:#3A3E63;}
	.st4{fill:#43476E;}
	.st5{fill:#FEBDB1;}
	.st6{fill:#FFFFFF;}
	.st7{fill:#9F86A3;}
	.st8{fill:#A48AA8;}
	.st9{fill:#916D90;}
	.st10{fill:#F7AEA1;}
	.st11{fill:#D97F7A;}
	.st12{fill:#2A2636;}
	.st13{fill:#FEAA9B;}
	.st14{fill:#2F3340;}
	.st15{fill:#E6636F;}
	.st16{fill:#B14757;}
</style>
<switch>
	
	<g>
		<g>
			<path class="st0" d="M378.9,114.5c-5.4-2.5-14.8-9.1-39.2-14c-19.2-3.9-54.6,14.8-44.1,58.1c2,8.1,4.8,15,8.1,20.8
				c-21.8,9.2-18.8,11.6-24.4,35.3c-2.4,6.4-11,18.2-14.8,23.9c-6.9,10.7-6.4,26.2-3.7,38.6c0,0,48.3-2.5,46.5-2.6
				c6.5-15.8,9.4-46.5,6.8-63.5c-1.2-6.1-4.6-14.9-3.3-21.3c9.4,11.5,19,15.9,19,15.9l1.2,2.6c0,0,55.4-4.8,72.2-59.4
				C407.8,134.4,393.2,121.1,378.9,114.5z"/>
			<g>
				<g>
					<path class="st1" d="M419.1,444.9c0,0-13.6-0.5-13.7,0.9c0,0.9,7.4,19,7.6,19.6c1,3,12.8,2.2,12.8-1.8
						C425.9,459.7,419.1,444.9,419.1,444.9z"/>
				</g>
			</g>
			<g>
				<g>
					<g>
						<path class="st2" d="M287.6,260.5c-0.3,0-0.6-0.2-0.7-0.5c-0.7-1.6-1.5-3-2.2-4.4c-3.8-7-6.6-12.1,5.3-25.6
							c3.3-3.8,3.5-12.1,3.7-19.3c0.1-3.9,0.2-7.6,0.8-10.2c2.7-12,13-17.1,13.4-17.3c0.4-0.2,0.9,0,1.1,0.4c0.2,0.4,0,0.9-0.4,1.1
							c-0.1,0-10,4.9-12.6,16.2c-0.6,2.5-0.7,6.1-0.8,9.9c-0.2,7.6-0.4,16.1-4.1,20.3c-11.1,12.7-8.7,17.1-5.1,23.8
							c0.8,1.4,1.5,2.8,2.3,4.5c0.2,0.4,0,0.9-0.4,1.1C287.8,260.5,287.7,260.5,287.6,260.5z"/>
					</g>
				</g>
				<g>
					<g>
						<path class="st2" d="M265.8,256.8c-0.3,0-0.7-0.2-0.8-0.6c-3.1-10.1,8.1-23.3,14.7-31.2c1.2-1.5,2.3-2.7,3.1-3.7
							c3.3-4.2,4-10.9,4.6-16.8c0.3-2.8,0.6-5.4,1.1-7.4c1.7-6.3,5.1-10.6,10.1-12.9c1.8-0.8,4.6-1.8,8.2-1.7l0.1,0
							c0.4,0,0.8,0.4,0.8,0.8s-0.4,0.8-0.8,0.8l-0.1,0c-3.9-0.1-13.3,1.1-16.8,13.5c-0.5,1.8-0.8,4.4-1.1,7.1
							c-0.6,5.8-1.4,13.1-5,17.6c-0.8,1-1.9,2.3-3.1,3.8c-6.5,7.6-17.3,20.5-14.4,29.7c0.1,0.4-0.1,0.9-0.5,1
							C265.9,256.7,265.9,256.8,265.8,256.8z"/>
					</g>
				</g>
			</g>
			<g>
				<g>
					<path class="st3" d="M357.6,595.2c0.3-3.7,0.7-7.3,1-11c0.7,3.7,1.3,7.3,1.8,11c23.5-2.7,78.7,8,91.5,0
						c-9.7-40.2-21.2-72.9-32.6-117.3l-11.9-62.4L283.7,419c-9.8,22.8-23.4,58.2-27.5,85c-2.1,30.4-3,60.8-2.5,91.2
						C279.1,600.6,317.2,602.6,357.6,595.2z"/>
				</g>
			</g>
			<g>
				<g>
					<g>
						<path class="st4" d="M316.7,418l-0.3,0l-1.3,0v181.7c0.5,0,1.1,0,1.6-0.1V418z"/>
					</g>
				</g>
				<g>
					<g>
						<path class="st4" d="M283.1,420.4c-0.3,0.6-0.5,1.2-0.8,1.8c0,0,0,0.1,0,0.1c-0.3,0.6-0.5,1.2-0.8,1.9v175
							c0.5,0,1.1,0.1,1.6,0.1V420.4z"/>
					</g>
				</g>
				<g>
					<g>
						<path class="st4" d="M294.3,599.8V418.7l-0.6,0l-1,0v181C293.2,599.8,293.8,599.8,294.3,599.8z"/>
					</g>
				</g>
				<g>
					<g>
						<path class="st4" d="M271.9,448.5c-0.5,1.4-1.1,2.9-1.6,4.4v145.1c0.5,0.1,1.1,0.1,1.6,0.2V448.5z"/>
					</g>
				</g>
				<g>
					<g>
						<path class="st4" d="M361.4,416.8l-1.6,0v174.4c0,0.1,0,0.2,0,0.3c0.1,0.9,0.3,1.7,0.4,2.6c0,0.3,0.1,0.5,0.1,0.8
							c0,0.1,0,0.2,0,0.3c0.3,0,0.7-0.1,1-0.1V416.8z"/>
					</g>
				</g>
				<g>
					<g>
						<path class="st4" d="M348.6,596.7c0.5-0.1,1.1-0.2,1.6-0.2V417.1l-1.6,0V596.7z"/>
					</g>
				</g>
				<g>
					<g>
						<path class="st4" d="M337.5,598.1c0.5-0.1,1.1-0.1,1.6-0.2V417.4l-1.6,0V598.1z"/>
					</g>
				</g>
				<g>
					<g>
						<path class="st4" d="M260.7,596.5V483.1c-0.3,1-0.6,2.1-0.8,3.1c0,0,0,0,0,0c-0.3,1-0.5,2.1-0.8,3.1v107
							C259.7,596.3,260.2,596.4,260.7,596.5z"/>
					</g>
				</g>
				<g>
					<g>
						<path class="st4" d="M303.9,600c0.5,0,1.1,0,1.6,0V418.4l-0.9,0l-0.7,0V600z"/>
					</g>
				</g>
				<g>
					<g>
						<path class="st4" d="M427.8,598.1v-89c-0.5-1.6-0.9-3.3-1.4-4.9c-0.1-0.2-0.1-0.5-0.2-0.7v94.6
							C426.7,598.1,427.2,598.1,427.8,598.1z"/>
					</g>
				</g>
				<g>
					<g>
						<path class="st4" d="M450.1,588.2c0-0.1-0.1-0.3-0.1-0.4c-0.4-1.7-0.8-3.3-1.3-4.9c-0.1-0.3-0.1-0.6-0.2-0.8v14.6
							c0.6-0.2,1.1-0.4,1.6-0.6V588.2z"/>
					</g>
				</g>
				<g>
					<g>
						<path class="st4" d="M437.4,598.1c0.5,0,1.1,0,1.6-0.1v-50.5c-0.5-1.8-1.1-3.6-1.6-5.4V598.1z"/>
					</g>
				</g>
				<g>
					<g>
						<path class="st4" d="M415,597.5c0.5,0,1.1,0.1,1.6,0.1V463.5l-1.6-8.3V597.5z"/>
					</g>
				</g>
				<g>
					<g>
						<path class="st4" d="M406.2,415.5l-0.7,0l-0.9,0v181.2c0.5,0,1.1,0.1,1.6,0.1V415.5z"/>
					</g>
				</g>
				<g>
					<g>
						<path class="st4" d="M383.8,416.1l-1.6,0v179c0.5,0,1.1,0.1,1.6,0.1V416.1z"/>
					</g>
				</g>
				<g>
					<g>
						<path class="st4" d="M371,594.8c0.5,0,1.1,0,1.6,0V416.5l-1.6,0V594.8z"/>
					</g>
				</g>
				<g>
					<g>
						<path class="st4" d="M395,415.8l-1.6,0v180c0.5,0,1.1,0.1,1.6,0.1V415.8z"/>
					</g>
				</g>
				<g>
					<g>
						<path class="st4" d="M327.9,417.7l-1.6,0v181.4c0.5,0,1.1-0.1,1.6-0.1V417.7z"/>
					</g>
				</g>
			</g>
			<g>
				<g>
					<path class="st5" d="M259.8,257.8c26-13.7,54.2-25.9,82.7-33.4c15.3,6.7,37.2,20.2,60.5,35.2c0,0,17.8,44.4,18.3,58.3
						c1,25.6-13.2,101.4-13.2,101.4l-124.5,1.9L259.8,257.8z"/>
				</g>
			</g>
			<g>
				<g>
					<path class="st6" d="M401,259.9c-2.9,15.6-18.5,31.5-39.8,33.7c-22.5,2.3-51.3-6.5-87.2-36.7l9.7,164.5l124.5-1.9
						c0,0,14.2-75.8,13.2-101.4C421.2,313.5,403.5,268.1,401,259.9z"/>
				</g>
			</g>
			<g>
				<g>
					<path class="st1" d="M350.2,221.8c24.5,22.8,34.4,52.2,35.9,82.7c1.5,30.5-4.9,70.3-17.4,98.2c2.8,49,8.1,97.9,16,146.3
						c20.4,3.6,41.5,2.9,60.1-2.5c-4.1-17.7-8.9-48.2-15.6-67.5c-6.4-18.6-10.3-33.9-14.8-50c-2.8-10.1-3.7-27.6-1.4-37.8
						c6.6-29.3,9-57.4,8.5-74.9c-0.7-20.6-10.3-40.7-18.4-59.7L350.2,221.8z"/>
				</g>
			</g>
			<g>
				<g>
					<path class="st1" d="M325.8,216.1c-2.9-1.3-8.4,5.7-12.2,9c-21.3,18.2-44.7,20.9-61.2,36.5c12.9,51,21.6,103,26.5,154.6
						c-18.2,43.5-30.9,89.3-36.1,133c36.5,4.2,73.5,4.4,112.2,0.4c16.6-45.4,31.2-94.8,26.5-154c-15.7-29-35.9-55.9-48.2-86.5
						c-5.5-13.7-10.4-27.7-12.7-42.3C318.3,252.1,319.8,229,325.8,216.1z"/>
				</g>
			</g>
			<g>
				<g>
					<path class="st7" d="M373.2,417.2l-32.2-23.3l-64.9-100.7c4.1,24.6,0.5,98.3,2.8,122.9c-3.9,9.2-7.5,18.6-10.9,28
						c37.1,6,73.2,3.9,107.2-14.2C376.3,418.7,373.2,417.2,373.2,417.2z"/>
				</g>
			</g>
			<g>
				<g>
					<g>
						<path class="st8" d="M329.8,300.1c-0.5-1.5-1.1-2.9-1.6-4.4v255.9c0.5,0,1.1-0.1,1.6-0.1V300.1z"/>
					</g>
				</g>
				<g>
					<g>
						<path class="st8" d="M317,221.8v330.3c0.5,0,1.1,0,1.6,0V220.2C318.1,220.7,317.5,221.2,317,221.8z"/>
					</g>
				</g>
				<g>
					<g>
						<path class="st8" d="M373,251.9c0.5,1.1,1.1,2.2,1.6,3.2v-17.4l-1.6-1V251.9z"/>
					</g>
				</g>
				<g>
					<g>
						<path class="st8" d="M339.4,550.9c0.5,0,1.1-0.1,1.6-0.1V325.9c-0.5-1.1-1.1-2.1-1.6-3.2V550.9z"/>
					</g>
				</g>
				<g>
					<g>
						<path class="st8" d="M384.2,286.3c0.7,4.1,1.2,8.3,1.6,12.4v-53.6l-1.6-1V286.3z"/>
					</g>
				</g>
				<g>
					<g>
						<path class="st8" d="M352.2,346.2c-0.5-0.9-1.1-1.8-1.6-2.7v206.4c0.5-0.1,1.1-0.1,1.6-0.2V346.2z"/>
					</g>
				</g>
				<g>
					<g>
						<path class="st8" d="M285,242.5c-0.5,0.2-1.1,0.5-1.6,0.7v308.9c0.5,0,1.1,0,1.6,0V242.5z"/>
					</g>
				</g>
				<g>
					<g>
						<path class="st8" d="M249.9,549.8c0.5,0.1,1.1,0.1,1.6,0.2v-49.5c-0.5,2.3-1.1,4.7-1.6,7V549.8z"/>
					</g>
				</g>
				<g>
					<g>
						<path class="st8" d="M262.7,460.1c-0.5,1.7-1.1,3.3-1.6,5v85.7c0.5,0,1.1,0.1,1.6,0.1V460.1z"/>
					</g>
				</g>
				<g>
					<g>
						<path class="st8" d="M272.3,360.9c0.5,3.7,1.1,7.4,1.6,11.1V247.7c-0.5,0.3-1.1,0.5-1.6,0.8V360.9z"/>
					</g>
				</g>
				<g>
					<g>
						<path class="st8" d="M261.1,298.6c0.5,2.5,1.1,5.1,1.6,7.6v-52.5c-0.5,0.3-1.1,0.7-1.6,1V298.6z"/>
					</g>
				</g>
				<g>
					<g>
						<path class="st8" d="M273.9,428.7c-0.5,1.4-1.1,2.7-1.6,4.1v118.8c0.5,0,1.1,0.1,1.6,0.1V428.7z"/>
					</g>
				</g>
				<g>
					<g>
						<path class="st8" d="M296.2,236.8c-0.5,0.3-1.1,0.6-1.6,0.9v314.6c0.5,0,1.1,0,1.6,0V236.8z"/>
					</g>
				</g>
				<g>
					<g>
						<path class="st8" d="M441.7,531.4c-0.5-2.6-1-5.2-1.6-7.9v24.2c0.5-0.1,1.1-0.3,1.6-0.4V531.4z"/>
					</g>
				</g>
				<g>
					<g>
						<path class="st8" d="M430.5,482.7c-0.4-1.3-0.8-2.5-1.2-3.7c-0.1-0.4-0.2-0.7-0.4-1.1v72c0.5-0.1,1.1-0.1,1.6-0.2V482.7z"/>
					</g>
				</g>
				<g>
					<g>
						<path class="st8" d="M419.3,446.5c-0.5-1.9-1.1-3.8-1.6-5.7V551c0.5,0,1.1,0,1.6-0.1V446.5z"/>
					</g>
				</g>
				<g>
					<g>
						<path class="st8" d="M305.8,552.3c0.5,0,1.1,0,1.6,0V229.9c-0.5,0.4-1.1,0.7-1.6,1.1V552.3z"/>
					</g>
				</g>
				<g>
					<g>
						<path class="st8" d="M406.5,551.1c0.5,0,1.1,0,1.6,0V268.1c-0.5-1.2-1.1-2.5-1.6-3.7V551.1z"/>
					</g>
				</g>
				<g>
					<g>
						<path class="st8" d="M419.3,299.9c-0.5-2-1-4.1-1.6-6.1v72.7c0.6-3.9,1.1-7.7,1.6-11.4V299.9z"/>
					</g>
				</g>
				<g>
					<g>
						<path class="st8" d="M396.9,252.5l-1.6-1v299c0.5,0.1,1.1,0.1,1.6,0.2V252.5z"/>
					</g>
				</g>
				<g>
					<g>
						<path class="st8" d="M363.4,525.6V364.6c-0.5-0.9-1.1-1.7-1.6-2.6v168.3C362.3,528.7,362.8,527.2,363.4,525.6z"/>
					</g>
				</g>
				<g>
					<g>
						<path class="st8" d="M350.6,222.2c0.5,0.5,1.1,1,1.6,1.5v-0.6l-1.6-1V222.2z"/>
					</g>
				</g>
				<g>
					<g>
						<path class="st8" d="M361.8,234.4c0.5,0.7,1.1,1.4,1.6,2.1v-6l-1.6-1V234.4z"/>
					</g>
				</g>
				<g>
					<g>
						<path class="st8" d="M385.7,549.1V329.2c-0.4,5.1-0.9,10.3-1.6,15.4v200.5c0.2,1.3,0.4,2.5,0.6,3.8
							C385.1,549,385.4,549,385.7,549.1z"/>
					</g>
				</g>
				<g>
					<g>
						<path class="st8" d="M374.6,383.2c-0.5-0.9-1.1-1.8-1.6-2.7v111.9c0.5-2.2,1.1-4.5,1.6-6.7V383.2z"/>
					</g>
				</g>
			</g>
			<g>
				<g>
					<path class="st9" d="M377.5,389c-0.1,0-0.3,0-0.4-0.1c-0.4-0.2-0.5-0.7-0.3-1.1c22.6-41.6,27.6-88.3,28.1-92.9l-13.3-12.4
						c-0.3-0.3-0.3-0.7-0.1-1l6.2-8.8c-0.8-1.5-3.8-7.1-8.2-13.6c-4.7-7.1-12-16.8-20.1-23.1c-0.3-0.3-0.4-0.8-0.1-1.1
						c0.3-0.3,0.8-0.4,1.1-0.1c8.2,6.4,15.7,16.3,20.4,23.5c5.2,7.8,8.5,14.1,8.5,14.2c0.1,0.3,0.1,0.6-0.1,0.8l-6.1,8.6l13.1,12.2
						c0.2,0.2,0.3,0.4,0.2,0.6c0,0.5-4.4,50-28.3,94C378,388.8,377.7,389,377.5,389z"/>
				</g>
			</g>
			<g>
				<g>
					<path class="st9" d="M355,550.3c-0.3,0-0.5-0.1-0.7-0.4c-0.2-0.4-0.1-0.9,0.2-1.1c2.2-2,13.7-42.4,20.4-67.4
						c2.7-10.5,3.9-28.9,3.4-49.4c-0.6-19.9-2.5-32.9-4.1-35c-5.8-7.8-12.7-15.3-19.3-22.7c-7.3-8-14.9-16.3-21-25
						c-9.5-13.4-29-43.7-29.2-44c-0.2-0.3-0.2-0.6,0-0.9l10.8-14.7l-14.2-11c-0.2-0.2-0.3-0.4-0.3-0.7c0-0.4,2.5-35.5,14.6-54
						c0.2-0.4,0.7-0.5,1.1-0.2c0.4,0.2,0.5,0.7,0.2,1.1c-11.1,17-14,48.8-14.3,52.8l14.4,11.3c0.3,0.3,0.4,0.7,0.2,1.1l-10.9,14.9
						c2.5,3.9,20,31,28.9,43.5c6.1,8.6,13.6,16.8,20.9,24.8c6.7,7.3,13.6,14.9,19.4,22.8c2.4,3.3,4,20.9,4.4,35.9
						c0.3,9.9,0.5,34.5-3.4,49.8c0,0.2-4.5,16.7-9.2,33.2c-9.7,33.7-11.2,34.7-11.8,35.2C355.4,550.2,355.2,550.3,355,550.3z"/>
				</g>
			</g>
			<g>
				<g>
					<path class="st10" d="M323.3,182.8c0,15.6-1.1,30.9-2.3,51.2c16.5,14.2,39.3,18.7,42,6.4l-0.7-24.6L323.3,182.8z"/>
				</g>
			</g>
			<path class="st5" d="M423.7,376.1c-2.2-3.5-9.1-6.4-13-4c-7.1,6-13.1,11.7-19.9,17.2c-3.2,2.6-7.2,4-11.3,4.1
				c-11.6,0.3-23.5-0.4-34.9,0.5l-2,26.1c14.2-2,28.4-4,42.5-6c4.7,1,7.6,2.7,13.5,1.5c2.8-0.6,6.3-3,10.1-5.9
				c-0.1,0.2-0.1,0.3-0.2,0.5c1.3,0.4,7.1,3.5,11.4,0.9c5.8-3.4,9.5-2.3,12.6-8.3C435.6,395.5,425.2,378.3,423.7,376.1z"/>
			<g>
				<g>
					<path class="st11" d="M408.3,411.2c-0.2,0-0.5-0.1-0.6-0.3c-0.3-0.3-0.2-0.8,0.1-1.1l9.7-7.9c1.5-1.3,3.9-3.2,6.6-3.1
						c0.4,0,0.8,0.4,0.8,0.8c0,0.4-0.4,0.8-0.8,0.8c-1.9-0.1-3.7,1.2-5.5,2.7l-9.7,7.9C408.7,411.1,408.5,411.2,408.3,411.2z"/>
				</g>
			</g>
			<g>
				<g>
					<path class="st11" d="M423.8,406.5c-0.3,0-0.5-0.1-0.7-0.3l-3.2-4.7c-0.2-0.4-0.2-0.9,0.2-1.1c0.4-0.2,0.9-0.2,1.1,0.2l3.2,4.7
						c0.2,0.4,0.2,0.9-0.2,1.1C424.2,406.5,424,406.5,423.8,406.5z"/>
				</g>
			</g>
			<g>
				<g>
					<path class="st12" d="M360,584.7c-0.1,0-0.1,0-0.2,0c-0.6-0.1-1-0.6-0.9-1.2c1.3-7.9,3.1-20,4.8-31.7c1.8-12.3,3.7-25,5.1-33.3
						c0.1-0.6,0.6-1,1.2-0.9c0.6,0.1,1,0.6,0.9,1.2c-1.4,8.3-3.2,21-5.1,33.2c-1.7,11.7-3.5,23.8-4.8,31.7
						C360.9,584.4,360.5,584.7,360,584.7z"/>
				</g>
			</g>
			<g>
				<g>
					<path class="st1" d="M375.3,392c-18.9-0.4-36.5-2-55.1-2.7c-1.9-12.1-16.2-25.1-20.8-54.2c-3-18.8-5.7-44.4-12.9-62.1
						c-4.8-8-13.4-15.5-24.5-18.5c-16.4,6.9-21,18.2-20.1,34.4c1.4,26.4,9.2,54.7,14,80.9c2.4,12.8,4.8,25.8,10.1,37.7
						c5.3,11.9,17.3,20.6,29.1,26.1c28.8,0.9,52,0,79.8-7.6C377.3,414.6,378.5,403.2,375.3,392z"/>
				</g>
			</g>
			<g>
				<g>
					<g>
						<path class="st8" d="M317,433.9c0.5,0,1.1,0,1.6,0v-50.1c-0.5-1.1-1-2.3-1.6-3.5V433.9z"/>
					</g>
				</g>
				<g>
					<g>
						<path class="st8" d="M374.6,392c-0.5,0-1.1,0-1.6,0v34.6c0.5-0.1,1.1-0.3,1.6-0.4V392z"/>
					</g>
				</g>
				<g>
					<g>
						<path class="st8" d="M363.4,391.6c-0.5,0-1.1,0-1.6-0.1v37.6c0.5-0.1,1.1-0.2,1.6-0.3V391.6z"/>
					</g>
				</g>
				<g>
					<g>
						<path class="st8" d="M352.2,391.1c-0.5,0-1.1-0.1-1.6-0.1v40.3c0.5-0.1,1.1-0.2,1.6-0.2V391.1z"/>
					</g>
				</g>
				<g>
					<g>
						<path class="st8" d="M341,390.4c-0.5,0-1.1-0.1-1.6-0.1v42.4c0.5-0.1,1.1-0.1,1.6-0.2V390.4z"/>
					</g>
				</g>
				<g>
					<g>
						<path class="st8" d="M328.2,433.5c0.5,0,1.1-0.1,1.6-0.1v-43.7c-0.5,0-1.1-0.1-1.6-0.1V433.5z"/>
					</g>
				</g>
				<g>
					<g>
						<path class="st8" d="M283.5,427c0.5,0.4,1.1,0.7,1.6,1.1V270.7c-0.5-0.7-1-1.4-1.6-2.1V427z"/>
					</g>
				</g>
				<g>
					<g>
						<path class="st8" d="M261.1,393.4c0.5,1.8,1,3.5,1.6,5.2V254.7c-0.2-0.1-0.4-0.1-0.6-0.2c-0.3,0.1-0.7,0.3-1,0.4V393.4z"/>
					</g>
				</g>
				<g>
					<g>
						<path class="st8" d="M249.9,340.3c0.5,2.5,1.1,5,1.6,7.5V261c-0.6,0.5-1.1,1-1.6,1.5V340.3z"/>
					</g>
				</g>
				<g>
					<g>
						<path class="st8" d="M272.3,417.1c0.5,0.6,1,1.2,1.6,1.8v-159c-0.5-0.3-1-0.7-1.6-1V417.1z"/>
					</g>
				</g>
				<g>
					<g>
						<path class="st8" d="M294.6,433.4c0.2,0.1,0.4,0.2,0.6,0.3c0.3,0,0.7,0,1,0v-120c-0.5-3.2-1-6.4-1.6-9.6V433.4z"/>
					</g>
				</g>
				<g>
					<g>
						<path class="st8" d="M305.8,433.9c0.5,0,1.1,0,1.6,0v-72.3c-0.5-1.2-1.1-2.4-1.6-3.7V433.9z"/>
					</g>
				</g>
			</g>
			<g>
				<g>
					<path class="st5" d="M396.6,169.8c0.7-5.7,3.3-8.2,0.7-22.1c-2.6-13.6-23.2-21.6-23.2-21.6c-38.2,16.7-29.5,45.1-53.2,46.2
						c1.8,10.2,3.1-0.3,6.1,25.2c2.3,19.6,30.7,32.4,43,32.4c11.4,0,26.9-27.6,26.9-46.2C396.8,179.8,395.9,175.5,396.6,169.8z"/>
				</g>
			</g>
			<g>
				<g>
					<path class="st13" d="M342.1,179.2c-3.1,1.7-1.4,11.6,5.9,14.1c3.2,1.1,8.2,1.6,10.5-2.9C360.8,185.9,345.7,177.1,342.1,179.2z
						"/>
				</g>
			</g>
			<g>
				<g>
					<path class="st13" d="M388.8,190.4c0,0,0,0.1,0,0.1c1.6,3.6,7,2.8,7.5-1.1c0.3-1.9,0.4-3.8,0.4-5.6v0c0-1.6-1.8-2.5-3-1.5
						C390.5,184.7,387.8,188.1,388.8,190.4z"/>
				</g>
			</g>
			<g>
				<g>
					<path class="st14" d="M352.8,172.4c0-2.1,1.3-3.8,3-3.7c1.6,0.1,3,1.8,2.9,3.9c0,2.1-1.3,3.8-3,3.7
						C354.1,176.2,352.8,174.5,352.8,172.4L352.8,172.4z"/>
				</g>
			</g>
			<g>
				<g>
					<g>
						<path class="st14" d="M384.8,171.8c0.1-1.9,1.4-3.3,2.9-3.3c1.4,0.1,2.5,1.6,2.3,3.5c-0.1,1.9-1.4,3.3-2.9,3.3
							C385.7,175.2,384.6,173.7,384.8,171.8L384.8,171.8z"/>
					</g>
				</g>
				<g>
					<g>
						<g>
							<path class="st14" d="M382.5,171.1c0.1-0.1,1.7-2.7,4.2-3.6c2.1-0.7,3.7-0.1,5.3,1c0.8,0.7,0.9,1.1,0.7,1.5
								c-0.3,0.4-0.8,0.4-1.2,0.1c-1.7-1.2-2.8-1.5-4.3-1c-1.9,0.6-3.3,2.9-3.3,2.9c-0.2,0.2-0.4,0.4-0.7,0.4c-0.1,0-0.3,0-0.4-0.1
								C382.3,172,382.2,171.5,382.5,171.1z"/>
						</g>
					</g>
				</g>
			</g>
			<g>
				<g>
					<path class="st15" d="M377.9,199.3c-0.9-0.2-1.7,0.3-2.5,0.9c-0.6,0.5-1.5,0.4-2.1-0.1c-1-0.8-2.2-1.2-3.3-1.1
						c-1.5,0.2-8.1,1-8.1,1c0.7,2.5,4.7,9.2,10.4,9.1c2.9,0,7.1-2,7.1-5.9l1.1-0.8C380.7,200.7,379.1,199.5,377.9,199.3z"/>
				</g>
			</g>
			<g>
				<g>
					<g>
						<path class="st0" d="M344.5,161.9c-2.8-2.2,12.5-10.2,23.2-4.7c1.5,0.7-1,4-2.5,3.2c-5.7-2.9-14.8-0.7-18.9,1.4
							C345.7,162.1,345,162.3,344.5,161.9z"/>
					</g>
				</g>
			</g>
			<g>
				<g>
					<g>
						<path class="st0" d="M396,161.9c-3.1-1.7-7.5-2.2-11.5-1.3c-1.5,0.3-2.9-1.8-1.7-2.6c5.3-3.4,11.9-1.3,14.3,2.4
							C398,161.7,397.3,162.6,396,161.9z"/>
					</g>
				</g>
			</g>
			<g>
				<g>
					<path class="st14" d="M403.5,169.5c-0.1-2.7-1-4.9-2.8-6.4c-3.4-3-8.9-2.7-11.1-2.4c-4.7,0.6-8.2,2.3-10.4,5
						c-0.8,1-1.3,2.1-1.7,3.3c-2.1-1.3-4.8-0.8-6.6,0c-0.4-1-0.9-2-1.5-2.8c-2.3-3-6.6-4.9-12.3-5.5c-2.7-0.3-9.3-0.6-13.2,2.8
						c-1.6,1.4-2.5,3.3-2.7,5.5h-21.8v2.3h21.8c0.3,9.8,5.7,16.9,13.5,17.5c0.6,0,1.1,0.1,1.6,0.1c9.1,0,14.1-6.6,15.1-13.4
						c0.2-1.5,0.2-2.9,0-4.2c1.1-0.6,3.8-1.5,5.6,0.3c-0.1,1.2-0.1,2.5,0.1,3.9c0.5,3.8,2,7.3,4.4,9.7c2.4,2.4,5.4,3.7,8.9,3.7
						c0.5,0,0.9,0,1.4-0.1C398.9,188,403.8,180.1,403.5,169.5z M369.1,175c-0.9,6.2-5.6,12.1-14.3,11.4c-7-0.6-11.7-7.5-11.4-16.9
						c0.1-1.9,0.7-3.3,2-4.4c3.2-2.8,9.6-2.4,11.4-2.2c3.5,0.4,8.3,1.5,10.7,4.6C369,169.4,369.6,172,369.1,175z M391.5,186.4
						c-7.3,0.7-11.4-5.2-12.2-11.4c-0.4-3.4,0.2-6.1,1.7-8.1c2.2-2.8,6-3.8,8.8-4.1c0.5-0.1,1.3-0.1,2.3-0.1c2.2,0,5.1,0.4,7,2
						c1.3,1.1,2,2.7,2,4.8C401.5,178.9,397.5,185.9,391.5,186.4z"/>
				</g>
			</g>
			<g>
				<g>
					<path class="st11" d="M360.7,229c-0.1,0-0.1,0-0.2,0c-10-2-27.4-12.1-31.8-23.4c-0.2-0.4,0-0.9,0.5-1c0.4-0.2,0.9,0,1,0.5
						c4.2,10.6,21.2,20.5,30.6,22.4c0.4,0.1,0.7,0.5,0.6,0.9C361.4,228.7,361,229,360.7,229z"/>
				</g>
			</g>
			<g>
				<g>
					<path class="st2" d="M325.1,165.7c-0.3,0-0.6-0.2-0.7-0.4c-0.2-0.4-0.1-0.9,0.3-1.1c7.6-3.9,11.5-12.6,15.7-21.8
						c5.8-12.6,11.7-25.7,27.9-27.2c0.4,0,0.8,0.3,0.9,0.7c0,0.4-0.3,0.8-0.7,0.9c-15.3,1.4-21.1,14.1-26.6,26.3
						c-4.3,9.4-8.4,18.3-16.4,22.5C325.4,165.7,325.3,165.7,325.1,165.7z"/>
				</g>
			</g>
			<g>
				<g>
					<path class="st2" d="M326.4,157.5c-0.2,0-0.5-0.1-0.6-0.3c-0.3-0.4-0.2-0.8,0.2-1.1c4.4-3.2,6.3-9.6,8.4-17
						c3-10.4,6.4-22.1,18.2-29.3c0.4-0.2,0.9-0.1,1.1,0.3c0.2,0.4,0.1,0.9-0.3,1.1c-11.2,6.9-14.6,18.3-17.5,28.4
						c-2.2,7.6-4.1,14.2-9,17.8C326.7,157.5,326.6,157.5,326.4,157.5z"/>
				</g>
			</g>
			<g>
				<g>
					<path class="st16" d="M361.6,199.1c4.5,3.8,13.3,5.6,18.7,2.7c0.8-0.5,1.5,0.8,0.7,1.2c-5.1,1.6-10.6,1.4-15.7-0.3
						c-1.7-0.6-3.3-1.3-4.8-2.4c-0.4-0.3-0.5-0.8-0.2-1.2C360.6,198.8,361.2,198.8,361.6,199.1L361.6,199.1z"/>
				</g>
			</g>
			<g>
				<g>
					<path class="st11" d="M380.6,182.4c-1.3-2.1-2.3-4.4-2.7-6.8c-0.1-0.5-0.4-1-0.9-1.2c-0.1,0-0.1-0.1-0.2-0.1
						c0.4,2.7,1,5.5,2.2,8c1,1.9,2.2,3.7,2.9,5.7c0.3,0.8,0.4,1.5,0.1,2.2c-0.7,1.9-2.4,3.1-4.3,3.7c-1.1,0.4-2.2,0.5-3.4,0.5
						c-0.4,0-0.7,0.3-0.7,0.6c0,0.4,0.2,0.7,0.6,0.8c0.7,0.1,1.4,0.1,2.1,0c3.5-0.2,7.4-2.6,7.8-6.3c0-1.6-0.7-2.7-1.4-4
						C381.9,184.5,381.2,183.5,380.6,182.4z"/>
				</g>
			</g>
			<g>
				<g>
					<path class="st5" d="M330.9,175.2c0,0-6.6-17.2-15.3-13c-8.6,4.2-8.4,26.3,9.8,29.6C331,192.8,330.9,175.2,330.9,175.2z"/>
				</g>
			</g>
			<g>
				<g>
					<path class="st11" d="M326.6,187.3c-0.3,0-0.5-0.1-0.7-0.3c-2.7-3.8-1.3-6.1-0.3-7.7c0.4-0.6,0.7-1.1,0.6-1.5
						c-2.1-8.5-7.5-10.2-7.7-10.3c-0.4-0.1-0.7-0.6-0.5-1c0.1-0.4,0.6-0.7,1-0.5c0.3,0.1,6.5,2,8.8,11.4c0.2,1-0.3,1.9-0.8,2.7
						c-0.9,1.4-1.8,2.9,0.3,5.9c0.2,0.4,0.2,0.9-0.2,1.1C326.9,187.2,326.7,187.3,326.6,187.3z"/>
				</g>
			</g>
			<g>
				<g>
					<g>
						<path class="st14" d="M350.1,171.5c0.1-0.2,2.1-3.7,5.1-4c1.9-0.2,3.7,0.6,5.1,1.5c0.1,0.1,0.1,0.1,0.2,0.2
							c0.5,0.7-0.4,1.5-1.1,1.1c-1.2-0.8-2.6-1.4-4-1.2c-2.2,0.2-3.9,3.2-3.9,3.2c-0.2,0.4-0.7,0.5-1.1,0.3
							C350,172.4,349.9,171.9,350.1,171.5z"/>
					</g>
				</g>
			</g>
			<g>
				<g>
					<g>
						<path class="st9" d="M442.6,303.4c-2.3-8.7-4.2-16.5-5.2-21.2c-4.8-9-33.2-2.3-37.1,1c0.7,6.9,1.3,13.6,1.8,20.2H442.6z"/>
					</g>
				</g>
				<g>
					<g>
						<path class="st5" d="M401.1,243.8c2.7,23.8,6,50.7,8.7,74.5c0,0,30.8-4.9,30.1-5.3c-3.6-22-7.3-44.1-10.9-66.1L401.1,243.8z"/>
					</g>
				</g>
				<g>
					<g>
						<path class="st14" d="M403.9,267.5c0.3,2.6,0.6,5.3,0.9,8c6.5,2.7,19.3,2.3,28.9,0c-0.4-2.7-0.9-5.3-1.3-8
							C424.2,270.3,410.5,270.3,403.9,267.5z"/>
					</g>
				</g>
				<g>
					<g>
						<path class="st1" d="M400.4,283.2c4.9,6.5,34.1,8.3,37.1-1c3.1,15.4,16.8,63.4,18.8,72.8c2,9.3,2.8,14.7,0.8,24
							c-1.9,9.3-10.7,15.9-18.3,21.3c-16.1-2.5-27.2-9.2-30.1-15.1c-2-4-2.3-12-2.6-16.4C404.2,338.7,403.3,312.5,400.4,283.2z"/>
					</g>
				</g>
				<g>
					<path class="st5" d="M437.9,219.7c-0.2-0.5-0.5-1-0.8-1.5l-1.2-1.7c-1.4-1.5-3.2-3.2-5.2-3.2c-0.2-0.1-0.3-0.2-0.5-0.3l0.1-0.2
						c-1.1-1.6-2.1-3.3-3.6-4.6c-0.2-0.2-0.5-0.4-0.7-0.5c-0.8-3.9-1.8-7.5-3.2-11.5c-0.6-1.7-1.9-3.1-3.5-3.8
						c-1.4-0.6-2.9-1.2-4.5-1.7c-0.6-1.4-1.6-2.7-2.8-3.6l-8.4-6.4c-1-0.8-2.4-0.1-2.5,1.2c0,1.1,0.1,2.2,0.4,3.2
						c0.4,1.5,1.1,2.9,1.8,4.2c-0.2,0-0.3,0-0.5,0.1c-0.4,1.3,0.9,3.9,1.9,4.7c0.7,0.6,1.4,1.2,2.1,1.7c0.4,0.8,0.9,1.6,1.3,2.3
						c2,6.1,3.3,12.4,3.8,18.7c-2.6,2.6-4.8,4.8-5.6,5.2c-3.9-4.3,1.7-16.1-4.1-23c-1.4-1.4-2.6-1.1-3.4-1.1
						c-0.5,14.5-4.7,23.1-5.2,30c-0.1,4.7,2.1,11.3,2.9,15.3c0.9,4,3.1,7.8,6.6,9.8l22.9,6.3c2.2-1.6,4.9-5.9,6.2-8.2
						c3.6-6.6,5.6-18,7-26.3C439.4,222.9,439,221.1,437.9,219.7z"/>
					<g>
						<g>
							<path class="st11" d="M415.6,206.4c0.2,1.3,0.4,2.7,0.5,4c0.5-0.4,0.9-0.8,1.5-1.1c-0.1-1-0.3-2.1-0.4-3.1
								c-0.3-1.9-0.5-3.8-0.8-5.9c0-0.3-0.2-0.6-0.5-0.7c-4-1.4-7.2-3.3-10.6-6.3c-0.7-0.7-1.6-2.4-1.7-3.4c2.8-0.4,6.1-0.1,9.9,1.1
								c0.4,0.1,0.9-0.1,1-0.5c0.1-0.4-0.1-0.9-0.5-1c-4.3-1.3-8-1.6-11.2-1c-0.3,0.1-0.5,0.2-0.6,0.5c-0.6,1.7,1,4.6,2.1,5.5
								c3.4,3.1,6.7,5.1,10.7,6.5C415.1,202.9,415.3,204.7,415.6,206.4z"/>
						</g>
					</g>
					<g>
						<g>
							<path class="st11" d="M411.1,228.3c-0.7,0-1.3-0.2-1.8-0.6c-1.2-1-1.4-2.8-0.4-5.1c1.9-4.4,4.3-8.7,7.1-12.6
								c1.3-1.8,2.8-3.6,5-4.1c2-0.5,4.2,0.1,6.1,1.7c0.3,0.3,0.4,0.8,0.1,1.1c-0.3,0.3-0.8,0.4-1.1,0.1c-1.5-1.2-3.3-1.7-4.7-1.4
								c-1.7,0.4-3,1.9-4.1,3.5c-2.8,3.8-5.1,7.9-7,12.3c-0.3,0.7-1,2.6-0.1,3.3c0.4,0.3,1,0.3,1.6,0.1c0.6-0.2,1.2-0.7,1.8-1.2
								c3.2-2.8,6.3-5.9,9.2-9c0.3-0.3,0.9-0.3,1.2,0l1.4,1.5c0.3,0.3,0.3,0.8-0.1,1.1c-0.3,0.3-0.8,0.3-1.1-0.1l-0.8-0.9
								c-2.7,3-5.7,5.8-8.7,8.5c-0.7,0.6-1.4,1.2-2.3,1.5C412,228.2,411.5,228.3,411.1,228.3z"/>
						</g>
					</g>
					<g>
						<g>
							<path class="st11" d="M420,235c-0.3,0-0.6,0-0.9-0.1c-1.5-0.4-2.5-1.8-2.4-3.2c0-0.1,0-0.2,0.1-0.3c2.4-4.6,5.2-9.6,8-14.4
								c0.8-1.5,2.4-4.2,5.1-4.7c0.4-0.1,0.8,0.2,0.9,0.7c0.1,0.4-0.2,0.8-0.7,0.9c-1.8,0.3-3,2.1-4,3.9c-2.7,4.7-5.5,9.6-7.8,14.2
								c0,0.6,0.5,1.2,1.2,1.3c0.7,0.2,1.6,0,2.4-0.6c0.8-0.6,1.4-1.4,2-2.1c2-2.5,4-5.1,6.6-8c0.2-0.2,0.4-0.3,0.6-0.3
								c0.2,0,0.5,0.1,0.6,0.3c0.9,1.1,1.4,1.7,2.1,2.4c0.6,0.7,1.2,1.4,2.1,2.5c0.3,0.3,0.2,0.8-0.1,1.1c-0.3,0.3-0.8,0.2-1.1-0.1
								c-0.8-1.1-1.4-1.7-2.1-2.4c-0.5-0.5-0.9-1.1-1.5-1.8c-2.3,2.6-4.2,5-6,7.2c-0.7,0.8-1.4,1.8-2.4,2.5
								C421.9,234.7,421,235,420,235z"/>
						</g>
					</g>
					<g>
						<g>
							<path class="st11" d="M415.7,250.3c-0.1,0-0.2,0-0.3-0.1c-0.4-0.2-0.6-0.6-0.4-1c1.8-4.1,3.1-13.3-5-18.1
								c-0.4-0.2-0.5-0.7-0.3-1.1c0.2-0.4,0.7-0.5,1.1-0.3c9.1,5.4,7.7,15.5,5.7,20.1C416.3,250.2,416,250.3,415.7,250.3z"/>
						</g>
					</g>
				</g>
				<g>
					<g>
						<g>
							<path class="st8" d="M428.9,398c0.5,0.2,1.1,0.3,1.6,0.5V287.4c-0.5,0.1-1,0.3-1.6,0.4V398z"/>
						</g>
					</g>
					<g>
						<g>
							<path class="st8" d="M440.1,399.3c0.5-0.4,1.1-0.8,1.6-1.1v-98.3c-0.6-2.2-1.1-4.3-1.6-6.2V399.3z"/>
						</g>
					</g>
					<g>
						<g>
							<path class="st8" d="M451.3,389.7c0.6-0.6,1.1-1.3,1.6-1.9v-45.9c-0.5-1.9-1-3.9-1.6-5.9V389.7z"/>
						</g>
					</g>
					<g>
						<g>
							<path class="st8" d="M417.7,393.4c0.5,0.3,1,0.6,1.6,0.8V288.6c-0.5,0-1.1,0-1.6-0.1V393.4z"/>
						</g>
					</g>
					<g>
						<g>
							<path class="st8" d="M406.5,375.5c0.3,3,0.8,6.1,1.6,8.4v-96.7c-0.5-0.1-1.1-0.3-1.6-0.5V375.5z"/>
						</g>
					</g>
				</g>
				<g>
					<g>
						<path class="st9" d="M408.6,386.2c-0.4,0-0.8-0.2-0.9-0.6c-1.9-3.9-2.4-11.1-2.6-15.8l-0.1-1c-0.6-8.9-1-17.6-1.5-26
							c-1.1-19.8-2.1-38.5-4.1-58.7c-0.1-0.6,0.4-1.1,0.9-1.2c0.6-0.1,1.1,0.4,1.2,0.9c2,20.3,3,39,4.1,58.8c0.5,8.4,0.9,17,1.5,26
							l0.1,1c0.3,4.3,0.7,11.5,2.4,15c0.3,0.5,0,1.2-0.5,1.4C409,386.2,408.8,386.2,408.6,386.2z"/>
					</g>
				</g>
			</g>
			<g>
				<g>
					<path class="st9" d="M311.6,435c-5.3,0-10.7-0.1-16.4-0.3c-0.1,0-0.3,0-0.4-0.1c-5.2-2.4-9.9-5.2-14-8.2
						c-0.5-0.3-0.6-1-0.2-1.5c0.3-0.5,1-0.6,1.5-0.2c4,2.9,8.5,5.6,13.4,7.9c28.3,0.9,51.4-0.1,78.6-7.4c1.9-9.7,3.3-21.1,0.4-32.1
						c-10.9-0.2-21.6-0.9-31.9-1.5c-7.3-0.4-14.9-0.9-22.5-1.2c-0.5,0-0.9-0.4-1-0.9c-0.7-4.6-3.3-9.3-6.5-15.3
						c-5.1-9.4-11.5-21.1-14.3-39c-0.5-3.4-1-6.9-1.6-10.6c-2.5-17.2-5.4-36.7-11.2-51.1c-0.4-0.8-7.2-12.8-19.8-15.5
						c-0.6-0.1-0.9-0.7-0.8-1.3c0.1-0.6,0.7-0.9,1.3-0.8c13.9,3,20.9,16.1,21.2,16.7c0,0,0,0.1,0,0.1c5.9,14.7,8.8,34.3,11.3,51.7
						c0.5,3.7,1.1,7.3,1.6,10.6c2.8,17.5,9,29,14,38.3c3,5.6,5.7,10.4,6.6,15.1c7.3,0.3,14.6,0.8,21.7,1.2
						c10.5,0.6,21.4,1.3,32.6,1.5c0.5,0,0.9,0.3,1,0.8c3.4,11.9,1.7,24.1-0.3,34.5c-0.1,0.4-0.4,0.7-0.8,0.8
						C352.9,433.2,333.3,435,311.6,435z"/>
				</g>
			</g>
			<g>
				<g>
					<path class="st9" d="M296.5,403.8c-0.1,0-0.2,0-0.3,0c-0.4-0.1-0.6-0.6-0.5-1c1.9-5.3,6.2-9.4,12.4-11.9
						c4.7-1.9,8.7-2.2,8.9-2.2c0.4,0,0.8,0.3,0.8,0.7c0,0.4-0.3,0.8-0.7,0.8c-0.2,0-15.8,1.3-20,13.1
						C297.1,403.6,296.8,403.8,296.5,403.8z"/>
				</g>
			</g>
			<g>
				<g>
					<path class="st9" d="M293.2,386.4c-0.3,0-0.5-0.1-0.7-0.4c-0.2-0.4-0.1-0.9,0.2-1.1c3.5-2.3,8.4-3.2,14.7-2.6
						c4.6,0.4,8.2,1.5,8.4,1.6c0.4,0.1,0.7,0.6,0.5,1c-0.1,0.4-0.6,0.7-1,0.5c-0.1,0-14.2-4.3-21.8,0.8
						C293.6,386.4,293.4,386.4,293.2,386.4z"/>
				</g>
			</g>
			<g>
				<g>
					<path class="st11" d="M325.9,178.3c-0.1,0-0.3,0-0.4-0.1c-3.1-1.6-6.5-3.5-7.1-3.7c-0.4-0.1-0.6-0.4-0.6-0.8
						c0-0.4,0.4-0.8,0.8-0.8c0.2,0,0.5,0,7.7,3.8c0.4,0.2,0.5,0.7,0.3,1.1C326.5,178.1,326.2,178.3,325.9,178.3z M318.6,174.5
						C318.6,174.5,318.6,174.5,318.6,174.5C318.6,174.5,318.6,174.5,318.6,174.5z M318.6,174.5C318.6,174.5,318.6,174.5,318.6,174.5
						C318.6,174.5,318.6,174.5,318.6,174.5z"/>
				</g>
			</g>
			<g>
				<g>
					<path class="st9" d="M302.3,466.5c-23.3,0-25-1.7-25.7-2.4c-0.4-0.4-0.5-0.8-0.5-1c0-4,3.4-17.8,3.6-18.3
						c0.1-0.4,0.4-0.6,0.8-0.6c0.1,0,12.7-0.1,25.1-0.1c25.7,0.1,25.9,0.7,26.2,1.5c0.5,1.5-2,16.1-4.5,19.5c-0.5,0.7-1,1-1.6,1
						c-0.3,0-1.2,0-2.6,0.1C314.7,466.4,307.9,466.5,302.3,466.5z M277.7,463c0.8,0.9,6.8,2.6,45.3,1.6c1.4,0,2.3-0.1,2.6-0.1
						c1.6-0.7,4.7-15.1,4.6-18.1c-3.6-0.7-31.4-0.8-49.1-0.6C280.4,448.4,277.7,459.5,277.7,463z"/>
				</g>
			</g>
			<g>
				<g>
					<path class="st9" d="M418.2,468.1c-1.3,0-2.5-0.1-3.4-0.4c-1.4-0.4-2.2-1-2.5-1.9c-0.1-0.2-0.6-1.5-1.3-3.1
						c-5.4-13.4-6.4-16.2-6.4-16.8c0-0.3,0.1-0.5,0.3-0.7c1.3-1.3,10.3-1.1,14.2-0.9c0.4,0,0.8,0.4,0.8,0.8c0,0.4-0.4,0.8-0.8,0.8
						c-5.2-0.2-11.3-0.1-12.8,0.4c0.7,2.1,4.5,11.6,6.2,15.8c0.9,2.3,1.2,3.1,1.3,3.2c0.1,0.3,0.6,0.7,1.4,0.9
						c2.5,0.7,7.2,0.3,9.2-1.2c0.3-0.3,0.8-0.2,1.1,0.1c0.3,0.3,0.2,0.8-0.1,1.1C423.8,467.4,420.9,468.1,418.2,468.1z"/>
				</g>
			</g>
		</g>
	</g>
</switch>

</svg>
