<?xml version="1.0" encoding="utf-8"?>
<!-- Generator: Adobe Illustrator 27.1.1, SVG Export Plug-In . SVG Version: 6.00 Build 0)  -->










<svg version="1.1" id="Layer_1" xmlns="http://www.w3.org/2000/svg" xmlns:xlink="http://www.w3.org/1999/xlink" x="0px" y="0px" viewBox="0 0 700 700" style="enable-background:new 0 0 700 700;" xml:space="preserve">
<style type="text/css">
	.st0{fill:#232C4F;}
	.st1{fill:#D8DDF0;}
	.st2{fill:#BAC2E0;}
	.st3{fill:#A9B5E8;}
	.st4{fill:#1F2645;}
	.st5{fill:#DB7957;}
	.st6{fill:#171F3D;}
	.st7{fill:#AD9DAD;}
	.st8{fill:#FFFFFF;}
	.st9{fill:#A85343;}
	.st10{fill:#13182B;}
	.st11{fill:#D46C48;}
	.st12{fill:#68302F;}
	.st13{fill:#8F4840;}
	.st14{fill:#A34541;}
	.st15{fill:#85453E;}
</style>
<switch>
	
	<g>
		<g>
			<g>
				<g>
					<path class="st0" d="M299.9,256.5c0,0,40.7-43.4,65.7-36.7c25,6.7,37.3,15.1,45.8,32.9C417.5,265.1,299.9,256.5,299.9,256.5z"/>
				</g>
			</g>
			<g>
				<g>
					<path class="st1" d="M252.4,595.2c0,0,12.5,4.2,25.8,3.1c19.8-1.7,32.7-9.5,32.7-9.5s28.4,16.3,92.8,9.5
						c11.7-1.2,40.1-3.1,40.1-3.1c0.1-2.4,2.5,4.7,1.4-5.4c-0.4-3.9,0.1-13.6-0.4-18c-2.6-22.6-3-43.5-3.3-47.6
						c-3.4-47-18.9-68.1-18.9-68.1L280.5,459c0,0-12.6,27.7-18.3,65.3c-3,19.9-7,26.3-8.9,46C252.9,573.8,251.9,591,252.4,595.2z"/>
				</g>
			</g>
			<g>
				<g>
					<path class="st2" d="M444.8,571.8c-2.6-22.6-6.9-43.5-7.2-47.6c-3.4-47-15-68.1-15-68.1L280.5,459c0,0-12.6,12.7-18.3,50.3
						c-3,19.9-7,41.3-8.9,61c-0.2,2.4,19.6-1.4,26.1-5.2c13.8-8,28.7-20.3,28.7-20.3s25.2,33.2,63.6,28.7
						c17.8-2.1,47.8,13.6,73.4,11.7C445,580.7,445.2,574.9,444.8,571.8z"/>
				</g>
			</g>
			<g>
				<g>
					<path class="st3" d="M310.8,589.6c-0.4,0-0.7-0.3-0.7-0.6l-0.2-1.1c-0.8-5.3-0.8-5.4-0.7-7.8c0-0.8,0.1-2,0.2-3.8
						c-4-26.4-2-52.7-2-53c0-0.4,0.4-0.7,0.8-0.7c0.4,0,0.7,0.4,0.7,0.8c0,0.3-2,26.5,2,52.7c0,0,0,0.1,0,0.1c0,1.9-0.1,3.1-0.2,3.9
						c-0.1,2.3-0.1,2.3,0.7,7.5l0.2,1.1c0.1,0.4-0.2,0.8-0.6,0.8C310.9,589.6,310.9,589.6,310.8,589.6z"/>
				</g>
			</g>
			<g>
				<g>
					<path class="st3" d="M311.2,576c-0.2,0-0.3-0.1-0.5-0.2c-0.3-0.3-0.4-0.7-0.1-1c0.1-0.1,6.1-7.5,7.3-11.6
						c1-3.3,0.6-36.5,0.3-53.6c0-0.4,0.3-0.7,0.7-0.7c0,0,0,0,0,0c0.4,0,0.7,0.3,0.7,0.7c0,2,1,49.7-0.3,54
						c-1.3,4.4-7.3,11.8-7.6,12.1C311.6,575.9,311.4,576,311.2,576z"/>
				</g>
			</g>
			<g>
				<g>
					<path class="st0" d="M393.1,238.8c0,0,83.7,38.7,85.9,48.3c2.2,9.6-50.6,131.9-44.7,154.7c5.9,22.9,13.9,70.6,16.9,118.5
						c-1.4,0.3-55.5,13.2-111.3,0.3c-18.2-4.2-25.5-10.1-31.6-27.8l-3.8-10.9l-2.7,10.9c-6,19.8-36,30.1-53.7,30.1
						c0,0,0.7-18.5,2.6-39.8c3.4-39.7,16.7-82.8,14.2-90.4c-5.8-17.3-15.8-121.4-15.8-135.2c0-14,2.2-27.3,2.2-27.3l84.3-32.8
						L393.1,238.8z"/>
				</g>
			</g>
			<g>
				<g>
					<path class="st4" d="M350.8,466.6c0,0,14.6,23.6,54.2,27.5c7.3,0.7,27.3,11,41.8,18.8c-3.7-29.9-8.5-56-12.4-71.1
						c-0.5-2.1-0.6-5.1-0.2-8.8L350.8,466.6z"/>
				</g>
			</g>
			<g>
				<g>
					<path class="st4" d="M356.1,457.3l-93.3-5.5c-1.7,8.8-4.1,19.9-6.4,31.9c-0.3,3.1-0.7,6.2-1.1,9.3c9.9-3.6,34.3-12.4,38.8-12.8
						C300,479.6,356.1,457.3,356.1,457.3z"/>
				</g>
			</g>
			<g>
				<g>
					<path class="st1" d="M393.5,240c0,0,4.2,30.4-23.5,64.4c-25.5,31.3-46.7,58.6-46.7,58.6s-13-46.9-12.8-70.4
						c0.2-30,11.1-49.1,11.1-49.1l14-6.2l55.7,0.1L393.5,240z"/>
				</g>
			</g>
			<g>
				<g>
					<path class="st5" d="M388.1,239.2c0,0-0.7,1.2-16.8,19c-7.5,8.2-23.6,12.7-23.6,12.7s-14-7.4-16.6-22.1c-1-5.5-0.1-7-0.3-7.4
						C329.9,239.8,388.1,239.2,388.1,239.2z"/>
				</g>
			</g>
			<g>
				<g>
					<path class="st1" d="M333.9,229.4c-11.2,10.3-23.1,24.5-23.4,47.1l27.2-12.3C330.2,251,329.3,244,333.9,229.4z"/>
				</g>
			</g>
			<g>
				<g>
					<path class="st6" d="M304.5,522.9c-0.5,0-1-0.4-1-0.9c-1.2-57.3,0.5-77.6,7.6-127.7c0-0.2,0.1-0.4,0.2-0.5
						c10.4-11.8,23-23.8,35.2-35.5c25.8-24.7,52.5-50.2,62.6-76.4c-5.6-1.7-11.6-3.3-12.4-3.3c-0.6,0-1-0.4-1-0.8
						c-0.2-0.9-0.3-1.3,15.1-7.8l-3.5-21.9c-0.1-0.5,0.3-1,0.8-1.1c0.5-0.1,1,0.3,1.1,0.8l3.6,22.6c0.1,0.4-0.2,0.9-0.6,1
						c-4.8,2-10,4.3-12.9,5.7c3.7,0.9,9.8,2.7,11.3,3.2c0.3,0.1,0.5,0.3,0.6,0.5c0.1,0.2,0.1,0.5,0,0.8c-9.9,27-37.1,53-63.4,78.1
						c-12.1,11.6-24.6,23.5-34.9,35.2c-7.1,49.8-8.7,70-7.5,127.1C305.5,522.4,305.1,522.9,304.5,522.9
						C304.5,522.9,304.5,522.9,304.5,522.9z"/>
				</g>
			</g>
			<g>
				<g>
					<path class="st6" d="M312.1,395.3c-0.1,0-0.2,0-0.3-0.1c-0.5-0.2-0.8-0.7-0.6-1.2l11.2-31.3c0.2-0.5,0.7-0.8,1.2-0.6
						c0.5,0.2,0.8,0.7,0.6,1.2L313,394.7C312.9,395.1,312.5,395.3,312.1,395.3z"/>
				</g>
			</g>
			<g>
				<g>
					<path class="st6" d="M319.4,373c-0.2,0-0.5-0.1-0.7-0.3c-9.2-9.2-24.5-41-31-69.6c-0.7-3-3-15.1-1.6-19.6
						c0.1-0.3,0.3-0.5,0.5-0.6c3.7-1.9,8.6-3.7,11.7-4.8c-3.2-0.8-8-2-10-3c-0.4-0.2-0.6-0.6-0.5-1.1c2.5-11.4,11.5-19.3,14.9-22.2
						c0.4-0.4,0.8-0.7,1-0.9c0.2-0.3,0.5-0.5,0.9-0.5c0.5,0,1,0.4,1,1c0,0.6-0.3,0.8-1.5,1.9c-3.2,2.8-11.5,10-14.1,20.4
						c3.6,1.4,12.1,3.3,12.2,3.3c0.4,0.1,0.7,0.5,0.8,0.9c0,0.4-0.2,0.8-0.7,1c-0.1,0-8.5,2.8-14.2,5.7c-0.9,4.1,0.9,14.7,1.7,18.3
						c6.5,28.3,21.4,59.6,30.5,68.7c0.4,0.4,0.4,1,0,1.4C319.9,372.9,319.7,373,319.4,373z M303.6,251.3
						C303.6,251.3,303.6,251.3,303.6,251.3C303.6,251.3,303.6,251.3,303.6,251.3z M303.6,251.3C303.6,251.3,303.6,251.3,303.6,251.3
						C303.6,251.3,303.6,251.3,303.6,251.3z"/>
				</g>
			</g>
			<g>
				<g>
					<path class="st0" d="M251.3,270.1c-3.1,2.3-8.2,7.4-11.8,22c-3.6,14.6-4.4,45.1-10.6,61.5c-7.8,20.7-20.1,43.9-15.5,71.8
						c4.6,28,6.8,29.3,15.3,31.6c34.4,9.6,91.2,15,121.1,12.4L338.9,426l-38.2-5.3L269,406.6c0,0,13.3-28.2,9-55
						C273.8,324.8,251.3,270.1,251.3,270.1z"/>
				</g>
			</g>
			<g>
				<g>
					<g>
						<path class="st5" d="M408,420.3c0,0-100.6,3.2-105.1-0.4c-2-1.6-8.4-7.1-13.4-10c-6.1-3.5-32.8-0.6-33,0.6
							c-2.2,20.8-1.7,40.6,5.3,40.3c1,0,4.5,4.8,19.7,3.6c6.9-0.6,15.7-3.2,16.7-3.1c17.1,2.4,100.4,13.1,100.4,13.1L408,420.3z"/>
					</g>
				</g>
				<g>
					<g>
						<path class="st5" d="M263.5,408.8c0,0-19.5,3.4-25.5,5.9c-3.7,1.5-13.8,9.4-13.8,9.4c-2,1.2-2.1,4.1-0.6,5.7
							c1.7,1.8,4.6,2.3,6.8,1.2l10.8-6.3l19.9-2.8l-24.2,1.8l-12.4,7.8c-2,1.3-3.2,4.4-1.5,6.2c1.9,2,4.3,2,6.9,1l11.8-3.8l23-1.9
							l-3.2-1.8c0,0-12.9,1.7-16.9,3c-3.9,1.2-14.2,6.7-14.2,6.7c-2.1,1.1-3.4,4.2-1.8,6.2c2,2.3,4.5,2,6.7,1.2
							c0,0,10.7-3.9,14.4-4.4c5.3-0.7,21.1-2.1,21.1-2.1l-2,0.3c0,0-12.7,0.9-16.7,2c-5.8,1.6-9.3,4.3-12.1,5.8
							c-2.2,1.2-3.1,4.3-1,5.7c1.2,0.8,2.6,1,5.8,0.4c3-0.6,9.5-2.8,12.5-3.2c5.7-0.8,21.4-1.8,21.4-1.8l-3-31.4L263.5,408.8z"/>
					</g>
				</g>
				<g>
					<g>
						<path class="st5" d="M289.6,409.9c0,0-16.1-4.4-19.8-7c-1.9-1.3-4.2-4.6-5.7-6.3c-1.4-1.5-3.9-2.5-5.3-2.1
							c-5.1,1.6-0.3,11.4,0.2,12.5c2.8,6.1,10.6,11.6,10.6,11.6L289.6,409.9z"/>
					</g>
				</g>
				<g>
					<g>
						<path class="st7" d="M303,419.9l-0.9,31.8c1.8,1.2,10.7,2.5,16.5,2.7l-0.5-33.3C314.1,419.8,307.6,419.9,303,419.9z"/>
					</g>
				</g>
				<g>
					<g>
						<g>
							
								<ellipse transform="matrix(0.1249 -0.9922 0.9922 0.1249 -161.5341 686.6804)" class="st7" cx="308.5" cy="434.9" rx="12.3" ry="12.6"/>
						</g>
					</g>
					<g>
						<g>
							
								<ellipse transform="matrix(0.1249 -0.9922 0.9922 0.1249 -161.5381 686.673)" class="st8" cx="308.5" cy="434.9" rx="9.5" ry="9.8"/>
						</g>
					</g>
				</g>
				<g>
					<g>
						<path class="st9" d="M226.2,431c-0.3,0-0.5-0.1-0.6-0.4c-0.2-0.4-0.1-0.8,0.2-1c6.9-4.3,16.9-7.6,17.5-7.8
							c1.3-0.5,13.1-2.7,15.5-3.1c0.4-0.1,0.8,0.2,0.9,0.6c0.1,0.4-0.2,0.8-0.6,0.9c-5.5,1-14.5,2.8-15.2,3c0,0,0,0-0.1,0
							c-0.1,0-10.4,3.4-17.2,7.7C226.5,431,226.3,431,226.2,431z"/>
					</g>
				</g>
				<g>
					<g>
						<path class="st9" d="M235.5,438c-0.3,0-0.6-0.2-0.7-0.5c-0.1-0.4,0-0.8,0.4-1c2.2-0.8,4-1.6,4-1.6c9.6-3.5,20.2-5.2,20.3-5.2
							c0.4-0.1,0.8,0.2,0.9,0.6c0.1,0.4-0.2,0.8-0.6,0.9c-0.1,0-10.5,1.7-20,5.1l0,0c0,0-1.8,0.8-4,1.6
							C235.7,438,235.6,438,235.5,438z"/>
					</g>
				</g>
				<g>
					<g>
						<path class="st9" d="M246.5,445.4c-0.3,0-0.6-0.2-0.7-0.5c-0.1-0.4,0-0.8,0.4-1c4.4-1.7,12.7-2.3,13.1-2.4
							c0.4,0,0.8,0.3,0.8,0.7c0,0.4-0.3,0.8-0.7,0.8c-0.1,0-8.4,0.7-12.6,2.3C246.6,445.3,246.5,445.4,246.5,445.4z"/>
					</g>
				</g>
				<g>
					<g>
						<path class="st9" d="M260.2,409.8c-0.4,0-0.7-0.3-0.7-0.7c-0.1-0.4,0.2-0.8,0.6-0.9l14.1-1.9c0.4-0.1,0.8,0.2,0.9,0.6
							s-0.2,0.8-0.6,0.9l-14.1,1.9C260.3,409.8,260.2,409.8,260.2,409.8z"/>
					</g>
				</g>
				<g>
					<g>
						<path class="st1" d="M313.8,419.7c-1.4,10.2-1.9,25.5,1.2,38c29.7,3.9,83.7,6.7,83.7,6.7l9.3-44
							C408.1,420.3,340,421,313.8,419.7z"/>
					</g>
				</g>
			</g>
			<g>
				<g>
					<path class="st0" d="M476.1,283.4c6.2,3.7,14.1,29.8,10.7,54.6c-3.6,25.6-12.9,121.8-32.7,130.3s-130.8,7.2-130.8,7.2
						c-2.8-18.4-4.8-35.2-4.7-58c0,0,33.8-1.3,68.5-1.6c4.3,0,9.6-4.1,13.8-4.1c3.7,0,10.8-1.4,14.3-1.4c12-0.2,21.6-4.8,27.6,5.9
						c8.9,15.6-37.6,10-32.6,1c4.9-9,10.9-95.3,26-113.3C451.2,285.7,476.1,283.4,476.1,283.4z"/>
				</g>
			</g>
			<g>
				<g>
					<path class="st6" d="M323.3,476.4C323.3,476.4,323.3,476.4,323.3,476.4c-0.5,0-0.9-0.3-1-0.8c-4.5-20-5.9-36.9-4.7-58.3
						c0-0.5,0.5-0.9,1-0.9c0,0,1.2,0,3.3,0c9.3,0,36.7,0,63.9-0.2c0,0,0,0,0,0c0.5,0,1,0.4,1,1c0,0.5-0.4,1-1,1
						c-30.2,0.2-60.7,0.2-66.3,0.2c-1,20.5,0.3,36.9,4.5,56.1c8.2,0,79-0.2,116.1-4.3c0.5-0.1,1,0.3,1.1,0.9c0.1,0.5-0.3,1-0.9,1.1
						C401.4,476.3,325.7,476.4,323.3,476.4z"/>
				</g>
			</g>
			<g>
				<g>
					<path class="st6" d="M418.6,372.3c0,0-0.1,0-0.1,0c-0.5-0.1-0.9-0.6-0.8-1.1c4.7-37.5,10.4-59.1,17.7-68
						c12.8-15.4,23.6-21.2,38.4-20.7c0.5,0,1,0.5,0.9,1c0,0.5-0.5,1-1,0.9c-14.3-0.5-24.2,5-36.8,20c-9.4,11.3-14.4,43.6-17.3,67
						C419.5,371.9,419.1,372.3,418.6,372.3z"/>
				</g>
			</g>
			<g>
				<g>
					<g>
						<path class="st5" d="M366.6,416c0,0,13.8-19.4,20.3-24.3c6.6-5,19.6-15.9,24.1-15.5c2.3,0.2,10.1,0.5,16.7,2.3
							c4.5,1.2,3,5.4,0.3,6.2c-4.1,1.3-7.9,1.3-8.9,1.2c-2.2-0.2-8.8-1.5-7.3-1.5c1.5,0.1,25.6,4,28.3,8c1,1.5,1.6,2.6,0.6,4.4
							c-1.4,2.5-2,2.2-2,2.2s2,2.5,1,4.4c-1.8,3.3-7.8,2.2-7.8,2.2s2.7,1.9,2.5,3.4c-0.3,2.7-4.5,3.6-8.4,3
							c-5.1-0.8-21.3-2.8-28.8,0.2c-7.4,3-9,3.5-14.9,3.8C372.5,416.5,366.6,416,366.6,416z"/>
					</g>
				</g>
				<g>
					<g>
						<path class="st9" d="M393.4,392.6c-0.4,0-0.8-0.3-0.8-0.7c0-0.4,0.3-0.8,0.7-0.8c0.3-0.1,2.1-0.6,14-5.6
							c2.8-1.2,5.9-1.6,9-1.1l4.7,0.7c0.4,0.1,0.7,0.5,0.7,0.9c-0.1,0.4-0.5,0.7-0.9,0.7l-4.7-0.7c-2.8-0.4-5.6-0.1-8.1,1
							C394.4,392.5,393.7,392.6,393.4,392.6C393.4,392.6,393.4,392.6,393.4,392.6z M393.4,391C393.4,391,393.4,391,393.4,391
							C393.4,391,393.4,391,393.4,391z"/>
					</g>
				</g>
				<g>
					<g>
						<path class="st9" d="M396,399.9c-0.4,0-0.7-0.2-0.8-0.6c-0.1-0.4,0.1-0.8,0.6-0.9l16-4c2.5-0.6,5.1-0.7,7.5-0.2l19.1,3.9
							c0.4,0.1,0.7,0.5,0.6,0.9c-0.1,0.4-0.5,0.7-0.9,0.6l-19.1-3.9c-2.2-0.5-4.6-0.4-6.8,0.1l-16,4
							C396.1,399.9,396,399.9,396,399.9z"/>
					</g>
				</g>
				<g>
					<g>
						<path class="st9" d="M398.2,408.7c-0.4,0-0.7-0.2-0.8-0.6c-0.1-0.4,0.2-0.8,0.6-0.9l16.9-3.7c2.3-0.5,4.7-0.5,7-0.1l10,2
							c0.4,0.1,0.7,0.5,0.6,0.9c-0.1,0.4-0.5,0.7-0.9,0.6l-10-2c-2.1-0.4-4.3-0.4-6.4,0.1l-16.9,3.7
							C398.3,408.7,398.3,408.7,398.2,408.7z"/>
					</g>
				</g>
			</g>
			<g>
				<g>
					<path class="st6" d="M435.1,440.9c-0.5,0-0.9-0.4-1-0.9c-1.1-22.5-33.1-27.3-33.4-27.3c-0.5-0.1-0.9-0.6-0.8-1.1
						c0.1-0.5,0.6-0.9,1.1-0.8c0.3,0,8.5,1.2,17,5.4c11.4,5.5,17.6,13.8,18.1,23.8C436.1,440.4,435.6,440.9,435.1,440.9
						C435.1,440.9,435.1,440.9,435.1,440.9z"/>
				</g>
			</g>
			<g>
				<g>
					<path class="st6" d="M372.8,516.4c-5.3,0-9.9-3.9-10.7-9.1l-1.9-11.9c0-0.3,0-0.6,0.2-0.8c0.2-0.2,0.4-0.3,0.7-0.4l70.8-2.2
						c0.5,0,0.9,0.3,1,0.8l1.5,9.3c0.5,3.1-0.4,6.3-2.3,8.7c-2,2.4-4.9,3.9-8.1,4l0,0l-50.8,1.6C373,516.4,372.9,516.4,372.8,516.4z
						 M362.2,496.2L364,507c0.7,4.4,4.6,7.6,9.1,7.5l50.8-1.6c2.6-0.1,5-1.3,6.6-3.3c1.6-2,2.3-4.6,1.9-7.1l-1.4-8.5L362.2,496.2z
						 M423.9,513.9L423.9,513.9L423.9,513.9z"/>
				</g>
			</g>
			<g>
				<g>
					<path class="st6" d="M270,397c-0.5,0-0.9-0.4-1-0.9c-0.4-3.8-1.2-8.5-2-13.4c-1.8-10.9-4.1-24.6-3.6-37
						c-1.5-12.8-12.8-59.1-12.9-59.5c-0.1-0.5,0.2-1,0.7-1.2c0.5-0.1,1,0.2,1.2,0.7c0.5,1.9,11.5,47,12.9,59.9c0,0.1,0,0.1,0,0.2
						c-0.5,12.3,1.7,25.8,3.6,36.7c0.8,5,1.6,9.6,2,13.5c0.1,0.5-0.3,1-0.9,1.1C270.1,397,270,397,270,397z"/>
				</g>
			</g>
			<g>
				<g>
					<path class="st6" d="M315.8,470.9c-11.2,0-30.7-2.1-49.6-4.1l-4.9-0.5c-0.5-0.1-0.9-0.5-0.9-1.1c0.1-0.5,0.5-0.9,1.1-0.9
						l4.9,0.5c20.8,2.2,42.3,4.6,52.5,4.1c0.5,0,1,0.4,1,0.9c0,0.5-0.4,1-0.9,1C318,470.9,317,470.9,315.8,470.9z"/>
				</g>
			</g>
			<g>
				<g>
					<path class="st6" d="M442,420.3c-0.3,0-0.6-0.2-0.8-0.5c-6.5-10.3-40.7-7.3-42.3-6.9c-0.5,0.1-1.1-0.1-1.2-0.6
						c-0.2-0.5,0.1-1,0.6-1.2c1.6-0.5,37.2-3.9,44.5,7.7c0.3,0.5,0.2,1.1-0.3,1.3C442.3,420.3,442.1,420.3,442,420.3z"/>
				</g>
			</g>
			<g>
				<g>
					<path class="st6" d="M264.4,344.2c-0.3,0-0.5-0.1-0.7-0.4l-13.3-26.9c-0.2-0.4,0-0.8,0.3-1c0.4-0.2,0.8,0,1,0.3l13.3,26.9
						c0.2,0.4,0,0.8-0.3,1C264.6,344.2,264.5,344.2,264.4,344.2z"/>
				</g>
			</g>
			<g>
				<g>
					<path class="st6" d="M423.2,341.6c-0.3,0-0.6-0.2-0.7-0.5c-1.1-4.1-5.4-34.7-5.6-35.9c-0.1-0.4,0.2-0.8,0.6-0.8
						c0.4-0.1,0.8,0.2,0.8,0.6c0,0.3,4.5,31.7,5.5,35.8c0.1,0.4-0.1,0.8-0.5,0.9C423.3,341.6,423.2,341.6,423.2,341.6z"/>
				</g>
			</g>
			<g>
				<g>
					<path class="st10" d="M352.3,467.1c-0.8,2.4-3,3.7-5,3.1c-2-0.7-2.9-3.1-2.1-5.5c0.8-2.4,3-3.7,5-3.1S353.2,464.8,352.3,467.1z
						"/>
				</g>
			</g>
			<g>
				<g>
					<path class="st10" d="M367.7,466.4c-0.8,2.4-3,3.7-5,3.1c-2-0.7-2.9-3.1-2.1-5.5c0.8-2.4,3-3.7,5-3.1
						C367.6,461.6,368.5,464.1,367.7,466.4z"/>
				</g>
			</g>
			<g>
				<g>
					<path class="st10" d="M383.1,465.7c-0.8,2.4-3,3.7-5,3.1c-2-0.7-2.9-3.1-2.1-5.5c0.8-2.4,3-3.7,5-3.1
						C382.9,460.9,383.9,463.3,383.1,465.7z"/>
				</g>
			</g>
			<g>
				<g>
					<path class="st3" d="M311.8,276.7c-0.3,0-0.5-0.1-0.6-0.4c-0.2-0.4,0-0.8,0.3-1l21.7-11.1c0.3-0.1,0.6-0.1,0.8,0.1l9.6,7.8
						c0.3,0.3,0.4,0.7,0.1,1c-0.3,0.3-0.7,0.4-1,0.1l-9.3-7.5l-21.3,10.9C312,276.7,311.9,276.7,311.8,276.7z"/>
				</g>
			</g>
			<g>
				<g>
					<path class="st11" d="M340.5,252.8c12.4,4.2,28.5,1.3,47.7-13.7l-0.4-30.6c0,0-56.5,4.7-56.5,5.8c0,0.8-0.1,16.8-0.1,26.6
						C331.1,245.5,336.2,251.4,340.5,252.8z"/>
				</g>
			</g>
			<g>
				<g>
					<path class="st1" d="M388,223.8c-1.9,15.5-7.9,27.5-22.4,39.7l21.7,14c6.1-13.9,8.8-30,7.3-40.4L388,223.8z"/>
				</g>
			</g>
			<g>
				<path class="st12" d="M403.5,121.1c-0.8-0.9-2.2-1.6-3.7-2.2c-1.2-3.1-3.6-6.8-5.7-8.2c-16.6-10.6-15.2-8.8-34.5-10.5
					c-14.8-1.3-11.1,2.7-26.6,3.4c-8.3,0.4-9.9,3.8-10.9,11.9c-0.3,2.5-7.1-0.8-11.6,9.6c-6.9,15.9,4.8,46.6,4.8,46.6
					s-4-33.2,10.1-42c7.4-4.6,20.7-5.5,37.4-7.3c9.5-1,24.2,6.8,31.3,14.8c6.7,7.5,3.5,29.1,4.1,34.5c0.3,2.3,6.5-5.7,6.5-5.7
					S415.2,134.2,403.5,121.1z"/>
				<g>
					<g>
						<g>
							<path class="st5" d="M314.7,170.2c0,0-2-11.9-7.6-7.6c-6.6,5.1,2.8,29.7,6,31.3c6.1,3,6.6-1.9,6.6-1.9L314.7,170.2z"/>
						</g>
					</g>
					<g>
						<g>
							<path class="st5" d="M399.2,171.2c0,0,6.3-9.9,9.3-6.6c5.6,6.3-1.3,28.7-7.3,30.6c-6,1.9-5.3-1.2-5.3-1.2L399.2,171.2z"/>
						</g>
					</g>
				</g>
				<g>
					<g>
						<path class="st5" d="M358.1,238.7c-10.6,0.2-22.9-6.4-29.5-18.7c-10.5-19.4-14.2-45.7-14-60.3c0.3-28.1,15.5-41.9,40.9-42.2
							c25.7-0.2,43.2,12.7,43.4,40.8c0.2,14.6-0.8,42.2-11.3,61.7C381,232.3,369.3,238.5,358.1,238.7z"/>
					</g>
				</g>
				<g>
					<g>
						<path class="st12" d="M365.3,157.1c7.1-1.7,15-0.1,20.6,4.7c2.3,1.9-0.4,5.4-2.8,3.6c-3.4-2.8-7.7-4.1-12-3.9
							c-1.4,0.1-2.9,0.2-4.3,0.6C363.3,162.9,362,158.1,365.3,157.1L365.3,157.1z"/>
					</g>
				</g>
				<g>
					<g>
						<path class="st12" d="M344.7,157.1c-7.1-1.7-15-0.1-20.6,4.7c-2.3,1.9,0.4,5.4,2.8,3.6c3.4-2.8,7.7-4.1,12-3.9
							c1.4,0.1,2.9,0.2,4.3,0.6C346.6,162.9,347.9,158.1,344.7,157.1L344.7,157.1z"/>
					</g>
				</g>
				<g>
					<g>
						<path class="st12" d="M354.9,132.9c12.5,0.9,22.9-7.3,30.9-2c5.4,3.6,1.3,16.7,6.3,24c4.6,6.7,5.3,13.1,4.8,18.5
							c-0.3,3.1,0.5,4.7,2.3-1.1c1.8-5.8,7.1-11.9,7.2-14.3c1.4-30.4-21.3-47-47.1-46.8c-15.4,0.1-30,6.6-38.8,18.4
							c-5.7,7.8-9.3,15.5-8.6,27.7c0.1,2.4,4.4,25.4,4.7,28.3c0.6-1.1,0.5-5.8,0.7-10.9c0.1-1.9,0-3.8,0.3-5.6
							c1.2-6.9,2.5-11.5,3.1-13.9c1.8-8.1-0.9-17,5.9-21.7C335.3,127.2,342.6,132,354.9,132.9z"/>
					</g>
				</g>
				<g>
					<g>
						<path class="st13" d="M314.6,173c3.9,24.8,4,38.6,8,45.6c6.9,12.1,21.7,22,33.5,21.8c13.8-0.2,31.9-12.7,37.7-25.4
							c4.2-9.2,1.6-16.9,5.8-44c-1.2,0.6-2,1-2.6,1.3c-3,14.3-5.3,16.6-10.3,20.3c-2.8,2.1-4.9,4.9-6,8.2c-2.5,7.5-1,13.2-5.1,16.4
							c-3.5,2.7-10.3-1-18.3-1c-10.2,0-14.9,3.7-17.8,1.4c-5.6-4.5-4.7-13.8-10.7-20.6c-4.8-5.4-10.6-2.4-11.4-24
							C316.3,173,314.9,172.9,314.6,173z"/>
					</g>
				</g>
				<g>
					<g>
						<path class="st14" d="M346.5,203.6c6.7,0.9,13.1,0.5,19.3-1.5c1-0.3,1.7,1,0.9,1.7c-1.8,1.6-4.8,3.3-9.9,3.7
							c-5.4,0.4-8.9-0.8-11-2.1C344.9,204.9,345.4,203.5,346.5,203.6z"/>
					</g>
				</g>
				<g>
					<g>
						<g>
							<ellipse class="st10" cx="336.1" cy="171" rx="2.8" ry="4.3"/>
						</g>
					</g>
					<g>
						<g>
							<path class="st10" d="M377.4,171c0,2.4-1.2,4.3-2.8,4.3c-1.5,0-2.8-1.9-2.8-4.3s1.2-4.3,2.8-4.3
								C376.2,166.7,377.4,168.6,377.4,171z"/>
						</g>
					</g>
					<g>
						<g>
							<path class="st9" d="M379.3,168.8c-0.1,0-0.2,0-0.4-0.1c0,0-1.5-0.7-3.9-1.1c-2.3-0.4-3.5,0.9-3.6,0.9
								c-0.3,0.3-0.8,0.3-1.2,0c-0.3-0.3-0.3-0.8,0-1.1c0.1-0.1,1.9-1.9,5-1.4c2.7,0.4,4.3,1.3,4.4,1.3c0.4,0.2,0.6,0.7,0.4,1.1
								C379.9,168.7,379.6,168.8,379.3,168.8z"/>
						</g>
					</g>
					<g>
						<g>
							<path class="st9" d="M331.1,168.8c-0.3,0-0.6-0.2-0.7-0.5c-0.2-0.4,0-0.9,0.4-1.1c0.1,0,1.7-0.8,4.4-1.3
								c3.1-0.5,4.9,1.3,5,1.4c0.3,0.3,0.3,0.8,0,1.2c-0.3,0.3-0.8,0.3-1.1,0c-0.1-0.1-1.3-1.3-3.6-0.9c-2.4,0.4-3.9,1.1-3.9,1.1
								C331.4,168.8,331.3,168.8,331.1,168.8z"/>
						</g>
					</g>
				</g>
				<g>
					<g>
						<path class="st13" d="M373.8,198.3c-4.3-3.5-13.1-3.6-17.7-4.7c-4,2-10.2,1.6-14.5,5c-5.1,4.1-9.1,14.9-9.1,14.9
							s6,7.5,6.9,4.3c1.2-4.4,2.4-12.9,4.7-14.3c4.1-2.4,5.1-0.4,12.3-2.7c6.4,2.3,9.7-0.1,13.8,2.3c1.9,1.1,4.1,12.3,6.2,16.2
							c2.3,4.3,6.3-3.6,6.3-3.6S378.8,202.3,373.8,198.3z"/>
					</g>
				</g>
				<g>
					<g>
						<path class="st15" d="M362.9,131.1c-0.4,0-0.8-0.3-0.9-0.7c-4-15.9,10.7-23.9,10.8-24c0.5-0.3,1.1-0.1,1.3,0.4
							c0.3,0.5,0.1,1.1-0.4,1.3c-0.6,0.3-13.5,7.4-9.8,21.8c0.1,0.5-0.2,1-0.7,1.2C363,131.1,362.9,131.1,362.9,131.1z"/>
					</g>
				</g>
				<g>
					<g>
						<path class="st15" d="M354.6,130.8c-0.4,0-0.8-0.2-0.9-0.6c-3.4-9.4-1.9-16-0.1-19.9c2-4.3,4.9-6.4,5-6.4
							c0.4-0.3,1-0.2,1.3,0.2c0.3,0.4,0.2,1-0.2,1.3l0,0c-0.4,0.3-10.4,7.6-4.3,24.1c0.2,0.5-0.1,1.1-0.6,1.2
							C354.8,130.7,354.7,130.8,354.6,130.8z"/>
					</g>
				</g>
				<g>
					<g>
						<path class="st15" d="M345.2,130.2c-0.3,0-0.7-0.2-0.9-0.5c-2.8-5.1-5.6-12.6-3.4-19.9c1.3-4.4,3.9-6.7,4-6.8
							c0.4-0.3,1-0.3,1.4,0.1c0.3,0.4,0.3,1-0.1,1.4c-0.4,0.3-9.1,8.1-0.2,24.2c0.3,0.5,0.1,1.1-0.4,1.3
							C345.5,130.2,345.3,130.2,345.2,130.2z"/>
					</g>
				</g>
				<g>
					<g>
						<path class="st15" d="M328.7,131.1c-0.1,0-0.2,0-0.3-0.1c-9.9-3.9-7.1-14.1-7.1-14.2c0.1-0.4,0.5-0.6,0.9-0.5
							c0.4,0.1,0.6,0.5,0.5,0.9c-0.1,0.4-2.4,9,6.2,12.4c0.4,0.1,0.6,0.6,0.4,0.9C329.3,130.9,329,131.1,328.7,131.1z"/>
					</g>
				</g>
				<g>
					<g>
						<path class="st15" d="M382,128.1c-0.1,0-0.1,0-0.2,0c-0.4-0.1-0.6-0.5-0.5-0.9c1.4-5,6.8-8.1,7-8.2c0.4-0.2,0.8-0.1,1,0.3
							c0.2,0.4,0.1,0.8-0.3,1c-0.1,0-5.1,2.9-6.3,7.3C382.6,127.9,382.4,128.1,382,128.1z"/>
					</g>
				</g>
				<g>
					<g>
						<g>
							<path class="st9" d="M362.3,193.4c-0.3,0-0.6-0.2-0.7-0.5c-0.2-0.4,0-0.9,0.4-1.1c0.6-0.3,1-0.6,1.1-1.1
								c0.4-1.1-0.2-2.6-0.5-3.1c-0.2-0.4-0.1-0.9,0.3-1.1c0.4-0.2,0.9-0.1,1.1,0.3c0.1,0.1,1.3,2.4,0.6,4.4c-0.3,1-1,1.7-2,2.1
								C362.6,193.4,362.5,193.4,362.3,193.4z"/>
						</g>
					</g>
					<g>
						<g>
							<path class="st9" d="M346.2,193.7c-0.1,0-0.3,0-0.4-0.1c-2.7-1.4-2.4-4.4-1.8-5.8c0.2-0.4,0.6-0.6,1.1-0.4
								c0.4,0.2,0.6,0.6,0.4,1.1c-0.1,0.3-1,2.6,1,3.7c0.4,0.2,0.6,0.7,0.3,1.1C346.8,193.5,346.5,193.7,346.2,193.7z"/>
						</g>
					</g>
					<g>
						<g>
							<path class="st9" d="M352.6,195.3c-1,0-2-0.2-2.9-0.6c-1.5-0.7-2.4-2.1-2.8-4c-0.2-1.3,0-2.6,0.3-4c0.2-0.9,0.3-1.7,0.3-2.5
								c0-0.8-0.1-1.5-0.1-2.3c-0.1-1.7-0.3-3.5,0.4-5.5c0.5-1.5,1.8-3.3,2.7-4.6c0.3-0.5,0.6-0.8,0.8-1.1c0.2-0.4,0.7-0.5,1.1-0.3
								c0.4,0.2,0.5,0.7,0.3,1.1c-0.2,0.3-0.5,0.7-0.8,1.2c-0.8,1.1-2.1,2.8-2.5,4.1c-0.5,1.7-0.4,3.3-0.3,4.9
								c0.1,0.8,0.1,1.6,0.1,2.4c0,0.9-0.2,1.8-0.4,2.7c-0.2,1.2-0.4,2.4-0.3,3.4c0.3,1.4,0.9,2.3,1.9,2.8c3.2,1.5,8.9-1.4,9-1.4
								c0.4-0.2,0.9-0.1,1.1,0.3c0.2,0.4,0.1,0.9-0.3,1.1C359.9,193.3,356.1,195.3,352.6,195.3z"/>
						</g>
					</g>
				</g>
				<path class="st6" d="M399.4,168l-12.2-0.6c-2.1-4-7.4-6.2-12.8-6.3c-4.2-0.1-8.5,1.5-11.2,4.1c-0.8,0.8-1.4,1.6-1.9,2.4
					c-3.5-2-8.5-2.7-12.3,0.1c-0.5-0.9-1.1-1.8-1.9-2.5c-2.7-2.7-7-4.2-11.2-4.1c-5.1,0.1-10.2,2.1-12.5,5.8l-8.9,1.7
					c-0.7,0.1-1.1,0.8-1,1.4c0.1,0.6,0.6,1,1.2,1c0.1,0,0.2,0,0.2,0l7.4-1.4c-0.1,0.5-0.1,1-0.1,1.5c0,7,4.8,14.7,13.6,15.1
					c0.3,0,0.6,0,0.8,0c3.6,0,6.7-1.2,9.1-3.4c2.8-2.6,4.4-6.6,4.4-10.7c0-0.7-0.1-1.3-0.2-1.9c0.1,0,0.1-0.1,0.2-0.1
					c2.9-2.5,7.1-1.9,10.1-0.2c0.1,0,0.1,0.1,0.2,0.1c-0.2,0.7-0.3,1.4-0.3,2.1c0,4.1,1.6,8.1,4.4,10.7c2.4,2.3,5.5,3.4,9.1,3.4
					c0.3,0,0.6,0,0.8,0c8.8-0.4,13.6-8.1,13.6-15.1c0-0.4,0-0.8-0.1-1.2l11.3,0.5c0,0,0,0,0.1,0c0.6,0,1.2-0.5,1.2-1.2
					C400.5,168.6,400,168,399.4,168z M344,181c-2.1,2-4.8,2.9-8.1,2.8c-8.2-0.4-11.3-8-11.3-12.7c0-5.3,6.8-7.4,11.3-7.5
					c0.1,0,0.2,0,0.3,0c3.5,0,6.9,1.3,9.1,3.5c1.1,1,2.3,2.7,2.3,5.1C347.7,174.7,346.7,178.4,344,181z M374.3,183.7
					c-3.3,0.2-6-0.8-8.1-2.8c-2.7-2.6-3.6-6.3-3.6-8.9c0-2.3,1.3-4.1,2.3-5.1c2.2-2.1,5.7-3.5,9.1-3.5c0.1,0,0.2,0,0.3,0
					c4.5,0.1,11.3,2.2,11.3,7.5C385.6,175.7,382.5,183.3,374.3,183.7z"/>
				<g>
					<g>
						<path class="st9" d="M397.9,191c-0.1,0-0.3,0-0.4-0.1c-0.3-0.2-0.4-0.7-0.2-1c2.1-3,2.1-5.9,1.7-7.8c-0.5-2.1-0.1-4.3,1-6.1
							c0.9-1.5,3.8-6,5.2-6.6c0.4-0.2,0.8,0,0.9,0.4c0.2,0.4,0,0.8-0.4,0.9c-0.6,0.3-2.7,3-4.5,6c-0.9,1.5-1.2,3.3-0.8,5.1
							c0.5,2.2,0.5,5.5-2,8.9C398.4,190.9,398.2,191,397.9,191z"/>
					</g>
				</g>
				<g>
					<g>
						<path class="st9" d="M316.2,191c-0.2,0-0.5-0.1-0.6-0.3c-2.5-3.4-2.4-6.8-2-8.9c0.4-1.8,0.1-3.6-0.8-5.1c-1.8-3-3.9-5.7-4.5-6
							c-0.4-0.2-0.5-0.6-0.4-1c0.2-0.4,0.6-0.5,0.9-0.4c1.3,0.5,4.2,5.1,5.2,6.6c1.1,1.8,1.4,4,1,6.1c-0.4,1.9-0.4,4.8,1.7,7.8
							c0.2,0.3,0.2,0.8-0.2,1C316.5,191,316.3,191,316.2,191z"/>
					</g>
				</g>
			</g>
			<g>
				<g>
					<path class="st3" d="M322.3,351.3c0,0-0.1,0-0.1,0c-0.4-0.1-0.7-0.4-0.6-0.8c5.7-36.6,18.6-73,18.8-73.4
						c0.1-0.2,0.2-0.4,0.4-0.4l32-12.1c0.2-0.1,0.5,0,0.7,0.1l13.3,10.8c0.3,0.3,0.4,0.7,0.1,1c-0.3,0.3-0.7,0.4-1,0.1l-13-10.5
						l-31.3,11.9c-1.3,3.7-13.2,38.2-18.6,72.8C323,351,322.7,351.3,322.3,351.3z"/>
				</g>
			</g>
			<g>
				<g>
					<path class="st3" d="M345.7,286.4c-1.6,0-2.9-1.4-2.9-3.1c0-1.7,1.3-3.1,2.9-3.1c1.6,0,2.9,1.4,2.9,3.1
						C348.7,285,347.4,286.4,345.7,286.4z M345.7,281.7c-0.8,0-1.5,0.7-1.5,1.6c0,0.9,0.7,1.6,1.5,1.6s1.5-0.7,1.5-1.6
						C347.2,282.4,346.6,281.7,345.7,281.7z"/>
				</g>
			</g>
			<g>
				<g>
					<path class="st3" d="M338.5,311.6c-1.6,0-2.9-1.4-2.9-3.1c0-1.7,1.3-3.1,2.9-3.1c1.6,0,2.9,1.4,2.9,3.1
						C341.5,310.3,340.2,311.6,338.5,311.6z M338.5,306.9c-0.8,0-1.5,0.7-1.5,1.6c0,0.9,0.7,1.6,1.5,1.6s1.5-0.7,1.5-1.6
						C340,307.7,339.4,306.9,338.5,306.9z"/>
				</g>
			</g>
			<g>
				<g>
					<path class="st3" d="M331.4,336.9c-1.6,0-2.9-1.4-2.9-3.1c0-1.7,1.3-3.1,2.9-3.1s2.9,1.4,2.9,3.1
						C334.3,335.5,333,336.9,331.4,336.9z M331.4,332.2c-0.8,0-1.5,0.7-1.5,1.6c0,0.9,0.7,1.6,1.5,1.6s1.5-0.7,1.5-1.6
						C332.8,332.9,332.2,332.2,331.4,332.2z"/>
				</g>
			</g>
			<g>
				<g>
					<path class="st10" d="M325,406.5c-0.2,2.6-2.1,4.6-4.3,4.4c-2.2-0.2-3.9-2.4-3.7-5c0.2-2.6,2.1-4.6,4.3-4.4
						C323.5,401.7,325.1,403.9,325,406.5z"/>
				</g>
			</g>
		</g>
	</g>
</switch>

</svg>
