<?xml version="1.0" encoding="utf-8"?>
<!-- Generator: Adobe Illustrator 27.1.1, SVG Export Plug-In . SVG Version: 6.00 Build 0)  -->










<svg version="1.1" id="Layer_1" xmlns="http://www.w3.org/2000/svg" xmlns:xlink="http://www.w3.org/1999/xlink" x="0px" y="0px" viewBox="0 0 498.7 359" style="enable-background:new 0 0 498.7 359;" xml:space="preserve">
<style type="text/css">
	.st0{fill:#FF6B52;}
	.st1{fill:#FFFFFF;}
	.st2{fill:#2B244A;}
	.st3{fill:#8C75B5;}
	.st4{fill:#FFC37A;}
	.st5{fill:#FFA58F;}
	.st6{fill:#FFEAE0;}
	.st7{fill:#FFDCCC;}
</style>
<switch>
	
	<g>
		<g>
			<g>
				<path class="st0" d="M461.8,305.8H101.7c0,0-24.4,53.2-30.9,53.2c-4.8,0-1.2-53.2-1.2-53.2H49c-3.9,0-6.9-3.4-6.5-7.3L72.9,39.2
					c0.4-3.3,3.2-5.8,6.5-5.8h412.9c3.9,0,6.9,3.4,6.5,7.3l-30.4,259.3C467.9,303.3,465.1,305.8,461.8,305.8z"/>
				<g>
					<g>
						<circle class="st1" cx="468.9" cy="57.1" r="10"/>
						<circle class="st1" cx="435.5" cy="57.1" r="10"/>
					</g>
				</g>
				<g>
					<path class="st2" d="M219.1,79.3c-10.8,10.9-16.8,26.4-16.1,41.7c0.3,6.6,1.6,13.6-1.3,19.5c-2.6,5.3-5.4,5.7-10.6,14
						c-5.5,8.8-4,19.3-2.3,24.4c2.2,6.7,7.2,9.2,12.1,11.3c4.8,2,56.7,9.3,58.5-18.2c1.8-27.5,6.9-43.4,6.3-50.1L219.1,79.3z"/>
					<g>
						<path class="st3" d="M226,155.4c-2.4-4-1.7-8.7-0.5-12.9c1.2-4.4,2.5-8.7,2.9-13.3c0.3-4.6-0.4-9-0.9-13.5
							c-0.4-4.3-0.1-9,3.3-12c1.6-1.4-0.8-3.8-2.4-2.4c-7.8,6.9-2.9,18.4-3.4,27.2c-0.5,9.4-7.4,19.7-2,28.7
							C224.2,158.9,227.1,157.2,226,155.4L226,155.4z"/>
					</g>
					<path class="st2" d="M354.4,119.5c-2.2-2-4.8-3.6-6.8-5.9c-5.9-6.6-5.1-16.6-6.7-25.2c-1.3-6.5-4.2-12.7-8.4-17.9
						c-4.8-5.8-11.1-10.2-16.4-15.6c-5.3-5.4-9.8-12.4-9.2-19.9c0,0-16.6-5.8-17.8,11.8c-0.3,3.7,0.4,10.4,1.7,18.9
						c-8.1,0.1-15.3,1.2-15.3,1.2c-3.5,12.9-7,26.8-2.5,39.4c2.3,6.6,6.7,12.5,8.5,19.3c2,7.7-0.8,17.9-0.1,25.8
						c1.1,13.1,8.9,20.9,20.4,22.7c22.3,3.5,55-7.3,63.1-20.9C370.8,141.5,363.3,127.7,354.4,119.5z"/>
					<path class="st4" d="M168.5,305.8c0,0-2.6-95.3,14.3-127.9c16.9-32.7,98.3-46.4,98.3-46.4s64.7-9.7,98.7,14.6
						c29.8,21.3,35.6,51,41.8,98c5.1,38.6,8.5,61.7,8.5,61.7H168.5z"/>
					<polygon class="st5" points="76.7,247.5 99.1,280.8 146.7,244.1 115.6,206.6 					"/>
					<polygon class="st4" points="93.4,276.4 146.7,244.1 200,305.5 112,305.5 					"/>
					<g>
						<path class="st2" d="M269.4,144.2c1.1,40.8,3.5,81.6,7.3,122.3c1.1,11.5,2.3,23.1,3.5,34.6c0.2,2.1,3.6,2.1,3.3,0
							c-4.5-40.6-7.7-81.3-9.6-122.1c-0.5-11.6-0.9-23.2-1.2-34.8C272.7,142.1,269.3,142.1,269.4,144.2L269.4,144.2z"/>
					</g>
					<g>
						<path class="st2" d="M248.6,138.3c-1,8.2-1.9,16.3-2.8,24.5c-0.2,1.7-0.6,3.6-0.3,5.3c0.4,2,2.1,3.5,4.1,3.1
							c2.4-0.4,4.4-2.8,6-4.4c1.9-1.9,3.8-3.8,5.7-5.7c4.2-4.5,8.2-9.2,12-14.2c1.3-1.7-1.6-3.4-2.9-1.7c-3.8,4.9-7.8,9.6-12,14.1
							c-2,2.1-4,4.1-6.1,6.1c-0.4,0.4-2.6,3-3.3,2.5c-0.6-0.4-0.1-2.3-0.1-2.9c1-8.9,2-17.8,3.1-26.7
							C252.2,136.2,248.9,136.2,248.6,138.3L248.6,138.3z"/>
					</g>
					<g>
						<path class="st2" d="M304.9,129.8c1.1,9.1,2.3,18.3,3.5,27.4c0.3,2,0.5,4.1,0.8,6.1c0.1,0.7,0.2,1.4,0.3,2.1
							c0.2,1.5,0.3,2.9-1.6,2.4c-2.6-0.7-5.1-3.2-7.3-4.7c-2.6-1.8-5.1-3.7-7.6-5.6c-5.7-4.3-11.3-8.7-16.6-13.4
							c-1.6-1.4-4,1-2.4,2.4c5.2,4.5,10.6,8.7,16,12.9c2.9,2.2,5.7,4.3,8.6,6.4c2.4,1.7,4.9,4.1,7.8,5c2.7,0.9,5.7,0.4,6.4-2.8
							c0.4-2-0.2-4.3-0.4-6.3c-0.7-5.3-1.3-10.6-2-15.9c-0.7-5.4-1.4-10.8-2-16.1C308,127.7,304.6,127.7,304.9,129.8L304.9,129.8z"/>
					</g>
					<g>
						<path class="st2" d="M219,222.2c-2.3,8-4.6,16.1-6.8,24.1c-2.1,7.6-3.9,15.5-2.9,23.4c1.4,11.7,12.6,21.4,24.3,21.8
							c2.2,0.1,2.1-3.3,0-3.3c-5.4-0.2-10.6-2.9-14.5-6.6c-4.7-4.3-6.6-9.5-6.7-15.8c-0.1-7.3,1.9-14.4,3.8-21.3
							c2-7.1,4-14.3,6-21.4C222.8,221,219.6,220.2,219,222.2L219,222.2z"/>
					</g>
					<g>
						<path class="st2" d="M306.9,293.1c9.6,3.1,20.3,2.4,29.3-2.3c8.1-4.1,14.3-11.2,17.8-19.5c0.8-2-2.4-2.8-3.2-0.9
							c-7,16.7-26,25-43.1,19.4C305.7,289.2,304.8,292.5,306.9,293.1L306.9,293.1z"/>
					</g>
					<g>
						<path class="st2" d="M351,234.2c-0.4,23.5-0.2,47,0.8,70.4c0.1,2.1,3.4,2.2,3.3,0c-0.9-23.4-1.2-46.9-0.8-70.4
							C354.3,232,351,232,351,234.2L351,234.2z"/>
					</g>
					<g>
						<path class="st2" d="M226.1,289.7c0,4.5,0,8.9,0,13.4c0,2.2,3.3,2.2,3.3,0c0-4.5,0-8.9,0-13.4
							C229.4,287.6,226.1,287.6,226.1,289.7L226.1,289.7z"/>
					</g>
					<g>
						<path class="st2" d="M168.4,272.9c8.7,11.1,17.4,22.1,26.3,33c1.4,1.7,3.7-0.7,2.4-2.4c-8.8-11-17.6-22-26.3-33
							C169.5,268.8,167.1,271.2,168.4,272.9L168.4,272.9z"/>
					</g>
					<g>
						<path class="st2" d="M110.5,299.7c17.8-11,35.8-21.7,53.9-32.3c1.9-1.1,0.2-4-1.7-2.9c-18.1,10.5-36.1,21.3-53.9,32.3
							C107,297.9,108.6,300.8,110.5,299.7L110.5,299.7z"/>
					</g>
				</g>
				<g>
					<path class="st5" d="M100.3,196.2c-8.9-4.2-19-6.8-29.1-8.2c-4.4-0.6-8.8-1.3-13.2-1.7c-9.1-1-21-1.7-22.4,2.4
						c-2.9,9,15.2,13.5,15.2,13.5c-25.4-0.6-43.5,0.8-46.6,6.2c-1.5,2.6-1.4,6.2,2.5,7.1c0,0-2.6,0.2-5,2.3
						c-2.4,2.1-3.9,8.9,7.9,10.5c0,0-6.8,2.3-7,6.2c-0.2,4.8,3.7,6.9,11.6,7.5c8.2,0.6,61.3,8.3,69.7,7.4
						c36.1-4,37.8-31.3,37.8-31.3C118.9,208.2,112.8,202,100.3,196.2z"/>
					<g>
						<path class="st2" d="M6.6,217.1c13.2,0,26.4,0.1,39.6,0.1c2.2,0,2.2-3.3,0-3.3c-13.2,0-26.4-0.1-39.6-0.1
							C4.5,213.8,4.5,217.1,6.6,217.1L6.6,217.1z"/>
					</g>
					<g>
						<path class="st2" d="M9,230c13.2,0,26.4,0.1,39.6,0.1c2.2,0,2.2-3.3,0-3.3c-13.2,0-26.4-0.1-39.6-0.1
							C6.8,226.6,6.8,229.9,9,230L9,230z"/>
					</g>
					<g>
						<path class="st2" d="M50,204.2c5.6,9.6,15.4,16.5,26.3,18.5c2.1,0.4,3-2.9,0.9-3.2c-10.1-1.8-19.1-8-24.3-16.9
							C51.8,200.7,48.9,202.4,50,204.2L50,204.2z"/>
					</g>
				</g>
				<g>
					<polygon class="st5" points="298.7,129.9 270.6,152.1 257.2,137.9 247.5,97.8 281.2,77.9 					"/>
					<path class="st5" d="M303,30.1c-5.9-27.9-30.4-31.5-55.6-22.7c-25.2,8.8-30.7,20.5-32.1,43.3c-1.5,22.8,0.8,44.9,2.9,52.5
						c4.2,15.4,13.8,26.8,32.9,18.6c19.6-8.3,27-21.8,35-32.2C292.2,81.9,308.9,58,303,30.1z"/>
					<path class="st2" d="M222.5,70.2c-0.5-0.9-1.6-1.5-2.6-1.5c-1.2,0-2.2,1-2.6,2.1c-0.4,1.1-0.5,2.5-0.5,3.7c0,1.4,0.3,3,1.2,4.1
						c1.6,1.8,3.9,0.8,4.7-1C223.9,75.2,223.5,71.8,222.5,70.2z"/>
					<path class="st2" d="M244.1,70.2c-0.5-0.9-1.6-1.5-2.6-1.5c-1.2,0-2.2,1-2.6,2.1c-0.4,1.1-0.5,2.5-0.5,3.7c0,1.4,0.3,3,1.2,4.1
						c1.6,1.8,3.9,0.8,4.7-1C245.5,75.2,245.1,71.8,244.1,70.2z"/>
					<path class="st2" d="M304.7,26.6C297.3-1,269-5.1,244.3,5.1c-20.6,8.4-31.6,20.3-28.3,37.3c5.8-5.5,10.1-7.5,15.2-8.1
						c0.5,3.4,2.6,8.9,7.6,12.4c1.6,1.1,5.2,2.2,7.1,2.6c9.6,2.4,12.6,4.9,18,12.5c0,0,0,0,0,0c0.8,1.8,1.7,3.6,3.3,5.7
						c4.6,6.2-7.7,29.7,22.9,36.9c1.9,0.4,20.8-20.3,22.8-20.4C321.8,73.3,309.6,45.1,304.7,26.6z"/>
					<g>
						<path class="st3" d="M343.4,129.1c-8.2-6-10.2-16.2-13.2-25.3c-1.7-5-3.5-10-6.1-14.6c-2.6-4.6-6.2-8.4-10-12.1
							c-3.8-3.7-7.7-7.3-10.1-12.1c-2.6-5-3-10.8-4.2-16.2c-2-9.2-6.7-16.9-13.9-22.9c-3.9-3.2-8.4-5.6-12.3-8.9
							c-4.5-3.9-8.1-8.7-10.1-14.3c-0.7-2-3.9-1.1-3.2,0.9c1.8,5,4.6,9.5,8.3,13.3c3.3,3.3,7.1,5.7,10.9,8.3
							c7.8,5.5,13.8,12.4,16.4,21.7c1.6,5.7,1.9,11.8,4.2,17.4c1.9,4.8,5.2,8.7,8.8,12.3c3.8,3.8,7.9,7.3,10.9,11.8
							c3.2,4.8,5.2,10.1,7,15.5c1.8,5.4,3.4,10.9,5.6,16.2c2.1,4.9,5.2,8.7,9.4,11.8C343.4,133.2,345.1,130.3,343.4,129.1
							L343.4,129.1z"/>
					</g>
					<path class="st5" d="M278.3,69.9c2,7.4-2.4,15-9.8,16.9c-7.4,2-15-2.4-16.9-9.8c-2-7.4,2.4-15,9.8-16.9
						C268.7,58.2,276.3,62.6,278.3,69.9z"/>
					<g>
						<path class="st2" d="M229.2,72.7c-0.9,1.9-1.8,3.7-2.7,5.6c-0.9,1.9-1.9,3.7-2.6,5.7c-0.8,1.9-0.2,4.2,1.9,4.8
							c1.8,0.5,4,0,5.7-0.6c0.8-0.3,1.4-1.1,1.2-2.1c-0.2-0.8-1.2-1.5-2.1-1.2c-0.7,0.3-1.4,0.5-2.1,0.6c-0.3,0.1-0.7,0.1-1,0.1
							c-0.3,0-0.6,0-0.6,0c-0.1,0-0.1,0-0.1,0c0.1,0.1,0,0-0.1-0.1c0,0,0.2,0.2,0.2,0.3c0.1,0,0,0,0-0.1c0,0,0.1-0.2,0.1-0.3
							c0.2-0.6,0.6-1.3,0.9-1.9c1.4-3,2.8-6,4.3-9c0.4-0.8,0.2-1.8-0.6-2.3C230.7,71.7,229.5,71.9,229.2,72.7L229.2,72.7z"/>
					</g>
					<g>
						<path class="st2" d="M265.8,68.7c0.3,0,0.6,0,0.9,0c0.1,0,0.2,0,0.4,0c0.1,0,0.1,0-0.1,0c0.1,0,0.1,0,0.2,0
							c0.3,0,0.5,0.1,0.8,0.2c0.1,0,0.3,0.1,0.4,0.1c-0.2-0.1-0.1,0,0.1,0c0.2,0.1,0.5,0.2,0.7,0.4c0.1,0.1,0.2,0.2,0.4,0.2
							c-0.2-0.2,0,0,0.1,0.1c0.2,0.2,0.4,0.3,0.5,0.5c0.1,0.1,0.3,0.3,0.1,0.1c0.1,0.1,0.2,0.2,0.2,0.4c0.1,0.1,0.1,0.2,0.2,0.3
							c0,0,0.2,0.4,0.1,0.3c-0.1-0.2,0.1,0.2,0.1,0.2c0,0.1,0.1,0.3,0.1,0.4c0,0.1,0.1,0.3,0.1,0.4c0,0,0.1,0.4,0,0.2
							c0-0.2,0,0.2,0,0.3c0,0.1,0,0.2,0,0.4c0,0.2,0,0.3,0,0.4c0,0.5,0.1-0.3,0,0.2c0,0.2-0.1,0.5-0.2,0.7c0,0.1-0.1,0.3-0.1,0.4
							c-0.2,0.4,0.1-0.3-0.1,0.1c-0.1,0.3-0.3,0.5-0.5,0.8c-0.5,0.7-0.2,1.9,0.6,2.3c0.8,0.4,1.8,0.2,2.3-0.6
							c1.7-2.5,1.8-6.1,0.2-8.6c-1.6-2.5-4.6-4-7.5-3.7c-0.9,0.1-1.7,0.7-1.7,1.7C264.1,67.8,264.8,68.8,265.8,68.7L265.8,68.7z"/>
					</g>
					<g>
						<path class="st2" d="M254.9,123.9c4.1-2.1,7.8-4.7,11.2-7.7c0.7-0.6,0.6-1.7,0-2.4c-0.7-0.7-1.7-0.6-2.4,0
							c-3.2,2.9-6.7,5.3-10.5,7.2c-0.8,0.4-1,1.5-0.6,2.3C253.1,124.1,254.1,124.3,254.9,123.9L254.9,123.9z"/>
					</g>
					<path class="st6" d="M225.2,96l16.9-3c0,0-0.2,7-7.2,8.3C227.8,102.5,225.2,96,225.2,96z"/>
					<path class="st2" d="M234.7,62.3c1.1,4.3,4.9,1.5,9.5,3.2c4.3,1.5,7.2,1.3,7.4-1.1c0.2-3-3.8-6.7-10-7.2
						C235.7,56.7,233.9,59.1,234.7,62.3z"/>
					<path class="st2" d="M226.3,62.7c-0.9,4.4-4.7,1.7-9.3,3.7c-0.8,0.4-1.6,0.6-2.3,0.8c-1.7-2-1.7-5.9,0.1-8
						c1.3-0.6,2.7-1,4.3-1.2C225,57.2,227,59.5,226.3,62.7z"/>
				</g>
				<g>
					<path class="st3" d="M233,33.5c1.5-7.2,6.1-13.2,11.5-18c6.1-5.5,13.6-9.5,21.4-12c2-0.7,1.2-3.9-0.9-3.2
						c-8.4,2.7-16.3,7-22.9,12.9c-5.8,5.1-10.8,11.8-12.3,19.5C229.4,34.7,232.6,35.6,233,33.5L233,33.5z"/>
				</g>
				<g>
					<path class="st3" d="M243.2,13.7c0.8,8.9,5.2,18.3,12,24.2c4.1,3.5,9.1,5.3,13.7,8c4.4,2.7,8.2,6.3,11,10.5
						c3,4.4,4.7,9.2,6,14.4c1.3,5.1,2.4,10.3,5,14.9c2.3,4,5.7,7.1,8.8,10.5c3,3.2,4.8,6.5,5.8,10.7c0.9,4,1.8,8,3.5,11.7
						c2.1,4.6,5.5,8.4,9.6,11.2c1.8,1.2,3.5-1.7,1.7-2.9c-7.2-4.9-9.6-12.2-11.5-20.3c-0.9-3.7-2.1-6.9-4.4-10
						c-2.9-3.7-6.6-6.6-9.3-10.4c-6-8.2-5.6-19.3-10.4-28.1c-2.2-4.1-5.2-7.9-8.7-10.9c-3.8-3.4-8.2-5.5-12.7-7.9
						c-5-2.6-8.8-6-11.8-10.8c-2.7-4.4-4.7-9.5-5.1-14.7C246.4,11.6,243,11.6,243.2,13.7L243.2,13.7z"/>
				</g>
			</g>
			<g>
				<path class="st7" d="M141.4,90H39.5c-13.7,0-24.9,11.2-24.9,24.9v0c0,13.7,11.2,24.9,24.9,24.9h101.8
					c13.7,0,24.9-11.2,24.9-24.9v0C166.3,101.2,155.1,90,141.4,90z"/>
				<path class="st7" d="M166.3,109.4V83c0-2.3-2.3-4-4.5-3.1L135.5,90L166.3,109.4z"/>
				<path class="st2" d="M60.5,111.8c-4,0-4,6.2,0,6.2C64.5,117.9,64.5,111.8,60.5,111.8z"/>
				<path class="st2" d="M90.5,111.8c-4,0-4,6.2,0,6.2C94.5,117.9,94.5,111.8,90.5,111.8z"/>
				<path class="st2" d="M120.5,111.8c-4,0-4,6.2,0,6.2C124.5,117.9,124.5,111.8,120.5,111.8z"/>
			</g>
		</g>
	</g>
</switch>

</svg>
