<?xml version="1.0" encoding="utf-8"?>
<!-- Generator: Adobe Illustrator 27.1.1, SVG Export Plug-In . SVG Version: 6.00 Build 0)  -->










<svg version="1.1" id="Layer_1" xmlns="http://www.w3.org/2000/svg" xmlns:xlink="http://www.w3.org/1999/xlink" x="0px" y="0px" viewBox="0 0 499.4 418.4" style="enable-background:new 0 0 499.4 418.4;" xml:space="preserve">
<style type="text/css">
	.st0{fill:#CCB16C;}
	.st1{fill:#FFFFFF;}
	.st2{fill:#FFEAE0;}
	.st3{fill:#FFA58F;}
	.st4{fill:#2B244A;}
	.st5{fill:#8C75B5;}
	.st6{fill:#FFDCCC;}
</style>
<switch>
	
	<g>
		<g>
			<path class="st0" d="M492.3,62.1H32.2L18.8,175.4L0,352.2c-0.5,4.2,2.8,8,7.1,8h12.2c0,0-4,58.2,1.3,58.2
				c7.1,0,33.9-58.2,33.9-58.2h404.5c3.6,0,6.7-2.7,7.1-6.3L499.4,70C499.9,65.8,496.6,62.1,492.3,62.1z"/>
			<g>
				<g>
					<path class="st1" d="M477.8,87.9c0,6.1-4.9,11-11,11c-6.1,0-11-4.9-11-11c0-6.1,4.9-11,11-11C472.8,77,477.8,81.9,477.8,87.9z"/>
					<path class="st1" d="M441.2,87.9c0,6.1-4.9,11-11,11c-6.1,0-11-4.9-11-11c0-6.1,4.9-11,11-11C436.2,77,441.2,81.9,441.2,87.9z"/>
				</g>
			</g>
			<path class="st2" d="M474.7,280.4l-8.6,73.4c-0.4,3.4-3.2,6.1-6.6,6.3H113.3c0.8-4.2,5.8-57.7,7.4-62.2
				c10.7-30,8.7-61.6,22.4-83.2c13.2-20.6,21.7-26.7,45.6-36.9c23.6-10.1,52.8-16.7,80.2-21c25.8-4.1,52.6-7.5,80.1-7.5
				c32.8,0,66.1,6.1,90.4,32.2c7.4,8,12.8,16.8,16.9,26.1c5.2,11.8,8.3,24.4,11.1,36.9C468.2,248.1,471.4,263.1,474.7,280.4z"/>
			<path class="st3" d="M286.9,89.2l11.6,63.5c0,0-20.2,34.9-60.2,10l-8.3-38.7L286.9,89.2z"/>
			<path class="st4" d="M221.4,54.9c0,11.2-9.1,20.3-20.3,20.3c-11.2,0-20.3-9.1-20.3-20.3c0-11.2,9.1-20.3,20.3-20.3
				C212.3,34.6,221.4,43.7,221.4,54.9z"/>
			<path class="st3" d="M295.9,46.7c-6.1-34.8-33.2-41.4-64.8-31.6c-31.7,9.8-38.9,24-41.8,52.3c-2.8,28.2-3,61.5-2.5,70.5
				c0.5,9,12.3,27.3,36.4,18.1c24.7-9.4,41.1-23.7,51.5-36.3C282.5,110.3,301.9,81.6,295.9,46.7z"/>
			<g>
				<path class="st4" d="M235.5,152.1c8.4-4.4,15.6-10.7,21.1-18.5c0.6-0.8,0.1-2-0.7-2.5c-0.9-0.5-1.9-0.2-2.5,0.7
					c-5.1,7.2-12,13.1-19.8,17.1C231.6,150.1,233.5,153.2,235.5,152.1L235.5,152.1z"/>
			</g>
			<path class="st4" d="M242.3,138.5c-0.1,0-0.1-0.1-0.2-0.1c-1.2-0.6-2.6-0.8-3.9-0.8c-6,0-11.1,2.8-16.6,4.6
				c-1.9,0.6-3.9,1.2-6,1.1c-2.3-0.1-3.3-1.8-4.4-3.6c-2.6-4.3-8.4-5.8-11.9-1.4c-0.6,0.8-1.1,1.8-1.8,2.5c-2,2.1-4.5-0.1-6.5-1
				c-1.2-0.5-4.6-2.1-4.8,0.4c-0.9,13,9.8,22.2,21.7,22.5c6.6,0.2,14.6-2.6,20.5-5.4c5-2.4,11.1-5.6,14.4-10.2
				C244.6,144.5,245.5,140.3,242.3,138.5z"/>
			<path class="st4" d="M203.2,68.5c-2,5.2-6.6,1-12.9,2.3c-0.5,0.1-0.9,0.2-1.3,0.2c-2.6-1.3-2.5-8,1.1-9.9c1.4-0.2,3-0.3,4.6-0.2
				C202.3,61.4,204.6,64.7,203.2,68.5z"/>
			<path class="st4" d="M213.7,68.5c2,5.2,6.6,1,12.9,2.3c5.8,1.2,9.7,0.4,9.6-2.6c-0.1-3.7-5.8-7.7-14-7.3
				C214.5,61.4,212.2,64.7,213.7,68.5z"/>
			<path class="st4" d="M227,79.5c-0.6-1.2-1.9-2.1-3.2-2.2c-1.6-0.1-2.9,1.2-3.4,2.5c-0.6,1.4-0.8,3.1-0.9,4.6
				c-0.1,1.7,0.1,3.9,1.2,5.3c1.9,2.5,4.9,1.4,6.1-1C228.3,86.1,228.1,81.6,227,79.5z"/>
			<path class="st4" d="M197.7,79.5c-0.6-1.2-1.9-2.1-3.2-2.2c-1.6-0.1-2.8,1.2-3.4,2.5c-0.6,1.4-0.8,3.1-0.9,4.6
				c-0.1,1.7,0.1,3.9,1.2,5.3c1.9,2.5,4.9,1.4,6.1-1C199,86.1,198.8,81.6,197.7,79.5z"/>
			<path class="st4" d="M290.5,95c3.4-5.9,13.1-24.9,14.4-31.6c1.3-6.7,0-14.2-5-18.9c-1.1-1.1-2.4-1.9-3.3-3.2
				c-2.9-4.1-0.2-9.9-0.7-14.9c-0.6-5.3-5.2-9.7-10.4-11c-2.7-0.7-5.5-0.7-8.2-0.2c-6.1-6.8-14.1-12-23-14.3
				c-2.8-0.7-5.9-1.2-8.7-0.5c-2.8,0.8-5.4,3.1-5.8,6c-13.1-1.6-26.3-0.7-38.5,4.5c-4,1.7-7.9,4.1-10.9,7.3
				c-1.2,1.3-2.3,2.6-3.2,4.1c-3.3,5.3-4.3,12.6-0.9,18c3.4,5.5,9.4,8.4,15.7,8.9c5.3,0.5,20.3-2.2,38.1-10.6
				c6.9-2,11.3,5.7,11.9,11.7c0.9,7.9-2.3,15.6-2.5,23.5c-0.1,6.4,2,13.1,8.5,15.3c2.6,0.9,5.2,0.9,7.8,0.4
				c0.6,8.1,2.9,15.9,10.3,20.3c5.3,3.1,12.2,4.9,15.5,5l-2.9-16.1C289.3,97.4,290.5,95,290.5,95z"/>
			<path class="st3" d="M276.4,88.4c1.6,9.3-4.6,18-13.9,19.6c-9.3,1.6-18-4.6-19.6-13.9c-1.6-9.3,4.6-18,13.9-19.6
				C266,72.9,274.8,79.1,276.4,88.4z"/>
			<path class="st4" d="M196.7,120.2c-0.7-1,0.1-2.4,1.4-2.5c6.1-0.3,12.2-0.9,18.1-1.9c1.4-0.2,2.4,1.3,1.6,2.5
				c-2.5,3.9-6.5,7.4-10.6,7.7C202.3,126.3,198.8,123.4,196.7,120.2z"/>
			<g>
				<path class="st4" d="M202.5,85.1c-1,2.9-2,5.8-3,8.6c-1,2.8-2.3,5.7-2.7,8.6c-0.3,2.6,0.7,5.3,3.2,6.4c1.2,0.5,2.6,0.5,3.9,0.6
					c1.5,0.1,3.1,0.2,4.6,0.4c2.3,0.2,2.3-3.5,0-3.7c-1.3-0.1-2.5-0.2-3.8-0.3c-1-0.1-2.1,0-3.1-0.3c-2-0.6-1.2-3.4-0.7-4.8
					c1.6-4.9,3.4-9.7,5-14.5C206.8,83.9,203.3,82.9,202.5,85.1L202.5,85.1z"/>
			</g>
			<g>
				<path class="st4" d="M257.9,83.9c2.5-0.7,5.6,0.4,7.2,2.6c1.9,2.6,1.9,6.1,0.6,8.9c-0.4,0.9-0.2,2,0.7,2.5
					c0.8,0.5,2.1,0.2,2.5-0.7c1.9-4,2-9.1-0.7-12.8c-2.5-3.4-7-5.3-11.2-4.1C254.7,81,255.6,84.5,257.9,83.9L257.9,83.9z"/>
			</g>
			<g>
				<path class="st4" d="M212.6,172.9c12.3,11.1,30.1,16.2,46.4,16.7c16.1,0.4,32.3-5.4,45-15.3c7.7-6,14-13.6,19.9-21.4
					c1.4-1.9-1.8-3.7-3.2-1.8c-5,6.6-10.4,13.1-16.8,18.6c-5.5,4.7-11.8,8.5-18.5,11.3c-7.4,3.1-15,4.9-23,5.1
					c-8.3,0.2-16.6-1.1-24.6-3.6c-8.2-2.5-16.2-6.3-22.6-12.1C213.4,168.7,210.8,171.3,212.6,172.9L212.6,172.9z"/>
			</g>
			<path class="st3" d="M96.3,226.4c0,0-11.1-30.1-25.2-59.9c-12.9-27.4-32.8-73.2-45-67.2c-4.1,2-7.1,7.5-4.1,16.1
				c5,14.3,13.4,41.9,13.4,41.9s-23.3-7.7-23.4,16.9c0,0-15.5-1-11.2,21.8c0,0.1,0,0.1,0.1,0.2c1.6,9.3,7.4,22.1,11.6,30.6
				c2.6,5.3,20.2,41.8,20.2,41.8L96.3,226.4z"/>
			<polygon class="st2" points="96.3,226.4 109.7,260.3 34.8,302.9 24.6,274.2 			"/>
			<path class="st4" d="M467.4,244.5c-2.7-12.6-5.9-25.1-11.1-36.9c-4.1-9.3-9.4-18.1-16.9-26.1c-24.3-26.1-57.6-32.2-90.4-32.2
				c-14.2,0-28.1,0.9-41.9,2.4c6.4,25.3,11.4,51,15,76.8c5,36.3,7.1,73,6.5,109.6c-0.1,7.6-0.5,22-0.5,22h131.4
				c3.4-0.2,6.2-2.8,6.6-6.3l8.6-73.4C471.4,263.1,468.2,248.1,467.4,244.5z"/>
			<path class="st4" d="M256.6,299.3c-8.7-29.6-15.4-59.9-20.1-90.4c-2.3-14.8-4-29.7-5.2-44.6c-1.9,0.4-3.8,0.9-5.6,1.4
				c-1.9,0.5-3.7,1-5.6,1.5c-1.9,0.5-3.7,1-5.5,1.6c-1.8,0.5-3.6,1.1-5.3,1.6c-0.1,0-0.1,0-0.1,0c-1.7,0.5-3.4,1.1-5.1,1.7
				c-3.6,1.2-7.1,2.5-10.5,3.8c-1.7,0.7-3.3,1.3-4.9,2c-23.9,10.2-32.4,16.3-45.6,36.9c-13.7,21.5-20.4,53.6-28.4,92.6
				c-1,4.6-9.7,48.6-10.5,52.8h173.7C269.9,340.3,262.6,319.8,256.6,299.3z"/>
			<polygon class="st4" points="109.7,260.3 34.8,302.9 55.7,360.1 149.3,360.1 			"/>
			<g>
				<path class="st5" d="M118.7,287.3c9.2,20.1,17.5,40.8,26.2,61.1c1.5,3.6,3.1,7.2,4.7,10.8c1,2.1,4.1,0.3,3.2-1.8
					c-9.2-20.1-17.5-40.8-26.2-61.1c-1.5-3.6-3.1-7.2-4.7-10.8C120.9,283.3,117.8,285.2,118.7,287.3L118.7,287.3z"/>
			</g>
			<g>
				<path class="st5" d="M210.7,171.2c-2.3,20.1-4.3,40.3-5.6,60.6c-0.2,2.4,3.5,2.3,3.7,0c1.3-20.2,3.2-40.4,5.6-60.6
					C214.7,168.8,211,168.8,210.7,171.2L210.7,171.2z"/>
			</g>
			<g>
				<path class="st5" d="M330.4,152.8c8.5,18.8,17.6,37.4,24.4,56.8c0.8,2.2,4.3,1.3,3.5-1c-7-19.8-16.2-38.6-24.8-57.7
					C332.6,148.8,329.5,150.7,330.4,152.8L330.4,152.8z"/>
			</g>
			<g>
				<path class="st5" d="M362.6,219.7c-4.3,36.7-10,73.3-16.2,109.8c-1.6,9.2-3.2,18.4-5,27.6c-0.4,2.3,3.1,3.3,3.5,1
					c7.1-36.6,12.7-73.4,17.8-110.3c1.3-9.3,2.5-18.6,3.6-28C366.5,217.4,362.9,217.4,362.6,219.7L362.6,219.7z"/>
			</g>
			<g>
				<path class="st5" d="M201.8,247.3c11.6,30.2,24.4,60,37.2,89.8c3.2,7.4,6.4,14.7,9.6,22c0.9,2.2,4.1,0.3,3.2-1.8
					c-12.9-29.4-25.5-59-37.6-88.8c-3-7.4-6-14.8-8.8-22.2C204.5,244.2,200.9,245.1,201.8,247.3L201.8,247.3z"/>
			</g>
			<g>
				<path class="st5" d="M335.1,219.5c7.3-2.9,14.7-5.7,22-8.6c0.9-0.4,1.6-1.2,1.3-2.3c-0.2-0.9-1.3-1.6-2.3-1.3
					c-7.3,2.9-14.7,5.7-22,8.6c-0.9,0.4-1.6,1.2-1.3,2.3C333.1,219.1,334.2,219.8,335.1,219.5L335.1,219.5z"/>
			</g>
			<g>
				<path class="st5" d="M207,233.6c7.3-0.3,14.7-0.6,22-1c2.3-0.1,2.4-3.8,0-3.7c-7.3,0.3-14.7,0.6-22,1
					C204.6,230,204.6,233.7,207,233.6L207,233.6z"/>
			</g>
			<g>
				<path class="st5" d="M334.6,219.5c9.9,0.7,19.9,1.3,29.8,2c2.4,0.2,2.3-3.5,0-3.7c-9.9-0.7-19.9-1.3-29.8-2
					C332.3,215.7,332.3,219.4,334.6,219.5L334.6,219.5z"/>
			</g>
			<g>
				<path class="st5" d="M379.9,280.7c3.7,21.3,8.2,42.5,12.9,63.6c1.1,5,2.3,10.1,3.5,15.1c0.6,2.3,4.1,1.3,3.5-1
					c-5-20.9-9.4-41.9-13.5-63c-1-5.2-2-10.4-2.9-15.7C383,277.4,379.5,278.4,379.9,280.7L379.9,280.7z"/>
			</g>
			<g>
				<path class="st5" d="M189.7,318.6c3.3,13.4,6.5,26.7,9.8,40.1c0.6,2.3,4.1,1.3,3.5-1c-3.3-13.4-6.5-26.7-9.8-40.1
					C192.7,315.3,189.2,316.3,189.7,318.6L189.7,318.6z"/>
			</g>
			<g>
				<path class="st5" d="M204.5,248.4c8.3-5.6,16.8-11,25.4-16.1c2-1.2,0.2-4.4-1.8-3.2c-8.6,5.1-17.1,10.4-25.4,16.1
					C200.7,246.6,202.5,249.7,204.5,248.4L204.5,248.4z"/>
			</g>
			<g>
				<path class="st6" d="M139.9,83.7H28.4c-15,0-27.3-12.3-27.3-27.3v0c0-15,12.3-27.3,27.3-27.3h111.5c15,0,27.3,12.3,27.3,27.3v0
					C167.1,71.4,154.9,83.7,139.9,83.7z"/>
				<path class="st6" d="M167.1,62.4v28.9c0,2.6-2.6,4.3-5,3.4l-28.8-11L167.1,62.4z"/>
				<path class="st4" d="M51.3,53.1c-4.3,0-4.4,6.8,0,6.8C55.6,59.8,55.6,53.1,51.3,53.1z"/>
				<path class="st4" d="M84.1,53.1c-4.3,0-4.4,6.8,0,6.8C88.5,59.8,88.5,53.1,84.1,53.1z"/>
				<path class="st4" d="M117,53.1c-4.3,0-4.4,6.8,0,6.8C121.3,59.8,121.3,53.1,117,53.1z"/>
			</g>
		</g>
	</g>
</switch>

</svg>
