<?xml version="1.0" encoding="utf-8"?>
<!-- Generator: Adobe Illustrator 27.1.1, SVG Export Plug-In . SVG Version: 6.00 Build 0)  -->










<svg version="1.1" id="Layer_1" xmlns="http://www.w3.org/2000/svg" xmlns:xlink="http://www.w3.org/1999/xlink" x="0px" y="0px" viewBox="0 0 499.1 393.6" style="enable-background:new 0 0 499.1 393.6;" xml:space="preserve">
<style type="text/css">
	.st0{fill:#8498D9;}
	.st1{fill:#FFFFFF;}
	.st2{fill:#2B244A;}
	.st3{fill:#FFC37A;}
	.st4{fill:#FFEAE0;}
	.st5{fill:#E0785E;}
</style>
<switch>
	
	<g>
		<path class="st0" d="M370.5,335.4c0,0-4,58.2,1.3,58.2c7.1,0,33.8-58.2,33.8-58.2"/>
		<g>
			<path class="st0" d="M458.8,337.6h-58.2h-35.2H7.1c-4.3,0-7.6-3.7-7.1-8L33.3,46c0.4-3.6,3.5-6.3,7.1-6.3H492
				c4.3,0,7.6,3.7,7.1,8l-33.2,283.7C465.4,334.9,462.4,337.6,458.8,337.6z"/>
			<g>
				<g>
					<path class="st1" d="M477.5,65.5c0,6.1-4.9,11-11,11c-6.1,0-11-4.9-11-11c0-6.1,4.9-11,11-11C472.6,54.6,477.5,59.5,477.5,65.5
						z"/>
					<circle class="st1" cx="429.9" cy="65.5" r="11"/>
				</g>
			</g>
			<path class="st2" d="M291,104.7c12.1-6.8,20.4-21.6,20.4-38.7c0-23.6-19.2-42.9-45.8-52.5C247.4,6.9,241,42.4,241,66
				c0,9.3,2.5,17.8,6.6,24.8c-8.2,1.8-16.2,5.4-21.9,12.1c-18.6,21.7-16.3,78.9,28.9,84.1c12.5,1.5,25.4-3.5,35.8-10.7
				c10.3-7.2,17.8-19.4,16.9-32c-0.7-9.7-5.9-18.3-10.3-26.9C294.8,113.3,292.8,109.1,291,104.7z"/>
			<g>
				<path class="st3" d="M273,158.4c-11.5,0-20.9-9.4-20.9-20.9c0-11.5,9.4-20.9,20.9-20.9c11.5,0,20.9,9.4,20.9,20.9
					C293.9,149,284.5,158.4,273,158.4z M273,120.3c-9.5,0-17.2,7.7-17.2,17.2c0,9.5,7.7,17.2,17.2,17.2c9.5,0,17.2-7.7,17.2-17.2
					C290.2,128,282.5,120.3,273,120.3z"/>
			</g>
			<path class="st2" d="M171.6,69.1c0.9,11.4-0.4,27.2-23.2,41c-22.8,13.8-37.7,17.1-53,38.5c-15.1,21.1-16.9,47.8-10.8,79.5
				c5.9,30.6,64.2,29.2,111.3,13.6c47-15.5,28.2-42.2,28.2-71.5c0-29.3,11.5-54-2.8-81.9C206.9,60.5,171.6,69.1,171.6,69.1z"/>
			<path class="st4" d="M360,337.6h-24.1h-35.2H9.8c5.6-26.8,11.2-52.2,14-61.6c3.7-12.8,7.8-25.6,13.8-37.8
				c4.7-9.6,10.6-18.9,18.3-27.5c25.4-28.1,57.6-37,88.9-39.8c26.2-2.3,51.4-1.1,75.6,0.8c25.7,2,50.5,6.1,72,14.9
				c21.5,8.8,38.9,22.6,49.7,42.1C353.2,248.8,361,323.2,360,337.6z"/>
			<g>
				<path class="st2" d="M151.7,164.2c-0.6,7.4-0.8,14.9-0.8,22.3c0.1,7,0.1,14.2,1.1,21.1c1,6.7,4.2,11.7,9.2,16.1
					c5.2,4.4,10.7,8.5,16.4,12.4c6.6,4.6,13.5,8.8,20.6,12.6c2.1,1.1,3.9-2,1.8-3.2c-7.4-4.1-14.7-8.5-21.6-13.3
					c-3.6-2.5-7.1-5.1-10.5-7.8c-3.2-2.5-6.7-5.1-9-8.5c-2.4-3.4-3.2-7.5-3.6-11.5c-0.4-4.3-0.6-8.7-0.7-13
					c-0.2-9.1,0-18.2,0.7-27.3C155.6,161.8,151.9,161.8,151.7,164.2L151.7,164.2z"/>
			</g>
			<g>
				<path class="st2" d="M251.9,170.5c4.2,7,8.1,14.2,11.7,21.5c1.8,3.6,3.6,7.3,5.1,11c1.6,3.8,3.1,8,2,12.1
					c-0.9,3.5-3.3,6.3-5.7,8.8c-2.6,2.8-5.4,5.5-8.2,8.2c-5.8,5.7-11.8,11.2-17.9,16.6c-1.8,1.6,0.8,4.1,2.6,2.6
					c6.7-6,13.4-12.1,19.8-18.4c5-4.9,11.7-10.3,13.1-17.5c1.6-7.9-3.2-16-6.5-22.8c-3.9-8.1-8.2-16.1-12.8-23.9
					C253.8,166.6,250.7,168.4,251.9,170.5L251.9,170.5z"/>
			</g>
			<path class="st5" d="M226.4,337.6H222c-7.2-28.8-35.4-139.2-50.7-168c-0.9-1.6-1.7-3-2.5-4.1l66.2,7.6c0,0,0,0,0,0.1
				C235.9,176.5,257.1,256.2,226.4,337.6z"/>
			<g>
				<path class="st5" d="M188.2,93.5l-20.9,77.1c0,0,31.5,22.8,67.6,2.5l5.3-34.4L188.2,93.5z"/>
			</g>
			<path class="st5" d="M177.5,34.8C188-2.1,218-6,251.1,8.2c33.1,14.2,39.3,30.4,39,61.2c-0.2,30.8-3.9,66.7-5.5,76.4
				c-1.6,9.7-16.4,28-41.3,15.3c-25.6-13.1-41.6-30.4-51.4-45.1C184.5,105,166.9,71.7,177.5,34.8z"/>
			<path class="st2" d="M263.8,81.3c-2.1,5.6-7.1,1.1-14,2.5c-6.3,1.3-10.5,0.5-10.5-2.8c0.1-4,6.3-8.4,15.2-7.9
				C262.9,73.6,265.3,77.2,263.8,81.3z"/>
			<path class="st2" d="M289.6,87.9c-6.1-2.3-11.6,0.6-12.4-5.2c-0.6-4.3,2.5-7.4,10.8-6.1c0.7,0.1,1.3,0.2,1.9,0.4
				C292.9,79.2,292.6,86,289.6,87.9z"/>
			<path class="st2" d="M258.6,90c-0.6-1.3-1.8-2.4-3.3-2.6c-1.7-0.2-3.2,1-3.9,2.4c-0.8,1.5-1.2,3.3-1.4,4.9
				c-0.2,1.9-0.2,4.2,0.9,5.9c1.8,2.8,5.2,1.9,6.7-0.5C259.4,97.3,259.7,92.4,258.6,90z"/>
			<path class="st2" d="M288.8,93.3c-0.6-1.3-1.8-2.4-3.3-2.6c-1.7-0.2-3.2,1-3.9,2.4c-0.8,1.5-1.2,3.3-1.4,4.9
				c-0.2,1.9-0.2,4.2,0.9,5.9c1.8,2.8,5.2,1.9,6.7-0.5C289.6,100.5,289.8,95.7,288.8,93.3z"/>
			<g>
				<path class="st2" d="M267.2,118.3c2.4,0,5.1-0.1,7.3-1.4c2.6-1.5,3.6-4.3,3.4-7.1c-0.3-3.2-1.1-6.5-1.7-9.7
					c-0.7-3.4-1.3-6.9-2-10.3c-0.4-2.3-4-1.3-3.5,1c1.1,5.6,2.1,11.2,3.2,16.9c0.4,1.9,1,4.6-0.9,6c-1.6,1.1-3.9,1.1-5.7,1.1
					C264.8,114.6,264.8,118.3,267.2,118.3L267.2,118.3z"/>
			</g>
			<path class="st2" d="M271.8,17.8C259.9,8.6,244.2,2.2,229,0.5c-13.8-1.3-27.2-0.9-41.8,10c-10.9,8.2-23.5,32.9-15.5,58.5
				c2.3,7.4,2.6,42.3,2.6,42.3l-48.4,62.4c87.6,27.9,78.7-22.9,87.1-65.1c6.3-31.8,28.1-27.2,41.9-39.6C270.2,55.1,269,31,269,31
				l18.8,13.3C286.5,34.7,283.2,26.7,271.8,17.8z"/>
			<path class="st5" d="M241.7,94.3c3.2,11-3.2,22.6-14.3,25.7c-11,3.2-22.6-3.2-25.7-14.3c-3.2-11,3.2-22.6,14.3-25.7
				C227,76.9,238.5,83.3,241.7,94.3z"/>
			<g>
				<path class="st3" d="M199.2,153.7c-11.5,0-20.9-9.4-20.9-20.9c0-11.5,9.4-20.9,20.9-20.9c11.5,0,20.9,9.4,20.9,20.9
					C220.1,144.4,210.7,153.7,199.2,153.7z M199.2,115.6c-9.5,0-17.2,7.7-17.2,17.2c0,9.5,7.7,17.2,17.2,17.2
					c9.5,0,17.2-7.7,17.2-17.2C216.5,123.3,208.7,115.6,199.2,115.6z"/>
			</g>
			<g>
				<path class="st2" d="M222,147.3c1.8,2.3,3.8,4.4,5.9,6.4c2.2,2,4.6,3.9,7,5.7c0.8,0.6,2,0.1,2.5-0.7c0.6-0.9,0.1-1.9-0.7-2.5
					c-2.1-1.6-4.4-3.4-6.4-5.3c-2.1-1.9-4-4.1-5.8-6.3c-0.6-0.8-1.9-0.6-2.6,0C221.2,145.4,221.4,146.5,222,147.3L222,147.3z"/>
			</g>
			<g>
				<path class="st2" d="M216.5,107.4c-2.6-2.7-3.2-6.6-1.8-9.9c0.6-1.5,1.8-3.1,3.2-4c1.8-1.2,3.6-1.7,5.8-1.6c2.4,0,2.4-3.6,0-3.7
					c-4.2,0-8.2,1.7-10.8,5.1c-2.3,3-3.1,7-2.2,10.7c0.5,2.2,1.7,4.3,3.3,5.9C215.6,111.7,218.1,109.1,216.5,107.4L216.5,107.4z"/>
			</g>
			<path class="st1" d="M265.5,134.1c-4-0.2-7.9-3.7-10.4-7.5c-0.8-1.2,0.2-2.7,1.6-2.5c5.8,1,11.7,1.6,17.7,1.9
				c1.2,0.1,2,1.4,1.3,2.4C273.8,131.6,270.3,134.4,265.5,134.1z"/>
			<g>
				<path class="st2" d="M114.8,302.1c-1.8,11.8-3.3,23.6-4.5,35.4c-0.2,2.3,3.4,2.3,3.7,0c1.1-11.5,2.6-23,4.3-34.4
					C118.7,300.7,115.2,299.7,114.8,302.1L114.8,302.1z"/>
			</g>
			<g>
				<path class="st2" d="M289.7,308.9c-0.9,9.2-1.8,18.3-2.7,27.5c-0.2,2.3,3.4,2.3,3.7,0c0.9-9.2,1.8-18.3,2.7-27.5
					C293.6,306.6,289.9,306.6,289.7,308.9L289.7,308.9z"/>
			</g>
		</g>
	</g>
</switch>

</svg>
