<?xml version="1.0" encoding="utf-8"?>
<!-- Generator: Adobe Illustrator 27.1.1, SVG Export Plug-In . SVG Version: 6.00 Build 0)  -->










<svg version="1.1" id="Layer_1" xmlns="http://www.w3.org/2000/svg" xmlns:xlink="http://www.w3.org/1999/xlink" x="0px" y="0px" viewBox="0 0 498.9 415" style="enable-background:new 0 0 498.9 415;" xml:space="preserve">
<style type="text/css">
	.st0{fill:#CCB16C;}
	.st1{fill:#FFFFFF;}
	.st2{fill:#2B244A;}
	.st3{fill:#FFEAE0;}
	.st4{fill:#8C75B5;}
	.st5{fill:#FFA58F;}
	.st6{fill:#633022;}
	.st7{fill:#C28353;}
</style>
<switch>
	
	<g>
		<g>
			<path class="st0" d="M498.8,73.4l-34.5,277c-0.5,4.1-4.7,7.8-8.9,7.8H433c0,0-30.4,56.8-35.7,56.8c-7.1,0,0.7-56.8,0.7-56.8H5.6
				c-3.6,0-6-2.7-5.5-6.2L1.6,340l0.6-4.5l7.1-57L34.6,75c0.5-4.1,4.7-7.8,8.9-7.8h449.8C496.9,67.3,499.3,69.9,498.8,73.4z"/>
			<g>
				<g>
					
						<ellipse transform="matrix(0.9872 -0.1594 0.1594 0.9872 -9.4223 68.5788)" class="st1" cx="422.7" cy="93" rx="10.9" ry="10.9"/>
					<path class="st1" d="M448.2,93c0,6,4.9,10.9,10.9,10.9c6,0,10.9-4.9,10.9-10.9c0-6-4.9-10.9-10.9-10.9
						C453.1,82.1,448.2,87,448.2,93z"/>
				</g>
			</g>
			<g>
				<g>
					<path class="st2" d="M397,358.2c0,0.2,0,0.3,0,0.3H207.1l-10.3,0H37.6c-0.1-0.1-0.1-0.2-0.2-0.3c0,0,0,0,0,0H5.6
						c-3.6,0-6-2.7-5.5-6.2L1.6,340l0.6-4.5l7.1-57l91.5-100.3c2.8-3.1,5.9-6.1,9.3-9c18.5-15.5,42.1-20.6,63.4-22.5
						c10.8-0.9,21.5-1.2,32.2-1.1h1.7c5,0.1,10.1,0.2,15,0.5h0.4c1,0.1,1.9,0.1,2.9,0.1c6.2,0.3,12.3,0.7,18.3,1.2
						c13.3,1,26.4,2.5,39.2,4.9c0.1,0,0.1,0,0.2,0c0.5,0.1,1.1,0.2,1.6,0.3c7.2,1.4,14.3,3.1,21.2,5.2h0.1c0.3,0.1,0.6,0.2,0.9,0.3
						h0c2.5,0.8,4.9,1.5,7.3,2.4c22.1,7.7,42.8,18.9,56.3,36.9C405.1,243.3,397.5,352,397,358.2z"/>
					<path class="st3" d="M284.2,154.2c-0.4-0.9-0.7-1.5-0.9-2c0,0,0-0.1,0-0.1v0c0,0,0,0,0-0.1c-12.7-2.5-25.9-3.9-39.2-4.9
						c-6.1-0.4-12.2-0.8-18.4-1.1c0,0,0,0.1-0.1,0.1c-0.2,0.4-0.4,0.8-0.6,1.2c-0.5,1-1,2.1-1.4,3.1c-6.9,15.6-7.4,31.1-6.6,43.5
						c0.1,1.1,0.1,2.1,0.2,3.1c0.2,2.3,0.4,4.5,0.7,6.5c3.7,33.4,8.9,66.6,13.7,99.8c0.1,0.8,0.2,1.5,0.3,2.3v0
						c0.9,5.4,1.6,10.9,2.5,16.3c0.2,1.6,0.5,3.2,0.7,4.8c0.2,1.6,0.5,3.2,0.8,4.9c0.7,4.8,1.4,9.5,2.2,14.3v0
						c0,0.2,0.1,0.4,0.1,0.6c4.4-11.6,9-23.1,13.4-34.6c0.1-0.4,0.2-0.7,0.4-1.1c0.3-0.8,0.6-1.5,0.9-2.3
						c12.9-33.3,25.2-66.7,33.7-101c0.5-2.2,1-4.4,1.4-6.5c0.3-1.7,0.5-3.4,0.8-5.1C291.6,175,286.5,160,284.2,154.2z"/>
					<g>
						<path class="st4" d="M171.5,211.6c14.1,37.4,28,74.9,41.4,112.6c3.7,10.5,7.4,20.9,11,31.4c0.8,2.2-2.7,3.2-3.5,1
							c-13.1-37.8-26.8-75.4-40.7-112.9c-3.9-10.4-7.8-20.8-11.7-31.2C167.2,210.4,170.7,209.4,171.5,211.6L171.5,211.6z"/>
					</g>
					<g>
						<path class="st4" d="M69.9,304.7c-7.4,3.5-14.7,7-22,10.6c-7.9,3.9-15.7,7.9-23.5,12c-1.1,0.5-2.2,1.1-3.2,1.7
							C14.5,332.6,8,336.2,1.6,340l0.6-4.5c14.4-8.3,29.2-16,44.1-23.4c7.2-3.6,14.5-7.1,21.8-10.5C70.2,300.6,72,303.7,69.9,304.7z
							"/>
					</g>
					<path class="st1" d="M84.4,358.5l122.7,0l10.6-123.4c0.2-2.1-1.5-4-3.6-4H99c-1.9,0-3.5,1.4-3.6,3.3L84.4,358.5z"/>
					<path class="st5" d="M149.1,358.5c-0.2-7.5,11.8-11.4,11.8-11.4s-11.8,0.5-11.7-7c0-5.7,12.2-8.8,14.1-9.2
						c-1.7,0.3-10.9,2.4-10.8-5.2c0.1-6,11.2-10.5,16-11.9c12.2-3.3,27.8-5.6,42.9-6.1l1.4-16c12.2,7.7,22.7,16.8,22.7,16.8l0,0
						c1.4,0.2,2.8,0.4,4.2,0.6l-12.6,49.2L149.1,358.5z"/>
					<g>
						<path class="st2" d="M255.7,208.4c-5.5,35.5-10.4,71.1-14.3,106.8c-1.2,10.5-2.3,21.1-3.3,31.6c-0.2,2.3-3.9,2.3-3.6,0
							c3.6-36,7.9-71.9,13-107.7c1.5-10.6,3.1-21.2,4.8-31.7C252.5,205.1,256.1,206.1,255.7,208.4L255.7,208.4z"/>
					</g>
					<g>
						<path class="st4" d="M335,235.1c-18.3,32-37.2,63.6-56.7,94.8c-5.5,8.8-11.1,17.7-16.7,26.5c-1.3,2-4.4,0.1-3.1-1.8
							c19.9-31,39.1-62.4,57.8-94.2c5.3-9,10.5-18,15.7-27.1C333,231.2,336.2,233.1,335,235.1L335,235.1z"/>
					</g>
					<path class="st2" d="M237.3,308.1l-10.2,50.5H395L368,334.6C368,334.6,284,317.3,237.3,308.1z"/>
					<g>
						<path class="st4" d="M333,235.9c-11.7-1.9-23.4-4.1-35.2-5.9c-2.3-0.4-1.3-3.9,1-3.5c11.7,1.9,23.4,4.1,35.2,5.9
							C336.2,232.8,335.3,236.3,333,235.9L333,235.9z"/>
					</g>
					<g>
						<path class="st4" d="M359.9,336.9c-30.8-8.6-61.8-16.6-93.3-22.2c-9.7-1.7-19.5-3.3-29.3-4.9c-2.3-0.4-1.3-3.9,1-3.5
							c31.4,4.9,62.5,11,93.3,19.1c9.8,2.6,19.5,5.3,29.3,8C363.1,334,362.1,337.5,359.9,336.9L359.9,336.9z"/>
					</g>
					<g>
						<path class="st4" d="M267.7,313.4c-2.9,15-6.4,29.8-10.6,44.5c-0.6,2.3-4.2,1.3-3.5-1c4.2-14.7,7.7-29.5,10.6-44.5
							C264.7,310.1,268.2,311.1,267.7,313.4L267.7,313.4z"/>
					</g>
					<g>
						<path class="st2" d="M203.9,326.4c-13.2,1.4-26.4,3.2-39.5,5.5c-2.3,0.4-3.3-3.1-1-3.5c13.4-2.4,26.9-4.2,40.4-5.6
							C206.2,322.5,206.2,326.2,203.9,326.4L203.9,326.4z"/>
					</g>
					<g>
						<path class="st2" d="M201.5,343.4c-13.2,1.4-26.4,3.2-39.5,5.5c-2.3,0.4-3.3-3.1-1-3.5c13.4-2.4,26.9-4.2,40.4-5.6
							C203.8,339.5,203.8,343.2,201.5,343.4L201.5,343.4z"/>
					</g>
					<path class="st5" d="M58,303.7C76.7,282.6,92,274,92,274l-1.3,16.5c8.1-3,16.1-5.4,23.3-6.7c5.1-0.9,17.5-2.8,19.7,3
						c2.3,6-4.3,9.5-6.7,10.3c3-0.7,14.3-2.6,16.7,2.4c3.4,7-7.3,12.9-7.3,12.9s9.6-1.1,11.4,5.3c1,3.6-0.4,8.1-4.3,10.6
						c-12.2,7.8-42.6,22.8-59,30.2l-14.5,0l-23.8-46.6C49,310.2,58,303.7,58,303.7z"/>
					<g>
						<path class="st2" d="M85.3,307.7c13.1-4.7,26.3-8.9,39.6-12.6c2.3-0.6,3.2,2.9,1,3.5c-13.4,3.7-26.6,7.9-39.6,12.6
							C84.1,312,83.1,308.5,85.3,307.7L85.3,307.7z"/>
					</g>
					<g>
						<path class="st2" d="M95.2,323.7c13.1-4.7,26.3-8.9,39.6-12.6c2.3-0.6,3.2,2.9,1,3.5c-13.4,3.7-26.6,7.9-39.6,12.6
							C93.9,328.1,93,324.5,95.2,323.7L95.2,323.7z"/>
					</g>
					<g>
						<path class="st4" d="M40.6,358.2c-0.1,0.1-0.1,0.2-0.2,0.3c-0.7,0.7-1.9,0.9-2.7,0c-0.1-0.1-0.1-0.2-0.2-0.3c0,0,0,0,0,0
							c-5.6-9.6-11-19.3-16.2-29.2c-0.1-0.2-0.3-0.5-0.4-0.8c-1.1-2.1,2-3.9,3.1-1.8c0.2,0.3,0.3,0.6,0.5,0.9
							c5.3,9.8,10.7,19.5,16.2,29.1C40.9,357.1,40.9,357.7,40.6,358.2z"/>
					</g>
					<g>
						<path class="st4" d="M307.9,159c6.1,20,12.4,40,19.4,59.7c0.8,2.2-2.7,3.2-3.5,1c-7-19.7-13.3-39.7-19.4-59.7
							C303.7,157.7,307.2,156.8,307.9,159L307.9,159z"/>
					</g>
					<g>
						<path class="st4" d="M208.2,148c-11.2,17-21.6,34.4-31,52.4c-1.1,2.1-4.2,0.2-3.1-1.8c9.4-18,19.8-35.4,31-52.4
							C206.3,144.2,209.5,146,208.2,148L208.2,148z"/>
					</g>
					<g>
						<path class="st4" d="M326,220.9c-9.1,2.8-18.1,6.2-27.2,9c-2.2,0.7-3.2-2.8-1-3.5c9.1-2.8,18.1-6.2,27.2-9
							C327.3,216.7,328.2,220.3,326,220.9L326,220.9z"/>
					</g>
					<g>
						<path class="st4" d="M203.3,212.1c-11.2,0.6-22.3,1.2-33.5,1.8c-2.3,0.1-2.3-3.5,0-3.6c11.2-0.6,22.3-1.2,33.5-1.8
							C205.6,208.4,205.6,212,203.3,212.1L203.3,212.1z"/>
					</g>
					<g>
						<path class="st4" d="M202.8,211.9c-9.2-3.6-18.5-7.1-27.7-10.7c-2.2-0.8-1.2-4.4,1-3.5c9.2,3.6,18.5,7.1,27.7,10.7
							C205.9,209.2,205,212.8,202.8,211.9L202.8,211.9z"/>
					</g>
				</g>
				<g>
					<g>
						<path class="st2" d="M286.7,200.2c-1-2.4-2.2-5.5-4.1-7.4c-1.3-1.4-3.3,0.8-4.4,1.7c-1.5,1.3-3.1,2.7-4.6,4
							c-6.2,5.4-12.4,10.8-18.5,16.2c-1.8,1.5-4.3-1-2.6-2.6c7.4-6.4,14.8-12.9,22.1-19.3c2.6-2.3,6.3-6,9.9-3.2
							c2.5,2,4,5.9,5.3,8.8C290.7,200.5,287.6,202.4,286.7,200.2L286.7,200.2z"/>
					</g>
					<g>
						<path class="st2" d="M251.5,214.5c-4-7.5-9.3-14.1-15.8-19.5c-1.5-1.2-3.2-2.6-5.1-2.8c-1.2-0.1-2.4,0.4-3.5,0.8
							c-2.8,1.1-5.5,2.6-8.1,4c-2,1.2-3.9-2-1.8-3.1c3-1.7,6-3.3,9.2-4.5c3.8-1.4,7-0.8,10.3,1.7c7.5,5.7,13.7,13.2,18.1,21.6
							C255.8,214.7,252.6,216.6,251.5,214.5L251.5,214.5z"/>
					</g>
					<path class="st5" d="M283.4,151.8c-0.3-0.2-0.7-0.3-1-0.4c-1.9-0.9-3.9-1.6-5.9-2.3h0c-23.2-7.8-49.1-3-53.6-3h-0.4
						c0.4,1.5,0.8,3,1.2,4.4c5.6,19.1,12.5,31.3,18.8,45.7c1.4,3.3,2.8,6.8,4.2,10.4c1.4,3.8,2.7,7.7,3.9,12.1v0
						c0.7,2.4,1.3,4.9,1.9,7.5c0.3-0.9,0.7-1.7,1-2.6c1.7-4.2,3.3-8,4.8-11.6v0c1.2-2.7,2.3-5.3,3.4-7.8v0
						c7.3-16.5,13.3-28.3,22.6-50c0.2-0.5,0.5-1.1,0.7-1.7C284.4,152.2,283.9,152,283.4,151.8z"/>
					<path class="st5" d="M231.3,97.5l-8.9,48.5c0,0,26.1,14.7,60.9,6.2l1.6-29.2L231.3,97.5z"/>
					<path class="st6" d="M292.2,63.9c-1.5,13.6,6.6,25.7,18.1,26.9c11.4,1.2,21.9-8.8,23.4-22.4c1.5-13.6-6.6-25.7-18.1-26.9
						C304.1,40.2,293.6,50.3,292.2,63.9z"/>
					<path class="st5" d="M230.4,34.9c11.3-30.7,37-32.1,64.2-17.9c27.2,14.2,31.4,28.3,29.3,54.5c-2.1,26.2-7.5,56.4-9.5,64.5
						c-2,8.1-15.7,22.8-36.1,10.4c-20.9-12.7-33.4-28.4-40.8-41.6C232,95,219.1,65.6,230.4,34.9z"/>
					<path class="st6" d="M248.1,9.7c0,0,8.6-9.4,22.4-9.7c19.4-0.4,26.5,12.7,26.8,13.3c7.6-2.6,17-1.4,25,4.1
						c12.4,8.4,16.7,23.7,9.6,34.1c-6.3,9.3-19.1,10.3-31.2,5.9c-6.6-2.4-11.4-5-15.3-8.3c0.7,2.8,0.5,5.4-1.4,6.9
						c-6.5,5.4-13.4-9.2-13.4-9.2s-8,12.4-12.6,4.3c-0.8,8,0.6,17.7-1.4,21.2c-3.6,6.2-7.7,11.2-7.7,11.2s-0.2,27.6-20.8,30.8
						l3.1-16.8c0,0-8.8-32.1-9.7-56C220.4,7,248.1,9.7,248.1,9.7z"/>
					<g>
						<path class="st7" d="M253.4,54c-2.9,3.3-6.7,6.5-11.4,5.6c-4.9-1-7.4-5.7-9.3-9.9c1,0.1,1.9,0.2,2.9,0.4
							c-4,5.2-12.6,2.9-13.6-3.6c-0.1-1,0.2-1.9,1.3-2.2c0.9-0.2,2.1,0.3,2.2,1.3c0.6,3.9,5,5.1,7.5,2c0.7-0.9,2.4-0.6,2.9,0.4
							c1.4,3.1,3,7.1,6.7,8.1c3.4,0.9,6.2-2.2,8.2-4.5C252.3,49.7,254.9,52.2,253.4,54L253.4,54z"/>
					</g>
					<g>
						<path class="st7" d="M290.9,22.9c1.3,3.9,3.1,9.4,0.5,13.2c-1.8,2.7-5.1,3.7-8.2,4c-2.9,0.3-5.8,0-8.2-1.7
							c-3.8-2.7-6.3-7-6.3-11.7c1.1,0.3,2.3,0.6,3.4,0.9c-1.8,2.8-2.8,6.8-5.7,8.7c-2.1,1.4-4.8,2.1-7.3,2.2
							c-2.6,0.2-5.4-0.4-7.3-2.3c-2.8-2.8-3.1-7.7-2.6-11.4c1.1,0.5,2.2,0.9,3.3,1.4c-1.2,2.6-5,4.4-7.7,4.8
							c-4.8,0.7-7.6-2.8-8.3-7.2c-0.4-2.3,3.1-3.3,3.5-1c0.5,2.8,1.6,5.2,4.9,4.4c1.5-0.4,3.8-1.6,4.5-2.9c1-2,3.6-0.4,3.3,1.4
							c-0.3,2.5-0.2,6.8,2.3,8.4c1.5,1,3.7,0.9,5.4,0.6c1.3-0.3,3.1-0.7,4.2-1.6c2-1.7,2.9-5.2,4.3-7.4c1-1.5,3.4-1,3.4,0.9
							c0,3.6,2.2,7.8,5.7,9.3c1.4,0.6,3.2,0.6,4.8,0.5c1.9-0.2,4.3-0.7,5.5-2.3c2-2.7,0-7.7-0.9-10.4
							C286.7,21.6,290.2,20.6,290.9,22.9L290.9,22.9z"/>
					</g>
					<path class="st6" d="M307.8,74.6c1.3,5,5.6,1.7,10.9,3.6c4.9,1.7,8.3,1.5,8.5-1.3c0.2-3.4-4.4-7.7-11.5-8.2
						C308.9,68.2,306.8,71,307.8,74.6z"/>
					<path class="st6" d="M295.4,73.3c-2.4,4.6-5.8,0.4-11.4,1.1c-5.2,0.7-8.4-0.3-8-3.1c0.5-3.4,5.9-6.6,13-5.5
						C295.6,66.7,297.1,69.9,295.4,73.3z"/>
					<path class="st2" d="M312.6,86.2c0.7-1,1.9-1.7,3.1-1.6c1.4,0.1,2.4,1.3,2.8,2.6c0.4,1.3,0.4,2.8,0.3,4.2
						c-0.1,1.6-0.5,3.5-1.7,4.6c-2,2-4.5,0.7-5.3-1.5C310.7,91.9,311.4,88,312.6,86.2z"/>
					<g>
						<path class="st2" d="M332.4,82c-0.7-1-1.5-1.8-2.4-2.6c-0.9-0.8-1.9-1.5-3-2.1c-1.1-0.6-2.3-1.1-3.5-1.3
							c-0.6-0.2-1.2-0.3-1.8-0.3c-0.5-0.1-1.1-0.1-1.6-0.1c-2.6,0-5,0.7-7.2,1.9h0c-3.3,1.8-6,4.8-7.6,8.5c-0.3,0.8-0.6,1.6-0.8,2.5
							v0c0,0.2-0.1,0.3-0.1,0.5v0c0,0.1,0,0.3-0.1,0.4c-0.1,0.5-0.2,1-0.2,1.6c-0.5,4.5,0.7,9,3.2,12.5c0.2,0.3,0.4,0.6,0.7,0.9
							c2.6,3.1,6.1,5,9.9,5.4c0.4,0,0.8,0.1,1.1,0.1c0.2,0,0.3,0,0.5,0c3.7,0,7.2-1.4,10.2-4c3.3-2.9,5.4-7,5.9-11.6
							C336.2,90,335,85.6,332.4,82z M332.1,94.2c-0.4,3.6-2.1,6.9-4.6,9.2c-2.2,2-4.9,3-7.7,3c-0.4,0-0.9,0-1.3-0.1
							c-3.2-0.3-6.1-2.1-8.1-4.8c-2.1-2.8-3-6.4-2.6-10c0-0.4,0.1-0.8,0.2-1.2c1.2-6.4,6.4-11.1,12.2-11.1c0.4,0,0.8,0,1.2,0
							c0.6,0.1,1.2,0.2,1.8,0.4c1.8,0.5,3.5,1.4,4.9,2.8c0.5,0.5,1.1,1.1,1.5,1.7C331.6,87,332.5,90.5,332.1,94.2z"/>
					</g>
					<path class="st2" d="M282.4,83c0.7-1,1.9-1.7,3.1-1.6c1.4,0.1,2.4,1.3,2.8,2.6c0.4,1.3,0.4,2.8,0.3,4.2
						c-0.1,1.6-0.5,3.5-1.7,4.6c-2,2-4.5,0.7-5.3-1.5C280.5,88.7,281.1,84.7,282.4,83z"/>
					<g>
						<path class="st2" d="M307.3,90.1c-0.1,5.7,0.3,11.4,1.2,17.1c0.2,1.3,0.8,2.9-0.2,4.1c-0.9,1-2.2,1-3.5,0.8
							c-2.7-0.3-5.2-1.2-7.6-2.6c-2-1.2-0.2-4.4,1.8-3.1c1.1,0.7,2.3,1.3,3.6,1.6c0.6,0.2,1.3,0.3,1.9,0.4c0.3,0,0.6,0.1,0.9,0.1
							c0.1,0,0.2,0,0.4,0c0.4,0,0.3,0-0.2,0.1c-0.2,0.3-0.3,0.5-0.5,0.8c0.1,0.3,0,0.3,0-0.2c0-0.2-0.1-0.4-0.1-0.6
							c-0.1-0.4-0.1-0.8-0.2-1.2c-0.1-0.9-0.3-1.7-0.4-2.6c-0.2-1.6-0.4-3.2-0.5-4.9c-0.3-3.3-0.4-6.7-0.3-10
							C303.7,87.8,307.4,87.8,307.3,90.1L307.3,90.1z"/>
					</g>
					<g>
						<path class="st5" d="M266.9,87.2c-0.2,9.4-7.9,16.8-17.2,16.6c-9.4-0.2-16.8-7.9-16.6-17.2c0.2-9.4,7.9-16.8,17.2-16.6
							C259.6,70.1,267.1,77.8,266.9,87.2z"/>
					</g>
					<g>
						<path class="st2" d="M242,94.7c-2.2-3.5-2.6-8-1-11.9c1.5-3.5,4.5-6.2,8.1-7.4c2.2-0.7,3.2,2.8,1,3.5
							c-2.6,0.8-4.7,2.8-5.8,5.3c-1.2,2.8-0.8,6.1,0.8,8.6C246.4,94.8,243.2,96.6,242,94.7L242,94.7z"/>
					</g>
					<path class="st1" d="M284.9,114.3c-0.4,13.2,15.1,17.4,22.6,6.1L284.9,114.3z"/>
					<g>
						<path class="st2" d="M280.7,151.3c-7-3.2-13.3-8-18.3-13.9c-0.6-0.7-0.7-1.8,0-2.6c0.7-0.7,1.9-0.8,2.6,0
							c4.8,5.7,10.8,10.2,17.6,13.3c0.9,0.4,1.1,1.7,0.7,2.5C282.7,151.5,281.6,151.7,280.7,151.3L280.7,151.3z"/>
					</g>
					<g>
						<path class="st2" d="M298.6,85.3c-0.1-0.2-0.1-0.4-0.1-0.6c-0.5-2.4-1.5-4.7-3-6.7c-0.6-0.9-1.4-1.7-2.2-2.4
							c-0.1-0.1-0.1-0.1-0.2-0.2c-2.3-2.1-5.2-3.3-8.2-3.6c-0.5-0.1-1.1-0.1-1.6-0.1c-2.4,0-4.6,0.6-6.7,1.6c-2.3,1.1-4.3,2.9-5.9,5
							c-0.7,1-1.3,2-1.8,3.1c-0.8,1.8-1.4,3.7-1.6,5.8c-1,9.4,5.2,17.9,13.9,18.8c0.5,0.1,1.1,0.1,1.6,0.1c8.1,0,15.1-6.6,16.1-15.5
							c0.1-0.5,0.1-1.1,0.1-1.6C298.9,87.7,298.8,86.5,298.6,85.3z M295.1,90.2c-0.8,7.5-6.9,12.9-13.6,12.2
							c-6.7-0.7-11.5-7.3-10.7-14.8c0.8-7,6.2-12.2,12.4-12.2c0.4,0,0.8,0,1.2,0.1c3.2,0.3,6.1,2.1,8.1,4.8
							C294.6,83,295.5,86.5,295.1,90.2z"/>
					</g>
					<g>
						<path class="st2" d="M305,89.6c-2.2-0.2-4.3-0.5-6.5-0.7c-0.5-0.1-0.9-0.2-1.3-0.5c-0.3-0.3-0.6-0.8-0.5-1.3
							c0-0.9,0.8-1.9,1.8-1.8c2.2,0.2,4.3,0.5,6.5,0.7c0.5,0.1,0.9,0.2,1.3,0.5c0.3,0.3,0.6,0.8,0.5,1.3
							C306.7,88.7,306,89.7,305,89.6L305,89.6z"/>
					</g>
					<g>
						<path class="st2" d="M269.7,82c-4.3-3-8.6-5.9-13.1-8.7c-0.8-0.5-1.2-1.6-0.7-2.5c0.5-0.8,1.7-1.2,2.5-0.7
							c4.4,2.8,8.8,5.7,13.1,8.7c0.8,0.6,1.2,1.6,0.7,2.5C271.7,82.2,270.5,82.6,269.7,82L269.7,82z"/>
					</g>
				</g>
			</g>
		</g>
	</g>
</switch>

</svg>
