<?xml version="1.0" encoding="utf-8"?>
<!-- Generator: Adobe Illustrator 27.1.1, SVG Export Plug-In . SVG Version: 6.00 Build 0)  -->










<svg version="1.1" id="Layer_1" xmlns="http://www.w3.org/2000/svg" xmlns:xlink="http://www.w3.org/1999/xlink" x="0px" y="0px" viewBox="0 0 500 392" style="enable-background:new 0 0 500 392;" xml:space="preserve">
<style type="text/css">
	.st0{fill:#CCB16C;}
	.st1{fill:#735D9C;}
	.st2{fill:#2B244A;}
	.st3{fill:#E0785E;}
	.st4{fill:#FFFFFF;}
	.st5{fill:#8C75B5;}
	.st6{fill:#FFDCCC;}
</style>
<switch>
	
	<g>
		<g>
			<g>
				<path class="st0" d="M460.4,334.9h-16.5c0,0-26.2,57.1-33.2,57.1c-5.2,0-1.3-57.1-1.3-57.1H17.3c-4.2,0-7.4-3.6-6.9-7.8
					L42.9,48.8c0.4-3.5,3.4-6.2,6.9-6.2H493c4.2,0,7.4,3.6,6.9,7.8l-32.6,278.3C466.9,332.2,464,334.9,460.4,334.9z"/>
			</g>
		</g>
		<g>
			<path class="st1" d="M397.4,334.9H110.1c0,0,26.4-92.1,46.6-126.6c10.8-18.3,31-35.6,51.6-43.1c40.7-14.7,88.2-17.6,131.2-14.5
				c20.1,1.4,40.9,4.4,59.3,12.7c22.8,10.2,37.1,28,45.9,52.2c13.7,37.7,15.6,69.4,17.9,119.3H397.4z"/>
			<g>
				<path class="st2" d="M252,154.8c-9.6,9.5-17.5,20.2-22.4,32.9c-0.5,1.4,1,2.4,2.2,2.2c4.8-1,9.4-2.3,14.1-3.7
					c2.2-0.7,4.6-1.7,6.9-2c1.7-0.2,2.1,0.5,3,1.7c0.6,0.8,1.3,1.6,1.9,2.4c5.3,6.7,10.5,13.5,16.4,19.6c1.6,1.7,4.1-0.9,2.5-2.5
					c-6.5-6.8-12.2-14.4-18.1-21.8c-1.2-1.6-2.5-3.2-4.7-3.2c-2.3,0-4.9,1.1-7,1.7c-5.3,1.6-10.5,3.2-16,4.3
					c0.7,0.7,1.5,1.5,2.2,2.2c4.7-12.1,12.3-22.2,21.5-31.3C256.2,155.7,253.6,153.2,252,154.8L252,154.8z"/>
			</g>
			<g>
				<path class="st2" d="M316.1,151.4c6.5,12.1,11.4,24.9,16.3,37.7c0.7-0.7,1.5-1.5,2.2-2.2c-6.3-1.3-12.4-3.3-18.6-5.1
					c-2.5-0.7-4.6-1.4-6.9-0.1c-1.7,0.9-3.2,1.9-4.6,3.1c-9.4,7.8-19.7,14.3-28.8,22.5c-1.7,1.5,0.8,4.1,2.5,2.5
					c8.5-7.6,17.9-13.9,26.8-20.9c1.5-1.2,3-2.5,4.6-3.5c0.5-0.3,1.2-0.8,1.7-1c1.4-0.4,3.9,0.8,5.2,1.2c5.7,1.6,11.3,3.5,17.1,4.6
					c1.2,0.2,2.7-0.8,2.2-2.2c-5-13.1-10-26.2-16.7-38.5C318.1,147.5,315,149.3,316.1,151.4L316.1,151.4z"/>
			</g>
			<g>
				<path class="st2" d="M277.3,160.6c-2.6,44.9-3.7,89.9-3.4,134.9c0.1,12.6,0.3,25.3,0.6,37.9c0.1,2.3,3.6,2.3,3.6,0
					c-1.2-45-0.8-90,1-134.9c0.5-12.6,1.1-25.3,1.9-37.9C281.1,158.2,277.5,158.3,277.3,160.6L277.3,160.6z"/>
			</g>
			<path class="st2" d="M229,25.2c-6.3,0.6-12.4,3.4-16.8,7.5c-4.4,4.1-7.1,9.3-8,14.6c-0.5,3.2-0.4,6.5,0.8,9.5
				c2.7,6.2,9.8,10,16.5,13.4L229,25.2z"/>
			<path class="st3" d="M309.3,43.9c-5.8-31.7-30.6-37.4-59.4-28.2c-28.8,9.2-35.3,22.2-37.6,48c-2.3,25.8-2.1,56-1.6,64.2
				c0.5,8.2,11.4,24.7,33.3,16.1c22.4-8.8,37.2-22,46.6-33.5C297.7,102,315.1,75.6,309.3,43.9z"/>
			<path class="st3" d="M253.7,131.4l-0.4,23.4c0,0,13.6,55.7,23.7,55.7c7.3,0,33.3-60.6,33.3-60.6l-8.7-68.1L253.7,131.4z"/>
			<path class="st2" d="M226.8,72.4c-2.1,4.6-5.7,0.7-11.2,1.6c-5.1,0.9-8.3,0.1-8-2.7c0.4-3.3,5.6-6.7,12.6-6
				C226.7,66,228.4,69.1,226.8,72.4z"/>
			<path class="st2" d="M235.3,72.4c1.5,4.8,5.6,1.4,10.9,3c4.9,1.5,8.2,1.1,8.3-1.7c0-3.3-4.7-7.4-11.7-7.6
				C236.2,66.1,234.2,68.9,235.3,72.4z"/>
			<g>
				<path class="st2" d="M225.4,83.5c-0.3,2.2-0.8,4.3-1.6,6.3c-0.7,2-1.8,3.9-2.6,5.9c-0.7,1.8-1,3.8-0.3,5.6
					c0.6,1.8,1.9,3.3,3.8,3.7c2.2,0.5,3.2-2.9,1-3.5c-1-0.2-1.5-1.3-1.5-2.2c-0.1-1.5,0.7-3.1,1.4-4.4c1.6-3.3,2.8-6.8,3.3-10.5
					c0.1-1-0.2-1.9-1.3-2.2C226.7,82,225.5,82.6,225.4,83.5L225.4,83.5z"/>
			</g>
			<path class="st2" d="M313.5,57.4c1.4-7.2,1.9-14.9-1.5-21.7c-1.3-2.7-3.2-5.2-5.7-7c-1.4-1-3-1.6-3.4-3.4c-0.4-1.6,0.1-3.5,0-5.1
				c-0.2-5.8-2.3-12.6-8-15.2c-3.1-1.4-7.2-1.4-10.2,0.2c-10-7.7-24.3-6.7-33.1,2.4c-8.7-5.5-19.9,0.8-26,7.7
				c-2.1,2.4-5.5,8.7-7.6,12.3c-0.1,0.1-1,1.5-1.1,1.6c-4.6,4.5-5.1,6.6-2.8,13.2c2.5,6.9,11.5,6.8,17.3,5.3c3.7-1,6.7-3.1,10.2-4.4
				c2.7-0.9,3.3,1,4.6,2.8c0.9,1.1,1.9,2.1,3.1,2.8c5.7,3.5,12.1,1.9,17.7-1c2.8-0.2,5.6,0.8,7.7,2.6c2.8,2.4,3.1,5.9,2.4,9.4
				c-1.4,7.4-6.7,16.7-4.2,24.6c0,0.1-0.1,6.4,1.6,10.6c2.4,5.8,11.1,11.3,17.6,11.3c2.3,0,10.1-16.5,12.6-21.1
				C308,77.9,312,65.4,313.5,57.4z"/>
			<path class="st2" d="M305,85.4l1.1,31.1c0,0-21.8-1.8-26.5-14.5C274.9,89.4,305,85.4,305,85.4z"/>
			<g>
				<path class="st3" d="M265,82.5c-4.3,8.2-1.2,18.3,7,22.6c8.2,4.3,18.3,1.2,22.6-7c4.3-8.2,1.2-18.3-7-22.6
					C279.4,71.2,269.3,74.3,265,82.5z"/>
			</g>
			<path class="st2" d="M273.9,71.7c0,0-11.2,38.9-21.6,49c-13.1,12.6-34.5,10.2-41.8,2.2c0,0-4.7,11.4,0.4,21.7
				c5.1,10.3,20.5,12.8,35.6,7.4c20.8-7.6,26-27.9,30.3-42.4c4.3-14.5,10.5-39.8,10.5-39.8L273.9,71.7z"/>
			<g>
				<path class="st2" d="M190.3,264.4c-1,23.4-1.7,46.8-2.1,70.2c0,2.3,3.6,2.3,3.6,0c0.4-23.4,1-46.8,2.1-70.2
					C194,262.1,190.4,262.1,190.3,264.4L190.3,264.4z"/>
			</g>
			<g>
				<path class="st2" d="M300.2,263.8c15.6,0.1,31.2-0.2,46.8,0.6c2.3,0.1,2.3-3.5,0-3.6c-15.6-0.8-31.2-0.5-46.8-0.6
					C297.9,260.2,297.9,263.8,300.2,263.8L300.2,263.8z"/>
			</g>
			<g>
				<path class="st2" d="M298.4,262c0.1,6.9,0.2,13.9,0.3,20.8c0.1,7,0.5,14.4,5.6,19.8c4.3,4.5,10.6,6.5,16.7,7.1
					c6.9,0.7,14-0.3,19.6-4.7c1.8-1.4-0.7-4-2.5-2.5c-4.9,3.8-11.7,4.3-17.7,3.6c-5.5-0.7-11.5-2.8-14.8-7.5
					c-3.8-5.4-3.2-12.6-3.3-18.8c-0.1-5.9-0.1-11.8-0.2-17.7C301.9,259.7,298.3,259.7,298.4,262L298.4,262z"/>
			</g>
			<g>
				<path class="st2" d="M345.2,262.6c0.8,6.9,0.5,14-0.4,20.8c-0.8,6.2-2,14.5-6.8,19c-1.7,1.6,0.9,4.1,2.5,2.5
					c5.2-4.9,6.7-13.3,7.6-20c1-7.3,1.5-15,0.6-22.4C348.5,260.3,344.9,260.3,345.2,262.6L345.2,262.6z"/>
			</g>
			<g>
				<path class="st2" d="M242.9,85.4c0,0,0.3-0.3,0.1-0.1c-0.2,0.2,0,0,0.1-0.1c0.2-0.1,0.3-0.2,0.5-0.3c0.2-0.1,0.3-0.2,0.5-0.3
					c0.2-0.1-0.3,0.1-0.1,0c0.1,0,0.2-0.1,0.3-0.1c0.4-0.1,0.8-0.2,1.1-0.3c0.2,0,0,0-0.1,0c0.1,0,0.2,0,0.3,0c0.2,0,0.4,0,0.6,0
					c0.2,0,0.4,0,0.5,0c0.1,0,0.2,0,0.3,0c0.3,0-0.3-0.1-0.1,0c0.4,0.1,0.8,0.2,1.1,0.3c0.1,0,0.2,0.1,0.3,0.1c0.2,0.1,0,0-0.1,0
					c0.2,0,0.4,0.2,0.5,0.3c0.2,0.1,0.3,0.2,0.5,0.3c0,0,0.2,0.1,0.2,0.2c-0.2-0.1-0.2-0.2-0.1-0.1c0.1,0,0.1,0.1,0.2,0.1
					c0.7,0.6,1.8,0.8,2.5,0c0.6-0.7,0.8-1.9,0-2.5c-3.4-2.9-8.6-2.9-12,0c-0.7,0.6-0.7,1.9,0,2.5C241.2,86.1,242.2,86.1,242.9,85.4
					L242.9,85.4z"/>
			</g>
			<g>
				<path class="st2" d="M213.3,84.3c0,0,0.3-0.3,0.1-0.1c-0.2,0.2,0,0,0.1-0.1c0.2-0.1,0.3-0.2,0.5-0.3c0.2-0.1,0.3-0.2,0.5-0.3
					c0.2-0.1-0.3,0.1-0.1,0c0.1,0,0.2-0.1,0.3-0.1c0.4-0.1,0.8-0.2,1.1-0.3c0.2,0,0,0-0.1,0c0.1,0,0.2,0,0.3,0c0.2,0,0.4,0,0.6,0
					c0.2,0,0.4,0,0.5,0c0.1,0,0.2,0,0.3,0c0.3,0-0.3-0.1-0.1,0c0.4,0.1,0.8,0.2,1.1,0.3c0.1,0,0.2,0.1,0.3,0.1c0.2,0.1,0,0-0.1,0
					c0.2,0,0.4,0.2,0.5,0.3c0.2,0.1,0.3,0.2,0.5,0.3c0,0,0.2,0.1,0.2,0.2c-0.2-0.1-0.2-0.2-0.1-0.1c0.1,0,0.1,0.1,0.2,0.1
					c0.7,0.6,1.8,0.8,2.5,0c0.6-0.7,0.8-1.9,0-2.5c-3.4-2.9-8.6-2.9-12,0c-0.7,0.6-0.7,1.9,0,2.5C211.5,85,212.5,85,213.3,84.3
					L213.3,84.3z"/>
			</g>
			<path class="st4" d="M242.4,110c-3.2,12.6-19,12.4-23-0.4L242.4,110z"/>
			<path class="st4" d="M374.7,215.4c0,7.1-3.6,14.1-9.5,18.1c-1.9,1.3-0.1,4.4,1.8,3.1c7-4.7,11.4-12.7,11.3-21.2
				C378.3,213.1,374.7,213.1,374.7,215.4z"/>
			<path class="st4" d="M356,189.2c-1.9-6.9-0.2-14.5,4.5-19.9c1.5-1.7-1-4.3-2.6-2.5c-5.5,6.3-7.6,15.3-5.4,23.4
				C353.1,192.3,356.6,191.4,356,189.2z"/>
			<path class="st4" d="M226.7,270.7c-6.1-3.8-10-10.5-10.2-17.7c-0.1-2.3-3.6-2.4-3.6-0.1c0.2,8.4,4.7,16.4,11.9,20.9
				C226.8,274.9,228.7,271.9,226.7,270.7z"/>
			<path class="st4" d="M156.7,292.9c6.7,2.4,12,8.3,13.6,15.2c0.5,2.2,4.1,1.6,3.5-0.6c-1.9-8.2-8-15.1-15.9-18
				C155.7,288.7,154.5,292.1,156.7,292.9z"/>
			<path class="st4" d="M438.2,279.1c-7.1,0.9-14.4-1.8-19.1-7.2c-1.5-1.7-4.4,0.4-2.9,2.2c5.5,6.4,14,9.7,22.4,8.6
				C440.9,282.4,440.5,278.8,438.2,279.1z"/>
			<path class="st4" d="M324.8,227.4c-7.1,0.9-14.4-1.8-19.1-7.2c-1.5-1.7-4.4,0.4-2.9,2.2c5.5,6.4,14,9.7,22.4,8.6
				C327.5,230.6,327,227.1,324.8,227.4z"/>
			<path class="st4" d="M417.8,220.2c7.1-0.7,14.4,2.4,18.8,7.9c1.4,1.8,4.4-0.3,2.9-2.1c-5.3-6.6-13.7-10.2-22.1-9.4
				C415.2,216.8,415.5,220.4,417.8,220.2z"/>
			<path class="st4" d="M375.1,313.9c-7.1-0.7-14.4,2.4-18.8,7.9c-1.4,1.8-4.4-0.3-2.9-2.1c5.2-6.6,13.7-10.2,22.1-9.4
				C377.7,310.5,377.4,314.1,375.1,313.9z"/>
			<path class="st4" d="M248.8,212.3c4.9,5.2,7,12.8,5.3,19.7c-0.5,2.2,2.9,3.3,3.4,1c2-8.2-0.3-17.1-6.1-23.2
				C249.8,208.2,247.2,210.6,248.8,212.3z"/>
			<path class="st4" d="M232.6,314.8c6.8-2.2,14.5-0.9,20.1,3.6c1.8,1.4,4.2-1.2,2.4-2.7c-6.6-5.2-15.6-6.9-23.6-4.3
				C229.4,312.1,230.4,315.5,232.6,314.8z"/>
			<path class="st4" d="M194.8,209.3c-3.9,6-10.8,9.8-17.9,9.8c-2.3,0-2.5,3.6-0.2,3.6c8.4,0,16.5-4.3,21.1-11.4
				C199.1,209.4,196.1,207.4,194.8,209.3z"/>
			<g>
				<path class="st5" d="M279.5,57.5c1.7,3.8,5.5,6.4,9.6,6.8c4.3,0.4,8.5-2,10.7-5.5c-0.8,0.2-1.6,0.4-2.5,0.6
					c4.2,3,11.1,0.2,11.9-4.9c0.4-2.3-3.1-3.2-3.5-1c-0.5,3-4.2,4.6-6.6,2.8c-0.8-0.6-2-0.1-2.5,0.6c-1.6,2.5-4.6,4.1-7.6,3.8
					c-3-0.3-5.4-2.4-6.5-5C281.7,53.6,278.6,55.4,279.5,57.5L279.5,57.5z"/>
			</g>
			<g>
				<path class="st5" d="M246.7,41c0.6-3.4,1.8-6.6,3.7-9.5c0.9-1.5,2-2.9,3.3-4.1c1.5-1.4,3.2-0.9,5-0.6c6.9,1,12.5-3.9,17.1-8.5
					c1.6-1.6-0.9-4.2-2.5-2.5c-2.5,2.4-5,4.9-8.2,6.4c-1.5,0.7-3.1,1.2-4.7,1.1c-2,0-4-0.8-6-0.3c-3.2,0.7-5.6,4.2-7.2,6.9
					c-1.9,3.1-3.2,6.6-3.9,10.2C242.9,42.3,246.3,43.3,246.7,41L246.7,41z"/>
			</g>
			<g>
				<path class="st5" d="M281.9,36.4c3.7-4.7,9.4-7.6,15.5-7.6c2.3,0,2.3-3.6,0-3.6c-6.9,0-13.7,3.2-18,8.6c-0.6,0.8-0.7,1.8,0,2.5
					C280,37,281.3,37.1,281.9,36.4L281.9,36.4z"/>
			</g>
			<g>
				<path class="st2" d="M384.8,266.4c1.2,22.6,1.8,45.2,2,67.8c0,2.3,3.6,2.3,3.6,0c-0.2-22.6-0.9-45.2-2-67.8
					C388.3,264.1,384.7,264.1,384.8,266.4L384.8,266.4z"/>
			</g>
		</g>
		<g>
			<path class="st6" d="M140.5,125.6H22.3C10,125.6,0,135.6,0,147.9v8.9c0,12.2,10,22.3,22.3,22.3h118.3c12.2,0,22.3-10,22.3-22.3
				v-8.9C162.8,135.6,152.8,125.6,140.5,125.6z"/>
			<path class="st6" d="M162.8,146.5v-28.3c0-2.5-2.5-4.3-4.9-3.4l-28.2,10.8L162.8,146.5z"/>
			<path class="st2" d="M49.2,149c-4.3,0-4.3,6.6,0,6.6C53.5,155.7,53.5,149,49.2,149z"/>
			<path class="st2" d="M81.5,149c-4.3,0-4.3,6.6,0,6.6C85.7,155.7,85.7,149,81.5,149z"/>
			<path class="st2" d="M113.7,149c-4.3,0-4.3,6.6,0,6.6C117.9,155.7,117.9,149,113.7,149z"/>
		</g>
	</g>
</switch>

</svg>
