<?xml version="1.0" encoding="utf-8"?>
<!-- Generator: Adobe Illustrator 27.1.0, SVG Export Plug-In . SVG Version: 6.00 Build 0)  -->










<svg version="1.1" id="Layer_1" xmlns="http://www.w3.org/2000/svg" xmlns:xlink="http://www.w3.org/1999/xlink" x="0px" y="0px" viewBox="0 0 695.6 469.5" style="enable-background:new 0 0 695.6 469.5;" xml:space="preserve">
<style type="text/css">
	.st0{fill:#D79B61;}
	.st1{fill:#F4E3D5;}
	.st2{fill:#8D4C4C;}
	.st3{fill:#44203B;}
	.st4{fill:#89BEDB;}
	.st5{fill:#4C558D;}
	.st6{fill:#99778D;}
	.st7{fill:#F79985;}
	.st8{fill:#8D4C4D;}
	.st9{fill:#E8654E;}
	.st10{fill:#CF7570;}
	.st11{fill:#DC755F;}
	.st12{fill:#FFFFFF;}
	.st13{fill:#3F4576;}
	.st14{fill:#D9C2AD;}
</style>
<switch>
	
	<g>
		<g>
			<path class="st0" d="M636.9,194c0-0.3,0-0.6,0-0.9c0-0.3,0-0.7-0.1-1c-0.1-1.2-0.3-2.3-0.8-3.4c-1.7-3.6-6.8-2.5-10.1-2.6
				l-33.8-0.2c-25.2-0.1-50.4-0.3-75.6-0.4c-0.3,0-0.5,0.3-0.5,0.5c0,0,0,0,0,0c-0.1,1.7-0.2,3.5-0.3,5.2c0,0.3-0.1,0.7-0.1,1
				c-2.2,34.8-4.3,70.6-6.5,105.3c-0.6,9.3-1.2,18.5-1.8,27.8l-0.9,13.9c-0.3,4.1-0.8,8.2-0.7,12.3c0.1,2.5,0.5,5.1,2.1,7.1
				c1.9,2.4,4.9,2.8,7.7,2.9c9.2,0.5,18.5,0.7,27.7,1c20.7,0.6,67.7,1.3,70.2,0.9c3.5-0.5,12.3,1.1,14.9-13.8
				C631.9,329.3,637,196.5,636.9,194z"/>
			<path class="st1" d="M562.1,2.3C528.3,3,406.8,0.1,260.8,0.1c-34.7,0-68,0-97.6,0c-14.6,0-28.4,0-41,0c-46.9,0-78-0.1-79.9-0.1
				c-0.6,0-1.1,0-1.6,0c-8.9-0.1-8,1-9.6,12.1c-0.4,2.6-3.9,55.4-8.1,121.4C18,214.2,13,253.8,10.2,306.1c-0.4,8.1-0.8,15.1-1,20.6
				c-0.9,19.2,1.4,15.5,11.5,15.6c3.9,0,9.6,0.1,16.9,0.1c106.8,0.6,468.6,1,483,0c10-0.7,5.7,4.3,8.3-8.5
				c0.6-2.8,33.4-326.6,33.8-330.8C562.8,2.7,562.4,2.3,562.1,2.3z"/>
			<g>
				<path class="st1" d="M539,199.7c-7,69.2-13.4,130.6-13.9,133.4c-2.6,12.8,1.7,7.9-8.3,8.5c-14.5,1-372.4,1.3-479.2,0.7
					c4.5-47,14.3-145.2,14.6-145.2c15.3,0,30.6,0,45.9,0c27.2,0,54.5-0.1,81.7-0.1C205.4,197,471.6,199.4,539,199.7z"/>
			</g>
			<path class="st2" d="M264.2,0L258.6,98l-43.1-0.7l-51.2-0.9c0.1-1.3,0.2-2.5,0.3-3.8c0-0.5,0.1-1,0.1-1.6
				c0.1-1.2,0.2-2.5,0.2-3.7c1-19.7,1.2-39.4,0.9-59.1c3-0.5,5.7-2.8,5.5-6.8c-0.3-7.1-0.6-14.3-0.9-21.4H264.2z"/>
			<g>
				<path class="st3" d="M695.5,68.5c0-0.5,0.1-1,0.1-1.5c-38.7,0-138.3,0.1-144.1,0.1c-0.3,2.4-0.2,5.4-0.8,7.1
					c6.7,0.2,105.8,0.1,144.2,0.1C695.1,72.4,695.3,70.5,695.5,68.5z"/>
				<path class="st3" d="M666,360.3c0-0.5,0.1-1,0.1-1.5c-38.7,0-77.9,0.1-83.6,0c-0.3,2.4-0.2,5.4-0.8,7.1
					c6.7,0.2,45.3,0.2,83.7,0.1C665.7,364.2,665.9,362.3,666,360.3z"/>
				<path class="st3" d="M608.9,68.8L586.3,299l-6.3,64.4c0,0.4,0.6,0.5,0.7,0l22.6-230.3l6.3-64.4
					C609.6,68.4,608.9,68.3,608.9,68.8z"/>
				<path class="st3" d="M634,68l-22.6,230.3l-6.3,64.4c0,0.4,0.6,0.5,0.7,0l22.6-230.3l6.3-64.4C634.7,67.7,634.1,67.6,634,68z"/>
				<path class="st3" d="M658.9,69.1l-22.6,230.3l-6.3,64.4c0,0.4,0.6,0.5,0.7,0l22.6-230.3l6.3-64.4
					C659.7,68.7,659,68.7,658.9,69.1z"/>
				<path class="st3" d="M559,73.2l-22.6,230.3l-6.3,64.4c0,0.4,0.6,0.5,0.7,0l22.6-230.3l6.3-64.4C559.7,72.8,559.1,72.7,559,73.2z
					"/>
				<path class="st3" d="M583.9,74.2l-22.6,230.3l-6.3,64.4c0,0.4,0.6,0.5,0.7,0l22.6-230.3l6.3-64.4
					C584.6,73.8,584,73.8,583.9,74.2z"/>
				<path class="st3" d="M684,68.4l-22.6,230.3l-6.3,64.4c0,0.4,0.6,0.5,0.7,0l22.6-230.3l6.3-64.4C684.8,68,684.1,68,684,68.4z"/>
			</g>
			<path class="st2" d="M135.1,97.3l-49.4,0.9l-44.9,0.8L46.4,0H129c-0.3,7.5-0.6,14.9-0.9,22.4c-0.2,4,2.5,6.3,5.5,6.8
				c-0.3,19.7-0.1,39.4,0.9,59.1c0.1,1,0.1,2.1,0.2,3.1c0,0.6,0.1,1.1,0.1,1.7C134.9,94.4,135,95.9,135.1,97.3z"/>
			<polygon class="st4" points="217.7,0 215,91.7 164.7,92.5 134.8,93 91.4,93.7 91.6,82.5 93.3,6.5 93.4,0 			"/>
			<path class="st3" d="M220.3,0l-4.8,97.2l0,0.2c0,0-0.1,0-0.1,0h-0.9L85.7,98.9c0,0,0-0.3,0-0.8c0.3-6.8,2.8-59,4.7-98.1h7
				l-4.5,91.9l41.8-0.5l11.4-0.1L150.5,0h7l-4.5,91.1l11.7-0.1l44.1-0.5L213.3,0H220.3z"/>
			<path class="st3" d="M150.7,259c-3.6,26.7-7.3,59.1-11.3,85.9c-0.1,0.7,0.7,1.4,1.4,1.4c1.4,0-0.1,0,1.3,0c0.6,0,1.1-0.4,1.3-1
				c4-12.9,16.8-69.7,20.6-86.6C164.2,258,150.8,258.2,150.7,259z"/>
			<path class="st3" d="M248.3,251c-8.8-0.6-87.5-0.8-105.2-0.6c-1.5,0-3.3-0.1-4.6,0.6c-1.3,0.8-1.6,2.3-1.9,3.7
				c-0.6,2.9-0.7,3.4-1.1,6.1c-0.3,1.9,0,3.5,6.5,3.5c37.4,0,103.9,1.9,104,1.3c0.3-2,2.4-12.1,2.6-14.3
				C248.6,251.1,248.4,251,248.3,251z"/>
			<path class="st5" d="M577.4,226.6c-10.6-21.9-24.2-42.5-41.3-59.8c-16.9-17.2-37.2-31-59.3-40.7c-17.2-7.5-35.4-12.4-53.8-14.7
				c-0.6-0.1-1.2-0.1-1.8-0.2c-30.2-3.4-61.2,0.2-90.1,10.8c-46,16.8-82.7,50.6-109.8,90.7c-30,44.3-48.1,95.2-64.4,145.7
				c-2.1,6.4-7,19.8-6.6,19.8c0.1,0,0.2,0,0.2,0c0,0.1,15.8,0.3,41.5,0.7c54.2,0.8,152.4,2.1,240.1,3.2c17.6,0.2,34.8,0.5,51.1,0.7
				c0.2,0,0.4,0,0.7,0c71.8,0.9,126.6,1.7,126.6,1.7c0,0.4,0.7,0.4,0.7,0C608.4,330.5,601,275.7,577.4,226.6z"/>
			<path class="st1" d="M612.4,401.4c0,0-0.1-0.1-0.2-0.1c-25.2-0.1-74-0.3-119.2-0.4h-0.7c-32.6-0.1-63.2-0.2-81.3-0.3
				c-29.3-0.1-58.6-0.3-87.8-0.4c-0.2,0-0.5,0-0.7,0c-14-0.1-28-0.1-42-0.2c-43.5-0.2-87-0.4-130.5-0.6c-43.7-0.2-87.4-0.4-131-0.6
				c-5.3,0-10.6-0.1-16-0.1c-0.2,0-0.4,0.2-0.3,0.4c-1.9,5.4-1.5,10.6-2.8,16.1c-0.1,0.3,0.2,0.5,0.4,0.4
				c0.8-0.1,87.3,0.1,130.6,0.3c43.5,0.2,87,0.4,130.5,0.6c19.2,0.1,38.4,0.2,57.5,0.3c0.2,0,0.5,0,0.7,0
				c24.1,0.1,48.2,0.2,72.2,0.3c32.3,0.1,64.6,0.3,96.9,0.5h0.7c11,0.1,21.9,0.1,32.9,0.2c43.7,0.2,79.5,0.2,84.8,0.2
				c0.4,0,0.5-0.7,0.5-0.7c1.3-5.3,3.5-10.3,4.9-15.5C612.7,401.6,612.6,401.5,612.4,401.4z"/>
			<path class="st0" d="M81.3,210.3c-10.6-21.9-24.2-42.5-41.3-59.8c-6-6.1-10.2-10-16.9-15.2C17.9,215.9,9.5,314.4,6.7,366.7
				c62.3,0.8,107.7,1.4,107.7,1.5c0,0.4,0.7,0.4,0.7,0C112.3,314.3,104.9,259.4,81.3,210.3z"/>
			<path class="st3" d="M449.2,238.8c-1.2-10.8-4.5-22.3-12.7-29.9c-9.2-8.5-23-8.6-34.8-9.6c-7.4-0.6-30.1-0.4-52,0.1
				c-20.7,0.5-40.7,1.3-46.7,2c-22.2,2.4-26.5,6-42,23c-8.2,9-13.9,19.8-18.9,30.8c-5.8,12.5-11.1,25.2-16.5,37.9
				c-11.1,26.4-21.6,53.1-31.4,80c-0.7,2-1.4,3.9-2.1,5.9c54.2,0.8,152.4,2.1,240.1,3.2c0.3-1.4,0.5-2.8,0.7-4.2
				c0.1-0.9,0.3-1.9,0.4-2.8c0.4-2.6,0.8-5.2,1.2-7.9c2.3-14.5,4.6-29,6.8-43.5c2.2-14.2,4.3-28.4,6-42.6
				C449.1,267,450.8,252.8,449.2,238.8z"/>
			<path class="st0" d="M485.3,364.9c-0.4,5.9-0.9,11.8-1.4,17.8c-0.2,0-0.4,0-0.7,0c0.8-9,1.5-18,2-27.1
				c1.6-27.5,1.7-55.2,0.4-82.7c-0.6-13.7-1.6-27.3-3-40.9c-1.4-13.3-3.2-26.6-6.3-39.7c-5.5-23.2-15.3-45.9-32-63.4
				c-6.7-7-14.5-13.3-23.3-17.7c0.6,0.1,1.2,0.1,1.8,0.2c0.1,0.1,0.2,0.1,0.3,0.2c9.8,5.4,18.4,12.8,25.6,21.2
				c15.8,18.5,24.6,41.6,29.5,65.2c2.7,13.2,4.3,26.6,5.6,40c1.3,14.1,2.2,28.1,2.7,42.2C487.7,308.5,487.3,336.8,485.3,364.9z"/>
			<path class="st2" d="M88.7,282.7c-0.5-3.9-1.1-7.9-2.4-11.6c-1.3-3.8-3.5-7.1-5.7-10.4c0.2-0.3,0.3-0.5,0.5-0.8
				c0.2-0.4-0.4-0.7-0.6-0.3c-0.2,0.3-0.3,0.5-0.5,0.8c-0.1,0.1-0.2,0.2-0.2,0.3c-1.8,3-3.7,6.1-5.2,9.3c-1.5,3.1-2.7,6.2-2.7,9.7
				c0,1.8,0.2,3.5,0.2,5.3c0,2.3-0.6,4.4-1,6.6c-0.6,2.9-1,6.1,0.4,8.9c2.7,5.4,9.3,3.8,12.9,0.2C89,295.8,89.4,288.9,88.7,282.7z"/>
			<path class="st1" d="M211.3,358c-0.6-3.4-1.4-6.7-1.7-10.2c-0.3-3.4-0.4-6.8-0.1-10.1c0.2-3.1,1.1-6.1,1.1-9.2
				c0-1.6-0.5-3.5-2.2-4c-1.8-0.6-3.7,0.6-4.6,2.1c-1.3,2.2-1.3,5-1.5,7.5c-0.2,3-0.3,6.1-0.7,9.1c-0.4,3.2-1.1,6.3-2.6,9.1
				c-0.7,1.4-1.6,2.8-3,3.6c-1.7,1-3.8,0.8-5.7,0.8c-5.6,0.1-16.5,1.4-17.3-6.6c-0.3-3,1.2-5.9,2.4-8.6c1.2-2.8,1.9-5.7,2.3-8.7
				c0.2-1.8,1.2-4.8-0.4-6.3c0-0.1-0.1-0.1-0.1-0.2c-4.4-3.1-7.4,3.7-8.4,6.8c-1.7,5.4-2.3,11.2-6.6,15.3c-3.5,3.2-8.2,5.4-9.9,10.2
				c-1,3-1,6.3-2.6,9.2c-1.4,2.4-3.5,4.3-5.5,6.2c-4.2,4-6.7,8.8-8.6,14.3c-1.9,5.5-3.6,11.5-1.6,17.2c3.8,10.7,15.7,14.4,26,15.3
				c5.9,0.5,12.1,0.7,17.8-0.7c2.7-0.7,5.2-1.8,7.5-3.3c2.6-1.7,4.8-3.6,7.9-4.2c2.3-0.5,4.5-0.9,5.9-3c1.5-2.2,1.9-5.3,2.4-7.9
				c1.2-6.2,1.2-12.5,2-18.7c0.4-3.5,1.4-6.7,3.2-9.7c1.4-2.3,3.1-4.5,4.1-7C211.8,363.4,211.8,360.7,211.3,358z"/>
			<path class="st6" d="M136.6,378c-0.1-4.2-0.3-8.9-1.5-13c-1-3.5-3.5-5.3-6.8-5.9c-3.9-0.7-8-0.6-12-0.7
				c-20.2-0.8-40.6-0.7-60.2,5.1c-0.3,0.1-0.3,0.5-0.1,0.6c1.8,1,0.2,4.4,1.6,5.9c0.4,0.4,0.9,0.7,1.4,0.8
				c-1.2,8.1-2.2,16.3-2.8,24.5c-0.6,8.2-1.4,16.9,4.9,23c5.9,5.7,14.2,6.7,21.8,7.5c8.7,0.9,17.5,1.7,26.2,0.9
				c3.9-0.4,7.7-1.1,11.4-2.4c3.2-1.1,7.3-2.6,9.5-5.5c1-1.4,1.5-3,1.8-4.7c0.5-2.5,1-5,1.5-7.6c0.9-4.5,1.7-9,2.2-13.6
				C136.4,388,136.7,383,136.6,378z"/>
			<path class="st1" d="M421,377.6c-0.2-2.6-1.6-4.5-3.2-6.3c-2.1-2.4-4-4.6-4.8-7.7c-1.6-5.7-0.6-11.7-1.1-17.4
				c-0.5-5.9-2.8-10.5-7.2-14.4c-4.7-4.2-10-7.9-15.9-10.2c-3.3-1.3-6.6-2.5-9.4-4.8c-2.3-1.9-4.2-4.3-5.6-7c-1.1-2.2-1.5-4.4-2-6.7
				c-0.1-1.2-0.5-2.2-1-3.1c-0.6-1.2-1.4-2.2-2.6-2.8c-0.5-0.4-0.9-0.8-1.4-1.1c-3-2.3-6.2-5.3-10-6.2c-5-1.1-14.8,1.6-14.3,8.1
				c-0.1,2.7,0.9,5.4,1.6,8c1,3.7,1.9,7.4,2,11.3c0.1,3.7-1.1,7.2-1.1,10.8c0,3.3,1.5,6.2,2.6,9.2c1.2,3.6,1,7.4,0.7,11.2
				c-0.2,3.7-0.6,7.4-1.2,11.1c-0.9,6-2.3,12.5,0.5,18.2c2.7,5.5,8.8,6.7,13.8,9.2c5.6,2.8,10.7,6.8,16.8,8.5c6.7,1.8,14,1.3,20.8,1
				c5.6-0.2,12.4,0.1,16.7-4.2C419.3,388.7,421.3,382.6,421,377.6z M375.1,328.1c-0.4,0.9-0.9,0.7-1.9,0.6c-0.7-0.1-1.3-0.3-2-0.6
				c-1.7-0.7-3.3-1.8-4.7-3.1c-4.4-4-7-9.4-11.9-13.1c-1.6-1.2-2.6-2.3-3.2-4.2c-0.5-1.7-0.9-3.5-1.2-5.3c-0.2-0.9-0.3-1.8-0.5-2.6
				c0-1.7,0.3-3.3,1.3-4.6c1.5-1.8,4.2-1.9,6.2-1c2.3,1.1,6.2,6.2,6.6,6.8c0.9,1.5,1,3.3,1,5c0.1,2.4,0.2,4.9,1.7,6.8
				c1.8,2.4,4.8,3.6,6.6,6.1C374.9,321.3,376.2,325.3,375.1,328.1z"/>
			<path class="st7" d="M225.9,372c3.7,12.7,15.1,44.2,15.1,44.2s0,1.8,1.7,1c3-1.4,2-1.3,4.7-3.2c0.7-0.5,1-1.7,0.8-2.5
				c-1.5-6.5-6.3-44.9-6.3-44.9S225.5,370.4,225.9,372z"/>
			<path class="st3" d="M243.1,415.4c-0.8-0.2-3.3-1-4.6-0.6c-0.6,2.1-2.3,3.9-4.5,6.2c-2.3,2.3-5.2,4.1-7.8,6
				c-3.8,2.8-4.6,3.2-3.4,5.8c0.8,2,4.9,1.4,8.4,0.2c6.8-2.3,13.5-4.6,20.3-6.9c4-1.3-1-11.1-1.3-12.5
				C248.9,414.3,246.9,416.5,243.1,415.4z"/>
			<path class="st3" d="M252.1,422.1c-3,1.4-6.1,2.1-9.2,3.2c-3.5,1.4-6.8,3.2-10.5,4.2c-1.7,0.5-3.4,0.8-5.1,1.2
				c-1.6,0.3-3.4,0.8-5,0.7c0.1,0.4,0.2,0.9,0.4,1.4c0.8,2,4.9,1.4,8.4,0.2c6.8-2.3,13.5-4.6,20.3-6.9c1.6-0.5,1.7-2.4,1.3-4.5
				C252.5,421.9,252.3,422.1,252.1,422.1z"/>
			<path class="st3" d="M68.6,444.1c0.5,0.6,2.2,2.7,2.3,4.1c-1.8,1.4-2.8,3.6-4.1,6.5c-1.3,3-1.9,6.3-2.7,9.5
				c-1.2,4.5-1.2,5.4-4.1,5.3c-2.2,0-3.1-4-3.3-7.7c-0.4-7.2-0.8-14.3-1.2-21.4c-0.2-4.2,10.7-3.1,12.1-3.4
				C67.6,438.3,66.2,440.9,68.6,444.1z"/>
			<path class="st3" d="M59.1,438.2c-0.2,3.3,0.4,6.5,0.4,9.7c0,3.8-0.4,7.5,0,11.3c0.2,1.7,0.5,3.5,0.8,5.2
				c0.3,1.6,0.5,3.4,1.2,4.9c-0.4,0.1-0.9,0.1-1.5,0.1c-2.2,0-3.1-4-3.3-7.7c-0.4-7.2-0.8-14.3-1.2-21.4c-0.1-1.7,1.6-2.5,3.7-2.9
				C59.1,437.8,59.1,438,59.1,438.2z"/>
			<path class="st7" d="M257.3,375c2.5,13,10.7,45.5,10.7,45.5s-0.1,1.8,1.6,1.2c3.1-1.1,2.1-1.1,5-2.7c0.8-0.4,1.1-1.6,1-2.4
				c-0.8-6.7-1.8-45.3-1.8-45.3S257,373.4,257.3,375z"/>
			<path class="st3" d="M269,420c-0.8-0.3-3.2-1.4-4.5-1.1c-0.8,2.1-2.7,3.7-5.1,5.8c-2.5,2.1-5.6,3.6-8.4,5.2c-4,2.4-4.9,2.7-4,5.4
				c0.6,2.1,4.7,1.9,8.3,1.1c7-1.6,13.9-3.2,20.9-4.8c4.1-0.9,0.1-11.1-0.1-12.6C274.8,419.4,272.7,421.4,269,420z"/>
			<path class="st3" d="M277.3,427.5c-3.1,1.1-6.3,1.5-9.5,2.3c-3.7,1-7.1,2.5-10.9,3.1c-1.7,0.3-3.5,0.5-5.2,0.7
				c-1.6,0.1-3.4,0.5-5.1,0.2c0,0.4,0.1,0.9,0.3,1.4c0.6,2.1,4.7,1.9,8.3,1.1c7-1.6,13.9-3.2,20.9-4.8c1.6-0.4,2-2.2,1.8-4.4
				C277.7,427.4,277.4,427.5,277.3,427.5z"/>
			<path class="st8" d="M369.8,333.8c-30.7,0.1-109,0.5-117.5,0.6c-0.3,0-0.6,0-0.8,0c-0.1,0-0.1,0-0.2,0c-2.3,0.6-4.6,7.3-6.1,12.5
				c-0.1,0.2,0.1,0.4,0.3,0.4c4.1,0.4,35,0.7,64.5,0.8c-0.4,2.3-0.8,4.6-1.2,6.9c-28.8,0.1-56.8,0.3-61.7,0.3c-0.3,0-0.6,0-0.8,0
				c-0.1,0-0.1,0-0.2,0c-2.3,0.6-4.6,7.3-6.1,12.5c-0.1,0.2,0.1,0.4,0.3,0.4c4.2,0.4,36,0.7,65.9,0.8c-0.5,3-1.1,6-1.6,8.9
				c-29.2,0.1-57.9,0.3-62.8,0.3c-0.3,0-0.6,0-0.8,0c-0.1,0-0.1,0-0.2,0c-2.3,0.6-4.6,7.3-6.1,12.5c-0.1,0.2,0.1,0.4,0.3,0.4
				c7.9,0.7,111.8,1.2,120.7,0.4c0.1,0,0.3-0.1,0.3-0.2c1.4-5.8,2.1-7.5,3.5-13.3c0.1-0.2-0.1-0.4-0.3-0.4
				c-10.9,0.1-27.9,0.1-45.7,0.2c0.5-2.9,1.1-5.8,1.6-8.8c22.4,0,42-0.1,45.7-0.4c0.1,0,0.3-0.1,0.3-0.2c1.4-5.8,2.1-7.5,3.5-13.3
				c0.1-0.2-0.1-0.4-0.3-0.4c-11.1,0.1-28.5,0.1-46.5,0.2c0.4-2.3,0.8-4.6,1.2-6.8c22.9,0,43.2-0.1,47-0.4c0.1,0,0.3-0.1,0.3-0.2
				c1.4-5.8,2.1-7.5,3.5-13.3C370.1,334,370,333.8,369.8,333.8z"/>
			<path class="st1" d="M341.5,205.6c-0.4-0.7-1.1-1.3-1.6-1.9c-1.1-1.4-0.8-2.8-0.9-4.4c-0.1-1.6-0.9-2.9-2.3-3.8
				c-2-1.2-4.4-1.1-4.7-4c-0.2-1.5-0.2-2.7-1.5-3.8c-2-1.6-5-1.2-6.8-3.2c-1.6-1.7-2.1-4.2-3.4-6.1c-1.3-1.9-3.1-2.8-5-4
				c-2.4-1.5-3.1-4.3-3.6-6.9c-0.1-0.4-0.6-0.3-0.7,0.1c-1.4,0.4-3,1-4,2.2c-1.3,1.8-1.4,4.8-1.8,6.9c-1,5.1-2.2,10.2-2.2,15.4
				c0,1.8,0.1,3.5,1.4,4.9c1.5,1.6,3.5,2.8,5.2,3.9c4,2.6,8.1,5.1,12.9,5.8c5.5,0.8,10.6,2.2,15.9,3.5c1,0.3,2.5,0.8,3.4-0.1
				C343,209.1,342.2,206.8,341.5,205.6z"/>
			<path class="st3" d="M336.5,301.1c-0.9-3.2-1.7-6.9-3.7-9.5c-2.1-2.8-5.7-4.2-8.8-5.5c-3.8-1.6-7.8-3-11.8-4.2
				c-6.4-1.8-12.9-3-19.5-3.6c0.1-0.1,0.2-0.3,0.3-0.4c0.3-0.3-0.3-0.7-0.6-0.3c-0.2,0.2-0.4,0.5-0.5,0.7c-1.7-0.1-3.4-0.2-5.1-0.3
				c-0.4,0-0.4,0.7,0,0.7c1.6,0.1,3.1,0.1,4.7,0.3c-0.7,0.9-1.4,1.8-2,2.7c-0.1,0.1-0.1,0.1-0.1,0.2c-0.5,0.5-0.9,1-1.4,1.5
				c-1-0.7-2.1-1.3-3.3-1.8c-7.2-2.9-15.4-2.3-22.9-0.8c-4.1,0.9-8.1,2-12.1,3.2c-1.1,0.3-2.7,1.1-3.4,2.1
				c-9.6,4.7-19.3,9.2-28.9,14.1c-3.7,1.9-7.5,4-10.3,7.1c-2.7,3-4.3,6.7-4.7,10.7c-1,9.8,4.1,18.7,7.4,27.6c1.8,5,2.6,9.9,3.3,15.2
				c0.6,4.7,1.9,8.9,4.4,12.9c1.5,2.4,3.3,4.7,4.7,7.1c1.5,2.5,2.6,5.2,3.6,8c0.6,1.8,1.1,3.6,1.6,5.4c-0.1,1.4-0.4,2.9-0.4,4.3
				c0,2.6,1.2,4.7,2.6,6.9c0.8,1.1,1.6,2.3,2,3.6c0.5,1.5-0.1,3,0.2,4.5c0.3,2.4,3.1,2.9,3.6,5c0,0.2,0.2,0.3,0.4,0.2
				c5.2-0.8,10.5-1.3,15.8-1.6c0.6,0,1.2-0.1,1.8-0.3c-0.1,0.6-0.1,1.3,0,1.9c0.1,0.4,0.2,0.8,0.4,1.2c0.5,1.3,0.6,2.3,0.3,3.8
				c0,0.3,0.2,0.5,0.4,0.4c8-2,16.4-0.1,24.4-2c3.1-0.7,0.6-4,0.1-5.9c-0.7-2.5,1-4,1.5-6.2c0.1-0.2,0.1-0.4,0.1-0.7
				c0.8-1.4,1-3.3,1.1-4.8c0.2-3.6-0.7-7.2-1-10.8c-0.4-4.1,0.6-7.6,1.7-11.5c1.1-3.7,1.5-7.5,1.2-11.4c-0.3-3.7-1.2-7.4-0.9-11.1
				c0.3-4,2.4-7.2,5.6-9.5c2.7-2,5.8-3.4,8.8-5c3.5-1.9,7-3.9,10.3-5.9c6.6-4,13-8.4,19.1-13.1c4.8-3.7,9.8-8.2,11-14.5
				C338,308.1,337.4,304.5,336.5,301.1z M242.1,329.7c1.3-0.9,2.7-1.5,4.1-2.2c1.4-0.7,2.8-1.5,4.2-2.3c-1.6,3.2-2.8,6.6-3,10.2
				c-0.2,4.6,1.3,8.9,2.3,13.3c0.5,2.3,0.9,4.6,0.7,7c-0.1,2.7-0.8,5.4-1.1,8.1c-0.7,4.9,0.4,9.2,1.8,13.9c0.8,2.7,1.4,5.5,1.4,8.3
				c0.1,2.9-0.3,5.9-0.2,8.8c0,0.7,0.1,1.4,0.1,2c-1.6-2.7-3.5-5.3-3.1-8.6c0.3-3.1,1.7-5.9,1.1-9.1c-0.6-2.8-2.5-5.1-4-7.4
				c-2.1-3.2-2.8-6.5-2.5-10.3c0.3-3.4,1.1-6.8,1.1-10.2c-0.1-3.4-0.9-6.8-1.9-10.1c-0.5-1.6-1-3.3-1.5-4.9
				C240.9,334.1,239.8,331.3,242.1,329.7z"/>
			<path class="st9" d="M341.6,261.5c-0.4-2.6-1.1-5.2-1.8-7.8c-1.4-5.6-1.6-11.2-1-17c0.6-5.6,1.6-11.2,1.8-16.9
				c0.2-6.2-0.9-12.6-3.7-18.2c0,0,0,0,0,0c-0.1-0.3-0.3-0.6-0.4-0.8c-1-1.8-2.2-3.6-3.6-5.2c-1.5-1.7-3.1-3.1-4.9-4.2
				c-0.2-0.1-0.4-0.2-0.6-0.4c-3.4-2.1-7.3-3.3-11.3-3.9c-0.2,0-0.5-0.1-0.7-0.1c-2.5-0.4-5.1-0.5-7.7-0.5c-2.6,0-5.2,0.1-7.7,0.2
				c-0.1,0-0.2,0-0.2,0.1c-0.4,0-0.7,0-1,0c-0.2,0-0.5,0-0.7,0c-2.2-0.2-4.4-0.8-6.6-1.1c-2.6-0.3-5.1,0.2-7.7,0.6
				c-3.2,0.5-6.5,0.2-9.7,0.1c-0.2,0-0.5,0-0.7,0c-2.3-0.1-4.6,0-6.8,0.6c-2.5-0.1-4.9,0.2-7.2,0.8c-0.3,0.1-0.5,0.1-0.8,0.2
				c-6.8,2.2-12.5,7.6-15.8,14.2c-2.5,5.1-3.9,10.6-4.4,16.2c-0.2,1.7-0.2,3.4-0.5,5c-0.3,1.7-1.1,3.2-1.9,4.7
				c-1.4,2.7-2.6,5.4-3.8,8.2c-1.2,3-2.5,6.1-2.6,9.5c-0.1,3.7,0.3,7.5,0.5,11.3c0,0.1,0.1,0.3,0.2,0.3c3.3,0.6,6.6,1.2,9.9,2.1
				c1.6,0.4,3.2,1,4.8,1.6c0,1.1,0,2.1,0,3.2c0.1,2.7,0.4,5.3,0.4,8c0,3-0.7,5.7-1.7,8.5c-0.8,2.1-1.5,4.3-0.7,6.5
				c0.7,1.8,2.1,3.1,3.5,4.3c2.3,2,4.6,4.1,7.1,5.8c0.3,0.2,0.5,0.4,0.8,0.5c1.3,0.9,2.7,1.6,4.1,2.2c3.2,1.3,6.7,1.9,10,1.2
				c0.2,0,0.5-0.1,0.7-0.2c0.8-0.2,1.5-0.4,2.3-0.8c3.3-1.5,5.9-4,8.5-6.4c0.2-0.2,0.3-0.3,0.5-0.5c0,0,0.1-0.1,0.1-0.1
				c2.8-2.7,5.9-5.5,9.8-6.5c2.3-0.6,4.6-0.4,6.8,0.2c0.2,0.1,0.5,0.1,0.7,0.2c2.7,0.9,5.2,2.4,7.5,3.9c2,1.3,3.9,2.9,6,4.1
				c0.7,0.4,1.3,0.7,2,0.9c0.2,0.1,0.4,0.1,0.6,0.2c1.4,0.4,2.9,0.5,4.4,0.7c3.5,0.5,6.6,2.1,9.6,4c0.2,0.1,0.5,0.3,0.7,0.5
				c1.2,0.8,2.5,1.7,3.7,2.6c1.1,0.8,3.1,2.9,4.6,2.1c1.5-0.7,2.3-3.1,2.8-4.6c1.4-5.2-0.5-10.5-0.5-15.8c-0.1-5.6,1.6-11,2.3-16.5
				C341.9,266.8,342,264.1,341.6,261.5z"/>
			<g>
				<path class="st0" d="M270.5,252.1c1.2,4,1.7,8.1,1.5,12.2c-0.1,4.5-0.9,9-1.4,13.4c-0.6,4.4-1,8.9-1.2,13.4
					c-0.2,3.4-0.2,6.7-0.2,10.1c-0.2,0.1-0.4,0.1-0.7,0.2c-0.1-4.6,0.1-9.3,0.4-13.9c0.6-9,2.9-18,2.3-27c-0.3-4.5-1.7-8.7-2.9-13
					c-1.1-4-1.5-8-1.6-12.2c-0.5-16.6,1.9-33.2,6.6-49.1c0.2,0,0.5,0,0.7,0c-2.6,8.7-4.5,17.6-5.6,26.6c-1,8.6-1.6,17.5-0.9,26.2
					C268.1,243.6,269.3,247.8,270.5,252.1z"/>
				<path class="st0" d="M258.7,241.9c0.5,4.9,0.9,9.8,0.6,14.7c-0.2,4.5-0.9,8.9-1.7,13.2c-1.6,9.4-2.7,18.7-3.2,28.1
					c-0.3-0.2-0.5-0.3-0.8-0.5c0-0.9,0.1-1.8,0.2-2.8c0.6-9.4,2.1-18.6,3.6-27.9c0.8-4.9,1.3-9.9,1.2-14.9
					c-0.1-4.9-0.6-9.8-1.2-14.7c-1.7-16.4-3-33.2,1.1-49.3c0.2-0.1,0.5-0.2,0.8-0.2c-2.3,8.6-3,17.6-2.8,26.5
					C256.8,223.5,257.8,232.7,258.7,241.9z"/>
				<path class="st0" d="M297.1,260.4c2.1,8.4,1.4,17,1,25.5c0,0.5-0.1,1-0.1,1.5c-0.2-0.1-0.4-0.1-0.7-0.2c0.1-1.6,0.2-3.1,0.2-4.7
					c0.2-4.5,0.5-9,0.2-13.6c-0.3-4.5-1.4-8.7-2.5-12.9c-1.1-3.9-2-7.8-2.2-11.8c-0.3-4.3,0-8.5,0.3-12.8c1-14.9,2.6-29.8,4.9-44.7
					c0.2,0,0.5,0,0.7,0c-1.1,7.5-2.1,14.9-2.9,22.4c-0.9,8.8-1.8,17.6-2.2,26.4c-0.2,4.3-0.2,8.7,0.4,13
					C294.8,252.6,296.1,256.5,297.1,260.4z"/>
				<path class="st0" d="M314.5,267.4c0.6,9.6-0.4,19.4-0.4,29.1c-0.2,0-0.4-0.1-0.6-0.2c0-1.9,0-3.8,0.1-5.6
					c0.3-8.9,0.7-17.6,0-26.5c-0.8-9.2-2.4-18.4-3.5-27.6c-1.1-9.1-1.6-18.3-0.5-27.4c0.9-7.7,3-15.1,6-22.2c0.2,0,0.5,0.1,0.7,0.1
					c-3.7,8.6-5.9,17.8-6.4,27.1C308.7,232.1,313.3,249.6,314.5,267.4z"/>
				<path class="st0" d="M328.8,295.5c-0.1,2.1-0.1,4.2,0,6.3c-0.2-0.2-0.5-0.3-0.7-0.5c-0.1-1.9-0.1-3.9,0.1-5.8
					c0.6-9.1,3.7-18.2,1.8-27.3c-0.1-0.4,0.6-0.6,0.6-0.2C332.5,277.2,329.4,286.3,328.8,295.5z"/>
			</g>
			<path class="st2" d="M150.5,306.5c-2.2-4.2-5.9-7.1-9.6-10c-4-3.2-7.6-6.4-9.5-11.3c-1.7-4.3-4.9-13.4-9.8-14.7
				c-3.1-0.8-4.9,4.7-7.9,5.3c-3.6,0.6-7.2,1.3-10.8,1.9c-7.2,1.3-14.5,2.6-21.7,3.9c-0.4,0.1-0.2,0.7,0.2,0.7c0.1,0,0.2,0,0.3,0
				c0,0.1-0.1,0.1-0.1,0.2c0.1,7.2-6.9,10.9-12.3,14.1c-5,2.9-9.3,6.6-12,11.8c-3,5.7-3,12.1-4.2,18.3c-1.2,6.4-4,12.3-6.4,18.3
				c-0.7,1.8-1.4,3.6-2,5.5c0,0,0,0.1-0.1,0.1c0,0.1-0.1,0.3-0.1,0.4c-0.3,0.8-0.5,1.6-0.7,2.5c-0.9,2.9-1.7,5.8-1.6,8.8
				c0.1,3.7,2.2,6.4,4.7,8.9c2.8,2.8,5.9,5.2,9.2,7.5c-0.2,4.2-1.2,8.4-0.9,12.6c0,0.2,0.1,0.3,0.3,0.3c3.7-0.1,7.4-0.2,11.1,0.2
				c3.8,0.4,7.5,1.3,11.2,1.7c7.6,0.8,15.3,0.2,22.9-0.1c3.7-0.1,7.4-0.2,11.1,0c1.8,0.1,3.7,0.2,5.5,0.4c2,0.2,4.2,0.1,6,1.1
				c2.5,1.5,5.9,0.4,8.6,0.1c1.6-0.2,3.2-0.4,4.8-0.7c1.2-0.2,2.4-0.2,3-1.4c0.6-1.3,0.5-3.1,0.6-4.4c0.2-2.3,0.3-4.5,0.6-6.8
				c0.1-0.7,0.3-1.3,0.4-2c1.6-1,3-2.4,4.1-3.9c3.1-4.3,4-9.8,4.3-15c0.4-6.6,0.2-13,1.6-19.4c1.3-6.1,2.6-12,2.5-18.2
				C153.7,317.4,153.1,311.5,150.5,306.5z"/>
			<path class="st7" d="M309.5,162.6c-1.3-1-3.9-0.9-5.4-1c-5.6-0.2-11.4,0.5-17,1c-2.9,0.3-5.7,0.6-8.6,1c-2.3,0.3-4.5,0.7-6.5,1.8
				c0,0,0,0,0,0c-0.2,0-0.3,0-0.4,0.3c-1.4,8.3-2.8,17.3,0.9,25.2c1.6,3.4,4.1,6.3,7.7,7.6c3.5,1.3,7.4,1,10.7-0.4
				c7.7-3.2,11.8-10.9,14.6-18.3c1.7-4.5,3.4-9.1,4.4-13.8C310.4,164.8,310.7,163.5,309.5,162.6z"/>
			<path class="st3" d="M280.5,228.1c-0.8,7.3-1.5,14.8-1.1,22.2c0.4,7,3.9,13.4,3.8,20.4c0,3.3-0.8,6.6-1.5,9.8
				c-0.8,3.8-1.2,7.6-1,11.5c0,0.5,0,1,0.1,1.5c0,0-0.1,0.1-0.1,0.1c-0.2,0.2-0.3,0.3-0.5,0.5c-0.1-2.5-0.3-4.9-0.1-7.3
				c0.2-3.3,1.1-6.6,1.7-9.8c0.8-3.9,1-7.6,0.2-11.6c-0.7-3.3-1.8-6.6-2.5-9.9c-0.7-3.3-0.8-6.6-0.8-9.9c0.2-14.6,2.3-29.1,6-43.2
				c0.1-0.4,0.8-0.2,0.6,0.2C283.1,210.9,281.5,219.4,280.5,228.1z"/>
			<path class="st1" d="M308.6,171c-1.3,0-2.6,0.1-3.9,0.1c-0.3,0-0.4,0.2-0.3,0.4c-0.4,2.3-1,4.8-2.2,6.7c-1,1.7-3.8,1.4-5.5,2.4
				c-1.3,0.7-2.5,1.8-3.3,3.2c-0.2,0.3-1.8,3-6.2,3.2c-2.5,0.1-3.8-2.1-6.1-2.7c-1.9-0.5-2.8,0.9-4.6,1.1c-2.8,0.2-4.5-2.4-5-4.8
				c-0.5-2.5-0.2-5.3,0.2-7.8c0-0.2-0.1-0.3-0.2-0.4c-0.1-0.1-0.3-0.1-0.4,0c-2,2.5-4,5.3-3.5,8.7c0.2,1.4,0.7,2.7,0,4
				c-0.5,0.9-1.5,1.5-2.1,2.3c-0.8,1.1-1.4,2.4-1.5,3.8c-0.2,2,1,3.8,0.5,5.8c-0.5,2-1.7,3.7-1.9,5.8c-0.3,2.5,0.8,5.1,3.1,6
				c1.2,2.6,6.7,4,8.7,4.1c2.8,0.2,4.1-1.5,6.4-2.7c2.7-1.4,6.1,0.5,9,0.1c2.1-0.3,3.9-1.4,4.9-3.3c0.6-1.1,0.8-3,2-3.5
				c1.1-0.4,2.2-0.3,3.2-1c4.3-2.9,2.9-9,5.6-12.9c0.9-1.3,2-2.3,2.7-3.7c0.6-1.2,0.7-2.5,0.6-3.8c-0.1-1.7-0.6-3.4-0.7-5.1
				c-0.1-1.9,0.2-3.8,0.8-5.7C309,171.2,308.8,171,308.6,171z"/>
			<path class="st10" d="M599.2,275.9c0-0.2,0-0.4,0-0.6c0-0.2,0-0.5,0-0.7c-0.1-0.8-0.2-1.6-0.5-2.3c-1.2-2.4-4.6-1.7-6.8-1.7
				l-22.9-0.1c-17.1-0.1-34.1-0.2-51.2-0.3c-0.2,0-0.3,0.2-0.3,0.4c0,0,0,0,0,0c-0.1,1.2-0.2,2.4-0.2,3.5c0,0.2,0,0.4,0,0.7
				c-1.5,23.6-2.9,47.8-4.4,71.3c-0.4,6.3-0.8,12.6-1.2,18.8l-0.6,9.4c-0.2,2.8-0.5,5.6-0.5,8.4c0.1,1.7,0.3,3.5,1.4,4.8
				c1.3,1.6,3.3,1.9,5.2,2c6.2,0.3,12.5,0.5,18.8,0.7c14,0.4,45.8,0.9,47.5,0.6c2.4-0.3,8.3,0.7,10.1-9.3
				C595.9,367.4,599.3,277.5,599.2,275.9z"/>
			<path class="st6" d="M315.5,168.3c0.1,0.8-0.7,1.4-2,1.9c-1,0.2-2,0.4-3,0.5c-1,0.2-1.9,0.2-2.7,0.1c-1.4-0.6-2.9-1.2-4.4-1.4
				c-1.1-0.1-2.1-0.1-3.1,0.1c-0.4,0-0.9,0.1-1.3,0.2c-0.2,0.1-0.4,0.2-0.6,0.3c-0.8,0.4-1.5,0.9-2.4,1c-1.9,0.4-3.7-0.4-5.5-0.9
				c-1.1-0.2-2.2-0.4-3.4-0.3c-1.6,0-3.2,0.4-4.6,1c-0.6,0.2-1.2,0.4-1.8,0.6c-1,0.4-1.9,0.6-2.7,0.8c-3.5,0.1-7.1,0.1-10.6,0.2
				c-1.6,0-3.3,0.3-4.9,0.1c-0.5-0.1-1-0.1-1.3-0.6c-0.9-1.4,1.2-3.7,1.9-4.7c0.3-0.5,6.6-5.3,8.2-8.1c0.2-0.4,0.4-0.8,0.6-1.2
				c0.4-1,0.5-2.1,0.8-3.2c0-0.2,0.1-0.5,0.1-0.7c0.3-1.3,0.9-2.5,1.2-3.7c0.3-0.6,0.5-1.2,0.8-1.9c1.4-3.7,2.5-7.6,3.6-11.3
				c0.1-0.2,0-0.4,1.4-0.7c2.2-0.1,4.2,0.2,6.5,0.4c2.5,0.2,4.8-0.1,7.2-0.5c1.7-0.3,3.1-0.4,4.8,0c0.8,0.2,1.6,0.5,2.5,0.5
				c1.4,0.1,2.8-0.3,4.2-0.4c1.1,0.3,1.8,0.6,2.2,1c1,1,1.3,2.4,1.4,3.8c0.1,3.1-1.5,6.1-1.2,9.3c0,0,0,0,0,0.1
				c0.2,1.5,0.8,2.8,0.7,4.3c0,0.1,0,0.2-0.1,0.4c0.1,0.8,0.4,1.6,1,2.2c0,0,0.1,0.1,0.1,0.1c0.6,0.5,1.3,0.9,1.8,1.5
				c0.6,0.6,0.8,1.4,1,2.2C313.5,164.2,315.4,167.7,315.5,168.3z"/>
			<path class="st3" d="M276.5,157.7c1.6-0.2,3.3-0.5,4.9-0.5c4-0.2,7.7,0.8,11.7-0.1c3.3-0.8,6-1,9.4-0.7c1.9,0.2,4,0.5,5.9,0.4
				c-0.2-0.5-0.4-1-0.5-1.5c0-0.1,0.1-0.3,0.1-0.4c0.1-1.5-0.6-2.8-0.7-4.3c0,0,0,0,0-0.1c-0.1,0-0.1,0-0.2,0
				c-1.4,0.4-3.1,0.4-4.3,0.5c-2.2,0.2-4.3,0.6-6.4,0.5c-2.2-0.1-4.4-0.6-6.6-0.6c-2.4,0-4.7,0.5-7.1,0.5c-2,0-3.9-0.2-5.9-0.4
				c-0.6-0.1-1.5-0.1-2.3-0.2c-0.1,0-0.1,0-0.2,0c-0.5,1.4-1.1,2.7-1.7,4c-0.2,1.1-0.4,2.2-0.8,3.2c0.9,0.1,1.8,0.1,2.7,0.1
				C275.3,157.9,276,157.7,276.5,157.7z"/>
			<path class="st7" d="M260.7,214.9c-0.5-0.9-1.7-1.3-2.5-1.7c-1.5-0.7-3.1-1.4-4.7-2c-0.1-0.1-0.3,0-0.4,0.1
				c-1.2,1.6-2.2,3.3-3,5.1c-5.4,10.7-11.3,18.6-17.3,28.9c-2.8,4.7-5.5,9.5-7,14.8c-1.2,4.2-2.4,10,1.8,12.6
				c4.3,2.7,8.8-1.1,11.4-3.1c4.1-3.3,6.4-8.1,8.1-13c4.1-12,6.4-22.1,11.4-33.8c0.7-1.5,1.3-3.1,1.8-4.7
				C260.6,217.2,261.2,215.9,260.7,214.9z"/>
			<path class="st11" d="M285.5,183.6c-1.2,0.2-2.4,0.4-3.7,0.3c-2.4-0.2-3.3-1.5-2.9-3.8c0.3-2,0.9-4,1.7-5.9
				c0.2-0.4-0.5-0.6-0.7-0.2c-0.7,1.7-1.2,3.5-1.6,5.3c-0.2,1.1-0.6,2.5,0,3.5c1.3,2.4,5.1,1.7,7.2,1.4
				C286.1,184.1,285.9,183.5,285.5,183.6z"/>
			<path class="st7" d="M258.1,217.2c-0.1-0.8,0-1.8-0.8-2.2c-0.9-0.4-2.5,0-3.4,0.2c-1.1,0.2-2.2,0.7-3.2,1.2
				c-1.2-2.2-2.5-4.4-3.9-6.4c-0.6-0.8-1.7-2.1-2.5-1.1c-0.2,0-0.5,0.2-0.4,0.4c0.3,1.7,0.2,3.2,0,4.9c-0.1,1.4,0.4,2.6,0.9,3.9
				c1,2.6,1.9,5.2,2.6,7.9c0,0-0.1,0-0.1,0c-0.4-0.2-0.8,0.4-0.4,0.6c0.3,0.1,0.5,0.3,0.8,0.4c0,0,0.1,0,0.1,0
				c1.1,0.6,2.3,1.4,3.5,1.8c1,0.4,1.8-0.1,2.7-0.6c2.1-1.3,4-3.2,4.4-5.7C258.7,220.7,258.3,218.9,258.1,217.2z"/>
			<path class="st12" d="M286.9,204.7c-8.8,0.2-17.6,0.2-26.4,0c-0.6,0.7-1.1,1.5-1.7,2.2c-0.5,0.6-0.9,0.8-1.6,1
				c-0.6,0.1-1.2-0.1-1.5,0.3c-0.3,0.3-0.2,1.8-0.2,2.2c0,0.3-0.4,0.5-0.6,0.2c-1.1-1.2-2.4-2.3-3.6-3.3c-1.2-1.1-2-1.1-3.6-0.9
				c-0.7,0.1-1.5,0.2-2.1-0.2c-0.7-0.5-0.9-1.3-1.3-2c-2-0.1-4.1-0.2-6.1-0.3c-0.3,0-0.4,0.4-0.2,0.6c-0.1,0.1,0,0.3,0.1,0.4
				c2.7,1.8,5.3,3.6,7.8,5.6c1.1,0.9,2.2,1.9,3,3.1c1,1.5,1.3,3.3,1.6,5c0,0.1,0.2,0.2,0.3,0.2c8.1-0.1,16.3-0.4,24.4,0
				c0.2,0,0.3-0.2,0.3-0.3c0-1.7,0-2.8,0.9-4.3c0.7-1.3,1.8-2.5,2.9-3.5c2.1-2,7.5-5.4,7.7-5.5C287.3,205.3,287.3,204.7,286.9,204.7
				z"/>
			<path class="st7" d="M290.7,223.4c-1.2-1.2-2.7-6.3-3.3-7.3c-0.6-1.1-1.3-2-2.3-2.7c-2.7-2-5.8-3.2-8.5-5.1
				c-0.7-0.5-3-2.5-3.2-0.5c-0.1,1.3,0.8,2.5,1.9,3.5c-8.5-3.6-8.3-3.8-15-3.6c-0.1,0-0.2,0-0.3,0c-0.3,0-0.6,0.2-0.8,0.6
				c-0.8,1.6,2.4,1.8,3.4,2.3c0.2,0.1,0.4,0.2,0.6,0.3c-0.6-0.1-1.2-0.1-1.8-0.1c-0.8,0-2-0.1-2.7,0.5c-1.2,1-0.1,1.9,0.9,2.2
				c0.9,0.2,1.7,0.4,2.6,0.6c-1.4,0.1-3.2,0.5-3.3,1.8c0,0.4,0.2,0.6,0.5,0.8c0.5,0.4,1.2,0.6,1.9,0.8c-1.3,0.6,0,2.6,1.2,2.9
				c1.9,0.6,6.6,2.2,9.3,4.3c3.2,2.5,4.4,2.4,8,3c2.3,0.4,3.1,3.4,5.5,3.5C285.5,231.1,290.9,223.5,290.7,223.4z"/>
			<g>
				<path class="st11" d="M272.3,212.7c-2.9-1.2-5.9-2.1-9-2.7c-0.4-0.1-0.6,0.6-0.2,0.7c3.1,0.6,6.1,1.5,9,2.7
					C272.5,213.5,272.7,212.9,272.3,212.7z"/>
				<path class="st11" d="M270.4,215.5c-2.1-1.1-4.5-1.3-6.8-1.8c-0.4-0.1-0.6,0.6-0.2,0.7c2.2,0.5,4.6,0.7,6.6,1.8
					C270.4,216.3,270.8,215.7,270.4,215.5z"/>
				<path class="st11" d="M270.2,219.3c-1.2-0.5-2.3-1-3.5-1.4c-1.3-0.4-2.7-0.6-4-0.8c-0.4-0.1-0.6,0.6-0.2,0.7
					c1.3,0.3,2.7,0.4,4,0.8c1.2,0.4,2.3,0.9,3.5,1.4C270.4,220.1,270.6,219.4,270.2,219.3z"/>
			</g>
			<path class="st0" d="M450.2,237.3c-1.2-10.9-4.5-22.5-12.8-30.2c-9.3-8.6-23.3-8.7-35.2-9.7c-7.5-0.6-30.4-0.4-52.6,0.1
				c6.5,29,19.6,56.3,38.3,79.4c5.9,7.3,12.4,14,17.2,22c4.5,7.6,8,15.8,10.8,24.1c2.8,8.2,5.2,16.6,7.6,24.9
				c2.3,8.1,4.5,16.7,8.8,24c0.4,0.7,1,1.9,1.8,2.9c0.4-2.6,0.8-5.3,1.2-7.9c2.3-14.7,4.6-29.3,6.9-44c2.2-14.3,4.4-28.7,6.1-43.1
				C450.1,265.9,451.8,251.5,450.2,237.3z"/>
			<path class="st7" d="M109.5,279.2c-2.2-2.2-5.4-3.6-8.3-4.6c-3.7-1.2-7.6-1.7-11.4-1.4c-1.7,0.1-3.6,0.4-5.1,1.2
				c-1.6,0.9-3.1,2.3-4.5,3.6c0-0.4-0.5-0.5-0.6-0.1c-0.9,3-2.2,6.2-0.9,9.2c1.3,3.1,4.4,5,6.9,7.1c2.9,2.4,5.8,4.8,8.9,6.9
				c2.5,1.7,5.3,3.3,8.4,3.1c8.4-0.6,11.7-14.5,12.4-18.4C115.8,282.9,111.6,281.3,109.5,279.2z"/>
			<path class="st6" d="M82.3,398.5c-3.4-1.9-7.5-1.6-10.9-3.5c0-0.1,0-0.2-0.2-0.3c-7.5-3.8-15.3-7.1-23.2-9.9
				c-7.7-2.7-15.8-5.5-23.9-6.5c-7-0.9-14.5,0.4-19.2,6.1c-3.9,4.8-3.7,11,0,15.9c2.2,2.9,5.3,4.9,8.5,6.5c3.7,1.9,7.7,3,10.7,6
				c2.5,2.5,4.5,5.3,7.6,7.1c2.7,1.6,5.8,2.4,8.9,3c3.3,0.7,6.6,1.2,9.8,2.3c3.6,1.2,6.1,3.4,9.1,5.6c1.2,0.9,2.5,1.6,3.9,1.9
				c2,0.4,4.1-0.2,6.2-0.2c2,0,4,0.3,6,0.8c1,0.3,2.7,1.5,3.7,0.6c0.5-0.5,0.6-1.4,0.7-2c0.3-1.2,0.5-2.4,0.8-3.6
				c0.6-2.5,1.1-5,1.7-7.4c1.1-4.8,2.3-9.6,3.3-14.5C86.4,403.1,85.5,400.3,82.3,398.5z"/>
			<path class="st6" d="M162.2,383.1c-8.8-1.3-17.5,3.1-24.9,7.3c-4,2.3-7.9,4.7-12.1,6.8c-4.4,2.2-8.9,3.5-13.6,4.9
				c-4.4,1.3-7.7,3.7-10.7,7.2c-3.2,3.8-6.3,7.3-10.6,9.8c-1.5,0.9-3.2,1.7-4.8,2.4c-9.5,2.6-18.3,7.6-25.2,14.7
				c-0.3,0.3,0.2,0.8,0.5,0.5c-0.1,0.1-0.1,0.2,0,0.4c2.6,4.3,5.5,8.4,8.9,12.2c1.2,1.4,2.7,3.7,4.6,4.3c1.8,0.6,4.5-0.3,6.3-0.7
				c2.2-0.5,4.4-1.2,6.3-2.4c2-1.2,3.6-2.9,5.7-4c4.8-2.3,10.2-1.6,15.4-2c4.5-0.3,8-2.2,11.2-5.2c3.6-3.3,6.7-6.8,11-9.2
				c4.4-2.5,9.2-4.1,14-5.9c4.6-1.7,9-3.7,13.2-6.2c7-4.1,16.4-10,17.3-18.9C175.3,391.5,169.8,384.3,162.2,383.1z"/>
			<path class="st3" d="M99.3,278.8c-0.9-2.3-3.5-3.1-5.7-3.7c-3.4-1-6.9-1.4-10.4-1c-2.9,0.3-6.6,0.9-8.6,3.2
				c-0.1,0.1-0.1,0.2-0.1,0.3c-1.2,2.3-1.8,4.5-0.4,7c0.3,0.6,0.7,1.1,0.9,1.8c0.4,1.1,0,2-0.1,3.1c-0.1,1,0,1.8,0.7,2.6
				c1.4,1.5,3.7,1.3,5.1-0.1c0.7-0.6,1-1.8,2.4-1.1c0.5,0.2,0.9,1,1.4,1.4c0.8,0.6,1.7,0.8,2.7,0.7c2.2-0.2,4.7-1.3,5.9-3.2
				c0.6-1,0.7-1.5,2.1-1.8c0.5-0.1,0.9-0.1,1.4-0.3c0.9-0.4,1.6-1.1,2.1-1.9C99.7,283.8,100.1,280.8,99.3,278.8z"/>
			<path class="st2" d="M127.9,277c-3.2-5.2-6.8-10.1-10.8-14.7c-3.8-4.5-8.1-9.2-12.9-12.6c-4.3-3-9.5-3.1-14.1-0.7
				c-4.9,2.5-8.3,7.3-10.8,12.1c-3.3,6.3-5.5,13-6.5,20c0,0.3,0.2,0.4,0.4,0.4c6.1,6.3,15.8,4.6,23.6,6.3c2.1,0.5,4.3,1.2,6.1,2.4
				c2.1,1.4,3.3,3.4,4.9,5.3c2.7,3.2,6.7,3.8,10.7,3.1c4.5-0.7,8.3-3.6,8.1-8.5c0-0.1,0-0.2-0.1-0.2
				C127.6,286.7,129.1,279.1,127.9,277z"/>
			<path class="st3" d="M567.3,363.1c-0.1-3.8,0.8-7.5,1.3-11.3c0.4-3.5,0.3-7-0.1-10.5c-0.2-1.8-0.5-3.6-0.8-5.4
				c-0.2-1.5-0.4-3-1.1-4.3c-1.3-2.4-4.3-3.4-6.7-4.2c-3.6-1.2-7.3-1.9-11.1-2.3c-0.2,0-0.5,0-0.7-0.1c-2.4-0.2-4.8-0.3-7.2-0.3
				c-7.5-0.1-14.9,0.2-22.4,0.3c-0.6,0-1.2,0-1.7,0c-0.2,0-0.5,0-0.7,0c-6.9,0-13.9,0-20.8-0.3c-4.6-0.2-9.2-0.5-13.7-0.9
				c-0.2,0-0.5,0-0.7-0.1c-3-0.3-6.1-0.5-9.1-0.8c-7.7-0.6-15.9-0.6-23.2,1.7c-0.2,0.1-0.4,0.1-0.6,0.2c-4.2,1.4-8,3.5-11.4,6.7
				c-4.4,4.2-6.5,9.5-7.1,15.5c-0.4,3.5-0.4,7-0.9,10.4c-0.5,3.6-1.3,7.2-2,10.8c-1.3,6.6-2.2,13.5-0.3,20c1.6,5.4,5.5,10.1,10.9,12
				c1.2,0.4,96.1-0.2,103.8-0.4c6.4-0.2,13.2-0.4,18.8-4.1c4.4-2.9,7.7-7.6,8.9-12.7C570.2,376.3,567.4,369.8,567.3,363.1z"/>
			<path class="st5" d="M518.5,335.2c0,4.3-1.5,8.7-5.1,11.3c-4.2,2.9-9.7,2.6-14.2,0.8c-4.7-1.9-9.5-4.8-12-9.3
				c-2.5-4.5-4.9-9.2-6.4-14.2c0.2,0,0.5,0,0.7,0.1c1.5,4.9,3.9,9.7,6.4,14.1c2.6,4.4,7.9,7.6,12.6,9.2c4.8,1.6,10.6,1.4,14.2-2.6
				c3.2-3.5,3.5-8.7,2.8-13.1c-0.3-2.2-0.9-4.3-1.5-6.3c0.2,0,0.5,0,0.7,0C517.7,328.3,518.5,331.7,518.5,335.2z"/>
			<path class="st10" d="M442.4,357.6c-3.4,0-7.1,0-11.1,0c-0.2,0-0.5,0-0.7,0c-4.6,0-9.4,0-14.4,0h-0.7c-4,0-8.2,0-12.3,0h-0.7
				c-25.3,0.1-50.2,0.1-55.6,0.1c-0.3,0-1.1,0.1-1.2,0.1c-0.3,0.3-7.8,35.8-9.2,41.1c-0.1,0.2,0.1,0.4,0.3,0.4
				c4.4,0.4,31.8,0.8,56.6,0.9c0.2,0,0.5,0,0.7,0c19.1,0.1,36.6,0,40.4-0.3c0.1,0,0.3-0.1,0.3-0.2c1.4-5.8,6.4-36,7.8-41.8
				C442.7,357.8,442.6,357.6,442.4,357.6z"/>
			<path class="st5" d="M552.5,374.2c-0.4,2.5-3.5,2-5.4,2c-7.7,0.3-15.4,0.4-23.1,0.6c-15.3,0.2-30.6,0.1-46-0.3
				c-7.6-0.2-15.2-0.4-22.8-0.9c-2.1-0.1-4.2-0.6-4.5-3c-0.2-1.5,0.1-3.3,0.2-4.8c0.1-1.7,0.2-3.4,0.3-5.1
				c0.7-12.7,0.8-25.8-3.5-37.9c0.2-0.1,0.4-0.1,0.6-0.2c4.4,12.3,4.3,25.6,3.6,38.5c-0.1,1.6-0.2,3.2-0.3,4.8
				c-0.1,0.8-0.1,1.6-0.2,2.4c-0.1,0.8-0.3,2.1,0,2.8c0.9,2.1,3.3,1.9,5.1,2c1.8,0.1,3.6,0.2,5.4,0.2c7.1,0.3,14.3,0.5,21.5,0.7
				c14.5,0.3,29.1,0.4,43.6,0.1c7.2-0.1,14.3-0.3,21.5-0.6c1.7-0.1,3,0.2,3.4-2.2c0.1-0.8,0-1.7,0-2.5c0-1.6-0.2-3.2-0.3-4.7
				c-0.3-3.5-0.7-6.9-0.6-10.4c0.1-3.4,0.8-6.8,1.1-10.2c0.3-3.4-0.1-6.7-0.9-9.9c-0.9-3.5-2.2-7-3.2-10.5c0.2,0,0.5,0,0.7,0.1
				c1.5,5,3.4,9.9,4,15.1c0.4,3.8-0.2,7.6-0.7,11.4c-0.5,4-0.4,8,0,12.1C552.3,367,553.1,370.8,552.5,374.2z"/>
			<path class="st3" d="M129,395.1c-9.3,3-19.7,4.8-26.7,12.2c-3.1,3.3-5.5,7.4-9.4,9.9c-0.7,0.5-1.4,0.8-2.2,1.2
				c-3.1-1.5-6.1-3.1-9-4.8c-3.1-1.9-6.5-3.8-9-6.5c-2.2-2.3-4.1-4.9-6.6-6.9c-2.5-2.1-5.3-3.8-8.2-5.1c-0.4-0.2-0.7,0.4-0.3,0.6
				c3.2,1.4,6.1,3.2,8.7,5.5c2.5,2.2,4.3,4.9,6.7,7.2c2.4,2.2,5.3,3.9,8.1,5.6c2.9,1.7,5.8,3.3,8.8,4.8c-3.5,1.5-7.4,2.4-10.8,4
				c-5,2.3-9.5,5.4-13.6,9c-0.3,0.3,0.2,0.8,0.5,0.5c4.9-4.4,10.5-7.8,16.6-10.2c2.7-1,5.5-1.7,8.1-2.9c0.1,0,0.2,0.1,0.3,0.1
				c0.3,0.2,0.6-0.2,0.5-0.5c0.2-0.1,0.3-0.2,0.5-0.2c0.1,0.1,0.1,0.1,0.2,0.1c7.4-0.1,14.6-1.4,21.5-4c0.4-0.2,0.2-0.8-0.2-0.7
				c-6.6,2.5-13.5,3.8-20.6,4c1.6-1,3-2.2,4.2-3.6c1.8-2,3.4-4.2,5.2-6.2c2.2-2.3,4.7-4.2,7.5-5.7c6.1-3.2,12.8-4.6,19.3-6.7
				C129.6,395.6,129.4,395,129,395.1z"/>
			<path class="st3" d="M114.9,411.2c-2,0.6-4,1.2-6,1.9c-0.4,0.1-0.2,0.8,0.2,0.7c2-0.7,4-1.3,6-1.9
				C115.5,411.7,115.3,411.1,114.9,411.2z"/>
			<path class="st3" d="M60.8,399.5c-4.3-5.8-10.2-10.1-17-12.5c-0.4-0.1-0.6,0.5-0.2,0.7c6.6,2.3,12.4,6.5,16.6,12.2
				C60.5,400.2,61.1,399.8,60.8,399.5z"/>
			<path class="st3" d="M139.6,379.1c-5,2.3-10.3,3.5-15.8,3.5c0.6-3.5,0.8-7.1,0.2-10.7c-1-6.3-5.3-12-4.6-18.6
				c0-0.2-0.2-0.3-0.3-0.3c-13.2-1.4-26.4-1.9-39.7-1.5c-0.1-0.3-0.6-0.4-0.6,0c-0.6,2.5-1.7,4.8-2.9,7c0,0,0,0,0,0
				c-2.8-0.9-4.9-2-7.2-4c-1.6-1.5-3.4-2.6-5.5-3.2c-4.1-1.2-8.4-0.1-11.4,2.9c-0.3,0.3,0.2,0.8,0.5,0.5c3.5-3.5,8.8-4.1,13.2-1.7
				c1.9,1,3.2,2.6,4.8,3.9c1.6,1.2,3.4,1.8,5.3,2.4c-2.2,3.6-4.9,6.9-7.5,10.2c-2,2.5-3.8,5.1-5.3,7.9c-0.9,1.7-1.6,3.4-2.2,5.2
				c-0.4,1.1-1.4,3.1-0.7,4.2c0.1,0.1,0.2,0.2,0.4,0.2c0.3-0.1,0.4-0.2,0.5-0.5c0-0.1,0-0.3-0.2-0.4c0,0-0.1-0.1-0.1-0.1
				c-0.1,0,0.5-2.7,0.6-3c0.3-1,0.6-1.9,1-2.9c0.7-1.6,1.5-3.2,2.4-4.7c1.8-2.9,3.9-5.5,6-8.2c3.6-4.6,7.2-9.3,8.8-15c0,0,0,0,0,0
				c6.9-0.2,13.7-0.2,20.6,0c3.3,0.1,6.6,0.3,9.9,0.6c1.8,0.1,3.5,0.3,5.3,0.4c0.8,0.1,1.8,0,2.6,0.3c1,0.3,0.9,0.2,0.9,1.2
				c-0.1,5.7,3.3,10.7,4.5,16.1c0.8,3.9,0.6,7.9,0,11.8c-0.1,0.1-0.1,0.2-0.1,0.4c-0.5,2.7-1.2,5.5-1.8,8.1
				c-0.1,0.4,0.5,0.6,0.7,0.2c0.7-2.7,1.3-5.4,1.8-8.1c5.6,0,11.1-1.3,16.3-3.6C140.3,379.5,140,378.9,139.6,379.1z"/>
			<path class="st3" d="M135.2,308.1c-2.4,3.6-2.8,8.5-3.3,12.7c-0.6,5-0.6,10-0.2,15c0,0.4,0.7,0.4,0.7,0
				c-0.4-4.6-0.4-9.2,0.1-13.7c0.4-4.4,0.9-9.8,3.4-13.6C136,308.1,135.4,307.7,135.2,308.1z"/>
			<path class="st3" d="M132.4,341.1c-0.1-0.4-0.7-0.4-0.7,0c0.5,3.8-0.1,7.6-1.7,11c-1.6,3.4-4.3,5.9-7.3,8.2
				c-0.3,0.3,0.1,0.7,0.5,0.5c3.1-2.5,5.9-5.2,7.6-8.8C132.4,348.5,132.9,344.8,132.4,341.1z"/>
			<path class="st3" d="M60.7,348.2l-3.7-0.9c-0.4-0.1-0.6,0.5-0.2,0.7c1.2,0.3,2.5,0.6,3.7,0.9C60.9,348.9,61.1,348.3,60.7,348.2z"/>
			<path class="st3" d="M70.1,314.4c-0.5-3.4-1.5-6.6-2.7-9.8c-0.1-0.4-0.8-0.2-0.7,0.2c1.2,3.3,2.3,6.7,2.7,10.3
				c0.4,3.7-0.2,7.2-0.9,10.8c-1.4,6.7-2.5,13.4-3.4,20.2c-0.1,0.4,0.6,0.4,0.7,0c0.9-7.4,2.3-14.6,3.8-21.9
				C70.3,320.9,70.6,317.7,70.1,314.4z"/>
			<path class="st3" d="M112.4,299.5c0-0.4-0.7-0.4-0.7,0c0.3,2.8-1.6,4.8-3.5,6.5c-0.3,0.3,0.2,0.8,0.5,0.5
				C110.7,304.6,112.7,302.4,112.4,299.5z"/>
			<path class="st3" d="M130.1,290.9c-1.7,4.6-4.5,8.6-8.1,11.8c-0.3,0.3,0.2,0.8,0.5,0.5c3.7-3.3,6.5-7.5,8.3-12.1
				C130.9,290.7,130.2,290.5,130.1,290.9z"/>
			<path class="st3" d="M319.3,198.8c-6.2,2.2-5.8,11-6.2,16.3c-0.6,8.1-0.6,16.2,0,24.3c0,0.4,0.7,0.4,0.7,0c-0.5-7-0.6-14-0.3-21
				c0.2-3.4,0.5-6.8,0.9-10.2c0.4-3.5,1.4-7.4,5.1-8.7C319.9,199.3,319.7,198.6,319.3,198.8z"/>
			<path class="st3" d="M312.6,200.9c0.1-0.4-0.6-0.6-0.7-0.2c-0.4,2.9-0.4,5.7,0,8.5c0.1,0.4,0.7,0.2,0.7-0.2
				C312.2,206.4,312.2,203.6,312.6,200.9z"/>
			<path class="st13" d="M337.6,263.3c-1.4,2.8-3.6,4.9-6.5,6c-0.4,0.2-0.2,0.8,0.2,0.7c3-1.2,5.5-3.4,6.9-6.3
				C338.4,263.2,337.8,262.9,337.6,263.3z"/>
			<path class="st14" d="M291.3,190.5c-1.2,1.2-3.5,0.5-5,0.6c-1.1,0.1-2.1,0.4-3.1-0.2c-1-0.6-1.5-1.6-2-2.7c0.1-0.2,0-0.5-0.3-0.5
				c-0.2-0.1-0.4-0.1-0.5,0.1c-1.9,0.4-3,2.4-5.2,2.3c-1.1,0-1.9-0.7-2.9-0.8c-2.3-0.1-2.8-1.2-3.8-2.9c-0.2-0.4-0.8,0-0.6,0.3
				c0.5,0.9,1.1,2.2,2,2.9c0.3,0.2,0.7,0.3,1.1,0.4c0.4,0,0.7-0.1,1.1,0c0.6,0,1.2,0.4,1.7,0.5c1,0.3,2,0.3,3,0
				c1.4-0.4,2.3-1.8,3.7-2.1c0.8,2,2,3.7,4.4,3.5c0.7,0,1.5-0.2,2.2-0.3c0.7,0,1.4,0.1,2.2,0.1c1,0,1.8-0.2,2.4-0.9
				C292.1,190.6,291.6,190.2,291.3,190.5z"/>
			<path class="st14" d="M297.6,196.5c-0.8,0.6-1.6,1.2-2.5,1.5c-0.8,0.3-1.6,0.1-2.4,0.1c-0.4,0-0.4,0.7,0,0.7c1,0,1.9,0.1,2.9-0.3
				c0.9-0.4,1.7-1,2.4-1.6C298.4,196.7,298,196.2,297.6,196.5z"/>
			<path class="st14" d="M303,185.7c-0.5,1-1.4,1.6-2.5,1.7c-0.4,0-0.4,0.7,0,0.7c1.3-0.1,2.5-0.9,3-2.1
				C303.8,185.6,303.2,185.3,303,185.7z"/>
			<path class="st14" d="M282.5,199c-1.1,0.6-2.3,0.2-3.1-0.7c-0.3-0.3-0.8,0.1-0.5,0.5c1,1.2,2.6,1.5,3.9,0.8
				C283.2,199.4,282.9,198.9,282.5,199z"/>
			<path class="st14" d="M270.8,195.8c-1.4,0-3.4,0-3.7-1.8c-0.1-0.4-0.7-0.2-0.7,0.2c0.3,2.1,2.7,2.3,4.4,2.3
				C271.2,196.5,271.2,195.8,270.8,195.8z"/>
			<path class="st14" d="M274.4,202.8c-1.5,0.5-2.8-0.5-3.9-1.4c-0.3-0.3-0.8,0.2-0.5,0.5c1.3,1.1,2.8,2.2,4.6,1.6
				C275,203.3,274.8,202.7,274.4,202.8z"/>
			<path class="st14" d="M309.8,173.1c-0.8,3.6,1.1,7.8-1.2,11.1c-0.3,0.4,0.3,0.7,0.6,0.3c2.4-3.4,0.4-7.5,1.2-11.3
				C310.5,172.8,309.9,172.7,309.8,173.1z"/>
			<path class="st3" d="M403.2,357.7c-3,14.2-6.1,28.4-9.1,42.7c-0.2,0-0.5,0-0.7,0c3-14.2,6.1-28.4,9.1-42.7H403.2z"/>
			<g>
				<path class="st3" d="M493.1,400.9c-1.2,5.6-2.4,11.1-3.6,16.7h-0.7c1.2-5.6,2.4-11.1,3.6-16.7H493.1z"/>
				<path class="st3" d="M323.2,400.2c-1.2,5.5-2.4,11.1-3.5,16.6c-0.2,0-0.5,0-0.7,0c1.2-5.5,2.4-11.1,3.5-16.6
					C322.8,400.2,323,400.2,323.2,400.2z"/>
			</g>
			<path class="st3" d="M431.3,357.7c-0.5,2.3-0.8,4.6-1.1,6.9c0,0.2-0.1,0.3-0.3,0.3c-2.6,0.2-5.1,0.2-7.7,0.2c-1.2,0-2.5,0-3.7,0
				c-1.4,0-2.9-0.2-4.2,0.3c-0.3,0.1-0.5-0.2-0.4-0.4c0.6-2.4,1.1-4.8,1.7-7.2h0.7c-0.5,2.3-1.1,4.6-1.6,6.8
				c1.6-0.4,3.6-0.1,5.2-0.1c2.1,0,4.3,0,6.4,0c0.7,0,2.7,0.2,3.2-0.3c0.5-0.4,0.4-1.5,0.4-2.2c0.2-1.4,0.4-2.8,0.7-4.2
				C430.8,357.7,431,357.7,431.3,357.7z"/>
			<path class="st5" d="M264.6,305.9c-6.4,5.3-12.8,11.3-14.7,19.7c-0.1,0.4,0.6,0.6,0.7,0.2c1.8-8.3,8.2-14.2,14.5-19.5
				C265.4,306.1,264.9,305.7,264.6,305.9z"/>
			<path class="st5" d="M253.1,397.5c0-0.4-0.7-0.4-0.7,0c0.2,5.4-1.2,10.7-0.5,16c0.1,0.4,0.7,0.2,0.7-0.2
				C251.9,408.1,253.3,402.8,253.1,397.5z"/>
			<path class="st5" d="M274,372c-1.6-1.6-3-3.1-4-5.1c-1.1-2.1-1.7-4.4-2.4-6.7c-0.1-0.4-0.8-0.2-0.7,0.2c1.1,3.8,2.3,7.6,5,10.5
				c1.5,1.6,3.1,2.9,4.1,5c1,2.1,1.3,4.4,1.6,6.7c0.1,0.4,0.7,0.2,0.7-0.2C277.7,378.5,276.9,375,274,372z"/>
			<path class="st5" d="M275.8,383.1c-0.1-0.4-0.8-0.2-0.7,0.2c0.8,2.5,1.3,5,1.4,7.7c0,0.4,0.7,0.4,0.7,0
				C277.2,388.3,276.7,385.7,275.8,383.1z"/>
			<path class="st5" d="M237.1,328.9c-2.7-3.8-6.1-6.9-10.1-9.3c-0.4-0.2-0.7,0.4-0.3,0.6c3.9,2.3,7.2,5.4,9.8,9.1
				C236.7,329.6,237.3,329.3,237.1,328.9z"/>
			<path class="st5" d="M335.7,308.2c-1.2,10.6-7.9,20-17.4,24.7c-0.4,0.2,0,0.8,0.3,0.6c9.7-4.8,16.5-14.5,17.8-25.3
				C336.5,307.7,335.8,307.7,335.7,308.2z"/>
			<g>
				<path class="st0" d="M324,206.2c-0.6,5.3-0.4,10.6-0.2,16c0.2,5.3,0.4,10.7-0.1,16c-0.5,5.4-1.2,10.8-1.8,16.2
					c0,0.4-0.7,0.4-0.7,0c0.6-5.6,1.4-11.2,1.8-16.9c0.4-5.6,0.2-11.1,0-16.7c-0.2-5.3-0.3-10.7,0.5-16c0.7-4.8,2.1-9.4,4.1-13.8
					c0.2,0.1,0.4,0.2,0.6,0.4C326,196.1,324.6,201,324,206.2z"/>
				<path class="st0" d="M334.9,217.7c-0.4,6,0.1,11.9,0.5,17.8c0.3,5.3,0.5,10.6-0.2,15.9c-0.4,2.6-1,5.2-2,7.7
					c-0.4,1.1-0.9,2.1-1.5,3.2c-0.3,0.6-0.5,1.2-1.2,1.4c-0.1,0-0.2,0-0.3-0.1l-0.1-0.1c-0.3-0.3,0.2-0.8,0.5-0.5c0,0,1.9-3.8,2-4.1
					c0.4-1.1,0.8-2.3,1.1-3.5c0.7-2.6,1.1-5.2,1.2-7.8c0.4-5.5-0.1-11-0.5-16.4c-0.4-5.9-0.5-11.7,0.1-17.5
					c0.4-4.3,0.7-8.8,2.1-12.9c0.1,0.3,0.3,0.5,0.4,0.8c0,0,0,0,0,0C335.4,206.7,335.2,212.4,334.9,217.7z"/>
			</g>
			<path class="st7" d="M306.9,260.3c3.3,4,7.2,7.6,12.2,9.3c3.2,1,8.7,2.9,11.8-1.1c3-3.9-0.2-8.9-2.8-12.4
				c-3.3-4.4-7.6-7.9-11.8-11.3c-9.3-7.5-26.7-22.6-28.4-23.6c-0.1-0.1-6,5.1-6.1,6.1C281.6,228.3,298.8,250.5,306.9,260.3z"/>
			<path class="st3" d="M284.3,283.3c-1.3,0-1.3,2,0,2C285.7,285.3,285.7,283.3,284.3,283.3z"/>
			<path class="st3" d="M287.7,267.5c-1.3,0-1.3,2,0,2C289,269.6,289,267.5,287.7,267.5z"/>
			<path class="st3" d="M284,250.3c-1.3,0-1.3,2,0,2C285.3,252.3,285.3,250.3,284,250.3z"/>
			<path class="st3" d="M284.3,234.1c-1.3,0-1.3,2,0,2C285.7,236.1,285.7,234.1,284.3,234.1z"/>
			<path class="st5" d="M393.3,339.5c-4-4.5-9-7.9-14.6-10.2c-0.4-0.2-0.6,0.5-0.2,0.7c5.5,2.2,10.3,5.6,14.3,10
				C393.1,340.3,393.5,339.8,393.3,339.5z"/>
			<path class="st5" d="M394.8,349.1c-0.4-1.7-1-3.4-1.8-5c-0.2-0.4-0.8,0-0.6,0.3c0.8,1.5,1.3,3.1,1.7,4.8
				C394.3,349.7,394.9,349.5,394.8,349.1z"/>
			<path class="st5" d="M174.9,359.3c-0.2-0.4-0.8,0-0.6,0.3c1.4,3,2.2,6.2,2.5,9.5c0,0.4,0.7,0.4,0.7,0
				C177.2,365.7,176.3,362.4,174.9,359.3z"/>
			<path class="st5" d="M202.4,369.7c-4.7,2.9-8.8,6.5-12.3,10.8c-0.3,0.3,0.2,0.8,0.5,0.5c3.4-4.2,7.5-7.8,12.1-10.7
				C203.2,370.1,202.8,369.5,202.4,369.7z"/>
			<path class="st3" d="M389.7,227.4c-4.7-7.2-8.5-14.9-11.4-23c-0.1-0.4-0.8-0.2-0.7,0.2c2.9,8.1,6.8,15.9,11.5,23.2
				C389.3,228.2,389.9,227.8,389.7,227.4z"/>
			<path class="st3" d="M434.4,322.3c-1.8-6.9-3.6-13.9-5.9-20.6c-4.1-12.4-11.1-23.5-18.9-33.8c-4.4-5.8-9.1-11.3-13.9-16.8
				c-0.3-0.3-0.8,0.2-0.5,0.5c8.4,9.7,16.7,19.6,23.3,30.6c3.3,5.5,6.2,11.3,8.5,17.4c2.4,6.5,4.1,13.2,5.9,19.8
				c2.1,7.9,3.9,15.9,4.5,24.1c0,0.4,0.7,0.4,0.7,0C437.5,336.3,436.1,329.2,434.4,322.3z"/>
			<path class="st9" d="M622.8,435.1c-0.2-1.9-0.4-3.8-0.6-5.7c-1.1-10.3-2.3-29.8-3.5-50.9c-0.2-4.2-0.5-8.5-0.7-12.8
				c-0.2-3.8-0.4-7.5-0.6-11.2c-0.8-15-1.5-29.3-2.2-40.4c-0.6-11.2-1.2-19-1.6-20.9c-0.1-0.3-0.5-0.3-0.6-0.1
				c-1.8,3.7-4.5,11.3-7.9,21.1c-3.8,11.3-8.3,25.7-12.8,40.5c-1.1,3.6-2.2,7.3-3.3,11c-1.3,4.3-2.6,8.6-3.8,12.8
				c-8.1,27.3-14.9,51.5-15.9,56.1c-0.4,0.5-0.5,1.2-0.4,1.9c0.4,2,2.6,2.4,4.3,2.4c2.8,0,30.3,1.2,43.1,0
				C622.8,438.4,622.9,436,622.8,435.1z"/>
			<path class="st9" d="M631.2,423.2c-1.9,0-5,0-8.7,0h-0.7c-14.7,0-39.3,0.1-50.3,0.2c-0.2,0-0.4,0-0.6,0c-2.6,0-4.3,0-4.8,0
				c-0.1,0-0.2,0.1-0.3,0.2c-3.6,7-6.9,14.2-9.9,21.5c-0.1,0.2,0.1,0.4,0.3,0.4c22.6-0.1,45.3-0.3,67.9-0.6c0.2,0,0.3-0.1,0.3-0.3
				c2.6-6.3,5.1-14.6,7.1-21.1C631.6,423.5,631.4,423.2,631.2,423.2z"/>
			<g>
				<path class="st1" d="M617.4,354.5c-8.4,0.1-16.7,0.1-25.1,0.2c4.5-14.8,9-29.2,12.8-40.5c3.3,0,6.6-0.1,10.1-0.1
					C615.9,325.1,616.6,339.5,617.4,354.5z"/>
				<path class="st1" d="M618.7,378.5c-11.2,0-22.4,0-33.5,0c1.3-4.2,2.5-8.5,3.8-12.8c8.6,0,18.5,0,29,0
					C618.2,370,618.5,374.3,618.7,378.5z"/>
			</g>
			<path class="st10" d="M605,266c0,0-85-0.3-91.7-0.3c-0.1,0-0.3-0.1-0.4,0c-0.1,0.1-0.1,0.3-0.1,0.5c0,2.8,0,4.7-0.6,7.5
				c0,0.2,0.1,0.4,0.3,0.4c0,0,76.1,0.5,91.3,0.3c0.1,0,0.3-0.1,0.3-0.2c0.7-2.5,0.8-5.1,1.1-7.7C605.4,266.2,605.2,266,605,266z"/>
			<path class="st3" d="M599.2,275.3c-1.7,0-3.4,0-5.1,0c-25.7-0.1-51.4-0.3-77-0.5c0-0.2,0-0.4,0-0.7c4.8,0,9.6,0.1,14.3,0.1
				c22.6,0.2,45.1,0.3,67.7,0.4C599.2,274.8,599.2,275,599.2,275.3z"/>
			<path class="st3" d="M604.9,270.7c-1.7,0-13.4,0-15.1,0c-25.7-0.1-51.4-0.3-77-0.5c0-0.2,0-0.4,0-0.7c4.8,0,9.6,0.1,14.3,0.1
				c22.6,0.2,55.3,0.3,77.8,0.4C604.9,270.3,604.9,270.5,604.9,270.7z"/>
			<g>
				<path class="st3" d="M528.4,284.5c-0.7,0.1-0.9,3.8-1,4.9c-0.4,5.6-1.5,19-1.5,19.2c0,0.7-0.3,1.6,1.1,1.5
					c0.6,0,0.6-0.4,0.7-0.8c0.3-1.3,1.9-16.1,2.2-22.1C529.9,286.3,530.3,284.4,528.4,284.5z"/>
				<path class="st3" d="M538.9,284.5c-0.7,0.1-0.9,3.8-1,4.9c-0.4,5.6-1.5,19-1.5,19.2c0,0.7-0.3,1.6,1.1,1.5
					c0.6,0,0.6-0.4,0.7-0.8c0.3-1.3,1.9-16.1,2.2-22.1C540.4,286.3,540.7,284.4,538.9,284.5z"/>
				<path class="st3" d="M550.7,285c-0.7,0.1-0.9,3.8-1,4.9c-0.4,5.6-1.5,19-1.5,19.2c0,0.7-0.3,1.6,1.1,1.5c0.6,0,0.6-0.4,0.7-0.8
					c0.3-1.3,1.9-16.1,2.2-22.1C552.2,286.8,552.5,284.9,550.7,285z"/>
				<path class="st3" d="M561.1,285c-0.7,0.1-0.9,3.8-1,4.9c-0.4,5.6-1.5,19-1.5,19.2c0,0.7-0.3,1.6,1.1,1.5c0.6,0,0.6-0.4,0.7-0.8
					c0.3-1.3,1.9-16.1,2.2-22.1C562.7,286.8,563,284.9,561.1,285z"/>
				<path class="st3" d="M571.8,285c-0.7,0.1-0.9,3.8-1,4.9c-0.4,5.6-1.5,19-1.5,19.2c0,0.7-0.3,1.6,1.1,1.5c0.6,0,0.6-0.4,0.7-0.8
					c0.3-1.3,1.9-16.1,2.2-22.1C573.3,286.8,573.7,284.9,571.8,285z"/>
				<path class="st3" d="M582.3,285c-0.7,0.1-0.9,3.8-1,4.9c-0.4,5.6-1.5,19-1.5,19.2c0,0.7-0.3,1.6,1.1,1.5c0.6,0,0.6-0.4,0.7-0.8
					c0.3-1.3,1.9-16.1,2.2-22.1C583.8,286.8,584.1,284.9,582.3,285z"/>
			</g>
			<path class="st3" d="M622.5,423.2c-0.5,1.5-1,3.1-1.5,4.6c-0.8,2.5-1.8,5.1-3.5,7.2c-3.4,4-9.4,3.9-14.2,4.2
				c-6.3,0.4-12.6,0.2-18.8-0.1c-4.6-0.2-10.8-0.1-13.8-4.3c-1.2-1.7-1.3-3.6-1-5.6c0.3-1.9,0.8-3.9,1.2-5.8c0.2,0,0.4,0,0.6,0
				c-0.6,2.4-1.2,4.9-1.4,7.3c-0.2,3.8,2.8,5.9,6.2,6.8c3.2,0.9,6.8,0.8,10.1,1c3.4,0.2,6.7,0.3,10.1,0.2c3.3,0,6.7-0.1,10-0.5
				c3.4-0.3,7.2-0.5,9.8-3c2.2-2.2,3.2-5.3,4.2-8.2c0.4-1.3,0.9-2.6,1.3-3.9H622.5z"/>
			<path class="st12" d="M211.8,190.2c-0.6-0.8-0.6-2.1-0.5-3.1c0.1-0.8,0.4-1.1-0.4-1.2c-3-0.3-7.3-0.5-9.2-0.4c0,0,0,0-0.1,0
				c-0.2-0.1-0.4-0.1-0.5,0.2c-0.2,1.2-0.5,2.7-1.4,3.6c-0.8,0.8-1.9,1.2-2.7,2.1c-1.4,1.8-2.1,4.4-2.9,6.5c-0.6,1.5-1.7,5.1-3,9.6
				c-2,6.9-4.4,16-6.3,23c-1.4,5.5-2.5,9.8-2.7,10.8c-0.3,2-0.7,4.1-0.2,6.1c0.5,2,2.1,3.2,4.1,3.5c3,0.5,13,0.2,14.5-0.1
				c1.9-0.4,2.7-2.1,3.3-3.7c1.1-2.9,8.2-36.3,9.3-42.9C214.2,198.9,214.3,193.2,211.8,190.2z"/>
			<path class="st3" d="M201.8,183c-0.3,0-0.5,0-0.6,0.3c-0.3,1.4-0.6,2.8-0.9,4.1c-0.1,0.2,0.1,0.4,0.3,0.4
				c3.7,0.1,7.4,0.3,11.1,0.4c0.1,0,0.3-0.1,0.3-0.3c0.2-1.6,0.3-2.9,0.5-4.5c0-0.2,0.5-0.2-1-0.3C209.1,183.1,203.9,183,201.8,183z
				"/>
			<path class="st5" d="M205,208.5c-4.6-0.3-9.1-0.5-13.7-0.8c-2,6.9-4.4,16-6.3,23c5,0.2,10.1-0.2,15.1,0.5c0.1,0,0.3-0.1,0.3-0.2
				c1.8-7.3,3.5-14.6,4.9-22C205.4,208.7,205.3,208.5,205,208.5z"/>
			<path class="st3" d="M79.3,76.1c-9.7,0.1-19.3,0.4-29,0.8c-0.4,0-0.4,0.7,0,0.7c9.6-0.4,19.3-0.6,29-0.8
				C79.8,76.8,79.8,76.1,79.3,76.1z"/>
			<path class="st3" d="M80.1,47.9c-9.7,0.1-19.3,0.4-29,0.8c-0.4,0-0.4,0.7,0,0.7c9.6-0.4,19.3-0.6,29-0.8
				C80.6,48.5,80.6,47.8,80.1,47.9z"/>
			<path class="st3" d="M81.9,18.1c-9.7,0.1-19.3,0.4-29,0.8c-0.4,0-0.4,0.7,0,0.7c9.6-0.4,19.3-0.6,29-0.8
				C82.4,18.7,82.4,18.1,81.9,18.1z"/>
			<path class="st3" d="M252.5,76.1c-9.7-0.1-19.3-0.2-29-0.1c-0.4,0-0.5,0.7,0,0.7c9.7-0.1,19.3,0,29,0.1
				C252.9,76.8,252.9,76.1,252.5,76.1z"/>
			<path class="st3" d="M254.2,47.9c-9.7-0.1-19.3-0.2-29-0.1c-0.4,0-0.5,0.7,0,0.7c9.7-0.1,19.3,0,29,0.1
				C254.6,48.6,254.6,47.9,254.2,47.9z"/>
			<path class="st3" d="M256.8,18.2c-9.7-0.1-19.3-0.2-29-0.1c-0.4,0-0.5,0.7,0,0.7c9.7-0.1,19.3,0,29,0.1
				C257.3,18.9,257.3,18.2,256.8,18.2z"/>
			<path class="st1" d="M603.6,245.7c-2.5-2.8-5.6-3-9-2.4c-2.7,0.4-5.1,0.7-7.7,0c-2.1-0.6-4.1-1.5-6.1-2.3
				c-3.9-1.7-7.7-3.3-12-2.9c-4.8,0.4-10.8,1.9-16.9,3.4c-7.3,1.8-16.3-1.3-18.4-1.8c-1.4-0.3-2.9-0.3-4.2,0.6
				c-0.7,0.5-1.2,1.1-2,1.5c-1,0.6-2.1,0.8-3.2,1c-3.4,0.5-6.6,0.4-9.5,2.6c-2.5,1.9-4.3,4.8-4.7,8.1c-0.9,7.3,4.7,12.4,11,13.6
				c3.8,0.7,7.6,0.2,11.3-0.3c4.6-0.7,9.2-1.3,13.9-1c4.5,0.3,8.8,1.7,13.2,2.4c4.2,0.7,8.1-0.4,12.1-1.4c4.3-1.1,8.3-1.4,12.7-0.8
				c3.7,0.5,7.4,1.3,11.1,0.8c6.1-0.8,10.8-5.9,11.1-12.4C606.6,251.1,605.7,248,603.6,245.7z"/>
			<path class="st3" d="M598.2,251.1c-1.1-2.7-4.2-3.4-6.8-3.4c-2,0-4,0.2-6.1-0.1c-2.3-0.4-4.3-1.4-6.4-2.5c-3.6-2-7.1-3.1-11.3-3
				c-4.3,0.2-8.5,1.4-12.7,2.3c-9.4,2-19,1.1-27.7-3.1c-0.4-0.2-0.7,0.4-0.3,0.6c6.2,2.9,12.9,4.4,19.8,4.3
				c7.4-0.2,14.3-3.3,21.6-3.4c4-0.1,7.2,1.1,10.6,3c2.8,1.6,5.7,2.7,9,2.7c3.7,0,10.3-0.7,9.9,4.9c-0.3,4.2-3.5,6.8-7.6,6.8
				c-3.7,0-7.4-1.5-11.1-2c-3.2-0.4-6.5-0.4-9.6,0.5c-1.7,0.5-3.2,1.3-4.8,1.9c-1.9,0.7-3.9,0.8-5.9,0.5c-3.4-0.5-6.6-2-9.9-2.8
				c-3.4-0.8-6.8-0.5-10.2,0.3c-3.7,0.8-8.3,2.5-11.6-0.2c-1.7-1.4-2.5-4.1-0.7-5.9c1.6-1.5,4.2-1.7,6.2-1.4
				c3.6,0.4,6.2,3.2,9.7,3.8c1.7,0.3,3.4-0.1,5-0.6c2-0.6,4-1.2,6-1.7c4.3-1.1,8.6-2.2,13.1-2.3c4.4,0,8.1,1.6,12.2,3
				c3.2,1.1,6.6,1.6,9.8,0.2c0.4-0.2,0.1-0.8-0.3-0.6c-4.1,1.8-8.4,0.1-12.3-1.4c-3.8-1.4-7.5-2.2-11.6-1.8c-4,0.3-8,1.4-11.9,2.4
				c-1.8,0.5-3.6,1.1-5.4,1.6c-2.8,0.8-5,0.6-7.6-0.8c-3.1-1.7-6-3.1-9.7-2.5c-2.4,0.4-4.8,1.7-4.9,4.4c-0.1,2.9,2.3,4.9,4.9,5.5
				c3.8,0.8,7.5-0.8,11.2-1.4c4.6-0.8,8.5,0.2,12.9,1.6c3.3,1.1,6.7,2,10.1,1.1c1.7-0.4,3.2-1.2,4.8-1.8c2.1-0.8,4.3-1.1,6.6-1.1
				c4.2,0,8,1.2,12,1.9c2.9,0.5,6.1,0.6,8.5-1.4C597.8,257.4,599.2,253.7,598.2,251.1z"/>
			<g>
				<path class="st5" d="M175.9,229.7c-2.1-0.1-9.4-0.2-11.4-0.3c-0.2,0-0.2,0.1-0.2,0.3c-0.2,1.1-0.3,2.2-0.5,3.3
					c0,0.2-0.1,0.4-0.1,0.7c0,0.1,0,0.2-0.1,0.4c0,0.2-0.1,0.3-0.1,0.5c-0.5,3.3-1,6.6-1.6,9.8c-0.2,1.3-1,3.7-0.1,4.8
					c0.3,0.4,0.7,0.5,1.2,0.5c0.2,0,0.3,0,0.5,0.1c0.2,0,0.5,0,0.7,0c0.7,0,1.5,0,2.2,0c0.6,0,1.4,0,2.1,0c0.2,0,0.5,0,0.7-0.1
					c0.9-0.1,1.7-0.3,2.4-0.8c1.2-0.9,1.2-2.9,1.5-4.3c0.6-3.3,1.2-6.7,2-10c0-0.2,0.1-0.3,0.1-0.5c0-0.2,0.1-0.3,0.1-0.5
					c0-0.2,0.1-0.5,0.1-0.7c0.2-1,0.4-2,0.7-3C176.1,229.9,176,229.7,175.9,229.7z"/>
				<path class="st12" d="M175.4,233c-0.1,0.2-0.1,0.4-0.1,0.7c-1,0-2,0.1-3.1,0.1c-0.8,5.4-1.8,10.7-3,16c-0.2,0-0.5,0-0.7,0.1
					c1.2-5.3,2.2-10.7,3-16.1c-1.5,0-3,0-4.5,0c-0.7,5.4-1.7,10.8-2.8,16.1c-0.2,0-0.5,0-0.7,0c1.1-5.3,2.1-10.7,2.8-16.1
					c-0.9,0-1.8,0-2.8-0.1c0-0.2,0.1-0.4,0.1-0.7C167.6,233.1,171.5,233.1,175.4,233z"/>
			</g>
			<path class="st3" d="M300,146.7c-2.2-1.5-4.2-3.2-6.1-5.1c-0.3-0.3-0.8,0.2-0.5,0.5c1.9,1.9,4,3.7,6.2,5.2
				C300,147.5,300.4,146.9,300,146.7z"/>
			<path class="st3" d="M286.6,161.1c-1.5,1-2.6,2.8-3.9,4.1c-1.7,1.7-3.5,3.1-5.5,4.3c-0.4,0.2,0,0.8,0.3,0.6
				c1.7-1.1,3.3-2.3,4.8-3.6c0.8-0.7,1.5-1.4,2.2-2.2c0.8-0.9,1.4-1.9,2.4-2.6C287.3,161.5,286.9,160.9,286.6,161.1z"/>
		</g>
	</g>
</switch>

</svg>
