<?xml version="1.0" encoding="utf-8"?>
<!-- Generator: Adobe Illustrator 27.1.0, SVG Export Plug-In . SVG Version: 6.00 Build 0)  -->










<svg version="1.1" id="Layer_1" xmlns="http://www.w3.org/2000/svg" xmlns:xlink="http://www.w3.org/1999/xlink" x="0px" y="0px" viewBox="0 0 700.2 697.7" style="enable-background:new 0 0 700.2 697.7;" xml:space="preserve">
<style type="text/css">
	.st0{fill:#DE614B;}
	.st1{fill:#543337;}
	.st2{fill:#2D294C;}
	.st3{fill:#DBB997;}
	.st4{fill:#A14C40;}
	.st5{fill:#AF9279;}
	.st6{fill:#DADAE9;}
	.st7{fill:#FFFFFF;}
	.st8{fill:#9493AA;}
	.st9{fill:#351E23;}
	.st10{fill:#DA934E;}
	.st11{fill:#BB3E2D;}
	.st12{fill:#B9B8C9;}
</style>
<switch>
	
	<g>
		<g>
			<path class="st0" d="M229.1,628.9c0.1,0.7,15.3,1.3,15.3,0.8c0-5.5,0.3-30.8,0-37.9c0-1-0.7-1.3-1.3-1.2c-0.2-0.4-0.5-0.6-1-0.7
				c-3.9-0.8-12.9-4.2-13.9,2.3C227.4,597.9,228.5,623.4,229.1,628.9z"/>
			<path class="st1" d="M254.4,649.7c-1.2-2.9-3.4-5.2-4.5-8.2c-0.8-2.3-1.3-4.7-1.7-7.1c-0.1-0.7-0.2-1.4-0.3-2.1
				c-0.1-1.2-0.2-2.5-0.3-3.7c-0.1-2.5-0.3-5.5-1.8-7.3c-0.7-0.9-2.3-1-4.5-0.8c-0.9,0.1-7.1,0.6-12.7,0.6c-2.8,0.3-3.2,3.1-3.2,5.6
				c-0.1,4.3-0.7,13.6,0.6,16.8c0.4,1.1,0.9,1,1.5,1.8c2.4,2.8,3.9,4.7,4.4,8.3c0.9,6.4,7.9,9.1,12.7,12.3c0.5,0.3,4.9,3,7.3,2.8
				c2.3-0.2,3.6-3.8,3.9-5.2C256.6,659.4,255.9,653.1,254.4,649.7z"/>
			<path class="st2" d="M242.4,627.1c1.3,0,1.4-2,0-2c-2.8,0-5.6,0.2-8.4,0.8c-1.3,0.3-0.8,2.2,0.5,2
				C237.1,627.3,239.7,627.1,242.4,627.1z M243.3,630.5c-2.8,0.1-5.6,0.6-8.4,1.3c-1.3,0.3-0.6,2.3,0.6,1.9c2.6-0.7,5.2-1.1,7.8-1.2
				C244.7,632.5,244.6,630.4,243.3,630.5z M245.2,636.8c-2.6,0.2-5.3,0.5-7.9,0.9c-1.3,0.2-1.2,2.2,0.1,2c2.6-0.4,5.2-0.7,7.9-0.9
				C246.6,638.7,246.5,636.7,245.2,636.8z"/>
			<path class="st0" d="M150.8,630.4c-0.2,0.7-15.3-0.4-15.3-0.9c0.6-5.5,3.1-30.7,4.1-37.6c0.1-0.9,0.8-1.2,1.5-1.1
				c0.2-0.3,0.6-0.6,1-0.6c3.9-0.4,13.3-2.7,13.5,3.8C155.9,599.7,152,625,150.8,630.4z"/>
			<path class="st1" d="M123.3,648.2c1.5-2.7,3.9-4.8,5.3-7.7c1.1-2.2,1.8-4.5,2.4-6.9c0.2-0.7,0.3-1.4,0.5-2.1
				c0.3-1.2,0.5-2.4,0.7-3.6c0.3-2.5,0.9-5.4,2.6-7.1c0.8-0.8,2.4-0.7,4.6-0.3c0.9,0.2,7,1.4,12.6,2c2.8,0.6,2.8,3.5,2.6,6
				c-0.4,4.3-0.8,13.6-2.4,16.7c-0.6,1.1-1,0.9-1.7,1.6c-2.7,2.6-4.4,4.2-5.3,7.8c-1.6,6.3-8.8,8.2-14,10.9c-0.5,0.2-5.2,2.4-7.5,2
				c-2.3-0.5-3.2-4.2-3.3-5.6C120.1,657.6,121.5,651.4,123.3,648.2z"/>
			<path class="st2" d="M145.6,628.7c1.3,0.4,2-1.5,0.7-1.9c-2.7-0.9-5.5-1.4-8.3-1.7c-1.3-0.1-1.5,1.9-0.2,2
				C140.5,627.3,143.1,627.9,145.6,628.7z M136.2,632.4c2.6,0.4,5.2,1.1,7.6,2.1c1.2,0.5,2.1-1.4,0.8-1.9c-2.6-1-5.4-1.8-8.2-2.2
				C135.2,630.1,134.9,632.2,136.2,632.4z M133.6,638.4c2.6,0.5,5.2,1.1,7.7,1.8c1.3,0.3,1.6-1.7,0.3-2c-2.6-0.7-5.1-1.3-7.7-1.8
				C132.7,636.1,132.4,638.2,133.6,638.4z"/>
			<path class="st3" d="M132.3,243.7c-3.4-0.3-5.2,2.9-6.7,5.6c-1,1.7-1.9,5.6-3.5,6.8c-1,0.7-4,1.1-5.3,1.7
				c-0.5,0.3-0.9,0.7-1.2,1.3c-2.2-2.3-3.8-5.2-5-8c-1.5-3.6-7.4-2-5.9,1.6c3,7.4,7.9,14.4,16.1,16.4c7.2,1.7,14.9-1.4,17.9-8.4
				C140.7,255.5,139.6,244.3,132.3,243.7z"/>
			<path class="st3" d="M261,302.3c-0.2-7.8-13.2-9.9-14.2-1.6c-0.1,0.7-0.1,1.3-0.2,2c-0.7-5.1-1.6-10.2-2.5-15.2
				c-1-5.4-6.2-6-10-3.9c-2.1-5.9-11.3-4.5-13.3,0.9c-0.3-3.6-0.6-7.2-0.8-10.8c-0.7-9.1-15-8.9-14.3,0.3c3.7,48-3.9,50.5-0.2,98.5
				c3.6,47,16.5,221.6,15.9,232.8c-0.4,8-1.2,17.3,7.4,18.2c10.5,1,11.4,0.9,17.6,1.3c7.1,0.4,6.7-8.1,7.3-14.2
				c2.6-24.1,2.5-48.8,3.6-73c1.1-23.7,2.1-47.3,2.9-71C261.9,411.8,262.6,357,261,302.3z"/>
			<path class="st3" d="M139.2,465.6c-1.4,23.6-9.3,119.2-8.8,143.4c0.1,6.1-1.1,14.5,6,14.8c6.2,0.2,7.1,0.4,17.6,0.3
				c8.6-0.1,8.7-15.6,10-23.5c6-35.7,36.9-194.5,40.8-241c4-48-1.9-33.5,6.1-81c1.5-9.1-12.7-10.7-14.2-1.6
				c-0.6,3.6-1.2,7.1-1.8,10.7c-1.6-5.6-10.5-7.8-13.2-2.2c-3.6-2.4-8.8-2.2-10.3,3c-1.4,4.9-2.7,9.9-3.9,14.9c0-0.7,0-1.3-0.1-2
				c-0.3-8.4-21-8-21.9-0.3C139,355.7,142.3,410.9,139.2,465.6z"/>
			<path class="st0" d="M221.1,61c-6.7-2.6-13.3-5-20.1-7.3c-0.6-0.2-1.2-0.3-1.7-0.3c-3.6-0.6-7.8,1.9-7.4,6.7
				c1.5,17.9-0.7,28.3-1.1,46.3c-0.1,8.1,30.1,9.2,30.4,6c1.4-12.3,3.2-32.3,3.7-44.7C225.1,65,223.8,62.1,221.1,61z"/>
			<path class="st4" d="M202.1,96.4c3.1-2,7.1-2.3,10-4.7c3.3-2.6,5.2-10-1-10c-0.7,0-1.3,0.3-1.7,0.8c-2.7,0-6.3,1.9-8.7,3.2
				c-0.3-0.3-0.8-0.6-1.2-0.6c-2.4-0.2-5.2-3.8-7.7-2.2c-0.3,4.7-0.7,13.9-1,18.6c1.1,0.2,2.2,0.2,3.3-0.1
				C197.4,100.6,199.4,98.1,202.1,96.4z"/>
			<path class="st0" d="M227.8,9c-4.7-5.2-12.7,0.7-19.2,0.6c-7.6-0.2-13.7-5.5-17.8,0.8c-5.1,5.3-9.8,10.8-10.1,18.5
				c-0.4,14.2,0.3,37.5,6.9,49.8c5.2,9.8,12.1,12.9,17.3,12.5c8.7-0.8,16.7-9,21.4-14.5c2.5-3,6.7-9.4,7.7-12.7
				C239.3,45,241.8,24.4,227.8,9z"/>
			<path class="st3" d="M296.4,215.5c-3.9-20.1-7.8-40.4-13.4-60.1c-3.5-12.4-8.8-23.9-18.2-32.2c-1.9-1.8-4.1-3.4-6.5-4.9
				c-15.7-9.2-18.9-8.9-36.3-13.7c-1.8-0.5-11,2.5-18.7,2.2c-6.5-0.3-11.5-3.9-12.5-3.7c-6.3,1.6-12.5,3.4-18.3,5.7
				c-50.1,15-46.4,48.7-48.3,71.8c-1.3,15.7-7.3,23.8-5.8,39.7c0.5,5.1,6.6,6.7,9.3,2.9c1.5,4.3,8.7,5,9.8-0.2
				c0.1-0.7,0.3-1.4,0.4-2.1c2.6,2.6,7.7,2.7,8.4-1.9c0.5-3.1,0.8-6.3,1.2-9.4c0.4,2,0.9,4,1.3,6c2.2,10.8-0.3,19.1,1.9,29.9
				c-1.9,19.9-5.8,43.2-10.3,74.9c-1.6,11.5-6.2,31.7,13.6,29.1c16.9-2.2,30.2-12.8,39.3-31.1c6.7-13.5,12.3-30.1,13.7-45
				c2.6,13.9,4.8,32.1,10.5,45.1c7.6,17.3,8.7,26.9,30.7,34.7c7.2,2.6,14.8,1.5,14.8-4.5c0-17-2.6-82.8-3.1-95
				c1.5-9.7,2.2-17.8,3.2-26.2c1.2-0.5,2.1-1.5,2.4-3c2.5,0.5,5.2-0.6,5.7-3.4c0.2,0.8,0.3,1.5,0.5,2.3c1.1,5.4,7.5,4.4,9.4,0.5
				c2.4,2.1,6.8,0.8,8.2-2.4C292.6,222.8,297.3,220.1,296.4,215.5z"/>
			<path class="st5" d="M200,169.3c-0.2-1-0.8-1.7-1.6-2c-1.9-12-3.8-24-5.8-36c0.2-2.5,0.4-4.9,0.4-7.1c0-0.6-0.1-1.1-0.4-1.5
				c0.2-0.6,0.3-1.4,0.1-2.4c-0.1-0.5-0.2-1-0.3-1.5c0.4-1.3,0-2.4-0.8-3.2c-0.5-1.7-1-3.4-1.3-5.1c-0.4-2.3-0.8-4.6-1.1-6.8
				c-5.2,1.3-10.2,2.8-15,4.6c-0.7,2.7-2,6-1.6,8.9c0.6,4.2,6.1,5.6,10.2,6.6c-2.3,4-4.5,8.1-5.9,12.4c-1.9,5.8,0,10.3,2.1,15.8
				c5.8,15.1,12.8,29.8,20.6,44c1.7,3.2,6.3,0.9,5.6-2.4C203.5,185.5,201.7,177.4,200,169.3z"/>
			<path class="st5" d="M207.2,268.6c-5.3,17.5-9.3,35.7-20,50.9c-9.5,13.6-25.9,28.2-43.7,26.6c-1.3-0.1-1.3,1.9,0,2.1
				c17.4,1.6,33.6-11.7,43.5-24.8c12.1-15.9,16.6-35.4,22.2-54.2C209.6,267.8,207.6,267.3,207.2,268.6z"/>
			<path class="st5" d="M259.6,353.7c-16.9,2.6-30.1-10.2-37.3-24.1c-7.6-14.4-11.9-30.7-14-46.8c-0.2-1.3-2.2-1.3-2,0
				c3.4,26.9,17.1,78.5,53.9,72.8C261.5,355.5,260.9,353.5,259.6,353.7z"/>
			<path class="st5" d="M220.4,104.5c-0.3,2-0.6,4.1-1,6.1c-0.3,1.7-0.8,3.4-1.3,5.1c-0.8,0.8-1.3,2-0.8,3.2c-0.1,0.5-0.2,1-0.3,1.5
				c-0.2,1-0.1,1.7,0.1,2.4c-0.2,0.4-0.4,0.9-0.4,1.5c0,2.2,0.2,4.6,0.4,7.1c-1.9,12-3.9,24-5.8,36c-0.7,0.3-1.3,0.9-1.6,2
				c-1.8,8.1-4.5,22.9-6.3,31c-0.7,3.3,4.9-1.1,6.6-4.3c7.8-14.2,14.8-28.9,20.6-44c2.1-5.5,4-10,2.1-15.8
				c-1.4-4.2-3.6-8.3-5.9-12.4c4.1-1,9.6-2.5,10.2-6.6c0.4-2.9-0.9-6.2-1.6-8.9c-3.5-1-7.5-2-12.8-3.5
				C222.3,104.8,221.5,104.6,220.4,104.5z"/>
			<path class="st6" d="M223.9,105.2c0.2-0.5,0.4-1.1,0.4-1.8c0-2.2,0.4-6.3-2-7.3c-1.9-0.8-4.9-0.3-6.9-0.3c-2.3,0-2.7,0.2-4.9,0.9
				c-2.8,0.9-5.1,5.4-6,8.2c-0.1,0-0.1,0-0.2,0c-1-3.2-3.8-8-7-8.6c-1.5-0.3-4.9-1.1-6.1,0.1c-0.6,0.6-0.8,2-1.1,2.8
				c-0.4,1.5-0.8,2.9-1,4.4c-0.1,0-0.1,0-0.2,0c3.1,32.3,5.1,65.2,11.8,97c0.4,2,3.5,1.9,4,0c4.4-18.3,8.5-36.6,12.3-55
				c2.7-13.4,4.8-27,7.5-40.4C224.3,105.3,224.1,105.2,223.9,105.2z"/>
			<path class="st2" d="M209.4,163c0-14.8-1.3-30.9-2.8-41.6c0-0.2,0-0.5-0.1-0.7c-0.1-0.6-0.2-1.3-0.3-1.9c0.7-0.6,1.4-1.5,2-2
				c0.9-0.8,2.6-1.7,2.7-3c0.1-1.3-4.6-6.7-6.1-8.2c-0.7-0.7-1.8-0.3-2.2,0.4c-0.9,1.7-4.4,7.5-4.2,8.6c0.2,1.5,2.3,2.7,3.3,3.6
				c0.2,0.2,0.5,0.5,0.7,0.7c-3.1,10.9-6.9,21.7-9.1,32.9c1.7,16.5,3.9,33,7.3,49.1c0.4,2,3.5,1.9,4,0c1.2-5.2,2.5-10.3,3.7-15.5
				C209,178.2,209.4,170.7,209.4,163z"/>
			<path class="st6" d="M491.3,256.1c-0.7-2.1-2.4-3.5-4.4-4.1c-0.6-19.9-1.3-39.8-2-59.7c0.1-1.7,0-3.5-0.2-5.3c0-0.1,0-0.1,0-0.2
				c-0.1-0.5-0.1-1.1-0.2-1.6c-0.4-2.7-2.5-4.1-4.8-4.4c-0.2-1-0.3-2-0.5-3c-0.4-2.5-2.6-4-5-4.4c0.8-5.8-7.9-9.9-11.3-3.9
				c-17.7,30.9-3.2,64.6-6.1,97.7c-1.5,16.9-5.8,32.4-3.4,49.5c2.6,18.1,5.9,35.2,5.7,53.6c0,3.6,2.9,5.7,6.1,6.1
				c2.9,0.4,5.9,0.7,8.8,1.1c3.2,0.4,6.4-3.1,6.1-6.1c-1.4-20.7,7.2-39.5,12.2-59.2C497.4,293.4,497.2,274.6,491.3,256.1z"/>
			<path class="st1" d="M306.1,164.5c-21.3,11.8-23.6,39.1-28,60.5c-3.7,18-15.3,47.6-1.5,63.9c4.7,5.5,14.8,10.3,21.9,6.4
				c7.2-3.9,8.8-17.2,9.5-24.5c2.9-28.4-3.9-57.6-9.3-85.3c-0.3-1.6-1.5-2.2-2.8-2.2c3.1-5.5,7.3-10.2,13.3-13.5
				C312.7,167.9,309.6,162.6,306.1,164.5z"/>
			<path class="st6" d="M377.4,149.5c-6.5-1.4-14.5-3.3-21.9-3.3c-2.7-0.4-5.4-0.7-8.1-1.1c-3-0.4-3.7,3.1-2.1,5
				c-1.2,5.6,0,12,0.3,17.7c0.4,7.9,0.8,15.7,1.2,23.6c0.9,15.7,2,31.5,3.5,47.1c0.3,3,4,4.2,5.7,1.6c3.9-5.9,4.7-12.2,6.3-19
				c1.8-7.7,4.3-15.2,6.8-22.7c4.7-14.3,8.9-28.6,9.2-43.7C380.1,153.4,380.3,150.2,377.4,149.5z"/>
			<path class="st0" d="M321.6,656.9c0,0.7,15.2,2,15.2,1.5c0.3-5.5,1.7-30.8,1.8-37.8c0-1-0.6-1.3-1.3-1.3
				c-0.2-0.4-0.5-0.7-0.9-0.8c-3.8-1-12.7-4.8-14,1.7C321.3,625.8,321.3,651.3,321.6,656.9z"/>
			<path class="st0" d="M383.8,656.9c0,0.7,15.2,2,15.2,1.5c0.3-5.5,1.7-30.8,1.8-37.8c0-1-0.6-1.3-1.3-1.3
				c-0.2-0.4-0.5-0.7-0.9-0.8c-3.8-1-12.7-4.8-14,1.7C383.5,625.8,383.5,651.3,383.8,656.9z"/>
			<path class="st1" d="M408.2,678.7c-1.1-2.9-3.1-5.4-4.1-8.4c-0.7-2.3-1.1-4.7-1.3-7.1c0-0.7-0.1-1.4-0.2-2.1
				c-0.1-1.2-0.1-2.5-0.1-3.7c0.1-2.5-0.1-5.5-1.5-7.4c-0.7-0.9-2.3-1.1-4.5-1c-0.9,0-7.1,0.3-12.8,0c-2.8,0.2-3.3,3-3.5,5.5
				c-0.3,4.3-1.3,13.6-0.2,16.8c0.4,1.2,0.8,1.1,1.4,1.8c2.3,2.9,3.7,4.8,4,8.5c0.6,6.4,7.4,9.5,12.2,12.9c0.4,0.3,4.8,3.2,7.1,3.1
				c2.3-0.1,3.8-3.6,4.2-5C409.9,688.6,409.5,682.2,408.2,678.7z"/>
			<path class="st2" d="M415.5,574.2c-1.1-10-4-19-3.5-29.2c0.5-11,1.3-22,1.3-33.1c-0.2-51.2-1.9-102.5-2.9-153.8
				c-0.1-6.4-8.1-7.6-11.1-3.7c-0.6-5.2-1.3-10.5-2.2-15.7c-1.4-7.2-11.5-4.8-12,1.6c-0.3,3.3-0.5,6.7-0.7,10c-1.1-4-2.4-8-3.9-11.9
				c-1.2-3-4.2-4.6-6.9-4.3c-0.1-0.3-0.1-0.5-0.2-0.8c-1.1-5.1-7.7-5.5-10.7-2.4c-0.1-7.8-12.3-7.8-12.3,0
				c0.1,44.3,11.5,87.5,12.7,131.7c0.6,20.9-1.6,41.8,1.3,62.6c1.4,10.2,5,19.7,7.2,29.7c2.5,11.6-2.1,29.4-2.3,40.8
				c-0.2,9.2,2.4,18.6,4,27.6c1.2,6.8,0.4,18.4,8.1,20.6c7.9,2.2,27.9,0.9,27.9-2.9c0-3.3,0.1-15.6-0.4-18.8
				c-0.8-5.2,0.7-10.1,2.3-15C413.8,599.1,416.5,583.2,415.5,574.2z"/>
			<path class="st1" d="M288,675.6c5.9,0.1,10.4-0.1,16.2-0.5c5.5-0.4,9.4-2.9,15.7-3.6c4.9-0.6,5.4,2.2,6.5,2.2
				c4.5-0.2,9.1-0.5,13.6-0.8c0.3,0,2.3-0.1,2.1-3.7c-0.2-5.8-0.6-11.5-1.3-17.3c-0.5-2.9-3.1-2.3-4.9-2.3c-4.3,0.1-8.7,0.9-13.1,1
				c-5.1,0.1-2.6-0.4-6.6,2.6c-6.9,5.1-17.5,9.6-25.8,12.1c-2.6,0.8-9.5,2.4-11.3,5C274.5,676.9,283.1,675.5,288,675.6z"/>
			<path class="st2" d="M311.6,656.2c-0.6,0.3-1.2,0.7-1.8,1c1.3,1.7,2.6,3.3,4.1,4.7c0.9,0.9,2.4-0.4,1.5-1.3
				C314,659.2,312.8,657.8,311.6,656.2z M305.5,659.5c1.2,1.7,2.5,3.4,4,4.9c0.9,0.9,2.4-0.4,1.5-1.3c-1.3-1.4-2.5-2.9-3.6-4.5
				C306.7,658.8,306.1,659.1,305.5,659.5z M315.9,653.4c-0.5,0.4-1.1,0.8-1.7,1.2c1.3,1.3,2.6,2.7,4,3.9c1,0.9,2.5-0.5,1.5-1.3
				C318.4,655.9,317.1,654.7,315.9,653.4z"/>
			<path class="st2" d="M355.4,283.3c-9-3.1-19.3-5.3-27.8-0.2c-3,1.8-5.2,4.4-6.8,7.3c-2.6-0.1-5.2,1.1-6.3,3.8
				c-3.4-4.2-12.6-2.2-12.9,5.1c-1.5,33.9-1.5,67.8,0,101.7c0.7,16.6,1.9,33.2,3.3,49.8c1.5,17.1,4.2,34.4,1.4,51.5
				c-2.3,14.4-4.9,26.8-1,41.2c2.4,9,3.9,15.5,2.5,24.8c-1,6.8-1.6,21.5-1.1,28.4c0.6,8.1,1.9,16.1,2.9,24.1
				c0.8,6.1,1.1,12.5,1.7,18.7c0.7,7.1,14.8,5.4,22.6,5.2c4.6-0.1,12.4-1.7,12.1-6.4c-1.8-27.8,1.7-64,3.7-91.7l6.4-86.5
				c4.2-57,8.4-114.1,12.7-171.1C369.4,280.9,358.4,277.6,355.4,283.3z"/>
			<path class="st0" d="M373.7,99.4c-6.9-1.8-13.8-3.4-20.8-4.9c-0.6-0.1-1.2-0.1-1.8-0.1c-3.6-0.2-7.6,2.8-6.6,7.5
				c3.6,17.6,2.6,28.2,4.3,46.1c0.8,8,30.9,5.6,30.9,2.4c0-12.4-0.6-32.5-1.5-44.8C378.2,102.9,376.5,100.1,373.7,99.4z"/>
			<path class="st4" d="M359,136.7c2.9-2.4,6.8-3.1,9.4-5.8c3-3,3.9-10.5-2.2-9.9c-0.7,0.1-1.2,0.5-1.6,1c-2.6,0.3-6.1,2.6-8.2,4.2
				c-0.4-0.3-0.8-0.5-1.3-0.5c-2.4,0.1-5.2,1.4-7.6,3.2c0.3,4.7,0.5,9.4,0.8,14.1c1.1,0.1,2.2-0.1,3.3-0.5
				C354.8,141.4,356.6,138.7,359,136.7z"/>
			<path class="st0" d="M371.1,51c-4.9-5.1-12.7,1.1-19.1,1.1c-7.6,0-13.9-5.1-17.8,1.2c-4.9,5.4-9.6,11.1-9.6,18.8
				c-0.1,14.2,1.2,37.4,8.1,49.6c5.5,9.6,12.4,12.6,17.6,12c8.6-1,16.4-9.4,21-15c2.5-3.1,6.5-9.6,7.3-12.9
				C383.6,86.7,385.6,66,371.1,51z"/>
			<path class="st0" d="M512.4,82.7c-7,1.3-14,2.8-20.9,4.4c-0.6,0.1-1.1,0.4-1.6,0.6c-3.4,1.4-5.7,5.7-2.8,9.6
				c10.7,14.4,14.3,24.4,23.5,39.9c4.1,6.9,30.4-8,29-10.9c-5.2-11.2-14.3-29.2-20.4-40C517.9,83.9,515.3,82.1,512.4,82.7z"/>
			<path class="st4" d="M514.9,122.7c1.6-3.4,4.8-5.7,6.1-9.2c1.5-4-0.9-11.2-6.1-8c-0.6,0.4-0.9,0.9-1,1.5c-2.3,1.4-4.4,5-5.7,7.3
				c-0.5-0.1-1-0.1-1.3,0.1c-2.2,1.1-4.2,3.5-5.5,6.1c2.2,4.1,4.5,8.3,6.7,12.4c1-0.4,2-1,2.8-1.8
				C513.1,128.8,513.5,125.6,514.9,122.7z"/>
			<path class="st0" d="M518.8,45.4c-4.4-5.5-12.7-0.1-19.1-0.7c-7.6-0.7-13.3-6.4-17.8-0.4c-5.4,5-10.5,10.2-11.3,17.8
				c-1.4,14.1-2.3,37.4,3.5,50.2c4.5,10.1,11.2,13.7,16.4,13.6c8.7-0.2,15.1-6.5,19.5-12.2c3.9-4.9,8.4-12.5,9.5-15.8
				C526.2,79.3,531.8,61.7,518.8,45.4z"/>
			<path class="st2" d="M333.4,93.5c0.1,1.4-0.5,2.5-1.3,2.6c-0.9,0.1-1.7-1-1.8-2.3c-0.1-1.4,0.5-2.5,1.3-2.6
				C332.4,91.1,333.2,92.1,333.4,93.5z"/>
			<path class="st2" d="M357.8,93.7c0.1,1.4-0.5,2.5-1.3,2.6c-0.9,0.1-1.7-1-1.8-2.3c-0.1-1.4,0.5-2.5,1.3-2.6
				C356.8,91.3,357.6,92.4,357.8,93.7z"/>
			<path class="st2" d="M374.1,43.9c-13.8-6-29.5-2.3-40.2,7.2c-1.9,0.6-4,0.8-5.8,1.6c-2.2,0.9-4.3,2.5-5.4,4.7
				c-1.8,3.5-0.7,7.3,1.9,9.6c0,0,0.1,0.1,0.1,0.1c5.6,7,17.2,7.7,25.4,6.2c4.9-0.8,9.9-1.9,12.8,3.7c0.8,1.6,0.8,3.6,1.7,5.2
				c1.1,2,2.8,3.1,4.2,4.8c4.2,4.7,5.4,8.8,6.1,14.3c0,0.1-0.1,0.3-0.1,0.4c-0.1,0.7,0,1.2,0.3,1.6c0,0.2,0,0.3,0.1,0.5
				c0.1,1,0.7,1.6,1.5,1.8c0.7,1.3,2.7,1.9,3.4,0.2C388.4,86.7,400,55.1,374.1,43.9z"/>
			<path class="st0" d="M377.4,92.5c-1.1-2.7-3.5-4.7-6.5-4.8c-3.3-0.1-5.1,2.2-6.8,4.7c-2.6,3.9,2.4,7.3,5.8,5.2
				c0,0.7,0.1,1.4,0.1,1.9c-0.3,2.6-1.5,4.8-3,6.9c-3.1,4.3,4,8.4,7.1,4.1C377.7,105.7,379.8,98.2,377.4,92.5z"/>
			<path class="st2" d="M362.6,84c-2.3-0.4-11.2-0.7-13.2,2.6c-0.4,0.6,0.1,1.6,0.9,1.5c2.8-0.2,5.5-0.8,8.3-0.8
				c1.5,0,4.2,0.9,5.5,0C366,86.2,364.2,84.3,362.6,84z"/>
			<path class="st2" d="M324.9,83.8c0.1,1.2,0.1,2.5,0.2,3.7c0.7-0.1,1.4-0.2,1.9-0.2c2.8,0,5.5,0.6,8.3,0.8
				c0.8,0.1,1.3-0.9,0.9-1.5C334.6,83.9,328.3,83.6,324.9,83.8z"/>
			<path class="st4" d="M342.2,106.7c-2.1-1.3-2.1-4.4-1.7-6.5c0.2-1.3-1.7-1.8-2-0.5c-0.6,3-0.3,7,2.6,8.8
				C342.3,109.1,343.3,107.4,342.2,106.7z"/>
			<path class="st5" d="M246.3,245.5c-6.1,1.5-12.3,1.7-18.5,2.6c-1.3,0.2-3.3,0.1-4.3,1.2c-1.1,1.2-0.6,4.2-0.7,5.8
				c-0.1,1.1,1.9,1.3,2,0.1c0-0.6-0.1-3.8,0.3-4.3c0.5-0.6,2.1-0.7,2.9-0.8c2.3-0.4,4.6-0.5,6.9-0.7c4.1-0.4,8.1-0.9,12.1-1.9
				C248.3,247.1,247.6,245.2,246.3,245.5z"/>
			<path class="st5" d="M250.2,283.5c-6.2,0.6-12.2,2.5-18.3,3.8c-1.3,0.3-3.2,1-4.5,0.3c-1.4-0.8-2-3.8-2.6-5.3
				c-0.4-1,1.4-1.8,1.8-0.8c0.2,0.5,1.2,3.7,1.7,4c0.7,0.4,2.2-0.1,3-0.2c2.3-0.4,4.5-1.1,6.8-1.6c4-1,7.9-1.8,12-2.2
				C251.5,281.3,251.5,283.4,250.2,283.5z"/>
			<path class="st5" d="M268.3,206.5c-10.4-22.5-20.8-45.8-19.4-71.2c0.1-1.3-2-1.3-2,0c-1.4,25.7,9.2,49.4,19.7,72.2
				C267.1,208.8,268.9,207.7,268.3,206.5z"/>
			<path class="st2" d="M474.5,84.2c0,1.4-0.7,2.5-1.6,2.5c-0.9,0-1.6-1.1-1.6-2.5c0-1.4,0.7-2.5,1.6-2.5
				C473.8,81.7,474.5,82.8,474.5,84.2z"/>
			<path class="st2" d="M496,86.6c0,1.4-0.7,2.5-1.6,2.5c-0.9,0-1.6-1.1-1.6-2.5c0-1.4,0.7-2.5,1.6-2.5
				C495.4,84.1,496.1,85.2,496,86.6z"/>
			<path class="st4" d="M481.6,97.2c-1.9-1.5-1.7-4.5-1.1-6.6c0.4-1.2-1.5-2-1.9-0.7c-0.9,3-1,6.9,1.8,9
				C481.4,99.7,482.6,98,481.6,97.2z"/>
			<path class="st2" d="M366.3,108.1c-2.4,4.5-2.2,9.8-6.1,13.5c-2.4,2.3-6.5,3.9-9.9,2.9c-4-1.2-4.6-5-5.1-8.6
				c-0.2-1.7-2-2.3-3.2-1.7c-0.9,0.1-1.6,0.8-1.6,1.9c0.1,4.1-2.2,7.3-5.7,8.6c5.1,7.3,11.1,9.6,15.7,9.1c8.6-1,16.4-9.4,21-15
				c1-1.3,2.3-3.2,3.6-5.2c0.2-2.1-0.3-4.3-1.7-6.2C370.7,104.1,368,104.7,366.3,108.1z"/>
			<path class="st7" d="M350,113.4c-0.9-1.5-4.3-1.4-5.8-1.4c-0.6,0-1.8-0.1-2.9,0c-0.1-0.5-0.6-1-1.2-0.8c-1.3,0.3-3.8,1.3-3.7,3
				c0.1,1.6,1.9,1.7,3.1,1.8C340.7,116,352.4,117.3,350,113.4z"/>
			<path class="st2" d="M352.6,112.3c-0.7-1.4-4.9-1.8-6.9-2.2c-2.3-0.5-4.4-0.6-6.6-0.1c-1.9,0.5-5.3,0.4-6.2,2.2
				c-0.6,1.3,0.2,2.4,1.5,2.7c1.1,0.2,2.4-0.4,3.4-0.7c2.7-0.9,4.6-1.2,7.4-0.5c1.9,0.5,5.4,2.2,7.1,0.4
				C352.6,113.8,352.8,112.8,352.6,112.3z"/>
			<path class="st1" d="M425.6,363c-1.8-9.9-6.9-76-6.9-76.2c4.4-18.4,20.4-78.5,19.6-94c-0.6-10.9-4-21.5-13.2-28
				c-13.4-9.6-44.1-21.6-44.2-21.7c-0.5-0.2-4.8,7.6-7.7,19.7c-4.4,18.5-17.8,62.9-20.2,75.4c-0.4-10.1-3.3-95.2-6.4-93.9
				c-17.7,7-28.3,10.2-43.8,22.4c-20.3,15.9-0.4,109.9-2.6,121.7c-4.4,23.3-7.7,39.8-10.7,66.1c-1.9,16.1,6.8,25.1,22.8,31.6
				c12.1,4.9,19.8-12.5,24.1-26.4c4.1-15.3,9.5-58.6,12.8-73.1c1.2,11.1,10,56.1,15.8,75.2c4.1,13.6,8.2,24.6,23.6,27.1
				c12.3,2,25.7-0.2,35.1-10C427.9,374.3,426.6,368.7,425.6,363z"/>
			<path class="st8" d="M327.9,283.7h-90.7c-2.2,0-4.1-1.8-4.1-4.1v-76.7c0-2.2,1.8-4.1,4.1-4.1h90.7c2.2,0,4.1,1.8,4.1,4.1v76.7
				C331.9,281.8,330.1,283.7,327.9,283.7z"/>
			<path class="st8" d="M542.4,354.8L456.5,384c-2.1,0.7-4.4-0.4-5.2-2.5l-24.7-72.6c-0.7-2.1,0.4-4.4,2.5-5.2l85.9-29.2
				c2.1-0.7,4.4,0.4,5.2,2.5l24.7,72.6C545.6,351.7,544.5,354,542.4,354.8z"/>
			<path class="st2" d="M397.1,655.6c1.3,0.1,1.4-2,0.1-2c-2.8-0.2-5.7,0-8.5,0.4c-1.3,0.2-0.9,2.2,0.4,2
				C391.9,655.6,394.5,655.5,397.1,655.6z M398,659.1c-2.8,0-5.6,0.3-8.4,0.9c-1.3,0.3-0.7,2.3,0.5,2c2.6-0.6,5.2-0.9,7.9-0.9
				C399.3,661.1,399.3,659,398,659.1z M399.5,665.4c-2.6,0.1-5.3,0.3-7.9,0.5c-1.3,0.1-1.3,2.2,0,2c2.6-0.3,5.3-0.5,7.9-0.5
				C400.8,667.4,400.8,665.4,399.5,665.4z"/>
			<path class="st0" d="M530.7,647.9c-0.1,0.7-15.2,1.7-15.2,1.2c-0.2-5.5-1.2-30.8-1.1-37.8c0-1,0.7-1.3,1.3-1.2
				c0.2-0.4,0.5-0.7,0.9-0.8c3.8-0.9,12.8-4.6,13.9,1.9C531.6,616.8,531.2,642.3,530.7,647.9z"/>
			<path class="st1" d="M506,669.3c1.1-2.9,3.2-5.3,4.2-8.4c0.8-2.3,1.2-4.7,1.5-7.1c0.1-0.7,0.1-1.4,0.2-2.1
				c0.1-1.2,0.2-2.5,0.2-3.7c0-2.5,0.2-5.5,1.6-7.3c0.7-0.9,2.3-1,4.5-0.9c0.9,0,7.1,0.4,12.7,0.2c2.8,0.2,3.2,3,3.4,5.5
				c0.2,4.3,1.1,13.6-0.1,16.8c-0.4,1.2-0.8,1.1-1.4,1.8c-2.3,2.9-3.8,4.8-4.2,8.5c-0.7,6.4-7.6,9.3-12.4,12.7
				c-0.4,0.3-4.9,3.1-7.2,3c-2.3-0.1-3.8-3.7-4.1-5.1C504.1,679.1,504.6,672.8,506,669.3z"/>
			<path class="st2" d="M525.3,646.9c1.3,0.2,1.7-1.8,0.5-2c-2.8-0.5-5.6-0.7-8.5-0.5c-1.3,0.1-1.2,2.1,0.1,2
				C520.1,646.3,522.7,646.5,525.3,646.9z M516.5,651.9c2.7,0.1,5.3,0.4,7.9,1c1.3,0.3,1.9-1.7,0.6-2c-2.8-0.7-5.6-1-8.4-1.1
				C515.2,649.8,515.2,651.8,516.5,651.9z M514.8,658.2c2.6,0.1,5.3,0.4,7.9,0.7c1.3,0.2,1.3-1.9,0-2c-2.6-0.3-5.3-0.5-7.9-0.7
				C513.5,656.1,513.5,658.1,514.8,658.2z"/>
			<path class="st0" d="M544.7,624c-0.2,0.7,13.8,6.7,14,6.2c2-5.2,11.3-28.7,13.5-35.4c0.3-0.9-0.2-1.5-0.8-1.6
				c-0.1-0.4-0.2-0.8-0.6-1c-3.3-2.1-10.6-8.5-13.8-2.8C554.2,594.4,546.2,618.7,544.7,624z"/>
			<path class="st1" d="M561,652.5c-0.1-3.1-1.3-6.1-1.2-9.3c0-2.4,0.4-4.8,1-7.2c0.2-0.7,0.4-1.4,0.5-2c0.3-1.2,0.7-2.4,1-3.6
				c0.8-2.3,1.7-5.2,0.9-7.5c-0.3-1-1.8-1.7-3.9-2.4c-0.9-0.3-6.9-2-12.1-4c-2.7-0.7-4.1,1.8-5,4.1c-1.6,4-5.5,12.5-5.5,15.9
				c0,1.2,0.4,1.3,0.7,2.2c1.2,3.5,2,5.8,1.1,9.4c-1.5,6.3,4.1,11.3,7.5,16.1c0.3,0.4,3.5,4.6,5.8,5.2c2.2,0.6,4.8-2.2,5.5-3.5
				C559.6,662.3,561.2,656.2,561,652.5z"/>
			<path class="st2" d="M557.8,627.1c1.2,0.5,2-1.4,0.8-1.9c-2.6-1.1-5.4-1.8-8.2-2.3c-1.3-0.2-1.5,1.8-0.2,2
				C552.8,625.4,555.3,626.1,557.8,627.1z M557.5,630.6c-2.7-0.9-5.5-1.5-8.3-1.7c-1.3-0.1-1.4,1.9-0.1,2c2.6,0.3,5.2,0.8,7.7,1.6
				C558.1,632.9,558.7,631,557.5,630.6z M557,637.1c-2.5-0.7-5.1-1.4-7.7-2c-1.3-0.3-1.9,1.7-0.6,1.9c2.6,0.6,5.1,1.2,7.7,2
				C557.6,639.4,558.3,637.5,557,637.1z"/>
			<path class="st7" d="M282.1,233.4c-7.9,0-7.9,12.3,0,12.3C289.9,245.6,290,233.4,282.1,233.4z"/>
			<path class="st8" d="M365,272.6h-99v11h99c0.9,0,1.5-0.7,1.5-1.5v-7.9C366.6,273.3,365.9,272.6,365,272.6z"/>
			<path class="st0" d="M297.7,291.7c-3.1-5.5-2.9-4.2-8.8-8.4c-4.1-2.9-13.3,0.4-13.8-4.3c-0.1-3.5,0.6-9.2,0.2-12.6
				c-0.1-0.9-1.3-1.2-1.8-0.5c-2,2.8-3.3,11.3-3.5,11.6c-0.9-4.2-0.9-8.6-2-12.8c-0.2-1-1.5-1.2-2-0.3c-2.3,4.7-2.5,9.1-1.3,13.3
				c-0.5-1-2.3-10.7-5.2-13.3c-0.7-0.7-1.7,0.1-1.6,0.9c0.2,5.7,1.2,11.4,4.1,16.4c0.4,0.8,0.9,1.5,1.3,2.1c-1.8-1-3.4-2-4.1-4.1
				c-0.4-1.3-0.4-6.8-3-6c-0.4,0-0.9,0.2-1,0.7c-0.6,4.3-1.4,7.8,2,11.1c3.3,3.2,21.7,9.7,27.5,11.1
				C285.7,296.9,298.1,292.5,297.7,291.7z"/>
			<path class="st0" d="M339.1,259.1c4.9-2.9,10.3-5,16-5.2c7-0.2,11.7,1.3,13.1,2c9.5,4.7,19.8,15.2,24.5,19.9
				c0.9,0.8,0.6,1.8,0,2.5c-0.1,0.9-0.7,1.7-1.6,1.7c-6.3,0.3-13.6-1.2-20.3-3.9c-4.6-1.9-6.7-11.5-11-9.4c-3,1.8-7.4,5.4-10.6,6.9
				c-0.8,0.4-1.7-0.5-1.4-1.3c1.3-3.2,7.8-8.8,8-9.1c-4,1.5-7.8,3.8-11.9,5.1c-1,0.3-1.8-0.6-1.3-1.5c2.7-4.4,6.4-7,10.6-8.2
				c-1.1,0.1-10.2,3.7-14,2.6C338.2,260.7,338.4,259.5,339.1,259.1z"/>
			<path class="st6" d="M391.2,262.2c-2.2-0.2-5.5-1.2-7.1,0.8c-1.9,2.3-2.5,6.7-3.3,9.5c-0.7,2.5-2.3,6.4-1.6,9.1
				c0.7,2.6,4.5,2.3,6.7,2.4c1.4,0,2.2-1.3,2-2.6c-0.1-0.6-0.1-1.2-0.2-1.8c1-4.1,1.8-8.2,2.5-12.3c0-0.1,0-0.1,0-0.2
				c0.1-0.3,0.1-0.6,0.2-0.9c0.3,0.1,0.6,0.1,0.8,0.1C393.9,266.6,393.8,262.5,391.2,262.2z"/>
			<path class="st1" d="M451.3,269.2c-0.5-17.5-2-35-4.6-52.4c-2.1-14.7-3.5-32.6-16.7-47.5c-6-6.8-13.7,3.8-8.3,11.2
				c4.3,5.9,6.4,12.9,7.8,20c-0.5,0.9-0.7,1.9-0.8,3.2c-0.2,4-0.4,8-0.7,11.9c-4.1-1.4-9.1,0.5-9.2,6.5c-0.2,14.1-1.4,28-3.8,41.9
				c-3.5-0.7-6.9-0.7-10.4-0.1c-2.1-1-4.2-2-6.3-3c-3.8-2-9.6-0.5-10.6,4.3c-1.1,5.8-2.3,11.5-3.4,17.3c-0.7,3.5,1,8.1,5,8.8
				c8.9,1.6,17.9,3.2,26.8,4.8c7.1,1.3,15.3,4,22.6,3.3C454.3,298,451.6,280.3,451.3,269.2z"/>
			<path class="st9" d="M421,253.5c-3-12.8-6.2-25.5-9-38.3c-3-14-1.4-27.3,8.4-38.3c0.9-1-0.6-2.4-1.4-1.4
				c-8.5,9.4-11.9,21.4-10.1,33.9c2.1,15,6.7,29.9,10.2,44.7C419.3,255.3,421.3,254.7,421,253.5z"/>
			<path class="st9" d="M436.7,265c-2-5.3-7.1-11-13.3-10.4c-1.3,0.1-1.3,2.2,0,2c5.3-0.5,9.6,4.4,11.3,8.9
				C435.3,266.7,437.2,266.2,436.7,265z"/>
			<path class="st9" d="M425.9,259.9c-1-0.8-2.4,0.6-1.4,1.4c2.9,2.5,4.6,5.9,4.8,9.7c0,1.3,2.1,1.3,2,0
				C431.2,266.7,429.3,262.7,425.9,259.9z"/>
			<path class="st6" d="M381.9,143.7c-0.5-2-0.7-4.7-3.2-5c-1.8-0.2-4.6,1.2-6.4,1.7c-2.6,0.7-5.3,1.3-8,1.8c-1.7,0.3-3,0.4-3.7,1.1
				c0,0-0.1-0.1-0.1-0.1c-1-0.8-3.5-0.8-4.7-1c-1.9-0.4-4.6-1.4-6.5-1.2c-2,0.2-2.1,1.9-2.4,3.8c-0.1,0.7,0.4,1.2,0.9,1.2
				c-0.2,2.5,0.2,5.6,1.7,6.8c0.1,0.8,0.3,1.6,0.7,2.3c0.3,0.6,0.9,0.6,1.4,0.3c0.4,0.3,1,0.4,1.4-0.1c0.3,0.3,0.7,0.4,1.1,0.3
				c0.2,0.1,0.3,0.1,0.5,0.2c0,0.1,0,0.2,0,0.3c-0.5,0-1.1,0.3-1.1,1c0,0.7-0.1,1.3-0.1,2c0,1,1.5,1.5,1.9,0.5c0.4-1,0.9-2,1.3-2.9
				c0.1,1.1,1.6,1.5,2,0.3c0.3-0.8,0.6-1.7,0.8-2.5c0,0.6,0,1.3-0.1,2c-0.1,1.3,1.9,1.3,2,0.1c0.3,1.3,0.6,2.6,1,3.8
				c0.4,1.3,2.3,0.7,2-0.5c-0.3-1.2-0.5-2.4-0.7-3.6c0.1,0,0.1,0,0.2,0c1-0.5,2.1-0.9,3.1-1.4c0.2,0.5,0.8,1,1.5,0.7
				c1.3-0.6,2.7-1.2,4.1-1.7c-0.1,0.7,0.6,1.4,1.5,1c0.5-0.2,1-0.4,1.4-0.6c-0.1,0.8,0.6,1.6,1.5,1.1c1.7-1.1,3.5-2.6,3.8-4.8
				c0.2-0.2,0.4-0.4,0.4-0.8c0.1-1.1,0.3-2.2,0.4-3.4c0-0.3-0.1-0.5-0.2-0.7c0-0.2,0-0.4,0-0.6C381.7,144.6,382.1,144.2,381.9,143.7
				z"/>
			<path class="st2" d="M361.1,148c-0.6-0.7-1.8-0.4-2.2,0.3c-1,1.7-4.6,7.3-4.5,8.5c0.1,1.5,2.2,2.8,3.2,3.7
				c0.2,0.2,0.5,0.5,0.7,0.7c-3.9,11.8-8.6,23.4-11.1,35.6c0.2,3.3,0.4,6.5,0.6,9.8c0.3-3.2,0.8-6.4,1.5-9.6c-0.2,5.5,0,11,0.1,16.6
				c0.2,8-0.4,16.5,1.6,24.3c0.2,0.9,0.8,1.3,1.5,1.5c0,0.1,0.1,0.1,0.1,0.2c0.8,1.5,3.4,1.2,3.8-0.5c1.4-7,2.6-14,3.8-21
				c0.5-0.3,0.8-0.8,0.9-1.6c0.1-2,0.2-4,0.4-6c0.1-0.6,0.2-1.2,0.3-1.8c0.5,0.4,1.6,0.1,1.7-0.8c1.7-14.7,0.5-29.4-1-44
				c0-0.2,0-0.5-0.1-0.7c-0.1-0.6-0.1-1.3-0.2-1.9c0.8-0.6,1.5-1.4,2.1-1.9c0.9-0.7,2.6-1.6,2.8-2.9
				C367,155.1,362.5,149.5,361.1,148z"/>
			<path class="st9" d="M418.7,257.7c-2.3,2.7-7.5,3.1-10.8,3.5c-3.8,0.4-7.5,0.3-11.2-0.2c-1.3-0.2-1.8,1.8-0.5,2
				c4.4,0.6,8.7,0.7,13,0.1c3.7-0.5,8.4-1,11-4C421,258.2,419.5,256.8,418.7,257.7z"/>
			<path class="st9" d="M413.7,308.8c-0.1-0.4-0.6-0.8-1-0.8c-9.8,0.6-19.6,1.5-29.4,2.8c-0.6,0.1-0.8,0.5-0.7,0.9
				c-0.1,0.1-0.1,0.3-0.2,0.5c-0.3,3.2-2.8,10.1,0.5,12.2c3.7,2.4,11.6-0.3,15.4-1c3.3-0.6,6.7-1.2,10-1.9c1.6-0.3,4-0.4,5.1-1.9
				C415.5,316.9,414.2,311.7,413.7,308.8z M411,318.1c-1.9,1.9-5.6,1.9-8.2,2.3c-3,0.6-6,1.2-9,1.7c-1.7,0.3-3.7,0.9-5.4,0.8
				c-1.4-0.1-4.3-0.2-5-1.8c-0.7-1.6,0.5-6.1,0.9-8.3c5.9-0.8,11.7-1.4,17.6-1.9c1.7-0.1,7.2-1.5,8.7-0.6
				C413.3,311.5,412.4,316.7,411,318.1z"/>
			<path class="st9" d="M323.9,311.9c0.1-0.4-0.1-0.8-0.6-1c-8.7-2.3-17.4-4.3-26.2-6.1c-0.1,0.6-0.2,1.2-0.3,1.8
				c2.1-0.1,6.5,1.5,8,1.9c5.8,1.3,11.5,2.7,17.2,4.2c0.1,2.2,0.7,6.9-0.2,8.4c-0.9,1.5-3.8,1.3-5.2,1.2c-1.7-0.1-3.6-1-5.2-1.5
				c-2.9-0.9-5.8-1.9-8.7-2.8c-2.3-0.8-5.6-1.2-7.4-3c-0.2,0.9-0.3,1.7-0.5,2.6c0.8,0.3,1.6,0.5,2.2,0.7c3.2,1.1,6.4,2.1,9.7,3.1
				c3.7,1.2,11.2,4.9,15.1,3c3.6-1.7,2.1-8.8,2.1-12C324,312.2,323.9,312.1,323.9,311.9z"/>
			<path class="st9" d="M396.9,149.9c-8.8-4-15.9-6.7-16-6.8c-0.5-0.2-4.8,7.6-7.7,19.7c-3.9,16.2-15.7,57.1-20.2,75.4
				c0.2-0.2,0.4-0.4,0.5-0.7c9.5-16.5,18.7-33.1,27.9-49.8c2.4-4.4,8.2-11.4,8.1-16.6c-0.1-3.6-3.2-7.4-6.1-10.8
				c3.6-1.5,7.2-3.2,10.5-5.1C396.4,153.8,397.1,151.9,396.9,149.9z"/>
			<path class="st9" d="M346.6,144.3c-5.9,2.3-11,4.3-15.8,6.2c1.8,2.9,4,5.5,7.1,7.4c0.4,0.2,0.8,0.5,1.3,0.7
				c-2.7,3.6-5.3,7.5-6.1,11.6c-1.1,5.3,1,12,1.9,17.1c3,16.8,12.6,34.7,18.1,50.9C352.6,228.1,349.7,143.1,346.6,144.3z M353,238.3
				c0.2,0.6,0.3,0,0.3-1.6C353.2,237.2,353.1,237.8,353,238.3z"/>
			<path class="st10" d="M534.3,51.9c-1.5-3.1-4.8-7.7-7.7-9.6c-6.4-4.2-15.3-2-22.4-3.8c-5.8-1.5-11.4-3.9-17.4-2.3
				c-5.8,1.6-8.9,6.5-13.3,10.1c-3,2.4-7.6,4.9-6.2,9.8c0.6,2.1,2,3.2,3.7,3.6c0.3,0.5,0.8,0.8,1.6,1c9.6,2.4,23.7-0.5,27.8,10.4
				c1,2.6,0.4,5.3,2.1,7.9c2.4,3.6,6.5,5.4,8.9,9.2c2.2,3.5,3.8,8.6,9.2,7.2c5.6-1.4,8.2-11.3,9.5-15.9c1-3.6,1.5-7.1,1.5-10.4
				c0-2.6,1-5.1,2.4-7.3C535.5,59,535.9,55.3,534.3,51.9z"/>
			<path class="st0" d="M513.8,87c-0.8-2.8-3-5-6-5.4c-3.3-0.4-5.3,1.7-7.2,4c-3,3.6,1.7,7.4,5.2,5.8c0,0.7,0,1.4-0.1,1.9
				c-0.6,2.5-1.9,4.7-3.6,6.6c-3.5,4,3.2,8.7,6.7,4.8C512.8,100.2,515.7,93,513.8,87z"/>
			<path class="st10" d="M499.8,78.8c-0.2,0-0.5-0.1-0.5-0.1c-3.6-0.6-7.6-1.5-11,0.3c-0.9,0.5-0.7,1.9,0.3,2
				c2.7,0.2,5.5,0.5,8.2,0.7c1.4,0.1,3.3,0.8,4.4-0.4C501.4,81,501.7,79.1,499.8,78.8z"/>
			<path class="st10" d="M469.6,75.7c0,1.1-0.1,2.2-0.1,3.3c2.6,0.3,5.1,0.5,7.7,0.8c1.1,0.1,1.5-1.2,0.7-1.9
				C475.5,76.1,472.5,75.8,469.6,75.7z"/>
			<path class="st11" d="M491.6,105c-4.1-0.7-8.2-0.8-12.4-0.6c-1.1,0.1-1.3,1-1,1.6c1.2,3,3.9,6,7.3,6.3c3.6,0.3,6-2.8,7-5.9
				C492.6,105.7,492.3,105.1,491.6,105z"/>
			<path class="st7" d="M479.2,104.5c-0.3,0-0.6,0.1-0.7,0.3c0.3,1.1,0.7,1.8,2,2.3c1.6,0.6,3.6,0.6,5.3,0.5c2.1,0,5.2-0.4,6.5-2.3
				c-0.2-0.1-0.3-0.3-0.6-0.3C487.5,104.3,483.4,104.2,479.2,104.5z"/>
			<path class="st2" d="M617,469.2c-2.3-30.1-12.3-135.2-23.6-168c-2.1-6.1-12.1-27.7-11.9-21.1c0.1,3.1,0.3,6.1,0.7,9.1
				c-14.1,1.9-27.9,5.1-41.4,9.4c-0.1-1.1-0.1-2.1-0.2-3.2c-0.3-5-5.7-5.8-8.6-3.2c0-0.3,0-0.6,0-0.9c-0.2-5.6-9.7-6.7-10.2-0.8
				c0,0.1,0,0.2,0,0.3c-0.8-0.5-1.7-0.8-2.7-0.9c-0.1-5.7-9.2-6.4-10.1-0.7c-0.6,4.1-1.2,8.1-1.8,12.2c-2-0.8-4.5-0.4-5.8,1.6
				c-0.6,0.1-1.1,0.2-1.6,0.4c-0.1-0.5-0.1-0.9-0.2-1.4c-1.1-6.3-7.3-9.1-6.2-2.7c2.5,15-1.6,31.3-1.4,46.3
				c0.2,10.9,6.3,191.8,9.1,270.8c0.4,11.9-2.6,29.2,13.5,29.5c14.8,0.3,25.8-1.3,27.7-17.3c4.6-39.2-1-77.4,2.1-116.7
				c2.8-35.8,5.8-80.5,7.1-110.6c0.9,7.4,2.1,14.1,3.7,19c4,12.1,15.8,95.7,26.4,157.8c3.8-28.5,13.2-55.9,29-80.8
				c2.1-3.3,0.8,0.6,3.9,0.1C614.6,496.2,617.1,470.3,617,469.2z M577.2,303.2c-0.2-0.3-0.4-0.6-0.6-1c-0.4-0.7-0.9-1.2-1.4-1.6
				c0.8-0.1,1.7-0.3,2.5-0.4c0,0.2,0,0.4,0.1,0.5C577.5,301.4,577.3,302.2,577.2,303.2z"/>
			<path class="st6" d="M596.2,155.7c-13.2-15.1-34.7-22.9-53.9-30.9c-1.6-2.9-3.8-5.2-6.8-5.3c-2.4-0.1-13.9,9.6-16.1,12
				c-2.9-1.4-6.6-1.9-9.4-2c-1.8-0.1-4-0.1-5.2,1.4c-0.8,1.1-1.2,2.8-1.5,4.6c-21.9,11.8-44.5,27.7-46.5,51.5
				c-0.5,5.8,9.7,5.8,10.2,0c0-0.3,0.1-0.5,0.1-0.8c1.4,0.9,3.5,1.2,5.3,0.6c-0.6,4.5-0.6,9.7,1.5,13.3c-0.1,0.4-0.2,0.9-0.1,1.4
				c3.7,26,7.9,52,12.2,77.9c1.3,8,0.5,22.3,8.8,27.8c8.8,5.8,25.4,1.1,35.2,0.1c14.7-1.4,36.8-2.4,51.5-4.3c9-1.2,12-0.8,14.1-8.8
				c3.1-11.9-0.5-28.5,1-40.6c1.6-13,0.7-27.7,7-39.8c0.8-0.7,1.5-1.7,1.6-2.9C607.5,192.5,609.7,171.2,596.2,155.7z"/>
			<path class="st2" d="M614.8,445.8c-0.1-5.3-3.5,4.7-4.2,10c-0.7,4.9-1.3,9.9-1.9,14.8c-0.5,1.9-1.1,3.8-1.6,5.7
				c-0.3-3.5-4.8-5.2-7.1-2.6c0.8-2.9,1.6-5.7,2.4-8.6c1.3-4.6-4.5-7.3-7.1-4c0.4-1.5,0.7-2.9,1.1-4.4c1.1-4.4-4.3-7.7-7.2-3.8
				c-0.3,0.4-0.7,0.9-1,1.4c-1.8-0.2-3.7,0.6-4.3,2.5c-2.5,7.2-4.7,14.4-6.7,21.7c1.9-9.5,3.6-19.1,4.8-28.7
				c0.7-5.2-7.3-5.8-8.1-0.7c-5,34.6-14.1,68.3-21.5,102.4c-3.4,15.6-6.4,31.4-8.4,47.3c-0.7,5.7-2,12-0.5,17.7
				c1.9,7.2,14.7,12,19.2,13.3c6.8,1.9,6.3-2.5,9.2-8c5-9.5,43.2-98.4,45.9-121.6C619.9,481.8,614.9,463,614.8,445.8z"/>
			<path class="st0" d="M484.2,371.6c-0.8-0.7-1.7-0.2-2.4,0.3c-0.3,0.3-0.7,0.6-1,0.9c0.1-0.8,0.2-1.5,0.2-2.3c0-1-1.4-1.4-1.9-0.5
				c-0.9,1.3-1.6,2.7-2.3,4.1c0.6-2,1.4-4.5,1-6.5c-0.1-0.5-0.6-0.7-1-0.7c-1.7-0.1-2.3,2.1-2.8,3.3c0,0.1-0.1,0.1-0.1,0.2
				c0-0.9-0.2-1.7-0.7-2.2c-0.3-0.3-1.5-1-2.4,0.2c-1,1.2-6.1,14.5-1.6,13.8c0.8-0.1,1.5-1,2-2.1c0,0.6,0.3,1.1,0.8,1.4
				c0.7,0.5,1.5,0.4,2.2,0c0.3,0.2,0.7,0.3,1.1,0c0.9-0.7,1.8-1.4,2.5-2.2c0.5,0.4,1.2,0.6,1.8,0.2c1-0.5,1.9-1.7,2.6-2.5
				c0.8-0.9,1.7-2,2.2-3.1C484.8,373.2,485,372.3,484.2,371.6z"/>
			<path class="st12" d="M525.7,219c0.4-7-0.1-13.6-0.8-20.6c-0.7-7.1-0.2-14,0.1-21.1c0.5-12.6-2.2-24.9-4.7-37.2
				c-0.6,0.1-1.2,0.2-1.7,0.2c-0.1,0.3-0.2,0.8-0.2,1.2c0,0,0-0.1,0.1-0.1c2.5,12.9,5,25.6,4.3,38.9c-0.7,13.7,1.3,27.1,0.8,40.8
				c-0.6,13.3,3.9,26.8,5.8,39.9c2.3,15.1,3.8,30.4,4.7,45.6c0.1,1.3,2.1,1.3,2.1,0c-0.8-14.1-2.2-28.2-4.2-42.2
				C529.8,249.4,524.9,234,525.7,219z"/>
			<path class="st12" d="M484.9,280.6c-4.3-12.8-2-26.3-4.4-39.4c-1.4-7.3-3-14.3-2.6-21.8c0.3-7.7,1.9-15.2,3.4-22.7
				c0.3-1.3-1.7-1.8-2-0.5c-2.9,14.3-4.6,27.6-1.5,42c3,14.1,0.5,29.1,5.2,42.9C483.4,282.3,485.3,281.8,484.9,280.6z"/>
			<path class="st6" d="M620.4,246.4c-1.2-11.2-4.2-22.4-6.4-33.5c-2.2-11.3-3.8-23-6.9-34.2c-1.7-6.3-4.4-11.6-10.4-14.6
				c-3.5-1.8-6.7,3.5-3.1,5.3c4,2,6.5,6.4,8.3,11.6c-3.7-2.1-9.5-0.2-9.3,5.2c0.2,6.1,1.7,12.2,3.3,18.3c-0.4,0-0.8,0.1-1.2,0.2
				c-0.1-0.3-0.2-0.6-0.3-0.9c-2-5.3-8-5.7-11.3-1.5c-0.1,0.1-0.1,0.2-0.2,0.3c-3.8-1.9-9.3-0.3-8.7,5c0.3,2.4,0.4,4.8,0.5,7.2
				c-0.6,1-1.2,2-1.7,3c-0.2-0.2-0.5-0.4-0.7-0.6c-4.2-2.9-9.1-2.8-13.6-1.1c-2.9-0.7-5.8-0.3-8.7,2.7c-2.7,2.8-3.8,5.5-3.8,8.1
				c-1,0.2-2.1,0.4-3.1,0.7c-4.8,1.2-5.5,6.8-2.8,10c0.2,0.2,0.3,0.3,0.5,0.5c0.6,0.6,1.4,1.1,2.3,1.4c2.6,0.8,5.2,1.7,7.8,2.5
				c0.5,0.9,1.1,1.7,1.9,2.3c0.1,0.1,0.3,0.2,0.4,0.3c-3.1-0.9-6.4-1.9-9.5-2.8c0.6,0.8,1.1,1.7,1.5,2.6c0.1,0.2,0.2,0.5,0.3,0.7
				c1.7,1,3.1,2.5,4,4.3c5.1,1.6,10.2,3.4,15.3,5.2c9.8,3.5,19.7,7,30,9c5.9,1.1,14.8,3.7,20.2,0.1
				C620.6,260,620.9,252.2,620.4,246.4z"/>
			<path class="st2" d="M568.1,191.5c-10.8-16.9-27.3-2.7-35.4,9.8c-1.9-15.7-5.2-31.2-8.5-46.7c2-2,3.9-4.8,4.1-6.7
				c-3.8-1.5-6.1-4.9-6.7-8.7c-0.7-0.8-2.1-0.7-2.9,0c-0.3,3.8-2.2,7.5-5.7,9.4c0,0,0,0.1,0.1,0.1c1.6,2.3,3.1,5.5,5.2,7.5
				c-2.7,10.6-5,21.3-6.5,32.1c-1,7.2-1.6,15.5,3.6,21.3c11.2,12.6,20.8-3.4,30.4-12.5c1.5-0.2,3-0.3,4.5-0.6
				c5.4-0.7,10.7-1.3,16.1-2C567.8,194.4,569,193,568.1,191.5z"/>
			<path class="st0" d="M553.1,229.3c-1.3-1.3-2.6-2.5-4-3.7c0.1-0.6-0.1-1.2-0.6-1.5c-1.9-1.3-15.3-8.9-20.5-10.8
				c-5.3-3.3-10.6-6.4-16-9.5c-2-1.1-4.5-0.9-6.7-1.6c-2.6-0.8-7.8-3.8-8.2-4.2c-4.3-4.4-8.5-8.7-12.8-13.1c-0.9-0.9-2.8,0-2.3,1.3
				c2.4,5.9,6.7,10.2,11.2,14.6c1.1,1.1,2.1,2.1,3.2,3.1c0,0.3-0.1,0.6,0,1c-0.3,2.7-0.6,7.1,2.1,8.3c0.5,0.2,2.8,1,4.2,1.2
				c2.5,3.8,5.1,7.7,10,8.4c2.3,0.3,4.7,0.2,7.1-0.3c7.4,3.5,14.7,7,22.1,10.6c1.6,0.8,2.8-1.4,1.4-2.4c-0.2-0.1-0.4-0.2-0.5-0.4
				c0.9,0.5,1.9,1.1,2.8,1.6c1.1,0.6,2.1-0.4,2-1.4c0.5,0.4,1.1,0.7,1.6,1c0.8,0.6,1.6,0,1.9-0.7c0.1,0.1,0.2,0.2,0.3,0.2
				C552.4,232.5,554.3,230.6,553.1,229.3z"/>
			<path class="st6" d="M562.4,220.3c-1.5-2.4-4.1-2.9-6.3-2c-0.2-2.6-2.2-5.1-5.1-5c-0.4,0-0.8,0.1-1.2,0.2c0.1-0.3,0.2-0.7,0.3-1
				c0.9-3.4-2.1-6.2-5-6.5c-2.4-2.1-7.2-1.9-8.8,2.1c-3.3,8.5-5.6,17.3-7.1,26.3c-0.5,3.1,2,6,4.7,6.5c1.5,2.7,5,2.7,7.4,1.1
				c1.1,2,3.3,3.2,5.8,2.4c0.4-0.1,0.7-0.3,1.1-0.4c-0.7,5.8,8.4,8,10.1,1.9c1.5-5.4,3.1-10.8,4.5-16.2
				C563.6,226.2,564.4,223.6,562.4,220.3z"/>
			<path class="st12" d="M596,225.5c-4.3-1-6.9-5.1-11.4-5.5c-0.2,0-0.4,0-0.7,0c-4.2-20.1-13.3-47.2,3.7-63.6
				c0.9-0.9-0.5-2.3-1.4-1.4c-17.6,16.9-8.6,44.5-4.3,65.2c-1.2,0.2-2.4,0.6-3.5,0.9c-4.5,1.3-7.9,1.8-12.3-0.5
				c-4.6-2.4-8.3-6.4-13.4-7.8c-5.9-1.6-10.5,3-16.3,0.8c-1.2-0.5-1.7,1.5-0.5,2c1.8,0.7,3.6,1.5,5.6,1.3c3.7-0.3,5.9-2.9,9.9-2.3
				c6.1,0.8,10.5,6.8,16.1,8.9c4.4,1.7,7.9,0.6,12.2-0.7c3.9-1.1,6.8-0.6,10.1,1.7c1.9,1.3,3.5,2.4,5.7,2.9
				C596.7,227.8,597.3,225.8,596,225.5z"/>
			<path class="st12" d="M599.7,223.3c-0.9-0.9-2.4,0.5-1.4,1.4c2.8,2.7,4.3,6.2,4.3,10.2c0,1.3,2,1.3,2,0
				C604.7,230.5,602.9,226.4,599.7,223.3z"/>
			<path class="st12" d="M592.4,262.3c-7.4-0.4-15-1.3-22.2-3.3c-7.2-2.1-11.9-6.9-17.7-11.4c-1.9-1.5-3.9-2.8-6.1-3.9
				c-3.3-1.7-4.5-3.6-6.2-7.1c-1.8-3.8-4.6-6-9-5.8c-1.3,0.1-1.3,2.1,0,2c7.4-0.3,6.6,8.2,11.9,11.4c2.3,1.4,4.7,2.4,6.9,4
				c2.9,2.1,5.5,4.7,8.4,6.9c9.5,7.4,22.4,8.6,34,9.2C593.8,264.5,593.7,262.4,592.4,262.3z"/>
			<path class="st12" d="M538.9,130.7c-1.1,2.8-2.2,5.6-3.5,8.3c-0.8,1.6-2.1,5.5-3.6,6.6c-4.3,3-9.2-5.4-11.4-8.3
				c-0.5-0.7-1.5-0.2-1.7,0.5c0,0.1-0.7,1.7-0.6,1.8c-1.2,3.1-3.4,7.8-5.9,7.4c-2.8-0.4-5.5-5.8-7-8.2c-0.7-1.1-2.5-0.1-1.8,1
				c2.2,3.4,4.8,8.2,8.3,10.5c0.3,0.2,0.7,0.2,1,0c2.4-1.3,4.3-3.8,5.7-6.5c0.1-0.2,1-1.9,2-3.2c2.7,3.8,7.1,10,11,8.3
				c2.2-0.9,3.5-4.6,4.5-6.5c1.9-3.7,3.6-7.4,5-11.3C541.3,130,539.4,129.5,538.9,130.7z"/>
			<path class="st4" d="M596.3,311.1c-0.9-3.8-1.9-7.1-2.8-9.9c-32.6,8.3-65.6,13-99.2,10.2c0,3.4-0.3,6.8-0.6,10.2
				C528.2,324.9,562.8,319.9,596.3,311.1z"/>
			<path class="st6" d="M546.6,310.6c-0.1-0.8-1-1.7-1.8-1.7c-4.9,0.1-11.9,0.2-16.8,0.4c-0.5,0-1.4,0.8-1.4,2.2
				c0,3,0.3,7.7,0.3,10.7c0,1.8,0.9,2.4,2.9,2.2c3.3-0.3,12.2-0.1,15.5-0.6c0.9-0.1,1.6-1,1.7-1.8
				C547,318.1,546.9,314.4,546.6,310.6z"/>
			<path class="st2" d="M562.3,318.5c1.4-0.2,2.7-0.5,4.1-0.7c-0.1-3.5-0.1-7-0.2-10.6c-1.4,0.2-2.7,0.5-4.1,0.7
				C562.2,311.5,562.3,315,562.3,318.5z"/>
			<path class="st2" d="M508.1,322.5c1.4,0,2.7,0.1,4.1,0.1c0.1-3.5,0.3-6.9,0.6-10.4c-1.4,0-2.7,0-4.1-0.1
				C508.4,315.6,508.2,319.1,508.1,322.5z"/>
			<path class="st0" d="M222.3,268.4c-1.4-3.4-6.1-3.7-9.3-3.8c-5-0.2-10,0.8-15,1c-1.8-0.9-3.7-2.1-5.5-3.7
				c-3.4-3-6.4-5.9-10.7-7.5c-1-0.4-1.8,0.4-1.6,1.4c1.1,4.9,7.8,10.7,12,13c5.4,2.9,24.5,5.9,26.5,5.5
				C221.5,273.6,223.5,271.2,222.3,268.4z"/>
			<path class="st6" d="M224.5,278c0.9-2.3,0.7-5.7,0.7-8.2c0-3.4,0.1-6.8-0.2-10.2c-0.2-1.9-0.1-3.1-1.9-2.9
				c-1.7,0.1-4.3,0.1-5.6,1.5c-1.4,1.6-1.5,5.1-1.7,7c-0.3,2.8-0.5,5.6-0.4,8.4c0.1,1.7-0.3,4.5,1,5.8c0.6,0.6,1.6,1.1,2.7,1
				C224,280,224.1,279.2,224.5,278z"/>
			<path class="st5" d="M155.9,143.8c0-1.3-2-1.3-2,0c-0.1,11.1,0.1,22.3,0.6,33.4c0.1,1.3,2.1,1.3,2,0
				C156.1,166.1,155.9,155,155.9,143.8z"/>
			<path class="st8" d="M183.8,264.2L83,247.4c-2.2-0.4-3.7-2.5-3.3-4.7l12.6-75.6c0.4-2.2,2.5-3.7,4.7-3.3l100.8,16.8
				c2.2,0.4,3.7,2.5,3.3,4.7l-12.6,75.6C188.1,263.1,186,264.6,183.8,264.2z"/>
			<path class="st7" d="M141.4,208c-7.8-1.3-9.8,10.8-2,12.1C147.2,221.3,149.2,209.3,141.4,208z"/>
			<path class="st8" d="M205.7,256.8L108,240.5l-1.8,10.9l97.7,16.3c0.8,0.1,1.6-0.4,1.8-1.3l1.3-7.8
				C207.1,257.7,206.5,256.9,205.7,256.8z"/>
			<path class="st0" d="M126.6,264.3c3.3-0.8,9.9-2.7,5.4-8.3c-3.1-3.9-11.2-0.5-10.4-5.2c0.9-3.4,3.2-8.6,3.7-12.1
				c0.1-0.9-0.9-1.5-1.6-1c-2.7,2.1-6.3,9.9-6.6,10.1c0.4-4.3,1.5-8.5,1.7-12.9c0-1-1.1-1.6-1.8-0.8c-3.5,3.8-4.9,8.1-5,12.4
				c-0.2-1.1,0.8-10.9-1.3-14.2c-0.5-0.8-1.6-0.3-1.8,0.4c-1.5,5.5-2.1,11.3-0.7,16.9c0.2,0.9,0.4,1.6,0.7,2.4
				c-1.4-1.4-2.7-2.9-2.8-5.1c0-1.4,1.5-10.7-1.2-11.2c-0.4-0.1-0.9-0.1-1.1,0.4c-1.8,4-3.5,11.7-1.2,15.8c2.3,4,9.7,10.6,14.5,11.9
				C118.2,264.2,122.4,265.3,126.6,264.3z"/>
			<path class="st5" d="M204.8,205.9c0-1.3-2-1.3-2,0c-0.1,15.7,0.4,31.3,1.3,47c0.1,1.3,2.1,1.3,2,0
				C205.3,237.2,204.9,221.6,204.8,205.9z"/>
			<path class="st2" d="M220.6,53.4c0,1.4-0.7,2.5-1.6,2.5c-0.9,0-1.6-1.1-1.6-2.5c0-1.4,0.7-2.5,1.6-2.5
				C219.9,51,220.6,52.1,220.6,53.4z"/>
			<path class="st2" d="M195.2,52.4c0,1.4-0.7,2.5-1.6,2.5c-0.9,0-1.6-1.1-1.6-2.5c0-1.4,0.7-2.5,1.6-2.5
				C194.5,50,195.2,51.1,195.2,52.4z"/>
			<path class="st4" d="M206.5,65.7c-1.9-1.5-1.7-4.5-1.1-6.6c0.4-1.2-1.5-2-1.9-0.7c-0.9,3-1,6.9,1.8,9
				C206.4,68.1,207.6,66.4,206.5,65.7z"/>
			<path class="st10" d="M197.8,41.2c-0.2,0-0.5-0.1-0.5-0.1c-3.6-0.6-7.6-1.5-11,0.3c-0.9,0.5-0.7,1.9,0.3,2
				c2.7,0.2,5.5,0.5,8.2,0.7c1.4,0.1,3.3,0.8,4.4-0.4C199.3,43.4,199.7,41.5,197.8,41.2z"/>
			<path class="st10" d="M217,42.4c0.2,0,0.5,0,0.6,0c3.7,0,7.8-0.3,10.8,1.9c0.8,0.6,0.4,1.9-0.6,1.9c-2.7-0.2-5.5-0.4-8.2-0.6
				c-1.4-0.1-3.4,0.3-4.3-1C215.1,44.3,215.1,42.4,217,42.4z"/>
			<path class="st11" d="M210.6,72.7c-4.1-0.7-8.2-0.8-12.4-0.6c-1.1,0.1-1.3,1-1,1.6c1.2,3,3.4,4.1,6.8,4.4c3.6,0.3,6.5-0.9,7.4-4
				C211.7,73.4,211.3,72.8,210.6,72.7z"/>
			<path class="st7" d="M198.3,72.1c-0.3,0-0.6,0.1-0.7,0.3c0.3,1.1,0.7,1.8,2,2.3c1.6,0.6,3.6,0.6,5.3,0.5c2.1,0,5.2-0.4,6.5-2.3
				c-0.2-0.1-0.3-0.3-0.6-0.3C206.5,71.9,202.4,71.9,198.3,72.1z"/>
			<path class="st2" d="M227.1,45.2c-3.5-1.8-8.5-1.7-12.6-0.7c-4.2,1-3.8,2.4-4,3.6c-2.2-0.8-4.6-1-6.9-0.6c0-1.3,0.1-3-3.6-4.2
				c-4-1.4-8.9-2-12.6-0.5c-5.2,2-4.7,8.3-2,12.3c2.3,3.4,9.8,4.5,13.5,3.4c3.3-1,4.5-4.9,4.7-8.4c0-0.1,0-0.2,0-0.3
				c2.3-0.5,4.6-0.3,6.8,0.6c0,0.2,0,0.4,0,0.5c-0.2,3.6,0.6,7.5,3.8,8.9c3.5,1.5,11.1,1.1,13.7-2C230.9,53.9,232.1,47.7,227.1,45.2
				z M196.5,56.6c-3.2,0.3-8.3-0.6-9.9-3.6c-0.4-1-0.9-2.1-1-3.2c-0.3-2.7,0.6-3.7,1.7-4.9c1.3-1.1,4.1-0.9,5.7-0.8
				c3,0.1,5.8,0.6,8.4,2c0,0.1,0,0.1,0,0.2C201.9,50.3,201.3,56.2,196.5,56.6z M228.1,52.5c-0.2,1.1-0.8,2.1-1.3,3
				c-1.9,2.8-7.1,3.2-10.2,2.6c-4.8-0.9-4.8-6.9-3.8-10.7c0-0.1,2.4-1,3.7-1.2c1.6-0.2,3.2-0.3,4.9-0.2c1.6,0.1,4.4,0.1,5.6,1.4
				C227.9,48.7,228.7,49.8,228.1,52.5z"/>
			<path class="st10" d="M238.7,19c-1.1-5.4-4.2-8.2-8.4-8.8c-2.4-8.3-9.9-10.9-18.2-10.1c-9.3,0.9-22.6,0-28.9,8.6
				c-3.4,4.7-4,11.4-6.7,16.5c-1.8,3.3-4.3,6.5-2.7,10.6c2.8,7.5,9.6,3.2,14,0.6c5.8-3.3,12.4-1.7,17.7-5.4c4.5-3.2,6.2-6.5,12-8.3
				c1.4-0.4,3-1,4.6-1.7c6,1.8,8,8.2,8.6,12c0.7,4.4,3.9,7.6,4.7,11.9c0.2,0.9,1.5,1,1.9,0.2c1.9-3.6,1.9-7.7,2.1-11.6
				C239.7,28.7,239.7,23.7,238.7,19z"/>
			<path class="st0" d="M240.5,50.3c-1.3-4.3-6.6-2.7-7.8,0.8c-0.4,1.1,1,1.6,1.7,1c-0.1,0.3-0.2,0.6-0.3,0.8
				c-0.7,2.2-1.5,4.3-1.8,6.5c-0.1,0.6,0.3,1,0.7,1.2c0,0,0,0.1,0.1,0.1c-0.1,0.2-0.2,0.3-0.4,0.4c-0.6,0.7-0.1,2.1,1,1.7
				C238.3,61.3,241.9,55,240.5,50.3z"/>
			<path class="st0" d="M183.2,51.5c-0.3-1.2-0.5-2.5-0.9-3.7c0.6,0.1,1.2-0.2,1.2-1c0-1.7-1.2-3.1-3-3c-2,0.1-3.1,1.9-3.6,3.6
				c-1.2,4.9,1.8,9.7,5.9,12.1c0.6,0.4,1.6-0.1,1.5-0.9C184.1,56.3,183.7,53.9,183.2,51.5z"/>
			<path class="st10" d="M238.8,36.9c-0.1-0.6-0.6-0.9-1-0.8c0.1-1.4-1.9-1.7-2-0.4c-0.1,1.5-0.2,2.9-0.4,4.4
				c-0.1-0.7-0.3-1.5-0.5-2.2c-0.4-1.3-2.2-0.5-1.9,0.8c0.6,2,0.8,4.1,0.6,6.3c-0.1,1.3-0.8,2.7-0.7,4c0,1.3,0.9,2.4,2.4,2.1
				c2-0.4,2.7-3.3,3.1-4.9C239.1,43.1,239.2,40,238.8,36.9z"/>
			<path class="st10" d="M183.1,34.5c0-0.2-0.1-0.4-0.2-0.5c0.4-1.1-1.2-2-1.8-0.9c-0.4,0.9-0.8,1.8-1,2.6c-0.5-0.7-1.9-0.6-1.9,0.5
				c0,3.4-0.3,7,0.2,10.4c0.1,1.2,0.6,3,2.1,3.2c1.7,0.2,2-2.1,2.2-3.3c0.7-3.7,0.9-7.4,2.1-11C185.1,34.4,183.7,33.8,183.1,34.5z"/>
		</g>
	</g>
</switch>

</svg>
