<?xml version="1.0" encoding="utf-8"?>
<!-- Generator: Adobe Illustrator 27.1.0, SVG Export Plug-In . SVG Version: 6.00 Build 0)  -->










<svg version="1.1" id="Layer_1" xmlns="http://www.w3.org/2000/svg" xmlns:xlink="http://www.w3.org/1999/xlink" x="0px" y="0px" viewBox="0 0 692.5 457.4" style="enable-background:new 0 0 692.5 457.4;" xml:space="preserve">
<style type="text/css">
	.st0{fill:#DE614B;}
	.st1{fill:#2D294C;}
	.st2{fill:#543337;}
	.st3{fill:#DADAE9;}
	.st4{fill:#A14C40;}
	.st5{fill:#BB3E2D;}
	.st6{fill:#FFFFFF;}
	.st7{fill:#DA934E;}
	.st8{fill:#9493AA;}
	.st9{fill:#588582;}
	.st10{fill:#5579A3;}
	.st11{fill:#3E5F80;}
	.st12{fill:#381F24;}
	.st13{fill:#42416B;}
	.st14{fill:#794239;}
	.st15{fill:#9F3643;}
	.st16{fill:#7B2934;}
	.st17{fill:#63372F;}
</style>
<switch>
	
	<g>
		<path class="st0" d="M191.6,410.1c0-3.9,0.7-45.2,0.9-50.2c0-0.7,0.5-0.9,1-0.9c0.1-0.3,0.4-0.5,0.7-0.5c2.7-0.6,9.2-2.9,9.9,1.7
			c0.4,2.8-0.7,35.6-1.1,42.5c0,0.7-0.1,1.4-0.1,2c0,6.9,4.8,8.3,9.2,12c1.2,1,0.1,3-1.4,2.1c-0.6-0.4-1.2-0.7-1.8-1.1
			c-0.5,0.3-1.2,0.4-1.8-0.1c-0.5-0.4-0.9-0.7-1.4-1c-0.4,0.5-1.2,0.7-1.9,0.4c-3.3-1.4-7.8-3.6-10.2-6.8
			C192.4,410.3,191.6,410.2,191.6,410.1z"/>
		<path class="st1" d="M186.9,46.7c-0.6-1.2-1.7-1.9-2.8-2.1c-0.7-1-1.8-1.6-3-1.7c1.5-7.5,0.7-14.5,8-19.3c4.6-3,0.4-10.5-4.4-7.5
			c-4.3,2.8-7.7,6.3-9.6,11.1c-2.6,6.5-1.8,13.6-4.7,20c-2.3,5-5,9.9-4.6,15.6c0.2,3.3,2.1,6.1,2.6,9.4c0.4,2.8,0.3,5,1.5,7.6
			c3.9,8.2,14.7,9.8,19.5,1.4C195.5,71.1,191.8,56.5,186.9,46.7z"/>
		<path class="st1" d="M225.1,57c-2-4.1-3-7.3-2.8-11.9c0.2-3.9,0.7-7.4,0.1-11.3c-0.9-6-2.9-11.2-8.9-13.3
			c-5.3-1.9-7.5,6.4-2.3,8.4c4.1,1.5,2.7,11.8,2.5,15c-0.2,2.8-0.3,5.3,0,7.9c-1.3,0.3-2.5,1.2-3,3c-0.2,0.6-0.3,1.2-0.4,1.8
			c-0.1,0.2-0.3,0.4-0.4,0.6c-1.8,3.2-2.6,6.2-2.9,9.8c0,0.4,0,0.8,0.1,1.2c-1.5,1.7-3.6,2.9-4.5,5.1c-1.8,4.3-0.1,10.5,4.3,12.4
			c1,0.4,1.9,0.6,2.8,0.7c0,0,0,0.1,0,0.1c0.6,3,4.1,3.7,6.4,2.6C229,83.4,230.8,68.6,225.1,57z"/>
		<path class="st1" d="M224.5,424.4c-5.1-3-10.9-7.1-14.5-9.3c-2.9-1.7-4.8-0.3-8-1c-5.4-1.3-7.6-5.1-11.3-8.2
			c-0.3-0.2-1.3-0.2-1.6,0.7c-1,3.3-3.1,10-0.5,13.1c0.3,0.3,0.4,0.6,0.6,1c0.5,1.5,0.2,3.6,0.1,5c0,0.4,0.4,0.8,0.7,0.7
			c0.5,0,0.9,0,1.4,0c0.4,0,0.8-0.4,0.7-0.7c-0.2-1.5-0.1-2.9,0.3-4.2c3.2,0.5,6.3,0.3,8.8,1.1c3.3,1.2,4.2,2.3,6.8,3.8
			c2,1.2,5.7,1.2,7.9,1.2c2.3,0.1,7.5,0.7,8.8-1.9C224.8,425.4,224.9,424.7,224.5,424.4z"/>
		<path class="st0" d="M164.2,423.1c1.6,0.5,10.1-1.2,11.5-0.6c0.6,0,2,1.1,2,1c0-1.1-0.5-6.8-1.3-13.7c-1.5-13.6-0.4-34-0.6-37.6
			c0-0.7-0.5-0.9-1-0.9c-0.1-0.3-0.4-0.5-0.7-0.5c-2.7-0.6-9.2-2.9-9.9,1.7c-0.4,2.8,1.6,31.1,2,38
			C166.3,410.6,164.3,422.5,164.2,423.1z"/>
		<path class="st1" d="M177.9,422.1c-1.3-1.5-4.5-0.3-6.2-0.3c-1.7,0-3.3-0.2-5-0.4c-0.6-0.1-2.2-0.5-2.8,0
			c-0.5,0.4-0.9,6.2,0.3,8.2c1,1.8,4,4.5,6,5.3c1.8,0.7,8.2-4.2,8.4-6.6C178.8,426.8,179.1,423.5,177.9,422.1z"/>
		<path class="st2" d="M218.1,355.1c1-12.8,2.1-25.5,3.1-38.3c2-24.2,4.6-48.4,5.7-72.7c1.3-27.1-6.9-53.4-6.2-80.4
			c0-0.4,0-0.7-0.1-1c0-0.5,0-1.1,0-1.6c0-2.6-1.5-4.2-4-4.7c-11.1-2.5-23.3-6.8-34.7-6.5c-1.2,0-2.4,0.4-3.3,1.2
			c-2.2-0.3-4.6,0.9-4.8,3.8c-0.4,4.1-0.7,8.1-1.1,12.2c-5.3,14.5-14.4,27.2-20,41.6c-6.7,17.1-5.2,35.4-4.8,53.5
			c0.8,38.1,1.9,76.3,5.4,114.3c0.2,2.3,2.5,4.3,6.2,4.7c5.5,0.6,16.8,0.5,20.5-0.5c5-1.3,4-10.7,4-16.3c0.2,4.9,0.3,11.6,5.3,13
			c8.3,2.2,17.1,1,23.6-0.8C216.9,375.3,217.5,362.5,218.1,355.1z"/>
		<path class="st2" d="M207.8,214.1c4.8-8.8,8.1-17.1,11.1-23.6c4.3-9.6,8.5-18.9,8.4-29.6c-0.1-11.2-1.8-22.3-3.3-33.3
			c-0.4-2.8,2.7-4.3,4.5-3.3c0.6-1,1.8-1.5,3-1.4c0-0.5,0-1,0.1-1.5c0.1-3.3,4.7-4,5.7-0.8c1.6,5.4-1-10.9-3.4-21.7
			c-0.8-3.6,4.8-5.2,5.6-1.5c2.6,11.6,5.2,23.2,7.2,34.9c1.7,10.2,4.5,22,3,32.3c-1.5,9.9-7.1,20.2-11.5,29.1
			c-5.3,10.7-11.3,21.1-17.3,31.4c-0.9,1.6-2.9,1.6-4.2,0.9c-0.3-0.1-0.6-0.2-0.9-0.4c-0.2-0.1-5.9-3.9-6.1-4
			C205.6,219.3,205.7,217.8,207.8,214.1z"/>
		<path class="st3" d="M231.8,95.6c-4.2-4.9-11.1-6.9-16.9-9.3c-6-2.6-12.3-6.2-18.6-7.8c-1.4-0.3-2.7-0.4-4-0.3
			c-1.4-1.8-3.9-2.7-6.5-1.2c-7,4.2-13.9,8.4-20.9,12.6c-5,3-9.3,6.3-10.7,12.3c-1.3,5.8-0.4,12.4-0.2,18.3
			c0.3,8.3,0.7,16.6,1.7,24.8c1.2,10.3,1.7,25.4,13.6,29.2c5.6,1.8,12.3,1.4,18.1,1.7c7.3,0.4,15.1,1.8,22.4,1
			c11.5-1.3,17-11.9,19.6-22.1c3.5-13.9,5.3-28.9,6.2-43.2C236.1,105.9,235.6,100.1,231.8,95.6z"/>
		<path class="st0" d="M204.3,51.8c-4.7-1.8-9.5-3.5-14.3-5c-0.4-0.1-0.8-0.2-1.2-0.2c-2.6-0.4-5.6,1.4-5.2,4.8
			c1.2,12.7-0.3,20.1-0.5,32.9c-0.1,5.7,21.6,4.8,21.9,2.5c0.9-8.7,1.9-21.5,2.2-30.3C207.2,54.6,206.3,52.5,204.3,51.8z"/>
		<path class="st4" d="M198.2,74.7c-2-1.7-4.8-2.3-6.7-4.2c-2.1-2.1-2.7-7.5,1.6-7c0.5,0.1,0.9,0.3,1.1,0.7c1.9,0.2,4.3,1.9,5.8,3.1
			c0.3-0.2,0.6-0.3,0.9-0.3c1.7,0.1,3.7,1,5.4,2.3c-0.2,3.3-0.4,6.7-0.7,10c-0.8,0-1.6-0.1-2.3-0.4
			C201.2,78.1,199.9,76.2,198.2,74.7z"/>
		<path class="st0" d="M214.6,18.8c-0.7,0.2-1.4,0.3-2.1,0.4c-6,0.7-14.1,1.4-19.8,4.5c-4,4.8-10.1,5.3-15,3.2
			c-0.9,7.9,1.9,16.1,5,24.7c0.8,2.3,5.4,6.5,8.2,10c3.2,4,7.5,7.7,13.6,7.8c3.7,0.1,7.4-0.6,10.6-7.8c4-9.1,3.3-25.7,2.3-35.7
			C217.2,23.1,216.1,20.8,214.6,18.8z"/>
		<path class="st1" d="M214.7,43.2c0,1,0.5,1.7,1.1,1.7c0.6,0,1.1-0.8,1.1-1.8c0-1-0.5-1.7-1.1-1.7
			C215.2,41.5,214.7,42.3,214.7,43.2z"/>
		<path class="st1" d="M200.5,44.2c0,1,0.5,1.7,1.1,1.7c0.6,0,1.1-0.8,1.1-1.8c0-1-0.5-1.7-1.1-1.7C201,42.4,200.5,43.2,200.5,44.2z
			"/>
		<path class="st4" d="M210.1,51.8c1.4-1.1,1.2-3.2,0.7-4.7c-0.3-0.9,1.1-1.4,1.3-0.5c0.7,2.1,0.7,4.9-1.2,6.4
			C210.2,53.6,209.4,52.4,210.1,51.8z"/>
		<path class="st5" d="M203.1,57.2c2.9-0.5,5.8-0.7,8.8-0.7c0.8,0,0.9,0.5,0.7,0.8c-0.9,1.6-2,3.5-4.4,3.8c-2.6,0.3-5.1-1.6-5.7-3.1
			C202.3,57.6,202.6,57.3,203.1,57.2z"/>
		<path class="st6" d="M211.9,56.5c-2.9,0-5.8,0.2-8.8,0.7c-0.2,0-0.4,0.1-0.5,0.2c1,1.3,3,1.5,4.5,1.5c1.2,0,2.6,0,3.7-0.5
			c0.9-0.4,1.1-1,1.3-1.9C212,56.6,212,56.5,211.9,56.5z"/>
		<path class="st0" d="M417.3,230.3c-1.8-1.7-3.8-3.4-6.1-4.2c-5.1-1.8-6.3,1.3-11,2.5c-0.8-6.7-1.9-13.3-3-20
			c-0.6-4.1-1.3-8.9-6.5-6.5c-5.4,2.5-5.4,7-3.7,12c2.2,6.3,4.3,14.8,8.7,20.1c1.3,1.3,2.3,1.4,4.7,1.4c3.4-0.2,7.1-2.3,9.5-3.7
			c2.8-1.5,1.9-1.4,4.5,0.5c0.9,0.7,1.9,1.7,2.9,2.1c0.7,0.3,1.8,0.5,2.3-0.4C420.3,232.7,418,231,417.3,230.3z"/>
		<path class="st0" d="M241.3,432.4c-0.1,0.5,10.4,3.2,10.5,2.8c0.8-3.8,4.9-21.4,5.7-26.3c0.1-0.7-0.3-1-0.8-1
			c-0.1-0.3-0.3-0.5-0.6-0.7c-2.6-1.2-8.4-4.9-10-0.5C244.8,410.6,241.7,428.5,241.3,432.4z"/>
		<path class="st0" d="M279.1,432.4c-0.1,0.5,10.4,3.2,10.5,2.8c0.8-3.8,4.9-21.4,5.7-26.3c0.1-0.7-0.3-1-0.8-1
			c-0.1-0.3-0.3-0.5-0.6-0.7c-2.6-1.2-8.4-4.9-10-0.5C282.6,410.6,279.5,428.5,279.1,432.4z"/>
		<g>
			<path class="st1" d="M333.5,453.6c-3.1,0-5.9-1.4-7.8-4c-1.8-2.5-2.3-5.7-1.4-8.7l40.9-124.2l2.8,0.9l-40.9,124.2
				c-0.7,2.1-0.3,4.3,0.9,6.1c1.3,1.8,3.3,2.8,5.4,2.8c0,0,99.3-0.5,99.3-0.5c1.8,0,3.5-0.7,4.8-2c1.3-1.3,1.9-3,1.9-4.8l-2.3-124.7
				l2.9-0.1l2.3,124.7c0,2.6-0.9,5-2.7,6.9c-1.8,1.9-4.2,2.9-6.8,2.9L333.5,453.6C333.6,453.6,333.6,453.6,333.5,453.6z"/>
			<path class="st1" d="M322.7,429.5c-3.1,0-5.9-1.4-7.8-4c-1.8-2.5-2.3-5.7-1.4-8.7l40.9-124.2l2.8,0.9l-40.9,124.2
				c-0.7,2.1-0.3,4.3,0.9,6.1c1.3,1.8,3.3,2.8,5.4,2.8c0,0,99.3-0.5,99.3-0.5c1.8,0,3.5-0.7,4.8-2c1.3-1.3,1.9-3,1.9-4.8l-2.3-124.7
				l2.9-0.1l2.3,124.7c0,2.6-0.9,5-2.7,6.9c-1.8,1.9-4.2,2.9-6.8,2.9L322.7,429.5C322.7,429.5,322.7,429.5,322.7,429.5z"/>
			<path class="st7" d="M330.4,312.6c0.4,7.3,4.9,11.7,14.3,11.7c26.4,0,43.2,1.3,69.6-0.1c6.6-0.4,36.3-0.4,44.9-1.3
				c6.3-0.7,8.3-1.2,8.7-10.6c0.2-6.3,0.2-16.9-0.7-23c-0.4-2.5-1-5-2.9-6.4c-2.8-2.2-8.1-2-11.2-2.3c-3.5-0.4-7-0.6-10.5-0.7
				c0-3.2,0-6,0-7.9c0.7-10.7-3.4-14.4-5.2-15.5c-23-15-49.2-16.6-76-12.5c-6.1,0.9-12.2,2.1-18.1,4.8c-4.1,1.9-10.1,4.3-11.9,10.9
				C329.2,267.2,329.8,301.7,330.4,312.6z"/>
		</g>
		<path class="st3" d="M226.7,244.6l-58.3-21.7c-2.1-0.8-4.4,0.3-5.2,2.4l-12.4,33.4c-0.8,2.1,0.3,4.4,2.4,5.2l58.3,21.7
			c2.1,0.8,4.4-0.3,5.2-2.4l12.4-33.4C229.9,247.7,228.8,245.4,226.7,244.6z"/>
		<path class="st2" d="M219,446.2c4.2,0.1,7.4,0,11.5-0.4c3.9-0.3,6.7-2.1,11.2-2.6c3.5-0.4,3.8,1.6,4.6,1.5
			c3.2-0.2,6.5-0.4,9.7-0.6c0.2,0,1.7,0,1.5-2.6c-0.2-4.1-0.4-8.2-0.9-12.3c-0.4-2-2.2-1.7-3.5-1.6c-3,0.1-6.2,0.7-9.3,0.7
			c-3.7,0.1-1.8-0.3-4.7,1.8c-4.9,3.7-12.4,6.9-18.3,8.6c-1.9,0.6-6.7,1.7-8,3.6C209.4,447.2,215.5,446.2,219,446.2z"/>
		<path class="st8" d="M235.8,432.5c-0.4,0.2-0.8,0.5-1.3,0.7c0.9,1.2,1.9,2.3,2.9,3.4c0.7,0.7,1.7-0.3,1.1-1
			C237.5,434.6,236.6,433.6,235.8,432.5z M231.4,434.8c0.9,1.2,1.8,2.4,2.8,3.5c0.6,0.7,1.7-0.3,1.1-1c-0.9-1-1.8-2.1-2.6-3.2
			C232.3,434.3,231.9,434.6,231.4,434.8z M238.8,430.5c-0.4,0.3-0.8,0.6-1.2,0.8c0.9,1,1.8,1.9,2.8,2.8c0.7,0.6,1.8-0.3,1.1-1
			C240.6,432.3,239.7,431.4,238.8,430.5z"/>
		<path class="st2" d="M254.6,442.4c4.2,0.4,7.4,0.6,11.5,0.6c4,0,6.9-1.5,11.4-1.6c3.5-0.1,3.7,1.9,4.5,1.9
			c3.2,0.1,6.5,0.2,9.7,0.3c0.2,0,1.7,0.1,1.7-2.5c0.2-4.1,0.2-8.2,0.1-12.3c-0.2-2.1-2-1.8-3.3-1.9c-3-0.2-6.2,0.1-9.3-0.1
			c-3.7-0.3-1.8-0.5-4.8,1.4c-5.2,3.2-12.9,5.8-19,7.1c-1.9,0.4-6.9,1.2-8.3,2.9C245,442.6,251.1,442,254.6,442.4z"/>
		<path class="st8" d="M272.5,430.1c-0.4,0.2-0.9,0.4-1.3,0.6c0.8,1.3,1.7,2.5,2.6,3.6c0.6,0.7,1.8-0.1,1.2-0.9
			C274,432.4,273.2,431.3,272.5,430.1z M268,432c0.8,1.3,1.6,2.6,2.5,3.7c0.6,0.7,1.7-0.1,1.2-0.9c-0.9-1.1-1.6-2.2-2.3-3.4
			C268.9,431.7,268.4,431.8,268,432z M275.7,428.4c-0.4,0.2-0.8,0.5-1.3,0.7c0.8,1,1.7,2,2.6,3c0.6,0.7,1.8-0.2,1.2-0.9
			C277.3,430.3,276.5,429.3,275.7,428.4z"/>
		<polygon class="st1" points="640.3,289.1 637,282.8 410.7,282.8 410.7,289.1 		"/>
		<polygon class="st1" points="660.7,413.9 656.7,407.6 390.5,407.6 390.5,413.9 		"/>
		
			<rect x="646" y="240.8" transform="matrix(0.9854 -0.1702 0.1702 0.9854 -50.0357 115.5951)" class="st1" width="6.3" height="217.7"/>
		
			<rect x="291.7" y="346.5" transform="matrix(0.1702 -0.9854 0.9854 0.1702 -12.1682 684.7992)" class="st1" width="217.7" height="6.3"/>
		<path class="st1" d="M604.9,193.8H504.1c-2.2,0-4.1-1.8-4.1-4.1v-85.3c0-2.2,1.8-4.1,4.1-4.1h100.8c2.2,0,4.1,1.8,4.1,4.1v85.3
			C609,192,607.2,193.8,604.9,193.8z"/>
		
			<rect x="549.3" y="180.7" transform="matrix(-1 -1.224647e-16 1.224647e-16 -1 1114.5865 414.4482)" class="st1" width="16" height="53"/>
		<path class="st1" d="M537.8,229.9h37c3.5,0,6.3,2.8,6.3,6.3h-49.6C531.5,232.7,534.3,229.9,537.8,229.9z"/>
		<path class="st9" d="M681.1,136.7c-9.5,15.5-15.4,32.5-20,49.9c1.4-7.4,2.8-14.9,4.2-22.3c3.7-18.6,7.7-37.1,12-55.6
			c0.3-1.4-1.4-2.5-2.4-1.4c-4.6,5-5.3,13.8-7.1,20.1c-2.6,9.4-5.3,18.7-7.3,28.2c-1.6,7.5-2.9,15.1-3.9,22.7
			c1-26.3,3.4-52.4,7.2-78.5c0.3-1.9-2.1-2.5-2.8-0.8c-6.9,16.3-8.5,34.5-9.5,52c-0.6,12-0.8,24.1-0.8,36.2
			c-1.6-29.5-3.3-59.1-4.9-88.6c-0.1-1.7-2.3-1.9-2.9-0.4c-2.9,7.8-1.9,16.8-1.8,25c0.1,9.9,0.3,19.7,0.7,29.6
			c0.7,19.7,2.1,39.4,3.9,59.1c0.1,0.9,0.8,1.3,1.5,1.4c0.2,2,0.4,3.9,0.6,5.9c0.1,1.1,1.1,1.5,1.9,1.3c0.1,1.7,0.2,3.5,0.3,5.2
			c0.1,1.9,3,1.9,2.9,0c-0.2-3.6-0.4-7.3-0.6-10.9c0.1,0.2,0.3,0.4,0.6,0.6c0.1,1.2,0.2,2.4,0.3,3.6c0.1,1,1,1.5,1.8,1.4
			c-0.1,0.2-0.1,0.4-0.2,0.6c-0.6,1.8,2.2,2.6,2.8,0.8c5.1-14.8,10.1-29.7,15.1-44.5c4.4-13,9.4-26,11.2-39.7
			C684,136,681.8,135.6,681.1,136.7z M652.2,213.5c-0.1,0.1-0.1,0.2-0.2,0.3c0-0.5-0.1-1-0.1-1.5c0.4,0,0.8-0.1,1-0.4
			c0,0.1,0,0.2,0,0.2C652.8,212.6,652.5,213.1,652.2,213.5z M656,217.1c0-1.2,0-2.3,0-3.5c0.4,0.2,0.8,0.2,1.2,0.1
			C656.7,214.8,656.3,216,656,217.1z"/>
		<path class="st9" d="M645.1,215.4c-0.8-1.8-1.5-3.7-2-5.7c-2.3-28.6-4.7-57.1-7-85.7c-0.1-1.3-2-2.2-2.7-0.7
			c-2.9,6-1.4,14-1.2,20.4c0.3,9,0.9,17.9,1.9,26.8c0.9,8.1,2,16.2,3.3,24.2c0.8,5,1.5,10.2,2.8,15.2c0.4,4.5,0.7,8.9,1.1,13.4
			c0.2,1.9,3.1,1.9,2.9,0c-0.2-1.9-0.3-3.8-0.5-5.7C644.6,217.6,645.6,216.6,645.1,215.4z M635.7,155.9c0.3,3.9,0.6,7.9,1,11.8
			C636.3,163.8,636,159.9,635.7,155.9z"/>
		<path class="st1" d="M652.5,236c-12.4,0-22.5-10.1-22.5-22.5v-10.3h44.9v10.3C674.9,225.9,664.9,236,652.5,236z"/>
		<path class="st0" d="M347.3,67.6c4.4-1.6,8.8-3.1,13.3-4.5c0.4-0.1,0.8-0.2,1.1-0.2c2.4-0.3,5.1,1.6,4.6,5.1
			c-1.5,12.7-0.4,25.4-0.7,38.3c-0.1,5.8-19.8,0.3-19.9-2c-0.6-8.8-1.1-23.2-1.1-32.1C344.6,70.3,345.6,68.2,347.3,67.6z"/>
		<path class="st4" d="M352.5,75.8c1.5-0.1,3,0.8,2.7,2.7c-0.3,1.3-1.4,2-2.2,2.8c-1.4,1.4-2.2,3.2-3.4,4.7
			c-1.3,1.4-2.9,2.1-4.5,2.5c-0.1-3.5-0.2-8.8-0.3-12C344.2,76.4,347.2,76.3,352.5,75.8z"/>
		<path class="st0" d="M331.1,55.5c-1.7-1.4-3.4-3.6-2.1-5.8c0.8-1.4,2.3-2.5,3.4-3.7c0.8-0.9,1.5-1.8,2.2-2.8
			c1.4-3.8,2.5-7.8,4.4-11.9c3.1-6.6,6.2-7.9,10.7-10.5c4.1-3.4,7.1,1.5,12.3,3.2c4.4,1.5,11-0.9,13.1,3.6
			c6.3,13.4,0.3,26.9-7.4,38.7c-1.3,2.1-5.2,6.6-7.3,8.6c-3.8,3.5-20.5,3.9-26,1.2c-4.2-2.1-4.9-9.8-3.7-18.1
			C330.8,57.2,330.9,56.3,331.1,55.5z"/>
		<path class="st0" d="M355.2,53.9c0.1-1,0.1-2.2,0.2-3.3c2.1-0.8,4.5-0.2,6,1.7c1.9,2.4,1.6,5.8,0,8.3c-1,1.6-4,5.4-6.2,3.6
			c-0.4-0.4-0.7-0.8-0.8-1.3C354.7,59.9,355,56.9,355.2,53.9z"/>
		<path class="st1" d="M338.2,46.5c-0.1,1,0.2,1.8,0.8,1.9c0.6,0.1,1.2-0.6,1.4-1.6c0.1-1-0.2-1.8-0.8-1.9
			C339,44.8,338.4,45.5,338.2,46.5z"/>
		<path class="st2" d="M338.2,40.3c2.5,0.2,6.9,1.3,7.5,4c0.1,0.4-0.2,0.8-0.7,0.8c-1.7-0.1-3.4-1.2-5-1.7c-1.1-0.3-3.2-0.5-3.1-1.9
			C336.9,41.1,337.5,40.3,338.2,40.3z"/>
		<path class="st1" d="M366.8,213.3c-0.7-6.4-9.6-7.3-11.4-2.5c-0.3,0.4-0.6,0.8-0.9,1.3c-0.1,0.1-0.1,0.2-0.2,0.3
			c-2.1-2.7-6.3-4-9-1c-2.7,3.1-5.3,6.2-7.9,9.4c-0.3-0.2-0.6-0.4-0.9-0.5c0.5-0.7,1-1.4,1.5-2.1c4.4-6-3.9-21.9-8.2-16
			c-11.4,15.6-23.7,39.6-34.4,55.7c-10.2,15.3-20.6,32.5-27.9,49.4c-14.2,33.3-26.2,69.3-32.8,104.9c-0.5,2.8,0.8,6.6,4.1,7.2
			c4.9,0.8,9.5,2.1,14.1,3.9c3.1,1.2,6.2-1.4,7.2-4.1c13.9-37.7,24.7-73.3,48.3-105.7c11.4-15.6,42.7-35.7,53.1-52.1
			C371.9,245.1,369,232.8,366.8,213.3z"/>
		<path class="st1" d="M351.9,246.3c-2.7,3.8-5.1,7.7-7.3,11.6c-2.3-1.5-5.6-1.6-7.6,0.8c-2.1-3.9-8.5-4.3-10.7,1.1
			c-1.2,2.9-2.3,5.9-3.4,8.8c1-5.3,2.1-10.7,3-16c1.3-7.3-9-10.2-11.2-3.1c-17.9,58.2-27.6,100.1-38.9,168.2c-0.5,3,1,6.4,4.1,7.2
			c3.9,0.9,7.8,1.8,11.6,2.8c3.2,0.8,6.1-1,7.2-4.1c20.3-57.9,17.9-89.7,62.7-162.1C365.2,255.6,355.5,241.3,351.9,246.3z"/>
		<path class="st5" d="M332.4,64.6c2.5,0.7,4.6-1.1,5.7-3.2c0.2-0.4,0-0.9-0.4-1.1c-2.3-0.9-4.6-1.4-7.1-1.8
			c-0.2,1.6-0.4,3.2-0.4,4.8C330.8,63.9,331.5,64.4,332.4,64.6z"/>
		<path class="st6" d="M333.2,61.3c1.5,0.3,3.7,0.4,4.8-0.7c-0.1-0.1-0.2-0.2-0.4-0.3c-2.3-0.9-4.6-1.4-7.1-1.8
			c-0.1,0.7-0.2,1.4-0.2,2.1C331.2,61,332.3,61.2,333.2,61.3z"/>
		<path class="st10" d="M391.5,149.6c-2.8-11.4-6.1-22.8-9.9-33.9c-2.9-8.3-6.1-16.9-12.2-23.4c-0.3-0.3-0.6-0.6-1-0.7
			c0,0-0.1-0.1-0.1-0.1c0.2-2.7,0.4-6.6-1.8-7.8c-2.5-1.3-8.4,1.9-10.7,2.8c-4.4,1.7-9.5,3.6-13.3,6.5c-2.7,2.1-2.1,4.7-1.8,7.8
			c-0.5,0.7-1.1,1.4-1.6,2.1c-10.8,11.7-20.2,24.7-29.7,37.5c-4.7,6.3-10.1,12.6-13.8,19.6c-2.1,4-1.5,6,2,8.8
			c3.2,2.5,7.6,7.2,12.2,5.7c2.1-0.7,6.9-5.1,12.3-10.7c-0.5,2.6-1,5-1.5,7.1c-9.4,41-6.4,43.9-3.1,48.7c0.9,1.3,2.2,1.3,3.3,1.5
			c0.6,0.1,22.5,4.4,32.8,4.5c7.2,0.1,15.4,3.2,18.4-3.3c1.7-3.7,2.7-6.7,4.2-15.6c0.3-2.1,1.4-8,2.3-17.4
			c2.4,9.6,4.7,19.2,6.7,28.9c0.3,1.3,1.6,2.1,2.8,2.2c3.7,0.2,7.4,0.4,11.1,0.9c1.7,0.2,3.9-0.7,3.7-2.8
			C400.8,195.2,397.1,172.2,391.5,149.6z"/>
		<path class="st11" d="M383.7,141.1c0.1-0.9-1.4-0.9-1.4,0c-0.8,12.3-2.5,24.6-5.2,36.7c-0.2,0.9,1.2,1.3,1.4,0.3
			C381.2,166,383,153.6,383.7,141.1z"/>
		<path class="st11" d="M354.8,111.6c-0.2-0.9-1.6-0.5-1.4,0.4c2.3,9.5-2.6,18.2-8.2,25.6c-5.5,7.3-11.5,14.4-17.9,20.9
			c-0.7,0.7,0.4,1.7,1,1c7.1-7.1,13.7-15,19.6-23.1C353.2,129,357.1,120.6,354.8,111.6z"/>
		<path class="st2" d="M378.9,32.7c-2.1-5.3-8.3-9.1-13.4-11c-3.9-1.5-8-2.1-12.2-2c-2.3,0-9.9-0.1-11.9,1.5
			c-3.5,2.9-0.2,9.3,2.2,11.8c2.4,2.4,5.7,3.2,8.3,5.1c5.6,4.1,2.2,7.7,5.2,12c1.2,1.8,2.3,0.2,3.2,3.4c0.6,2-0.9,5.6-1,7.9
			c-0.1,3.1,0.1,6.8,2.2,9.3c3.9,4.6,6-2,9.3-5.3C379.3,57.1,392.1,39.2,378.9,32.7z"/>
		<path class="st1" d="M212.7,16.6c-4-2.8-9.5-4.4-14.4-4.8c-4.9-0.4-9.9,1.5-13.6,3.8c-3.2-4.7-10.4-7.3-15.1-3.3
			c-3.5,3-3.2,8-0.9,11.5c-1.2,2.1-1.7,4.5-0.8,6.6c1.4,3.3,4.1,3.8,6.5,2.9c0,6.7,2.9,13.7,6.6,19.1c0.7,1,2.3,0.7,2.7-0.4
			c0.9-2.9-2.4-5.3-0.5-7.8c1.1-1.5,2.2-1,3.4-2.3c2.2-2.4,1.6-11.6,13.7-13.3c4-0.6,10.6-1,14.6-1.3c2.1-0.2,2.7-0.3,3.4-2.3
			C219.1,23.2,215,18.2,212.7,16.6z"/>
		<path class="st1" d="M204.9,39.2c-0.3-0.6-2.2-1.8-6.9-1.4c-1,0.1-3.9,1.2-3.3,2.8c0.1,0.3,0.4,0.6,0.7,0.5c1.3-0.1,2.5-0.8,3.8-1
			c1.6-0.2,3.2-0.1,4.8,0.2C204.8,40.5,205.2,39.8,204.9,39.2z"/>
		<path class="st1" d="M218.2,36.8c-3.9,0-5.5,1.2-5.7,1.7c-0.2,0.6,0.2,1.2,0.9,1.1c1.6-0.4,3.2-0.6,4.8-0.5c0.1,0,0.1,0,0.2,0
			C218.3,38.4,218.2,37.6,218.2,36.8z"/>
		<path class="st3" d="M186.6,55.7c0.1,3.2-0.8,5.9-2,5.9c-1.2,0-2.2-2.6-2.3-5.8c-0.1-3.2,0.8-5.9,2-5.9
			C185.5,49.9,186.5,52.5,186.6,55.7z"/>
		<path class="st0" d="M183.5,243.1c-0.6-2-1.3-4.1-2-6c-0.4,0.3-0.8,0.5-1.2,0.8c1.1,3.2,2,6.4,2.5,9.8c0.1,0.6-0.4,1.1-1,0.9
			c-0.6-0.2-1.9-3.1-2.4-4.7c-0.6-1.8-5.8-11-6.4-12.8c-0.6-1.7-1.2-3-1.5-4.8c-0.4-2.2-6.7-11.6-7.6-13.7c-0.3-0.7,4.3-6.2,4.7-6
			c0.1-0.1,8.7,11.2,8.9,11.2c3.2,0.6,5.6,3.2,7.8,5.3c1.6,1.5,3.3,3.1,4.8,4.7c0.7,0.7,1.3,1.2,1.2,2.3c-0.1,0.4-0.3,0.7-0.8,0.7
			c-1.6,0-2.6-1.1-3.8-2.2c-0.4-0.4-0.8-0.7-1.2-1.1c0.1,0.1,0.2,0.3,0.2,0.4c3.1,4.9,5.7,9.8,6.5,15.6c0.1,1-1.2,1.3-1.5,0.4
			c-1.3-3.9-3-7.6-5.1-11.1c0,0.1,0,0.1,0,0.2c0,0.1,0,0.2,0,0.2c2,4.6,4.8,10,4.4,14.9c-0.1,0.8-1.3,1.1-1.4,0.3
			c-0.7-3.1-1.7-5.4-2.5-8.1c-0.6-2-1.3-3.9-2.1-5.8c-0.2,0.2-0.3,0.4-0.5,0.6c1.8,4.2,3.8,9,3.3,13.5c-0.1,0.6-1.1,1.2-1.3,0.5
			C185,247.5,184.1,245,183.5,243.1z"/>
		<path class="st0" d="M197.1,243.1c0.6-2,1.3-4.1,2-6c0.4,0.3,0.8,0.5,1.2,0.8c-1.1,3.2-2,6.4-2.5,9.8c-0.1,0.6,0.4,1.1,1,0.9
			c0.6-0.2,1.9-3.1,2.4-4.7c0.6-1.8,5.8-11,6.4-12.8c0.6-1.7,1.2-3,1.5-4.8c0.4-2.2,6.7-11.6,7.6-13.7c0.3-0.7-4.3-6.2-4.7-6
			c-0.1-0.1-8.7,11.2-8.9,11.2c-3.2,0.6-5.6,3.2-7.8,5.3c-1.6,1.5-3.3,3.1-4.8,4.7c-0.7,0.7-1.3,1.2-1.2,2.3
			c0.1,0.4,0.3,0.7,0.8,0.7c1.6,0,2.6-1.1,3.8-2.2c0.4-0.4,0.8-0.7,1.2-1.1c-0.1,0.1-0.2,0.3-0.2,0.4c-3.1,4.9-5.7,9.8-6.5,15.6
			c-0.1,1,1.2,1.3,1.5,0.4c1.3-3.9,3-7.6,5.1-11.1c0,0.1,0,0.1,0,0.2c0,0.1,0,0.2,0,0.2c-2,4.6-4.8,10-4.4,14.9
			c0.1,0.8,1.3,1.1,1.4,0.3c0.7-3.1,1.7-5.4,2.5-8.1c0.6-2,1.3-3.9,2.1-5.8c0.2,0.2,0.3,0.4,0.5,0.6c-1.8,4.2-3.8,9-3.3,13.5
			c0.1,0.6,1.1,1.2,1.3,0.5C195.6,247.5,196.5,245,197.1,243.1z"/>
		<path class="st1" d="M367.4,221.1c-4.4-1.6-10.7-0.8-15.4-1.2c-6.5-0.7-13-1.9-19.5-2.9c-3.3-0.5-8.6-2.1-11.8-0.7
			c-2.9,1.3-3.3,5.3-4.1,8c-1.2,3.6,4.5,5.1,5.6,1.5c0.8-2.6,2.2-3.5,3.9-3.7c-0.6,1.5-0.1,3.2,1.9,3.6c5.8,1.2,11.7,2.1,17.6,2.8
			c2.8,0.3,5.7,0.4,8.5,0.7c2.9,0.4,5.3,1.8,8,2.4c5.1,1.1,7.3-2.7,7.4-7.7C369.6,222.6,368.6,221.6,367.4,221.1z"/>
		<path class="st2" d="M182.9,123.1c-0.4-6.7-0.8-13.4-1.2-20.2c-0.4-5.8-2.4-14.4,0.2-20.1c0.2-0.1,1.2-3.2,0.5-4
			c-1-1.2-3.7,0.7-3.8,0.9c-6,3.3-12,6.6-18,9.8c-3.2,1.7-9.3,4-10.7,6.3c-1.5,2.5-1.1,11.4-1.2,15.7c-0.2,6.6-0.2,13.3-0.1,19.9
			c0.1,6.6,0.4,13.3,0.8,19.9c0.2,3.8-0.8,11.1,1.8,14.3c2,2.4,6.6,1.6,9.3,1.7c7.6,0.1,15.1,0,22.7-0.2c1.1,0,2.3-1,2.2-2.2
			C184.6,150.9,183.7,137,182.9,123.1z"/>
		<path class="st2" d="M205,123.1c0.4-6.7,0.8-13.4,1.2-20.2c0.4-5.8,2.4-14.4-0.2-20.1c-0.2-0.1-1.2-3.2-0.5-4
			c1-1.2,3.7,0.7,3.8,0.9c6,3.3,12,6.6,18,9.8c3.2,1.7,11.5,5.3,11.7,6.8c0.3,2.9,0.1,10.8,0.2,15.1c0.2,6.6,0.2,13.3,0.1,19.9
			c-0.1,6.6-0.4,13.3-0.8,19.9c-0.2,3.8,0.8,11.1-1.8,14.3c-2,2.4-6.6,1.6-9.3,1.7c-7.6,0.1-15.1,0-22.7-0.2c-1.1,0-2.3-1-2.2-2.2
			C203.3,151,204.1,137.1,205,123.1z"/>
		<path class="st0" d="M234.6,119.6c2.4,0.8,4.9,1.6,7.3,2.6c-0.3,0.5-0.7,0.9-0.9,1.4c-3.8-1.4-7.7-2.5-11.8-3.2
			c-0.7-0.1-1.3,0.4-1.1,1.2c0.2,0.8,3.7,2.3,5.6,2.9c2.1,0.7,13.2,7.2,15.4,8c2,0.8,3.7,1.5,5.8,1.9c2.6,0.5,13.9,8.3,16.3,9.4
			c0.8,0.4,7.6-5.1,7.3-5.6c0.1-0.2-13.3-10.8-13.4-11c-0.6-3.8-3.7-6.8-6.2-9.5c-1.8-2-3.7-4-5.6-5.9c-0.9-0.8-1.4-1.6-2.7-1.4
			c-0.5,0.1-0.9,0.4-0.9,0.9c-0.1,1.9,1.3,3.2,2.5,4.6c0.4,0.5,0.9,0.9,1.3,1.4c-0.2-0.1-0.3-0.2-0.5-0.3
			c-5.8-3.8-11.8-7.1-18.7-8.2c-1.2-0.2-1.6,1.4-0.5,1.8c4.7,1.7,9.1,3.8,13.2,6.3c-0.1,0-0.1,0-0.2-0.1c-0.1,0-0.2,0-0.3,0
			c-5.5-2.5-12-5.9-17.9-5.5c-0.9,0.1-1.3,1.5-0.4,1.7c3.7,0.9,6.5,2.1,9.7,3.2c2.3,0.8,4.7,1.6,7,2.6c-0.2,0.2-0.5,0.4-0.7,0.6
			c-5-2.2-10.8-4.7-16.2-4.2c-0.7,0.1-1.4,1.3-0.6,1.6C229.2,117.7,232.3,118.8,234.6,119.6z"/>
		<path class="st10" d="M312.5,151.4c-5.4-4-30.3-19-42.6-26c-1.8-1-3.6,0.3-4.2,1.9c-1.1,3.4-3.6,7.9-4.9,11.3
			c-0.4,1.2-0.7,2.5,0.4,3.6c7.4,7,6.8,4.9,14.5,11.6c5.3,4.6,24.7,20.8,32.1,20.9c2.1,0-10.2-12.5-11.6-14.2c0,0,0,0,0-0.1
			c1.9-0.1,3.4-2.2,2.5-4.1c0.5,0.3,1,0.7,1.4,1c3,2.1,6.6-1.6,3.9-4.3c-0.5-0.5-0.9-0.9-1.4-1.4c0,0,0.1,0,0.1-0.1
			c1.9,1.4,3.8,2.7,5.7,4.1C311.6,157.9,315.6,153.6,312.5,151.4z"/>
		<path class="st2" d="M181,213.5c-4.8-8.8-8.1-17.1-11.1-23.6c-4.3-9.6-8.5-18.9-8.4-29.6c0.1-11.2,1.8-22.3,3.3-33.3
			c0.4-2.8-2.7-4.3-4.5-3.3c-0.6-1-1.8-1.5-3-1.4c0-0.5,0-1-0.1-1.5c-0.1-3.3-4.7-4-5.7-0.8c-1.6,5.4,1-10.9,3.4-21.7
			c0.8-3.6-4.8-5.2-5.6-1.5c-2.6,11.6-5.2,23.2-7.2,34.9c-1.7,10.2-4.5,22-3,32.3c1.5,9.9,7.1,20.2,11.5,29.1
			c5.3,10.7,11.3,21.1,17.3,31.4c0.9,1.6,2.9,1.6,4.2,0.9c0.3-0.1,0.6-0.2,0.9-0.4c0.2-0.1,5.9-3.9,6.1-4
			C183.2,218.8,183,217.3,181,213.5z"/>
		<path class="st12" d="M182.9,123.1c-0.4-6.7-0.8-13.4-1.2-20.2c-0.4-5.8-2.4-14.4,0.2-20.1c0.2-0.1,1.2-3.2,0.5-4
			c-1-1.2-3.7,0.7-3.8,0.9c-2.2,1.2-4.4,2.4-6.6,3.6c-1.5,4.4-3.2,8.8-5.3,13.1c-2.3,4.8-1.9,8.6,0,13.6
			c4.9,12.8,11.5,25.3,17.7,37.6C183.9,139.4,183.4,131.2,182.9,123.1z"/>
		<path class="st12" d="M205,123.1c0.4-6.7,0.8-13.4,1.2-20.2c0.4-5.8,2.4-14.4-0.2-20.1c-0.2-0.1-1.2-3.2-0.5-4
			c1-1.2,3.7,0.7,3.8,0.9c2.2,1.2,4.4,2.4,6.6,3.6c1.5,4.4,3.2,8.8,5.3,13.1c2.3,4.8,1.9,8.6,0,13.6c-4.9,12.8-11.5,25.3-17.7,37.6
			C204,139.4,204.5,131.3,205,123.1z"/>
		<path class="st12" d="M157.4,127.5c0-0.9-1.4-0.9-1.4,0c-0.2,8.4,0.2,16.7,1.1,25.1c0.1,0.9,1.5,0.9,1.4,0
			C157.6,144.2,157.2,135.9,157.4,127.5z"/>
		<path class="st12" d="M231,132.6c-0.1-0.9-1.5-0.9-1.4,0c0.7,8.4,0.5,16.8-0.6,25.2c-0.1,0.9,1.3,1.3,1.4,0.4
			C231.5,149.7,231.8,141.1,231,132.6z"/>
		<path class="st12" d="M179,207.5c-3.3-7.6-6.9-15.1-10.8-22.4c-0.4-0.8-1.7-0.1-1.2,0.7c3.8,7.3,7.4,14.8,10.8,22.4
			C178.1,209.1,179.3,208.4,179,207.5z"/>
		<path class="st12" d="M163.9,216.8c-1.9-4.2-3.7-8.5-5.4-12.8c-0.3-0.9-1.7-0.5-1.4,0.4c1.7,4.5,3.5,8.8,5.5,13.2
			C163,218.3,164.2,217.6,163.9,216.8z"/>
		<path class="st12" d="M220.8,187.2c-2.5,3.8-5.7,7.5-7,11.9c-0.3,0.9,1.1,1.3,1.4,0.4c1.3-4.2,4.4-8,6.9-11.6
			C222.6,187.2,221.3,186.5,220.8,187.2z"/>
		<path class="st12" d="M186.7,288.7c-0.1,21.5-0.1,43-0.1,64.5c0,0.9,1.4,0.9,1.4,0c0.1-21.5,0.1-43,0.1-64.5
			C188.1,287.8,186.7,287.8,186.7,288.7z"/>
		
			<rect x="360" y="236.2" transform="matrix(-1 -1.224647e-16 1.224647e-16 -1 1052.5472 490.5619)" class="st3" width="332.5" height="18.1"/>
		<path class="st13" d="M506,100.3c-3.3,0-5.9,2.6-5.9,5.9v81.7c0,3.3,2.6,5.9,5.9,5.9h13.3c10.1-11.1,18.7-23.4,25.8-36.9
			c10.7-20.3,19.6-43.5,39.4-56.6H506z"/>
		<g>
			<path class="st14" d="M116.6,228.5c0.1-0.7,1.3-0.7,1.4,0c0.1,0.7,0.3,1.3,0.4,2c0.1-0.7,0.1-1.4,0.1-2c0-0.8,1.3-1,1.5-0.2
				c0-0.1,0-0.3,0-0.5c0-0.3,0.2-0.6,0.5-0.7c0-0.1,0-0.1,0-0.2c0-0.6,0.7-0.9,1.1-0.6c0.4,0.3,0.7,0.7,0.9,1.1c0-0.1,0-0.1,0-0.2
				c0-0.9,1.5-0.9,1.5,0c-0.1,6.8,0.2,13.5,0.6,20.2c0.3,6-2.2,9.3-5.8,13.9c-0.5,0.6-1.3,0.4-1.4-0.4
				C116.6,250.3,114.8,239.2,116.6,228.5z"/>
			<path class="st15" d="M106.9,95.8c-3.2-4.7,4.5-9.1,7.7-4.4c7,10.2,7.9,23.1,9.3,35.1c1.7,14.6,2.8,29.3,3.5,44
				c0.7,14.5,1,29.1,1.4,43.6c0.2,6.8,0.7,23.3-11.2,18.5c-1.8-0.7-3.3-2.2-3.2-4.3c0.2-5.4,0.3-10.8,0.4-16.1
				c-1-0.7-1.7-1.8-1.8-3.3c-2.3-26.1-2.9-52.3-1.9-78.6c0.1-2.7,1.9-4.1,3.8-4.2c-0.1-0.4-0.1-0.9-0.2-1.3
				C113.6,114.8,112.7,104.3,106.9,95.8z"/>
			<path class="st14" d="M59.8,438.9c0,0.5-11,1.3-11,0.9c-0.1-4-1-22.3-0.9-27.4c0-0.7,0.5-1,0.9-0.9c0.1-0.3,0.4-0.5,0.7-0.6
				c2.8-0.7,9.3-3.4,10.1,1.3C60.3,416.3,60.1,434.9,59.8,438.9z"/>
			<path class="st1" d="M52.3,202.1c5.7,0,8.3-4.8,7.9-9.3c6.8-6,15.3-9,25.1-10c1-0.1,1.9-0.3,2.8-0.7c0.1,0.3,0.1,0.6,0.1,1
				c-0.2,38.1-0.9,76.3-5.3,114.1c-4.3,37.3-12.9,95.1-19.2,132c-0.6,3.3-2.6,3.3-6.1,2.7c-0.1,0-6.8-0.7-10.1-1.4
				c-1.9-0.4-3.3-2.4-3.3-4.3c-1.8-67.1-1.5-154.8-1.7-222C45.6,205.7,49.5,205.3,52.3,202.1z"/>
			<path class="st2" d="M84,452.7c-4.3,0-7.5-0.1-11.8-0.5c-4-0.4-6.8-2.2-11.4-2.8c-3.5-0.5-3.9,1.6-4.7,1.5
				c-3.3-0.2-6.6-0.4-9.9-0.7c-0.2,0-1.7-0.1-1.5-2.7c0.2-4.2,0.6-8.4,1.1-12.5c0.4-2.1,2.3-1.7,3.6-1.6c3.1,0.1,6.3,0.7,9.5,0.8
				c3.7,0.1,1.9-0.3,4.8,1.9c5,3.8,12.6,7.1,18.6,9c1.9,0.6,6.8,1.8,8.1,3.7C93.8,453.8,87.6,452.7,84,452.7z"/>
			<path class="st1" d="M64.3,441.7c-0.7,0.7,0.4,1.6,1.1,1c1.1-1.1,2.1-2.2,3-3.4c-0.4-0.2-0.9-0.5-1.3-0.8
				C66.2,439.6,65.3,440.7,64.3,441.7z M70.1,440.2c-0.8,1.1-1.7,2.2-2.7,3.2c-0.7,0.7,0.4,1.7,1.1,1c1.1-1.1,2-2.3,2.9-3.5
				C71,440.7,70.6,440.4,70.1,440.2z M61.2,439.1c-0.7,0.6,0.4,1.6,1.1,1c1-0.9,2-1.8,2.9-2.8c-0.4-0.3-0.8-0.6-1.2-0.9
				C63.1,437.3,62.2,438.2,61.2,439.1z"/>
			<path class="st14" d="M103.4,434.8c0,0.5-11,1.3-11,0.9c-0.1-4-1-22.3-0.9-27.4c0-0.7,0.5-1,0.9-0.9c0.1-0.3,0.4-0.5,0.7-0.6
				c2.8-0.7,9.3-3.4,10.1,1.3C103.9,412.2,103.7,430.8,103.4,434.8z"/>
			<path class="st2" d="M127.6,448.6c-4.3,0-7.5-0.1-11.8-0.5c-4-0.4-6.8-2.2-11.4-2.8c-3.5-0.5-3.9,1.6-4.7,1.5
				c-3.3-0.2-6.6-0.4-9.9-0.7c-0.2,0-1.7-0.1-1.5-2.7c0.2-4.2,0.6-8.4,1.1-12.5c0.4-2.1,2.3-1.7,3.6-1.6c3.1,0.1,6.3,0.7,9.5,0.8
				c3.7,0.1,1.9-0.3,4.8,1.9c5,3.8,12.6,7.1,18.6,9c1.9,0.6,6.8,1.8,8.1,3.7C137.3,449.7,131.1,448.6,127.6,448.6z"/>
			<path class="st1" d="M107.8,437.5c-0.7,0.7,0.4,1.6,1.1,1c1.1-1.1,2.1-2.2,3-3.4c-0.4-0.2-0.9-0.5-1.3-0.8
				C109.8,435.5,108.9,436.5,107.8,437.5z M113.7,436.1c-0.8,1.1-1.7,2.2-2.7,3.2c-0.7,0.7,0.4,1.7,1.1,1c1.1-1.1,2-2.3,2.9-3.5
				C114.6,436.5,114.1,436.3,113.7,436.1z M104.8,435c-0.7,0.6,0.4,1.6,1.1,1c1-0.9,2-1.8,2.9-2.8c-0.4-0.3-0.8-0.6-1.2-0.9
				C106.7,433.2,105.7,434.1,104.8,435z"/>
			<path class="st1" d="M73.9,194c-0.2-1.6-0.3-3.2-0.5-4.8c-0.3-3.2,2.3-4.8,4.7-4.6c0-0.2,0-0.5,0-0.7c-0.1-3.6,4.2-5.7,6.9-4.4
				c1.3-2,3.6-3,6.2-3.6c0.8-1.1,1.8-1.9,3-2.5c0.1,0.2,0.1,0.3,0.2,0.5c4,7.7,11.2,14,13.9,22.3c1.6,4.8,5.7,6.5,9.5,6.1
				c1.4,30.4,2,60.9,0.3,91.3c-2.1,37.5-6.7,93.8-10.9,131.1c-0.4,3.4-2.7,3.1-5.9,3c-0.1,0-6.9-0.3-10.1-0.8
				c-1.9-0.3-3.4-2.2-3.6-4.1c-5.9-68.6-11.5-156.2-15.7-224.9C71.8,196,72.7,194.7,73.9,194z"/>
			<path class="st15" d="M41.4,157.6c-11.2-28.3-23-48.2-14.3-65.2c4.9-9.6,20.5-21.4,31-23.1c9.3-1.5,6.5-5.3,16.9-2.4
				c1.1-0.5,2.4-0.6,3.7,0c11.7,5.4,23.9,12,33.4,20.7c9,8.2,7.7,22.4,6.5,33.4c-1.7,14.8-5.7,29.1-5.2,44.1
				c0.5,16.1,5.9,37.1,7.6,53.1c0.2,1.9,1.1,8.3-6.2,7.9c-8.9-0.5-21.4-30.8-23-34.4c-1.8,7.1-9.7,20.6-14,26.2
				c-6.8,8.7-26.3,22.7-35.4,8.4c-4.4-6.9-3-20.5-2.2-27.9C41.7,185.2,46.5,170.7,41.4,157.6z"/>
			<path class="st16" d="M58.8,69.2c0.8,1.5,1.6,3,2.4,4.5l8.9,16c0.5,0.8,0.1,1.6-0.5,1.9c0.8,1.7,1.5,3.3,2.3,4.8
				c3.5,6.7,6.6,13.6,9.5,20.6c0.4,1.1-0.2,1.9-1,2.1c0.2,0.4,0.5,0.8,0.8,1.2c1.3,2,2.5,4.1,3.6,6.3c0.4,0.6,0.8,1.3,1.1,2
				c0.1,0.2,0.2,0.4,0.3,0.5c0.4,0.8,1.6,3.8,2.7,5.5c0.3-0.5,0.6-1.1,0.9-1.6c-0.6-0.2-1-0.7-0.9-1.3c0.1-0.4,0.1-0.9,0.2-1.3
				c2.3-16.1,0.7-32.3-1-48.4c-0.1-0.6,0.3-1,0.7-1.3c-0.3-1.4-0.5-2.8-0.7-4.1c-0.2-0.7-0.3-1.4-0.5-2.1c-0.2-0.5,0-1,0.3-1.3
				c0-0.6,0-1.1,0-1.7c4.9,2.6,9.8,5.4,14.4,8.5c1.8,3.5,3.5,7.1,4.7,10.7c2,5.9-0.2,11.2-1.7,17c-1.8,6.5-3.3,13.2-5.9,19.4
				c-1.8,4.4-4.7,11.9-8.8,14.7c-0.4,0.2-0.8,0.2-1.2,0.1c-0.5,0.7-1.5,1-2.1,0.2c-5.5-7.2-10.9-14.6-16.8-21.5
				c-5.4-6.4-11.5-12.1-16.8-18.6c-4-4.9-7.8-10.3-9.8-16.3c-1.1-3.3-1-6.5-0.2-9.6c5-3.3,10.3-5.8,14.7-6.5
				C58.4,69.3,58.6,69.3,58.8,69.2z"/>
			<path class="st1" d="M58.1,69.3c9.3-1.5,6.5-5.3,16.9-2.4c1.1-0.5,2.4-0.6,3.7,0c3.6,1.7,7.3,3.5,11,5.4
				c1.8,22.7,3.8,46.9,0.1,69.2c-0.3,1.5-2.5,1.3-2.9,0c-6.8-25.1-18.2-48.6-29.1-72.2C58,69.4,58.1,69.3,58.1,69.3z"/>
			<path class="st14" d="M65.9,40.4c5-1.5,9.9-2.8,14.9-4.1c0.4-0.1,0.9-0.1,1.3-0.1c2.6-0.2,5.6,1.8,5,5.3
				c-2.2,12.8-1.1,20.5-1.9,33.5c-0.4,5.8-22.3,4.9-22.3,2.6c-0.3-8.9-0.4-23.5-0.1-32.5C62.8,43,63.9,40.9,65.9,40.4z"/>
			<path class="st17" d="M77.6,67c-2.1-1.6-5-2.1-7-3.9c-2.3-2.1-3.1-7.5,1.3-7.2c0.5,0,0.9,0.3,1.1,0.7c1.9,0.2,4.5,1.7,6.1,2.8
				c0.3-0.2,0.6-0.4,0.9-0.4c1.8,0,3.8,0.8,5.6,2.1c-0.1,3.4-0.1,6.8-0.2,10.2c-0.8,0.1-1.6,0-2.4-0.3C80.8,70.3,79.4,68.4,77.6,67z
				"/>
			<path class="st14" d="M63.1,8.3c3-4.1,8.9-5.1,13.6-5.7c5.5-0.7,11.2-3.5,14.6,0.7c4.1,3.5,6.2,5.6,6.9,11.1
				c1.4,10.2,2.6,27-1.3,36.4c-3,7.4-7.8,10.2-11.5,10.3c-6.3,0.1-11.1-4.4-14.5-8.4c-2.9-3.5-6.4-8.9-7.3-11.2
				C58.3,28.3,54.1,20.4,63.1,8.3z"/>
			<path class="st1" d="M95.9,30.6c0,1,0.6,1.8,1.2,1.7s1.1-0.8,1.1-1.8c0-1-0.6-1.8-1.2-1.7C96.3,28.8,95.8,29.6,95.9,30.6z"/>
			<path class="st1" d="M80.4,32.8c0,1,0.6,1.8,1.2,1.7c0.6,0,1.1-0.8,1.1-1.8c0-1-0.6-1.8-1.2-1.7C80.8,31,80.3,31.9,80.4,32.8z"/>
			<path class="st17" d="M91.7,41.9c1.4-1.1,1.1-3.3,0.6-4.8c-0.3-0.9,1-1.5,1.4-0.6c0.7,2.1,0.9,5-1.1,6.5
				C91.9,43.7,91,42.5,91.7,41.9z"/>
			<path class="st1" d="M77.4,27.3c0.1,0,0.4-0.1,0.4-0.1c2.6-0.5,5.5-1.3,8-0.1c0.6,0.3,0.6,1.3-0.2,1.4c-2,0.2-4,0.5-5.9,0.7
				c-1,0.1-2.4,0.7-3.2-0.2C76.3,28.9,76.1,27.6,77.4,27.3z"/>
			<path class="st1" d="M99.3,24.3c0.1,0.8,0.1,1.6,0.1,2.4c-1.8,0.3-3.7,0.5-5.5,0.8c-0.8,0.1-1.1-0.9-0.5-1.3
				C95,24.8,97.1,24.5,99.3,24.3z"/>
			<path class="st1" d="M62.1,3.9C68.8-0.7,80-0.7,87.7,1.2c5,1.2,8.8,6.1,9.4,8.4c0.2,1.2-0.5,2.7-2.1,2.7
				c-5.2,0.1-10.9,0.1-15.5,2.6c-5.8,3.2-5.5,8.2-7.6,13.4c-0.1,0.4-0.4,0.6-0.6,1c-1.8,4.4-2.4,4.4-3.2,8.4c-0.4,2-0.7,4.2-2.2,5.8
				c-0.5,0.5-1.5,0.8-2.2,0.5c-2.9-1.1-3.3-3.9-4.2-6.6c-1.6-5-3.4-10-4-15.2C54.5,15.2,55.8,8.1,62.1,3.9z"/>
			<path class="st14" d="M65.1,32c0.9-1.6,2.7-2.7,4.9-2.6c2.4,0.1,3.6,1.6,4.7,3.1c1.8,2.5-2,4.3-4.4,2.9c-0.1,0.4-0.2,0.8-0.1,1.1
				c0.2,1.6,0.9,3,1.9,4.3c2.1,2.7-3.2,4.9-5.3,2.2C64.5,40,63.2,35.4,65.1,32z"/>
			<path class="st1" d="M71,52.9c-5.8-8.5-4.3-21.6-2.6-30.9c0.2-1.3,1.7-1.3,2.4-0.5c0.8-1.1,2.9-0.9,2.7,0.7
				c-1,7.9-1.3,17.5,3.1,24.5c3.1,4.8,8.1,8.3,13.9,6.6c3.4-1,5.4-2.2,7.7-6.4c-0.3,1.5-0.8,2.9-1.3,4.2c-3,7.4-7.8,10.2-11.5,10.3
				c-0.4,0-0.7,0-1.1,0c-2.5-0.3-5.1-1.2-7.5-2.8C74.6,56.8,72.6,54.8,71,52.9z"/>
			<path class="st6" d="M84.7,44.7c3.6,0.3,6,0,8.6-0.4c0.6-0.1,0.6,0.8,0.1,1.2c-2.5,2.1-5.9,2-9,0.3C84,45.5,84.1,44.6,84.7,44.7z
				"/>
			<path class="st16" d="M51.1,185.5c0.8,1.1,2.5,1.2,3.7,1.4c2.4,0.5,4.8,1,7.2,1.4c2.8,0.6,8.4,2.6,11.2,0.9
				c2.4-1.5,0.7-6.5,0.5-8.8c0-0.1-0.1-0.2-0.1-0.3c0-0.3-0.1-0.6-0.5-0.7c-7.1-1-14.1-1.8-21.3-2.3c-0.3,0-0.7,0.2-0.7,0.5
				C50.6,179.8,49.7,183.6,51.1,185.5z M53.2,178.7c1.1-0.6,5.1,0.4,6.3,0.5c4.3,0.4,8.5,0.9,12.7,1.5c0.2,1.6,1.1,4.9,0.6,6
				c-0.5,1.2-2.6,1.2-3.6,1.3c-1.3,0.1-2.7-0.4-3.9-0.6c-2.2-0.4-4.3-0.9-6.5-1.3c-1.9-0.4-4.5-0.4-5.9-1.8
				C51.9,183.5,51.3,179.7,53.2,178.7z"/>
			<path class="st16" d="M105,180.7c0-0.1,0-0.2,0.1-0.3c-0.1-0.3,0.1-0.6,0.4-0.7c3.2-0.8,6.3-1.6,9.5-2.3c0.1,0.5,0.2,1,0.4,1.4
				c-3,0.7-6,1.4-9,2.2c-0.1,1.6-0.5,5,0.1,6.1c0.6,1.1,2.7,0.9,3.7,0.9c1.3-0.1,2.6-0.7,3.8-1.1c0.8-0.3,1.7-0.5,2.5-0.8
				c0,0.5,0.1,1,0.2,1.5c-2.8,1-7.7,3.2-10.4,1.9C103.9,188.2,105,183,105,180.7z"/>
			<path class="st1" d="M60.9,70.2c0.3-4.2,0.6-5.6,4.7-5.5c5.6,0.1,12.7-0.7,18.1,1c5.9,1.8,1.3,5.6,4.3,9.6c1.1,1.4-0.8,3.2-2,2.2
				c0,0.7,0,1.3-0.1,2c-0.1,1.7-2.7,1.8-3,0.2c-0.1-0.6-0.2-1.1-0.3-1.7c-0.2,0.1-0.4,0.1-0.7,0.1c-0.1,1-1.3,1.6-2.1,1.3
				c-0.1,0.8-1.1,1.3-1.9,1.2c-0.3,1.2-2.5,1.4-3-0.1c0-0.1-0.1-0.3-0.1-0.4c-1.8,0.5-3.7,1.1-5.5,1c-0.3,0-0.6,0-0.8-0.1
				c-0.3,0.1-0.7,0.1-1.1-0.1c-0.4,0.6-1.2,0.8-1.9,0.3C61.9,78.5,60.6,74.6,60.9,70.2z"/>
			<path class="st14" d="M49.9,200.6c-1.7-3.8-3.8-7.4-6.2-10.8c-0.3-0.5,0-1,0.4-1.1c-0.2-0.7-0.3-1.3-0.3-2c0.1-1.5,0.3-5,1.6-6.2
				c-0.2-0.4,0.1-1.1,0.8-1.1c4.5,0.2,14.7,2.7,14.7,8.6c0,0.5-0.6,1.2-1,0.8c-1.8-2-4.4-3-6.9-3.9c2.8,3.7,6.3,6.9,8.9,10.8
				c2.5,3.7,4.8,7.7,5.3,12.2c0.1,0.6-0.8,1.2-1.2,0.7c-1.8-2-3.5-5.5-5.1-7.9c-1.4-2-2.9-3.9-4.6-5.7c2.8,5,6.1,10.4,7.3,16
				c0.1,0.6-0.9,1.2-1.2,0.7c-3-5.2-7.1-11.3-7.3-11.5c1.2,2.9,4,9.6,4,12.8c0,0.8-1.1,1.2-1.4,0.4c-0.8-2-1.6-3.9-2.5-5.9
				c0,0.4,0.1,0.9,0.1,1.3c0,0.7-0.9,1.2-1.3,0.5C52,206.6,51.2,203.5,49.9,200.6z"/>
			<path class="st15" d="M0.1,155c-0.8-9.2,6.4-19.4,10.1-27.3c5.2-11.1,10.3-22.1,15.5-33.2c2.4-5.1,10.7-2.2,8.3,3
				c-0.6,1.3-1.2,2.5-1.7,3.8c1.8-1.7,3.8-2.8,6.3-3.2c3.2-0.4,6.3,2.6,5,5.9c-0.1,0.3-0.3,0.6-0.4,0.9c1,0.8,1.7,1.9,1.7,3.2
				c0.5,0.9,0.7,2.1,0.1,3.5c-6.2,14.3-12.4,28.7-18.6,43c6.2,5.1,12.3,10.3,18.3,15.7c2.8,2.5,7.7,5.7,8.6,9.7
				c1,4.4-2.3,9.6-3.9,13.5c-1.3,3.4-5.2,3.7-7.6,1.4c-8.4-7.8-17.1-15.1-26.3-21.9C9.2,168.3,0.8,163.8,0.1,155z"/>
			<path class="st16" d="M88.6,153.9c1.9,0,1.9,3,0,3C86.7,156.8,86.7,153.9,88.6,153.9z"/>
			<path class="st16" d="M89.3,170.9c1.9,0,1.9,3,0,3C87.4,173.9,87.4,170.9,89.3,170.9z"/>
			<path class="st16" d="M39,187.1c1.9,0,1.9,3,0,3C37.1,190,37.1,187.1,39,187.1z"/>
			<path class="st16" d="M33.9,183.2c1.9,0,1.9,3,0,3C31.9,186.1,32,183.2,33.9,183.2z"/>
			<path class="st16" d="M118,118.6c0-1,1.5-0.9,1.5,0c0.2,16.5-6.3,32.2-5,48.8c1.3,16.1,7.1,31.6,6.6,48c0,1-1.5,0.9-1.5,0
				c0.4-16.3-5.4-31.8-6.6-48C111.7,150.8,118.2,135.1,118,118.6z"/>
			<path class="st16" d="M15.4,149.9c3.1,0.2,6.1,0.5,9.1,0.8c0.9,0.1,0.9,1.6,0,1.5c-3-0.4-6.1-0.6-9.1-0.8
				C14.5,151.4,14.5,149.9,15.4,149.9z"/>
			<path class="st16" d="M16.9,158.8c1.9-1.6,3.9-3,6.1-4.2c0.8-0.5,1.6,0.8,0.7,1.3c-2,1.1-4,2.5-5.8,4
				C17.2,160.5,16.2,159.4,16.9,158.8z"/>
			<path class="st16" d="M37.2,129.3c3.2-4.6,5.8-9.4,7.9-14.6c0.4-0.9,1.8-0.5,1.4,0.4c-2.1,5.3-4.8,10.2-8,14.9
				C37.9,130.8,36.6,130.1,37.2,129.3z"/>
		</g>
	</g>
</switch>

</svg>
