<?xml version="1.0" encoding="utf-8"?>
<!-- Generator: Adobe Illustrator 27.1.0, SVG Export Plug-In . SVG Version: 6.00 Build 0)  -->










<svg version="1.1" id="Layer_1" xmlns="http://www.w3.org/2000/svg" xmlns:xlink="http://www.w3.org/1999/xlink" x="0px" y="0px" viewBox="0 0 1367.3 1001.4" style="enable-background:new 0 0 1367.3 1001.4;" xml:space="preserve">
<style type="text/css">
	.st0{fill:#F8D070;}
	.st1{fill:none;}
	.st2{fill:#FFFFFF;}
	.st3{font-family:'Roboto-Regular';}
	.st4{font-size:90px;}
	.st5{font-size:36px;}
	.st6{fill:none;stroke:#FFFFFF;stroke-width:6;stroke-miterlimit:10;}
	.st7{fill:#F59390;}
	.st8{fill:#61C3A9;}
	.st9{fill:#81C7E1;}
	.st10{fill:none;stroke:#FFFFFF;stroke-width:6;stroke-linecap:round;stroke-linejoin:round;stroke-miterlimit:10;}
</style>
<switch>
	
	<g>
		<circle class="st0" cx="1117.3" cy="501.6" r="250"/>
		<rect x="867.3" y="448.2" class="st1" width="500" height="106.8"/>
		<text transform="matrix(1 0 0 1 945.8462 535.3762)" class="st2 st3 st4"/>
		<rect x="896" y="560.5" class="st1" width="442.5" height="106.8"/>
		<text transform="matrix(1 0 0 1 975.5568 605.8362)"/>
		<g>
			<line class="st6" x1="1059.4" y1="410.1" x2="1059.4" y2="376.6"/>
			<path class="st6" d="M1053.3,416.2c3.4,0,6.1-2.7,6.1-6.1"/>
			<path class="st6" d="M1047.3,410.1c0,3.4,2.7,6.1,6.1,6.1"/>
			<line class="st6" x1="1047.3" y1="376.6" x2="1047.3" y2="410.1"/>
			<path class="st6" d="M1074.6,349.2c-15.1,0-27.4,12.3-27.4,27.4"/>
			<path class="st6" d="M1102,376.6c0-15.1-12.3-27.4-27.4-27.4"/>
			<line class="st6" x1="1102" y1="410.1" x2="1102" y2="376.6"/>
			<path class="st6" d="M1096,416.2c3.4,0,6.1-2.7,6.1-6.1"/>
			<path class="st6" d="M1089.9,410.1c0,3.4,2.7,6.1,6.1,6.1"/>
			<line class="st6" x1="1089.9" y1="376.6" x2="1089.9" y2="410.1"/>
			<path class="st6" d="M1117.3,349.2c-15.1,0-27.4,12.3-27.4,27.4"/>
			<path class="st6" d="M1144.6,376.6c0-15.1-12.3-27.4-27.4-27.4"/>
			<line class="st6" x1="1144.6" y1="410.1" x2="1144.6" y2="376.6"/>
			<path class="st6" d="M1138.6,416.2c3.4,0,6.1-2.7,6.1-6.1"/>
			<path class="st6" d="M1132.5,410.1c0,3.4,2.7,6.1,6.1,6.1"/>
			<line class="st6" x1="1132.5" y1="376.6" x2="1132.5" y2="410.1"/>
			<path class="st6" d="M1159.9,349.2c-15.1,0-27.4,12.3-27.4,27.4"/>
			<path class="st6" d="M1187.3,376.6c0-15.1-12.3-27.4-27.4-27.4"/>
			<line class="st6" x1="1187.3" y1="410.1" x2="1187.3" y2="376.6"/>
			<path class="st6" d="M1181.2,416.2c3.4,0,6.1-2.7,6.1-6.1"/>
			<path class="st6" d="M1175.1,410.1c0,3.4,2.7,6.1,6.1,6.1"/>
			<line class="st6" x1="1175.1" y1="376.6" x2="1175.1" y2="410.1"/>
			<rect x="1059.4" y="306.6" class="st6" width="30.4" height="30.4"/>
			<polygon class="st6" points="1159.9,309.7 1144.6,337.1 1175.1,337.1 			"/>
			<circle class="st6" cx="1117.3" cy="321.8" r="15.2"/>
			<line class="st6" x1="1059.4" y1="425.3" x2="1059.4" y2="446.6"/>
			<line class="st6" x1="1089.9" y1="425.3" x2="1089.9" y2="446.6"/>
			<line class="st6" x1="1102" y1="425.3" x2="1102" y2="446.6"/>
			<line class="st6" x1="1132.5" y1="425.3" x2="1132.5" y2="446.6"/>
			<line class="st6" x1="1144.6" y1="425.3" x2="1144.6" y2="446.6"/>
			<line class="st6" x1="1175.1" y1="425.3" x2="1175.1" y2="446.6"/>
		</g>
		<circle class="st7" cx="250" cy="501" r="250"/>
		<rect y="447.6" class="st1" width="500" height="106.8"/>
		<text transform="matrix(1 0 0 1 127.1283 534.7784)" class="st2 st3 st4"/>
		<rect x="75.7" y="566.9" class="st1" width="348.7" height="133.1"/>
		<text transform="matrix(1 0 0 1 107.2832 603.7802)"/>
		<g>
			<path class="st6" d="M305.4,399.4h-29.2c-6.4,0-11.7-5.2-11.7-11.7l0,0h52.5l0,0C317.1,394.1,311.9,399.4,305.4,399.4z"/>
			<path class="st6" d="M223.8,411h-29.2c-6.4,0-11.7-5.2-11.7-11.7l0,0h52.5l0,0C235.4,405.8,230.2,411,223.8,411z"/>
			<path class="st6" d="M264.6,443.1v-5.8c0-3.2-2.6-5.8-5.8-5.8h-17.5c-3.2,0-5.8,2.6-5.8,5.8v5.8"/>
			<line class="st6" x1="250" y1="431.4" x2="250" y2="408.1"/>
			<line class="st6" x1="180" y1="443.1" x2="320" y2="443.1"/>
			<polyline class="st6" points="209.2,411 209.2,425.6 290.8,411 290.8,399.4 			"/>
			<circle class="st6" cx="290.8" cy="317.7" r="8.8"/>
			<path class="st6" d="M317.1,361.4l-6.6-17.7c-1.3-3.4-4.5-5.7-8.2-5.7h-22.9c-3.6,0-6.9,2.3-8.2,5.7l-6.6,17.7"/>
			<line class="st6" x1="290.8" y1="370.2" x2="290.8" y2="387.7"/>
			<line class="st6" x1="302.5" y1="349.8" x2="302.5" y2="387.7"/>
			<line class="st6" x1="279.2" y1="349.8" x2="279.2" y2="387.7"/>
			<circle class="st6" cx="209.2" cy="317.7" r="8.8"/>
			<path class="st6" d="M235.4,367.3l-6.9-22.9c-1.1-3.7-4.5-6.2-8.4-6.2h-22c-3.9,0-7.3,2.5-8.4,6.2l-6.9,22.9"/>
			<line class="st6" x1="209.2" y1="370.2" x2="209.2" y2="399.4"/>
			<line class="st6" x1="220.8" y1="352.7" x2="220.8" y2="399.4"/>
			<line class="st6" x1="197.5" y1="352.7" x2="197.5" y2="399.4"/>
		</g>
		<circle class="st8" cx="684.1" cy="250" r="250"/>
		<rect x="434.1" y="196.6" class="st1" width="500" height="106.8"/>
		<text transform="matrix(1 0 0 1 503.1609 283.7501)" class="st2 st3 st4"/>
		<rect x="512.7" y="299.4" class="st1" width="347.4" height="145.2"/>
		<text transform="matrix(1 0 0 1 528.4874 342.3283)"/>
		<g>
			<path class="st6" d="M687.7,163.5l23.4,5.9c0.6,0.2,1.2,0.2,1.9,0.2c4.2,0,7.6-3.4,7.6-7.6c0-3.6-2.5-6.6-5.7-7.4l-3.8-1
				c-5-1.3-9.6-3.5-13.7-6.8c-3.6-2.9-8.2-4.7-13.3-4.7c-4,0-7.7,1.1-10.9,3h-13.3"/>
			<path class="st6" d="M653.7,178.8h21.4l29.4,8.8c0.7,0.2,1.4,0.3,2.1,0.3c1.1,0,2.1-0.2,3-0.7l42.4-18.5c0.9-0.4,1.6-1.1,1.9-2
				c0.3-0.9,0.3-1.9-0.1-2.8c0,0,0-0.1,0-0.1c-2.5-5.5-8.9-7.9-14.4-5.5l-19.7,8.3"/>
			<path class="st6" d="M729.8,114.4l5.9-23.4c0.2-0.6,0.2-1.2,0.2-1.9c0-4.2-3.4-7.6-7.6-7.6c-3.6,0-6.6,2.5-7.4,5.7l-1,3.8
				c-1.3,5-3.5,9.6-6.8,13.7c-2.9,3.6-4.7,8.2-4.7,13.3c0,4,1.1,7.7,3,10.9v13.3"/>
			<path class="st6" d="M745,148.3V127l8.8-29.4c0.2-0.7,0.3-1.4,0.3-2.1c0-1.1-0.2-2.1-0.7-3L735,50.1c-0.4-0.9-1.1-1.6-2-1.9
				c-0.9-0.3-1.9-0.3-2.8,0.1c0,0-0.1,0-0.1,0c-5.5,2.5-7.9,8.9-5.5,14.4l8.3,19.7"/>
			<path class="st6" d="M680.6,72.3l-23.4-5.9c-0.6-0.2-1.2-0.2-1.9-0.2c-4.2,0-7.6,3.4-7.6,7.6c0,3.6,2.5,6.6,5.7,7.4l3.8,1
				c5,1.3,9.6,3.5,13.7,6.8c3.6,2.9,8.2,4.7,13.3,4.7c4,0,7.7-1.1,10.9-3h13.3"/>
			<path class="st6" d="M714.5,57.1h-21.3l-29.4-8.8c-0.7-0.2-1.4-0.3-2.1-0.3c-1.1,0-2.1,0.2-3,0.7l-42.5,18.5
				c-0.9,0.4-1.5,1.1-1.9,1.9c-0.3,0.9-0.3,1.8,0.1,2.7c0,0.1,0.1,0.1,0.1,0.2c2.5,5.5,8.9,7.9,14.4,5.5l19.7-8.3"/>
			<path class="st6" d="M638.5,121.4l-5.9,23.4c-0.2,0.6-0.2,1.2-0.2,1.9c0,4.2,3.4,7.6,7.6,7.6c3.6,0,6.6-2.5,7.4-5.7l1-3.8
				c1.3-5,3.5-9.6,6.8-13.7c2.9-3.6,4.7-8.2,4.7-13.3c0-4-1.1-7.7-3-10.9V93.6"/>
			<path class="st6" d="M623.3,87.5v21.3l-8.8,29.4c-0.2,0.7-0.3,1.4-0.3,2.1c0,1.1,0.2,2.1,0.7,3l18.5,42.5
				c0.4,0.9,1.1,1.5,1.9,1.9c0.9,0.3,1.8,0.3,2.7-0.1c0.1,0,0.1-0.1,0.2-0.1c5.5-2.5,7.9-8.9,5.5-14.4l-8.3-19.7"/>
		</g>
		<circle class="st9" cx="684.1" cy="751.4" r="250"/>
		<rect x="434.1" y="698" class="st1" width="500" height="106.8"/>
		<text transform="matrix(1 0 0 1 484.6159 785.1525)" class="st2 st3 st4"/>
		<rect x="499" y="810.3" class="st1" width="370.3" height="106.8"/>
		<text transform="matrix(1 0 0 1 605.3684 855.6123)"/>
		<g>
			<path class="st6" d="M668.2,584.3l-24.4-3c-0.3,0-0.6-0.1-0.9-0.1c-4.2,0-7.6,3.4-7.6,7.6c0,3.9,2.9,7,6.7,7.5l24.4,3
				c0.3,0,0.6,0.1,0.9,0.1c4.2,0,7.6-3.4,7.6-7.6C674.8,588,671.9,584.8,668.2,584.3z"/>
			<path class="st6" d="M665.1,599.5l-24.4-3c-0.3,0-0.6-0.1-0.9-0.1c-4.2,0-7.6,3.4-7.6,7.6c0,3.9,2.9,7,6.7,7.5l24.4,3
				c0.3,0,0.6,0.1,0.9,0.1c4.2,0,7.6-3.4,7.6-7.6C671.8,603.2,668.9,600,665.1,599.5z"/>
			<path class="st6" d="M663.5,614.8L663.5,614.8l-22.6-3.1l0,0c-0.3,0-0.7-0.1-1-0.1c-4.2,0-7.6,3.4-7.6,7.6c0,4.2,3.4,7.6,7.6,7.6
				h22.8c3.4,0,6.1-2.7,6.1-6.1C668.7,617.7,666.4,615.2,663.5,614.8z"/>
			<path class="st6" d="M670.3,572.3l-22.5-6c-0.6-0.2-1.3-0.3-2-0.3c-4.2,0-7.6,3.4-7.6,7.6c0,3.9,2.9,7,6.6,7.5l23,3.1
				c0.3,0,0.5,0.1,0.8,0.1c3.4,0,6.1-2.7,6.1-6.1C674.8,575.3,672.9,573,670.3,572.3z"/>
			<path class="st6" d="M671,572.5c-6.9-1.9-11.4-5.9-11.4-12.7v-3h22.8c2.1,0,4,0.9,5.4,2.2l4.6,4.6"/>
			<path class="st10" d="M617.1,654.4l9.1-9.2c3.9-4,6.6-9.2,7.6-14.7v0c0.3-1.8,0.8-3.5,1.4-5.2"/>
			<path class="st10" d="M653.5,693.9l14-14c5.3-5.3,11.5-9.4,18.4-12.3c34.1-14,53.6-40.3,53.6-50.7c0-1.8-0.6-3.4-1.6-4.7
				c-2.4-3.1-3.1-7.3-1.9-11c0.3-0.9,0.4-1.8,0.4-2.9c0-3.5-1.8-6.2-4.3-7.7c-3-1.9-4.8-5.2-4.8-8.7c0-4.7-3.5-8.5-8-9.1
				c-0.1,0-0.2,0-0.4,0c-3.4-0.4-5.9-3.4-5.8-6.8c0,0,0,0,0,0c0.1-4.5-4.1-9.1-9.1-9.1c-2.4,0-4.5,0.9-6.2,2.4l-23,18.9"/>
			<line class="st10" x1="757.1" y1="642.1" x2="738" y2="623.1"/>
			<line class="st10" x1="732.7" y1="693.9" x2="702.6" y2="659.1"/>
		</g>
	</g>
</switch>

</svg>
