<?xml version="1.0" encoding="utf-8"?>
<!-- Generator: Adobe Illustrator 27.1.0, SVG Export Plug-In . SVG Version: 6.00 Build 0)  -->










<svg version="1.1" xmlns="http://www.w3.org/2000/svg" xmlns:xlink="http://www.w3.org/1999/xlink" x="0px" y="0px" viewBox="0 0 500 500" style="enable-background:new 0 0 500 500;" xml:space="preserve">
<style type="text/css">
	.st0{fill:#61C3A9;}
	.st1{fill:none;}
	.st2{fill:#FFFFFF;}
	.st3{font-family:'Roboto-Regular';}
	.st4{font-size:90px;}
	.st5{font-size:36px;}
	.st6{fill:none;stroke:#FFFFFF;stroke-width:6;stroke-miterlimit:10;}
</style>
<switch>
	
	<g>
		<g id="Layer_1">
			<circle class="st0" cx="250" cy="250" r="250"/>
		</g>
		<g id="Layer_2">
			<rect y="196.6" class="st1" width="500" height="106.8"/>
			<text transform="matrix(1 0 0 1 69.0336 283.7501)" class="st2 st3 st4"/>
			<rect x="64.9" y="294.9" class="st1" width="370.3" height="106.8"/>
			<text transform="matrix(1 0 0 1 107.2041 340.2098)"/>
			<g>
				<path class="st6" d="M253.6,163.5l23.4,5.9c0.6,0.2,1.2,0.2,1.9,0.2c4.2,0,7.6-3.4,7.6-7.6c0-3.6-2.5-6.6-5.7-7.4l-3.8-1
					c-5-1.3-9.6-3.5-13.7-6.8c-3.6-2.9-8.2-4.7-13.3-4.7c-4,0-7.7,1.1-10.9,3h-13.3"/>
				<path class="st6" d="M219.6,178.8H241l29.4,8.8c0.7,0.2,1.4,0.3,2.1,0.3c1.1,0,2.1-0.2,3-0.7l42.4-18.5c0.9-0.4,1.6-1.1,1.9-2
					c0.3-0.9,0.3-1.9-0.1-2.8c0,0,0-0.1,0-0.1c-2.5-5.5-8.9-7.9-14.4-5.5l-19.7,8.3"/>
				<path class="st6" d="M295.6,114.4l5.9-23.4c0.2-0.6,0.2-1.2,0.2-1.9c0-4.2-3.4-7.6-7.6-7.6c-3.6,0-6.6,2.5-7.4,5.7l-1,3.8
					c-1.3,5-3.5,9.6-6.8,13.7c-2.9,3.6-4.7,8.2-4.7,13.3c0,4,1.1,7.7,3,10.9v13.3"/>
				<path class="st6" d="M310.8,148.3V127l8.8-29.4c0.2-0.7,0.3-1.4,0.3-2.1c0-1.1-0.2-2.1-0.7-3l-18.5-42.4c-0.4-0.9-1.1-1.6-2-1.9
					c-0.9-0.3-1.9-0.3-2.8,0.1c0,0-0.1,0-0.1,0c-5.5,2.5-7.9,8.9-5.5,14.4l8.3,19.7"/>
				<path class="st6" d="M246.5,72.3L223,66.4c-0.6-0.2-1.2-0.2-1.9-0.2c-4.2,0-7.6,3.4-7.6,7.6c0,3.6,2.5,6.6,5.7,7.4l3.8,1
					c5,1.3,9.6,3.5,13.7,6.8c3.6,2.9,8.2,4.7,13.3,4.7c4,0,7.7-1.1,10.9-3h13.3"/>
				<path class="st6" d="M280.4,57.1h-21.3l-29.4-8.8c-0.7-0.2-1.4-0.3-2.1-0.3c-1.1,0-2.1,0.2-3,0.7l-42.5,18.5
					c-0.9,0.4-1.5,1.1-1.9,1.9c-0.3,0.9-0.3,1.8,0.1,2.7c0,0.1,0.1,0.1,0.1,0.2c2.5,5.5,8.9,7.9,14.4,5.5l19.7-8.3"/>
				<path class="st6" d="M204.4,121.4l-5.9,23.4c-0.2,0.6-0.2,1.2-0.2,1.9c0,4.2,3.4,7.6,7.6,7.6c3.6,0,6.6-2.5,7.4-5.7l1-3.8
					c1.3-5,3.5-9.6,6.8-13.7c2.9-3.6,4.7-8.2,4.7-13.3c0-4-1.1-7.7-3-10.9V93.6"/>
				<path class="st6" d="M189.2,87.5v21.3l-8.8,29.4c-0.2,0.7-0.3,1.4-0.3,2.1c0,1.1,0.2,2.1,0.7,3l18.5,42.5
					c0.4,0.9,1.1,1.5,1.9,1.9c0.9,0.3,1.8,0.3,2.7-0.1c0.1,0,0.1-0.1,0.2-0.1c5.5-2.5,7.9-8.9,5.5-14.4l-8.3-19.7"/>
			</g>
		</g>
	</g>
</switch>

</svg>
