<?xml version="1.0" encoding="utf-8"?>
<!-- Generator: Adobe Illustrator 27.1.0, SVG Export Plug-In . SVG Version: 6.00 Build 0)  -->










<svg version="1.1" xmlns="http://www.w3.org/2000/svg" xmlns:xlink="http://www.w3.org/1999/xlink" x="0px" y="0px" viewBox="0 0 500 500" style="enable-background:new 0 0 500 500;" xml:space="preserve">
<style type="text/css">
	.st0{fill:#F59390;}
	.st1{fill:none;}
	.st2{fill:#FFFFFF;}
	.st3{font-family:'Roboto-Regular';}
	.st4{font-size:90px;}
	.st5{font-size:36px;}
	.st6{fill:none;stroke:#FFFFFF;stroke-width:6;stroke-miterlimit:10;}
</style>
<switch>
	
	<g>
		<g id="Layer_1">
			<circle class="st0" cx="250" cy="250" r="250"/>
		</g>
		<g id="Layer_2">
			<rect y="196.6" class="st1" width="500" height="106.8"/>
			<text transform="matrix(1 0 0 1 127.1293 283.7501)" class="st2 st3 st4"/>
			<rect x="80.4" y="313.9" class="st1" width="339.2" height="106.8"/>
			<text transform="matrix(1 0 0 1 111.6072 359.2098)"/>
			<g>
				<path class="st6" d="M305.4,148.3h-29.2c-6.4,0-11.7-5.2-11.7-11.7l0,0h52.5l0,0C317.1,143.1,311.9,148.3,305.4,148.3z"/>
				<path class="st6" d="M223.8,160h-29.2c-6.4,0-11.7-5.2-11.7-11.7v0h52.5v0C235.4,154.8,230.2,160,223.8,160z"/>
				<path class="st6" d="M264.6,192.1v-5.8c0-3.2-2.6-5.8-5.8-5.8h-17.5c-3.2,0-5.8,2.6-5.8,5.8v5.8"/>
				<line class="st6" x1="250" y1="180.4" x2="250" y2="157.1"/>
				<line class="st6" x1="180" y1="192.1" x2="320" y2="192.1"/>
				<polyline class="st6" points="209.2,160 209.2,174.6 290.8,160 290.8,148.3 				"/>
				<circle class="st6" cx="290.8" cy="66.7" r="8.8"/>
				<path class="st6" d="M317.1,110.4l-6.6-17.7c-1.3-3.4-4.5-5.7-8.2-5.7h-22.9c-3.6,0-6.9,2.3-8.2,5.7l-6.6,17.7"/>
				<line class="st6" x1="290.8" y1="119.2" x2="290.8" y2="136.7"/>
				<line class="st6" x1="302.5" y1="98.8" x2="302.5" y2="136.7"/>
				<line class="st6" x1="279.2" y1="98.8" x2="279.2" y2="136.7"/>
				<circle class="st6" cx="209.2" cy="66.7" r="8.8"/>
				<path class="st6" d="M235.4,116.2l-6.9-22.9c-1.1-3.7-4.5-6.2-8.4-6.2h-22c-3.9,0-7.3,2.5-8.4,6.2l-6.9,22.9"/>
				<line class="st6" x1="209.2" y1="119.2" x2="209.2" y2="148.3"/>
				<line class="st6" x1="220.8" y1="101.7" x2="220.8" y2="148.3"/>
				<line class="st6" x1="197.5" y1="101.7" x2="197.5" y2="148.3"/>
			</g>
		</g>
	</g>
</switch>

</svg>
