<?xml version="1.0" encoding="utf-8"?>
<!-- Generator: Adobe Illustrator 27.1.0, SVG Export Plug-In . SVG Version: 6.00 Build 0)  -->
<svg version="1.1" xmlns="http://www.w3.org/2000/svg" xmlns:xlink="http://www.w3.org/1999/xlink" x="0px" y="0px" viewBox="0 0 500 500" style="enable-background:new 0 0 500 500;" xml:space="preserve">
<style type="text/css">
	.st0{fill:#F8D070;}
	.st1{fill:none;}
	.st2{fill:#FFFFFF;}
	.st3{font-family:'Roboto-Regular';}
	.st4{font-size:90px;}
	.st5{font-size:36px;}
	.st6{fill:none;stroke:#FFFFFF;stroke-width:6;stroke-miterlimit:10;}
</style>
<g id="Layer_1">
	<circle class="st0" cx="250" cy="250" r="250"/>
</g>
<g id="Layer_2">
	<rect y="196.6" class="st1" width="500" height="106.8"/>
	<text transform="matrix(1 0 0 1 78.5912 283.7501)" class="st2 st3 st4"/>
	<rect x="28.8" y="292.9" class="st1" width="442.5" height="106.8"/>
	<text transform="matrix(1 0 0 1 53.1779 359.81)" class="st2 st3 st5"/>
	<g>
		<line class="st6" x1="192.2" y1="158.5" x2="192.2" y2="125"/>
		<path class="st6" d="M186.1,164.6c3.4,0,6.1-2.7,6.1-6.1"/>
		<path class="st6" d="M180,158.5c0,3.4,2.7,6.1,6.1,6.1"/>
		<line class="st6" x1="180" y1="125" x2="180" y2="158.5"/>
		<path class="st6" d="M207.4,97.6c-15.1,0-27.4,12.3-27.4,27.4"/>
		<path class="st6" d="M234.8,125c0-15.1-12.3-27.4-27.4-27.4"/>
		<line class="st6" x1="234.8" y1="158.5" x2="234.8" y2="125"/>
		<path class="st6" d="M228.7,164.6c3.4,0,6.1-2.7,6.1-6.1"/>
		<path class="st6" d="M222.6,158.5c0,3.4,2.7,6.1,6.1,6.1"/>
		<line class="st6" x1="222.6" y1="125" x2="222.6" y2="158.5"/>
		<path class="st6" d="M250,97.6c-15.1,0-27.4,12.3-27.4,27.4"/>
		<path class="st6" d="M277.4,125c0-15.1-12.3-27.4-27.4-27.4"/>
		<line class="st6" x1="277.4" y1="158.5" x2="277.4" y2="125"/>
		<path class="st6" d="M271.3,164.6c3.4,0,6.1-2.7,6.1-6.1"/>
		<path class="st6" d="M265.2,158.5c0,3.4,2.7,6.1,6.1,6.1"/>
		<line class="st6" x1="265.2" y1="125" x2="265.2" y2="158.5"/>
		<path class="st6" d="M292.6,97.6c-15.1,0-27.4,12.3-27.4,27.4"/>
		<path class="st6" d="M320,125c0-15.1-12.3-27.4-27.4-27.4"/>
		<line class="st6" x1="320" y1="158.5" x2="320" y2="125"/>
		<path class="st6" d="M313.9,164.6c3.4,0,6.1-2.7,6.1-6.1"/>
		<path class="st6" d="M307.8,158.5c0,3.4,2.7,6.1,6.1,6.1"/>
		<line class="st6" x1="307.8" y1="125" x2="307.8" y2="158.5"/>
		<rect x="192.2" y="55" class="st6" width="30.4" height="30.4"/>
		<polygon class="st6" points="292.6,58 277.4,85.4 307.8,85.4 		"/>
		<circle class="st6" cx="250" cy="70.2" r="15.2"/>
		<line class="st6" x1="192.2" y1="173.7" x2="192.2" y2="195"/>
		<line class="st6" x1="222.6" y1="173.7" x2="222.6" y2="195"/>
		<line class="st6" x1="234.8" y1="173.7" x2="234.8" y2="195"/>
		<line class="st6" x1="265.2" y1="173.7" x2="265.2" y2="195"/>
		<line class="st6" x1="277.4" y1="173.7" x2="277.4" y2="195"/>
		<line class="st6" x1="307.8" y1="173.7" x2="307.8" y2="195"/>
	</g>
</g>
</svg>
