<?xml version="1.0" encoding="utf-8"?>
<!-- Generator: Adobe Illustrator 24.1.0, SVG Export Plug-In . SVG Version: 6.00 Build 0)  -->
<svg version="1.1" id="controls.fw-Page_x25_201" xmlns="http://www.w3.org/2000/svg" xmlns:xlink="http://www.w3.org/1999/xlink"
	 x="0px" y="0px" viewBox="0 0 144 32" style="enable-background:new 0 0 144 32;" xml:space="preserve">
<style type="text/css">
	.st0{fill:none;}
	.st1{fill:none;stroke:#FFFFFF;}
	.st2{fill:#FFFFFF;}
	.st3{fill:#333333;stroke:#FFFFFF;}
	.st4{fill:url(#Ellipse4_1_);}
	.st5{fill:url(#SVGID_1_);}
	.st6{fill:url(#SVGID_2_);}
	.st7{fill:#A8A8B7;}
	.st8{display:none;fill:none;stroke:#B0B0B0;}
	.st9{font-family:'ArialMT';}
	.st10{font-size:10px;}
	.st11{fill:url(#SVGID_3_);}
	.st12{fill:url(#SVGID_4_);}
	.st13{fill:url(#SVGID_5_);}
	.st14{fill:url(#SVGID_6_);}
	.st15{fill:url(#SVGID_7_);}
	.st16{fill:url(#Polygon_1_);}
	.st17{fill:url(#SVGID_8_);}
	.st18{fill:url(#SVGID_9_);}
	.st19{fill:url(#SVGID_10_);}
	.st20{fill:url(#SVGID_11_);}
	.st21{fill:url(#SVGID_12_);}
	.st22{fill:url(#SVGID_13_);}
	.st23{fill:url(#SVGID_14_);}
	.st24{fill:url(#SVGID_15_);}
	.st25{fill:url(#SVGID_16_);}
	.st26{fill:url(#SVGID_17_);}
	.st27{fill:url(#SVGID_18_);}
	.st28{fill:url(#SVGID_19_);}
</style>
<path class="st0" d="z"/>
<g id="BG">
</g>
<g id="controls">
	<path id="Line" class="st1" d="M98.5,7.5h11"/>
	<path id="Line2" class="st1" d="M98.5,3.5h11"/>
	<path id="Line3" class="st1" d="M98.5,11.5h11"/>
	<path id="Ellipse" class="st2" d="M108,11.5c0-0.8,0.4-1.5,1-1.5s1,0.7,1,1.5s-0.4,1.5-1,1.5S108,12.3,108,11.5z"/>
	<path id="Ellipse2" class="st2" d="M104,7.5c0-0.8,0.4-1.5,1-1.5s1,0.7,1,1.5S105.6,9,105,9S104,8.3,104,7.5z"/>
	<path id="Ellipse3" class="st2" d="M108,3.5c0-0.8,0.4-1.5,1-1.5s1,0.7,1,1.5S109.6,5,109,5S108,4.3,108,3.5z"/>
</g>
<g id="backlight">
	<g id="off">
		<rect x="83" y="21" class="st3" width="10" height="6"/>
	</g>
	<g id="on">
		
			<radialGradient id="Ellipse4_1_" cx="-433.1429" cy="504.2" r="0.5" gradientTransform="matrix(14 0 0 -10 6152 5050)" gradientUnits="userSpaceOnUse">
			<stop  offset="0" style="stop-color:#FFFFFF"/>
			<stop  offset="1" style="stop-color:#F2F2F2;stop-opacity:0.2"/>
		</radialGradient>
		<path id="Ellipse4" class="st4" d="M81,8c0-2.8,3.1-5,7-5s7,2.2,7,5s-3.1,5-7,5S81,10.8,81,8z"/>
		<rect x="83" y="5" class="st3" width="10" height="6"/>
	</g>
</g>
<g id="loop">
	<g id="on2">
		
			<linearGradient id="SVGID_1_" gradientUnits="userSpaceOnUse" x1="-427.5833" y1="510.0674" x2="-427.5833" y2="507.4921" gradientTransform="matrix(12 0 0 -11.125 5203 5676.5)">
			<stop  offset="0" style="stop-color:#FFFFFF"/>
			<stop  offset="1" style="stop-color:#C8C8C8"/>
		</linearGradient>
		<path class="st5" d="M73.8,4.2c1.4,0.7,2.4,2.1,2.4,3.8c0,2.3-1.9,4.2-4.2,4.2s-4.2-1.9-4.2-4.2c0-1.7,1-3.1,2.4-3.8l-1.3-1.3
			C67.2,3.9,66,5.8,66,8c0,3.3,2.7,6,6,6s6-2.7,6-6c0-2.2-1.2-4.1-2.9-5.1L73.8,4.2z"/>
		
			<linearGradient id="SVGID_2_" gradientUnits="userSpaceOnUse" x1="-373.1" y1="452.4" x2="-373.1" y2="450.0125" gradientTransform="matrix(5 0 0 -5 1934 2264)">
			<stop  offset="0" style="stop-color:#FFFFFF"/>
			<stop  offset="1" style="stop-color:#C8C8C8"/>
		</linearGradient>
		<path class="st6" d="M71,2h-5l5,5V2z"/>
	</g>
	<g id="off2">
		<path class="st7" d="M73.8,20.2c1.4,0.7,2.4,2.1,2.4,3.8c0,2.3-1.9,4.2-4.2,4.2s-4.2-1.9-4.2-4.2c0-1.7,1-3.1,2.4-3.8l-1.3-1.3
			c-1.7,1.1-2.9,3-2.9,5.1c0,3.3,2.7,6,6,6s6-2.7,6-6c0-2.2-1.2-4.1-2.9-5.1L73.8,20.2z"/>
		<path class="st7" d="M71,18h-5l5,5V18z"/>
	</g>
</g>
<g id="cc">
	<rect x="49" y="2" class="st8" width="14" height="12"/>
	<text transform="matrix(1 0 0 1 49 17)" class="st2 st9 st10">cc</text>
	<path class="st1" d="M55,7c-4.7-3.2-4.9,5.9,0,3"/>
	<path class="st1" d="M60,7c-4.7-3.2-4.9,5.9,0,3"/>
	
		<linearGradient id="SVGID_3_" gradientUnits="userSpaceOnUse" x1="-433.1429" y1="513.4167" x2="-433.1429" y2="512.4167" gradientTransform="matrix(14 0 0 -12 6120 6163)">
		<stop  offset="0" style="stop-color:#FFFFFF"/>
		<stop  offset="1" style="stop-color:#C8C8C8"/>
	</linearGradient>
	<path class="st11" d="M50,3h12v10H50V3z M49,2v12h14V2H49z"/>
	<rect x="49" y="2" class="st0" width="14" height="12"/>
</g>
<g id="volume">
	<g id="no_x25_20sound">
		
			<linearGradient id="SVGID_4_" gradientUnits="userSpaceOnUse" x1="-373.1" y1="470.1667" x2="-373.1" y2="468.3125" gradientTransform="matrix(5 0 0 -6 1885 2824)">
			<stop  offset="0" style="stop-color:#FFFFFF"/>
			<stop  offset="1" style="stop-color:#C8C8C8"/>
		</linearGradient>
		<rect x="17" y="5" class="st12" width="5" height="6"/>
		
			<linearGradient id="SVGID_5_" gradientUnits="userSpaceOnUse" x1="-349.75" y1="513.4167" x2="-349.75" y2="512.4167" gradientTransform="matrix(4 0 0 -12 1422 6163)">
			<stop  offset="0" style="stop-color:#FFFFFF"/>
			<stop  offset="1" style="stop-color:#C8C8C8"/>
		</linearGradient>
		<path class="st13" d="M21,5l4-3v12l-4-2.9V5z"/>
	</g>
	<g id="sound_x25_20bars">
		
			<linearGradient id="SVGID_6_" gradientUnits="userSpaceOnUse" x1="-373.1" y1="470.1667" x2="-373.1" y2="468.3125" gradientTransform="matrix(5 0 0 -6 1885 2840)">
			<stop  offset="0" style="stop-color:#FFFFFF"/>
			<stop  offset="1" style="stop-color:#C8C8C8"/>
		</linearGradient>
		<rect x="17" y="21" class="st14" width="5" height="6"/>
		
			<linearGradient id="SVGID_7_" gradientUnits="userSpaceOnUse" x1="-349.75" y1="513.4167" x2="-349.75" y2="512.4167" gradientTransform="matrix(4 0 0 -12 1422 6179)">
			<stop  offset="0" style="stop-color:#FFFFFF"/>
			<stop  offset="1" style="stop-color:#C8C8C8"/>
		</linearGradient>
		<path class="st15" d="M21,21l4-3v12l-4-2.9V21z"/>
		<path class="st1" d="M27,18c0,0,3.1-0.6,3,6s-3,6-3,6"/>
		<path class="st1" d="M26,21c0,0,2-0.3,2,3c0,3.3-2,3-2,3"/>
	</g>
</g>
<g id="play_x2F_pause">
	<g id="play">
		
			<linearGradient id="Polygon_1_" gradientUnits="userSpaceOnUse" x1="-424.0454" y1="509.4546" x2="-424.0454" y2="508.4546" gradientTransform="matrix(11 0 0 -11 4673 5607)">
			<stop  offset="0" style="stop-color:#FFFFFF"/>
			<stop  offset="1" style="stop-color:#C8C8C8"/>
		</linearGradient>
		<path id="Polygon" class="st16" d="M14,8.5L3,14V3L14,8.5z"/>
	</g>
	<g id="pause">
		
			<linearGradient id="SVGID_8_" gradientUnits="userSpaceOnUse" x1="-310.8333" y1="513.4167" x2="-310.8333" y2="512.4167" gradientTransform="matrix(3 0 0 -12 937 6179)">
			<stop  offset="0" style="stop-color:#FFFFFF"/>
			<stop  offset="1" style="stop-color:#C8C8C8"/>
		</linearGradient>
		<rect x="3" y="18" class="st17" width="3" height="12"/>
		
			<linearGradient id="SVGID_9_" gradientUnits="userSpaceOnUse" x1="-310.8333" y1="513.4167" x2="-310.8333" y2="512.4167" gradientTransform="matrix(3 0 0 -12 944 6179)">
			<stop  offset="0" style="stop-color:#FFFFFF"/>
			<stop  offset="1" style="stop-color:#C8C8C8"/>
		</linearGradient>
		<rect x="10" y="18" class="st18" width="3" height="12"/>
	</g>
</g>
<g id="fullscreen">
	<g id="enter_x25_201">
		
			<linearGradient id="SVGID_10_" gradientUnits="userSpaceOnUse" x1="-373.1" y1="452.4" x2="-373.1" y2="450.0125" gradientTransform="matrix(5 0 0 -5 1902 2264)">
			<stop  offset="0" style="stop-color:#FFFFFF"/>
			<stop  offset="1" style="stop-color:#C8C8C8"/>
		</linearGradient>
		<path class="st19" d="M34,2h5l-5,5V2z"/>
		
			<linearGradient id="SVGID_11_" gradientUnits="userSpaceOnUse" x1="-373.1" y1="453.8" x2="-373.1" y2="451.4125" gradientTransform="matrix(5 0 0 -5 1902 2271)">
			<stop  offset="0" style="stop-color:#FFFFFF"/>
			<stop  offset="1" style="stop-color:#C8C8C8"/>
		</linearGradient>
		<path class="st20" d="M34,14h5l-5-5V14z"/>
		
			<linearGradient id="SVGID_12_" gradientUnits="userSpaceOnUse" x1="-373.1" y1="452.4" x2="-373.1" y2="450.0125" gradientTransform="matrix(5 0 0 -5 1909 2264)">
			<stop  offset="0" style="stop-color:#FFFFFF"/>
			<stop  offset="1" style="stop-color:#C8C8C8"/>
		</linearGradient>
		<path class="st21" d="M46,2h-5l5,5V2z"/>
		
			<linearGradient id="SVGID_13_" gradientUnits="userSpaceOnUse" x1="-373.1" y1="453.8" x2="-373.1" y2="451.4125" gradientTransform="matrix(5 0 0 -5 1909 2271)">
			<stop  offset="0" style="stop-color:#FFFFFF"/>
			<stop  offset="1" style="stop-color:#C8C8C8"/>
		</linearGradient>
		<path class="st22" d="M46,14h-5l5-5V14z"/>
	</g>
	<g id="exit">
		
			<linearGradient id="SVGID_14_" gradientUnits="userSpaceOnUse" x1="-349.75" y1="426.25" x2="-349.75" y2="423.2656" gradientTransform="matrix(4 0 0 -4 1443 1723)">
			<stop  offset="0" style="stop-color:#FFFFFF"/>
			<stop  offset="1" style="stop-color:#C8C8C8"/>
		</linearGradient>
		<path class="st23" d="M42,22h4l-4-4V22z"/>
		
			<linearGradient id="SVGID_15_" gradientUnits="userSpaceOnUse" x1="-349.75" y1="426.25" x2="-349.75" y2="423.8625" gradientTransform="matrix(4 0 0 -4 1435 1723)">
			<stop  offset="0" style="stop-color:#FFFFFF"/>
			<stop  offset="1" style="stop-color:#C8C8C8"/>
		</linearGradient>
		<path class="st24" d="M38,22v-4l-4,4H38z"/>
		
			<linearGradient id="SVGID_16_" gradientUnits="userSpaceOnUse" x1="-349.75" y1="428.25" x2="-349.75" y2="425.25" gradientTransform="matrix(4 0 0 -4 1435 1731)">
			<stop  offset="0" style="stop-color:#FFFFFF"/>
			<stop  offset="1" style="stop-color:#C8C8C8"/>
		</linearGradient>
		<path class="st25" d="M38,26h-4l4,4V26z"/>
		
			<linearGradient id="SVGID_17_" gradientUnits="userSpaceOnUse" x1="-349.75" y1="428.25" x2="-349.75" y2="425.1406" gradientTransform="matrix(4 0 0 -4 1443 1731)">
			<stop  offset="0" style="stop-color:#FFFFFF"/>
			<stop  offset="1" style="stop-color:#C8C8C8"/>
		</linearGradient>
		<path class="st26" d="M42,26v4l4-4H42z"/>
	</g>
</g>
<g id="stop">
	
		<linearGradient id="SVGID_18_" gradientUnits="userSpaceOnUse" x1="-419.8" y1="504.7" x2="-419.8" y2="503.7" gradientTransform="matrix(10 0 0 -10 4318 5050)">
		<stop  offset="0" style="stop-color:#FFFFFF"/>
		<stop  offset="1" style="stop-color:#C8C8C8"/>
	</linearGradient>
	<rect x="115" y="3" class="st27" width="10" height="10"/>
</g>
<g id="chooser">
	
		<linearGradient id="SVGID_19_" gradientUnits="userSpaceOnUse" x1="-431.0266" y1="517.2728" x2="-431.0266" y2="516.2728" gradientTransform="matrix(13.1648 0 0 -13.1648 5810.377 6811.2114)">
		<stop  offset="0" style="stop-color:#FFFFFF"/>
		<stop  offset="0.9944" style="stop-color:#C8C8C8"/>
	</linearGradient>
	<path class="st28" d="M135.2,6.2c1-0.4,2.2,0.1,2.6,1.1c0.4,1-0.1,2.2-1.1,2.6c-1,0.4-2.2-0.1-2.6-1.1S134.2,6.6,135.2,6.2z
		 M133.3,1.4L136,4l2.7-2.6l0.1,3.8l3.8,0.1L140,8l2.6,2.7l-3.8,0.1l-0.1,3.8L136,12l-2.7,2.6l-0.1-3.8l-3.8-0.1L132,8l-2.6-2.7
		l3.8-0.1L133.3,1.4z"/>
</g>
<path class="st0" d="z"/>
</svg>
