<?xml version="1.0" encoding="utf-8"?>
<!-- Generator: Adobe Illustrator 24.1.1, SVG Export Plug-In . SVG Version: 6.00 Build 0)  -->
<svg version="1.1" id="Layer_1" xmlns="http://www.w3.org/2000/svg" xmlns:xlink="http://www.w3.org/1999/xlink" x="0px" y="0px"
	 viewBox="0 0 41.9 111.2" style="enable-background:new 0 0 41.9 111.2;" xml:space="preserve">
<style type="text/css">
	.st0{fill:#FFFFFF;}
</style>
<g>
	<g>
		<path class="st0" d="M14.6,11.7c0.8-7.2,7.2-12.4,14.3-11.6C36,0.9,41.2,7.3,40.4,14.5s-7.2,12.4-14.3,11.6
			C19,25.4,13.8,18.9,14.6,11.7"/>
		<path class="st0" d="M41.7,101.9c-1.8,2.6-5.8,7.4-11.7,8.8c-10.8,2.6-21.4-5.9-21-17.1c0-0.4,0-0.7,0.1-1c0,0,5.8-44.7,5.9-45.3
			c0.8-7.6-9.1-9.2-14.3-9.5c-0.8,0-1-1.2-0.3-1.5c3.2-1.6,8.4-4,13-5c10.7-2.5,21,5.9,20.6,17c0,0.4,0,0.7-0.1,1
			c0,0-5.9,45.2-5.9,45.3c-0.9,8.3,8.8,7,12.9,6.1C41.6,100.5,42.2,101.3,41.7,101.9"/>
	</g>
</g>
</svg>
