<?xml version="1.0" encoding="utf-8"?>
<!-- Generator: Adobe Illustrator 24.1.1, SVG Export Plug-In . SVG Version: 6.00 Build 0)  -->
<svg version="1.1" id="Layer_1" xmlns="http://www.w3.org/2000/svg" xmlns:xlink="http://www.w3.org/1999/xlink" x="0px" y="0px"
	 viewBox="0 0 100.7 110.8" style="enable-background:new 0 0 100.7 110.8;" xml:space="preserve">
<style type="text/css">
	.st0{fill:#FFFFFF;}
</style>
<g>
	<polygon class="st0" points="56,22.7 23.1,55.6 0,48.4 48.8,0 	"/>
	<g>
		<path class="st0" d="M89.6,56.3L59,26.1L26.1,59l21.6,21.6l5.3-9.1c1.9-3,4.9-4.5,8.3-4.5s6.4,1.9,8.3,4.5l12.9,22.3
			c2.6-1.1,4.9-2.6,6.8-4.5l0.4-0.4C98.3,79.8,98.3,65.4,89.6,56.3"/>
		<path class="st0" d="M61.3,72.2c1.9,0,3.4,1.5,3.4,3.4S63.1,79,61.3,79s-3.4-1.5-3.4-3.4C57.5,73.7,59,72.2,61.3,72.2 M82.4,99.1
			L67.3,72.6c-2.6-4.5-9.1-4.5-11.7,0L40.5,99.1h-9.8l-7.9,11.7h77.9l-7.9-11.7H82.4z"/>
	</g>
</g>
</svg>
