<?xml version="1.0" encoding="utf-8"?>
<!-- Generator: Adobe Illustrator 24.1.1, SVG Export Plug-In . SVG Version: 6.00 Build 0)  -->
<svg version="1.1" id="Layer_1" xmlns="http://www.w3.org/2000/svg" xmlns:xlink="http://www.w3.org/1999/xlink" x="0px" y="0px"
	 viewBox="0 0 110.3 111" style="enable-background:new 0 0 110.3 111;" xml:space="preserve">
<style type="text/css">
	.st0{fill:#FFFFFF;}
</style>
<path class="st0" d="M70.7,0C48.8,0,31.1,17.7,31.1,39.6c0,9.9,3.6,18.9,9.6,25.8H0V111h45.2V69.9c6.9,5.8,15.8,9.3,25.5,9.3
	c21.9,0,39.6-17.7,39.6-39.6S92.6,0,70.7,0z M90.2,46c0,1.4-1.1,2.5-2.5,2.5c-1.4,0-2.5-1.1-2.5-2.5V28.7l-73.5,74.2
	c-0.4,0.3-1.1,0.7-1.8,0.7c-0.7,0-1.4-0.3-1.8-0.7c-1-1.1-1-2.5,0-3.6l73.5-74.2H64.3c-1.4,0-2.5-1.1-2.5-2.5c0-1.4,1.1-2.5,2.5-2.5
	h23.4c1.4,0,2.5,1.1,2.5,2.5V46z"/>
</svg>
