<!-- Generated by IcoMoon.io -->
<svg version="1.1" xmlns="http://www.w3.org/2000/svg" width="1532" height="1024" viewBox="0 0 1532 1024">
<title></title>
<g id="icomoon-ignore">
</g>
<path fill="#000" d="M1434.048 97.47v-97.47h-450.381c-73.943 0-143.405 29.129-196.061 80.665l-23.527 23.527-23.527-23.527c-50.416-51.536-119.877-80.665-193.821-80.665h-450.381v97.47h-96.35v926.53h1531.519v-926.53h-97.47zM742.792 972.464c-52.656-75.063-122.118-80.665-194.941-80.665h-404.446v-845.864h404.446c61.619 0 117.637 22.407 162.451 67.221 33.611 33.611 32.49 54.897 32.49 54.897v804.411zM1388.114 891.799h-404.446c-73.943 0-143.405 6.722-194.941 80.665v-803.291c0 0-1.12-21.287 32.49-54.897 43.694-43.694 100.832-67.221 162.451-67.221h404.446v844.744z"></path>
</svg>
