<?xml version="1.0" encoding="utf-8"?>
<!-- Generator: Adobe Illustrator 26.0.2, SVG Export Plug-In . SVG Version: 6.00 Build 0)  -->
<svg version="1.1" id="Layer_1" xmlns="http://www.w3.org/2000/svg" xmlns:xlink="http://www.w3.org/1999/xlink" x="0px" y="0px"
	 viewBox="0 0 4000 500" style="enable-background:new 0 0 4000 500;" xml:space="preserve" preserveAspectRatio="none">
<style type="text/css">
	.st0{fill:#FBA919;stroke:#E46625;stroke-width:2;stroke-miterlimit:10;}
</style>
<g>
	<path class="st0" d="M747.2,40.6c0.2,0,0.3,0,0.5-0.8c0.9-2.2,2-6.2,2.3-11.2c0.3-5.1,0-11.2-2.5-17.9c-0.1-0.2-0.5-1.1-0.7-1.2
		c-0.1,0-1.6,0-4.1,0.1c-1.2,0-2.7,0.1-4.4,0.2c-1.7,0.1-3.6,0.1-5.7,0.3c-8.3,0.6-19.2,1.9-29.9,4.1c-10.7,2.1-21.2,5.1-28.9,7.7
		c-1.9,0.6-3.7,1.3-5.2,1.8c-1.6,0.6-2.9,1-4,1.5c-2.2,0.9-3.5,1.4-3.5,1.4s-3,2-6.8,5.2c-1.9,1.5-4,3.5-5.9,5.5
		c-2,2-3.9,4.2-5.5,6.3c-1.4,1.6-2.5,3.2-3.3,4.6c-0.8,1.4-1.3,2.6-1.5,3.7c-0.5,2.1,0,3.7,1.1,4.8c1.1,1.1,2.8,1.8,4.9,2.1
		c2.1,0.3,4.5,0.2,7,0c-0.1,0.3,1.2,0.1,3.3-0.3c2.1-0.4,4.9-1,7.7-1.5c2.8-0.5,5.7-1,7.8-1.4c2.1-0.3,3.6-0.5,3.6-0.5
		s0.3-0.1,0.8-0.3c0.5-0.2,1.2-0.5,2.2-0.9c1-0.3,2.1-0.8,3.5-1.2c0.7-0.2,1.4-0.5,2.1-0.8c0.8-0.2,1.6-0.5,2.4-0.8
		c6.6-2.2,15.6-4.7,24.8-6.5c9.2-1.8,18.5-3,25.7-3.4c3.6-0.2,6.6-0.4,8.7-0.4C745.7,40.7,747,40.6,747.2,40.6z"/>
</g>
<g>
	<path class="st0" d="M1239.8,40.9c0.7,0,1,0,1.9-0.8c3.1-2.3,7-6.3,8.3-11.4c1.2-5.1-0.1-11.2-9-17.7c-0.3-0.2-1.9-1.1-2.6-1.2
		c-18.3,0.9-36.6,3.9-54.3,9l-4.8,1.4c-1.6,0.5-3.1,1-4.7,1.5l-4.7,1.6l-2.3,0.8c-0.8,0.3-1.5,0.6-2.3,0.9c-3.1,1.2-6.1,2.4-9.2,3.7
		l-9,4.1c-11.9,5.7-23.3,12.3-34.2,19.9l-4,2.9c-1.3,1-2.7,1.9-4,2.9l-7.8,6.1l-7.5,6.5c-1.3,1.1-2.4,2.2-3.6,3.4l-3.6,3.4
		c-9.4,9.2-18.1,19.2-26,29.8c-3,4.2-6,8.3-8.7,12.7l-2.1,3.2c-0.7,1.1-1.4,2.1-2,3.3l-3.8,6.7c0,0-0.3,0.7-1,2
		c-0.6,1.3-1.4,3.3-2.5,5.7c-1,2.4-2.3,5.3-3.5,8.7c-1.2,3.4-2.7,7.1-3.8,11.2c-0.6,2-1.2,4.1-1.9,6.3c-0.7,2.1-1.1,4.4-1.7,6.6
		c-0.5,2.3-1.1,4.5-1.6,6.9c-0.4,2.3-0.8,4.7-1.3,7.1l-0.6,3.5c-0.1,1.2-0.3,2.4-0.4,3.6c-0.3,2.4-0.5,4.7-0.8,7
		c-0.2,2.3-0.3,4.7-0.4,6.9c-0.1,2.3-0.3,4.5-0.3,6.6c-0.1,3.7-0.1,7,0,10c0.1,3,0.4,5.8,0.6,8.2c0.4,4.8,1.2,8.5,2,11.2
		c1.5,5.3,3.1,6.7,4.6,5.2c1.5-1.5,3-5.7,4.5-11.6c0.9-2.9,1.7-6.3,2.5-9.9c1-3.6,2-7.5,3-11.6c0,0.9,1.2-3.5,3.1-10.6
		c2.2-7,5.1-16.6,9.2-25.8l1.5-3.5c0.5-1.1,1.1-2.3,1.6-3.4c1.1-2.2,2.1-4.5,3.2-6.6c1.1-2.1,2.2-4.1,3.2-6c0.5-1,1-1.9,1.5-2.8
		c0.5-0.9,1-1.7,1.5-2.5c2-3.3,3.5-6,4.8-7.8c1.2-1.8,1.9-2.9,1.9-2.9c3.8-6.7,8.1-13,12.6-19.2c6.9-9.2,14.4-17.9,22.7-25.9l3.1-3
		c1-1,2.1-2,3.2-2.9l6.5-5.6l6.8-5.3c1.1-0.9,2.3-1.7,3.5-2.5l3.5-2.5c9.4-6.5,19.4-12.3,29.8-17.3l7.8-3.5l8-3.2
		c0.7-0.3,1.3-0.5,2-0.8l2-0.7l4.1-1.4c1.4-0.4,2.7-1,4.1-1.3l4.1-1.2C1207.9,44.3,1223.8,41.6,1239.8,40.9z"/>
</g>
<g>
	<path class="st0" d="M1739.4,40.3c0.7,0,1,0,1.9-0.8c3.1-2.3,7-6.3,8.3-11.4c1.2-5.1-0.1-11.2-9-17.7c-0.3-0.2-1.9-1.1-2.6-1.2
		c-18.3,0.9-36.6,3.9-54.3,9c-9.3,2.5-18.3,5.9-27.3,9.5c-2.2,1-4.4,2-6.6,3c-2.2,1-4.4,1.9-6.5,3.1c-4.3,2.2-8.6,4.3-12.7,6.8
		c-2.1,1.2-4.2,2.4-6.2,3.6l-6.1,3.9l-3,2l-2.9,2.1l-5.9,4.2c-1.9,1.4-3.8,3-5.7,4.4c-1.9,1.5-3.8,2.9-5.6,4.5
		c-3.6,3.2-7.3,6.2-10.8,9.6c-1.7,1.7-3.5,3.3-5.2,5l-5,5.2l-2.5,2.6l-2.4,2.7l-4.7,5.5c-1.5,1.8-3,3.8-4.5,5.7
		c-1.5,1.9-3,3.8-4.4,5.7c-2.8,3.9-5.6,7.8-8.2,11.9c-1.3,2-2.6,4-3.9,6.1l-3.6,6.3l-1.8,3.1l-1.7,3.2l-3.3,6.4
		c-1.1,2.2-2,4.4-3,6.6l-1.5,3.3l-0.7,1.6l-0.7,1.7c-1.7,4.5-3.6,8.9-5.1,13.5l-2.3,6.8l-2,6.9c-1.4,4.6-2.4,9.3-3.5,14
		c-0.6,2.3-0.9,4.7-1.4,7.1l-1.3,7.1l-0.9,7.2c-0.3,2.4-0.6,4.8-0.8,7.2c-0.3,4.8-0.8,9.6-0.9,14.4l-0.2,7.2c0,2.4,0.1,4.8,0.1,7.2
		c0.3,9.6,1.1,19.2,2.5,28.7c1.4,9.5,3.4,19,5.9,28.3c2.6,9.3,5.7,18.4,9.3,27.3l0.7,1.7c0.2,0.5,0.5,1.2,0.6,1.4l0.8,1.9l1.6,3.7
		c1.1,2.5,2.3,4.9,3.5,7.3l3.7,7.2c1.3,2.4,2.6,4.7,4,7.1c0,0,0.5,0.7,1.3,1.8c0.8,1.2,2,2.9,3.6,5.1c3.2,4.3,7.7,10.1,13.4,16.4
		c5.7,6.3,12.5,13,19.8,19.2c7.3,6.2,15.1,11.8,22.5,16.3c12.3,7.9,21.2,11.5,26.5,12.9c5.4,1.4,7.4,0.7,6.9-1.3
		c-1-4.2-11.7-13.5-23.3-25.6c0.8,0.4-2.5-2.8-7.5-8.1c-5-5.3-11.6-12.9-17.5-21.1c-6-8.1-11.3-16.7-15-23.4
		c-0.5-0.8-0.9-1.6-1.3-2.4c-0.4-0.8-0.8-1.5-1.1-2.2c-0.7-1.4-1.3-2.6-1.8-3.5c-1-2-1.5-3.1-1.5-3.1l-1.7-3l-1.6-3.1l-1.6-3.1
		l-1.5-3.1c-0.5-1-1-2.1-1.5-3.1l-1.4-3.2l-0.7-1.6l-0.5-1.1l-0.6-1.4c-0.8-1.9-1.6-3.8-2.3-5.7c-5.9-15.4-9.7-31.5-11.8-47.9
		c-1-8.2-1.6-16.4-1.6-24.7c-0.1-2.1,0.1-4.1,0.1-6.2c0.1-2.1,0.1-4.1,0.2-6.2l0.5-6.2c0.2-2.1,0.3-4.1,0.6-6.2
		c1.9-16.4,5.6-32.5,11.2-48.1c5.6-15.5,13.2-30.3,22.2-44c1.1-1.8,2.3-3.4,3.5-5.1c1.2-1.7,2.4-3.4,3.6-5l3.8-4.9l1.9-2.4
		c0.6-0.8,1.3-1.6,2-2.3l4-4.7c1.3-1.6,2.8-3,4.2-4.5l2.1-2.2c0.7-0.7,1.4-1.5,2.2-2.2l4.5-4.3c0.8-0.7,1.5-1.4,2.3-2.1l2.3-2
		l4.7-4.1c1.6-1.3,3.2-2.6,4.9-3.8c1.6-1.3,3.2-2.6,4.9-3.7c3.4-2.4,6.7-4.9,10.2-7c1.7-1.1,3.5-2.2,5.2-3.3l5.4-3.1l2.7-1.5
		c0.9-0.5,1.8-0.9,2.7-1.4l5.5-2.8c0.9-0.5,1.8-0.9,2.8-1.3l2.8-1.3c1.9-0.8,3.7-1.7,5.6-2.5l5.8-2.3l2.9-1.1l2.9-1l5.9-2
		c1.9-0.7,4-1.2,5.9-1.7C1707.6,43.7,1723.4,41,1739.4,40.3z"/>
</g>
<g>
	<path class="st0" d="M2239.8,40.8c0.7,0,1,0,1.9-0.8c3.1-2.3,7-6.3,8.3-11.4c1.2-5.1-0.1-11.2-9-17.7c-0.3-0.2-1.9-1.1-2.6-1.2
		c-18.3,0.9-36.6,3.9-54.3,9c-30,8.5-58.3,23-82.8,42.3c-24.5,19.3-45.2,43.3-60.6,70.5c-15.4,27.1-25.4,57.3-29.3,88.2
		c-3.9,30.9-1.8,62.5,6.3,92.7c8.1,30.1,22.1,58.6,41.1,83.4c18.9,24.8,42.7,45.8,69.5,61.6c26.9,15.8,56.9,26.3,87.7,30.6l7.2,0.9
		l2,0.3l2,0.2l8.1,0.6l2,0.2c0.7,0,1.3,0,2,0.1l4,0.1l4,0.1c1.3,0,2.7,0.1,4,0c0,0,0.8-0.1,2.2-0.2c1.4-0.1,3.6-0.2,6.2-0.6
		c2.6-0.3,5.8-0.7,9.3-1.3c1.8-0.3,3.6-0.5,5.6-0.9c1.9-0.4,3.9-0.8,6-1.2c8.3-1.8,17.5-4.3,26.5-7.6c9-3.2,17.8-7.2,25.4-11.4
		c13-6.8,20.5-12.7,24.4-16.6c3.9-4,4.3-6,2.3-6.6c-4.1-1.2-17.5,3.4-33.8,7.5c0.4-0.2-0.5,0-2.4,0.4c-1.9,0.4-4.8,1.2-8.3,2
		c-7.1,1.7-17,3.6-27,4.7c-10,1.1-20.1,1.5-27.7,1.3c-3.8,0-7-0.3-9.2-0.3c-1.1,0-2-0.1-2.6-0.2c-0.6-0.1-0.9-0.1-0.9-0.1l-7-0.2
		c-1.2,0-2.3-0.1-3.5-0.2l-3.5-0.3l-3.5-0.3l-1.7-0.1l-1.7-0.2l-5.9-0.8l-2.5-0.3c-0.8-0.1-1.6-0.3-2.5-0.4l-4.9-0.9
		c-26.2-4.9-51.5-15-73.9-29.4c-22.5-14.4-42.2-33.2-57.7-54.9c-15.5-21.7-26.8-46.4-33-72.4c-3.1-13-5-26.2-5.6-39.6
		c-0.6-13.4,0-26.8,2-40c3.9-26.4,12.8-52,26.3-75.1c13.5-23,31.4-43.5,52.5-59.9c21.1-16.4,45.3-28.7,71-36
		C2207.9,44.2,2223.8,41.5,2239.8,40.8z"/>
</g>
<g>
	<path class="st0" d="M2739.4,40.8c0.7,0,1,0,1.9-0.8c3.1-2.3,7-6.3,8.3-11.4c1.2-5.1-0.1-11.2-9-17.7c-0.3-0.2-1.9-1.1-2.6-1.2
		c-18.3,0.9-36.6,3.9-54.3,9c-20.8,5.8-40.7,14.7-59.2,25.9c-4.5,2.9-9.2,5.7-13.5,8.9l-3.3,2.3c-1.1,0.8-2.2,1.6-3.3,2.4l-6.4,5
		c-0.5,0.4-1.1,0.8-1.6,1.3l-1.5,1.3l-3.1,2.6c-2,1.8-4.1,3.5-6,5.4l-5.9,5.6c-1.9,1.9-3.7,3.9-5.6,5.8l-2.8,2.9l-2.7,3.1
		c-1.8,2-3.6,4.1-5.3,6.1c-3.3,4.3-6.8,8.4-9.8,12.9l-2.3,3.3c-0.8,1.1-1.6,2.2-2.3,3.3l-4.4,6.8c-0.7,1.1-1.4,2.3-2.1,3.5l-2,3.5
		c-1.3,2.3-2.7,4.7-3.9,7.1l-3.7,7.2c-1.2,2.4-2.2,4.9-3.4,7.4l-1.7,3.7c-0.5,1.2-1,2.5-1.5,3.8l-3,7.5l-2.6,7.7
		c-0.4,1.3-0.9,2.6-1.3,3.8l-1.1,3.9c-0.7,2.6-1.5,5.2-2.2,7.8l-1.8,7.9c-0.7,2.6-1.1,5.3-1.6,7.9c-0.5,2.7-1,5.3-1.4,8
		c-0.6,5.4-1.5,10.7-1.8,16.1c-1,10.8-0.9,21.6-0.5,32.3l0.6,8.1c0.1,1.3,0.2,2.7,0.3,4l0.5,4c0.3,2.7,0.7,5.4,1,8l1.4,8
		c0.3,1.3,0.5,2.7,0.7,4l0.9,3.9c0.6,2.6,1.2,5.3,1.9,7.9c1.5,5.2,2.8,10.4,4.7,15.5c3.3,10.3,7.6,20.2,12.3,29.9l3.7,7.2
		c1.2,2.4,2.7,4.7,4,7.1l2,3.5c0.7,1.2,1.4,2.3,2.2,3.4l4.4,6.8l4.7,6.6c0.8,1.1,1.6,2.2,2.4,3.3l2.5,3.2c1.7,2.1,3.3,4.3,5,6.3
		l5.3,6.1c7.2,8,14.8,15.7,23.1,22.6l3.1,2.6c1,0.9,2.1,1.7,3.2,2.5l6.4,5l6.6,4.7c1.1,0.8,2.2,1.6,3.3,2.3l3.4,2.2
		c9,6,18.6,11.1,28.3,15.8l7.4,3.3c1.2,0.6,2.5,1.1,3.7,1.6l3.8,1.5c5,2.1,10.2,3.7,15.3,5.4c2.6,0.8,5.2,1.5,7.8,2.2l3.9,1.1
		c1.3,0.3,2.6,0.6,3.9,0.9l7.9,1.8l8,1.4l4,0.7l4,0.5l8,1l8.1,0.6l4,0.3l4,0.1l8.1,0.2c2.7,0,5.4-0.1,8.1-0.2l4-0.1
		c1.3,0,2.7-0.2,4-0.3l8.1-0.6c2.7-0.3,5.4-0.7,8-1l4-0.5c1.3-0.2,2.7-0.5,4-0.7l8-1.4c2.6-0.5,5.3-1.2,7.9-1.8l3.9-0.9
		c1.3-0.3,2.6-0.7,3.9-1.1l7.8-2.2l7.7-2.6l3.8-1.3l3.8-1.5c2.5-1,5-2,7.5-3l7.4-3.3c2.5-1.1,4.9-2.3,7.3-3.6l3.6-1.8
		c1.2-0.6,2.4-1.2,3.6-1.9l7-4l1.8-1l1.7-1.1l3.4-2.2c4.6-2.8,8.9-6.1,13.3-9.2c17.3-13,33-28,46.2-45.1l2.5-3.2
		c0.4-0.5,0.8-1.1,1.2-1.6l0.6-0.9l1.2-1.7l2.3-3.3c0.8-1.1,1.6-2.2,2.3-3.3l2.2-3.4c1.4-2.3,3-4.5,4.3-6.9l4-7c0,0,0.3-0.7,1-2
		c0.6-1.3,1.4-3.3,2.5-5.7c1-2.4,2.3-5.3,3.5-8.7c1.2-3.4,2.7-7.1,3.8-11.2c0.6-2,1.2-4.1,1.9-6.3c0.7-2.1,1.1-4.4,1.7-6.6
		c0.5-2.3,1.1-4.5,1.6-6.9c0.4-2.3,0.9-4.7,1.3-7.1l0.6-3.5c0.1-1.2,0.3-2.4,0.4-3.6c0.3-2.4,0.5-4.7,0.8-7c0.2-2.3,0.3-4.7,0.4-6.9
		c0.1-2.3,0.3-4.5,0.3-6.6c0.1-3.7,0.1-7,0-10c-0.1-3-0.4-5.8-0.6-8.2c-0.4-4.8-1.2-8.5-2-11.2c-1.5-5.3-3.1-6.7-4.6-5.2
		c-1.5,1.5-3,5.7-4.5,11.6c-0.9,2.9-1.7,6.3-2.5,9.9c-1,3.6-2,7.5-3,11.6c0-0.9-1.2,3.5-3.1,10.6c-2.2,7-5.1,16.6-9.2,25.8l-1.5,3.5
		c-0.5,1.1-1.1,2.3-1.6,3.4c-1.1,2.2-2.1,4.5-3.2,6.6c-1.1,2.1-2.2,4.1-3.2,6c-0.5,1-1,1.9-1.5,2.8c-0.5,0.9-1,1.7-1.5,2.5
		c-2,3.3-3.5,6-4.8,7.8c-1.2,1.8-1.9,2.9-1.9,2.9l-1.7,3c-0.6,1-1.2,2-1.8,2.9l-3.7,5.8l-4,5.7l-1,1.4l-0.3,0.4
		c-0.3,0.5-0.7,1-1,1.4l-2.1,2.7c-1.4,1.8-2.8,3.7-4.3,5.4l-4.5,5.2c-1.5,1.8-3.1,3.4-4.7,5.1l-2.4,2.5l-1.2,1.3
		c-0.4,0.4-0.8,0.8-1.3,1.2l-5,4.8c-0.8,0.8-1.7,1.6-2.6,2.3l-2.6,2.3c-3.4,3.1-7.1,5.9-10.8,8.7c-1.8,1.4-3.8,2.7-5.6,4.1l-2.8,2
		c-0.9,0.7-1.9,1.3-2.9,1.9l-5.8,3.7l-6,3.5l-3,1.7l-3.1,1.6l-6.2,3.1l-6.3,2.9c-1.1,0.5-2.1,1-3.2,1.4l-3.2,1.3
		c-2.2,0.8-4.3,1.7-6.5,2.5l-6.6,2.2c-2.2,0.8-4.4,1.4-6.6,2c-2.2,0.6-4.4,1.3-6.7,1.9c-4.5,1-9,2.2-13.6,2.9
		c-9.1,1.8-18.3,2.6-27.5,3.2l-6.9,0.2l-3.5,0.1l-3.5-0.1l-6.9-0.2c-2.3-0.1-4.6-0.3-6.9-0.5l-3.5-0.3c-1.2-0.1-2.3-0.3-3.4-0.4
		l-6.9-0.9c-2.3-0.3-4.6-0.8-6.8-1.2c-2.3-0.4-4.6-0.8-6.8-1.3l-6.8-1.6c-2.2-0.5-4.4-1.2-6.7-1.9c-4.5-1.2-8.8-2.8-13.2-4.2
		c-2.2-0.8-4.3-1.7-6.5-2.5l-3.2-1.3c-1.1-0.4-2.1-0.9-3.2-1.4l-6.3-2.9l-6.2-3.2l-3.1-1.6l-3-1.7l-6-3.5l-5.8-3.7
		c-1-0.6-2-1.2-2.9-1.9l-2.8-2c-7.6-5.2-14.7-11.2-21.6-17.4c-27.3-25-47.6-57.5-58.4-92.8c-5.3-17.7-8.5-36.1-8.9-54.6
		c0-2.3-0.1-4.6-0.2-6.9l0.2-6.9l0.1-3.5l0.3-3.5l0.5-6.9l0.9-6.9l0.4-3.4c0.2-1.1,0.4-2.3,0.6-3.4l1.2-6.8c0.5-2.3,1-4.5,1.5-6.8
		l0.8-3.4c0.3-1.1,0.6-2.2,0.9-3.3l1.9-6.7c0.7-2.2,1.5-4.4,2.2-6.6l1.1-3.3c0.4-1.1,0.8-2.2,1.3-3.2l2.5-6.4l2.9-6.3l1.4-3.2
		l1.6-3.1c1.1-2.1,2.1-4.1,3.2-6.2c9-16.2,19.8-31.3,32.7-44.6c3.1-3.4,6.6-6.5,9.9-9.7c1.7-1.6,3.5-3,5.2-4.6l2.6-2.3
		c0.9-0.7,1.8-1.4,2.7-2.2l5.5-4.3l5.7-4l2.8-2l2.9-1.9c2-1.2,3.9-2.5,5.8-3.7c15.9-9.4,32.9-17.1,50.7-22
		C2707.6,44.3,2723.4,41.6,2739.4,40.8z"/>
</g>
<g>
	<path class="st0" d="M3239.4,40.7c0.7,0,1,0,1.9-0.8c3.1-2.3,7-6.3,8.3-11.4c1.2-5.1-0.1-11.2-9-17.7c-0.3-0.2-1.9-1.1-2.6-1.2
		c-18.3,0.9-36.6,3.9-54.3,9c-13.3,3.8-26.2,8.7-38.7,14.7c-12.4,6-24.3,13.2-35.5,21.2c-11.2,8.1-21.7,17.1-31.4,26.9
		c-2.4,2.5-4.8,5-7.1,7.5l-6.8,7.8l-6.4,8.1c-1.1,1.3-2,2.8-3.1,4.2l-3,4.2c-7.8,11.4-14.7,23.4-20.5,35.9
		c-5.8,12.5-10.6,25.5-14.1,38.9c-3.5,13.4-5.9,27-7.1,40.7l-0.4,5.2c-0.1,1.7-0.3,3.4-0.3,5.2l-0.3,10.3c0,3.4,0.2,6.9,0.2,10.3
		l0.1,2.6l0.2,2.6l0.4,5.2c1.2,13.7,3.5,27.4,6.9,40.8c3.5,13.4,8.2,26.4,13.9,39c11.5,25.1,27.3,48.3,46.6,67.9
		c19.3,19.7,41.9,36.2,66.7,48.3c24.8,12,51.7,19.9,79.2,22.8c13.7,1.4,27.5,1.7,41.3,0.9c13.8-0.8,27.5-2.9,40.9-6.1
		c26.8-6.4,52.6-17.4,75.7-32.7c23-15.2,43.6-34.2,60.2-56.2c16.6-22,29.5-46.9,37.7-73.3c4.1-13.2,7-26.7,8.8-40.4
		c1.8-13.7,2.5-27.5,1.9-41.3c-1.1-27.5-7-55-17.4-80.5c-0.7-1.6-1.3-3.2-2-4.8l-1.6-3.5l-0.8-1.8c-0.5-1.2-1.1-2.4-1.7-3.7
		c-1.2-2.4-2.3-4.9-3.7-7.2c-1.3-2.4-2.5-4.8-3.9-7.1c-1.3-2.3-2.7-4.7-4.1-7c0,0-0.5-0.6-1.3-1.8c-0.4-0.6-0.9-1.3-1.6-2.2
		c-0.6-0.8-1.4-1.8-2.2-2.8c-0.8-1-1.7-2.2-2.7-3.4c-1-1.2-2.1-2.5-3.2-3.9c-1.1-1.4-2.4-2.8-3.7-4.3c-1.3-1.5-2.6-3-4.1-4.5
		c-5.8-6.2-12.8-12.8-20.2-18.8c-7.4-6-15.4-11.5-22.9-15.8c-12.5-7.6-21.4-11-26.8-12.4c-5.4-1.3-7.4-0.6-6.8,1.5
		c1,4.1,12,13.2,23.9,25.1c-1.6-0.8,13.5,12.5,25.6,28.6c6.2,8,11.7,16.5,15.5,23.1c0.9,1.6,1.8,3.2,2.6,4.5
		c0.7,1.4,1.4,2.6,1.9,3.5c0.5,1,0.9,1.7,1.2,2.3c0.3,0.5,0.4,0.8,0.4,0.8c1.1,2,2.3,4,3.4,6c1.1,2.1,2.2,4.1,3.2,6.1
		c1,2.1,2.1,4.1,3,6.3l0.7,1.6l1.1,2.5c0.6,1.3,1.1,2.7,1.7,4.1c2.3,5.4,4.2,11,6.1,16.6c3.5,11.3,6.1,22.8,7.7,34.5
		c1.5,11.7,2.2,23.6,1.7,35.4c-0.4,11.8-1.8,23.6-4.1,35.2c-2.4,11.6-5.8,22.9-10.1,33.9c-4.3,11-9.5,21.7-15.6,31.8
		c-6.1,10.1-13.1,19.7-20.8,28.7c-7.7,9-16.2,17.3-25.3,24.8c-9.1,7.5-18.9,14.3-29.1,20.2c-40.9,23.9-90,32.6-136.8,25.4
		c-23.3-3.7-46-11.3-66.9-22.5c-20.8-11.3-39.6-26-55.6-43.5c-15.9-17.5-28.8-37.7-38.1-59.4c-4.6-10.9-8.2-22.2-10.9-33.7
		c-2.7-11.5-4.5-23.2-5.1-35c-0.7-11.8-0.4-23.7,0.8-35.4l1.1-8.8c0.5-2.9,1-5.8,1.5-8.7l0.4-2.2l0.5-2.2l1-4.3
		c0.3-1.4,0.6-2.9,1-4.3l1.2-4.3c3.2-11.4,7.4-22.5,12.5-33.1c5.1-10.6,11.2-20.8,18-30.5c6.8-9.6,14.5-18.7,22.8-27.1
		c8.4-8.3,17.5-16,27.1-22.8c9.6-6.8,19.8-12.9,30.5-18c10.7-5.1,21.8-9.3,33.1-12.5C3207.6,44.2,3223.4,41.5,3239.4,40.7z"/>
</g>
<g>
	<path class="st0" d="M3738.3,9.8c0.8,0,1.1,0,2.2,0.7c3.8,2.1,8.2,5.9,9.5,10.9c1.3,5-0.5,11.2-8,18.1c-0.3,0.3-1.6,1.2-2.2,1.3
		c-16,0.7-31.9,3.4-47.3,7.8c-25.5,7.2-49.7,19.5-70.7,35.7c-21,16.3-38.9,36.5-52.4,59.4c-13.5,22.9-22.6,48.3-26.6,74.6
		c-4,26.3-2.9,53.4,3.1,79.2c6,25.9,17,50.6,32.2,72.3c15.2,21.8,34.6,40.7,56.8,55.3c22.2,14.6,47.2,24.9,73.2,30.2
		c26,5.3,53.1,5.5,79.3,0.8c26.1-4.7,51.3-14.5,73.8-28.6c22.5-14.1,42.3-32.6,58-54.1c15.7-21.5,27.2-45.9,33.8-71.7
		c3.3-12.9,5.3-26.1,6.1-39.3c0.2-1.7,0.2-3.3,0.2-5l0.1-5l0.1-2.5l-0.1-2.5l-0.1-4.9c0-1.6-0.1-3.3-0.3-4.9l-0.4-4.9
		c-0.1-1.6-0.4-3.3-0.5-4.9l-0.6-4.9c-3.8-26.2-12.8-51.8-26-75c-13.2-23.2-30.6-44-51.1-60.9c-1.3-1.1-2.6-2.1-3.9-3.1l-2.9-2.3
		l-1.4-1.1c-0.9-0.7-1.9-1.4-2.9-2l-5.8-4c-2-1.3-4-2.5-6-3.8l-3-1.9l-3.1-1.7c0,0-2.3-1.5-6.2-4.1c-2-1.2-4.4-2.6-7.1-4.2
		c-0.7-0.4-1.4-0.8-2.1-1.2c-0.7-0.4-1.5-0.8-2.2-1.2c-1.5-0.8-3.1-1.7-4.8-2.6c-0.8-0.4-1.7-0.9-2.5-1.3c-0.9-0.4-1.8-0.8-2.7-1.3
		c-1.8-0.9-3.6-1.8-5.5-2.7c-0.9-0.5-1.9-0.9-2.9-1.3c-1-0.4-2-0.8-2.9-1.2c-2-0.8-4-1.7-6-2.5c-2-0.8-4.1-1.5-6.1-2.3
		c-2-0.8-4.1-1.6-6.1-2.2c-2.1-0.7-4.1-1.4-6.1-2c-1-0.3-2-0.7-3-1c-1-0.3-2-0.6-2.9-0.8c-3.3-0.8-6.3-1.7-9.1-2.4
		c-2.8-0.6-5.3-1.3-7.6-1.9c-1.1-0.3-2.2-0.6-3.2-0.9c-1-0.3-2-0.5-2.8-0.7c-1.8-0.5-3.3-0.9-4.6-1.4c-2.6-0.9-4.2-1.7-5-2.6
		c-0.8-0.8-0.8-1.6-0.1-2.3c1.5-1.5,5.9-2.8,12.3-3.9c3.2-0.5,6.8-0.7,10.9-0.9c1,0,2-0.1,3.1-0.1c1,0,2.1,0,3.2,0
		c2.2,0,4.4,0.1,6.7,0.2c-0.5-0.1,0.6-0.2,2.7-0.1c2.1,0.2,5.4,0.5,9.4,1c1,0.1,2.1,0.2,3.1,0.4c1.1,0.2,2.2,0.4,3.4,0.6
		c2.3,0.4,4.8,0.9,7.3,1.3c1.3,0.2,2.6,0.5,3.9,0.9c1.3,0.3,2.6,0.6,4,0.9c2.7,0.7,5.4,1.3,8.1,2.1c2.7,0.8,5.4,1.6,8.1,2.4
		c2.7,0.9,5.3,1.9,7.8,2.7c1.3,0.5,2.5,0.9,3.7,1.3c1.2,0.4,2.4,1,3.5,1.4c2.3,1,4.4,1.9,6.4,2.7c2,0.8,3.8,1.7,5.4,2.5
		c1.6,0.8,3,1.4,4.1,2c1.1,0.6,2,1,2.7,1.3c0.6,0.3,0.9,0.5,0.9,0.5l6.8,4.2c1.1,0.7,2.3,1.4,3.4,2.1l3.3,2.3c2.2,1.5,4.4,3,6.5,4.6
		l8.8,6.8l8.5,7.3c2.8,2.5,5.5,5.1,8.2,7.7c21.4,21,38.8,45.8,51.5,72.9c12.7,27.1,20.6,56.5,22.5,86.6c0.2,1.9,0.2,3.8,0.3,5.7
		l0.1,5.7c0.1,1.9,0,3.8,0,5.6l-0.1,5.6l-0.1,2.8l-0.2,2.8l-0.4,5.6c-0.2,3.7-0.8,7.5-1.2,11.2c-2,14.9-5.3,29.6-10,43.8
		c-9.4,28.5-24.2,55.2-43.4,78.2c-19.2,23.1-42.7,42.5-69,57c-26.3,14.5-55.3,24-85.1,27.8c-29.7,3.8-60.2,2.2-89.3-5.1
		c-29.1-7.3-56.8-20.1-81.2-37.5c-24.4-17.4-45.5-39.4-61.9-64.5c-16.4-25.1-28.1-53.3-34.1-82.7c-6-29.4-6.4-59.9-1.4-89.4
		c5-29.6,15.7-58.2,31.3-83.8c15.6-25.6,36-48.3,59.8-66.5c23.8-18.2,51.1-31.9,80-40.1C3701.7,13.7,3720,10.6,3738.3,9.8z"/>
</g>
</svg>
