<?xml version="1.0" encoding="utf-8"?>
<!-- Generator: Adobe Illustrator 21.1.0, SVG Export Plug-In . SVG Version: 6.00 Build 0)  -->
<svg version="1.1" id="Layer_1" xmlns="http://www.w3.org/2000/svg" xmlns:xlink="http://www.w3.org/1999/xlink" x="0px" y="0px"
	 viewBox="0 0 394.1 281.5" style="enable-background:new 0 0 394.1 281.5;" xml:space="preserve">
<style type="text/css">
	.st0{fill:url(#SVGID_1_);}
	.st1{fill:url(#SVGID_2_);}
	.st2{fill:url(#SVGID_3_);}
	.st3{fill:url(#SVGID_4_);}
	.st4{fill:url(#SVGID_5_);}
	.st5{fill:url(#SVGID_6_);}
	.st6{fill:url(#SVGID_7_);}
	.st7{fill:url(#SVGID_8_);}
	.st8{fill:url(#SVGID_9_);}
	.st9{fill:url(#SVGID_10_);}
	.st10{fill:url(#SVGID_11_);}
	.st11{fill:url(#SVGID_12_);}
	.st12{fill:url(#SVGID_13_);}
	.st13{fill:url(#SVGID_14_);}
	.st14{fill:url(#SVGID_15_);}
	.st15{fill:url(#SVGID_16_);}
	.st16{fill:#AFBBC9;}
	.st17{fill:url(#SVGID_17_);}
	.st18{fill:url(#SVGID_18_);}
	.st19{fill:#FFFFFF;}
	.st20{fill:#231F20;}
</style>
<g>
	<g>
		<linearGradient id="SVGID_1_" gradientUnits="userSpaceOnUse" x1="252.45" y1="11.5" x2="252.45" y2="268.9199">
			<stop  offset="0" style="stop-color:#B10202"/>
			<stop  offset="1" style="stop-color:#820000"/>
		</linearGradient>
		<path class="st0" d="M258.7,63.3c10.4-4,20.1-9,29.1-14.9c-18.9-18.5-43.4-31.4-70.7-35.6C234.1,26,248.3,43.1,258.7,63.3z"/>
		<linearGradient id="SVGID_2_" gradientUnits="userSpaceOnUse" x1="225.35" y1="11.5" x2="225.35" y2="268.9199">
			<stop  offset="0" style="stop-color:#B10202"/>
			<stop  offset="1" style="stop-color:#820000"/>
		</linearGradient>
		<path class="st1" d="M202.7,16.3v58.1c15.6-0.5,30.8-3,45.3-7.4C236.9,46.3,221.2,28.7,202.7,16.3z"/>
		<linearGradient id="SVGID_3_" gradientUnits="userSpaceOnUse" x1="234.3" y1="11.5" x2="234.3" y2="268.9199">
			<stop  offset="0" style="stop-color:#B10202"/>
			<stop  offset="1" style="stop-color:#820000"/>
		</linearGradient>
		<path class="st2" d="M252.9,77.3c-16.1,5.1-32.9,7.9-50.2,8.4v49.4h63.2C265.2,115,260.7,95.2,252.9,77.3z"/>
		<linearGradient id="SVGID_4_" gradientUnits="userSpaceOnUse" x1="234.3" y1="11.5" x2="234.3" y2="268.9199">
			<stop  offset="0" style="stop-color:#B10202"/>
			<stop  offset="1" style="stop-color:#820000"/>
		</linearGradient>
		<path class="st3" d="M252.9,204.2c1.7-3.9,3.2-7.9,4.5-11.9c5-14.6,7.9-30.2,8.5-45.9h-63.2v49.4c6.9,0.2,13.6,0.9,20.3,1.8
			C233.2,199,243.2,201.1,252.9,204.2z"/>
		<linearGradient id="SVGID_5_" gradientUnits="userSpaceOnUse" x1="295.05" y1="11.5" x2="295.05" y2="268.9199">
			<stop  offset="0" style="stop-color:#B10202"/>
			<stop  offset="1" style="stop-color:#820000"/>
		</linearGradient>
		<path class="st4" d="M269.2,192.9c-1.6,5.1-3.5,10.2-5.6,15.1c11.4,4.5,22.2,10.1,32,16.7c5.8-6.8,10.8-14.2,15.1-22
			c9.2-16.9,14.9-35.9,15.8-56.3h-49.3C276.6,162.3,273.9,178,269.2,192.9z"/>
		<linearGradient id="SVGID_6_" gradientUnits="userSpaceOnUse" x1="294.95" y1="11.5" x2="294.95" y2="268.9199">
			<stop  offset="0" style="stop-color:#B10202"/>
			<stop  offset="1" style="stop-color:#820000"/>
		</linearGradient>
		<path class="st5" d="M277.1,135.1h49.3c-1.3-29.8-12.7-57-30.9-78.3c-9.8,6.7-20.6,12.3-32,16.7
			C271.8,92.7,276.5,113.8,277.1,135.1z"/>
		<linearGradient id="SVGID_7_" gradientUnits="userSpaceOnUse" x1="225.25" y1="11.5" x2="225.25" y2="268.9199">
			<stop  offset="0" style="stop-color:#B10202"/>
			<stop  offset="1" style="stop-color:#820000"/>
		</linearGradient>
		<path class="st6" d="M247.9,214.4c-14.5-4.5-29.7-6.9-45.3-7.4v58.1C221.2,252.8,236.9,235.2,247.9,214.4z"/>
		<linearGradient id="SVGID_8_" gradientUnits="userSpaceOnUse" x1="252.45" y1="11.5" x2="252.45" y2="268.9199">
			<stop  offset="0" style="stop-color:#B10202"/>
			<stop  offset="1" style="stop-color:#820000"/>
		</linearGradient>
		<path class="st7" d="M217.1,268.7c27.3-4.3,51.8-17.1,70.7-35.6c-9-5.9-18.7-10.9-29.1-14.9C248.3,238.4,234.2,255.5,217.1,268.7z
			"/>
		<linearGradient id="SVGID_9_" gradientUnits="userSpaceOnUse" x1="159.8" y1="11.5" x2="159.8" y2="268.9199">
			<stop  offset="0" style="stop-color:#B10202"/>
			<stop  offset="1" style="stop-color:#820000"/>
		</linearGradient>
		<path class="st8" d="M128.2,135.1h63.2V85.7c-17.3-0.5-34.1-3.3-50.2-8.4C133.4,95.2,128.9,115,128.2,135.1z"/>
		<linearGradient id="SVGID_10_" gradientUnits="userSpaceOnUse" x1="99.15" y1="11.5" x2="99.15" y2="268.9199">
			<stop  offset="0" style="stop-color:#B10202"/>
			<stop  offset="1" style="stop-color:#820000"/>
		</linearGradient>
		<path class="st9" d="M98.6,224.7c9.8-6.7,20.6-12.3,32-16.7c-2.1-4.9-4-9.9-5.6-15c-4.8-14.9-7.5-30.7-8-46.6H67.7
			c0.9,20.5,6.7,39.8,16,56.7C88,210.8,92.9,218.1,98.6,224.7z"/>
		<linearGradient id="SVGID_11_" gradientUnits="userSpaceOnUse" x1="99.15" y1="11.5" x2="99.15" y2="268.9199">
			<stop  offset="0" style="stop-color:#B10202"/>
			<stop  offset="1" style="stop-color:#820000"/>
		</linearGradient>
		<path class="st10" d="M130.6,73.6c-11.4-4.5-22.2-10.1-32-16.7C80.4,78.1,69,105.3,67.7,135.1H117
			C117.7,113.8,122.3,92.7,130.6,73.6z"/>
		<linearGradient id="SVGID_12_" gradientUnits="userSpaceOnUse" x1="141.7" y1="11.5" x2="141.7" y2="268.9199">
			<stop  offset="0" style="stop-color:#B10202"/>
			<stop  offset="1" style="stop-color:#820000"/>
		</linearGradient>
		<path class="st11" d="M177.1,12.8c-27.4,4.2-51.9,17.1-70.8,35.7c9,5.9,18.7,10.9,29.1,14.9C145.7,43.4,160.1,26,177.1,12.8z"/>
		<linearGradient id="SVGID_13_" gradientUnits="userSpaceOnUse" x1="141.7" y1="11.5" x2="141.7" y2="268.9199">
			<stop  offset="0" style="stop-color:#B10202"/>
			<stop  offset="1" style="stop-color:#820000"/>
		</linearGradient>
		<path class="st12" d="M135.4,218.2c-10.4,4-20.1,9-29.1,14.9c18.9,18.6,43.4,31.4,70.8,35.7C160.1,255.5,145.7,238.1,135.4,218.2z
			"/>
		<linearGradient id="SVGID_14_" gradientUnits="userSpaceOnUse" x1="168.75" y1="11.5" x2="168.75" y2="268.9199">
			<stop  offset="0" style="stop-color:#B10202"/>
			<stop  offset="1" style="stop-color:#820000"/>
		</linearGradient>
		<path class="st13" d="M191.4,265.2V207c-15.6,0.5-30.8,3-45.3,7.4C157.2,235.2,172.9,252.8,191.4,265.2z"/>
		<linearGradient id="SVGID_15_" gradientUnits="userSpaceOnUse" x1="168.85" y1="11.5" x2="168.85" y2="268.9199">
			<stop  offset="0" style="stop-color:#B10202"/>
			<stop  offset="1" style="stop-color:#820000"/>
		</linearGradient>
		<path class="st14" d="M146.2,67.1c14.5,4.5,29.7,6.9,45.3,7.4V16.3C172.9,28.7,157.2,46.3,146.2,67.1z"/>
		<linearGradient id="SVGID_16_" gradientUnits="userSpaceOnUse" x1="159.8" y1="11.5" x2="159.8" y2="268.9199">
			<stop  offset="0" style="stop-color:#B10202"/>
			<stop  offset="1" style="stop-color:#820000"/>
		</linearGradient>
		<path class="st15" d="M136.7,192.3c1.4,4,2.8,8,4.5,11.9c10.2-3.2,20.7-5.5,31.5-6.9c6.2-0.8,12.4-1.4,18.7-1.6v-49.4h-63.2
			C128.8,162.1,131.7,177.7,136.7,192.3z"/>
		<path d="M337.8,140.8c0-1.3,0-2.6-0.1-4v7.7C337.8,143.2,337.8,142,337.8,140.8z"/>
		<path d="M56.3,140.8c0,0.2,0,0.3,0,0.5v-1C56.3,140.4,56.3,140.6,56.3,140.8z"/>
		<path class="st16" d="M194.6,281.4c0.8,0,1.6,0.1,2.5,0.1c0.8,0,1.6-0.1,2.5-0.1c52.5-0.9,98-30.6,121.5-74
			c10.2-18.8,16.2-40.2,16.8-62.9v-7.7C335.6,61,273.3,0,197.1,0C119.6,0,56.6,62.8,56.3,140.2v1c0.1,24,6.2,46.5,16.9,66.3
			C96.6,250.8,142.2,280.5,194.6,281.4z M217.1,268.7c17-13.2,31.2-30.3,41.6-50.5c10.4,4,20.1,9,29.1,14.9
			C268.9,251.6,244.4,264.4,217.1,268.7z M310.6,202.7c-4.3,7.8-9.3,15.3-15.1,22c-9.8-6.7-20.6-12.3-32-16.7
			c2.1-4.9,4-9.9,5.6-15.1c4.7-14.9,7.5-30.6,8-46.5h49.3C325.5,166.7,319.9,185.8,310.6,202.7z M326.4,135.1h-49.3
			c-0.7-21.4-5.4-42.4-13.6-61.6c11.4-4.5,22.2-10.1,32-16.7C313.7,78.1,325.1,105.3,326.4,135.1z M287.8,48.5
			c-9,5.9-18.7,10.9-29.1,14.9c-10.4-20.2-24.6-37.4-41.6-50.5C244.4,17.1,268.9,29.9,287.8,48.5z M202.7,16.3
			c18.5,12.4,34.2,30,45.3,50.7c-14.5,4.5-29.7,6.9-45.3,7.4V16.3z M202.7,85.7c17.3-0.5,34.1-3.3,50.2-8.4
			c7.8,17.9,12.3,37.7,13,57.8h-63.2V85.7z M202.7,146.4h63.2c-0.6,15.8-3.5,31.3-8.5,45.9c-1.4,4-2.8,8-4.5,11.9
			c-9.7-3.1-19.7-5.2-29.9-6.6c-6.7-0.9-13.5-1.6-20.3-1.8V146.4z M202.7,207c15.6,0.5,30.8,3,45.3,7.4
			c-11,20.7-26.7,38.4-45.3,50.7V207z M106.3,233c9-5.9,18.7-10.9,29.1-14.9c10.3,20,24.7,37.3,41.7,50.5
			C149.8,264.5,125.2,251.6,106.3,233z M191.4,265.2c-18.5-12.4-34.2-30-45.3-50.7c14.5-4.5,29.7-6.9,45.3-7.4V265.2z M191.4,195.8
			c-6.3,0.2-12.5,0.8-18.7,1.6c-10.8,1.4-21.3,3.6-31.5,6.9c-1.7-3.9-3.2-7.9-4.5-11.9c-5-14.6-7.9-30.2-8.5-45.9h63.2V195.8z
			 M191.4,135.1h-63.2c0.7-20.1,5.1-39.9,13-57.8c16.1,5.1,32.9,7.9,50.2,8.4V135.1z M191.4,74.5c-15.6-0.5-30.8-3-45.3-7.4
			c11-20.7,26.7-38.4,45.3-50.7V74.5z M177.1,12.8c-17,13.2-31.4,30.6-41.7,50.5c-10.4-4-20.1-9-29.1-14.9
			C125.2,29.9,149.8,17,177.1,12.8z M98.6,56.8c9.8,6.7,20.6,12.3,32,16.7c-8.2,19.1-12.9,40.2-13.6,61.6H67.7
			C69,105.3,80.4,78.1,98.6,56.8z M117,146.4c0.5,15.9,3.3,31.7,8,46.6c1.6,5.1,3.5,10.1,5.6,15c-11.4,4.5-22.2,10.1-32,16.7
			c-5.7-6.6-10.6-13.9-14.8-21.6c-9.4-17-15.2-36.2-16-56.7H117z"/>
	</g>
	<g>
		
			<linearGradient id="SVGID_17_" gradientUnits="userSpaceOnUse" x1="49.55" y1="176.1195" x2="49.55" y2="105.8732" gradientTransform="matrix(1 0 0 -1 0 284)">
			<stop  offset="0" style="stop-color:#EF3745"/>
			<stop  offset="1" style="stop-color:#8A1129"/>
		</linearGradient>
		<rect y="104.8" class="st17" width="99.1" height="72.7"/>
		
			<linearGradient id="SVGID_18_" gradientUnits="userSpaceOnUse" x1="246.55" y1="175.3222" x2="246.55" y2="122.54" gradientTransform="matrix(1 0 0 -1 0 284)">
			<stop  offset="0" style="stop-color:#D9D9D9"/>
			<stop  offset="0.9946" style="stop-color:#A6A6A6"/>
		</linearGradient>
		<rect x="99.1" y="104.8" class="st18" width="294.9" height="72.7"/>
		<g>
			<path class="st19" d="M27.1,118H38v46.4H27.1V118z"/>
			<path class="st19" d="M51.4,126.9h-9.7V118H72v8.8h-9.7v37.5H51.4V126.9z"/>
		</g>
		<g>
			<path class="st20" d="M126.7,118h10.9v46.4h-10.9C126.7,164.4,126.7,118,126.7,118z"/>
			<path class="st20" d="M143.5,118H156l9,30.1h0.1V118h10.1v46.4H163l-9.5-32h-0.1v32h-9.7V118H143.5z"/>
			<path class="st20" d="M190.4,150.2v1.6c0,3.5,1,6.2,4.7,6.2c3.8,0,4.9-2.9,4.9-5.5c0-10-19.9-4.4-19.9-21.8
				c0-7.4,4-13.6,15.2-13.6c10.9,0,14.8,5.5,14.8,12.7v1.1h-10.5c0-2.2-0.3-3.8-0.9-4.9c-0.6-1.1-1.7-1.6-3.3-1.6
				c-2.7,0-4.4,1.6-4.4,5c0,9.7,19.9,4.8,19.9,21.2c0,10.5-5.8,14.7-15.8,14.7c-7.9,0-15.3-2.4-15.3-12.1v-3H190.4z"/>
			<path class="st20" d="M215.6,118h10.9v46.4h-10.9V118z"/>
			<path class="st20" d="M252.2,132.1c0-3-0.3-7.7-4.4-7.7c-4.5,0-5,4.5-5,16.9c0,12.7,0.6,16.8,5,16.8c3.7,0,5-3.4,5-9.7v-1.5h-5.1
				v-7.3H263v24.9h-7.5l-0.3-4.4h-0.1c-1.7,4.2-5.8,5.3-10,5.3c-11.6,0-13.6-8.6-13.6-23.1c0-15.2,1-25.1,16.5-25.1
				c14.1,0,14.7,9.7,14.7,15h-10.5V132.1z"/>
			<path class="st20" d="M268.4,118h10.9v17.3h8.7V118h10.9v46.4H288v-19.8h-8.7v19.8h-10.9V118z"/>
			<path class="st20" d="M312.2,126.9h-9.7V118h30.4v8.8h-9.7v37.5h-10.9L312.2,126.9L312.2,126.9z"/>
			<path class="st20" d="M346,150.2v1.6c0,3.5,1,6.2,4.7,6.2c3.8,0,4.9-2.9,4.9-5.5c0-10-19.9-4.4-19.9-21.8c0-7.4,4-13.6,15.2-13.6
				c10.9,0,14.8,5.5,14.8,12.7v1.1h-10.5c0-2.2-0.3-3.8-0.9-4.9s-1.7-1.6-3.3-1.6c-2.7,0-4.4,1.6-4.4,5c0,9.7,19.9,4.8,19.9,21.2
				c0,10.5-5.8,14.7-15.8,14.7c-7.9,0-15.3-2.4-15.3-12.1v-3H346z"/>
		</g>
	</g>
</g>
<circle class="st16" cx="256.6" cy="211.3" r="13.4"/>
<circle class="st16" cx="137.6" cy="211.3" r="13.4"/>
<circle class="st16" cx="256.6" cy="70.3" r="13.4"/>
<circle class="st16" cx="137.6" cy="70.3" r="13.4"/>
</svg>
