<?xml version="1.0" encoding="utf-8"?>
<!-- Generator: Adobe Illustrator 21.1.0, SVG Export Plug-In . SVG Version: 6.00 Build 0)  -->
<svg version="1.1" id="Layer_1" xmlns="http://www.w3.org/2000/svg" xmlns:xlink="http://www.w3.org/1999/xlink" x="0px" y="0px"
	 viewBox="0 0 287.2 275" style="enable-background:new 0 0 287.2 275;" xml:space="preserve">
<style type="text/css">
	.st0{fill:url(#SVGID_1_);}
	.st1{fill:url(#SVGID_2_);}
	.st2{fill:#231F20;}
	.st3{fill:#AFBBC9;}
	.st4{fill:url(#SVGID_3_);}
	.st5{fill:url(#SVGID_4_);}
	.st6{fill:#FFFFFF;}
</style>
<g>
	
		<linearGradient id="SVGID_1_" gradientUnits="userSpaceOnUse" x1="80.7" y1="99.3702" x2="282.3596" y2="99.3702" gradientTransform="matrix(1 0 0 -1 0 276)">
		<stop  offset="0" style="stop-color:#0281B4"/>
		<stop  offset="1" style="stop-color:#004A80"/>
	</linearGradient>
	<path class="st0" d="M276.2,167.1l-12.8-5.3c3.2-15.7,3.4-32.2,0-48.6l12.8-5.3c5.1-2.1,7.5-7.9,5.4-13l-6.9-16.7
		c-2.6,9.1-7.5,17.7-14.5,24.7c-9.9,9.9-22.8,15.7-36.7,16.6c1.3,5.8,2,11.8,2,18c0,44.5-36.1,80.7-80.7,80.7
		c-11.1,0-21.6-2.2-31.2-6.3l-4.4,4.4c1.5,14.4-3.6,28.8-13.9,39.1c-4.3,4.3-9.2,7.6-14.6,10l21.4,8.9c5.1,2.1,10.9-0.3,13-5.4
		l5.3-12.8c15.7,3.2,32.2,3.4,48.6,0l5.3,12.8c2.1,5.1,7.9,7.5,13,5.4l23.9-9.9c5.1-2.1,7.5-7.9,5.4-13l-5.3-12.8
		c13.9-9.2,25.5-20.9,34.3-34.3l12.8,5.3c5.1,2.1,10.9-0.3,13-5.4l9.9-23.9C283.8,175,281.3,169.2,276.2,167.1z"/>
</g>
<g>
	
		<linearGradient id="SVGID_2_" gradientUnits="userSpaceOnUse" x1="7.4404" y1="175.2798" x2="204.2" y2="175.2798" gradientTransform="matrix(1 0 0 -1 0 276)">
		<stop  offset="0" style="stop-color:#0281B4"/>
		<stop  offset="1" style="stop-color:#004A80"/>
	</linearGradient>
	<path class="st1" d="M61.2,172.8c1.6,0,3.3,0.1,4.9,0.2l4.4-4.4c-4-9.6-6.3-20.1-6.3-31.2c0-44.5,36.1-80.7,80.7-80.7
		c6.2,0,12.2,0.7,18,2c0.9-13.6,6.6-26.7,16.6-36.7c7-7,15.4-11.9,24.7-14.5l-16.7-6.9c-5.1-2.1-10.9,0.3-13,5.4l-5.3,13
		c-15.7-3.2-32.2-3.4-48.6,0l-5.3-12.8c-2.1-5.1-7.9-7.5-13-5.4l-23.9,9.9c-5.1,2.1-7.5,7.9-5.4,13l5.3,12.8
		C64.4,45.7,52.8,57.4,44,70.8l-12.8-5.3c-5.1-2.1-10.9,0.3-13,5.4l-10,24c-2.1,5.1,0.3,10.9,5.4,13l12.8,5.3
		c-3.2,15.7-3.4,32.2,0,48.6l-12.8,5.3c-5.1,2.1-7.5,7.9-5.4,13l8.9,21.5c2.3-5.3,5.7-10.3,10-14.6
		C36.2,177.9,48.3,172.8,61.2,172.8z"/>
</g>
<g>
	<path class="st2" d="M101.2,213.6L205,109.8c17,5.3,36.3,1.3,49.8-12.2c13.6-13.6,17.6-33,12.1-50.1l-25.2,25.2
		c-6.2,6.2-13.5,3.4-19.7-2.8l-9.4-9.4c-6.2-6.2-9-13.5-2.8-19.7L235,15.5c-17.1-5.5-36.5-1.5-50.1,12.1
		c-13.5,13.5-17.5,32.8-12.2,49.8L68.8,181.2c-12.8-2.4-26.5,1.3-36.4,11.2c-15.9,15.9-15.9,41.7,0,57.6s41.7,15.9,57.6,0
		C99.9,240.1,103.6,226.3,101.2,213.6z M76.2,236.1l-20.5,5.5l-15-15l5.5-20.5l20.5-5.5l15,15L76.2,236.1z"/>
	<path class="st3" d="M219.8,13.1c5.1,0,10.2,0.8,15.2,2.4l-25.2,25.2c-6.2,6.2-3.4,13.5,2.8,19.7l9.4,9.4c3.8,3.8,7.9,6.3,12,6.3
		c2.6,0,5.2-1,7.7-3.5l25.2-25.2c5.5,17.1,1.5,36.5-12.1,50.1c-9.7,9.7-22.3,14.5-34.9,14.5c-5,0-10-0.8-14.8-2.3L101.2,213.6
		c2.4,12.8-1.3,26.5-11.2,36.4c-7.9,7.9-18.4,11.9-28.8,11.9s-20.8-4-28.8-11.9c-15.9-15.9-15.9-41.7,0-57.6
		c7.9-7.9,18.4-11.9,28.8-11.9c2.6,0,5.1,0.2,7.6,0.7L172.7,77.3c-5.3-17-1.2-36.3,12.2-49.8C194.5,17.9,207.2,13.1,219.8,13.1
		 M219.8,5.1L219.8,5.1c-15.3,0-29.8,6-40.6,16.8c-14,14-19.7,33.9-15.5,53L66,172.7c-1.6-0.2-3.2-0.2-4.8-0.2
		c-13,0-25.2,5.1-34.4,14.3s-14.3,21.4-14.3,34.4s5.1,25.2,14.3,34.4c9.2,9.2,21.4,14.3,34.4,14.3s25.2-5.1,34.4-14.3
		c10.4-10.4,15.5-24.8,14-39.2l97.8-97.8c4.1,0.9,8.2,1.3,12.4,1.3c15.3,0,29.8-6,40.6-16.8c15.3-15.3,20.7-37.6,14.1-58.2l-4-12.5
		l-9.3,9.3L236,67c-1.1,1.1-1.8,1.1-2,1.1c-1.2,0-3.5-1-6.4-4l-9.4-9.4c-3.1-3.1-3.7-5.1-3.9-5.8c-0.1-0.5-0.3-1.2,1.1-2.6
		l25.2-25.2l9.3-9.3l-12.5-4C231.8,6.1,225.8,5.1,219.8,5.1L219.8,5.1z"/>
</g>
<linearGradient id="SVGID_3_" gradientUnits="userSpaceOnUse" x1="67.35" y1="615.4955" x2="67.35" y2="685.0654" gradientTransform="matrix(1 0 0 1 0 -502.7681)">
	<stop  offset="0" style="stop-color:#EF3745"/>
	<stop  offset="1" style="stop-color:#8A1129"/>
</linearGradient>
<rect y="109.7" class="st4" width="134.7" height="72"/>
<linearGradient id="SVGID_4_" gradientUnits="userSpaceOnUse" x1="210.95" y1="616.2851" x2="210.95" y2="668.5591" gradientTransform="matrix(1 0 0 1 0 -502.7681)">
	<stop  offset="0" style="stop-color:#D9D9D9"/>
	<stop  offset="0.9946" style="stop-color:#A6A6A6"/>
</linearGradient>
<rect x="134.7" y="109.7" class="st5" width="152.5" height="72"/>
<g>
	<path class="st6" d="M27.8,133.2h-9.5v-8.6H48v8.6h-9.5v36.6H27.8V133.2z"/>
	<path class="st6" d="M51.6,124.6h17.9c9.1,0,12.2,5.6,12.2,11.8c0,6.6-2.7,9.8-7.6,11v0.1c6.8,1,7.2,5.2,7.3,11.3
		c0.2,8.9,0.5,9.8,2,10.5v0.6H71.9c-0.8-1.5-1.1-4.1-1.1-9.2c0-7.9-1.1-9.5-4.4-9.5h-4.1v18.7H51.6V124.6z M62.3,143.7h3.3
		c4.3,0,5.5-3.2,5.5-5.9c0-3.4-1.3-5.7-5.5-5.7h-3.2L62.3,143.7L62.3,143.7z"/>
	<path class="st6" d="M94.5,152L83,124.6h11.8l5.1,16.8h0.1l5.2-16.8h11.4L105.1,152v17.8H94.5V152z"/>
</g>
<g>
	<path class="st2" d="M161.6,133.2h-9.5v-8.6h29.7v8.6h-9.5v36.6h-10.6L161.6,133.2L161.6,133.2z"/>
	<path class="st2" d="M185.4,124.6H196v16.9h8.5v-16.9h10.6v45.3h-10.6v-19.3H196v19.3h-10.6V124.6z"/>
	<path class="st2" d="M222,124.6h10.6v45.3H222V124.6z"/>
	<path class="st2" d="M248.3,156v1.6c0,3.4,1,6,4.6,6c3.7,0,4.8-2.8,4.8-5.4c0-9.8-19.5-4.3-19.5-21.2c0-7.2,3.9-13.3,14.8-13.3
		c10.6,0,14.5,5.4,14.5,12.4v1.1h-10.3c0-2.2-0.3-3.7-0.9-4.8s-1.6-1.6-3.2-1.6c-2.7,0-4.2,1.6-4.2,4.9c0,9.4,19.5,4.7,19.5,20.7
		c0,10.3-5.7,14.4-15.5,14.4c-7.7,0-14.9-2.3-14.9-11.8v-3H248.3z"/>
</g>
</svg>
